<svg xmlns="http://www.w3.org/2000/svg"  viewBox="0 0 80 80" width="80px" height="80px"><path d="M 45 9.792969 L 9 16.613281 L 9 63.386719 L 45 70.207031 L 45 63 L 69 63 L 69 17 L 45 17 Z M 43 12.207031 L 43 67.792969 L 11 61.730469 L 11 18.269531 Z M 40 15 C 39.449219 15 39 15.449219 39 16 C 39 16.550781 39.449219 17 40 17 C 40.550781 17 41 16.550781 41 16 C 41 15.449219 40.550781 15 40 15 Z M 40 19 C 39.449219 19 39 19.449219 39 20 C 39 20.550781 39.449219 21 40 21 C 40.550781 21 41 20.550781 41 20 C 41 19.449219 40.550781 19 40 19 Z M 45 19 L 67 19 L 67 61 L 45 61 L 45 53 L 62 53 L 62 51 L 45 51 L 45 45 L 62 45 L 62 43 L 45 43 L 45 37 L 62 37 L 62 35 L 45 35 L 45 29 L 62 29 L 62 27 L 45 27 Z M 40 23 C 39.449219 23 39 23.449219 39 24 C 39 24.550781 39.449219 25 40 25 C 40.550781 25 41 24.550781 41 24 C 41 23.449219 40.550781 23 40 23 Z M 40 27 C 39.449219 27 39 27.449219 39 28 C 39 28.550781 39.449219 29 40 29 C 40.550781 29 41 28.550781 41 28 C 41 27.449219 40.550781 27 40 27 Z M 40 31 C 39.449219 31 39 31.449219 39 32 C 39 32.550781 39.449219 33 40 33 C 40.550781 33 41 32.550781 41 32 C 41 31.449219 40.550781 31 40 31 Z M 23.453125 31.003906 L 20.921875 42.9375 C 20.757813 43.703125 20.660156 44.40625 20.636719 45.050781 L 20.578125 45.050781 C 20.539063 44.1875 20.476563 43.5 20.390625 42.988281 L 18.425781 31.003906 L 14.988281 31.003906 L 18.65625 49.003906 L 22.289063 49.003906 L 24.667969 37.457031 C 24.777344 36.929688 24.859375 36.257813 24.921875 35.4375 L 24.957031 35.4375 C 24.984375 36.179688 25.058594 36.855469 25.183594 37.457031 L 27.5 49.003906 L 30.984375 49.003906 L 34.679688 31.003906 L 31.503906 31.003906 L 29.578125 43.015625 C 29.464844 43.695313 29.398438 44.363281 29.371094 45.027344 L 29.332031 45.027344 C 29.265625 44.179688 29.195313 43.535156 29.109375 43.09375 L 26.820313 31.003906 Z M 40 35 C 39.449219 35 39 35.449219 39 36 C 39 36.550781 39.449219 37 40 37 C 40.550781 37 41 36.550781 41 36 C 41 35.449219 40.550781 35 40 35 Z M 40 39 C 39.449219 39 39 39.449219 39 40 C 39 40.550781 39.449219 41 40 41 C 40.550781 41 41 40.550781 41 40 C 41 39.449219 40.550781 39 40 39 Z M 40 43 C 39.449219 43 39 43.449219 39 44 C 39 44.550781 39.449219 45 40 45 C 40.550781 45 41 44.550781 41 44 C 41 43.449219 40.550781 43 40 43 Z M 40 47 C 39.449219 47 39 47.449219 39 48 C 39 48.550781 39.449219 49 40 49 C 40.550781 49 41 48.550781 41 48 C 41 47.449219 40.550781 47 40 47 Z M 40 51 C 39.449219 51 39 51.449219 39 52 C 39 52.550781 39.449219 53 40 53 C 40.550781 53 41 52.550781 41 52 C 41 51.449219 40.550781 51 40 51 Z M 40 55 C 39.449219 55 39 55.449219 39 56 C 39 56.550781 39.449219 57 40 57 C 40.550781 57 41 56.550781 41 56 C 41 55.449219 40.550781 55 40 55 Z M 40 59 C 39.449219 59 39 59.449219 39 60 C 39 60.550781 39.449219 61 40 61 C 40.550781 61 41 60.550781 41 60 C 41 59.449219 40.550781 59 40 59 Z M 40 63 C 39.449219 63 39 63.449219 39 64 C 39 64.550781 39.449219 65 40 65 C 40.550781 65 41 64.550781 41 64 C 41 63.449219 40.550781 63 40 63 Z"/></svg>