<svg width="144" height="144" viewBox="0 0 144 144" fill="none" xmlns="http://www.w3.org/2000/svg">
<mask id="mask0" mask-type="alpha" maskUnits="userSpaceOnUse" x="0" y="0" width="144" height="144">
<rect width="144" height="144" rx="15" fill="url(#paint0_linear)"/>
</mask>
<g mask="url(#mask0)">
<rect width="144" height="144" rx="15" fill="url(#paint1_radial)"/>
<rect x="36.2858" y="22.5713" width="112.571" height="98.8571" rx="5" stroke="white" stroke-width="4"/>
<rect x="43.8857" y="49.3716" width="23.3143" height="6.85714" rx="2" fill="white"/>
<rect x="78.1714" y="49.3716" width="6.85713" height="6.85714" rx="2" fill="white"/>
<rect x="89.1428" y="49.3716" width="6.85714" height="6.85714" rx="2" fill="white" fill-opacity="0.5"/>
<rect x="100.114" y="49.3716" width="6.85714" height="6.85714" rx="2" fill="white" fill-opacity="0.5"/>
<rect x="111.086" y="49.3716" width="6.85714" height="6.85714" rx="2" fill="white"/>
<rect x="122.057" y="49.3716" width="6.85715" height="6.85714" rx="2" fill="white"/>
<rect x="133.029" y="49.3716" width="6.85715" height="6.85714" rx="2" fill="white"/>
<rect x="43.8857" y="74.0571" width="23.3143" height="6.85715" rx="2" fill="white"/>
<rect x="89.1428" y="74.0571" width="6.85714" height="6.85715" rx="2" fill="white"/>
<rect x="100.114" y="74.0571" width="6.85714" height="6.85715" rx="2" fill="white"/>
<rect x="122.057" y="74.0571" width="6.85715" height="6.85715" rx="2" fill="white"/>
<rect x="133.029" y="74.0571" width="6.85715" height="6.85715" rx="2" fill="white"/>
<rect x="43.8857" y="86.3999" width="23.3143" height="6.85715" rx="2" fill="white"/>
<rect x="78.1714" y="86.3999" width="6.85713" height="6.85715" rx="2" fill="white"/>
<rect x="100.114" y="86.3999" width="6.85714" height="6.85715" rx="2" fill="white" fill-opacity="0.5"/>
<rect x="111.086" y="86.3999" width="6.85714" height="6.85715" rx="2" fill="white"/>
<rect x="133.029" y="86.3999" width="6.85715" height="6.85715" rx="2" fill="white"/>
<rect x="43.8857" y="106.971" width="23.3143" height="6.85715" rx="2" fill="white" fill-opacity="0.5"/>
<rect x="111.086" y="106.971" width="6.85714" height="6.85715" rx="2" fill="white" fill-opacity="0.5"/>
<rect x="89.1428" y="106.971" width="6.85714" height="6.85715" rx="2" fill="white"/>
<rect x="122.057" y="106.971" width="6.85715" height="6.85715" rx="2" fill="white"/>
<rect x="133.029" y="106.971" width="6.85715" height="6.85715" rx="2" fill="white" fill-opacity="0.5"/>
<rect x="43.8857" y="61.7144" width="23.3143" height="6.85714" rx="2" fill="white"/>
<rect x="78.1714" y="61.7144" width="6.85713" height="6.85714" rx="2" fill="white" fill-opacity="0.5"/>
<rect x="111.086" y="61.7144" width="6.85714" height="6.85714" rx="2" fill="white" fill-opacity="0.5"/>
<line x1="38.4" y1="38.7715" x2="146.743" y2="38.7715" stroke="white" stroke-width="2"/>
<line x1="72.3143" y1="39.7715" x2="72.3143" y2="119.314" stroke="white" stroke-width="2"/>
</g>
<defs>
<linearGradient id="paint0_linear" x1="78.5" y1="-7" x2="35.5" y2="136.5" gradientUnits="userSpaceOnUse">
<stop stop-color="#FF9A86"/>
<stop offset="1" stop-color="#FA5C7F"/>
</linearGradient>
<radialGradient id="paint1_radial" cx="0" cy="0" r="1" gradientUnits="userSpaceOnUse" gradientTransform="translate(105.6 19.8857) rotate(128.853) scale(126.796 187.314)">
<stop stop-color="#FF9C86"/>
<stop offset="0.510707" stop-color="#F37E85"/>
<stop offset="1" stop-color="#FA5C7F"/>
</radialGradient>
</defs>
</svg>
