<svg width="162" height="109" viewBox="0 0 162 109" fill="none" xmlns="http://www.w3.org/2000/svg">
<path fill-rule="evenodd" clip-rule="evenodd" d="M31.7092 82.3377C31.7092 82.3377 32.9408 82.7853 34.3213 82.7853C35.8139 82.7853 36.7093 82.5624 37.2315 82.039C37.6422 81.6289 37.8288 80.9196 37.7918 79.8382V72.8228H39.9932V80.1744C39.9562 83.4202 38.3891 84.8013 34.732 84.8013C32.9408 84.8013 31.7092 84.5026 31.7092 84.5026V82.3377ZM46.4108 74.9502C49.9182 74.9502 51.9706 76.816 51.9706 79.9503C51.9706 82.1892 50.5155 84.8013 46.4108 84.8013C42.2691 84.8013 40.814 82.1892 40.814 79.9503C40.8134 76.816 42.9028 74.9502 46.4108 74.9502ZM49.8062 79.8388C49.8062 77.936 48.5752 76.8535 46.4108 76.8535C44.2464 76.8535 42.9784 77.936 42.9784 79.8388C42.9784 82.4873 45.1423 82.8615 46.4108 82.8615C47.6793 82.8615 49.8062 82.4867 49.8062 79.8388ZM60.7386 75.1743V78.9053H55.1043V75.1743H52.9405V84.5772H55.1043V80.8081H60.7386V84.5772H62.9406V75.1743H60.7386ZM93.5001 82.6369V80.8081H98.4996V78.9053H93.5001V77.0765H99.9553V75.1743H91.2982V84.5772H99.9553V82.6369H93.5001ZM103.277 82.6369V80.8081H108.277V78.9053H103.277V77.0765H109.768V75.1743H101.112V84.5772H109.768V82.6369H103.277ZM123.799 82.6369V80.8081H128.799V78.9053H123.799V77.0765H130.291V75.1743H121.634V84.5772H130.291V82.6369H123.799ZM83.8732 74.7642C86.7088 74.7642 88.351 76.1812 88.351 78.6436C88.351 82.1147 85.5529 82.6369 83.8732 82.6369H80.7759V74.7642H83.8732ZM83.8732 72.8228H78.612V84.5772H83.8732C88.7987 84.5772 90.5149 81.4429 90.5149 78.7938C90.5143 75.0617 88.0149 72.8228 83.8732 72.8228ZM118.201 80.9952C119.88 80.5851 120.477 79.3154 120.477 78.196C120.477 76.2932 119.246 75.1743 117.119 75.1743H110.963V84.5766H113.126V81.1437H115.701L118.313 84.5766H120.963L118.201 80.9952ZM113.127 79.2039V77.0765H117.12C117.865 77.0765 118.314 77.4878 118.314 78.1215C118.314 79.0549 117.568 79.2039 117.12 79.2039H113.127ZM72.0823 84.5772L66.4099 78.159V84.5772H64.2466V75.1743H66.4099L72.0823 81.5174V75.1743H74.2462V84.5772H72.0823Z" fill="white"/>
<path fill-rule="evenodd" clip-rule="evenodd" d="M81.3759 18.3462C89.4772 18.3462 97.2384 20.184 104.046 23.4521C106.429 29.2389 107.79 35.5702 107.791 42.106C107.791 48.7102 106.429 55.0415 104.046 60.7593C97.2384 64.0269 89.4772 65.933 81.3759 65.933C73.2746 65.933 65.514 64.0269 58.7064 60.7593C56.3235 54.9726 55.0298 48.7096 55.0298 42.106C55.0298 35.5702 56.3229 29.2389 58.7064 23.5199C65.514 20.184 73.2746 18.3462 81.3759 18.3462ZM71.8449 43.5799C72.1855 40.7886 72.9341 38.3378 74.0233 36.0911C74.2278 35.8193 73.8877 35.7515 73.8877 35.7515C73.0024 35.547 70.6879 35.0702 70.6879 35.0702L70.3478 34.1171C72.6623 33.2319 75.5215 32.4833 77.3593 32.0749C77.631 31.6664 77.7677 31.2574 77.7677 30.9857C77.7677 30.7133 77.6994 30.5088 77.4954 30.3049C76.6102 29.2157 73.0702 29.5558 69.258 30.9857L69.1896 30.9173C69.8026 30.3721 70.8924 29.7597 71.7765 29.3513C71.5042 28.1937 70.0065 27.7175 70.0065 27.7175V27.5807C71.3003 27.7169 72.2533 28.2615 72.7301 28.9423C72.7874 28.927 72.843 28.9121 72.897 28.8977C73.806 28.6549 74.2736 28.53 75.0447 28.466C74.9769 26.7638 73.2747 25.5379 73.2747 25.5379L73.3431 25.4701C74.9091 26.0147 76.0661 27.1039 76.474 28.466C77.2231 28.466 77.6316 28.5338 78.3123 28.7378C78.5169 28.2615 78.5846 27.7169 78.5846 27.2401C78.5846 25.6063 77.496 24.3809 77.4276 24.3131L77.5644 24.2448C79.5388 25.2662 80.0151 26.9678 80.0151 28.5338C80.0151 29.9637 79.6066 31.2568 79.4705 31.5975C79.4705 31.5975 81.7167 31.1896 83.4183 30.9851C83.3505 31.1207 82.602 32.1421 80.5597 33.2313L78.9253 33.0274C78.7892 33.4353 77.8361 36.4312 77.8361 38.6774C77.8361 39.4265 78.04 40.1072 78.5168 40.5157C79.3338 41.2648 80.6953 41.3326 81.5805 41.3326C88.048 41.0603 90.8388 41.9456 91.2478 42.1495C91.3156 42.0134 91.3834 41.6733 91.3834 41.197C91.3834 40.2434 91.1111 38.7457 89.6129 36.908L89.6818 36.8396C89.7496 36.8396 93.5619 38.8819 94.0381 42.0812L92.3365 42.7625C93.8347 44.3279 94.3782 46.2346 94.7867 47.8001C94.8074 47.8662 94.8278 47.9318 94.8481 47.9968C95.1618 49.0037 95.4321 49.8713 95.9442 50.3192C96.625 50.9321 99.3486 52.362 99.4164 52.362C99.4164 52.362 100.233 53.3829 102.207 56.7872C103.924 51.91 104.799 46.7761 104.794 41.6055C104.794 35.9549 103.705 30.3727 101.663 25.0628C95.4674 22.2036 88.4553 20.7059 81.3749 20.7059C74.3628 20.7059 67.3507 22.203 61.0878 25.0628C59.0455 30.3721 57.9563 35.9549 57.9563 41.6055C57.9563 47.3238 59.0455 52.9066 61.0878 58.2165C67.3507 61.0757 74.3628 62.5728 81.3749 62.5728C88.3875 62.5728 95.3985 61.0762 101.663 58.2165C100.302 55.7652 98.1904 53.5874 98.0549 53.519C97.7826 53.4506 92.2681 51.749 90.362 50.796C89.0105 50.091 87.659 48.5747 87.1834 48.0411C87.1079 47.9564 87.0545 47.8964 87.0266 47.8684C85.5284 47.7328 84.0301 47.7328 82.4641 47.9368C82.332 47.9551 82.1992 47.9736 82.0659 47.9923C80.2079 48.2521 78.2429 48.527 76.3373 48.2097C75.4621 48.1062 74.5866 47.8477 73.6816 47.5804C73.3902 47.4943 73.0958 47.4074 72.7974 47.3244C71.0274 46.7114 69.1213 46.099 67.0107 46.099C67.283 46.6436 69.1213 50.0474 71.7082 50.8643C71.7082 50.8643 72.5251 51.0688 72.7974 51.2728L73.8866 53.3834C73.8866 53.3834 68.1004 50.5242 64.2876 45.8267L64.1515 44.9415C66.4649 44.0574 68.8454 43.8531 71.2266 43.6488L71.2319 43.6483C71.2319 43.6483 71.7765 43.5799 71.8449 43.5799Z" fill="white"/>
</svg>
