<?xml version="1.0" encoding="UTF-8"?>
<svg width="122px" height="15px" viewBox="0 0 122 15" version="1.1" xmlns="http://www.w3.org/2000/svg" xmlns:xlink="http://www.w3.org/1999/xlink">
    <!-- Generator: Sketch 53 (72520) - https://sketchapp.com -->
    <title>Logo / Atlassian / Horizontal / Gradient / White@1x</title>
    <desc>Created with Sketch.</desc>
    <defs>
        <linearGradient x1="82.1838254%" y1="15.8165294%" x2="43.4230828%" y2="97.439728%" id="linearGradient-1">
            <stop stop-color="#FFFFFF" stop-opacity="0.4" offset="0%"></stop>
            <stop stop-color="#FFFFFF" offset="92%"></stop>
        </linearGradient>
    </defs>
    <g id="Feb-21:-404-Page" stroke="none" stroke-width="1" fill="none" fill-rule="evenodd">
        <g id="404---with-links" transform="translate(-466.000000, -1000.000000)">
            <g id="Logo-/-Atlassian-/-Horizontal-/-Gradient-/-White" transform="translate(466.000000, 1000.000000)">
                <g>
                    <path d="M4.42761934,6.96176471 C4.33752816,6.84628237 4.19224549,6.78535099 4.04464826,6.80114709 C3.89705103,6.81694319 3.76866408,6.90716314 3.70621497,7.03897059 L0.047342162,14.1970588 C-0.0207903775,14.3299292 -0.0135708183,14.4878776 0.0664120097,14.614266 C0.146394838,14.7406545 0.287680422,14.8173731 0.43960579,14.8169118 L5.53452418,14.8169118 C5.7015236,14.8212347 5.85537763,14.728659 5.9267878,14.5808824 C7.0224207,12.3529412 6.35737604,8.97794118 4.42761934,6.96176471 Z" id="Shape" fill="url(#linearGradient-1)" fill-rule="nonzero"></path>
                    <path d="M7.11259624,0.441176471 C5.25081417,3.23402729 5.03231302,6.78058855 6.53772713,9.77205882 L9.00628272,14.5808824 C9.08069252,14.7259983 9.23262008,14.8174149 9.39854635,14.8169118 L14.4934647,14.8169118 C14.6441852,14.815094 14.783327,14.7374618 14.8616851,14.6114685 C14.9400432,14.4854752 14.9465729,14.3288795 14.8789652,14.1970588 L7.8565445,0.441176471 C7.78790715,0.301162254 7.64327359,0.21208552 7.48457037,0.21208552 C7.32586716,0.21208552 7.18123359,0.301162254 7.11259624,0.441176471 Z" id="Shape" fill="#FFFFFF" fill-rule="nonzero"></path>
                    <path d="M66.8741854,6.18970588 C66.8741854,7.95441176 67.7150724,9.37058824 71.0019711,9.99044118 C72.9632892,10.3919118 73.3735879,10.7029412 73.3735879,11.3426471 C73.3735879,11.9823529 72.9632892,12.3661765 71.570077,12.3661765 C69.9001536,12.3366602 68.2636564,11.9031839 66.8065537,11.1044118 L66.8065537,13.9941176 C67.7962304,14.4683824 69.1037758,15 71.5407699,15 C74.9787127,15 76.3426178,13.5022059 76.3426178,11.2720588 M76.3426178,11.2720588 C76.3426178,9.16985294 75.2041515,8.18382353 71.9893933,7.50661765 C70.2151894,7.12279412 69.7846012,6.73897059 69.7846012,6.18308824 C69.7846012,5.48823529 70.4203388,5.19705882 71.5881121,5.19705882 C73.008377,5.19705882 74.4083523,5.61838235 75.7361872,6.20294118 L75.7361872,3.44779412 C74.4632287,2.88073582 73.0767161,2.5996016 71.6782877,2.625 C68.501854,2.625 66.8584047,3.97720588 66.8584047,6.18970588" id="Shape" fill="#FFFFFF" fill-rule="nonzero"></path>
                    <polygon id="Shape" fill="#FFFFFF" fill-rule="nonzero" points="111.033151 2.80808824 111.033151 14.8169118 113.648241 14.8169118 113.648241 5.66029412 114.750638 8.09117647 118.450089 14.8169118 121.736988 14.8169118 121.736988 2.80808824 119.121897 2.80808824 119.121897 10.5595588 118.132221 8.30955882 115.160936 2.80808824"></polygon>
                    <polygon id="Rectangle-path" fill="#FFFFFF" fill-rule="nonzero" points="91.5417062 2.80808824 94.400271 2.80808824 94.400271 14.8169118 91.5417062 14.8169118"></polygon>
                    <path d="M88.2435356,11.2720588 C88.2435356,9.16985294 87.1050693,8.18382353 83.8903111,7.50661765 C82.1161072,7.12279412 81.6855189,6.73897059 81.6855189,6.18308824 C81.6855189,5.48823529 82.3212565,5.19705882 83.4890299,5.19705882 C84.9092947,5.19705882 86.3092701,5.61838235 87.637105,6.20294118 L87.637105,3.44779412 C86.3641465,2.88073582 84.9776338,2.5996016 83.5792054,2.625 C80.4027718,2.625 78.7593225,3.97720588 78.7593225,6.18970588 C78.7593225,7.95441176 79.6002094,9.37058824 82.8871081,9.99044118 C84.8484262,10.3919118 85.258725,10.7029412 85.258725,11.3426471 C85.258725,11.9823529 84.8484262,12.3661765 83.455214,12.3661765 C81.7852907,12.3366602 80.1487935,11.9031839 78.6916908,11.1044118 L78.6916908,13.9941176 C79.6813674,14.4683824 80.9889128,15 83.425907,15 C86.8638497,15 88.2277549,13.5022059 88.2277549,11.2720588" id="Shape" fill="#FFFFFF" fill-rule="nonzero"></path>
                    <polygon id="Shape" fill="#FFFFFF" fill-rule="nonzero" points="44.6729658 2.80808824 44.6729658 14.8169118 50.5479027 14.8169118 51.472202 12.2227941 47.5495658 12.2227941 47.5495658 2.80808824"></polygon>
                    <polygon id="Shape" fill="#FFFFFF" fill-rule="nonzero" points="33.0651186 2.80808824 33.0651186 5.40441176 36.2415522 5.40441176 36.2415522 14.8169118 39.1181521 14.8169118 39.1181521 5.40441176 42.5177702 5.40441176 42.5177702 2.80808824"></polygon>
                    <path d="M28.8944995,2.80808824 L25.1251617,2.80808824 L20.8418232,14.8169118 L24.1219587,14.8169118 L24.7216261,12.7941176 C26.218325,13.2254051 27.8103538,13.2254051 29.3070527,12.7941176 L29.9134832,14.8169118 L33.1823468,14.8169118 L28.8944995,2.80808824 Z M27.0098306,10.6301471 C26.4757301,10.6308708 25.944288,10.556584 25.4317585,10.4095588 L27.0098306,5.16617647 L28.5879027,10.4095588 C28.0753733,10.556584 27.5439312,10.6308708 27.0098306,10.6301471 L27.0098306,10.6301471 Z" id="Shape" fill="#FFFFFF" fill-rule="nonzero"></path>
                    <path d="M60.6746166,2.80808824 L56.9052787,2.80808824 L52.6219403,14.8169118 L55.8908038,14.8169118 L56.5017431,12.7941176 C57.9956285,13.2236746 59.5842667,13.2236746 61.0781521,12.7941176 L61.6845827,14.8169118 L64.9534463,14.8169118 L60.6746166,2.80808824 Z M58.7899476,10.6301471 C58.2558471,10.6308708 57.724405,10.556584 57.2118756,10.4095588 L58.7899476,5.16617647 L60.3680197,10.4095588 C59.8554903,10.556584 59.3240482,10.6308708 58.7899476,10.6301471 L58.7899476,10.6301471 Z" id="Shape" fill="#FFFFFF" fill-rule="nonzero"></path>
                    <path d="M104.698318,2.80808824 L100.928981,2.80808824 L96.6456421,14.8169118 L99.9145057,14.8169118 L100.525445,12.7941176 C102.01933,13.2236746 103.607969,13.2236746 105.101854,12.7941176 L105.708285,14.8169118 L108.977148,14.8169118 L104.698318,2.80808824 Z M102.81365,10.6301471 C102.279549,10.6308708 101.748107,10.556584 101.235577,10.4095588 L102.81365,5.16617647 L104.391722,10.4095588 C103.879192,10.556584 103.34775,10.6308708 102.81365,10.6301471 L102.81365,10.6301471 Z" id="Shape" fill="#FFFFFF" fill-rule="nonzero"></path>
                </g>
            </g>
        </g>
    </g>
</svg>