<svg width="29" height="32" viewBox="0 0 29 32" fill="none" xmlns="http://www.w3.org/2000/svg">
<path d="M13.1172 29.4406C13.1172 29.9584 13.3617 30.3611 14.2966 30.5481C14.8575 30.6631 14.9726 30.7494 14.9726 30.9364C14.9726 31.1234 14.8575 31.2384 14.4548 31.2384C13.9945 31.2384 13.448 31.0802 13.1028 30.8645V31.7131C13.3904 31.8569 13.7644 32.0007 14.4548 32.0007C15.4328 32.0007 15.8211 31.5692 15.8211 30.9076M15.8211 30.922C15.8211 30.3035 15.4903 30.0159 14.5842 29.8289C14.0808 29.7138 13.9514 29.5988 13.9514 29.4406C13.9514 29.2392 14.1383 29.1529 14.4692 29.1529C14.8719 29.1529 15.2746 29.2824 15.6486 29.4406V28.6351C15.3753 28.5057 14.9726 28.3906 14.4979 28.3906C13.5918 28.3906 13.1172 28.779 13.1172 29.4262" fill="#0052CC"/>
<path d="M25.7166 28.4473V31.9567H26.4645V29.2815L26.7809 29.9862L27.8308 31.9567H28.7657V28.4473H28.0178V30.7054L27.7445 30.0581L26.8959 28.4473H25.7166Z" fill="#0052CC"/>
<path d="M20.9702 28.4473H20.1504V31.9423H20.9702V28.4473Z" fill="#0052CC"/>
<path d="M19.2156 30.922C19.2156 30.3035 18.8847 30.0159 17.9786 29.8289C17.4752 29.7138 17.3458 29.5988 17.3458 29.4406C17.3458 29.2392 17.5328 29.1529 17.8636 29.1529C18.2663 29.1529 18.669 29.2824 19.043 29.4406V28.6351C18.7697 28.5057 18.367 28.3906 17.8923 28.3906C16.9862 28.3906 16.5116 28.779 16.5116 29.4262C16.5116 29.944 16.7561 30.3467 17.691 30.5337C18.2519 30.6487 18.367 30.735 18.367 30.922C18.367 31.109 18.2519 31.224 17.8492 31.224C17.3889 31.224 16.8424 31.0658 16.4972 30.8501V31.6987C16.7848 31.8425 17.1588 31.9863 17.8492 31.9863C18.8272 32.0007 19.2156 31.5692 19.2156 30.922Z" fill="#0052CC"/>
<path d="M6.7887 28.4473V31.9567H8.47149L8.73038 31.1944H7.60852V28.4473H6.7887Z" fill="#0052CC"/>
<path d="M3.48059 28.4473V29.2096H4.38671V31.9567H5.20653V29.2096H6.18457V28.4473H3.48059Z" fill="#0052CC"/>
<path d="M2.30126 28.4473H1.22254L0 31.9567H0.934886L1.10748 31.367C1.30884 31.4245 1.53897 31.4677 1.75471 31.4677C1.98484 31.4677 2.20058 31.4389 2.40194 31.367L2.57453 31.9567H3.50942L2.30126 28.4473ZM1.75471 30.7341C1.5965 30.7341 1.45267 30.7054 1.30884 30.6766L1.75471 29.152L2.20058 30.6766C2.05675 30.7054 1.91292 30.7341 1.75471 30.7341Z" fill="#0052CC"/>
<path d="M11.3624 28.4473H10.2837L9.06116 31.9423H9.99604L10.1686 31.3526C10.37 31.4101 10.6001 31.4533 10.8159 31.4533C11.046 31.4533 11.2617 31.4245 11.4631 31.3526L11.6357 31.9423H12.5706L11.3624 28.4473ZM10.8159 30.7341C10.6577 30.7341 10.5138 30.7054 10.37 30.6766L10.8159 29.152L11.2617 30.6766C11.1179 30.7054 10.9741 30.7341 10.8159 30.7341Z" fill="#0052CC"/>
<path d="M23.9043 28.4473H22.8256L21.603 31.9423H22.5379L22.7105 31.3526C22.9119 31.4101 23.142 31.4533 23.3577 31.4533C23.5879 31.4533 23.8036 31.4245 24.005 31.3526L24.1776 31.9423H25.1124L23.9043 28.4473ZM23.3721 30.7341C23.2139 30.7341 23.0701 30.7054 22.9263 30.6766L23.3721 29.152L23.818 30.6766C23.6742 30.7054 23.5303 30.7341 23.3721 30.7341Z" fill="#0052CC"/>
<path d="M9.56461 12.1087C9.3201 11.7779 8.84547 11.7204 8.51466 11.9649C8.41398 12.0368 8.34207 12.1375 8.28454 12.2381L1.86978 25.0964C1.6828 25.4704 1.82663 25.945 2.21497 26.132C2.31565 26.1895 2.44509 26.2183 2.56016 26.2183H11.5063C11.8083 26.2183 12.0672 26.0457 12.1967 25.7868C14.124 21.8171 12.959 15.7332 9.56461 12.1087Z" fill="url(#paint0_linear_2765_14045)"/>
<path d="M14.2821 0.41522C11.0172 5.43484 10.6432 11.7921 13.2897 17.1713L17.6333 25.7866C17.7628 26.0455 18.0216 26.2181 18.3237 26.2181H27.2842C27.7157 26.1749 28.0465 25.801 28.0034 25.3695C28.0034 25.2832 27.9746 25.1969 27.9458 25.125L15.5909 0.41522C15.4183 0.0556482 14.9869 -0.102563 14.6273 0.0700314C14.4835 0.156329 14.354 0.271391 14.2821 0.41522Z" fill="#2684FF"/>
<defs>
<linearGradient id="paint0_linear_2765_14045" x1="13.1014" y1="14.0732" x2="6.31353" y2="25.834" gradientUnits="userSpaceOnUse">
<stop stop-color="#0052CC"/>
<stop offset="0.92" stop-color="#2684FF"/>
</linearGradient>
</defs>
</svg>
