<svg xmlns="http://www.w3.org/2000/svg" fill="currentColor" aria-hidden="true" viewBox="0 0 63 65"><path d="M21.265 11.485C21.265 5.54 26.085.72 32.03.72s10.767 4.82 10.767 10.766v3.588h-5.384v-3.587a5.383 5.383 0 0 0-5.224-5.381l-.16-.003a5.383 5.383 0 0 0-5.382 5.384v3.587h-5.383zm13.757 20.336h27.514v25.72a7.178 7.178 0 0 1-7.178 7.178H8.105A7.178 7.178 0 0 1 .928 57.54v-25.72h28.71v3.888a2.692 2.692 0 1 0 5.383 0z"></path><path d="M62.536 22.252a7.178 7.178 0 0 0-7.178-7.178H8.105a7.178 7.178 0 0 0-7.177 7.178v9.57h28.71v-5.086a2.692 2.692 0 0 1 5.384 0v5.086h27.514z" opacity=".5"></path></svg>