<svg xmlns="http://www.w3.org/2000/svg" fill="currentColor" aria-hidden="true" viewBox="0 0 51 65"><path d="M22.392 33.239a2.71 2.71 0 0 1-5.418.127l-.003-.127v-13.25a2.71 2.71 0 0 1 5.418-.127l.003.127zM34.437 33.239a2.71 2.71 0 0 1-5.418.127l-.003-.127v-13.25a2.71 2.71 0 0 1 5.418-.127l.003.127z" opacity=".5"></path><path fill-rule="evenodd" d="M43.47.719a7.227 7.227 0 0 1 7.227 7.227v53.153c0 2.948-3.34 4.656-5.73 2.928L25.704 50.102 6.44 64.028c-2.39 1.728-5.73.02-5.73-2.928V7.946A7.227 7.227 0 0 1 7.938.719zm-21.078 32.52a2.71 2.71 0 0 1-5.417.128l-.003-.128V19.99a2.71 2.71 0 0 1 5.417-.127l.003.127zm9.335 2.71a2.71 2.71 0 0 0 2.71-2.71V19.99l-.003-.127a2.71 2.71 0 0 0-5.417.127v13.25l.003.127a2.71 2.71 0 0 0 2.707 2.583z"></path></svg>