<svg width="105" height="143" viewBox="0 0 105 143" fill="none" xmlns="http://www.w3.org/2000/svg">
<g clip-path="url(#clip0_2870_15057)">
<path d="M45.0175 123.293H16.5641L16.4834 143L30.4914 132.833L44.4927 143L45.0175 123.293Z" fill="#FFA700"/>
<path d="M104.986 0H11.8418V114.183H104.986V0Z" fill="#0065FF"/>
<path d="M100.64 117.136H11.8415L9.08301 10.3473L11.8415 3.83447H100.64V117.136Z" fill="#164B35"/>
<path d="M0 9.9442L11.8415 0L18.9734 1.6013L7.15875 13.167L0 9.9442Z" fill="#0065FF"/>
<path d="M93.1444 9.94434H0V124.128H93.1444V9.94434Z" fill="#0065FF"/>
<path d="M61.434 62.9481L63.3045 62.726C63.3045 62.726 66.5474 62.9413 67.8392 62.5444L72.7104 62.6924C72.7104 62.6924 74.7423 62.5847 75.3546 62.3358C75.7381 62.1811 75.9803 61.9994 76.0341 61.8312C76.1418 61.4948 75.4555 61.2122 73.4909 61.3333C73.464 61.3131 73.39 61.2929 73.3765 61.266C71.3042 61.515 69.306 61.0911 67.1933 61.1449C67.2203 61.2458 67.153 61.3198 67.0857 61.2728L67.1059 61.1516C65.6997 61.4006 64.8183 61.0036 63.5332 61.4275C63.5332 61.4275 63.688 61.2593 63.6812 61.266C59.2743 61.3468 53.2997 61.192 48.5227 61.3939L48.5497 61.414L48.5362 61.4342C48.9803 61.5553 51.0929 61.737 51.0929 61.737C49.505 62.3358 47.6952 61.7168 46.0064 61.7437L46.0199 61.5822C46.7532 61.5822 47.3991 61.515 47.6615 61.4477C45.0376 61.2324 39.7694 61.1987 37.2598 61.4477C37.3271 61.5688 38.1008 61.2997 38.3027 61.6966C37.6568 61.6966 37.0176 61.7572 36.4121 61.7572C36.4121 61.5015 36.7619 61.589 36.8292 61.5419C35.7796 61.2593 14.411 60.9969 19.5177 62.0801L19.3899 62.2147C20.7086 62.2685 21.7985 62.3156 23.1711 62.5713C23.3662 62.5511 23.3864 62.5713 23.3864 62.4434C23.4402 62.4233 23.521 62.3829 23.5008 62.3291C23.4806 62.0061 23.9112 62.134 24.0996 62.1272C23.8708 63.1297 28.3585 62.2214 28.9573 62.2618C29.0717 62.7395 30.128 62.2752 30.4913 62.4771C30.4644 62.4973 30.3029 62.5982 30.2827 62.6184C30.6057 62.9211 35.9075 62.0667 34.3936 62.6587C40.6643 63.6612 52.0214 62.43 58.7899 63.2979L58.7361 63.2441C58.7899 63.2643 58.9581 63.2374 58.9985 63.3046C59.6645 63.1095 61.4206 62.9682 61.4206 62.9682L61.434 62.9481ZM45.9055 62.3964C45.9055 62.3964 45.8988 62.4233 45.9055 62.43C45.9055 62.3829 45.0308 62.4098 44.9972 62.4031V62.2416C45.8786 61.9321 47.9105 63.0153 45.9862 62.5444C45.9189 62.5847 45.9189 62.4502 45.9055 62.3964ZM38.1749 62.3896C38.0268 62.3762 37.8586 62.3627 37.677 62.3493C39.682 61.8446 42.3867 62.4636 44.5868 62.2281C43.8399 62.9413 42.0503 62.5646 41.1016 62.5242C40.1462 62.6857 39.0226 62.4905 38.1749 62.3896ZM25.2568 62.2887V62.3694H25.1828C25.1828 62.3493 25.1895 62.3223 25.203 62.3089C25.2164 62.2887 25.2366 62.2752 25.2568 62.282V62.2887ZM60.371 62.5713C60.223 62.6991 59.6645 62.6251 60.0346 62.3762C60.1288 62.4165 60.4046 62.2954 60.371 62.5713ZM35.9142 62.2012C35.9142 62.4636 35.1808 62.5175 35.1808 62.1541C35.4298 62.1541 35.6787 62.1743 35.9142 62.2012ZM65.8477 62.2954C66.0428 62.0128 65.989 62.3291 66.0496 62.504C66.0025 62.4636 65.8208 62.4502 65.8612 62.3223L65.8477 62.2954ZM69.2858 62.1272C69.3329 61.9927 69.528 61.9052 69.6222 61.8985C69.8577 61.9994 69.3934 62.2483 69.2858 62.1272ZM74.9509 62.1003C74.9576 61.9456 75.0922 61.8917 75.1325 62.0465C75.1191 62.1609 74.9509 62.2483 74.9307 62.0734C74.9307 62.0801 74.9374 62.0936 74.9509 62.1003ZM32.5098 61.6428C32.7049 61.1853 33.3777 61.5553 33.741 61.4342C33.6603 61.8917 33.0144 61.5553 32.7385 61.6361C32.6443 61.6361 32.5703 61.6361 32.5098 61.6495V61.6428ZM54.8068 61.7303C54.8001 61.3266 55.5536 61.6495 55.8026 61.5553V61.7168C55.4258 61.7572 55.2038 61.8648 54.8203 61.7303H54.8068ZM39.3725 61.5015C39.5138 61.34 39.756 61.4948 39.8973 61.4881C39.8973 61.7168 39.2783 61.7572 39.3725 61.4948V61.5015ZM45.6364 61.5553C45.67 61.8043 45.3605 61.6832 45.273 61.7101C45.3336 61.6563 45.448 61.5015 45.522 61.5082C45.5758 61.5082 45.5893 61.5419 45.6364 61.5621V61.5553ZM54.5377 61.885C54.2484 61.885 53.9389 61.885 53.6361 61.885V61.7235C53.9524 61.7235 54.2484 61.7235 54.5444 61.7235V61.885H54.5377ZM51.5975 61.6361V61.4746C52.0214 61.3199 52.0685 61.7303 51.611 61.6361H51.5975ZM58.3189 61.6966C58.2785 61.6899 58.2045 61.6764 58.1642 61.6764C57.5586 61.6966 58.4064 61.1113 58.3189 61.6966ZM61.4879 61.5351C61.5484 61.515 61.6292 61.4679 61.6964 61.4679C62.127 61.4881 61.6493 61.8716 61.4879 61.5351Z" fill="#101214"/>
<path d="M50.3523 73.4637L51.7383 73.2417C51.7383 73.2417 54.1403 73.457 55.0956 73.06L58.7019 73.208C58.7019 73.208 60.209 73.1004 60.6598 72.8514C60.9424 72.6967 61.1241 72.515 61.1644 72.3468C61.2452 72.0104 60.7338 71.7278 59.2806 71.8489C59.2604 71.8287 59.2065 71.8086 59.1998 71.7816C57.6658 72.0306 56.1856 71.6067 54.618 71.6605C54.6381 71.7615 54.5843 71.8355 54.5372 71.7884L54.5507 71.6673C53.5078 71.9162 52.8552 71.5192 51.9065 71.9431C51.9065 71.9431 52.0209 71.7749 52.0142 71.7816C48.751 71.8624 44.3239 71.7009 40.7916 71.9095L40.8118 71.9297V71.9499C41.1347 72.071 42.6957 72.2526 42.7024 72.2526C41.525 72.8514 40.1861 72.2324 38.9346 72.2593V72.0979C39.4863 72.0979 39.964 72.0306 40.1592 71.9633C38.2147 71.748 34.3191 71.7144 32.4554 71.9633C32.5025 72.0844 33.0812 71.8153 33.2292 72.2122C32.7515 72.2122 32.2738 72.2728 31.8297 72.2728C31.8297 72.0171 32.0921 72.1046 32.1392 72.0575C31.3655 71.7749 15.5409 71.5125 19.3221 72.5958L19.2279 72.7303C20.2035 72.7841 21.0109 72.8312 22.0268 73.0869C22.1681 73.0667 22.1883 73.0869 22.1883 72.9591C22.2287 72.9389 22.2892 72.8985 22.2758 72.8447C22.2623 72.5217 22.5785 72.6496 22.7198 72.6428C22.5516 73.6453 25.8753 72.737 26.3194 72.7774C26.4068 73.2551 27.1873 72.7909 27.4564 72.9927C27.4362 73.0129 27.3219 73.1205 27.3017 73.134C27.5439 73.4368 31.4664 72.5823 30.3428 73.1744C34.9852 74.1769 43.3954 72.9456 48.4079 73.8135L48.3675 73.753C48.4079 73.7732 48.529 73.7463 48.5626 73.8135C49.0538 73.6184 50.359 73.4771 50.359 73.4771L50.3523 73.4637ZM38.8539 72.912C38.8539 72.912 38.8539 72.9389 38.8539 72.9456C38.8539 72.8985 38.208 72.9254 38.1811 72.9187V72.7572C38.8337 72.4477 40.3408 73.531 38.9145 73.06C38.8674 73.1004 38.8674 72.9658 38.8539 72.912ZM33.1283 72.9052C33.0139 72.8918 32.8928 72.8783 32.7582 72.8649C34.2384 72.3603 36.2434 72.9793 37.8716 72.7438C37.3199 73.457 35.9877 73.0802 35.288 73.0398C34.5815 73.2013 33.7472 73.0062 33.1215 72.9052H33.1283ZM23.5608 72.8043V72.8851H23.507C23.507 72.8649 23.507 72.838 23.5272 72.8245C23.5339 72.8111 23.5541 72.7909 23.5676 72.7976L23.5608 72.8043ZM49.5651 73.0869C49.4575 73.2215 49.0403 73.1407 49.3162 72.8918C49.3902 72.9322 49.592 72.811 49.5651 73.0869ZM31.4529 72.7169C31.4529 72.9793 30.908 73.0331 30.908 72.6698C31.0964 72.6698 31.278 72.6899 31.4529 72.7169ZM53.6222 72.8111C53.7635 72.5285 53.7231 72.8447 53.7702 73.0196C53.7366 72.9793 53.602 72.9658 53.6289 72.838L53.6155 72.8111H53.6222ZM56.1654 72.6428C56.1991 72.5083 56.3471 72.4208 56.4144 72.4141C56.5893 72.515 56.2462 72.764 56.1654 72.6428ZM60.3638 72.6159C60.3638 72.4612 60.4714 72.4074 60.4983 72.5621C60.4849 72.6765 60.3638 72.764 60.3503 72.589C60.3503 72.5958 60.3503 72.6092 60.3638 72.6159ZM28.9366 72.1584C29.0846 71.7009 29.5825 72.071 29.8516 71.9499C29.7911 72.4074 29.3134 72.071 29.1116 72.1517C29.0375 72.1517 28.9837 72.1517 28.9433 72.1652L28.9366 72.1584ZM45.4475 72.2459C45.4475 71.8422 45.9992 72.1652 46.1876 72.071V72.2324C45.9117 72.2728 45.7435 72.3804 45.4609 72.2459H45.4475ZM34.0164 72.0171C34.124 71.8557 34.299 72.0104 34.4066 72.0037C34.4066 72.2324 33.9491 72.2728 34.0164 72.0104V72.0171ZM38.6521 72.071C38.6722 72.3199 38.4502 72.1988 38.3829 72.2257C38.43 72.1719 38.5108 72.0171 38.5646 72.0239C38.605 72.0239 38.6117 72.0575 38.6521 72.0777V72.071ZM45.2456 72.4006C45.0303 72.4006 44.8016 72.4006 44.5796 72.4006V72.2392C44.815 72.2392 45.0371 72.2392 45.2524 72.2392V72.4006H45.2456ZM43.0657 72.1517V71.9902C43.382 71.8355 43.4156 72.2459 43.0725 72.1517H43.0657ZM48.0446 72.2122C48.0446 72.2122 47.9638 72.1921 47.9302 72.1921C47.4794 72.2122 48.1118 71.6269 48.0446 72.2122ZM50.3927 72.0508C50.4398 72.0239 50.4936 71.9835 50.5474 71.9835C50.8636 72.0037 50.5138 72.3872 50.3927 72.0508Z" fill="#101214"/>
<path d="M77.8512 51.1269L74.5612 36.0962L17.668 37.758V51.1269H77.8512Z" fill="#FFA700"/>
</g>
<defs>
<clipPath id="clip0_2870_15057">
<rect width="104.986" height="143" fill="white"/>
</clipPath>
</defs>
</svg>
