<svg xmlns="http://www.w3.org/2000/svg" xmlns:xlink="http://www.w3.org/1999/xlink" viewBox="0 0 91.95 87.92"><defs><style>.f6e239f6-9e87-4c0f-ac7b-deee7fd9109c{fill:none;}.efc99a0e-d1a7-4675-b1f4-16499c91aa65{fill:#b6d9e9;}.ee69faa1-1986-4d42-8379-4ef42588abe7{fill:url(#bc4a2767-c16d-409f-a288-7e7c22c95a05);}.e8d9f443-a371-4716-a2cd-762fbb6f3551{fill:url(#b436bf0b-7d21-4c13-85c6-fd9e44339acb);}.af4cc5c1-b552-41eb-a490-6de690153d4f{fill:url(#abee6c86-14de-414d-b8af-959179fb6eba);}.e29a4552-f8dd-4421-9a2d-df3f4a1f8028{fill:url(#f0680569-2c6c-4d7f-9069-e31cd6da8ece);}.f6137ce3-9c88-44d0-a731-f64045948cec{fill:#b4c0e2;}.b9c50b40-cbf4-48b2-84ec-d0b7f064394f{fill:url(#e95f6495-e9ab-4750-8d0c-bcbffcecae37);}.e6477145-ca0d-482e-a7ca-bf6cbf29ec0a{fill:url(#bd3cec04-f350-4efe-ac9f-2e3de01bd30d);}.bdc94f36-04d5-4d58-a022-157da50bf20c{fill:url(#f667c041-6390-429b-8d92-ed38232cd1f3);}.af57296f-7d4e-4127-8519-a7a8c9e6f618{fill:url(#ee776287-3117-460a-9678-d161b0db8f8a);}.ee8f2bb8-41b6-446b-8285-884b815649fc{fill:url(#ecc6125b-5fc8-4113-b865-74f8b4d7b631);}.a4f837f2-67f3-45fa-82de-1788339eb305{fill:url(#ed554283-1401-4b90-9737-da401f7da80d);}.ab63dfe4-08f0-4993-9c8e-10715d457874{fill:url(#f7c752cb-cfbb-48c8-9a7e-70a8457f6258);}.e16320f9-6734-4b00-9d04-98529b5b403e{fill:url(#ee1e0cc0-5f64-4fd5-b99e-2d5b390f6550);}.b3501865-0afc-4e1c-b5ba-9550c1d5c14a{clip-path:url(#a5e2a6b4-ee8d-4e09-babd-d0109f82058c);}.b601baec-6760-4fd7-9f1e-0c04e422ff58{fill:url(#e21bce0f-cfc9-4784-b04f-f20af6679715);}.e700dcb0-a42a-421c-acd0-00b09535510f{fill:url(#aac17693-4fe0-4a74-a197-607f899712bc);}.e142fdb4-a5ae-428f-b965-6d46d75c9103{clip-path:url(#acc3f7b5-de01-4551-b7d3-dad3f0428b1a);}.adc6a44e-333b-4c17-9a87-6fcb8dbc6f35{fill:url(#a52e22d7-b452-4c28-8922-a1cebd2057f5);}.bae5b7c3-0596-4f1e-8bac-d78c3b129ce5{fill:url(#a49053f5-1b6a-4ce9-9eae-73b1f397fcfa);}</style><linearGradient id="bc4a2767-c16d-409f-a288-7e7c22c95a05" x1="97.34" y1="19.86" x2="51.74" y2="44.41" gradientTransform="translate(-14.29 43.19) rotate(-38)" gradientUnits="userSpaceOnUse"><stop offset="0" stop-color="#e0eef4"/><stop offset="1" stop-color="#80bdda"/></linearGradient><linearGradient id="b436bf0b-7d21-4c13-85c6-fd9e44339acb" x1="68.31" y1="23.02" x2="79.09" y2="32.56" gradientTransform="translate(-0.16 48.06) rotate(-38)" gradientUnits="userSpaceOnUse"><stop offset="0" stop-color="#44a5d0"/><stop offset="1" stop-color="#80bdda"/></linearGradient><linearGradient id="abee6c86-14de-414d-b8af-959179fb6eba" x1="52.12" y1="20.85" x2="17.62" y2="81.02" gradientTransform="translate(6.8 -7.03) rotate(9.96)" gradientUnits="userSpaceOnUse"><stop offset="0" stop-color="#e0eef4"/><stop offset="1" stop-color="#b6d9e9"/></linearGradient><linearGradient id="f0680569-2c6c-4d7f-9069-e31cd6da8ece" x1="17.38" y1="17.58" x2="62.78" y2="8.04" gradientTransform="translate(2.83 -6.68) rotate(9.96)" xlink:href="#b436bf0b-7d21-4c13-85c6-fd9e44339acb"/><linearGradient id="e95f6495-e9ab-4750-8d0c-bcbffcecae37" x1="46.18" y1="13.93" x2="52.16" y2="11.04" gradientTransform="translate(9.88 -18.26) rotate(24.52)" gradientUnits="userSpaceOnUse"><stop offset="0" stop-color="#005d8e"/><stop offset="1" stop-color="#0b7abf"/></linearGradient><linearGradient id="bd3cec04-f350-4efe-ac9f-2e3de01bd30d" x1="55.3" y1="20.03" x2="49.53" y2="22.51" gradientTransform="translate(13.67 -19.09) rotate(24.52)" gradientUnits="userSpaceOnUse"><stop offset="0" stop-color="#0390cb"/><stop offset="1" stop-color="#0b7abf"/></linearGradient><linearGradient id="f667c041-6390-429b-8d92-ed38232cd1f3" x1="30.99" y1="72.59" x2="38.68" y2="31.06" gradientTransform="translate(24.09 -10.02) rotate(24.52)" gradientUnits="userSpaceOnUse"><stop offset="0" stop-color="#e0eef4"/><stop offset="1" stop-color="#f2f9fc"/></linearGradient><linearGradient id="ee776287-3117-460a-9678-d161b0db8f8a" x1="12.58" y1="34.18" x2="30.27" y2="28.1" gradientTransform="translate(14.72 -7.18) rotate(24.52)" xlink:href="#b436bf0b-7d21-4c13-85c6-fd9e44339acb"/><linearGradient id="ecc6125b-5fc8-4113-b865-74f8b4d7b631" x1="14.92" y1="40.97" x2="32.61" y2="34.89" gradientTransform="translate(18 -5.38) rotate(24.52)" xlink:href="#b436bf0b-7d21-4c13-85c6-fd9e44339acb"/><linearGradient id="ed554283-1401-4b90-9737-da401f7da80d" x1="60.63" y1="57.92" x2="0.1" y2="59.12" gradientTransform="translate(55.56 117.14) rotate(-180)" gradientUnits="userSpaceOnUse"><stop offset="0" stop-color="#0b7abf"/><stop offset="1" stop-color="#005d8e"/></linearGradient><linearGradient id="f7c752cb-cfbb-48c8-9a7e-70a8457f6258" x1="60.82" y1="67.39" x2="0.29" y2="68.59" gradientTransform="matrix(1, 0, 0, 1, 0, 0)" xlink:href="#ed554283-1401-4b90-9737-da401f7da80d"/><linearGradient id="ee1e0cc0-5f64-4fd5-b99e-2d5b390f6550" x1="60.81" y1="66.91" x2="0.28" y2="68.1" gradientTransform="matrix(1, 0, 0, 1, 0, 0)" xlink:href="#ed554283-1401-4b90-9737-da401f7da80d"/><clipPath id="a5e2a6b4-ee8d-4e09-babd-d0109f82058c"><path class="f6e239f6-9e87-4c0f-ac7b-deee7fd9109c" d="M11,73h8.72a1.8,1.8,0,0,0,1.79-1.54l1.7-11.27H7.54L9.23,71.49A1.82,1.82,0,0,0,11,73Z"/></clipPath><linearGradient id="e21bce0f-cfc9-4784-b04f-f20af6679715" x1="5.74" y1="66.46" x2="23.46" y2="66.72" gradientUnits="userSpaceOnUse"><stop offset="0" stop-color="#0390cb"/><stop offset="1" stop-color="#44a5d0"/></linearGradient><linearGradient id="aac17693-4fe0-4a74-a197-607f899712bc" x1="22.38" y1="70.85" x2="8.9" y2="59.86" gradientTransform="translate(69.26 106.28) rotate(140.88)" xlink:href="#bc4a2767-c16d-409f-a288-7e7c22c95a05"/><clipPath id="acc3f7b5-de01-4551-b7d3-dad3f0428b1a"><path class="efc99a0e-d1a7-4675-b1f4-16499c91aa65" d="M35.61,73h8.72a1.8,1.8,0,0,0,1.79-1.54l1.7-11.27H32.12l1.7,11.27A1.8,1.8,0,0,0,35.61,73Z"/></clipPath><linearGradient id="a52e22d7-b452-4c28-8922-a1cebd2057f5" x1="32.69" y1="73.15" x2="43.37" y2="61.42" xlink:href="#e21bce0f-cfc9-4784-b04f-f20af6679715"/><linearGradient id="a49053f5-1b6a-4ce9-9eae-73b1f397fcfa" x1="46.21" y1="69.73" x2="30.87" y2="59.16" gradientTransform="translate(112.3 90.99) rotate(140.88)" xlink:href="#bc4a2767-c16d-409f-a288-7e7c22c95a05"/></defs><title>Business</title><g id="a11ecd41-7f9b-4d20-9f6f-07d05a8e6367" data-name="Layer 2"><g id="f0c2b88f-1c7b-41f4-a81d-57d98e78a363" data-name="icons"><rect class="ee69faa1-1986-4d42-8379-4ef42588abe7" x="30.42" y="9.21" width="50.29" height="66.29" rx="9.51" transform="translate(37.86 -25.23) rotate(38)"/><rect class="e8d9f443-a371-4716-a2cd-762fbb6f3551" x="49.75" y="22.39" width="39.9" height="3.74" rx="1.87" transform="translate(29.71 -37.77) rotate(38)"/><rect class="af4cc5c1-b552-41eb-a490-6de690153d4f" x="18.58" y="2.35" width="50.29" height="66.29" rx="9.51" transform="translate(-5.48 8.1) rotate(-9.96)"/><rect class="e29a4552-f8dd-4421-9a2d-df3f4a1f8028" x="19.8" y="11.01" width="39.9" height="3.74" rx="1.87" transform="matrix(0.98, -0.17, 0.17, 0.98, -1.63, 7.07)"/><rect class="f6137ce3-9c88-44d0-a731-f64045948cec" x="21.03" y="18.44" width="29.71" height="3.74" rx="1.87" transform="translate(-2.97 6.52) rotate(-9.96)"/><path class="b9c50b40-cbf4-48b2-84ec-d0b7f064394f" d="M41,9h7.27a4.57,4.57,0,0,1,4.57,4.57v0a4.57,4.57,0,0,1-4.57,4.57H41a0,0,0,0,1,0,0V9A0,0,0,0,1,41,9Z" transform="translate(-1.41 20.71) rotate(-24.52)"/><path class="e6477145-ca0d-482e-a7ca-bf6cbf29ec0a" d="M44.84,17.35h7.27a4.57,4.57,0,0,1,4.57,4.57v0a4.57,4.57,0,0,1-4.57,4.57H44.84a0,0,0,0,1,0,0V17.35A0,0,0,0,1,44.84,17.35Z" transform="translate(-4.52 23.04) rotate(-24.52)"/><rect class="bdc94f36-04d5-4d58-a022-157da50bf20c" x="9.95" y="17.28" width="50.29" height="66.29" rx="9.51" transform="translate(-17.76 19.11) rotate(-24.52)"/><rect class="af57296f-7d4e-4127-8519-a7a8c9e6f618" x="9.32" y="28.42" width="29.16" height="3.74" rx="1.87" transform="translate(-10.42 12.65) rotate(-24.52)"/><rect class="ee8f2bb8-41b6-446b-8285-884b815649fc" x="12.6" y="36.87" width="17.59" height="3.74" rx="1.87" transform="translate(-14.15 12.37) rotate(-24.52)"/><g id="ad151f1d-a37a-49b2-bde0-edbd10cafd8a" data-name="glasses"><rect class="a4f837f2-67f3-45fa-82de-1788339eb305" y="55.27" width="55.56" height="6.61" rx="3.3" transform="translate(55.56 117.14) rotate(180)"/><path class="ab63dfe4-08f0-4993-9c8e-10715d457874" d="M35,76.13H45a3.89,3.89,0,0,0,3.83-3.19l2.45-13.33H28.71l2.45,13.33A3.88,3.88,0,0,0,35,76.13Z"/><path class="e16320f9-6734-4b00-9d04-98529b5b403e" d="M10.41,76.13h10a3.89,3.89,0,0,0,3.83-3.19l2.45-13.33H4.13L6.58,72.94A3.88,3.88,0,0,0,10.41,76.13Z"/><g class="b3501865-0afc-4e1c-b5ba-9550c1d5c14a"><path class="b601baec-6760-4fd7-9f1e-0c04e422ff58" d="M11,73h8.72a1.8,1.8,0,0,0,1.79-1.54l1.7-11.27H7.54L9.23,71.49A1.82,1.82,0,0,0,11,73Z"/><rect class="e700dcb0-a42a-421c-acd0-00b09535510f" x="5.04" y="62.61" width="21.41" height="5.68" transform="translate(-13.32 126.16) rotate(-140.88)"/></g><path class="efc99a0e-d1a7-4675-b1f4-16499c91aa65" d="M35.61,73h8.72a1.8,1.8,0,0,0,1.79-1.54l1.7-11.27H32.12l1.7,11.27A1.8,1.8,0,0,0,35.61,73Z"/><g class="e142fdb4-a5ae-428f-b965-6d46d75c9103"><path class="adc6a44e-333b-4c17-9a87-6fcb8dbc6f35" d="M35.61,73h8.72a1.8,1.8,0,0,0,1.79-1.54l1.7-11.27H32.12l1.7,11.27A1.8,1.8,0,0,0,35.61,73Z"/><rect class="bae5b7c3-0596-4f1e-8bac-d78c3b129ce5" x="29.28" y="62.61" width="21.41" height="5.68" transform="translate(29.72 141.45) rotate(-140.88)"/></g></g></g></g></svg>