<svg width="448" height="301" viewBox="0 0 448 301" fill="none" xmlns="http://www.w3.org/2000/svg">
<path fill-rule="evenodd" clip-rule="evenodd" d="M5.29948 199.49C-14.1988 123.635 16.6153 0 156.472 0C296.328 0 442.641 99.2222 447.84 159.598C453.04 219.974 330.349 270.148 204.168 294.062C77.9865 317.977 24.7977 275.345 5.29948 199.49Z" fill="url(#paint0_linear)" fill-opacity="0.7"/>
<mask id="mask0" mask-type="alpha" maskUnits="userSpaceOnUse" x="0" y="0" width="448" height="301">
<path fill-rule="evenodd" clip-rule="evenodd" d="M5.29948 199.49C-14.1988 123.635 16.6153 0 156.472 0C296.328 0 442.641 99.2222 447.84 159.598C453.04 219.974 330.349 270.148 204.168 294.062C77.9865 317.977 24.7977 275.345 5.29948 199.49Z" fill="white"/>
</mask>
<g mask="url(#mask0)">
</g>
<path d="M27.4032 79.1573V75.8964H24.1423V79.1573H27.4032ZM30.338 79.1573H33.5988V75.8964H30.338V79.1573ZM30.338 116.576H27.0771V119.837H30.338V116.576ZM64.0879 116.576H67.3487V113.315H64.0879V116.576ZM64.0879 119.51V122.771H67.3487V119.51H64.0879ZM30.338 119.51V116.25H27.0771V119.51H30.338ZM30.338 180.769H27.0771V184.03H30.338V180.769ZM64.0879 180.769H67.3487V177.509H64.0879V180.769ZM64.0879 183.704V186.965H67.3487V183.704H64.0879ZM30.338 183.704V180.443H27.0771V183.704H30.338ZM64.0879 244.601H67.3487V241.34H64.0879V244.601ZM64.0879 247.535V250.796H67.3487V247.535H64.0879ZM24.1423 79.1573V240.199H30.6641V79.1573H24.1423ZM30.338 75.8964H27.4032V82.4181H30.338V75.8964ZM33.5988 116.576V79.1573H27.0771V116.576H33.5988ZM30.338 119.837H64.0879V113.315H30.338V119.837ZM60.827 116.576V119.51H67.3487V116.576H60.827ZM64.0879 116.25H30.338V122.771H64.0879V116.25ZM33.5988 180.769V119.51H27.0771V180.769H33.5988ZM64.0879 177.509H30.338V184.03H64.0879V177.509ZM67.3487 183.704V180.769H60.827V183.704H67.3487ZM30.338 186.965H64.0879V180.443H30.338V186.965ZM33.5988 240.199V183.704H27.0771V240.199H33.5988ZM34.7401 241.34C34.1098 241.34 33.5988 240.829 33.5988 240.199H27.0771C27.0771 244.431 30.508 247.862 34.7401 247.862V241.34ZM64.0879 241.34H34.7401V247.862H64.0879V241.34ZM67.3487 247.535V244.601H60.827V247.535H67.3487ZM34.7401 250.796H64.0879V244.275H34.7401V250.796ZM24.1423 240.199C24.1423 246.052 28.8871 250.796 34.7401 250.796V244.275C32.489 244.275 30.6641 242.45 30.6641 240.199H24.1423Z" fill="url(#paint1_linear)"/>
<g clip-path="url(#clip0)">
<rect x="2.96277" y="28.8949" width="322.825" height="51.3585" rx="3.20881" fill="url(#paint2_linear)"/>
<path d="M20.2458 58.9016H22.4029L24.7507 51.1098L27.0985 58.9016H29.3729L32.249 49.2609H30.4588L28.3017 57.3902L25.8072 49.2609H23.8409L21.3463 57.3902L19.1893 49.2609H17.3697L20.2458 58.9016ZM39.3973 54.5141C39.3973 52.4598 38.5462 51.3445 36.9174 51.3445C35.8609 51.3445 35.0244 51.8435 34.5549 52.7386V48.4978H32.8967V58.9016H34.5549V54.7782C34.5549 53.4723 35.2445 52.7973 36.257 52.7973C37.2842 52.7973 37.7391 53.4282 37.7391 54.7342V58.9016H39.3973V54.5141ZM44.0897 52.6945C45.1755 52.6945 45.7332 53.3842 45.8065 54.6608H42.2114C42.3288 53.4576 42.9158 52.6945 44.0897 52.6945ZM47.0245 58.6081V57.1847C46.3348 57.4048 45.5571 57.5663 44.6913 57.5663C43.1359 57.5663 42.4022 56.9206 42.2261 55.7907H47.406V55.2184C47.406 52.944 46.4668 51.3445 44.1337 51.3445C41.8299 51.3445 40.5826 52.9587 40.5826 55.2184C40.5826 57.5369 41.8152 59.0483 44.6473 59.0483C45.4543 59.0483 46.3935 58.9163 47.0245 58.6081ZM55.2318 54.5141C55.2318 52.5038 54.3367 51.3445 52.6639 51.3445C51.6661 51.3445 50.8444 51.8435 50.3895 52.7239V51.4913H48.7313V58.9016H50.3895V54.7782C50.3895 53.4723 51.0791 52.7973 52.0916 52.7973C53.1188 52.7973 53.5737 53.2962 53.5737 54.4407V58.9016H55.2318V54.5141ZM61.3045 56.4217V52.944H63.0801V51.4913H61.3045V49.9359H59.6757V51.4913H58.6192V52.944H59.6757V56.5538C59.6757 57.9918 60.4094 58.9603 62.0676 58.9603C62.5225 58.9603 62.8159 58.9016 63.0801 58.8429V57.3168C62.8746 57.3608 62.6252 57.4048 62.3464 57.4048C61.6567 57.4048 61.3045 57.0233 61.3045 56.4217ZM71.0378 54.5141C71.0378 52.4598 70.1867 51.3445 68.5579 51.3445C67.5014 51.3445 66.665 51.8435 66.1954 52.7386V48.4978H64.5372V58.9016H66.1954V54.7782C66.1954 53.4723 66.8851 52.7973 67.8976 52.7973C68.9247 52.7973 69.3796 53.4282 69.3796 54.7342V58.9016H71.0378V54.5141ZM75.7302 52.6945C76.8161 52.6945 77.3737 53.3842 77.447 54.6608H73.8519C73.9693 53.4576 74.5563 52.6945 75.7302 52.6945ZM78.665 58.6081V57.1847C77.9753 57.4048 77.1976 57.5663 76.3318 57.5663C74.7764 57.5663 74.0427 56.9206 73.8666 55.7907H79.0465V55.2184C79.0465 52.944 78.1074 51.3445 75.7742 51.3445C73.4704 51.3445 72.2231 52.9587 72.2231 55.2184C72.2231 57.5369 73.4557 59.0483 76.2878 59.0483C77.0949 59.0483 78.034 58.9163 78.665 58.6081ZM88.1202 57.2288C87.68 57.3902 87.2251 57.4929 86.4621 57.4929C84.7305 57.4929 84.0115 56.451 84.0115 55.1891C84.0115 53.9271 84.7159 52.8559 86.418 52.8559C87.1077 52.8559 87.6066 53.0027 88.0909 53.2228V51.7261C87.4892 51.4473 86.961 51.3445 86.242 51.3445C83.63 51.3445 82.3974 52.944 82.3974 55.1891C82.3974 57.4489 83.63 59.0483 86.286 59.0483C86.9903 59.0483 87.6653 58.9309 88.1202 58.6815V57.2288ZM95.9146 54.5141C95.9146 52.4598 95.0635 51.3445 93.4347 51.3445C92.3782 51.3445 91.5417 51.8435 91.0722 52.7386V48.4978H89.414V58.9016H91.0722V54.7782C91.0722 53.4723 91.7619 52.7973 92.7743 52.7973C93.8015 52.7973 94.2564 53.4282 94.2564 54.7342V58.9016H95.9146V54.5141ZM100.607 52.6945C101.693 52.6945 102.25 53.3842 102.324 54.6608H98.7287C98.8461 53.4576 99.4331 52.6945 100.607 52.6945ZM103.542 58.6081V57.1847C102.852 57.4048 102.074 57.5663 101.209 57.5663C99.6532 57.5663 98.9195 56.9206 98.7434 55.7907H103.923V55.2184C103.923 52.944 102.984 51.3445 100.651 51.3445C98.3472 51.3445 97.0999 52.9587 97.0999 55.2184C97.0999 57.5369 98.3325 59.0483 101.165 59.0483C101.972 59.0483 102.911 58.9163 103.542 58.6081ZM110.575 57.2288C110.135 57.3902 109.68 57.4929 108.917 57.4929C107.186 57.4929 106.467 56.451 106.467 55.1891C106.467 53.9271 107.171 52.8559 108.873 52.8559C109.563 52.8559 110.062 53.0027 110.546 53.2228V51.7261C109.944 51.4473 109.416 51.3445 108.697 51.3445C106.085 51.3445 104.852 52.944 104.852 55.1891C104.852 57.4489 106.085 59.0483 108.741 59.0483C109.445 59.0483 110.12 58.9309 110.575 58.6815V57.2288ZM113.527 58.9016V55.4679L116.374 58.9016H118.428L115.2 55.1304L118.311 51.4913H116.301L113.527 54.925V48.4978H111.869V58.9016H113.527ZM122.225 58.8722V57.4489C122.078 57.4635 122.005 57.4635 121.873 57.4635C121.403 57.4635 121.021 57.2581 121.021 56.6858V48.4978H119.363V56.8913C119.363 58.344 120.185 58.9456 121.476 58.9456C121.858 58.9456 122.107 58.9163 122.225 58.8722ZM123.04 49.5103C123.04 50.1706 123.51 50.5668 124.141 50.5668C124.772 50.5668 125.241 50.1706 125.241 49.5103C125.241 48.85 124.772 48.4685 124.141 48.4685C123.51 48.4685 123.04 48.85 123.04 49.5103ZM123.304 58.9016H124.963V51.4913H123.304V58.9016ZM131.955 56.8179C131.955 55.5706 131.206 54.8956 129.416 54.4994C128.198 54.2206 127.89 53.9565 127.89 53.5016C127.89 53.0174 128.316 52.7532 129.123 52.7532C129.915 52.7532 130.708 53.0027 131.617 53.4136V51.8875C131.06 51.5793 130.135 51.3445 129.137 51.3445C127.391 51.3445 126.364 52.1516 126.364 53.5016C126.364 54.6902 127.039 55.3945 128.815 55.7907C130.018 56.0695 130.399 56.3483 130.399 56.8179C130.399 57.3021 129.959 57.6396 129.137 57.6396C128.184 57.6396 127.083 57.2875 126.437 56.9206V58.4907C127.01 58.7842 127.949 59.0483 129.093 59.0483C131.133 59.0483 131.955 58.1239 131.955 56.8179ZM135.333 56.4217V52.944H137.109V51.4913H135.333V49.9359H133.704V51.4913H132.648V52.944H133.704V56.5538C133.704 57.9918 134.438 58.9603 136.096 58.9603C136.551 58.9603 136.844 58.9016 137.109 58.8429V57.3168C136.903 57.3608 136.654 57.4048 136.375 57.4048C135.685 57.4048 135.333 57.0233 135.333 56.4217ZM140.723 49.5103C140.723 50.1706 141.193 50.5668 141.824 50.5668C142.455 50.5668 142.924 50.1706 142.924 49.5103C142.924 48.85 142.455 48.4685 141.824 48.4685C141.193 48.4685 140.723 48.85 140.723 49.5103ZM140.988 58.9016H142.646V51.4913H140.988V58.9016ZM149.638 56.8179C149.638 55.5706 148.89 54.8956 147.099 54.4994C145.881 54.2206 145.573 53.9565 145.573 53.5016C145.573 53.0174 145.999 52.7532 146.806 52.7532C147.598 52.7532 148.391 53.0027 149.3 53.4136V51.8875C148.743 51.5793 147.818 51.3445 146.821 51.3445C145.074 51.3445 144.047 52.1516 144.047 53.5016C144.047 54.6902 144.722 55.3945 146.498 55.7907C147.701 56.0695 148.083 56.3483 148.083 56.8179C148.083 57.3021 147.642 57.6396 146.821 57.6396C145.867 57.6396 144.766 57.2875 144.121 56.9206V58.4907C144.693 58.7842 145.632 59.0483 146.777 59.0483C148.816 59.0483 149.638 58.1239 149.638 56.8179ZM158.681 57.2288C158.241 57.3902 157.786 57.4929 157.023 57.4929C155.291 57.4929 154.572 56.451 154.572 55.1891C154.572 53.9271 155.277 52.8559 156.979 52.8559C157.668 52.8559 158.167 53.0027 158.652 53.2228V51.7261C158.05 51.4473 157.522 51.3445 156.803 51.3445C154.191 51.3445 152.958 52.944 152.958 55.1891C152.958 57.4489 154.191 59.0483 156.847 59.0483C157.551 59.0483 158.226 58.9309 158.681 58.6815V57.2288ZM163.159 59.063C165.404 59.063 166.725 57.4342 166.725 55.1891C166.725 52.9293 165.404 51.3445 163.159 51.3445C160.899 51.3445 159.578 52.9293 159.578 55.1891C159.578 57.4342 160.899 59.063 163.159 59.063ZM163.159 52.8266C164.509 52.8266 165.096 53.9125 165.096 55.1891C165.096 56.4657 164.509 57.5663 163.159 57.5663C161.794 57.5663 161.193 56.4657 161.193 55.1891C161.193 53.9125 161.794 52.8266 163.159 52.8266ZM174.514 54.7782C174.514 53.4723 175.204 52.7973 176.216 52.7973C177.244 52.7973 177.699 53.4282 177.699 54.7342V58.9016H179.357V54.5141C179.357 52.4598 178.506 51.3445 176.877 51.3445C175.659 51.3445 174.749 51.9902 174.324 53.0907C173.986 51.9755 173.179 51.3445 171.946 51.3445C170.949 51.3445 170.127 51.8435 169.672 52.7239V51.4913H168.014V58.9016H169.672V54.7782C169.672 53.4723 170.362 52.7973 171.374 52.7973C172.401 52.7973 172.856 53.2962 172.856 54.4407V58.9016H174.514V54.7782ZM186.178 55.2038C186.178 56.7298 185.533 57.5663 184.315 57.5663C183.376 57.5663 182.583 56.9353 182.583 55.4972V54.8956C182.583 53.4576 183.434 52.8266 184.417 52.8266C185.562 52.8266 186.178 53.619 186.178 55.2038ZM184.872 59.0483C186.853 59.0483 187.822 57.3168 187.822 55.2038C187.822 53.032 186.883 51.3445 184.96 51.3445C183.86 51.3445 183.038 51.8728 182.583 52.8266V51.4913H180.925V61.763H182.583V57.6103C183.023 58.5641 183.83 59.0483 184.872 59.0483ZM191.969 58.8722V57.4489C191.822 57.4635 191.748 57.4635 191.616 57.4635C191.147 57.4635 190.765 57.2581 190.765 56.6858V48.4978H189.107V56.8913C189.107 58.344 189.929 58.9456 191.22 58.9456C191.602 58.9456 191.851 58.9163 191.969 58.8722ZM196.087 52.6945C197.173 52.6945 197.731 53.3842 197.804 54.6608H194.209C194.327 53.4576 194.913 52.6945 196.087 52.6945ZM199.022 58.6081V57.1847C198.333 57.4048 197.555 57.5663 196.689 57.5663C195.134 57.5663 194.4 56.9206 194.224 55.7907H199.404V55.2184C199.404 52.944 198.465 51.3445 196.131 51.3445C193.828 51.3445 192.58 52.9587 192.58 55.2184C192.58 57.5369 193.813 59.0483 196.645 59.0483C197.452 59.0483 198.391 58.9163 199.022 58.6081ZM202.813 56.4217V52.944H204.588V51.4913H202.813V49.9359H201.184V51.4913H200.127V52.944H201.184V56.5538C201.184 57.9918 201.918 58.9603 203.576 58.9603C204.031 58.9603 204.324 58.9016 204.588 58.8429V57.3168C204.383 57.3608 204.133 57.4048 203.855 57.4048C203.165 57.4048 202.813 57.0233 202.813 56.4217ZM208.927 52.6945C210.013 52.6945 210.571 53.3842 210.644 54.6608H207.049C207.166 53.4576 207.753 52.6945 208.927 52.6945ZM211.862 58.6081V57.1847C211.172 57.4048 210.394 57.5663 209.529 57.5663C207.973 57.5663 207.24 56.9206 207.063 55.7907H212.243V55.2184C212.243 52.944 211.304 51.3445 208.971 51.3445C206.667 51.3445 205.42 52.9587 205.42 55.2184C205.42 57.5369 206.653 59.0483 209.485 59.0483C210.292 59.0483 211.231 58.9163 211.862 58.6081ZM214.816 55.2038C214.816 53.663 215.447 52.8266 216.68 52.8266C217.619 52.8266 218.411 53.4576 218.411 54.8956V55.4972C218.411 56.9353 217.531 57.5663 216.562 57.5663C215.432 57.5663 214.816 56.7739 214.816 55.2038ZM218.411 58.9016H220.069V48.4978H218.411V52.8119C217.986 51.8728 217.193 51.3445 216.151 51.3445C214.141 51.3445 213.172 53.1054 213.172 55.2038C213.172 57.3902 214.097 59.0483 216.005 59.0483C217.09 59.0483 217.956 58.5494 218.411 57.5663V58.9016Z" fill="white"/>
</g>
<g clip-path="url(#clip1)">
<rect x="64.5929" y="92.7262" width="344.836" height="51.3585" rx="3.20881" fill="url(#paint3_linear)"/>
<path d="M83.265 117.847L85.1396 122.733H86.837L88.7411 117.847L89.8187 114.26V122.733H91.5604V113.035H88.7854L86.8961 117.936L86.0547 120.77L85.2134 117.936L83.3388 113.035H80.3572V122.733H82.0399V114.142L83.265 117.847ZM94.705 119.013C94.705 117.463 95.3397 116.622 96.5796 116.622C97.5242 116.622 98.3213 117.257 98.3213 118.703V119.308C98.3213 120.755 97.4357 121.39 96.4615 121.39C95.3249 121.39 94.705 120.593 94.705 119.013ZM98.3213 122.733H99.9892V115.279H98.3213V116.607C97.8932 115.663 97.0962 115.131 96.0482 115.131C94.026 115.131 93.0518 116.903 93.0518 119.013C93.0518 121.213 93.9817 122.881 95.9006 122.881C96.9929 122.881 97.8637 122.379 98.3213 121.39V122.733ZM103.334 118.541C103.334 117.139 104.205 116.696 105.799 116.843V115.176C104.47 115.102 103.747 115.722 103.334 116.681V115.279H101.695V122.733H103.334V118.541ZM108.437 122.733V119.279L111.301 122.733H113.367L110.12 118.939L113.249 115.279H111.227L108.437 118.733V112.268H106.769V122.733H108.437ZM118.855 120.238V116.74H120.641V115.279H118.855V113.714H117.216V115.279H116.154V116.74H117.216V120.371C117.216 121.818 117.954 122.792 119.622 122.792C120.08 122.792 120.375 122.733 120.641 122.674V121.139C120.434 121.183 120.183 121.227 119.903 121.227C119.209 121.227 118.855 120.844 118.855 120.238ZM128.645 118.32C128.645 116.253 127.789 115.131 126.151 115.131C125.088 115.131 124.247 115.633 123.774 116.533V112.268H122.106V122.733H123.774V118.585C123.774 117.272 124.468 116.593 125.487 116.593C126.52 116.593 126.977 117.227 126.977 118.541V122.733H128.645V118.32ZM133.366 116.489C134.458 116.489 135.019 117.183 135.093 118.467H131.476C131.594 117.257 132.185 116.489 133.366 116.489ZM136.318 122.438V121.006C135.624 121.227 134.842 121.39 133.971 121.39C132.406 121.39 131.668 120.74 131.491 119.604H136.701V119.028C136.701 116.74 135.757 115.131 133.41 115.131C131.092 115.131 129.838 116.755 129.838 119.028C129.838 121.36 131.078 122.881 133.926 122.881C134.738 122.881 135.683 122.748 136.318 122.438ZM141.725 119.013C141.725 117.463 142.36 116.622 143.6 116.622C144.545 116.622 145.342 117.257 145.342 118.703V119.308C145.342 120.755 144.456 121.39 143.482 121.39C142.345 121.39 141.725 120.593 141.725 119.013ZM145.342 122.733H147.01V112.268H145.342V116.607C144.914 115.663 144.117 115.131 143.069 115.131C141.046 115.131 140.072 116.903 140.072 119.013C140.072 121.213 141.002 122.881 142.921 122.881C144.013 122.881 144.884 122.379 145.342 121.39V122.733ZM148.583 119.692C148.583 121.729 149.483 122.881 151.151 122.881C152.17 122.881 152.996 122.379 153.454 121.478V122.733H155.122V115.279H153.454V119.427C153.454 120.755 152.76 121.419 151.742 121.419C150.708 121.419 150.251 120.917 150.251 119.766V115.279H148.583V119.692ZM159.96 116.489C161.053 116.489 161.614 117.183 161.687 118.467H158.071C158.189 117.257 158.78 116.489 159.96 116.489ZM162.913 122.438V121.006C162.219 121.227 161.436 121.39 160.566 121.39C159.001 121.39 158.263 120.74 158.086 119.604H163.296V119.028C163.296 116.74 162.352 115.131 160.005 115.131C157.687 115.131 156.433 116.755 156.433 119.028C156.433 121.36 157.673 122.881 160.521 122.881C161.333 122.881 162.278 122.748 162.913 122.438ZM168.32 119.013C168.32 117.463 168.955 116.622 170.195 116.622C171.139 116.622 171.937 117.257 171.937 118.703V119.308C171.937 120.755 171.051 121.39 170.077 121.39C168.94 121.39 168.32 120.593 168.32 119.013ZM171.937 122.733H173.604V112.268H171.937V116.607C171.508 115.663 170.711 115.131 169.663 115.131C167.641 115.131 166.667 116.903 166.667 119.013C166.667 121.213 167.597 122.881 169.516 122.881C170.608 122.881 171.479 122.379 171.937 121.39V122.733ZM176.565 119.013C176.565 117.463 177.2 116.622 178.44 116.622C179.385 116.622 180.182 117.257 180.182 118.703V119.308C180.182 120.755 179.296 121.39 178.322 121.39C177.185 121.39 176.565 120.593 176.565 119.013ZM180.182 122.733H181.85V115.279H180.182V116.607C179.754 115.663 178.957 115.131 177.909 115.131C175.886 115.131 174.912 116.903 174.912 119.013C174.912 121.213 175.842 122.881 177.761 122.881C178.853 122.881 179.724 122.379 180.182 121.39V122.733ZM185.652 120.238V116.74H187.438V115.279H185.652V113.714H184.013V115.279H182.951V116.74H184.013V120.371C184.013 121.818 184.751 122.792 186.419 122.792C186.877 122.792 187.172 122.733 187.438 122.674V121.139C187.231 121.183 186.98 121.227 186.7 121.227C186.006 121.227 185.652 120.844 185.652 120.238ZM191.802 116.489C192.894 116.489 193.455 117.183 193.529 118.467H189.913C190.031 117.257 190.621 116.489 191.802 116.489ZM194.754 122.438V121.006C194.061 121.227 193.278 121.39 192.407 121.39C190.843 121.39 190.105 120.74 189.928 119.604H195.138V119.028C195.138 116.74 194.193 115.131 191.847 115.131C189.529 115.131 188.274 116.755 188.274 119.028C188.274 121.36 189.514 122.881 192.363 122.881C193.175 122.881 194.12 122.748 194.754 122.438ZM204.265 121.05C203.823 121.213 203.365 121.316 202.597 121.316C200.856 121.316 200.132 120.268 200.132 118.998C200.132 117.729 200.841 116.652 202.553 116.652C203.247 116.652 203.749 116.799 204.236 117.021V115.515C203.631 115.235 203.099 115.131 202.376 115.131C199.749 115.131 198.509 116.74 198.509 118.998C198.509 121.272 199.749 122.881 202.42 122.881C203.129 122.881 203.808 122.762 204.265 122.512V121.05ZM208.77 122.895C211.028 122.895 212.357 121.257 212.357 118.998C212.357 116.725 211.028 115.131 208.77 115.131C206.497 115.131 205.168 116.725 205.168 118.998C205.168 121.257 206.497 122.895 208.77 122.895ZM208.77 116.622C210.128 116.622 210.718 117.714 210.718 118.998C210.718 120.283 210.128 121.39 208.77 121.39C207.397 121.39 206.792 120.283 206.792 118.998C206.792 117.714 207.397 116.622 208.77 116.622ZM220.192 118.585C220.192 117.272 220.886 116.593 221.905 116.593C222.938 116.593 223.395 117.227 223.395 118.541V122.733H225.063V118.32C225.063 116.253 224.207 115.131 222.569 115.131C221.344 115.131 220.429 115.781 220 116.888C219.661 115.766 218.849 115.131 217.609 115.131C216.606 115.131 215.779 115.633 215.321 116.519V115.279H213.653V122.733H215.321V118.585C215.321 117.272 216.015 116.593 217.034 116.593C218.067 116.593 218.524 117.094 218.524 118.246V122.733H220.192V118.585ZM231.925 119.013C231.925 120.548 231.276 121.39 230.051 121.39C229.106 121.39 228.309 120.755 228.309 119.308V118.703C228.309 117.257 229.165 116.622 230.154 116.622C231.305 116.622 231.925 117.419 231.925 119.013ZM230.612 122.881C232.604 122.881 233.578 121.139 233.578 119.013C233.578 116.829 232.634 115.131 230.7 115.131C229.593 115.131 228.766 115.663 228.309 116.622V115.279H226.641V125.611H228.309V121.434C228.752 122.393 229.564 122.881 230.612 122.881ZM237.75 122.703V121.272C237.602 121.286 237.528 121.286 237.395 121.286C236.923 121.286 236.539 121.08 236.539 120.504V112.268H234.871V120.711C234.871 122.172 235.698 122.777 236.997 122.777C237.381 122.777 237.632 122.748 237.75 122.703ZM241.893 116.489C242.985 116.489 243.546 117.183 243.62 118.467H240.004C240.122 117.257 240.712 116.489 241.893 116.489ZM244.845 122.438V121.006C244.151 121.227 243.369 121.39 242.498 121.39C240.933 121.39 240.195 120.74 240.018 119.604H245.229V119.028C245.229 116.74 244.284 115.131 241.937 115.131C239.62 115.131 238.365 116.755 238.365 119.028C238.365 121.36 239.605 122.881 242.454 122.881C243.266 122.881 244.21 122.748 244.845 122.438ZM248.658 120.238V116.74H250.444V115.279H248.658V113.714H247.019V115.279H245.957V116.74H247.019V120.371C247.019 121.818 247.758 122.792 249.425 122.792C249.883 122.792 250.178 122.733 250.444 122.674V121.139C250.237 121.183 249.986 121.227 249.706 121.227C249.012 121.227 248.658 120.844 248.658 120.238ZM254.808 116.489C255.901 116.489 256.461 117.183 256.535 118.467H252.919C253.037 117.257 253.627 116.489 254.808 116.489ZM257.76 122.438V121.006C257.067 121.227 256.284 121.39 255.413 121.39C253.849 121.39 253.111 120.74 252.934 119.604H258.144V119.028C258.144 116.74 257.2 115.131 254.853 115.131C252.535 115.131 251.281 116.755 251.281 119.028C251.281 121.36 252.52 122.881 255.369 122.881C256.181 122.881 257.126 122.748 257.76 122.438Z" fill="#354563"/>
</g>
<g clip-path="url(#clip2)">
<rect x="64.5929" y="156.557" width="344.836" height="51.3585" rx="3.20881" fill="url(#paint4_linear)"/>
<path d="M83.265 181.678L85.1396 186.564H86.837L88.7411 181.678L89.8187 178.092V186.564H91.5604V176.867H88.7854L86.8961 181.767L86.0547 184.601L85.2134 181.767L83.3388 176.867H80.3572V186.564H82.0399V177.974L83.265 181.678ZM96.6534 186.727C98.9117 186.727 100.24 185.088 100.24 182.83C100.24 180.557 98.9117 178.963 96.6534 178.963C94.3802 178.963 93.0518 180.557 93.0518 182.83C93.0518 185.088 94.3802 186.727 96.6534 186.727ZM96.6534 180.453C98.0113 180.453 98.6018 181.546 98.6018 182.83C98.6018 184.114 98.0113 185.221 96.6534 185.221C95.2806 185.221 94.6755 184.114 94.6755 182.83C94.6755 181.546 95.2806 180.453 96.6534 180.453ZM105.382 186.564L108.024 179.11H106.341L104.26 185.339L102.164 179.11H100.466L103.108 186.564H105.382ZM111.816 180.321C112.908 180.321 113.469 181.014 113.543 182.298H109.926C110.045 181.088 110.635 180.321 111.816 180.321ZM114.768 186.269V184.837C114.074 185.059 113.292 185.221 112.421 185.221C110.856 185.221 110.118 184.572 109.941 183.435H115.152V182.859C115.152 180.571 114.207 178.963 111.86 178.963C109.543 178.963 108.288 180.586 108.288 182.859C108.288 185.191 109.528 186.712 112.377 186.712C113.188 186.712 114.133 186.579 114.768 186.269ZM121.017 184.07V180.571H122.803V179.11H121.017V177.546H119.378V179.11H118.316V180.571H119.378V184.203C119.378 185.649 120.116 186.623 121.784 186.623C122.242 186.623 122.537 186.564 122.803 186.505V184.97C122.596 185.014 122.345 185.059 122.065 185.059C121.371 185.059 121.017 184.675 121.017 184.07ZM130.808 182.151C130.808 180.084 129.951 178.963 128.313 178.963C127.25 178.963 126.409 179.464 125.937 180.365V176.099H124.269V186.564H125.937V182.417C125.937 181.103 126.63 180.424 127.649 180.424C128.682 180.424 129.14 181.059 129.14 182.372V186.564H130.808V182.151ZM135.528 180.321C136.62 180.321 137.181 181.014 137.255 182.298H133.638C133.756 181.088 134.347 180.321 135.528 180.321ZM138.48 186.269V184.837C137.786 185.059 137.004 185.221 136.133 185.221C134.568 185.221 133.83 184.572 133.653 183.435H138.864V182.859C138.864 180.571 137.919 178.963 135.572 178.963C133.255 178.963 132 180.586 132 182.859C132 185.191 133.24 186.712 136.089 186.712C136.9 186.712 137.845 186.579 138.48 186.269ZM147.991 184.882C147.548 185.044 147.091 185.147 146.323 185.147C144.581 185.147 143.858 184.099 143.858 182.83C143.858 181.56 144.566 180.483 146.279 180.483C146.972 180.483 147.474 180.63 147.961 180.852V179.346C147.356 179.066 146.825 178.963 146.102 178.963C143.474 178.963 142.234 180.571 142.234 182.83C142.234 185.103 143.474 186.712 146.146 186.712C146.854 186.712 147.533 186.594 147.991 186.343V184.882ZM150.547 182.845C150.547 181.295 151.182 180.453 152.422 180.453C153.366 180.453 154.163 181.088 154.163 182.535V183.14C154.163 184.586 153.278 185.221 152.304 185.221C151.167 185.221 150.547 184.424 150.547 182.845ZM154.163 186.564H155.831V179.11H154.163V180.439C153.735 179.494 152.938 178.963 151.89 178.963C149.868 178.963 148.894 180.734 148.894 182.845C148.894 185.044 149.824 186.712 151.743 186.712C152.835 186.712 153.706 186.21 154.163 185.221V186.564ZM159.176 182.372C159.176 180.97 160.047 180.527 161.641 180.675V179.007C160.312 178.933 159.589 179.553 159.176 180.512V179.11H157.538V186.564H159.176V182.372ZM163.751 182.845C163.751 181.295 164.385 180.453 165.625 180.453C166.57 180.453 167.367 181.088 167.367 182.535V183.14C167.367 184.586 166.481 185.221 165.507 185.221C164.371 185.221 163.751 184.424 163.751 182.845ZM167.367 186.564H169.035V176.099H167.367V180.439C166.939 179.494 166.142 178.963 165.094 178.963C163.072 178.963 162.098 180.734 162.098 182.845C162.098 185.044 163.028 186.712 164.946 186.712C166.039 186.712 166.91 186.21 167.367 185.221V186.564ZM175.273 184.07V180.571H177.059V179.11H175.273V177.546H173.635V179.11H172.572V180.571H173.635V184.203C173.635 185.649 174.373 186.623 176.041 186.623C176.498 186.623 176.794 186.564 177.059 186.505V184.97C176.853 185.014 176.602 185.059 176.321 185.059C175.628 185.059 175.273 184.675 175.273 184.07ZM181.498 186.727C183.756 186.727 185.084 185.088 185.084 182.83C185.084 180.557 183.756 178.963 181.498 178.963C179.224 178.963 177.896 180.557 177.896 182.83C177.896 185.088 179.224 186.727 181.498 186.727ZM181.498 180.453C182.855 180.453 183.446 181.546 183.446 182.83C183.446 184.114 182.855 185.221 181.498 185.221C180.125 185.221 179.52 184.114 179.52 182.83C179.52 181.546 180.125 180.453 181.498 180.453ZM192.788 179.848C192.788 179.228 192.419 178.844 191.799 178.844H191.725C191.873 178.121 192.433 177.782 193.098 177.737V176.719C191.504 176.808 190.618 177.811 190.618 179.317C190.618 180.468 191.105 180.881 191.754 180.881C192.374 180.881 192.788 180.498 192.788 179.848ZM190.219 179.848C190.219 179.228 189.85 178.844 189.23 178.844H189.157C189.304 178.121 189.865 177.782 190.529 177.737V176.719C188.935 176.808 188.05 177.811 188.05 179.317C188.05 180.468 188.537 180.881 189.186 180.881C189.806 180.881 190.219 180.498 190.219 179.848ZM198.137 178.49C200.233 178.49 201.178 179.612 201.178 181.767C201.178 183.893 200.189 184.941 198.211 184.941H196.218V178.49H198.137ZM194.447 186.564H198.196C201.385 186.564 202.934 184.675 202.934 181.738C202.934 178.83 201.399 176.867 198.196 176.867H194.447V186.564ZM207.516 186.727C209.774 186.727 211.103 185.088 211.103 182.83C211.103 180.557 209.774 178.963 207.516 178.963C205.243 178.963 203.914 180.557 203.914 182.83C203.914 185.088 205.243 186.727 207.516 186.727ZM207.516 180.453C208.874 180.453 209.464 181.546 209.464 182.83C209.464 184.114 208.874 185.221 207.516 185.221C206.143 185.221 205.538 184.114 205.538 182.83C205.538 181.546 206.143 180.453 207.516 180.453ZM218.938 182.151C218.938 180.129 218.038 178.963 216.355 178.963C215.351 178.963 214.525 179.464 214.067 180.35V179.11H212.399V186.564H214.067V182.417C214.067 181.103 214.761 180.424 215.78 180.424C216.813 180.424 217.27 180.926 217.27 182.077V186.564H218.938V182.151ZM223.644 180.321C224.736 180.321 225.297 181.014 225.371 182.298H221.755C221.873 181.088 222.463 180.321 223.644 180.321ZM226.596 186.269V184.837C225.902 185.059 225.12 185.221 224.249 185.221C222.685 185.221 221.947 184.572 221.769 183.435H226.98V182.859C226.98 180.571 226.035 178.963 223.688 178.963C221.371 178.963 220.116 180.586 220.116 182.859C220.116 185.191 221.356 186.712 224.205 186.712C225.017 186.712 225.961 186.579 226.596 186.269ZM227.9 177.752C227.9 178.372 228.269 178.756 228.889 178.756H228.963C228.815 179.479 228.254 179.819 227.59 179.863V180.881C229.184 180.793 230.07 179.789 230.07 178.284C230.07 177.132 229.582 176.719 228.933 176.719C228.313 176.719 227.9 177.103 227.9 177.752ZM230.468 177.752C230.468 178.372 230.837 178.756 231.457 178.756H231.531C231.383 179.479 230.822 179.819 230.158 179.863V180.881C231.752 180.793 232.638 179.789 232.638 178.284C232.638 177.132 232.151 176.719 231.501 176.719C230.881 176.719 230.468 177.103 230.468 177.752Z" fill="#354563"/>
</g>
<g clip-path="url(#clip3)">
<rect x="64.5929" y="220.389" width="344.836" height="51.3585" rx="3.20881" fill="url(#paint5_linear)"/>
<path d="M87.5898 244.063C87.5898 241.982 86.3795 240.698 83.9292 240.698H80.3572V250.396H82.1284V247.429H83.9292C86.3795 247.429 87.5898 246.218 87.5898 244.063ZM83.7521 245.879H82.1284V242.307H83.7521C85.2724 242.307 85.8481 243.03 85.8481 244.093C85.8481 245.2 85.2724 245.938 83.7521 245.879ZM91.8533 250.558C94.1117 250.558 95.4401 248.919 95.4401 246.661C95.4401 244.388 94.1117 242.794 91.8533 242.794C89.5802 242.794 88.2517 244.388 88.2517 246.661C88.2517 248.919 89.5802 250.558 91.8533 250.558ZM91.8533 244.285C93.2113 244.285 93.8017 245.377 93.8017 246.661C93.8017 247.945 93.2113 249.052 91.8533 249.052C90.4806 249.052 89.8754 247.945 89.8754 246.661C89.8754 245.377 90.4806 244.285 91.8533 244.285ZM102.065 248.3C102.065 247.045 101.313 246.366 99.5118 245.967C98.2867 245.687 97.9767 245.421 97.9767 244.964C97.9767 244.477 98.4048 244.211 99.2166 244.211C100.014 244.211 100.811 244.462 101.726 244.875V243.34C101.165 243.03 100.235 242.794 99.2314 242.794C97.4749 242.794 96.4416 243.606 96.4416 244.964C96.4416 246.159 97.1206 246.868 98.9067 247.266C100.117 247.547 100.501 247.827 100.501 248.3C100.501 248.787 100.058 249.126 99.2314 249.126C98.2719 249.126 97.1649 248.772 96.5154 248.403V249.982C97.0911 250.277 98.0358 250.543 99.1871 250.543C101.239 250.543 102.065 249.613 102.065 248.3ZM105.464 247.901V244.403H107.25V242.941H105.464V241.377H103.825V242.941H102.762V244.403H103.825V248.034C103.825 249.48 104.563 250.455 106.231 250.455C106.689 250.455 106.984 250.396 107.25 250.336V248.801C107.043 248.846 106.792 248.89 106.512 248.89C105.818 248.89 105.464 248.506 105.464 247.901ZM112.406 246.676C112.406 245.126 113.041 244.285 114.281 244.285C115.225 244.285 116.022 244.919 116.022 246.366V246.971C116.022 248.418 115.137 249.052 114.163 249.052C113.026 249.052 112.406 248.255 112.406 246.676ZM116.022 250.396H117.69V242.941H116.022V244.27C115.594 243.325 114.797 242.794 113.749 242.794C111.727 242.794 110.753 244.565 110.753 246.676C110.753 248.875 111.683 250.543 113.602 250.543C114.694 250.543 115.565 250.041 116.022 249.052V250.396ZM127.191 248.713C126.748 248.875 126.29 248.978 125.523 248.978C123.781 248.978 123.058 247.931 123.058 246.661C123.058 245.392 123.766 244.314 125.478 244.314C126.172 244.314 126.674 244.462 127.161 244.683V243.178C126.556 242.897 126.025 242.794 125.301 242.794C122.674 242.794 121.434 244.403 121.434 246.661C121.434 248.934 122.674 250.543 125.346 250.543C126.054 250.543 126.733 250.425 127.191 250.174V248.713ZM131.695 250.558C133.954 250.558 135.282 248.919 135.282 246.661C135.282 244.388 133.954 242.794 131.695 242.794C129.422 242.794 128.094 244.388 128.094 246.661C128.094 248.919 129.422 250.558 131.695 250.558ZM131.695 244.285C133.053 244.285 133.644 245.377 133.644 246.661C133.644 247.945 133.053 249.052 131.695 249.052C130.322 249.052 129.717 247.945 129.717 246.661C129.717 245.377 130.322 244.285 131.695 244.285ZM143.118 246.248C143.118 244.934 143.811 244.255 144.83 244.255C145.863 244.255 146.321 244.89 146.321 246.204V250.396H147.989V245.982C147.989 243.916 147.133 242.794 145.494 242.794C144.269 242.794 143.354 243.443 142.926 244.55C142.586 243.429 141.774 242.794 140.535 242.794C139.531 242.794 138.704 243.296 138.247 244.181V242.941H136.579V250.396H138.247V246.248C138.247 244.934 138.94 244.255 139.959 244.255C140.992 244.255 141.45 244.757 141.45 245.908V250.396H143.118V246.248ZM156.105 246.248C156.105 244.934 156.799 244.255 157.817 244.255C158.851 244.255 159.308 244.89 159.308 246.204V250.396H160.976V245.982C160.976 243.916 160.12 242.794 158.482 242.794C157.256 242.794 156.341 243.443 155.913 244.55C155.574 243.429 154.762 242.794 153.522 242.794C152.518 242.794 151.692 243.296 151.234 244.181V242.941H149.566V250.396H151.234V246.248C151.234 244.934 151.928 244.255 152.946 244.255C153.98 244.255 154.437 244.757 154.437 245.908V250.396H156.105V246.248ZM165.683 244.152C166.775 244.152 167.336 244.846 167.41 246.13H163.794C163.912 244.919 164.502 244.152 165.683 244.152ZM168.635 250.1V248.669C167.941 248.89 167.159 249.052 166.288 249.052C164.724 249.052 163.986 248.403 163.808 247.266H169.019V246.691C169.019 244.403 168.074 242.794 165.727 242.794C163.41 242.794 162.155 244.417 162.155 246.691C162.155 249.023 163.395 250.543 166.244 250.543C167.056 250.543 168 250.41 168.635 250.1ZM176.891 245.982C176.891 243.96 175.991 242.794 174.308 242.794C173.304 242.794 172.478 243.296 172.02 244.181V242.941H170.352V250.396H172.02V246.248C172.02 244.934 172.714 244.255 173.732 244.255C174.765 244.255 175.223 244.757 175.223 245.908V250.396H176.891V245.982ZM180.563 247.901V244.403H182.349V242.941H180.563V241.377H178.925V242.941H177.862V244.403H178.925V248.034C178.925 249.48 179.663 250.455 181.331 250.455C181.789 250.455 182.084 250.396 182.349 250.336V248.801C182.143 248.846 181.892 248.89 181.611 248.89C180.918 248.89 180.563 248.506 180.563 247.901ZM190.222 243.679C190.222 243.06 189.853 242.676 189.233 242.676H189.159C189.307 241.952 189.868 241.613 190.532 241.569V240.55C188.938 240.639 188.052 241.643 188.052 243.148C188.052 244.299 188.539 244.713 189.189 244.713C189.809 244.713 190.222 244.329 190.222 243.679ZM187.654 243.679C187.654 243.06 187.285 242.676 186.665 242.676H186.591C186.738 241.952 187.299 241.613 187.964 241.569V240.55C186.369 240.639 185.484 241.643 185.484 243.148C185.484 244.299 185.971 244.713 186.62 244.713C187.24 244.713 187.654 244.329 187.654 243.679ZM195.468 242.277C196.974 242.277 197.476 242.927 197.476 243.871C197.476 244.875 196.988 245.465 195.468 245.465H193.712V242.277H195.468ZM199.247 243.842C199.247 241.893 198.096 240.698 195.719 240.698H191.94V250.396H193.712V246.986H195.719H195.734L197.638 250.396H199.719L197.49 246.705C198.671 246.263 199.247 245.274 199.247 243.842ZM203.709 244.152C204.801 244.152 205.362 244.846 205.436 246.13H201.819C201.937 244.919 202.528 244.152 203.709 244.152ZM206.661 250.1V248.669C205.967 248.89 205.185 249.052 204.314 249.052C202.749 249.052 202.011 248.403 201.834 247.266H207.045V246.691C207.045 244.403 206.1 242.794 203.753 242.794C201.436 242.794 200.181 244.417 200.181 246.691C200.181 249.023 201.421 250.543 204.27 250.543C205.081 250.543 206.026 250.41 206.661 250.1ZM212.511 250.396L215.153 242.941H213.47L211.389 249.17L209.293 242.941H207.595L210.238 250.396H212.511ZM215.824 240.949C215.824 241.613 216.296 242.012 216.931 242.012C217.566 242.012 218.038 241.613 218.038 240.949C218.038 240.285 217.566 239.901 216.931 239.901C216.296 239.901 215.824 240.285 215.824 240.949ZM216.09 250.396H217.757V242.941H216.09V250.396ZM222.592 244.152C223.684 244.152 224.245 244.846 224.319 246.13H220.702C220.82 244.919 221.411 244.152 222.592 244.152ZM225.544 250.1V248.669C224.85 248.89 224.068 249.052 223.197 249.052C221.632 249.052 220.894 248.403 220.717 247.266H225.928V246.691C225.928 244.403 224.983 242.794 222.636 242.794C220.319 242.794 219.064 244.417 219.064 246.691C219.064 249.023 220.304 250.543 223.153 250.543C223.964 250.543 224.909 250.41 225.544 250.1ZM236.663 250.396L239.128 242.941H237.416L235.6 249.156L233.623 242.941H232.014L230.051 249.156L228.235 242.941H226.478L228.944 250.396H231.054L232.161 247.074L232.781 244.668L233.401 247.074L234.508 250.396H236.663ZM242.916 244.152C244.009 244.152 244.569 244.846 244.643 246.13H241.027C241.145 244.919 241.735 244.152 242.916 244.152ZM245.868 250.1V248.669C245.175 248.89 244.392 249.052 243.521 249.052C241.957 249.052 241.219 248.403 241.042 247.266H246.252V246.691C246.252 244.403 245.307 242.794 242.961 242.794C240.643 242.794 239.389 244.417 239.389 246.691C239.389 249.023 240.628 250.543 243.477 250.543C244.289 250.543 245.234 250.41 245.868 250.1ZM248.84 246.676C248.84 245.126 249.475 244.285 250.715 244.285C251.659 244.285 252.456 244.919 252.456 246.366V246.971C252.456 248.418 251.571 249.052 250.596 249.052C249.46 249.052 248.84 248.255 248.84 246.676ZM252.456 250.396H254.124V239.93H252.456V244.27C252.028 243.325 251.231 242.794 250.183 242.794C248.161 242.794 247.187 244.565 247.187 246.676C247.187 248.875 248.117 250.543 250.036 250.543C251.128 250.543 251.999 250.041 252.456 249.052V250.396ZM259.521 246.676C259.521 245.126 260.156 244.285 261.396 244.285C262.34 244.285 263.138 244.919 263.138 246.366V246.971C263.138 248.418 262.252 249.052 261.278 249.052C260.141 249.052 259.521 248.255 259.521 246.676ZM263.138 250.396H264.805V242.941H263.138V244.27C262.709 243.325 261.912 242.794 260.864 242.794C258.842 242.794 257.868 244.565 257.868 246.676C257.868 248.875 258.798 250.543 260.717 250.543C261.809 250.543 262.68 250.041 263.138 249.052V250.396ZM273.051 245.982C273.051 243.96 272.15 242.794 270.467 242.794C269.464 242.794 268.637 243.296 268.18 244.181V242.941H266.512V250.396H268.18V246.248C268.18 244.934 268.873 244.255 269.892 244.255C270.925 244.255 271.383 244.757 271.383 245.908V250.396H273.051V245.982ZM275.882 246.676C275.882 245.126 276.516 244.285 277.756 244.285C278.701 244.285 279.498 244.919 279.498 246.366V246.971C279.498 248.418 278.612 249.052 277.638 249.052C276.502 249.052 275.882 248.255 275.882 246.676ZM279.498 250.396H281.166V239.93H279.498V244.27C279.07 243.325 278.273 242.794 277.225 242.794C275.203 242.794 274.229 244.565 274.229 246.676C274.229 248.875 275.158 250.543 277.077 250.543C278.17 250.543 279.04 250.041 279.498 249.052V250.396ZM286.563 246.676C286.563 245.126 287.198 244.285 288.438 244.285C289.382 244.285 290.179 244.919 290.179 246.366V246.971C290.179 248.418 289.294 249.052 288.319 249.052C287.183 249.052 286.563 248.255 286.563 246.676ZM290.179 250.396H291.847V242.941H290.179V244.27C289.751 243.325 288.954 242.794 287.906 242.794C285.884 242.794 284.91 244.565 284.91 246.676C284.91 248.875 285.84 250.543 287.759 250.543C288.851 250.543 289.722 250.041 290.179 249.052V250.396ZM298.838 246.676C298.838 248.211 298.188 249.052 296.963 249.052C296.018 249.052 295.221 248.418 295.221 246.971V246.366C295.221 244.919 296.077 244.285 297.066 244.285C298.218 244.285 298.838 245.082 298.838 246.676ZM297.524 250.543C299.517 250.543 300.491 248.801 300.491 246.676C300.491 244.491 299.546 242.794 297.613 242.794C296.506 242.794 295.679 243.325 295.221 244.285V242.941H293.553V253.274H295.221V249.097C295.664 250.056 296.476 250.543 297.524 250.543ZM307.083 246.676C307.083 248.211 306.433 249.052 305.208 249.052C304.264 249.052 303.466 248.418 303.466 246.971V246.366C303.466 244.919 304.323 244.285 305.312 244.285C306.463 244.285 307.083 245.082 307.083 246.676ZM305.769 250.543C307.762 250.543 308.736 248.801 308.736 246.676C308.736 244.491 307.791 242.794 305.858 242.794C304.751 242.794 303.924 243.325 303.466 244.285V242.941H301.799V253.274H303.466V249.097C303.909 250.056 304.721 250.543 305.769 250.543ZM311.682 246.204C311.682 244.801 312.553 244.358 314.147 244.506V242.838C312.819 242.764 312.095 243.384 311.682 244.344V242.941H310.044V250.396H311.682V246.204ZM318.205 250.558C320.464 250.558 321.792 248.919 321.792 246.661C321.792 244.388 320.464 242.794 318.205 242.794C315.932 242.794 314.604 244.388 314.604 246.661C314.604 248.919 315.932 250.558 318.205 250.558ZM318.205 244.285C319.563 244.285 320.154 245.377 320.154 246.661C320.154 247.945 319.563 249.052 318.205 249.052C316.833 249.052 316.227 247.945 316.227 246.661C316.227 245.377 316.833 244.285 318.205 244.285ZM326.934 250.396L329.576 242.941H327.893L325.812 249.17L323.716 242.941H322.018L324.66 250.396H326.934ZM333.368 244.152C334.46 244.152 335.021 244.846 335.095 246.13H331.478C331.596 244.919 332.187 244.152 333.368 244.152ZM336.32 250.1V248.669C335.626 248.89 334.844 249.052 333.973 249.052C332.408 249.052 331.67 248.403 331.493 247.266H336.704V246.691C336.704 244.403 335.759 242.794 333.412 242.794C331.095 242.794 329.84 244.417 329.84 246.691C329.84 249.023 331.08 250.543 333.929 250.543C334.74 250.543 335.685 250.41 336.32 250.1ZM339.291 246.676C339.291 245.126 339.926 244.285 341.166 244.285C342.111 244.285 342.908 244.919 342.908 246.366V246.971C342.908 248.418 342.022 249.052 341.048 249.052C339.911 249.052 339.291 248.255 339.291 246.676ZM342.908 250.396H344.576V239.93H342.908V244.27C342.48 243.325 341.683 242.794 340.635 242.794C338.612 242.794 337.638 244.565 337.638 246.676C337.638 248.875 338.568 250.543 340.487 250.543C341.579 250.543 342.45 250.041 342.908 249.052V250.396ZM346.489 240.698V247.192H348.216V240.698H346.489ZM346.223 249.421C346.223 250.13 346.695 250.543 347.345 250.543C348.009 250.543 348.496 250.13 348.496 249.421C348.496 248.698 348.009 248.27 347.345 248.27C346.695 248.27 346.223 248.698 346.223 249.421ZM349.746 241.583C349.746 242.203 350.115 242.587 350.735 242.587H350.809C350.661 243.31 350.1 243.65 349.436 243.694V244.713C351.03 244.624 351.916 243.62 351.916 242.115C351.916 240.964 351.429 240.55 350.779 240.55C350.159 240.55 349.746 240.934 349.746 241.583ZM352.314 241.583C352.314 242.203 352.683 242.587 353.303 242.587H353.377C353.23 243.31 352.669 243.65 352.004 243.694V244.713C353.599 244.624 354.484 243.62 354.484 242.115C354.484 240.964 353.997 240.55 353.348 240.55C352.728 240.55 352.314 240.934 352.314 241.583Z" fill="#354563"/>
</g>
<defs>
<linearGradient id="paint0_linear" x1="-0.0780325" y1="300.407" x2="446.936" y2="300.407" gradientUnits="userSpaceOnUse">
<stop stop-color="#D62587"/>
<stop offset="1" stop-color="#FF8F73"/>
</linearGradient>
<linearGradient id="paint1_linear" x1="27.5035" y1="247.221" x2="64.0627" y2="247.221" gradientUnits="userSpaceOnUse">
<stop offset="0.0008" stop-color="#DEEBFF"/>
<stop offset="1" stop-color="#C0B6F2" stop-opacity="0.01"/>
</linearGradient>
<linearGradient id="paint2_linear" x1="3.00025" y1="80.1803" x2="324.857" y2="80.1803" gradientUnits="userSpaceOnUse">
<stop stop-color="#403294"/>
<stop offset="1" stop-color="#4C9AFF"/>
</linearGradient>
<linearGradient id="paint3_linear" x1="409.144" y1="144.005" x2="409.144" y2="92.7166" gradientUnits="userSpaceOnUse">
<stop stop-color="#EAE6FF"/>
<stop offset="1" stop-color="white"/>
</linearGradient>
<linearGradient id="paint4_linear" x1="409.144" y1="207.836" x2="409.144" y2="156.548" gradientUnits="userSpaceOnUse">
<stop stop-color="#EAE6FF"/>
<stop offset="1" stop-color="white"/>
</linearGradient>
<linearGradient id="paint5_linear" x1="409.144" y1="271.667" x2="409.144" y2="220.379" gradientUnits="userSpaceOnUse">
<stop stop-color="#EAE6FF"/>
<stop offset="1" stop-color="white"/>
</linearGradient>
<clipPath id="clip0">
<rect width="322.825" height="51.3585" fill="white" transform="translate(2.96277 28.8949)"/>
</clipPath>
<clipPath id="clip1">
<rect width="344.836" height="51.3585" fill="white" transform="translate(64.5929 92.7262)"/>
</clipPath>
<clipPath id="clip2">
<rect width="344.836" height="51.3585" fill="white" transform="translate(64.5929 156.557)"/>
</clipPath>
<clipPath id="clip3">
<rect width="344.836" height="51.3585" fill="white" transform="translate(64.5929 220.389)"/>
</clipPath>
</defs>
</svg>
