<svg width="121" height="30" viewBox="0 0 121 30" fill="none" xmlns="http://www.w3.org/2000/svg">
<path fill-rule="evenodd" clip-rule="evenodd" d="M23.7689 3.75H6.48106C5.76503 3.75 5.07832 4.03209 4.57201 4.53422C4.06569 5.03635 3.78125 5.71738 3.78125 6.4275V23.5725C3.78125 24.2826 4.06569 24.9636 4.57201 25.4658C5.07832 25.9679 5.76503 26.25 6.48106 26.25H23.7689C24.485 26.25 25.1717 25.9679 25.678 25.4658C26.1843 24.9636 26.4688 24.2826 26.4688 23.5725V6.4275C26.4688 5.71738 26.1843 5.03635 25.678 4.53422C25.1717 4.03209 24.485 3.75 23.7689 3.75ZM13.552 19.9575C13.552 20.0737 13.5289 20.1888 13.4841 20.2962C13.4392 20.4035 13.3735 20.5011 13.2906 20.5833C13.2078 20.6655 13.1094 20.7307 13.0011 20.7751C12.8929 20.8196 12.7768 20.8425 12.6596 20.8425H8.87838C8.76119 20.8425 8.64515 20.8196 8.53688 20.7751C8.42861 20.7307 8.33024 20.6655 8.24737 20.5833C8.16451 20.5011 8.09877 20.4035 8.05393 20.2962C8.00908 20.1888 7.986 20.0737 7.986 19.9575V8.79C7.986 8.55528 8.08002 8.33018 8.24737 8.16421C8.41472 7.99824 8.6417 7.905 8.87838 7.905H12.6596C12.8963 7.905 13.1233 7.99824 13.2906 8.16421C13.458 8.33018 13.552 8.55528 13.552 8.79V19.9575ZM22.2791 14.835C22.2832 14.9537 22.2631 15.072 22.2201 15.1829C22.1771 15.2938 22.112 15.3949 22.0287 15.4803C21.9454 15.5657 21.8457 15.6335 21.7354 15.6799C21.6251 15.7262 21.5065 15.7501 21.3868 15.75H17.6055C17.3688 15.75 17.1418 15.6568 16.9745 15.4908C16.8071 15.3248 16.7131 15.0997 16.7131 14.865V8.79C16.7131 8.55528 16.8071 8.33018 16.9745 8.16421C17.1418 7.99824 17.3688 7.905 17.6055 7.905H21.3868C21.6234 7.905 21.8504 7.99824 22.0178 8.16421C22.1851 8.33018 22.2791 8.55528 22.2791 8.79V14.835Z" fill="white"/>
<path d="M50.8048 5.39987V9.74987H45.6018V26.2499H40.5955V9.74987H35.4V5.39987H50.8048Z" fill="white"/>
<path d="M57.18 26.25H52.5442V10.035H57.18V13.14C58.0572 10.95 59.4487 9.65247 61.9746 9.80997V14.6025C58.7152 14.3475 57.18 15.1425 57.18 17.745V26.25Z" fill="white"/>
<path d="M87.2863 26.3775C84.2613 26.3775 82.3329 24.8775 82.3329 21.525V3.75H86.9687V20.8875C86.9687 21.87 87.6266 22.2225 88.4434 22.2225C88.6734 22.2279 88.9035 22.2154 89.1316 22.185V26.19C88.5277 26.3342 87.9071 26.3972 87.2863 26.3775Z" fill="white"/>
<path d="M97.0193 26.3775C93.9944 26.3775 92.0735 24.8775 92.0735 21.525V3.75H96.7395V20.8875C96.7395 21.87 97.3975 22.2225 98.252 22.2225C98.4821 22.2277 98.7122 22.2152 98.9402 22.185V26.19C98.3116 26.3396 97.6653 26.4027 97.0193 26.3775Z" fill="white"/>
<path d="M101.126 18.1276C101.126 13.1101 104.037 9.68256 109.051 9.68256C114.065 9.68256 116.909 13.1101 116.909 18.1276C116.909 23.1451 114.027 26.6326 109.051 26.6326C104.075 26.6326 101.126 23.1076 101.126 18.1276ZM105.663 18.1276C105.663 20.5726 106.692 22.5076 109.044 22.5076C111.396 22.5076 112.364 20.5726 112.364 18.1276C112.364 15.6826 111.358 13.8076 109.044 13.8076C106.73 13.8076 105.671 15.6826 105.671 18.1276H105.663Z" fill="white"/>
<path d="M68.2289 19.6051C69.1137 19.6951 70.6262 19.8301 72.1311 19.8301C75.678 19.8301 78.6803 18.8851 78.6803 15.4801C78.6803 12.0751 75.5948 9.68256 71.874 9.68256C66.8903 9.68256 63.6914 13.2676 63.6914 18.2851C63.6914 23.4901 66.4517 26.5351 72.6757 26.5351C74.5272 26.5555 76.3662 26.2325 78.098 25.5826V21.7501C76.4116 22.3538 74.6412 22.6953 72.8496 22.7626C70.3767 22.7401 68.66 21.9301 68.2289 19.6051ZM71.7984 13.2301C72.0928 13.2087 72.3884 13.2461 72.668 13.34C72.9475 13.4339 73.2052 13.5824 73.4259 13.7768C73.6466 13.9712 73.8257 14.2075 73.9527 14.4717C74.0798 14.7359 74.1521 15.0227 74.1655 15.3151C74.1655 16.8751 72.5093 17.3626 70.6035 17.3626C69.7931 17.3576 68.9842 17.2924 68.1835 17.1676C68.2394 16.4088 68.4559 15.6703 68.8188 15.0001C69.1113 14.4684 69.5418 14.024 70.0656 13.7128C70.5895 13.4016 71.1878 13.2349 71.7984 13.2301Z" fill="white"/>
</svg>
