<svg width="125" height="125" viewBox="0 0 125 125" xmlns="http://www.w3.org/2000/svg" xmlns:xlink="http://www.w3.org/1999/xlink"><title>calendar-icon</title><defs><path id="a" d="M0 0v125h125V0H0z"/></defs><g fill="none" fill-rule="evenodd"><mask id="b" fill="#fff"><use xlink:href="#a"/></mask><use fill="#0079BF" xlink:href="#a"/><g mask="url(#b)"><path d="M52 12c-3.314 0-6 2.688-6 6.003v92.994A6.002 6.002 0 0 0 52 117h26c3.314 0 6-2.688 6-6.003V18.003A6.002 6.002 0 0 0 78 12H52zM5 12c-3.314 0-6 2.683-6 6.002v40.996A6.002 6.002 0 0 0 5 65h26c3.314 0 6-2.683 6-6.002V18.002A6.002 6.002 0 0 0 31 12H5zm94 0a6 6 0 0 0-6 6.005v60.99A6.003 6.003 0 0 0 99 85h26a6 6 0 0 0 6-6.005v-60.99A6.003 6.003 0 0 0 125 12H99z" fill="#5BA4CF"/><path d="M33.999 29A8 8 0 0 0 26 36.998v56.004A7.997 7.997 0 0 0 33.999 101h62.002A8 8 0 0 0 104 93.002V36.998A7.997 7.997 0 0 0 96.001 29H33.999z" fill="#F8F9F9"/><path d="M33.999 29h62.002c4.42 0 7.999 3.58 7.999 7.998v7.211H26v-7.211A8 8 0 0 1 33.999 29z" fill="#FF9F1A"/><path d="M48.025 58v10h10V58h-10zm12 0v10h10V58h-10zm12 0v10h10V58h-10zm12 0v10h10V58h-10zm-48 12v10h10V70h-10zm12 0v10h10V70h-10zm12 0v10h10V70h-10zm12 0v10h10V70h-10zm12 0v10h10V70h-10zm-48 12v10h10V82h-10zm12 0v10h10V82h-10zm12 0v10h10V82h-10z" fill="#C4C9CC"/><path d="M46.481 20.488a4.346 4.346 0 0 0-4.345 4.345v9.497a4.346 4.346 0 0 0 8.691 0v-9.497c0-2.4-1.95-4.345-4.346-4.345zm35.976 0a4.346 4.346 0 0 0-4.346 4.345v9.497a4.346 4.346 0 1 0 8.691 0v-9.497c0-2.4-1.95-4.345-4.345-4.345z" fill="#FAD29C"/><path d="M36.999 50A1.994 1.994 0 0 0 35 52c0 1.105.904 2 1.999 2H92.05a1.994 1.994 0 0 0 1.998-2c0-1.105-.904-2-1.998-2H36.999z" fill="#EB5A46"/></g></g></svg>