<svg width="193" height="65" viewBox="0 0 193 65" fill="none" xmlns="http://www.w3.org/2000/svg">
<path d="M85.4824 36.6563C85.4086 36.5826 85.2611 36.5826 85.1136 36.6563C83.786 37.8364 82.0159 38.4264 80.2458 38.3527C75.8205 38.3527 72.8703 35.0337 72.8703 30.6084C72.8703 26.1831 75.5992 22.7904 80.172 22.7904C82.0896 22.7167 83.9335 23.4542 85.3349 24.7818C85.4086 24.8555 85.4824 24.8556 85.4824 24.8556C85.5561 24.8556 85.6299 24.8555 85.6299 24.7818L88.3588 21.9054C88.4326 21.8316 88.4326 21.6103 88.3588 21.5366C86.1462 19.4715 83.1222 18.2914 80.0245 18.4389C76.7055 18.3651 73.5341 19.619 71.2477 21.9054C68.9613 24.1918 67.7075 27.3632 67.7812 30.6084C67.6337 33.8536 68.8875 37.0251 71.2477 39.3852C73.6078 41.6716 76.8531 42.9255 80.172 42.7042C83.0485 42.778 85.8511 41.6716 87.99 39.6803C88.0638 39.6065 88.0638 39.3852 87.99 39.3115L85.4824 36.6563Z" fill="#C1C7D0"/>
<path d="M102.593 39.9751C101.192 41.3764 99.2003 42.114 97.1352 42.0402C94.5537 42.1877 92.1198 41.2289 90.276 39.4588C88.4321 37.6887 87.547 35.2548 87.6945 32.8209C87.547 30.387 88.5058 27.953 90.276 26.1829C92.0461 24.4128 94.5537 23.454 97.0614 23.6015C99.0528 23.5278 101.044 24.1915 102.519 25.5929V24.3391C102.519 24.1915 102.667 24.1178 102.814 24.1178H106.65C106.797 24.1178 106.945 24.2653 106.945 24.3391V41.5977C106.945 41.7452 106.797 41.8189 106.65 41.8189H102.814C102.667 41.8189 102.519 41.6714 102.519 41.5977V39.9751H102.593ZM97.4302 38.0574C98.8315 38.0574 100.233 37.5412 101.192 36.5086C102.15 35.476 102.593 34.1484 102.519 32.8209C102.593 31.4933 102.15 30.0919 101.192 29.1331C100.233 28.1743 98.9053 27.5843 97.5039 27.5843C96.1026 27.5843 94.7012 28.1006 93.7424 29.1331C92.7836 30.1657 92.2673 31.4933 92.4148 32.8209C92.2673 34.2222 92.7836 35.5498 93.7424 36.5824C94.6275 37.6149 95.9551 38.1312 97.4302 38.0574Z" fill="#C1C7D0"/>
<path d="M102.593 39.9751C101.192 41.3764 99.2003 42.114 97.1352 42.0402C94.5537 42.1877 92.1198 41.2289 90.276 39.4588C88.4321 37.6887 87.547 35.2548 87.6945 32.8209C87.547 30.387 88.5058 27.953 90.276 26.1829C92.0461 24.4128 94.5537 23.454 97.0614 23.6015C99.0528 23.5278 101.044 24.1915 102.519 25.5929V24.3391C102.519 24.1915 102.667 24.1178 102.814 24.1178H106.65C106.797 24.1178 106.945 24.2653 106.945 24.3391V41.5977C106.945 41.7452 106.797 41.8189 106.65 41.8189H102.814C102.667 41.8189 102.519 41.6714 102.519 41.5977V39.9751H102.593ZM97.4302 38.0574C98.8315 38.0574 100.233 37.5412 101.192 36.5086C102.15 35.476 102.593 34.1484 102.519 32.8209C102.593 31.4933 102.15 30.0919 101.192 29.1331C100.233 28.1743 98.9053 27.5843 97.5039 27.5843C96.1026 27.5843 94.7012 28.1006 93.7424 29.1331C92.7836 30.1657 92.2673 31.4933 92.4148 32.8209C92.2673 34.2222 92.7836 35.5498 93.7424 36.5824C94.6275 37.6149 95.9551 38.1312 97.4302 38.0574Z" fill="#C1C7D0"/>
<path d="M114.763 30.3132C115.574 30.5345 116.312 30.682 117.27 30.977C120.221 31.862 121.696 33.2634 121.696 36.5086C121.696 40.1963 118.598 42.114 114.984 42.114C110.043 42.114 108.42 39.3113 108.42 36.3611C108.42 36.2136 108.567 36.1398 108.715 36.1398H112.624C112.771 36.1398 112.845 36.2136 112.919 36.3611C112.845 36.9511 113.066 37.5412 113.509 37.9837C113.952 38.4262 114.542 38.6475 115.132 38.5737C116.312 38.5737 117.27 37.9837 117.27 36.9511C117.27 35.9186 116.754 35.476 115.427 35.1073C114.542 34.886 113.583 34.591 112.698 34.296C110.264 33.6322 108.715 31.4195 108.862 28.9856C108.862 25.9617 111.444 23.749 115.132 23.749C118.819 23.749 121.18 25.5929 121.327 29.1331C121.327 29.2806 121.18 29.4281 121.032 29.4281H117.27C117.123 29.4281 117.049 29.3544 116.975 29.2069C116.975 28.6906 116.754 28.1743 116.385 27.8055C116.017 27.4368 115.427 27.2893 114.91 27.2893C113.804 27.2893 113.066 27.8793 113.066 28.7643C113.066 29.6494 113.73 30.0182 114.763 30.3132Z" fill="#C1C7D0"/>
<path d="M128.555 23.5279H131.063C131.21 23.5279 131.284 23.6754 131.284 23.7492V27.0681C131.284 27.2156 131.137 27.2894 131.063 27.2894H128.555V35.7712C128.555 37.0988 128.998 37.7626 130.252 37.7626H131.063C131.21 37.7626 131.284 37.9101 131.284 37.9838V41.4503C131.284 41.5978 131.21 41.6716 131.063 41.6716C130.325 41.8191 129.588 41.8928 128.85 41.8928C125.458 41.8928 124.056 40.1227 124.056 37.0988V27.4369H122.655C122.507 27.4369 122.434 27.2894 122.434 27.2156V23.8967C122.434 23.7492 122.581 23.6754 122.655 23.6754H124.056V22.0528C124.056 21.979 124.13 21.9053 124.204 21.8315L128.186 19.3239C128.26 19.2501 128.334 19.2501 128.408 19.3239C128.481 19.3976 128.555 19.4714 128.555 19.5451V23.5279Z" fill="#C1C7D0"/>
<path d="M189.771 23.5279H192.279C192.426 23.5279 192.5 23.6754 192.5 23.7492V27.0681C192.5 27.2156 192.352 27.2894 192.279 27.2894H189.771V35.7712C189.771 37.0988 190.214 37.7626 191.467 37.7626H192.279C192.426 37.7626 192.5 37.9101 192.5 37.9838V41.4503C192.5 41.5978 192.426 41.6716 192.279 41.6716C191.541 41.8191 190.804 41.8928 190.066 41.8928C186.673 41.8928 185.272 40.1227 185.272 37.0988V27.4369H183.871C183.723 27.4369 183.649 27.2894 183.649 27.2156V23.8967C183.649 23.7492 183.797 23.6754 183.871 23.6754H185.272V22.0528C185.272 21.979 185.346 21.9053 185.42 21.8315L189.402 19.3239C189.476 19.2501 189.55 19.2501 189.624 19.3239C189.697 19.3976 189.771 19.4714 189.771 19.5451V23.5279Z" fill="#C1C7D0"/>
<path d="M137.7 42.0403H133.791C133.643 42.0403 133.569 41.8927 133.569 41.819V18.66C133.569 18.5125 133.717 18.4387 133.791 18.4387H137.7C137.847 18.4387 137.921 18.5862 137.921 18.66V41.7452C137.921 41.9665 137.773 42.0403 137.7 42.0403Z" fill="#C1C7D0"/>
<path d="M140.135 20.3566C140.135 18.8815 141.315 17.7014 142.716 17.7014C144.118 17.7014 145.298 18.8815 145.298 20.3566C145.298 21.8317 144.118 23.0118 142.716 23.0118C141.315 23.0118 140.135 21.8317 140.135 20.3566ZM144.634 41.9667H140.799C140.651 41.9667 140.577 41.8192 140.577 41.7455V24.4131C140.577 24.2656 140.651 24.1918 140.799 24.1918H144.634C144.781 24.1918 144.855 24.3393 144.855 24.4131V41.7455C144.929 41.893 144.781 42.0405 144.634 41.9667Z" fill="#C1C7D0"/>
<path d="M161.891 23.8966H165.727C165.874 23.8966 166.022 24.0441 166.022 24.1178V38.7213C166.022 45.433 161.965 47.8669 156.212 47.8669C153.926 47.8669 151.639 47.3506 149.574 46.3918C149.427 46.318 149.427 46.1705 149.501 46.0967L150.754 42.999C150.754 42.9253 150.828 42.8515 150.902 42.8515H151.123C152.746 43.5891 154.442 44.0316 156.286 44.0316C159.162 44.0316 161.449 42.8515 161.523 40.2701V40.0489C160.195 41.3764 158.351 42.114 156.433 42.0402C153.852 42.1877 151.418 41.2289 149.574 39.5326C147.73 37.7625 146.772 35.3285 146.919 32.8209C146.845 30.387 147.804 27.9531 149.574 26.183C151.344 24.4128 153.778 23.454 156.286 23.454C158.277 23.3803 160.269 24.1178 161.744 25.4454V24.0441C161.744 23.9703 161.744 23.8966 161.818 23.8228C161.744 23.8966 161.818 23.8966 161.891 23.8966ZM156.433 38.1312C157.835 38.1312 159.236 37.6149 160.195 36.5824C161.154 35.5498 161.67 34.2222 161.523 32.8209C161.67 30.977 160.711 29.2069 159.089 28.2481C157.466 27.2893 155.401 27.2893 153.778 28.2481C152.156 29.2069 151.197 30.977 151.344 32.8209C151.271 34.2222 151.713 35.5498 152.746 36.5824C153.778 37.6149 155.106 38.205 156.433 38.1312Z" fill="#C1C7D0"/>
<path d="M177.675 30.5345C177.675 28.7644 176.864 27.6581 175.241 27.6581C173.618 27.6581 172.733 28.8381 172.733 30.5345V41.7452C172.733 41.8927 172.586 41.9665 172.512 41.9665H168.456C168.308 41.9665 168.234 41.819 168.234 41.7452V18.66C168.234 18.5125 168.382 18.4387 168.456 18.4387H172.512C172.66 18.4387 172.733 18.5862 172.733 18.66V25.0767C173.692 23.9703 175.094 23.454 176.569 23.5278C180.773 23.5278 182.248 26.4042 182.248 29.9445V41.7452C182.248 41.8927 182.1 41.9665 182.027 41.9665H177.97C177.822 41.9665 177.749 41.819 177.749 41.7452L177.675 30.5345Z" fill="#C1C7D0"/>
<path d="M16.7421 28.1744L1.54861 24.3391C1.47485 24.3391 1.32734 24.3391 1.25359 24.4129C1.17983 24.4866 1.10608 24.5604 1.10608 24.6341L0.737305 26.5518C0.737305 26.6255 0.737305 26.6993 0.811059 26.773C0.884814 26.8468 0.958569 26.9205 1.03232 26.9205L16.4471 29.5019C16.5946 29.5019 16.8158 29.4282 16.8158 29.2069C16.8158 28.9857 16.8896 28.7644 16.9634 28.5431V28.3219C16.8896 28.2481 16.8158 28.1744 16.7421 28.1744Z" fill="#C1C7D0"/>
<path d="M16.0048 30.977L0.221264 30.2395C0.14751 30.2395 0.0737548 30.2395 0.0737548 30.3133C0.0737548 30.387 0 30.387 0 30.4608V32.9684C0 33.0422 0 33.1159 0.0737548 33.1159C0.14751 33.1159 0.14751 33.1897 0.221264 33.1897L16.0785 32.4521C16.1523 32.4521 16.2998 32.3784 16.2998 32.2309V31.1983C16.2998 31.1246 16.2998 31.0508 16.2261 31.0508C16.1523 30.977 16.0785 30.977 16.0048 30.977Z" fill="#C1C7D0"/>
<path d="M16.5204 34.6648L0.884391 37.32C0.810636 37.32 0.810636 37.3937 0.736881 37.3937C0.736881 37.4675 0.663127 37.4675 0.736881 37.5412L1.17941 39.6801C1.25316 39.7539 1.32692 39.8276 1.47443 39.8276L16.8154 35.9924C16.8892 35.9924 16.9629 35.8449 16.9629 35.7711C16.8892 35.4761 16.8154 35.1811 16.7417 34.8861C16.7417 34.8369 16.7171 34.7877 16.6679 34.7385C16.6679 34.6648 16.5942 34.6648 16.5204 34.6648Z" fill="#C1C7D0"/>
<path d="M34.517 16.1523L36.8772 0.516284C36.8772 0.467114 36.8526 0.417944 36.8034 0.368774C36.8034 0.295019 36.7297 0.295019 36.6559 0.295019L34.4433 0C34.3941 0 34.3449 0.0245849 34.2958 0.0737548C34.2466 0.122925 34.222 0.172095 34.222 0.221264L33.1895 15.931C33.1895 15.9802 33.214 16.0294 33.2632 16.0785C33.2632 16.1523 33.337 16.1523 33.4107 16.1523L34.3695 16.2261C34.4433 16.2261 34.517 16.2261 34.517 16.1523Z" fill="#C1C7D0"/>
<path d="M30.9764 15.931L29.9438 0.221264C29.9438 0.172095 29.9192 0.122925 29.8701 0.0737548C29.8209 0.0245849 29.7717 0 29.7225 0L27.4361 0.221264C27.387 0.221264 27.3378 0.245849 27.2886 0.295019C27.2149 0.368774 27.2886 0.442529 27.2886 0.442529L29.575 16.0048C29.575 16.0785 29.7225 16.1523 29.7963 16.1523L30.7551 16.0785C30.8043 16.0785 30.8535 16.054 30.9026 16.0048C30.9518 16.0048 30.9764 15.9802 30.9764 15.931Z" fill="#C1C7D0"/>
<path d="M28.0266 16.2999L23.8963 1.69643C23.8963 1.62267 23.8226 1.54892 23.7488 1.47516C23.6751 1.40141 23.6013 1.47516 23.4538 1.47516L21.6099 2.0652C21.5362 2.0652 21.4624 2.13896 21.3887 2.21271V2.50773L26.699 16.7424C26.7728 16.8899 26.9203 17.0374 27.1415 16.9637L27.8053 16.7424C27.8791 16.7424 27.9528 16.6686 28.0266 16.5949C28.1004 16.5211 28.0266 16.4474 28.0266 16.2999Z" fill="#C1C7D0"/>
<path d="M24.2663 17.5539L17.1121 3.8355C17.0384 3.76174 16.9646 3.68799 16.8908 3.68799H16.5958L14.8995 4.6468C14.8257 4.79431 14.752 4.86806 14.752 4.94182C14.752 5.01557 14.752 5.08933 14.8257 5.23684L23.16 18.2914C23.2338 18.4389 23.455 18.5127 23.6025 18.3652L24.1926 17.9964C24.2663 17.9227 24.3401 17.8489 24.3401 17.7752C24.3401 17.7752 24.3401 17.6276 24.2663 17.5539Z" fill="#C1C7D0"/>
<path d="M21.3149 19.545L11.5793 7.44924C11.5055 7.37549 11.4318 7.37549 11.358 7.37549C11.2843 7.37549 11.2105 7.44924 11.1367 7.44924L9.66165 8.77683C9.58789 8.92434 9.58789 8.99809 9.58789 9.07185C9.58789 9.1456 9.58789 9.21936 9.66165 9.29311L20.2823 20.5038C20.4298 20.6514 20.6511 20.6514 20.7249 20.5038L21.2411 20.0613C21.3149 19.9876 21.3887 19.9138 21.3887 19.84C21.3887 19.7663 21.3887 19.6188 21.3149 19.545Z" fill="#C1C7D0"/>
<path d="M19.028 21.7577L6.85847 11.8745C6.85847 11.8745 6.71096 11.8008 6.63721 11.8008C6.56345 11.8008 6.4897 11.8745 6.41594 11.8745L5.23586 13.4971C5.16211 13.6447 5.16211 13.7184 5.16211 13.7922C5.16211 13.8659 5.23586 14.0134 5.30962 14.0134L18.2905 22.7902C18.438 22.864 18.6592 22.864 18.733 22.7165L19.1755 22.1265C19.1755 21.9789 19.1755 21.8314 19.028 21.7577Z" fill="#C1C7D0"/>
<path d="M17.4801 24.5606L3.54048 17.7014H3.24546C3.1717 17.7014 3.09795 17.7752 3.02419 17.8489L2.21289 19.6928V19.9878C2.21289 20.0616 2.28665 20.1353 2.43415 20.2091L16.9638 25.8144C17.1114 25.8882 17.3326 25.8144 17.4064 25.5932L17.7014 25.0031V24.7081C17.6276 24.6344 17.5539 24.5606 17.4801 24.5606Z" fill="#C1C7D0"/>
<path d="M17.0372 38.3523L2.35998 44.0314C2.28622 44.0314 2.28622 44.1052 2.21247 44.1052C2.13871 44.1052 2.21247 44.1789 2.21247 44.2527L3.09752 46.3178C3.09752 46.3916 3.17128 46.3916 3.24503 46.3916H3.39254L17.5535 39.5324C17.6272 39.4586 17.701 39.3849 17.6272 39.2374C17.4797 38.9423 17.3322 38.6473 17.2584 38.426C17.2584 38.3523 17.1109 38.3523 17.0372 38.3523Z" fill="#C1C7D0"/>
<path d="M18.2916 40.6389L5.23696 49.4158C5.1632 49.4895 5.1632 49.637 5.23696 49.7108L6.56454 51.5547C6.6383 51.6284 6.78581 51.6284 6.85956 51.5547L19.1766 41.6715C19.2504 41.5978 19.2504 41.4502 19.1766 41.3765C18.9553 41.1552 18.8078 40.8602 18.5866 40.6389C18.5128 40.5652 18.4391 40.5652 18.4391 40.5652C18.3653 40.5652 18.2916 40.5652 18.2916 40.6389Z" fill="#C1C7D0"/>
<path d="M20.3562 43.589L9.66176 54.9472C9.58801 55.021 9.58801 55.1685 9.66176 55.2423L11.2844 56.7911C11.3581 56.8649 11.5056 56.8649 11.5794 56.7911L21.315 44.6216C21.3888 44.5478 21.3888 44.4003 21.315 44.3266C21.0938 44.1053 20.8725 43.884 20.6512 43.6628C20.6512 43.589 20.5775 43.589 20.5037 43.589C20.5037 43.5153 20.43 43.5153 20.3562 43.589Z" fill="#C1C7D0"/>
<path d="M23.1586 45.8018L14.7506 59.0776C14.7506 59.1514 14.6768 59.1514 14.7506 59.2252C14.7506 59.2989 14.8243 59.2989 14.8243 59.3727L16.7419 60.479H16.8894C16.9632 60.479 16.9632 60.4052 17.037 60.4052L24.3387 46.4656C24.4124 46.3918 24.3387 46.2443 24.2649 46.1706L23.4536 45.728C23.3061 45.728 23.2324 45.728 23.1586 45.8018Z" fill="#C1C7D0"/>
<path d="M26.7728 47.3507L21.3887 61.7329C21.3887 61.8066 21.3887 61.9541 21.5362 61.9541L23.6013 62.6917H23.7488C23.8226 62.6917 23.8226 62.6179 23.8226 62.5442L28.0266 47.7195C28.0266 47.6457 28.0266 47.4982 27.8791 47.4982L27.0678 47.2032C26.994 47.2032 26.9203 47.1294 26.9203 47.2032C26.8465 47.2032 26.7728 47.2769 26.7728 47.3507Z" fill="#C1C7D0"/>
<path d="M29.5764 48.0147L27.29 63.7244C27.29 63.7736 27.3146 63.8228 27.3638 63.872C27.413 63.9211 27.4621 63.9457 27.5113 63.9457L29.7977 64.167C29.8715 64.167 29.9452 64.167 29.9452 64.0932C30.019 64.0932 30.019 64.0195 30.019 63.9457L30.9778 48.1622C30.9778 48.0884 30.904 48.0147 30.7565 48.0147L29.8715 47.9409C29.7239 47.9409 29.6502 47.9409 29.5764 48.0147Z" fill="#C1C7D0"/>
<path d="M33.1895 48.2357L34.222 63.9454C34.222 63.9946 34.2466 64.0438 34.2958 64.093C34.3449 64.1421 34.3941 64.1667 34.4433 64.1667L36.7297 63.9454C36.7789 63.9454 36.828 63.9209 36.8772 63.8717C36.9264 63.8225 36.9509 63.7733 36.9509 63.7242L34.6645 48.1619C34.6645 48.0882 34.517 48.0144 34.4433 48.0144L33.4845 48.0882C33.4353 48.0882 33.3861 48.1127 33.337 48.1619C33.2386 48.1619 33.1895 48.1865 33.1895 48.2357Z" fill="#C1C7D0"/>
<path d="M36.877 47.7194L41.0072 62.5441C41.0072 62.6179 41.081 62.6179 41.081 62.6916H41.2285L43.2936 62.0278C43.3674 62.0278 43.3674 61.9541 43.4411 61.9541V61.8066L38.057 47.4244C38.1308 47.2031 37.9833 47.2031 37.9095 47.2031L37.0245 47.4981C36.9507 47.4981 36.877 47.6457 36.877 47.7194Z" fill="#C1C7D0"/>
<path d="M40.7132 45.728L39.9019 46.2443C39.8281 46.3181 39.8281 46.3918 39.8281 46.4656L47.0561 60.3315C47.0561 60.4052 47.1298 60.4052 47.2036 60.4052H47.3511L49.2687 59.2989C49.3425 59.2989 49.3425 59.2252 49.3425 59.1514V59.0039L41.0082 45.8018C40.9344 45.728 40.8607 45.728 40.7132 45.728Z" fill="#C1C7D0"/>
<path d="M43.515 43.5889L42.8512 44.2527C42.7775 44.3264 42.7775 44.474 42.8512 44.5477L52.5868 56.7172C52.6606 56.791 52.8081 56.791 52.8819 56.7172L54.5045 55.1684C54.5782 55.0946 54.5782 54.9471 54.5045 54.8734L43.81 43.5889C43.7363 43.5889 43.7363 43.5151 43.6625 43.5151C43.5888 43.5151 43.515 43.5889 43.515 43.5889Z" fill="#C1C7D0"/>
<path d="M45.5809 41.3765C45.4334 41.5978 45.2121 41.8928 44.9909 42.114C44.9171 42.1878 44.9171 42.3353 44.9909 42.4091L57.3079 52.2922C57.3817 52.366 57.5292 52.366 57.6029 52.2922L58.9305 50.4483C59.0043 50.3746 59.0043 50.2271 58.9305 50.1533L45.8759 41.3765C45.8759 41.3027 45.8022 41.3027 45.7284 41.3027C45.7284 41.3027 45.6547 41.3027 45.5809 41.3765Z" fill="#C1C7D0"/>
<path d="M45.9492 23.5278L58.93 14.751C58.9792 14.7018 59.0038 14.6526 59.0038 14.6035C59.0038 14.5543 58.9792 14.5051 58.93 14.456L57.6024 12.6121C57.6024 12.5383 57.5287 12.5383 57.4549 12.5383C57.3812 12.5383 57.3812 12.5383 57.3074 12.6121L45.0641 22.4952C44.9904 22.569 44.9904 22.7165 45.0641 22.7902C45.2854 23.0115 45.4329 23.3065 45.6541 23.5278C45.6541 23.6015 45.7279 23.6015 45.8017 23.6015C45.8017 23.6015 45.8754 23.6015 45.9492 23.5278Z" fill="#C1C7D0"/>
<path d="M43.81 20.5776L54.5045 9.21936C54.5536 9.17019 54.5782 9.12102 54.5782 9.07185C54.5782 9.02268 54.5536 8.97351 54.5045 8.92434L52.8819 7.37549H52.7344C52.6852 7.37549 52.636 7.40007 52.5868 7.44924L42.8512 19.6188C42.7775 19.6925 42.7775 19.84 42.8512 19.9138C43.0725 20.1351 43.2937 20.3563 43.515 20.5776C43.515 20.6514 43.5888 20.6514 43.6625 20.6514C43.7363 20.6514 43.7363 20.6514 43.81 20.5776Z" fill="#C1C7D0"/>
<path d="M41.0085 18.3652L49.4165 5.16308C49.4165 5.08933 49.4903 5.08933 49.4165 5.01557C49.4165 4.94182 49.3428 4.94182 49.3428 4.86806L47.3514 3.68799H47.2039C47.1301 3.68799 47.1301 3.76174 47.0564 3.76174L39.8284 17.7014C39.7546 17.7752 39.8284 17.9227 39.9022 17.9964L40.7135 18.5127C40.861 18.4389 40.9347 18.4389 41.0085 18.3652Z" fill="#C1C7D0"/>
<path d="M38.1308 16.8158L43.5149 2.43367C43.5149 2.35991 43.5149 2.2124 43.3674 2.2124L41.3022 1.47485H41.1547C41.081 1.47485 41.081 1.54861 41.081 1.62236L36.877 16.4471C36.877 16.5208 36.877 16.6683 37.0245 16.6683L37.9095 16.9634C37.9833 16.9634 38.1308 16.9634 38.1308 16.8158Z" fill="#C1C7D0"/>
</svg>
