<?xml version="1.0" encoding="UTF-8"?>
<svg xmlns="http://www.w3.org/2000/svg" xmlns:xlink="http://www.w3.org/1999/xlink" width="64px" height="64px" viewBox="0 0 64 64" version="1.1">
<defs>
<linearGradient id="linear0" gradientUnits="userSpaceOnUse" x1="69.79" y1="75.81" x2="28.43" y2="52.04" gradientTransform="matrix(0.8,0,0,0.8,0,0)">
<stop offset="0" style="stop-color:rgb(0%,32.156863%,80%);stop-opacity:1;"/>
<stop offset="0.92" style="stop-color:rgb(13.72549%,50.196078%,98.431373%);stop-opacity:1;"/>
<stop offset="1" style="stop-color:rgb(14.901961%,51.764706%,100%);stop-opacity:1;"/>
</linearGradient>
<linearGradient id="linear1" gradientUnits="userSpaceOnUse" x1="14060.02" y1="2692.27" x2="14018.65" y2="2668.5" gradientTransform="matrix(-0.8,0.000000000000000098,-0.000000000000000098,-0.8,11256.216,2157.232)">
<stop offset="0" style="stop-color:rgb(0%,32.156863%,80%);stop-opacity:1;"/>
<stop offset="0.92" style="stop-color:rgb(13.72549%,50.196078%,98.431373%);stop-opacity:1;"/>
<stop offset="1" style="stop-color:rgb(14.901961%,51.764706%,100%);stop-opacity:1;"/>
</linearGradient>
</defs>
<g id="surface1">
<path style=" stroke:none;fill-rule:nonzero;fill:url(#linear0);" d="M 7.496094 45.398438 C 6.953125 46.289062 6.335938 47.328125 5.847656 48.152344 C 5.402344 48.929688 5.648438 49.917969 6.398438 50.398438 L 17.335938 57.152344 C 17.71875 57.390625 18.179688 57.460938 18.617188 57.355469 C 19.058594 57.25 19.433594 56.972656 19.664062 56.585938 C 20.105469 55.847656 20.664062 54.894531 21.265625 53.878906 C 25.601562 46.761719 29.992188 47.632812 37.839844 51.367188 L 48.6875 56.519531 C 49.097656 56.714844 49.570312 56.738281 50 56.578125 C 50.425781 56.421875 50.769531 56.097656 50.953125 55.679688 L 56.160156 43.921875 C 56.527344 43.089844 56.175781 42.121094 55.359375 41.71875 C 53.070312 40.640625 48.519531 38.519531 44.441406 36.519531 C 29.601562 29.351562 17.078125 29.824219 7.496094 45.398438 Z M 7.496094 45.398438 "/>
<path style=" stroke:none;fill-rule:nonzero;fill:url(#linear1);" d="M 56.535156 18.671875 C 57.089844 17.785156 57.703125 16.742188 58.183594 15.921875 C 58.648438 15.128906 58.386719 14.109375 57.601562 13.640625 L 46.679688 6.886719 C 46.296875 6.652344 45.835938 6.578125 45.398438 6.683594 C 44.960938 6.789062 44.582031 7.070312 44.351562 7.457031 C 43.921875 8.191406 43.351562 9.144531 42.753906 10.160156 C 38.398438 17.3125 34.046875 16.441406 26.191406 12.703125 L 15.351562 7.550781 C 14.945312 7.351562 14.476562 7.324219 14.050781 7.476562 C 13.625 7.625 13.277344 7.941406 13.089844 8.351562 L 7.878906 20.144531 C 7.507812 20.976562 7.859375 21.953125 8.679688 22.351562 C 10.976562 23.433594 15.527344 25.550781 19.601562 27.550781 C 34.398438 34.71875 46.960938 34.246094 56.535156 18.671875 Z M 56.535156 18.671875 "/>
</g>
</svg>
