<svg fill="none" height="40" viewBox="0 0 40 40" width="40" xmlns="http://www.w3.org/2000/svg"><g fill="#091e42"><path clip-rule="evenodd" d="m30.8435 6.50603c.7984 0 1.4457.6473 1.4457 1.44578v4.33739c0 .7984-.6473 1.4457-1.4457 1.4457h-21.92775c-.79848 0-1.44578-.6473-1.44578-1.4457v-4.33739c0-.79848.6473-1.44578 1.44578-1.44578z" fill-rule="evenodd"/><path clip-rule="evenodd" d="m20.9627 10.0696c-.0267-.57515-.5014-1.03328-1.0832-1.03328-.5989 0-1.0843.48547-1.0843 1.08438v8.7951h-4.8193l-.0773.0008c-2.1602.0412-3.8986 1.8051-3.8986 3.9751v6.988l.0012.051c.0266.5752.5014 1.0333 1.0831 1.0333.5989 0 1.0844-.4854 1.0844-1.0843v-6.988l.0009-.0585c.0309-.971.8278-1.7487 1.8063-1.7487h4.8193v8.7952l.0011.051c.0267.5752.5015 1.0333 1.0832 1.0333.5989 0 1.0843-.4854 1.0843-1.0843v-8.7952h4.8193l.0585.0009c.9711.0309 1.7488.8278 1.7488 1.8063v6.988l.0011.051c.0267.5752.5014 1.0333 1.0832 1.0333.5989 0 1.0843-.4854 1.0843-1.0843v-6.988l-.0007-.0773c-.0412-2.1601-1.8052-3.8986-3.9752-3.8986h-4.8193v-8.7951z" fill-rule="evenodd" opacity=".5"/><rect height="7.22892" rx="1.44578" width="7.22892" x="7.46997" y="26.2651"/><rect height="7.22892" rx="1.44578" width="7.22892" x="25.0603" y="26.2651"/><rect height="7.22892" rx="1.44578" width="7.22892" x="16.2651" y="26.2651"/></g></svg>