<svg xmlns="http://www.w3.org/2000/svg" preserveAspectRatio="xMinYMin meet" viewBox="0 0 36 36"><path style="fill: #091e42; fill-rule:evenodd;" d="M28.31,36a4.19,4.19,0,0,0,4.19-4.19V8.74H23.77V0H7.69A4.19,4.19,0,0,0,3.5,4.19V31.81A4.19,4.19,0,0,0,7.69,36Zm-.87-21.84a1.58,1.58,0,0,0-1.58-1.58H10.41a1.58,1.58,0,0,0,.08,3.15H25.94A1.58,1.58,0,0,0,27.44,14.16Zm-9.27,6.46a1.58,1.58,0,0,1,.08,3.15H10.49a1.58,1.58,0,0,1-.08-3.15h7.76Z"></path><path style="opacity:0.5; fill:#091e42; fill-rule:evenodd;" d="M32.5,8.74H23.77V0Z"></path></svg>