<svg width="32" height="26" viewBox="0 0 32 26" fill="none" xmlns="http://www.w3.org/2000/svg">
<path d="M15.7432 25.9871C12.41 25.9871 9.07643 25.9701 5.74342 25.9999C4.96703 26.0068 4.60207 25.7331 4.41812 24.9676C3.63033 21.6818 2.7775 18.4115 1.98386 15.1273C1.86309 14.628 1.68525 14.4106 1.16103 14.4539C0.691745 14.4932 0.273958 14.3477 0.077539 13.8588C-0.124719 13.3545 0.0857678 12.9829 0.510988 12.7374C0.80827 12.5662 0.65432 12.3764 0.610258 12.1776C-0.00819482 9.39215 1.22367 7.17156 3.89231 6.31899C4.26152 6.20088 4.40565 6.05994 4.46564 5.65834C4.88342 2.85911 6.43248 0.967651 9.1842 0.243557C11.8624 -0.462223 14.1167 0.387683 15.8576 2.51033C16.2269 2.96156 16.359 2.84477 16.7049 2.53687C20.1786 -0.543713 25.4779 1.08258 26.5744 5.57101C26.6806 6.00021 26.8221 6.1178 27.247 6.18362C30.4205 6.67334 32.021 9.2459 31.1003 12.3395C31.0342 12.5614 31.0039 12.7068 31.1406 12.9402C31.621 13.759 31.3264 14.4 30.4112 14.4361C29.8273 14.46 29.6908 14.7079 29.5701 15.2045C28.7793 18.4638 27.9334 21.7095 27.1546 24.9724C26.9702 25.7453 26.5972 26.0062 25.8275 25.9999C22.4658 25.9712 19.1044 25.9871 15.7432 25.9871ZM15.7993 24.5145C18.883 24.5145 21.9671 24.4986 25.0506 24.5291C25.6064 24.5347 25.8392 24.3563 25.9363 23.8313C26.0518 23.2057 26.2312 22.592 26.3854 21.9733C26.9428 19.7437 27.4811 17.5066 28.0667 15.2844C28.2442 14.6097 28.0717 14.4019 27.3872 14.4521C26.697 14.5025 25.9931 14.5187 25.3059 14.4475C24.6187 14.3764 24.3947 14.6647 24.3082 15.294C24.0515 17.1616 23.7428 19.022 23.4694 20.8871C23.3884 21.4411 23.1437 21.7997 22.5462 21.6803C21.987 21.5685 21.9265 21.143 22.0082 20.6451C22.3142 18.7855 22.5882 16.9203 22.9107 15.0636C23.0012 14.5418 22.8117 14.4425 22.3533 14.4563C21.5482 14.4807 20.7381 14.5123 19.9378 14.4481C19.2477 14.3929 19.1267 14.6734 19.1068 15.294C19.033 17.5966 18.8921 19.8971 18.7883 22.1989C18.7646 22.7215 18.534 23.0979 18.0092 23.0823C17.4715 23.0663 17.2756 22.6576 17.3056 22.1416C17.3234 21.8366 17.3292 21.5311 17.3443 21.2258C17.4444 19.2019 17.5261 17.177 17.6586 15.1552C17.6958 14.5861 17.5097 14.4295 16.9727 14.4542C16.1957 14.4934 15.4171 14.4928 14.6401 14.4523C14.0503 14.4186 13.8834 14.6084 13.9219 15.204C14.066 17.4477 14.1528 19.6951 14.272 21.9406C14.3028 22.523 14.2245 23.082 13.5219 23.082C12.8742 23.082 12.8052 22.5339 12.781 21.9924C12.6794 19.6882 12.5451 17.3874 12.4527 15.0848C12.4347 14.6365 12.333 14.4351 11.8422 14.4531C10.9544 14.486 10.0638 14.4866 9.17597 14.4531C8.64511 14.4335 8.596 14.6474 8.67165 15.1018C8.97185 16.9068 9.22587 18.7183 9.52474 20.5232C9.61021 21.0395 9.63092 21.5181 9.02441 21.6497C8.37171 21.7909 8.16999 21.3604 8.08823 20.7836C7.82731 18.9453 7.52127 17.1133 7.2654 15.2741C7.18444 14.6941 7.01032 14.382 6.33639 14.4465C5.61973 14.5147 4.88979 14.5062 4.17207 14.4494C3.44267 14.3918 3.34924 14.6655 3.51327 15.303C4.23737 18.1205 4.93916 20.9438 5.61867 23.7729C5.76173 24.373 6.03247 24.535 6.63155 24.5286C9.68692 24.4975 12.7431 24.5145 15.7993 24.5145ZM15.7847 12.6384C19.8134 12.6384 23.8429 12.6039 27.8708 12.6649C28.8263 12.679 29.2353 12.2832 29.4586 11.4705C29.772 10.3291 29.4405 9.39056 28.5712 8.63036C27.7333 7.89751 26.5333 7.77488 25.5323 8.26407C25.0922 8.47907 24.8688 8.69301 25.196 9.20529C25.3656 9.47072 25.4174 9.83329 25.4495 10.1592C25.4933 10.6078 25.2536 10.9101 24.8024 10.9776C24.382 11.0405 24.0518 10.8154 23.9957 10.4236C23.8238 9.21723 23.1066 8.7084 21.9519 8.66221C21.5647 8.64682 21.3335 8.39944 21.3011 8.02783C21.2647 7.60739 21.5073 7.36745 21.9068 7.25437C22.3063 7.1413 22.6821 7.27189 23.0585 7.33772C24.0971 7.51927 24.9943 6.51807 24.6575 5.52854C24.0186 3.65248 22.1688 2.54537 20.117 2.81107C18.3031 3.04597 16.7922 4.65607 16.6282 6.52948C16.5504 7.41496 16.2136 7.82292 15.6036 7.7194C14.785 7.58085 14.7407 6.96452 14.8105 6.31767C14.8493 5.96066 14.9106 5.601 15.0176 5.25833C15.0988 4.99821 15.0706 4.79012 14.973 4.54327C14.2672 2.78028 12.1907 1.58584 10.2472 1.84118C8.21458 2.1082 6.49193 3.78891 6.29074 5.68196C6.2496 6.06816 6.32312 6.29245 6.75099 6.39862C7.293 6.53134 7.76706 6.8411 8.20608 7.18562C8.70217 7.57501 9.08678 8.06155 8.62732 8.66699C8.17184 9.26819 7.62081 9.08053 7.11065 8.65319C6.91871 8.49318 6.70906 8.35567 6.48583 8.24336C5.43313 7.7125 4.11792 7.89831 3.21918 8.68584C2.35467 9.44417 2.04677 10.7082 2.41412 11.8028C2.61559 12.4037 2.92826 12.663 3.61467 12.6572C7.67098 12.6206 11.7286 12.6384 15.7847 12.6384V12.6384Z" fill="#F67B2D"/>
</svg>
