<svg width="21" height="26" viewBox="0 0 21 26" fill="none" xmlns="http://www.w3.org/2000/svg">
<path d="M0.000976562 4.86737V0.471463C0.0433586 0.446276 0.0895408 0.428127 0.137729 0.41771C1.59863 0.41771 3.06141 0.38281 4.52042 0.424307C5.6333 0.456373 6.55568 0.846828 6.8471 2.14739C7.03573 1.98423 7.1838 1.85881 7.3281 1.73149C9.05212 0.209285 11.1006 -0.190602 13.3056 0.0772444C17.1432 0.543147 19.4774 3.50832 20.1612 6.99316C20.6535 9.50186 20.5196 11.9578 19.5396 14.342C17.959 18.189 13.896 20.2459 9.9198 19.1274C8.99176 18.8671 8.14484 18.3144 7.25736 17.8947V26.0056H2.14752V5.71146C2.14752 4.93715 2.12866 4.92112 1.35624 4.92018C0.947557 4.92018 0.53887 4.91735 0.130184 4.91169C0.0855047 4.90211 0.0421292 4.88723 0.000976562 4.86737ZM15.2701 9.96589C15.2701 8.6342 15.0749 7.53074 14.5015 6.5216C13.7564 5.2116 12.6294 4.50804 11.1119 4.54859C9.59442 4.58915 8.43721 5.28989 7.80532 6.66024C6.83107 8.77378 6.81975 10.9382 7.92698 13.0009C9.28507 15.5303 12.7539 15.6227 14.3525 13.2272C15.0494 12.1822 15.2579 11.008 15.2701 9.96589Z" fill="black"/>
</svg>
