<svg width="21" height="26" viewBox="0 0 21 26" fill="none" xmlns="http://www.w3.org/2000/svg">
<path d="M20.6437 16.8352C20.3286 17.9438 20.1093 19.0824 19.5709 20.1233C17.5929 23.9318 14.3167 25.846 10.1792 25.9956C8.20115 26.0654 6.1912 25.3036 4.49431 24.0753C2.22514 22.4343 0.657863 20.2967 0.16734 17.5191C-0.92537 11.3377 3.48535 5.83826 9.85616 5.35571C12.6318 5.14235 13.5929 4.15933 13.6826 1.35577C13.7106 0.434544 14.1632 0.0197968 15.0386 0.0138148C16.3985 0.00185083 17.7604 -0.0101131 19.1223 0.0138148C20.0774 0.0357487 20.6636 0.58609 20.7753 1.53324C21.4333 7.0925 18.2449 10.8412 13.6428 12.2669C12.6717 12.568 11.563 12.4204 10.5162 12.4882C8.76545 12.6039 7.254 13.9758 7.11641 15.565C6.96287 17.3157 8.01371 18.7294 9.75646 19.1243C11.571 19.535 13.4633 18.2788 13.7185 16.4204C13.804 15.5625 13.8287 14.6996 13.7923 13.8382C13.7923 13.0406 14.1572 12.6557 14.9249 12.6418C16.4523 12.6258 17.9797 12.6418 19.5111 12.6218C20.1093 12.6218 20.3725 13.0346 20.6696 13.4194C20.6696 14.35 20.6762 15.2805 20.6895 16.211L20.6696 16.6098L20.6437 16.8352Z" fill="#2B6BF3"/>
</svg>
