<svg width="27" height="26" viewBox="0 0 27 26" fill="none" xmlns="http://www.w3.org/2000/svg">
<path d="M22.5753 14.3072C22.5753 14.539 22.4839 14.7613 22.3213 14.9252C22.1586 15.089 21.9381 15.1811 21.7081 15.1811C21.4781 15.1811 21.2576 15.089 21.095 14.9252C20.9324 14.7613 20.841 14.539 20.841 14.3072V6.50004C20.841 6.26827 20.9324 6.04599 21.095 5.8821C21.2576 5.71821 21.4781 5.62615 21.7081 5.62615C21.9381 5.62615 22.1586 5.71821 22.3213 5.8821C22.4839 6.04599 22.5753 6.26827 22.5753 6.50004V14.3072ZM22.2743 19.7166C22.1596 19.8322 18.9347 22.5405 13.0224 22.5405C7.11009 22.5405 3.90672 19.8466 3.77054 19.7311C3.68472 19.6581 3.61406 19.5689 3.56256 19.4684C3.51105 19.3679 3.47974 19.2581 3.47043 19.1454C3.46108 19.0327 3.47396 18.9192 3.50824 18.8115C3.54251 18.7038 3.59755 18.604 3.6702 18.5177C3.81987 18.3432 4.03195 18.2354 4.26015 18.2178C4.48839 18.2003 4.71424 18.2743 4.88851 18.4239C4.93866 18.46 7.81955 20.8144 13.0152 20.8144C18.2109 20.8144 21.1133 18.4455 21.142 18.4239C21.3182 18.2757 21.5448 18.2025 21.7736 18.2201C22.0025 18.2376 22.2155 18.3444 22.3674 18.5177C22.5136 18.6897 22.5866 18.9128 22.5705 19.1386C22.5544 19.3645 22.4505 19.5748 22.2814 19.7238L22.2743 19.7166ZM3.46237 6.50004C3.47535 6.26753 3.57911 6.04967 3.75099 5.89401C3.92287 5.73839 4.1489 5.65768 4.37967 5.66948C4.59361 5.68172 4.79549 5.77338 4.94636 5.92672C5.0972 6.08009 5.18637 6.28433 5.19665 6.50004V14.2928C5.19665 14.5245 5.1053 14.7468 4.94269 14.9107C4.78004 15.0746 4.55951 15.1667 4.32952 15.1667C4.09954 15.1667 3.87897 15.0746 3.71636 14.9107C3.55375 14.7468 3.46237 14.5245 3.46237 14.2928V6.50004ZM7.81242 4.76669C7.82537 4.53421 7.92913 4.31631 8.10101 4.1607C8.27289 4.00508 8.49892 3.92432 8.72969 3.93617C8.94366 3.9484 9.14551 4.04003 9.29638 4.1934C9.44722 4.34678 9.53639 4.55101 9.54667 4.76669V16.3222C9.54667 16.554 9.45532 16.7762 9.29271 16.9401C9.13006 17.104 8.90953 17.1961 8.67954 17.1961C8.44956 17.1961 8.22899 17.104 8.06638 16.9401C7.90377 16.7762 7.81242 16.554 7.81242 16.3222V4.76669ZM12.1839 4.33336C12.1839 4.10159 12.2753 3.87935 12.4379 3.71545C12.6005 3.55156 12.8211 3.4595 13.0511 3.4595C13.2811 3.4595 13.5016 3.55156 13.6642 3.71545C13.8268 3.87935 13.9182 4.10159 13.9182 4.33336V16.9C13.9182 17.1318 13.8268 17.354 13.6642 17.5179C13.5016 17.6818 13.2811 17.7739 13.0511 17.7739C12.8211 17.7739 12.6005 17.6818 12.4379 17.5179C12.2753 17.354 12.1839 17.1318 12.1839 16.9V4.33336ZM16.4838 4.76669C16.4838 4.53492 16.5751 4.31268 16.7378 4.14878C16.9004 3.98489 17.121 3.89283 17.3509 3.89283C17.5809 3.89283 17.8015 3.98489 17.9641 4.14878C18.1267 4.31268 18.2181 4.53492 18.2181 4.76669V16.3222C18.2181 16.554 18.1267 16.7762 17.9641 16.9401C17.8015 17.104 17.5809 17.1961 17.3509 17.1961C17.121 17.1961 16.9004 17.104 16.7378 16.9401C16.5751 16.7762 16.4838 16.554 16.4838 16.3222V4.76669ZM22.8117 7.2109e-05H3.26173C2.83575 -0.00278132 2.41337 0.0790767 2.01882 0.240938C1.62429 0.402798 1.2653 0.641523 0.962404 0.943416C0.659513 1.24527 0.418683 1.60441 0.253719 2.00022C0.0887549 2.39603 0.00286696 2.82076 0.000976562 3.25006V22.7499C0.00286696 23.1792 0.0887549 23.604 0.253719 23.9998C0.418683 24.3956 0.659513 24.7547 0.962404 25.0566C1.2653 25.3585 1.62429 25.5972 2.01882 25.7591C2.41337 25.9209 2.83575 26.0028 3.26173 25.9999H22.8117C23.2371 26.0028 23.6589 25.9212 24.053 25.7597C24.4471 25.5983 24.8057 25.3603 25.1085 25.0592C25.4113 24.758 25.6523 24.3998 25.8177 24.0048C25.9831 23.6098 26.0697 23.1859 26.0725 22.7572V3.25006C26.0706 2.82137 25.985 2.39724 25.8204 2.0019C25.6559 1.60655 25.4157 1.24777 25.1136 0.945985C24.8115 0.644163 24.4533 0.405331 24.0596 0.243006C23.6659 0.0807175 23.2443 -0.00185396 22.8189 7.2109e-05" fill="#006BFF"/>
</svg>
