<?xml version="1.0" encoding="UTF-8"?> <svg xmlns="http://www.w3.org/2000/svg" width="144" height="144" viewBox="0 0 144 144" fill="none"><rect x="-0.0020752" width="144" height="144" rx="40.4494" fill="#F47C2C"></rect><path d="M110.626 81.3262L103.922 108.25H40.0745L33.3699 81.3262H24.8148L32.7922 113.361C33.2503 115.202 34.9136 116.494 36.8234 116.494H107.173C109.083 116.494 110.746 115.202 111.204 113.361L119.181 81.3262H110.626ZM71.998 103.389C74.2914 103.389 76.1506 101.543 76.1506 99.2667V81.3262H67.845V99.2667C67.845 101.543 69.7047 103.389 71.998 103.389ZM91.5513 100.653C91.7696 100.687 91.9868 100.703 92.2011 100.703C94.21 100.703 95.9764 99.2527 96.2984 97.2204L98.8153 81.3259H90.4076L88.0935 95.9402C87.7375 98.189 89.2852 100.299 91.5513 100.653ZM47.6975 97.221C48.0195 99.2533 49.7856 100.704 51.7948 100.704C52.0091 100.704 52.2263 100.687 52.4446 100.653C54.7104 100.3 56.2584 98.19 55.9024 95.9411L53.5884 81.3269H45.1807L47.6975 97.221ZM123.666 69.3515H122.639C123.367 67.5729 123.761 65.6516 123.761 63.6848C123.761 56.3962 118.54 50.2957 111.615 48.8741C109.659 38.6916 100.711 31.1301 89.9302 31.1301C84.1274 31.1301 78.8436 33.3665 74.8983 37.012C68.8741 28.096 58.5211 26.1164 50.5792 28.3467C42.4467 30.6298 34.9549 37.6522 34.6473 48.5836C26.6279 49.0098 20.2349 55.62 20.2349 63.6854C20.2349 65.6677 20.6193 67.5817 21.3368 69.3518H20.4395C18.308 69.3518 16.4379 70.9017 16.2039 73.0047C15.9273 75.4912 17.8814 77.596 20.3304 77.596H123.556C125.688 77.596 127.558 76.0461 127.792 73.9431C128.069 71.4566 126.115 69.3515 123.666 69.3515ZM112.457 69.3512H31.506C31.4384 69.2935 31.3729 69.2346 31.3008 69.1806C29.3919 67.7498 28.3689 65.5048 28.5637 63.1063C28.8025 60.1665 30.9623 57.6635 33.8552 56.9911C36.7214 56.3249 39.5945 57.4874 41.1923 59.8022C42.1761 61.2273 43.9118 62.0028 45.5956 61.5657C48.5938 60.7875 49.6559 57.5109 48.1009 55.2256C46.7623 53.2585 45.0027 51.6712 42.9889 50.5362C42.4326 42.2497 47.8146 37.6901 52.8391 36.2795C58.6881 34.6381 66.1059 36.4993 69.4967 44.3571C69.5224 44.4166 69.5539 44.4721 69.582 44.5298C68.4858 47.0993 67.8694 49.9174 67.8454 52.8733C67.8279 55.0401 69.4185 56.9505 71.5917 57.1551C74.0673 57.3882 76.15 55.4614 76.15 53.0521C76.15 45.51 82.3314 39.374 89.9296 39.374C96.3211 39.374 101.678 43.6337 103.243 49.5065C100.638 50.466 98.3134 52.1265 96.5617 54.3295C95.8581 54.0853 95.1321 53.8948 94.3888 53.7657C92.982 53.5212 91.5524 54.3027 91.148 55.6625C90.6663 57.2824 91.7269 58.9008 93.3513 59.1659C95.9929 59.5964 98.2039 61.1989 99.4186 63.5616C99.9079 64.5135 100.88 65.0615 101.887 65.0615C102.426 65.0615 102.975 64.9046 103.467 64.5694C104.648 63.765 104.94 62.1683 104.271 60.9109C103.962 60.3303 103.61 59.7784 103.225 59.2531C104.562 57.6746 106.497 56.7853 108.596 56.8058C112.434 56.8432 115.557 60.07 115.453 63.8785C115.392 66.0966 114.29 68.1007 112.457 69.3512ZM55.8971 44.9728C57.5367 44.6644 58.9473 46.0647 58.6366 47.6922C58.463 48.6016 57.7242 49.3349 56.8081 49.5072C55.1685 49.8157 53.7579 48.4154 54.0686 46.7878C54.2422 45.8785 54.981 45.1452 55.8971 44.9728ZM58.1278 55.8091C60.9059 55.4616 63.2418 57.7804 62.8918 60.5381C62.6533 62.4171 61.1247 63.9344 59.2319 64.1711C56.4538 64.5186 54.1179 62.1998 54.4679 59.4421C54.7064 57.5631 56.2349 56.0458 58.1278 55.8091ZM88.7459 46.5616C90.3933 46.2517 91.8106 47.6585 91.4984 49.2938C91.3239 50.2075 90.5817 50.9443 89.6613 51.1175C88.0138 51.4274 86.5966 50.0205 86.9088 48.3852C87.0832 47.4715 87.8255 46.7347 88.7459 46.5616ZM81.4823 59.2709C83.7474 58.9019 85.6784 60.8186 85.3067 63.0671C85.0816 64.4287 83.9753 65.5269 82.6036 65.7504C80.3385 66.1193 78.4076 64.2026 78.7793 61.9541C79.0043 60.5925 80.1106 59.4943 81.4823 59.2709Z" fill="white"></path></svg> 