<?xml version="1.0" encoding="UTF-8"?> <svg xmlns="http://www.w3.org/2000/svg" id="Capa_1" data-name="Capa 1" width="719" height="130.6667" viewBox="0 0 719 130.6667"><rect x="4.711" y="79.1856" width="709.578" height="41.2774" rx="20.6387" ry="20.6387" fill="#f9f2e8"></rect><path d="M70.2585,19.5448c-.1316-.3757-.2434-.6948-.3223-.9332-.2847-.8598-1.0879-1.4328-1.9828-1.4328-.0488,0-.0979,.0017-.1473,.0052-.9528,.0668-1.739,.7713-1.9097,1.7111-.0399,.2197-.0841,.5521-.1653,1.1694-.1027,.7806-.3229,2.4562-.555,3.6665-.2907,.0058-.5856,.0087-.8835,.0087-.5894,0-1.1841-.0117-1.7686-.0344l-.2317-3.2706c-.0776-1.094-.9877-1.9419-2.0844-1.9419h-3.4588v-6.6509c0-.901-.7372-1.6382-1.6381-1.6382h-3.1105c-.901,0-1.6382,.7372-1.6382,1.6382v6.6509h-9.2852v-6.6509c0-.901-.7372-1.6382-1.6383-1.6382h-3.1104c-.901,0-1.6381,.7372-1.6381,1.6382v6.6509h-3.3292c-1.0905,0-1.9976,.8385-2.0832,1.9256l-.2564,3.2576c-.782,.042-1.5928,.0636-2.4041,.0636-.2973,0-.5916-.0029-.8819-.0087-.2321-1.2104-.4524-2.8859-.5551-3.6665-.0811-.6173-.1253-.9497-.1653-1.1693-.1707-.9398-.957-1.6443-1.9098-1.7111-.0493-.0035-.0984-.0052-.1473-.0052-.8949,0-1.698,.573-1.9826,1.433-.079,.2387-.1911,.5582-.3227,.9345-.9603,2.7435-1.9064,5.5828-2.0076,7.5035-.0086,.1658,.0024,.3321,.0329,.4953l.0764,.4074c.0128,.0682,.029,.1357,.0485,.2023,.8746,2.9853,4.8932,4.8081,9.3412,6.5419l-5.6634,71.8448c-.0477,.5624,.134,1.1202,.504,1.5466,.3699,.4263,.8965,.6848,1.4601,.7167l17.6174-.2552c.0394,.0023,.0789,.0033,.1182,.0033,.5647,0,1.1075-.2289,1.5024-.6374,.4223-.437,.6336-1.0361,.5786-1.6413l-2.4317-50.3641,10.8614,.1817-2.754,50.0461c-.1021,.6477,.1058,1.3057,.5613,1.7772,.3961,.41,.9398,.6377,1.5027,.6377,.0845,0,.1692-.0051,.2541-.0155l16.8294,.0155c1.0613-.13,1.8533-1.0401,1.8354-2.1092l-3.4857-68.5487c-.0127-.7533-.4298-1.4414-1.0918-1.8011-.3117-.1693-.6549-.2535-.9975-.2535-.3851,0-.7696,.1063-1.1077,.3176l-1.0761,.6726,.0147-2.2939c4.2834-1.6868,8.0852-3.4882,8.9329-6.3819,.0194-.0665,.0357-.1341,.0485-.2023l.0764-.4074c.0306-.1632,.0416-.3294,.0329-.4952-.1013-1.9212-1.0475-4.7611-2.008-7.5051Z" fill="#ff9c94"></path><g><path d="M101.1821,101.6683c.6611,.8691,.9922,1.9546,.9922,3.2573,0,1.7969-.6172,3.1934-1.8511,4.1899-1.2339,.9971-2.9565,1.4956-5.167,1.4956h-7.5508c-.4741,0-.8442-.1333-1.1104-.3999-.2666-.2661-.3999-.6265-.3999-1.0806v-17.915c0-.4536,.1333-.8145,.3999-1.0806,.2661-.2666,.6362-.3999,1.1104-.3999h7.2251c2.1514,0,3.8345,.479,5.0488,1.436,1.2139,.958,1.8208,2.2949,1.8208,4.0122,0,1.106-.2915,2.0635-.8735,2.8726-.5825,.8096-1.3965,1.4116-2.4429,1.8062,1.2041,.3359,2.1367,.938,2.7983,1.8062Zm-12.0962-2.9019h5.271c2.9209,0,4.3823-1.105,4.3823-3.3164,0-1.1055-.3604-1.9248-1.0811-2.4575-.7207-.5332-1.8208-.7998-3.3013-.7998h-5.271v6.5737Zm9.0908,8.5576c.7104-.5522,1.0659-1.4111,1.0659-2.5762,0-1.1841-.3604-2.0674-1.0811-2.6499-.7207-.582-1.8311-.8735-3.3311-.8735h-5.7446v6.9292h5.7446c1.52,0,2.6353-.2764,3.3462-.8296Z" fill="#798d99"></path><path d="M108.3477,109.9007c-1.0762-.6118-1.9053-1.4854-2.4873-2.6206-.5825-1.1353-.8735-2.4531-.8735-3.9531,0-1.52,.291-2.8477,.8735-3.9829,.582-1.1348,1.4111-2.0083,2.4873-2.6206,1.0757-.6118,2.3247-.918,3.7461-.918s2.6694,.3062,3.7456,.918c1.0757,.6123,1.9048,1.4858,2.4873,2.6206,.582,1.1353,.8735,2.4629,.8735,3.9829,0,1.5-.2915,2.8179-.8735,3.9531-.5825,1.1353-1.4116,2.0088-2.4873,2.6206-1.0762,.6118-2.3242,.918-3.7456,.918s-2.6704-.3062-3.7461-.918Zm6.7812-2.7539c.7002-.8687,1.0513-2.1421,1.0513-3.8198,0-1.6587-.3555-2.9268-1.0664-3.8052-.7104-.8784-1.7173-1.3179-3.02-1.3179s-2.3101,.4395-3.0205,1.3179c-.7109,.8784-1.0659,2.1465-1.0659,3.8052,0,1.6777,.3501,2.9512,1.0513,3.8198,.7002,.8687,1.7124,1.3027,3.0352,1.3027s2.334-.4341,3.0352-1.3027Z" fill="#798d99"></path><path d="M125.0483,109.9007c-1.0762-.6118-1.9053-1.4854-2.4873-2.6206-.5825-1.1353-.8735-2.4531-.8735-3.9531,0-1.52,.291-2.8477,.8735-3.9829,.582-1.1348,1.4111-2.0083,2.4873-2.6206,1.0757-.6118,2.3247-.918,3.7461-.918s2.6694,.3062,3.7456,.918c1.0757,.6123,1.9048,1.4858,2.4873,2.6206,.582,1.1353,.8735,2.4629,.8735,3.9829,0,1.5-.2915,2.8179-.8735,3.9531-.5825,1.1353-1.4116,2.0088-2.4873,2.6206-1.0762,.6118-2.3242,.918-3.7456,.918s-2.6704-.3062-3.7461-.918Zm6.7812-2.7539c.7002-.8687,1.0513-2.1421,1.0513-3.8198,0-1.6587-.3555-2.9268-1.0664-3.8052-.7104-.8784-1.7173-1.3179-3.02-1.3179s-2.3101,.4395-3.0205,1.3179c-.7109,.8784-1.0659,2.1465-1.0659,3.8052,0,1.6777,.3501,2.9512,1.0513,3.8198,.7002,.8687,1.7124,1.3027,3.0352,1.3027s2.334-.4341,3.0352-1.3027Z" fill="#798d99"></path><path d="M139.3062,109.5745c-.3555-.2168-.6069-.4438-.7549-.6807-.1484-.2373-.2222-.5034-.2222-.7998,0-.3154,.0889-.582,.2666-.7993,.1772-.2173,.4043-.3257,.6807-.3257,.2563,0,.6611,.1582,1.2144,.4736,.5923,.3159,1.1694,.5728,1.7319,.77,.563,.1973,1.2686,.2959,2.1177,.2959,.9473,0,1.6875-.1675,2.2207-.5034,.5327-.3354,.7993-.8091,.7993-1.4214,0-.3945-.1035-.7104-.311-.9473-.207-.2368-.5674-.4487-1.0806-.6367-.5137-.1875-1.2734-.3896-2.2803-.6069-1.7373-.375-2.9858-.8833-3.7456-1.5249-.7603-.6416-1.1401-1.5151-1.1401-2.6206,0-.8486,.2466-1.6143,.7402-2.2949,.4932-.6812,1.1743-1.209,2.0435-1.5845,.8682-.3745,1.855-.5625,2.9609-.5625,.7896,0,1.5591,.1035,2.3096,.311,.75,.207,1.4111,.5083,1.9839,.9028,.6519,.4346,.9775,.938,.9775,1.5103,0,.3159-.0942,.5825-.2812,.7998-.188,.2173-.4102,.3257-.6665,.3257-.1777,0-.3555-.0396-.5332-.1187-.1772-.0786-.4146-.207-.7104-.3848-.5332-.3159-1.0317-.563-1.4951-.7402-.4644-.1777-1.0415-.2666-1.7324-.2666-.8291,0-1.4956,.1777-1.999,.5327-.5034,.3555-.7549,.8394-.7549,1.4512,0,.5527,.2319,.9824,.6958,1.2881,.4639,.3062,1.3374,.5972,2.6206,.8735,1.3223,.2769,2.3589,.5923,3.1094,.9478,.75,.355,1.2881,.7949,1.6138,1.3174,.3257,.5234,.4883,1.1895,.4883,1.999,0,1.2832-.5381,2.3145-1.6138,3.0942-1.0762,.7803-2.5122,1.1699-4.3081,1.1699-2.0137,0-3.6621-.415-4.9453-1.2441Z" fill="#798d99"></path><path d="M161.3521,108.8197c.1875,.188,.2812,.4492,.2812,.7847,0,.395-.1528,.6958-.459,.9033-.3062,.207-.7549,.291-1.3472,.2515l-.7993-.0591c-1.5991-.1187-2.7939-.6069-3.583-1.4658-.79-.8589-1.1846-2.127-1.1846-3.8052v-6.9585h-1.7769c-.8687,0-1.3027-.3848-1.3027-1.1548,0-.3555,.1133-.6367,.3403-.8442,.2271-.207,.5479-.3105,.9624-.3105h1.7769v-3.0503c0-.4536,.1333-.8091,.3999-1.0659,.2666-.2563,.6265-.3848,1.0806-.3848s.8188,.1284,1.0957,.3848c.2764,.2568,.4146,.6123,.4146,1.0659v3.0503h2.9316c.4146,0,.7354,.1035,.9624,.3105,.2266,.2075,.3403,.4888,.3403,.8442,0,.375-.1138,.6616-.3403,.8584-.2271,.1978-.5479,.2964-.9624,.2964h-2.9316v7.166c0,.9282,.1924,1.6089,.5776,2.043,.3848,.4346,.9722,.6812,1.7617,.7402l.8291,.0596c.4341,.0396,.7451,.1528,.9326,.3403Z" fill="#798d99"></path><path d="M182.4058,96.1014c.2266-.1377,.4688-.207,.7256-.207,.3745,0,.7056,.1284,.9917,.3848,.2861,.2568,.4297,.5625,.4297,.918,0,.1978-.04,.3853-.1187,.5625l-8.2319,17.4707c-.1187,.2764-.2915,.4888-.5181,.6367-.2275,.1484-.4692,.2222-.7256,.2222-.3555,0-.6763-.1182-.9624-.3555-.2866-.2368-.4292-.5327-.4292-.8882,0-.1582,.0488-.3555,.1479-.5923l2.043-4.3525-5.7148-12.1411c-.0791-.1577-.1187-.3354-.1187-.5327,0-.375,.1577-.6909,.4741-.9478,.3154-.2563,.6709-.3848,1.0659-.3848,.5923,0,1.0166,.2764,1.2734,.8291l4.5894,10.186,4.5605-10.1562c.1182-.2964,.291-.5132,.5181-.6519Z" fill="#798d99"></path><path d="M189.3345,109.9007c-1.0762-.6118-1.9053-1.4854-2.4873-2.6206-.5825-1.1353-.8735-2.4531-.8735-3.9531,0-1.52,.291-2.8477,.8735-3.9829,.582-1.1348,1.4111-2.0083,2.4873-2.6206,1.0757-.6118,2.3247-.918,3.7461-.918s2.6694,.3062,3.7456,.918c1.0757,.6123,1.9048,1.4858,2.4873,2.6206,.582,1.1353,.8735,2.4629,.8735,3.9829,0,1.5-.2915,2.8179-.8735,3.9531-.5825,1.1353-1.4116,2.0088-2.4873,2.6206-1.0762,.6118-2.3242,.918-3.7456,.918s-2.6704-.3062-3.7461-.918Zm6.7812-2.7539c.7002-.8687,1.0513-2.1421,1.0513-3.8198,0-1.6587-.3555-2.9268-1.0664-3.8052-.7104-.8784-1.7173-1.3179-3.02-1.3179s-2.3101,.4395-3.0205,1.3179c-.7109,.8784-1.0659,2.1465-1.0659,3.8052,0,1.6777,.3501,2.9512,1.0513,3.8198,.7002,.8687,1.7124,1.3027,3.0352,1.3027s2.334-.4341,3.0352-1.3027Z" fill="#798d99"></path><path d="M215.7773,96.2498c.2666,.2563,.3999,.6118,.3999,1.0659v12.0518c0,.4146-.1387,.7505-.4146,1.0068-.2769,.2563-.6416,.3848-1.0957,.3848-.4146,0-.7505-.1235-1.0068-.3701-.2568-.2466-.3848-.5771-.3848-.9917v-1.1255c-.4546,.8291-1.0811,1.4614-1.8804,1.895-.7998,.4346-1.6929,.6519-2.6802,.6519-3.5137,0-5.2705-1.9346-5.2705-5.8042v-7.6987c0-.4541,.1333-.8096,.3994-1.0659,.2666-.2563,.6367-.3853,1.1108-.3853,.4536,0,.814,.1289,1.0806,.3853s.3999,.6118,.3999,1.0659v7.6694c0,1.165,.2368,2.0234,.7104,2.5762,.4741,.5527,1.2041,.8291,2.1914,.8291,1.1646,0,2.0972-.375,2.7983-1.1255,.7002-.75,1.0513-1.7471,1.0513-2.9907v-6.9585c0-.4341,.1377-.7847,.4146-1.0513,.2759-.2666,.6411-.3999,1.0957-.3999,.4536,0,.814,.1289,1.0806,.3853Z" fill="#798d99"></path><path d="M229.354,97.0789c0,.4341-.1089,.7598-.3257,.9771-.2178,.2173-.5923,.3457-1.1255,.3848l-.8882,.0889c-1.2437,.1187-2.1665,.5532-2.7686,1.3032-.6025,.75-.9033,1.6582-.9033,2.7241v6.7808c0,.4741-.1382,.8291-.4146,1.0659-.2769,.2373-.6318,.3555-1.0659,.3555-.4346,0-.7949-.1182-1.0811-.3555-.2861-.2368-.4292-.5918-.4292-1.0659v-12.0518c0-.4536,.1431-.8042,.4292-1.0513,.2861-.2466,.6465-.3701,1.0811-.3701,.3945,0,.7256,.1235,.9922,.3701,.2661,.2471,.3994,.5879,.3994,1.0215v1.4214c.3945-.8682,.9673-1.5293,1.7178-1.9839,.75-.4536,1.5986-.7202,2.5464-.7993l.4146-.0298c.9478-.0591,1.4214,.3457,1.4214,1.2144Z" fill="#798d99"></path><path d="M239.0957,109.5745c-.3555-.2168-.6069-.4438-.7549-.6807-.1484-.2373-.2222-.5034-.2222-.7998,0-.3154,.0889-.582,.2666-.7993,.1772-.2173,.4043-.3257,.6807-.3257,.2563,0,.6611,.1582,1.2144,.4736,.5923,.3159,1.1694,.5728,1.7319,.77,.563,.1973,1.2686,.2959,2.1177,.2959,.9473,0,1.6875-.1675,2.2207-.5034,.5327-.3354,.7993-.8091,.7993-1.4214,0-.3945-.1035-.7104-.311-.9473-.207-.2368-.5674-.4487-1.0806-.6367-.5137-.1875-1.2734-.3896-2.2803-.6069-1.7373-.375-2.9858-.8833-3.7456-1.5249-.7603-.6416-1.1401-1.5151-1.1401-2.6206,0-.8486,.2466-1.6143,.7402-2.2949,.4932-.6812,1.1743-1.209,2.0435-1.5845,.8682-.3745,1.855-.5625,2.9609-.5625,.7896,0,1.5591,.1035,2.3096,.311,.75,.207,1.4111,.5083,1.9839,.9028,.6519,.4346,.9775,.938,.9775,1.5103,0,.3159-.0942,.5825-.2812,.7998-.188,.2173-.4102,.3257-.6665,.3257-.1777,0-.3555-.0396-.5332-.1187-.1772-.0786-.4146-.207-.7104-.3848-.5332-.3159-1.0317-.563-1.4951-.7402-.4644-.1777-1.0415-.2666-1.7324-.2666-.8291,0-1.4956,.1777-1.999,.5327-.5034,.3555-.7549,.8394-.7549,1.4512,0,.5527,.2319,.9824,.6958,1.2881,.4639,.3062,1.3374,.5972,2.6206,.8735,1.3223,.2769,2.3589,.5923,3.1094,.9478,.75,.355,1.2881,.7949,1.6138,1.3174,.3257,.5234,.4883,1.1895,.4883,1.999,0,1.2832-.5381,2.3145-1.6138,3.0942-1.0762,.7803-2.5122,1.1699-4.3081,1.1699-2.0137,0-3.6621-.415-4.9453-1.2441Z" fill="#798d99"></path><path d="M263.6284,97.2562c.9375,.9678,1.4067,2.4385,1.4067,4.4121v7.6694c0,.4546-.1289,.8047-.3853,1.0513s-.6118,.3701-1.0659,.3701c-.4346,0-.7798-.1284-1.0361-.3848-.2568-.2563-.3853-.6021-.3853-1.0366v-1.0957c-.375,.8296-.9326,1.4658-1.6729,1.9102s-1.604,.6665-2.5908,.6665c-.9478,0-1.8169-.1929-2.606-.5776-.79-.3848-1.4067-.9224-1.8506-1.6138-.4443-.6909-.6665-1.4609-.6665-2.3096,0-1.0464,.271-1.8701,.8145-2.4727,.5425-.6021,1.4409-1.0312,2.6943-1.2881,1.2534-.2563,2.9761-.3853,5.1675-.3853h.6812v-.8584c0-1.1055-.2275-1.9048-.6812-2.3984-.4546-.4937-1.1846-.7407-2.1914-.7407-.6909,0-1.3428,.0889-1.9541,.2666-.6123,.1777-1.2837,.4346-2.0137,.77-.5332,.2959-.9082,.4443-1.1255,.4443-.2959,0-.5381-.1084-.7251-.3257-.188-.2173-.2812-.4937-.2812-.8291,0-.2964,.0835-.5576,.2515-.7852,.1675-.2266,.439-.4487,.8145-.666,.6904-.375,1.5-.6758,2.4282-.9033,.9272-.2266,1.8257-.3403,2.6943-.3403,1.9146,0,3.3413,.4839,4.2788,1.4507Zm-2.5317,10.231c.6909-.7402,1.0366-1.6924,1.0366-2.8574v-.77h-.5332c-1.5396,0-2.7241,.0693-3.5532,.2075s-1.4214,.3701-1.7769,.6958-.5327,.7949-.5327,1.4062c0,.7109,.2563,1.2935,.7695,1.7471,.5132,.4546,1.1548,.6812,1.9248,.6812,1.0854,0,1.9736-.3701,2.665-1.1104Z" fill="#798d99"></path><path d="M269.5503,110.4036c-.2861-.2368-.4292-.5918-.4292-1.0659v-18.2998c0-.4736,.1431-.8335,.4292-1.0806,.2861-.2466,.6465-.3701,1.0811-.3701,.4341,0,.7891,.1235,1.0659,.3701,.2764,.2471,.4146,.6069,.4146,1.0806v18.2998c0,.4741-.1382,.8291-.4146,1.0659-.2769,.2373-.6318,.3555-1.0659,.3555-.4346,0-.7949-.1182-1.0811-.3555Z" fill="#798d99"></path><path d="M288.2793,107.2948c.1777,.2173,.2666,.4937,.2666,.8291,0,.5728-.3555,1.0562-1.0659,1.4507-.6914,.3955-1.4468,.7012-2.2656,.918-.8193,.2173-1.604,.3262-2.354,.3262-2.29,0-4.0967-.6665-5.4189-1.999-1.3228-1.3325-1.9839-3.1538-1.9839-5.4634,0-1.4805,.291-2.793,.8735-3.938,.582-1.145,1.4014-2.0332,2.458-2.665,1.0557-.6318,2.2549-.9478,3.5977-.9478,1.9346,0,3.4644,.6216,4.5898,1.8652,1.125,1.2441,1.6875,2.9219,1.6875,5.0342,0,.79-.355,1.1846-1.0659,1.1846h-9.1499c.1973,3.0601,1.668,4.5898,4.4121,4.5898,.73,0,1.3623-.0986,1.895-.2964,.5332-.1968,1.0957-.4536,1.688-.77,.0591-.0391,.2222-.123,.4888-.2515,.2661-.1284,.4883-.1924,.666-.1924,.2764,0,.5034,.1084,.6812,.3257Zm-8.5874-8.2026c-.6909,.731-1.106,1.7573-1.2437,3.0796h7.6396c-.0591-1.3418-.3994-2.3735-1.0215-3.0942-.6216-.7202-1.4951-1.0806-2.6206-1.0806-1.145,0-2.063,.3652-2.7539,1.0952Z" fill="#798d99"></path><path d="M292.0396,109.5745c-.3555-.2168-.6069-.4438-.7549-.6807-.1484-.2373-.2222-.5034-.2222-.7998,0-.3154,.0889-.582,.2666-.7993,.1772-.2173,.4043-.3257,.6807-.3257,.2563,0,.6611,.1582,1.2144,.4736,.5923,.3159,1.1694,.5728,1.7319,.77,.563,.1973,1.2686,.2959,2.1177,.2959,.9473,0,1.6875-.1675,2.2207-.5034,.5327-.3354,.7993-.8091,.7993-1.4214,0-.3945-.1035-.7104-.311-.9473-.207-.2368-.5674-.4487-1.0806-.6367-.5137-.1875-1.2734-.3896-2.2803-.6069-1.7373-.375-2.9858-.8833-3.7456-1.5249-.7603-.6416-1.1401-1.5151-1.1401-2.6206,0-.8486,.2466-1.6143,.7402-2.2949,.4932-.6812,1.1743-1.209,2.0435-1.5845,.8682-.3745,1.855-.5625,2.9609-.5625,.7896,0,1.5591,.1035,2.3096,.311,.75,.207,1.4111,.5083,1.9839,.9028,.6519,.4346,.9775,.938,.9775,1.5103,0,.3159-.0942,.5825-.2812,.7998-.188,.2173-.4102,.3257-.6665,.3257-.1777,0-.3555-.0396-.5332-.1187-.1772-.0786-.4146-.207-.7104-.3848-.5332-.3159-1.0317-.563-1.4951-.7402-.4644-.1777-1.0415-.2666-1.7324-.2666-.8291,0-1.4956,.1777-1.999,.5327-.5034,.3555-.7549,.8394-.7549,1.4512,0,.5527,.2319,.9824,.6958,1.2881,.4639,.3062,1.3374,.5972,2.6206,.8735,1.3223,.2769,2.3589,.5923,3.1094,.9478,.75,.355,1.2881,.7949,1.6138,1.3174,.3257,.5234,.4883,1.1895,.4883,1.999,0,1.2832-.5381,2.3145-1.6138,3.0942-1.0762,.7803-2.5122,1.1699-4.3081,1.1699-2.0137,0-3.6621-.415-4.9453-1.2441Z" fill="#798d99"></path><path d="M324.3896,97.2562c.9375,.9678,1.4067,2.4385,1.4067,4.4121v7.6694c0,.4546-.1289,.8047-.3853,1.0513s-.6118,.3701-1.0659,.3701c-.4346,0-.7798-.1284-1.0361-.3848-.2568-.2563-.3853-.6021-.3853-1.0366v-1.0957c-.375,.8296-.9326,1.4658-1.6729,1.9102s-1.604,.6665-2.5908,.6665c-.9478,0-1.8169-.1929-2.606-.5776-.79-.3848-1.4067-.9224-1.8506-1.6138-.4443-.6909-.6665-1.4609-.6665-2.3096,0-1.0464,.271-1.8701,.8145-2.4727,.5425-.6021,1.4409-1.0312,2.6943-1.2881,1.2534-.2563,2.9761-.3853,5.1675-.3853h.6812v-.8584c0-1.1055-.2275-1.9048-.6812-2.3984-.4546-.4937-1.1846-.7407-2.1914-.7407-.6909,0-1.3428,.0889-1.9541,.2666-.6123,.1777-1.2837,.4346-2.0137,.77-.5332,.2959-.9082,.4443-1.1255,.4443-.2959,0-.5381-.1084-.7251-.3257-.188-.2173-.2812-.4937-.2812-.8291,0-.2964,.0835-.5576,.2515-.7852,.1675-.2266,.439-.4487,.8145-.666,.6904-.375,1.5-.6758,2.4282-.9033,.9272-.2266,1.8257-.3403,2.6943-.3403,1.9146,0,3.3413,.4839,4.2788,1.4507Zm-2.5317,10.231c.6909-.7402,1.0366-1.6924,1.0366-2.8574v-.77h-.5332c-1.5396,0-2.7241,.0693-3.5532,.2075s-1.4214,.3701-1.7769,.6958-.5327,.7949-.5327,1.4062c0,.7109,.2563,1.2935,.7695,1.7471,.5132,.4546,1.1548,.6812,1.9248,.6812,1.0854,0,1.9736-.3701,2.665-1.1104Z" fill="#798d99"></path><path d="M342.8521,101.639v7.6987c0,.4546-.1333,.8047-.3994,1.0513-.2666,.2466-.6367,.3701-1.1108,.3701-.4541,0-.814-.1284-1.0806-.3848s-.3999-.6021-.3999-1.0366v-7.5508c0-1.2236-.2417-2.1216-.7256-2.6948-.4839-.5723-1.2388-.8584-2.2651-.8584-1.2041,0-2.1719,.375-2.9019,1.125-.7305,.7505-1.0957,1.7573-1.0957,3.0205v6.9585c0,.4346-.1333,.7803-.3999,1.0366-.2661,.2563-.6265,.3848-1.0806,.3848-.4546,0-.8193-.1284-1.0957-.3848-.2769-.2563-.4146-.6021-.4146-1.0366v-12.0518c0-.4146,.1431-.7549,.4292-1.0215s.6465-.3999,1.0811-.3999c.4341,0,.7798,.1289,1.0361,.3853s.3853,.5918,.3853,1.0063v1.2144c.4736-.8687,1.1348-1.5298,1.9839-1.9839,.8486-.4541,1.8062-.6812,2.8726-.6812,3.4541,0,5.1816,1.9448,5.1816,5.8335Z" fill="#798d99"></path><path d="M359.8486,89.972c.2764,.2568,.4146,.6025,.4146,1.0366v18.2998c0,.4541-.1333,.8096-.3999,1.0659s-.627,.3848-1.0806,.3848c-.4546,0-.8145-.1284-1.0811-.3848s-.3994-.6118-.3994-1.0659v-1.1846c-.4346,.8687-1.0664,1.5352-1.8955,1.9985-.8291,.4644-1.7866,.6963-2.8721,.6963-1.2437,0-2.354-.3159-3.3315-.9478-.9771-.6318-1.7373-1.52-2.2798-2.665-.5435-1.1445-.8145-2.458-.8145-3.9385,0-1.5,.271-2.813,.8145-3.938,.5425-1.1255,1.2979-1.9937,2.2651-2.606,.9668-.6118,2.0825-.918,3.3462-.918,1.0854,0,2.0381,.2324,2.8574,.6958,.8188,.4639,1.4458,1.1206,1.8804,1.9692v-7.5215c0-.4146,.1333-.7446,.3999-.9917,.2661-.2466,.6265-.3701,1.0806-.3701s.8188,.1284,1.0957,.3848Zm-3.6128,17.145c.7109-.8882,1.0664-2.1514,1.0664-3.79s-.3511-2.9023-1.0513-3.7905c-.7012-.8882-1.7026-1.3325-3.0059-1.3325s-2.3145,.4395-3.0352,1.3179-1.0806,2.1274-1.0806,3.7456c0,1.6191,.3647,2.8872,1.0957,3.8052,.73,.918,1.7368,1.377,3.02,1.377s2.2803-.4443,2.9907-1.3325Z" fill="#798d99"></path><path d="M381.2578,97.0789c0,.4341-.1094,.7598-.3262,.9771-.2178,.2173-.5918,.3457-1.125,.3848l-.8887,.0889c-1.2432,.1187-2.166,.5532-2.7686,1.3032s-.9033,1.6582-.9033,2.7241v6.7808c0,.4741-.1377,.8291-.4141,1.0659-.2773,.2373-.6318,.3555-1.0664,.3555s-.7949-.1182-1.0811-.3555c-.2861-.2368-.4287-.5918-.4287-1.0659v-12.0518c0-.4536,.1426-.8042,.4287-1.0513,.2861-.2466,.6465-.3701,1.0811-.3701,.3945,0,.7256,.1235,.9922,.3701,.2666,.2471,.3994,.5879,.3994,1.0215v1.4214c.3945-.8682,.9678-1.5293,1.7178-1.9839,.75-.4536,1.5986-.7202,2.5469-.7993l.4141-.0298c.9482-.0591,1.4219,.3457,1.4219,1.2144Z" fill="#798d99"></path><path d="M394.79,107.2948c.1777,.2173,.2666,.4937,.2666,.8291,0,.5728-.3555,1.0562-1.0664,1.4507-.6914,.3955-1.4463,.7012-2.2656,.918-.8193,.2173-1.6035,.3262-2.3535,.3262-2.29,0-4.0967-.6665-5.4189-1.999-1.3232-1.3325-1.9844-3.1538-1.9844-5.4634,0-1.4805,.291-2.793,.874-3.938,.582-1.145,1.4014-2.0332,2.458-2.665,1.0557-.6318,2.2549-.9478,3.5977-.9478,1.9346,0,3.4639,.6216,4.5898,1.8652,1.125,1.2441,1.6875,2.9219,1.6875,5.0342,0,.79-.3555,1.1846-1.0664,1.1846h-9.1494c.1973,3.0601,1.668,4.5898,4.4121,4.5898,.7295,0,1.3623-.0986,1.8945-.2964,.5332-.1968,1.0957-.4536,1.6885-.77,.0586-.0391,.2217-.123,.4883-.2515s.4883-.1924,.666-.1924c.2764,0,.5039,.1084,.6816,.3257Zm-8.5879-8.2026c-.6904,.731-1.1055,1.7573-1.2432,3.0796h7.6396c-.0596-1.3418-.3994-2.3735-1.0215-3.0942-.6221-.7202-1.4951-1.0806-2.6211-1.0806-1.1445,0-2.0625,.3652-2.7539,1.0952Z" fill="#798d99"></path><path d="M408.8105,97.2562c.9375,.9678,1.4072,2.4385,1.4072,4.4121v7.6694c0,.4546-.1289,.8047-.3857,1.0513-.2559,.2466-.6113,.3701-1.0654,.3701-.4346,0-.7803-.1284-1.0361-.3848-.2568-.2563-.3857-.6021-.3857-1.0366v-1.0957c-.375,.8296-.9326,1.4658-1.6729,1.9102s-1.6035,.6665-2.5908,.6665c-.9473,0-1.8164-.1929-2.6055-.5776-.79-.3848-1.4072-.9224-1.8506-1.6138-.4443-.6909-.667-1.4609-.667-2.3096,0-1.0464,.2715-1.8701,.8145-2.4727,.543-.6021,1.4414-1.0312,2.6943-1.2881,1.2539-.2563,2.9766-.3853,5.168-.3853h.6807v-.8584c0-1.1055-.2275-1.9048-.6807-2.3984-.4551-.4937-1.1846-.7407-2.1914-.7407-.6914,0-1.3428,.0889-1.9541,.2666-.6123,.1777-1.2842,.4346-2.0137,.77-.5332,.2959-.9082,.4443-1.126,.4443-.2959,0-.5381-.1084-.7246-.3257-.1885-.2173-.2812-.4937-.2812-.8291,0-.2964,.083-.5576,.251-.7852,.168-.2266,.4395-.4487,.8145-.666,.6904-.375,1.5-.6758,2.4287-.9033,.9268-.2266,1.8252-.3403,2.6943-.3403,1.9141,0,3.3408,.4839,4.2783,1.4507Zm-2.5312,10.231c.6904-.7402,1.0361-1.6924,1.0361-2.8574v-.77h-.5332c-1.5391,0-2.7236,.0693-3.5527,.2075s-1.4219,.3701-1.7773,.6958-.5322,.7949-.5322,1.4062c0,.7109,.2559,1.2935,.7695,1.7471,.5127,.4546,1.1543,.6812,1.9248,.6812,1.085,0,1.9736-.3701,2.665-1.1104Z" fill="#798d99"></path><path d="M416.8057,109.9007c-1.0566-.6118-1.876-1.481-2.458-2.606-.583-1.1255-.874-2.4282-.874-3.9087,0-1.5,.3008-2.8228,.9033-3.9678,.6016-1.145,1.4463-2.0332,2.5322-2.665,1.085-.6318,2.3291-.9478,3.7305-.9478,.75,0,1.5049,.1089,2.2656,.3257,.7598,.2173,1.4355,.5137,2.0283,.8882,.6318,.4346,.9473,.938,.9473,1.5103,0,.3359-.0889,.6172-.2666,.8442s-.4043,.3403-.6807,.3403c-.1777,0-.3555-.0444-.5332-.1333s-.4043-.2222-.6807-.3999c-.4941-.3154-.9531-.5571-1.377-.7251-.4248-.1675-.9326-.252-1.5254-.252-1.3428,0-2.3838,.4546-3.124,1.3623-.7402,.9082-1.1104,2.1719-1.1104,3.79,0,1.6191,.3652,2.8677,1.0957,3.7461s1.7666,1.3174,3.1094,1.3174c.5918,0,1.1152-.0889,1.5693-.2661,.4541-.1777,.918-.4146,1.3916-.7109,.2168-.1377,.4336-.2563,.6514-.3555,.2168-.0981,.415-.1479,.5928-.1479,.2754,0,.5029,.1138,.6807,.3408s.2666,.5083,.2666,.8438c0,.2769-.0742,.5283-.2227,.7549-.1475,.2275-.3994,.459-.7549,.6958-.5918,.3955-1.2832,.7012-2.0723,.918-.79,.2173-1.5898,.3262-2.3984,.3262-1.4023,0-2.6309-.3062-3.6865-.918Z" fill="#798d99"></path><path d="M441.5752,101.639v7.6987c0,.4346-.1387,.7803-.4141,1.0366-.2773,.2563-.6426,.3848-1.0957,.3848-.4551,0-.8145-.1284-1.0811-.3848s-.4004-.6021-.4004-1.0366v-7.6694c0-1.1841-.2412-2.0527-.7256-2.6055-.4834-.5527-1.2383-.8291-2.2646-.8291-1.2041,0-2.1719,.375-2.9023,1.125-.7305,.7505-1.0957,1.7573-1.0957,3.0205v6.9585c0,.4346-.1328,.7803-.3994,1.0366s-.627,.3848-1.0811,.3848-.8193-.1284-1.0957-.3848-.4141-.6021-.4141-1.0366v-18.3291c0-.4341,.1426-.7798,.4287-1.0366,.2861-.2563,.6562-.3848,1.1113-.3848,.4336,0,.7842,.1235,1.0508,.3701,.2666,.2471,.3994,.5771,.3994,.9917v7.4028c.4932-.8291,1.1553-1.4604,1.9844-1.895,.8291-.4341,1.7764-.6514,2.8428-.6514,3.4355,0,5.1523,1.9448,5.1523,5.8335Z" fill="#798d99"></path><path d="M464.2715,96.1014c.2266-.1377,.4688-.207,.7256-.207,.375,0,.7051,.1284,.9922,.3848,.2852,.2568,.4287,.5625,.4287,.918,0,.1978-.0391,.3853-.1182,.5625l-8.2324,17.4707c-.1182,.2764-.291,.4888-.5176,.6367-.2275,.1484-.4697,.2222-.7256,.2222-.3555,0-.6768-.1182-.9629-.3555-.2861-.2368-.4287-.5327-.4287-.8882,0-.1582,.0488-.3555,.1475-.5923l2.0439-4.3525-5.7158-12.1411c-.0791-.1577-.1182-.3354-.1182-.5327,0-.375,.1582-.6909,.4736-.9478,.3154-.2563,.6709-.3848,1.0664-.3848,.5918,0,1.0166,.2764,1.2734,.8291l4.5898,10.186,4.5596-10.1562c.1191-.2964,.291-.5132,.5186-.6519Z" fill="#798d99"></path><path d="M471.2012,109.9007c-1.0762-.6118-1.9053-1.4854-2.4873-2.6206s-.873-2.4531-.873-3.9531c0-1.52,.291-2.8477,.873-3.9829,.582-1.1348,1.4111-2.0083,2.4873-2.6206,1.0762-.6118,2.3242-.918,3.7461-.918,1.4209,0,2.6699,.3062,3.7461,.918,1.0752,.6123,1.9043,1.4858,2.4873,2.6206,.582,1.1353,.873,2.4629,.873,3.9829,0,1.5-.291,2.8179-.873,3.9531-.583,1.1353-1.4121,2.0088-2.4873,2.6206-1.0762,.6118-2.3252,.918-3.7461,.918-1.4219,0-2.6699-.3062-3.7461-.918Zm6.7812-2.7539c.7002-.8687,1.0508-2.1421,1.0508-3.8198,0-1.6587-.3555-2.9268-1.0654-3.8052-.7109-.8784-1.7178-1.3179-3.0205-1.3179s-2.3096,.4395-3.0205,1.3179-1.0664,2.1465-1.0664,3.8052c0,1.6777,.3506,2.9512,1.0518,3.8198,.7002,.8687,1.7119,1.3027,3.0352,1.3027,1.3223,0,2.334-.4341,3.0352-1.3027Z" fill="#798d99"></path><path d="M497.6436,96.2498c.2666,.2563,.3994,.6118,.3994,1.0659v12.0518c0,.4146-.1377,.7505-.4141,1.0068s-.6416,.3848-1.0957,.3848c-.415,0-.751-.1235-1.0068-.3701-.2568-.2466-.3848-.5771-.3848-.9917v-1.1255c-.4541,.8291-1.0811,1.4614-1.8809,1.895-.7988,.4346-1.6924,.6519-2.6797,.6519-3.5137,0-5.2705-1.9346-5.2705-5.8042v-7.6987c0-.4541,.1328-.8096,.3994-1.0659s.6367-.3853,1.1104-.3853c.4541,0,.8145,.1289,1.0811,.3853s.3994,.6118,.3994,1.0659v7.6694c0,1.165,.2373,2.0234,.7109,2.5762s1.2041,.8291,2.1914,.8291c1.165,0,2.0977-.375,2.7979-1.1255,.7012-.75,1.0518-1.7471,1.0518-2.9907v-6.9585c0-.4341,.1377-.7847,.4141-1.0513s.6416-.3999,1.0957-.3999,.8145,.1289,1.0811,.3853Z" fill="#798d99"></path><path d="M511.2197,97.0789c0,.4341-.1084,.7598-.3252,.9771-.2178,.2173-.5928,.3457-1.125,.3848l-.8887,.0889c-1.2441,.1187-2.167,.5532-2.7686,1.3032-.6025,.75-.9033,1.6582-.9033,2.7241v6.7808c0,.4741-.1387,.8291-.4141,1.0659-.2773,.2373-.6328,.3555-1.0664,.3555-.4346,0-.7949-.1182-1.0811-.3555-.2861-.2368-.4287-.5918-.4287-1.0659v-12.0518c0-.4536,.1426-.8042,.4287-1.0513,.2861-.2466,.6465-.3701,1.0811-.3701,.3945,0,.7256,.1235,.9922,.3701,.2666,.2471,.3994,.5879,.3994,1.0215v1.4214c.3945-.8682,.9668-1.5293,1.7178-1.9839,.75-.4536,1.5986-.7202,2.5459-.7993l.415-.0298c.9473-.0591,1.4209,.3457,1.4209,1.2144Z" fill="#798d99"></path><path d="M533.916,96.2645c.2666,.2666,.4004,.6172,.4004,1.0513v12.1406c0,2.2104-.5879,3.8789-1.7617,5.0044-1.1748,1.125-2.9072,1.6875-5.1973,1.6875-2.1318,0-3.9082-.4048-5.3301-1.2139-.7305-.4146-1.0957-.9082-1.0957-1.4805,0-.3359,.0938-.6123,.2812-.8291,.1875-.2178,.4189-.3257,.6963-.3257,.2559,0,.6611,.1479,1.2139,.4438,.7109,.3354,1.3721,.5972,1.9844,.7847,.6113,.1875,1.3418,.2817,2.1904,.2817,2.7246,0,4.0869-1.3726,4.0869-4.1162v-2.2803c-.415,.8691-1.0469,1.5449-1.8955,2.0288s-1.8359,.7251-2.9609,.7251c-1.2637,0-2.3887-.2959-3.376-.8882s-1.752-1.4312-2.2949-2.5171c-.543-1.0854-.8135-2.3394-.8135-3.7607s.2754-2.6743,.8291-3.7603c.5518-1.0854,1.3174-1.9297,2.2949-2.5317,.9766-.6021,2.0967-.9033,3.3604-.9033,1.1055,0,2.0771,.2368,2.917,.7104,.8389,.4741,1.4756,1.1455,1.9102,2.0137v-1.2437c0-.4341,.1328-.7798,.3994-1.0361s.626-.3853,1.0811-.3853c.4531,0,.8145,.1333,1.0801,.3999Zm-3.6562,10.2603c.7295-.8486,1.0957-2.0234,1.0957-3.5239,0-1.4805-.3613-2.6499-1.0811-3.5088-.7207-.8589-1.7324-1.2881-3.0352-1.2881s-2.3242,.4248-3.0654,1.2734c-.7402,.8491-1.1104,2.0234-1.1104,3.5234s.375,2.6753,1.126,3.5239c.75,.8491,1.7666,1.2734,3.0498,1.2734s2.29-.4243,3.0205-1.2734Z" fill="#798d99"></path><path d="M541.0234,109.9007c-1.0762-.6118-1.9053-1.4854-2.4873-2.6206s-.873-2.4531-.873-3.9531c0-1.52,.291-2.8477,.873-3.9829,.582-1.1348,1.4111-2.0083,2.4873-2.6206,1.0762-.6118,2.3242-.918,3.7461-.918,1.4209,0,2.6699,.3062,3.7461,.918,1.0752,.6123,1.9043,1.4858,2.4873,2.6206,.582,1.1353,.873,2.4629,.873,3.9829,0,1.5-.291,2.8179-.873,3.9531-.583,1.1353-1.4121,2.0088-2.4873,2.6206-1.0762,.6118-2.3252,.918-3.7461,.918-1.4219,0-2.6699-.3062-3.7461-.918Zm6.7812-2.7539c.7002-.8687,1.0508-2.1421,1.0508-3.8198,0-1.6587-.3555-2.9268-1.0654-3.8052-.7109-.8784-1.7178-1.3179-3.0205-1.3179s-2.3096,.4395-3.0205,1.3179-1.0664,2.1465-1.0664,3.8052c0,1.6777,.3506,2.9512,1.0518,3.8198,.7002,.8687,1.7119,1.3027,3.0352,1.3027,1.3223,0,2.334-.4341,3.0352-1.3027Z" fill="#798d99"></path><path d="M565.541,97.2562c.9375,.9678,1.4062,2.4385,1.4062,4.4121v7.6694c0,.4546-.1279,.8047-.3848,1.0513s-.6123,.3701-1.0654,.3701c-.4346,0-.7803-.1284-1.0371-.3848s-.3848-.6021-.3848-1.0366v-1.0957c-.375,.8296-.9326,1.4658-1.6729,1.9102s-1.6045,.6665-2.5908,.6665c-.9482,0-1.8164-.1929-2.6064-.5776-.7891-.3848-1.4062-.9224-1.8506-1.6138-.4443-.6909-.666-1.4609-.666-2.3096,0-1.0464,.2715-1.8701,.8145-2.4727,.543-.6021,1.4404-1.0312,2.6943-1.2881,1.2539-.2563,2.9766-.3853,5.167-.3853h.6816v-.8584c0-1.1055-.2275-1.9048-.6816-2.3984s-1.1836-.7407-2.1904-.7407c-.6914,0-1.3428,.0889-1.9551,.2666-.6113,.1777-1.2832,.4346-2.0137,.77-.5322,.2959-.9082,.4443-1.125,.4443-.2959,0-.5381-.1084-.7256-.3257s-.2812-.4937-.2812-.8291c0-.2964,.084-.5576,.252-.7852,.168-.2266,.4395-.4487,.8145-.666,.6904-.375,1.5-.6758,2.4277-.9033,.9277-.2266,1.8262-.3403,2.6953-.3403,1.9141,0,3.3408,.4839,4.2783,1.4507Zm-2.5312,10.231c.6904-.7402,1.0361-1.6924,1.0361-2.8574v-.77h-.5332c-1.54,0-2.7246,.0693-3.5537,.2075s-1.4209,.3701-1.7764,.6958-.5332,.7949-.5332,1.4062c0,.7109,.2568,1.2935,.7705,1.7471,.5127,.4546,1.1543,.6812,1.9248,.6812,1.085,0,1.9736-.3701,2.665-1.1104Z" fill="#798d99"></path><path d="M571.4629,110.4036c-.2861-.2368-.4287-.5918-.4287-1.0659v-18.2998c0-.4736,.1426-.8335,.4287-1.0806,.2861-.2466,.6465-.3701,1.0811-.3701,.4336,0,.7891,.1235,1.0664,.3701,.2754,.2471,.4141,.6069,.4141,1.0806v18.2998c0,.4741-.1387,.8291-.4141,1.0659-.2773,.2373-.6328,.3555-1.0664,.3555-.4346,0-.7949-.1182-1.0811-.3555Z" fill="#798d99"></path><path d="M578.2891,109.5745c-.3555-.2168-.6074-.4438-.7559-.6807-.1475-.2373-.2217-.5034-.2217-.7998,0-.3154,.0889-.582,.2666-.7993s.4043-.3257,.6807-.3257c.2568,0,.6611,.1582,1.2139,.4736,.5928,.3159,1.1699,.5728,1.7324,.77s1.2686,.2959,2.1172,.2959c.9482,0,1.6885-.1675,2.2207-.5034,.5332-.3354,.7998-.8091,.7998-1.4214,0-.3945-.1035-.7104-.3105-.9473-.208-.2368-.5684-.4487-1.0811-.6367-.5137-.1875-1.2734-.3896-2.2803-.6069-1.7373-.375-2.9863-.8833-3.7461-1.5249s-1.1396-1.5151-1.1396-2.6206c0-.8486,.2471-1.6143,.7402-2.2949,.4932-.6812,1.1748-1.209,2.043-1.5845,.8691-.3745,1.8555-.5625,2.9619-.5625,.7891,0,1.5586,.1035,2.3096,.311,.75,.207,1.4111,.5083,1.9834,.9028,.6514,.4346,.9775,.938,.9775,1.5103,0,.3159-.0938,.5825-.2812,.7998-.1885,.2173-.4102,.3257-.666,.3257-.1777,0-.3555-.0396-.5332-.1187-.1777-.0786-.415-.207-.7109-.3848-.5332-.3159-1.0322-.563-1.4951-.7402-.4639-.1777-1.042-.2666-1.7324-.2666-.8291,0-1.4951,.1777-1.999,.5327-.5029,.3555-.7549,.8394-.7549,1.4512,0,.5527,.2314,.9824,.6963,1.2881,.4629,.3062,1.3369,.5972,2.6201,.8735,1.3223,.2769,2.3584,.5923,3.1094,.9478,.75,.355,1.2881,.7949,1.6133,1.3174,.3262,.5234,.4893,1.1895,.4893,1.999,0,1.2832-.5381,2.3145-1.6143,3.0942-1.0762,.7803-2.5117,1.1699-4.3086,1.1699-2.0137,0-3.6621-.415-4.9443-1.2441Z" fill="#798d99"></path></g><line x1="73.6283" y1="107.643" x2="78.6507" y2="24.4861" fill="none" stroke="#997f6d" stroke-linecap="round" stroke-miterlimit="10" stroke-width="2"></line><polygon points="112.0538 52.2113 80.1044 46.436 81.2269 26.4157 113.1763 32.1911 112.0538 52.2113" fill="#51e898"></polygon><g id="trophy"><path id="Trazado_538" data-name="Trazado 538" d="M98.1599,41.5792c1.2879,.1784,2.534-.1604,3.4783-.9456,1.1744-1.1962,1.8076-2.8682,1.7707-4.6753l.0272-.4852-2.9283-.5293,.056-.9984c.0309-.5514-.3819-1.0776-.9221-1.1752l-5.8682-1.0608c-.5402-.0976-1.0031,.2702-1.034,.8216,0,0-.0493,.4217-.0824,.9937l-2.9077-.5256-.0272,.4842c-.2367,1.7576,.1983,3.6227,1.2162,5.2152,.8394,1.1094,2.0252,1.8883,3.3093,2.1736,.2457,.3789,.5652,.7049,.9345,.9536l-.1244,2.2185-1.9561-.3536c-.5402-.0976-1.0031,.2702-1.034,.8216l-.056,.9984,7.8243,1.4144,.056-.9984c.0309-.5514-.3819-1.0776-.9221-1.1752l-1.9561-.3536,.1244-2.2185c.3895-.1115,.7388-.3166,1.0216-.6Zm2.292-5.637l1.9561,.3536c-.054,1.3672-.5699,2.6163-1.4598,3.5343-.5506,.4605-1.2458,.7165-1.9913,.7333,.7468-1.4169,1.2517-2.9774,1.495-4.6212Zm-8.7511,2.2163c-.7705-1.218-1.1377-2.6268-1.0391-3.986l1.9659,.3554c.0547,1.6978,.3748,3.4078,.9481,5.0639-.7309-.2829-1.3859-.7834-1.8758-1.4334l.001,.0002Z" fill="#fff"></path></g></svg> 