<?xml version="1.0" encoding="UTF-8"?> <svg xmlns="http://www.w3.org/2000/svg" id="Capa_1" data-name="Capa 1" width="719" height="80" viewBox="0 0 719 80"><rect x="4.711" y="29.8769" width="709.578" height="41.2774" rx="20.6387" ry="20.6387" fill="#f9f2e8"></rect><g><rect x="25.398" y="20.3624" width="35.8874" height="32.6692" rx="7.9583" ry="7.9583" fill="#c5d67e"></rect><circle cx="43.1064" cy="20.3624" r="7.7435" fill="#c5d67e"></circle><path d="M30.6022,16.58l-1.879,5.3014c-.2556,.7213,.2793,1.4784,1.0445,1.4784h3.7579c.7652,0,1.3002-.7571,1.0445-1.4784l-1.879-5.3014c-.3487-.984-1.7403-.984-2.089,0Z" fill="#c5d67e"></path><path d="M53.5216,17.3415l-1.879,5.3014c-.2556,.7213,.2793,1.4784,1.0445,1.4784h3.7579c.7652,0,1.3002-.7571,1.0445-1.4784l-1.879-5.3014c-.3487-.984-1.7403-.984-2.089,0Z" fill="#c5d67e"></path><path d="M38.7259,62.3672h-6.4256c-1.2111,0-2.1329-.8068-2.0599-1.7911l.7777-10.4805c.0631-.8501,1.0121-1.5321,2.1203-1.5321h5.8799c1.1082,0,2.0013,.6821,1.9948,1.5321l-.0806,10.4805c-.0076,.9843-.9955,1.7911-2.2066,1.7911Z" fill="#c5d67e"></path><path d="M53.715,62.3672h-6.5668c-1.2377,0-2.2338-.6777-2.2251-1.51l.0977-9.2572c.0083-.7841,.9827-1.417,2.1765-1.417h6.3338c1.1938,0,2.1752,.6329,2.1921,1.417l.2001,9.2572c.018,.8323-.9707,1.51-2.2084,1.51Z" fill="#c5d67e"></path></g><g id="Magnifying"><g id="Magnifying-2" data-name="Magnifying"><g id="Group_514" data-name="Group 514"><g id="Group_512" data-name="Group 512"><path id="Path_287" data-name="Path 287" d="M42.9851,30.9404c-6.1012,0-11.0473-4.9461-11.0473-11.0474s4.9461-11.0473,11.0474-11.0473c6.1012,0,11.0473,4.9461,11.0473,11.0473-.0085,6.0977-4.9496,11.0388-11.0474,11.0473Zm0-19.754c-4.8066,.001-8.7025,3.8984-8.7014,8.705,.0009,4.8066,3.8984,8.7024,8.705,8.7014,4.8059-.0009,8.7014-3.8973,8.7014-8.7032-.0047-4.8054-3.8996-8.6994-8.705-8.7032Z" fill="#828c9d"></path></g><g id="Group_513" data-name="Group 513"><path id="Path_288" data-name="Path 288" d="M61.2115,38.8064c-.3112,.0004-.6097-.124-.8285-.3452l-11.0059-11.0059c-.4669-.4496-.4811-1.1927-.0314-1.6597,.4496-.467,1.1926-.4811,1.6597-.0314,.0103,.01,.0205,.0202,.0306,.0306l11.0059,11.0059c.4585,.4582,.4588,1.2014,.0006,1.66-.2203,.2205-.5193,.3442-.8309,.3441v.0017Z" fill="#828c9d"></path></g></g></g></g><circle cx="40.6045" cy="20.8457" r="1.6667" fill="#828c9d"></circle><g><path d="M96.6616,60.1177c0,.3755-.1533,.6914-.459,.9478-.3066,.2563-.647,.3848-1.0215,.3848-.2568,0-.499-.0737-.7256-.2222-.2275-.1479-.3999-.3599-.5186-.6362l-1.9541-4.4419h-10.8379l-1.9541,4.4419c-.1187,.2764-.2964,.4883-.5332,.6362-.2368,.1484-.4839,.2222-.7402,.2222-.395,0-.7456-.1284-1.0513-.3848-.3062-.2563-.459-.5723-.459-.9478,0-.1577,.0493-.355,.1479-.5923l8.3506-18.27c.1377-.3154,.3599-.5625,.666-.7402s.6265-.2666,.9624-.2666c.3354,0,.6562,.0889,.9624,.2666s.5283,.4248,.6665,.7402l8.3501,18.27c.0986,.2373,.1484,.4346,.1484,.5923Zm-5.7446-6.396l-4.353-9.8013-4.3232,9.8013h8.6763Z" fill="#798d99"></path><path d="M99.9033,61.0947c-.2861-.2368-.4292-.5918-.4292-1.0659v-18.2998c0-.4736,.1431-.8335,.4292-1.0806,.2861-.2466,.6465-.3701,1.0811-.3701,.4341,0,.7891,.1235,1.0659,.3701,.2764,.2471,.4146,.6069,.4146,1.0806v18.2998c0,.4741-.1382,.8291-.4146,1.0659-.2769,.2373-.6318,.3555-1.0659,.3555-.4346,0-.7949-.1182-1.0811-.3555Z" fill="#798d99"></path><path d="M107.0693,61.0947c-.2861-.2368-.4292-.5918-.4292-1.0659v-18.2998c0-.4736,.1431-.8335,.4292-1.0806,.2861-.2466,.6465-.3701,1.0811-.3701,.4341,0,.7891,.1235,1.0659,.3701,.2764,.2471,.4146,.6069,.4146,1.0806v18.2998c0,.4741-.1382,.8291-.4146,1.0659-.2769,.2373-.6318,.3555-1.0659,.3555-.4346,0-.7949-.1182-1.0811-.3555Z" fill="#798d99"></path><path d="M132.416,46.7925c.2266-.1377,.4688-.207,.7256-.207,.3745,0,.7056,.1284,.9917,.3848,.2861,.2568,.4297,.5625,.4297,.918,0,.1978-.04,.3853-.1187,.5625l-8.2319,17.4707c-.1187,.2764-.2915,.4888-.5181,.6367-.2275,.1484-.4692,.2222-.7256,.2222-.3555,0-.6763-.1182-.9624-.3555-.2866-.2368-.4292-.5327-.4292-.8882,0-.1582,.0488-.3555,.1479-.5923l2.043-4.3525-5.7148-12.1411c-.0791-.1577-.1187-.3354-.1187-.5327,0-.375,.1577-.6909,.4741-.9478,.3154-.2563,.6709-.3848,1.0659-.3848,.5923,0,1.0166,.2764,1.2734,.8291l4.5894,10.186,4.5605-10.1562c.1182-.2964,.291-.5132,.5181-.6519Z" fill="#798d99"></path><path d="M139.3452,60.5918c-1.0762-.6118-1.9053-1.4854-2.4873-2.6206-.5825-1.1353-.8735-2.4531-.8735-3.9531,0-1.52,.291-2.8477,.8735-3.9829,.582-1.1348,1.4111-2.0083,2.4873-2.6206,1.0757-.6118,2.3247-.918,3.7461-.918s2.6694,.3062,3.7456,.918c1.0757,.6123,1.9048,1.4858,2.4873,2.6206,.582,1.1353,.8735,2.4629,.8735,3.9829,0,1.5-.2915,2.8179-.8735,3.9531-.5825,1.1353-1.4116,2.0088-2.4873,2.6206-1.0762,.6118-2.3242,.918-3.7456,.918s-2.6704-.3062-3.7461-.918Zm6.7812-2.7539c.7002-.8687,1.0513-2.1421,1.0513-3.8198,0-1.6587-.3555-2.9268-1.0664-3.8052-.7104-.8784-1.7173-1.3179-3.02-1.3179s-2.3101,.4395-3.0205,1.3179c-.7109,.8784-1.0659,2.1465-1.0659,3.8052,0,1.6777,.3501,2.9512,1.0513,3.8198,.7002,.8687,1.7124,1.3027,3.0352,1.3027s2.334-.4341,3.0352-1.3027Z" fill="#798d99"></path><path d="M165.7881,46.9409c.2666,.2563,.3999,.6118,.3999,1.0659v12.0518c0,.4146-.1387,.7505-.4146,1.0068-.2769,.2563-.6416,.3848-1.0957,.3848-.4146,0-.7505-.1235-1.0068-.3701-.2568-.2466-.3848-.5771-.3848-.9917v-1.1255c-.4546,.8291-1.0811,1.4614-1.8804,1.895-.7998,.4346-1.6929,.6519-2.6802,.6519-3.5137,0-5.2705-1.9346-5.2705-5.8042v-7.6987c0-.4541,.1333-.8096,.3994-1.0659,.2666-.2563,.6367-.3853,1.1108-.3853,.4536,0,.814,.1289,1.0806,.3853s.3999,.6118,.3999,1.0659v7.6694c0,1.165,.2368,2.0234,.7104,2.5762,.4741,.5527,1.2041,.8291,2.1914,.8291,1.1646,0,2.0972-.375,2.7983-1.1255,.7002-.75,1.0513-1.7471,1.0513-2.9907v-6.9585c0-.4341,.1377-.7847,.4146-1.0513,.2759-.2666,.6411-.3999,1.0957-.3999,.4536,0,.814,.1289,1.0806,.3853Z" fill="#798d99"></path><path d="M179.3643,47.77c0,.4341-.1089,.7598-.3257,.9771-.2178,.2173-.5923,.3457-1.1255,.3848l-.8882,.0889c-1.2437,.1187-2.1665,.5532-2.7686,1.3032-.6025,.75-.9033,1.6582-.9033,2.7241v6.7808c0,.4741-.1382,.8291-.4146,1.0659-.2769,.2373-.6318,.3555-1.0659,.3555-.4346,0-.7949-.1182-1.0811-.3555-.2861-.2368-.4292-.5918-.4292-1.0659v-12.0518c0-.4536,.1431-.8042,.4292-1.0513,.2861-.2466,.6465-.3701,1.0811-.3701,.3945,0,.7256,.1235,.9922,.3701,.2661,.2471,.3994,.5879,.3994,1.0215v1.4214c.3945-.8682,.9673-1.5293,1.7178-1.9839,.75-.4536,1.5986-.7202,2.5464-.7993l.4146-.0298c.9478-.0591,1.4214,.3457,1.4214,1.2144Z" fill="#798d99"></path><path d="M191.52,60.5918c-1.0566-.6118-1.876-1.481-2.458-2.606-.5825-1.1255-.8735-2.4282-.8735-3.9087,0-1.5,.3008-2.8228,.9033-3.9678,.6016-1.145,1.4458-2.0332,2.5317-2.665,1.0854-.6318,2.3291-.9478,3.731-.9478,.75,0,1.5049,.1089,2.2651,.3257,.7598,.2173,1.436,.5137,2.0283,.8882,.6318,.4346,.9478,.938,.9478,1.5103,0,.3359-.0889,.6172-.2666,.8442s-.4048,.3403-.6812,.3403c-.1777,0-.355-.0444-.5327-.1333s-.4048-.2222-.6812-.3999c-.4937-.3154-.9526-.5571-1.377-.7251-.4248-.1675-.9326-.252-1.5249-.252-1.3428,0-2.3838,.4546-3.124,1.3623-.7402,.9082-1.1104,2.1719-1.1104,3.79,0,1.6191,.3647,2.8677,1.0957,3.7461,.73,.8784,1.7661,1.3174,3.1089,1.3174,.5923,0,1.1152-.0889,1.5693-.2661,.4541-.1777,.918-.4146,1.3921-.7109,.2168-.1377,.4336-.2563,.6514-.3555,.2168-.0981,.4146-.1479,.5923-.1479,.2759,0,.5034,.1138,.6807,.3408,.1777,.2271,.2666,.5083,.2666,.8438,0,.2769-.0737,.5283-.2222,.7549-.1479,.2275-.3994,.459-.7549,.6958-.5923,.3955-1.2837,.7012-2.0728,.918-.79,.2173-1.5894,.3262-2.3984,.3262-1.4019,0-2.6309-.3062-3.6865-.918Z" fill="#798d99"></path><path d="M205.8511,60.5918c-1.0762-.6118-1.9053-1.4854-2.4873-2.6206-.5825-1.1353-.8735-2.4531-.8735-3.9531,0-1.52,.291-2.8477,.8735-3.9829,.582-1.1348,1.4111-2.0083,2.4873-2.6206,1.0757-.6118,2.3247-.918,3.7461-.918s2.6694,.3062,3.7456,.918c1.0757,.6123,1.9048,1.4858,2.4873,2.6206,.582,1.1353,.8735,2.4629,.8735,3.9829,0,1.5-.2915,2.8179-.8735,3.9531-.5825,1.1353-1.4116,2.0088-2.4873,2.6206-1.0762,.6118-2.3242,.918-3.7456,.918s-2.6704-.3062-3.7461-.918Zm6.7812-2.7539c.7002-.8687,1.0513-2.1421,1.0513-3.8198,0-1.6587-.3555-2.9268-1.0664-3.8052-.7104-.8784-1.7173-1.3179-3.02-1.3179s-2.3101,.4395-3.0205,1.3179c-.7109,.8784-1.0659,2.1465-1.0659,3.8052,0,1.6777,.3501,2.9512,1.0513,3.8198,.7002,.8687,1.7124,1.3027,3.0352,1.3027s2.334-.4341,3.0352-1.3027Z" fill="#798d99"></path><path d="M232.9897,52.3301v7.6987c0,.4546-.1333,.8047-.3994,1.0513-.2666,.2466-.6367,.3701-1.1108,.3701-.4541,0-.814-.1284-1.0806-.3848s-.3999-.6021-.3999-1.0366v-7.5508c0-1.2236-.2417-2.1216-.7256-2.6948-.4839-.5723-1.2388-.8584-2.2651-.8584-1.2041,0-2.1719,.375-2.9019,1.125-.7305,.7505-1.0957,1.7573-1.0957,3.0205v6.9585c0,.4346-.1333,.7803-.3999,1.0366-.2661,.2563-.6265,.3848-1.0806,.3848-.4546,0-.8193-.1284-1.0957-.3848-.2769-.2563-.4146-.6021-.4146-1.0366v-12.0518c0-.4146,.1431-.7549,.4292-1.0215s.6465-.3999,1.0811-.3999c.4341,0,.7798,.1289,1.0361,.3853s.3853,.5918,.3853,1.0063v1.2144c.4736-.8687,1.1348-1.5298,1.9839-1.9839,.8486-.4541,1.8062-.6812,2.8726-.6812,3.4541,0,5.1816,1.9448,5.1816,5.8335Z" fill="#798d99"></path><path d="M245.0854,59.5107c.1875,.188,.2812,.4492,.2812,.7847,0,.395-.1528,.6958-.459,.9033-.3062,.207-.7549,.291-1.3472,.2515l-.7993-.0591c-1.5991-.1187-2.7939-.6069-3.583-1.4658-.79-.8589-1.1846-2.127-1.1846-3.8052v-6.9585h-1.7769c-.8687,0-1.3027-.3848-1.3027-1.1548,0-.3555,.1133-.6367,.3403-.8442,.2271-.207,.5479-.3105,.9624-.3105h1.7769v-3.0503c0-.4536,.1333-.8091,.3999-1.0659,.2666-.2563,.6265-.3848,1.0806-.3848s.8188,.1284,1.0957,.3848c.2764,.2568,.4146,.6123,.4146,1.0659v3.0503h2.9316c.4146,0,.7354,.1035,.9624,.3105,.2266,.2075,.3403,.4888,.3403,.8442,0,.375-.1138,.6616-.3403,.8584-.2271,.1978-.5479,.2964-.9624,.2964h-2.9316v7.166c0,.9282,.1924,1.6089,.5776,2.043,.3848,.4346,.9722,.6812,1.7617,.7402l.8291,.0596c.4341,.0396,.7451,.1528,.9326,.3403Z" fill="#798d99"></path><path d="M257.8774,47.9473c.9375,.9678,1.4067,2.4385,1.4067,4.4121v7.6694c0,.4546-.1289,.8047-.3853,1.0513s-.6118,.3701-1.0659,.3701c-.4346,0-.7798-.1284-1.0361-.3848-.2568-.2563-.3853-.6021-.3853-1.0366v-1.0957c-.375,.8296-.9326,1.4658-1.6729,1.9102s-1.604,.6665-2.5908,.6665c-.9478,0-1.8169-.1929-2.606-.5776-.79-.3848-1.4067-.9224-1.8506-1.6138-.4443-.6909-.6665-1.4609-.6665-2.3096,0-1.0464,.271-1.8701,.8145-2.4727,.5425-.6021,1.4409-1.0312,2.6943-1.2881,1.2534-.2563,2.9761-.3853,5.1675-.3853h.6812v-.8584c0-1.1055-.2275-1.9048-.6812-2.3984-.4546-.4937-1.1846-.7407-2.1914-.7407-.6909,0-1.3428,.0889-1.9541,.2666-.6123,.1777-1.2837,.4346-2.0137,.77-.5332,.2959-.9082,.4443-1.1255,.4443-.2959,0-.5381-.1084-.7251-.3257-.188-.2173-.2812-.4937-.2812-.8291,0-.2964,.0835-.5576,.2515-.7852,.1675-.2266,.439-.4487,.8145-.666,.6904-.375,1.5-.6758,2.4282-.9033,.9272-.2266,1.8257-.3403,2.6943-.3403,1.9146,0,3.3413,.4839,4.2788,1.4507Zm-2.5317,10.231c.6909-.7402,1.0366-1.6924,1.0366-2.8574v-.77h-.5332c-1.5396,0-2.7241,.0693-3.5532,.2075s-1.4214,.3701-1.7769,.6958-.5327,.7949-.5327,1.4062c0,.7109,.2563,1.2935,.7695,1.7471,.5132,.4546,1.1548,.6812,1.9248,.6812,1.0854,0,1.9736-.3701,2.665-1.1104Z" fill="#798d99"></path><path d="M265.8726,60.5918c-1.0566-.6118-1.876-1.481-2.458-2.606-.5825-1.1255-.8735-2.4282-.8735-3.9087,0-1.5,.3008-2.8228,.9033-3.9678,.6016-1.145,1.4458-2.0332,2.5317-2.665,1.0854-.6318,2.3291-.9478,3.731-.9478,.75,0,1.5049,.1089,2.2651,.3257,.7598,.2173,1.436,.5137,2.0283,.8882,.6318,.4346,.9478,.938,.9478,1.5103,0,.3359-.0889,.6172-.2666,.8442s-.4048,.3403-.6812,.3403c-.1777,0-.355-.0444-.5327-.1333s-.4048-.2222-.6812-.3999c-.4937-.3154-.9526-.5571-1.377-.7251-.4248-.1675-.9326-.252-1.5249-.252-1.3428,0-2.3838,.4546-3.124,1.3623-.7402,.9082-1.1104,2.1719-1.1104,3.79,0,1.6191,.3647,2.8677,1.0957,3.7461,.73,.8784,1.7661,1.3174,3.1089,1.3174,.5923,0,1.1152-.0889,1.5693-.2661,.4541-.1777,.918-.4146,1.3921-.7109,.2168-.1377,.4336-.2563,.6514-.3555,.2168-.0981,.4146-.1479,.5923-.1479,.2759,0,.5034,.1138,.6807,.3408,.1777,.2271,.2666,.5083,.2666,.8438,0,.2769-.0737,.5283-.2222,.7549-.1479,.2275-.3994,.459-.7549,.6958-.5923,.3955-1.2837,.7012-2.0728,.918-.79,.2173-1.5894,.3262-2.3984,.3262-1.4019,0-2.6309-.3062-3.6865-.918Z" fill="#798d99"></path><path d="M285.7412,59.5107c.1875,.188,.2812,.4492,.2812,.7847,0,.395-.1528,.6958-.459,.9033-.3062,.207-.7549,.291-1.3472,.2515l-.7993-.0591c-1.5991-.1187-2.7939-.6069-3.583-1.4658-.79-.8589-1.1846-2.127-1.1846-3.8052v-6.9585h-1.7769c-.8687,0-1.3027-.3848-1.3027-1.1548,0-.3555,.1133-.6367,.3403-.8442,.2271-.207,.5479-.3105,.9624-.3105h1.7769v-3.0503c0-.4536,.1333-.8091,.3999-1.0659,.2666-.2563,.6265-.3848,1.0806-.3848s.8188,.1284,1.0957,.3848c.2764,.2568,.4146,.6123,.4146,1.0659v3.0503h2.9316c.4146,0,.7354,.1035,.9624,.3105,.2266,.2075,.3403,.4888,.3403,.8442,0,.375-.1138,.6616-.3403,.8584-.2271,.1978-.5479,.2964-.9624,.2964h-2.9316v7.166c0,.9282,.1924,1.6089,.5776,2.043,.3848,.4346,.9722,.6812,1.7617,.7402l.8291,.0596c.4341,.0396,.7451,.1528,.9326,.3403Z" fill="#798d99"></path><path d="M288.2729,60.2656c-.3555-.2168-.6069-.4438-.7549-.6807-.1484-.2373-.2222-.5034-.2222-.7998,0-.3154,.0889-.582,.2666-.7993,.1772-.2173,.4043-.3257,.6807-.3257,.2563,0,.6611,.1582,1.2144,.4736,.5923,.3159,1.1694,.5728,1.7319,.77,.563,.1973,1.2686,.2959,2.1177,.2959,.9473,0,1.6875-.1675,2.2207-.5034,.5327-.3354,.7993-.8091,.7993-1.4214,0-.3945-.1035-.7104-.311-.9473-.207-.2368-.5674-.4487-1.0806-.6367-.5137-.1875-1.2734-.3896-2.2803-.6069-1.7373-.375-2.9858-.8833-3.7456-1.5249-.7603-.6416-1.1401-1.5151-1.1401-2.6206,0-.8486,.2466-1.6143,.7402-2.2949,.4932-.6812,1.1743-1.209,2.0435-1.5845,.8682-.3745,1.855-.5625,2.9609-.5625,.7896,0,1.5591,.1035,2.3096,.311,.75,.207,1.4111,.5083,1.9839,.9028,.6519,.4346,.9775,.938,.9775,1.5103,0,.3159-.0942,.5825-.2812,.7998-.188,.2173-.4102,.3257-.6665,.3257-.1777,0-.3555-.0396-.5332-.1187-.1772-.0786-.4146-.207-.7104-.3848-.5332-.3159-1.0317-.563-1.4951-.7402-.4644-.1777-1.0415-.2666-1.7324-.2666-.8291,0-1.4956,.1777-1.999,.5327-.5034,.3555-.7549,.8394-.7549,1.4512,0,.5527,.2319,.9824,.6958,1.2881,.4639,.3062,1.3374,.5972,2.6206,.8735,1.3223,.2769,2.3589,.5923,3.1094,.9478,.75,.355,1.2881,.7949,1.6138,1.3174,.3257,.5234,.4883,1.1895,.4883,1.999,0,1.2832-.5381,2.3145-1.6138,3.0942-1.0762,.7803-2.5122,1.1699-4.3081,1.1699-2.0137,0-3.6621-.415-4.9453-1.2441Z" fill="#798d99"></path><path d="M310.4219,43.1802c-.3359-.3154-.5034-.73-.5034-1.2437,0-.5132,.1675-.9229,.5034-1.229,.3354-.3057,.7896-.459,1.3623-.459,.5522,0,1.0015,.1533,1.3472,.459,.3452,.3062,.5186,.7158,.5186,1.229,0,.5137-.168,.9282-.5034,1.2437-.3359,.3159-.79,.4736-1.3623,.4736-.5728,0-1.0269-.1577-1.3623-.4736Zm.2812,17.9146c-.2861-.2368-.4292-.5918-.4292-1.0659v-12.022c0-.4741,.1431-.834,.4292-1.0811,.2861-.2466,.6465-.3701,1.0811-.3701,.4341,0,.7891,.1235,1.0659,.3701,.2764,.2471,.4146,.6069,.4146,1.0811v12.022c0,.4741-.1382,.8291-.4146,1.0659-.2769,.2373-.6318,.3555-1.0659,.3555-.4346,0-.7949-.1182-1.0811-.3555Z" fill="#798d99"></path><path d="M330.4092,52.3301v7.6987c0,.4546-.1333,.8047-.3994,1.0513-.2666,.2466-.6367,.3701-1.1108,.3701-.4541,0-.814-.1284-1.0806-.3848s-.3999-.6021-.3999-1.0366v-7.5508c0-1.2236-.2417-2.1216-.7256-2.6948-.4839-.5723-1.2388-.8584-2.2651-.8584-1.2041,0-2.1719,.375-2.9019,1.125-.7305,.7505-1.0957,1.7573-1.0957,3.0205v6.9585c0,.4346-.1333,.7803-.3999,1.0366-.2661,.2563-.6265,.3848-1.0806,.3848-.4546,0-.8193-.1284-1.0957-.3848-.2769-.2563-.4146-.6021-.4146-1.0366v-12.0518c0-.4146,.1431-.7549,.4292-1.0215s.6465-.3999,1.0811-.3999c.4341,0,.7798,.1289,1.0361,.3853s.3853,.5918,.3853,1.0063v1.2144c.4736-.8687,1.1348-1.5298,1.9839-1.9839,.8486-.4541,1.8062-.6812,2.8726-.6812,3.4541,0,5.1816,1.9448,5.1816,5.8335Z" fill="#798d99"></path><path d="M344.8442,60.5918c-1.0762-.6118-1.9053-1.4854-2.4873-2.6206-.5825-1.1353-.8735-2.4531-.8735-3.9531,0-1.52,.291-2.8477,.8735-3.9829,.582-1.1348,1.4111-2.0083,2.4873-2.6206,1.0757-.6118,2.3247-.918,3.7461-.918s2.6694,.3062,3.7456,.918c1.0757,.6123,1.9048,1.4858,2.4873,2.6206,.582,1.1353,.8735,2.4629,.8735,3.9829,0,1.5-.2915,2.8179-.8735,3.9531-.5825,1.1353-1.4116,2.0088-2.4873,2.6206-1.0762,.6118-2.3242,.918-3.7456,.918s-2.6704-.3062-3.7461-.918Zm6.7812-2.7539c.7002-.8687,1.0513-2.1421,1.0513-3.8198,0-1.6587-.3555-2.9268-1.0664-3.8052-.7104-.8784-1.7173-1.3179-3.02-1.3179s-2.3101,.4395-3.0205,1.3179c-.7109,.8784-1.0659,2.1465-1.0659,3.8052,0,1.6777,.3501,2.9512,1.0513,3.8198,.7002,.8687,1.7124,1.3027,3.0352,1.3027s2.334-.4341,3.0352-1.3027Z" fill="#798d99"></path><path d="M371.9834,52.3301v7.6987c0,.4546-.1338,.8047-.3994,1.0513-.2666,.2466-.6367,.3701-1.1113,.3701-.4541,0-.8135-.1284-1.0801-.3848s-.4004-.6021-.4004-1.0366v-7.5508c0-1.2236-.2412-2.1216-.7256-2.6948-.4834-.5723-1.2383-.8584-2.2646-.8584-1.2041,0-2.1719,.375-2.9023,1.125-.7305,.7505-1.0957,1.7573-1.0957,3.0205v6.9585c0,.4346-.1333,.7803-.3999,1.0366-.2661,.2563-.6265,.3848-1.0806,.3848-.4546,0-.8193-.1284-1.0957-.3848-.2769-.2563-.4146-.6021-.4146-1.0366v-12.0518c0-.4146,.1431-.7549,.4292-1.0215s.6465-.3999,1.0811-.3999c.4341,0,.7798,.1289,1.0361,.3853s.3853,.5918,.3853,1.0063v1.2144c.4736-.8687,1.1348-1.5298,1.9839-1.9839,.8486-.4541,1.8066-.6812,2.873-.6812,3.4541,0,5.1816,1.9448,5.1816,5.8335Z" fill="#798d99"></path><path d="M388.0615,57.9858c.1777,.2173,.2666,.4937,.2666,.8291,0,.5728-.3555,1.0562-1.0654,1.4507-.6914,.3955-1.4473,.7012-2.2656,.918-.8193,.2173-1.6045,.3262-2.3545,.3262-2.29,0-4.0967-.6665-5.4189-1.999s-1.9834-3.1538-1.9834-5.4634c0-1.4805,.291-2.793,.873-3.938s1.4014-2.0332,2.458-2.665c1.0557-.6318,2.2549-.9478,3.5977-.9478,1.9346,0,3.4648,.6216,4.5898,1.8652,1.125,1.2441,1.6875,2.9219,1.6875,5.0342,0,.79-.3545,1.1846-1.0654,1.1846h-9.1504c.1973,3.0601,1.668,4.5898,4.4121,4.5898,.7305,0,1.3623-.0986,1.8955-.2964,.5332-.1968,1.0957-.4536,1.6875-.77,.0596-.0391,.2227-.123,.4893-.2515,.2656-.1284,.4883-.1924,.666-.1924,.2764,0,.5029,.1084,.6807,.3257Zm-8.5869-8.2026c-.6914,.731-1.1064,1.7573-1.2441,3.0796h7.6396c-.0586-1.3418-.3994-2.3735-1.0215-3.0942-.6211-.7202-1.4951-1.0806-2.6201-1.0806-1.1455,0-2.0635,.3652-2.7539,1.0952Z" fill="#798d99"></path><path d="M410.6396,47.4443c.9775,.6318,1.7373,1.52,2.2803,2.665s.8145,2.4678,.8145,3.9678c0,1.4805-.2666,2.7832-.7998,3.9087-.5322,1.125-1.2881,1.9941-2.2646,2.606-.9775,.6118-2.0977,.918-3.3613,.918-1.0859,0-2.043-.2319-2.8721-.6963-.8291-.4634-1.4609-1.1299-1.8955-1.9985v6.6035c0,.4146-.1328,.7446-.3994,.9917-.2666,.2466-.6172,.3701-1.0508,.3701-.4551,0-.8252-.1284-1.1113-.3848-.2861-.2568-.4287-.6025-.4287-1.0366v-17.3521c0-.4341,.1377-.7847,.4141-1.0513s.6416-.3999,1.0957-.3999c.4346,0,.7891,.1333,1.0664,.3999,.2764,.2666,.4141,.6172,.4141,1.0513v1.2139c.4346-.8682,1.0664-1.5396,1.8955-2.0137,.8291-.4736,1.7861-.7104,2.8721-.7104,1.2441,0,2.3545,.3159,3.3311,.9478Zm-1.0215,10.3784c.7109-.8779,1.0664-2.127,1.0664-3.7456,0-1.6387-.3604-2.9116-1.0811-3.8198-.7207-.9077-1.7227-1.3623-3.0059-1.3623-1.3027,0-2.3047,.4443-3.0049,1.3325-.7012,.8882-1.0518,2.1519-1.0518,3.7905s.3506,2.9019,1.0518,3.79c.7002,.8882,1.7021,1.3325,3.0049,1.3325,1.3037,0,2.3105-.439,3.0205-1.3179Z" fill="#798d99"></path><path d="M417.4795,61.0947c-.2861-.2368-.4287-.5918-.4287-1.0659v-18.2998c0-.4736,.1426-.8335,.4287-1.0806,.2861-.2466,.6465-.3701,1.0811-.3701s.7891,.1235,1.0664,.3701c.2764,.2471,.4141,.6069,.4141,1.0806v18.2998c0,.4741-.1377,.8291-.4141,1.0659-.2773,.2373-.6318,.3555-1.0664,.3555s-.7949-.1182-1.0811-.3555Z" fill="#798d99"></path><path d="M434.5654,47.9473c.9375,.9678,1.4062,2.4385,1.4062,4.4121v7.6694c0,.4546-.1279,.8047-.3848,1.0513s-.6123,.3701-1.0654,.3701c-.4346,0-.7803-.1284-1.0371-.3848s-.3848-.6021-.3848-1.0366v-1.0957c-.375,.8296-.9326,1.4658-1.6729,1.9102s-1.6045,.6665-2.5908,.6665c-.9482,0-1.8174-.1929-2.6064-.5776-.79-.3848-1.4062-.9224-1.8506-1.6138-.4443-.6909-.666-1.4609-.666-2.3096,0-1.0464,.2705-1.8701,.8145-2.4727,.542-.6021,1.4404-1.0312,2.6943-1.2881,1.2529-.2563,2.9756-.3853,5.167-.3853h.6816v-.8584c0-1.1055-.2275-1.9048-.6816-2.3984s-1.1846-.7407-2.1914-.7407c-.6904,0-1.3428,.0889-1.9541,.2666-.6123,.1777-1.2832,.4346-2.0137,.77-.5332,.2959-.9082,.4443-1.125,.4443-.2959,0-.5381-.1084-.7256-.3257s-.2812-.4937-.2812-.8291c0-.2964,.084-.5576,.252-.7852,.167-.2266,.4385-.4487,.8145-.666,.6904-.375,1.5-.6758,2.4277-.9033,.9277-.2266,1.8262-.3403,2.6943-.3403,1.915,0,3.3418,.4839,4.2793,1.4507Zm-2.5312,10.231c.6904-.7402,1.0361-1.6924,1.0361-2.8574v-.77h-.5332c-1.54,0-2.7246,.0693-3.5537,.2075s-1.4209,.3701-1.7764,.6958-.5332,.7949-.5332,1.4062c0,.7109,.2568,1.2935,.7695,1.7471,.5137,.4546,1.1553,.6812,1.9248,.6812,1.0859,0,1.9736-.3701,2.666-1.1104Z" fill="#798d99"></path><path d="M442.5605,60.5918c-1.0566-.6118-1.876-1.481-2.458-2.606-.582-1.1255-.873-2.4282-.873-3.9087,0-1.5,.2998-2.8228,.9023-3.9678s1.4463-2.0332,2.5322-2.665c1.085-.6318,2.3291-.9478,3.7305-.9478,.75,0,1.5059,.1089,2.2656,.3257,.7598,.2173,1.4365,.5137,2.0283,.8882,.6318,.4346,.9473,.938,.9473,1.5103,0,.3359-.0879,.6172-.2656,.8442s-.4053,.3403-.6816,.3403c-.1777,0-.3555-.0444-.5332-.1333s-.4043-.2222-.6807-.3999c-.4941-.3154-.9531-.5571-1.377-.7251-.4248-.1675-.9326-.252-1.5254-.252-1.3428,0-2.3838,.4546-3.124,1.3623-.7402,.9082-1.1104,2.1719-1.1104,3.79,0,1.6191,.3652,2.8677,1.0957,3.7461s1.7666,1.3174,3.1094,1.3174c.5928,0,1.1152-.0889,1.5693-.2661,.4541-.1777,.918-.4146,1.3916-.7109,.2168-.1377,.4346-.2563,.6514-.3555,.2178-.0981,.415-.1479,.5928-.1479,.2764,0,.5029,.1138,.6807,.3408s.2666,.5083,.2666,.8438c0,.2769-.0742,.5283-.2217,.7549-.1484,.2275-.4004,.459-.7559,.6958-.5918,.3955-1.2832,.7012-2.0723,.918-.79,.2173-1.5889,.3262-2.3984,.3262-1.4023,0-2.6309-.3062-3.6865-.918Z" fill="#798d99"></path><path d="M466.3525,57.9858c.1777,.2173,.2666,.4937,.2666,.8291,0,.5728-.3555,1.0562-1.0664,1.4507-.6914,.3955-1.4463,.7012-2.2646,.918-.8193,.2173-1.6045,.3262-2.3545,.3262-2.29,0-4.0967-.6665-5.4189-1.999s-1.9834-3.1538-1.9834-5.4634c0-1.4805,.291-2.793,.873-3.938s1.4014-2.0332,2.458-2.665c1.0557-.6318,2.2549-.9478,3.5977-.9478,1.9346,0,3.4648,.6216,4.5898,1.8652,1.125,1.2441,1.6875,2.9219,1.6875,5.0342,0,.79-.3555,1.1846-1.0654,1.1846h-9.1504c.1973,3.0601,1.668,4.5898,4.4121,4.5898,.7305,0,1.3623-.0986,1.8955-.2964,.5322-.1968,1.0957-.4536,1.6875-.77,.0596-.0391,.2217-.123,.4883-.2515s.4893-.1924,.667-.1924c.2754,0,.5029,.1084,.6807,.3257Zm-8.5869-8.2026c-.6914,.731-1.1064,1.7573-1.2441,3.0796h7.6396c-.0586-1.3418-.3994-2.3735-1.0215-3.0942-.6221-.7202-1.4951-1.0806-2.6201-1.0806-1.1455,0-2.0635,.3652-2.7539,1.0952Z" fill="#798d99"></path></g></svg> 