<?xml version="1.0" encoding="UTF-8"?> <svg xmlns="http://www.w3.org/2000/svg" id="Capa_1" data-name="Capa 1" width="719" height="80" viewBox="0 0 719 80"><rect x="4.711" y="36.5333" width="709.578" height="41.2774" rx="20.6387" ry="20.6387" fill="#f9f2e8"></rect><g><path d="M44.5954,55.5148l16.6402-30.4787c.4362-.799-.142-1.7735-1.0523-1.7735H26.9028c-.9103,0-1.4885,.9745-1.0523,1.7735l16.6402,30.4787c.4545,.8325,1.6501,.8325,2.1046,0Z" fill="#5a93ed"></path><path d="M42.447,37.5371l-22.2144,33.2917c-.5843,.8756,.0434,2.049,1.096,2.049h44.4288c1.0526,0,1.6803-1.1734,1.096-2.049l-22.2144-33.2917c-.5216-.7817-1.6704-.7817-2.1921,0Z" fill="#5a93ed"></path><circle cx="33.1868" cy="11.1808" r="5.4135" fill="#5a93ed"></circle><rect x="32.7112" y="11.1206" width="2.9106" height="16.0201" transform="translate(-2.0829 4.3215) rotate(-7.0239)" fill="#5a93ed"></rect><circle cx="53.8993" cy="12.3576" r="4.9783" fill="#5a93ed"></circle><rect x="44.9094" y="18.8521" width="16.0201" height="2.9106" transform="translate(26.2841 70.3415) rotate(-82.9656)" fill="#5a93ed"></rect></g><circle cx="599.1939" cy="40.4873" r="22.1316" fill="none"></circle><g><path d="M102.1445,66.6851c0,.3755-.1436,.7012-.4292,.9775-.2866,.2764-.6172,.4146-.9922,.4146s-.7207-.1582-1.0366-.4741l-10.5415-9.5054v8.4692c0,.4736-.1333,.8491-.3999,1.125-.2661,.2764-.6465,.4146-1.1396,.4146-.4546,0-.8193-.1382-1.0957-.4146-.2769-.2759-.4146-.6514-.4146-1.125v-18.0928c0-.4536,.1377-.8237,.4146-1.1104,.2764-.2861,.6411-.4292,1.0957-.4292,.4736,0,.8486,.1382,1.125,.4146s.4146,.6514,.4146,1.125v8.1138l10.0977-9.2095c.2764-.2759,.6021-.4146,.9771-.4146s.7007,.1387,.9771,.4146c.2764,.2769,.4146,.5923,.4146,.9478,0,.375-.168,.7207-.5034,1.0361l-8.8242,7.877,9.3574,8.4097c.3354,.3159,.5034,.6616,.5034,1.0361Z" fill="#798d99"></path><path d="M116.5952,64.6421c.1777,.2173,.2666,.4937,.2666,.8291,0,.5728-.3555,1.0562-1.0659,1.4507-.6914,.3955-1.4468,.7012-2.2656,.918-.8193,.2173-1.604,.3262-2.354,.3262-2.29,0-4.0967-.6665-5.4189-1.999-1.3228-1.3325-1.9839-3.1538-1.9839-5.4634,0-1.4805,.291-2.793,.8735-3.938,.582-1.145,1.4014-2.0332,2.458-2.665,1.0557-.6318,2.2549-.9478,3.5977-.9478,1.9346,0,3.4644,.6216,4.5898,1.8652,1.125,1.2441,1.6875,2.9219,1.6875,5.0342,0,.79-.355,1.1846-1.0659,1.1846h-9.1499c.1973,3.0601,1.668,4.5898,4.4121,4.5898,.73,0,1.3623-.0986,1.895-.2964,.5332-.1968,1.0957-.4536,1.688-.77,.0591-.0391,.2222-.123,.4888-.2515,.2661-.1284,.4883-.1924,.666-.1924,.2764,0,.5034,.1084,.6812,.3257Zm-8.5874-8.2026c-.6909,.731-1.106,1.7573-1.2437,3.0796h7.6396c-.0591-1.3418-.3994-2.3735-1.0215-3.0942-.6216-.7202-1.4951-1.0806-2.6206-1.0806-1.145,0-2.063,.3652-2.7539,1.0952Z" fill="#798d99"></path><path d="M130.853,53.4487c.2266-.1377,.4688-.207,.7256-.207,.3745,0,.7056,.1284,.9917,.3848,.2861,.2568,.4297,.5625,.4297,.918,0,.1978-.04,.3853-.1187,.5625l-8.2319,17.4707c-.1187,.2764-.2915,.4888-.5181,.6367-.2275,.1484-.4692,.2222-.7256,.2222-.3555,0-.6763-.1182-.9624-.3555-.2866-.2368-.4292-.5327-.4292-.8882,0-.1582,.0488-.3555,.1479-.5923l2.043-4.3525-5.7148-12.1411c-.0791-.1577-.1187-.3354-.1187-.5327,0-.375,.1577-.6909,.4741-.9478,.3154-.2563,.6709-.3848,1.0659-.3848,.5923,0,1.0166,.2764,1.2734,.8291l4.5894,10.186,4.5605-10.1562c.1182-.2964,.291-.5132,.5181-.6519Z" fill="#798d99"></path><path d="M143.4224,49.8364c-.3359-.3154-.5034-.73-.5034-1.2437,0-.5132,.1675-.9229,.5034-1.229,.3354-.3057,.7896-.459,1.3623-.459,.5522,0,1.0015,.1533,1.3472,.459,.3452,.3062,.5186,.7158,.5186,1.229,0,.5137-.168,.9282-.5034,1.2437-.3359,.3159-.79,.4736-1.3623,.4736-.5728,0-1.0269-.1577-1.3623-.4736Zm.2812,17.9146c-.2861-.2368-.4292-.5918-.4292-1.0659v-12.022c0-.4741,.1431-.834,.4292-1.0811,.2861-.2466,.6465-.3701,1.0811-.3701,.4341,0,.7891,.1235,1.0659,.3701,.2764,.2471,.4146,.6069,.4146,1.0811v12.022c0,.4741-.1382,.8291-.4146,1.0659-.2769,.2373-.6318,.3555-1.0659,.3555-.4346,0-.7949-.1182-1.0811-.3555Z" fill="#798d99"></path><path d="M163.4097,58.9863v7.6987c0,.4546-.1333,.8047-.3994,1.0513-.2666,.2466-.6367,.3701-1.1108,.3701-.4541,0-.814-.1284-1.0806-.3848s-.3999-.6021-.3999-1.0366v-7.5508c0-1.2236-.2417-2.1216-.7256-2.6948-.4839-.5723-1.2388-.8584-2.2651-.8584-1.2041,0-2.1719,.375-2.9019,1.125-.7305,.7505-1.0957,1.7573-1.0957,3.0205v6.9585c0,.4346-.1333,.7803-.3999,1.0366-.2661,.2563-.6265,.3848-1.0806,.3848-.4546,0-.8193-.1284-1.0957-.3848-.2769-.2563-.4146-.6021-.4146-1.0366v-12.0518c0-.4146,.1431-.7549,.4292-1.0215s.6465-.3999,1.0811-.3999c.4341,0,.7798,.1289,1.0361,.3853s.3853,.5918,.3853,1.0063v1.2144c.4736-.8687,1.1348-1.5298,1.9839-1.9839,.8486-.4541,1.8062-.6812,2.8726-.6812,3.4541,0,5.1816,1.9448,5.1816,5.8335Z" fill="#798d99"></path><path d="M167.585,66.9219c-.3555-.2168-.6069-.4438-.7549-.6807-.1484-.2373-.2222-.5034-.2222-.7998,0-.3154,.0889-.582,.2666-.7993,.1772-.2173,.4043-.3257,.6807-.3257,.2563,0,.6611,.1582,1.2144,.4736,.5923,.3159,1.1694,.5728,1.7319,.77,.563,.1973,1.2686,.2959,2.1177,.2959,.9473,0,1.6875-.1675,2.2207-.5034,.5327-.3354,.7993-.8091,.7993-1.4214,0-.3945-.1035-.7104-.311-.9473-.207-.2368-.5674-.4487-1.0806-.6367-.5137-.1875-1.2734-.3896-2.2803-.6069-1.7373-.375-2.9858-.8833-3.7456-1.5249-.7603-.6416-1.1401-1.5151-1.1401-2.6206,0-.8486,.2466-1.6143,.7402-2.2949,.4932-.6812,1.1743-1.209,2.0435-1.5845,.8682-.3745,1.855-.5625,2.9609-.5625,.7896,0,1.5591,.1035,2.3096,.311,.75,.207,1.4111,.5083,1.9839,.9028,.6519,.4346,.9775,.938,.9775,1.5103,0,.3159-.0942,.5825-.2812,.7998-.188,.2173-.4102,.3257-.6665,.3257-.1777,0-.3555-.0396-.5332-.1187-.1772-.0786-.4146-.207-.7104-.3848-.5332-.3159-1.0317-.563-1.4951-.7402-.4644-.1777-1.0415-.2666-1.7324-.2666-.8291,0-1.4956,.1777-1.999,.5327-.5034,.3555-.7549,.8394-.7549,1.4512,0,.5527,.2319,.9824,.6958,1.2881,.4639,.3062,1.3374,.5972,2.6206,.8735,1.3223,.2769,2.3589,.5923,3.1094,.9478,.75,.355,1.2881,.7949,1.6138,1.3174,.3257,.5234,.4883,1.1895,.4883,1.999,0,1.2832-.5381,2.3145-1.6138,3.0942-1.0762,.7803-2.5122,1.1699-4.3081,1.1699-2.0137,0-3.6621-.415-4.9453-1.2441Z" fill="#798d99"></path><path d="M181.9165,49.8364c-.3359-.3154-.5034-.73-.5034-1.2437,0-.5132,.1675-.9229,.5034-1.229,.3354-.3057,.7896-.459,1.3623-.459,.5522,0,1.0015,.1533,1.3472,.459,.3452,.3062,.5186,.7158,.5186,1.229,0,.5137-.168,.9282-.5034,1.2437-.3359,.3159-.79,.4736-1.3623,.4736-.5728,0-1.0269-.1577-1.3623-.4736Zm.2812,17.9146c-.2861-.2368-.4292-.5918-.4292-1.0659v-12.022c0-.4741,.1431-.834,.4292-1.0811,.2861-.2466,.6465-.3701,1.0811-.3701,.4341,0,.7891,.1235,1.0659,.3701,.2764,.2471,.4146,.6069,.4146,1.0811v12.022c0,.4741-.1382,.8291-.4146,1.0659-.2769,.2373-.6318,.3555-1.0659,.3555-.4346,0-.7949-.1182-1.0811-.3555Z" fill="#798d99"></path><path d="M201.978,53.6118c.2666,.2666,.3999,.6172,.3999,1.0513v12.1406c0,2.2104-.5879,3.8789-1.7622,5.0044-1.1748,1.125-2.9067,1.6875-5.1968,1.6875-2.1318,0-3.9087-.4048-5.3301-1.2139-.7305-.4146-1.0957-.9082-1.0957-1.4805,0-.3359,.0938-.6123,.2812-.8291,.1875-.2178,.4194-.3257,.6963-.3257,.2563,0,.6611,.1479,1.2139,.4438,.7109,.3354,1.3721,.5972,1.9839,.7847s1.3423,.2817,2.1914,.2817c2.7241,0,4.0864-1.3726,4.0864-4.1162v-2.2803c-.4146,.8691-1.0469,1.5449-1.895,2.0288-.8491,.4839-1.8359,.7251-2.9614,.7251-1.2637,0-2.3887-.2959-3.3755-.8882-.9873-.5923-1.7524-1.4312-2.2949-2.5171-.5435-1.0854-.8145-2.3394-.8145-3.7607s.2764-2.6743,.8291-3.7603c.5522-1.0854,1.3179-1.9297,2.2949-2.5317s2.0972-.9033,3.3608-.9033c1.1055,0,2.0776,.2368,2.917,.7104,.8389,.4741,1.4751,1.1455,1.9097,2.0137v-1.2437c0-.4341,.1333-.7798,.3999-1.0361s.6265-.3853,1.0806-.3853,.8145,.1333,1.0811,.3999Zm-3.6572,10.2603c.7305-.8486,1.0957-2.0234,1.0957-3.5239,0-1.4805-.3604-2.6499-1.0806-3.5088-.7212-.8589-1.7324-1.2881-3.0352-1.2881s-2.3247,.4248-3.0649,1.2734c-.7402,.8491-1.1104,2.0234-1.1104,3.5234s.3745,2.6753,1.125,3.5239c.75,.8491,1.7666,1.2734,3.0503,1.2734,1.2827,0,2.2896-.4243,3.02-1.2734Z" fill="#798d99"></path><path d="M219.5225,58.9863v7.6987c0,.4346-.1382,.7803-.4146,1.0366s-.6416,.3848-1.0957,.3848-.814-.1284-1.0806-.3848-.3999-.6021-.3999-1.0366v-7.6694c0-1.1841-.2417-2.0527-.7256-2.6055s-1.2388-.8291-2.2651-.8291c-1.2041,0-2.1719,.375-2.9019,1.125-.7305,.7505-1.0957,1.7573-1.0957,3.0205v6.9585c0,.4346-.1333,.7803-.3999,1.0366-.2661,.2563-.6265,.3848-1.0806,.3848-.4546,0-.8193-.1284-1.0957-.3848-.2769-.2563-.4146-.6021-.4146-1.0366v-18.3291c0-.4341,.1431-.7798,.4292-1.0366,.2861-.2563,.6562-.3848,1.1108-.3848,.4336,0,.7847,.1235,1.0508,.3701,.2666,.2471,.3999,.5771,.3999,.9917v7.4028c.4932-.8291,1.1548-1.4604,1.9839-1.895,.8291-.4341,1.7769-.6514,2.8428-.6514,3.4351,0,5.1523,1.9448,5.1523,5.8335Z" fill="#798d99"></path><path d="M231.6182,66.167c.1875,.188,.2812,.4492,.2812,.7847,0,.395-.1528,.6958-.459,.9033-.3062,.207-.7549,.291-1.3472,.2515l-.7993-.0591c-1.5991-.1187-2.7939-.6069-3.583-1.4658-.79-.8589-1.1846-2.127-1.1846-3.8052v-6.9585h-1.7769c-.8687,0-1.3027-.3848-1.3027-1.1548,0-.3555,.1133-.6367,.3403-.8442,.2271-.207,.5479-.3105,.9624-.3105h1.7769v-3.0503c0-.4536,.1333-.8091,.3999-1.0659,.2666-.2563,.6265-.3848,1.0806-.3848s.8188,.1284,1.0957,.3848c.2764,.2568,.4146,.6123,.4146,1.0659v3.0503h2.9316c.4146,0,.7354,.1035,.9624,.3105,.2266,.2075,.3403,.4888,.3403,.8442,0,.375-.1138,.6616-.3403,.8584-.2271,.1978-.5479,.2964-.9624,.2964h-2.9316v7.166c0,.9282,.1924,1.6089,.5776,2.043,.3848,.4346,.9722,.6812,1.7617,.7402l.8291,.0596c.4341,.0396,.7451,.1528,.9326,.3403Z" fill="#798d99"></path><path d="M234.1499,66.9219c-.3555-.2168-.6069-.4438-.7549-.6807-.1484-.2373-.2222-.5034-.2222-.7998,0-.3154,.0889-.582,.2666-.7993,.1772-.2173,.4043-.3257,.6807-.3257,.2563,0,.6611,.1582,1.2144,.4736,.5923,.3159,1.1694,.5728,1.7319,.77,.563,.1973,1.2686,.2959,2.1177,.2959,.9473,0,1.6875-.1675,2.2207-.5034,.5327-.3354,.7993-.8091,.7993-1.4214,0-.3945-.1035-.7104-.311-.9473-.207-.2368-.5674-.4487-1.0806-.6367-.5137-.1875-1.2734-.3896-2.2803-.6069-1.7373-.375-2.9858-.8833-3.7456-1.5249-.7603-.6416-1.1401-1.5151-1.1401-2.6206,0-.8486,.2466-1.6143,.7402-2.2949,.4932-.6812,1.1743-1.209,2.0435-1.5845,.8682-.3745,1.855-.5625,2.9609-.5625,.7896,0,1.5591,.1035,2.3096,.311,.75,.207,1.4111,.5083,1.9839,.9028,.6519,.4346,.9775,.938,.9775,1.5103,0,.3159-.0942,.5825-.2812,.7998-.188,.2173-.4102,.3257-.6665,.3257-.1777,0-.3555-.0396-.5332-.1187-.1772-.0786-.4146-.207-.7104-.3848-.5332-.3159-1.0317-.563-1.4951-.7402-.4644-.1777-1.0415-.2666-1.7324-.2666-.8291,0-1.4956,.1777-1.999,.5327-.5034,.3555-.7549,.8394-.7549,1.4512,0,.5527,.2319,.9824,.6958,1.2881,.4639,.3062,1.3374,.5972,2.6206,.8735,1.3223,.2769,2.3589,.5923,3.1094,.9478,.75,.355,1.2881,.7949,1.6138,1.3174,.3257,.5234,.4883,1.1895,.4883,1.999,0,1.2832-.5381,2.3145-1.6138,3.0942-1.0762,.7803-2.5122,1.1699-4.3081,1.1699-2.0137,0-3.6621-.415-4.9453-1.2441Z" fill="#798d99"></path><path d="M256.2988,49.8364c-.3359-.3154-.5034-.73-.5034-1.2437,0-.5132,.1675-.9229,.5034-1.229,.3354-.3057,.7896-.459,1.3623-.459,.5522,0,1.0015,.1533,1.3472,.459,.3452,.3062,.5186,.7158,.5186,1.229,0,.5137-.168,.9282-.5034,1.2437-.3359,.3159-.79,.4736-1.3623,.4736-.5728,0-1.0269-.1577-1.3623-.4736Zm.2812,17.9146c-.2861-.2368-.4292-.5918-.4292-1.0659v-12.022c0-.4741,.1431-.834,.4292-1.0811,.2861-.2466,.6465-.3701,1.0811-.3701,.4341,0,.7891,.1235,1.0659,.3701,.2764,.2471,.4146,.6069,.4146,1.0811v12.022c0,.4741-.1382,.8291-.4146,1.0659-.2769,.2373-.6318,.3555-1.0659,.3555-.4346,0-.7949-.1182-1.0811-.3555Z" fill="#798d99"></path><path d="M276.2861,58.9863v7.6987c0,.4546-.1333,.8047-.3994,1.0513-.2666,.2466-.6367,.3701-1.1108,.3701-.4541,0-.814-.1284-1.0806-.3848s-.3999-.6021-.3999-1.0366v-7.5508c0-1.2236-.2417-2.1216-.7256-2.6948-.4839-.5723-1.2388-.8584-2.2651-.8584-1.2041,0-2.1719,.375-2.9019,1.125-.7305,.7505-1.0957,1.7573-1.0957,3.0205v6.9585c0,.4346-.1333,.7803-.3999,1.0366-.2661,.2563-.6265,.3848-1.0806,.3848-.4546,0-.8193-.1284-1.0957-.3848-.2769-.2563-.4146-.6021-.4146-1.0366v-12.0518c0-.4146,.1431-.7549,.4292-1.0215s.6465-.3999,1.0811-.3999c.4341,0,.7798,.1289,1.0361,.3853s.3853,.5918,.3853,1.0063v1.2144c.4736-.8687,1.1348-1.5298,1.9839-1.9839,.8486-.4541,1.8062-.6812,2.8726-.6812,3.4541,0,5.1816,1.9448,5.1816,5.8335Z" fill="#798d99"></path><path d="M297.1914,54.4263c0,.4341-.1089,.7598-.3257,.9771-.2178,.2173-.5923,.3457-1.1255,.3848l-.8882,.0889c-1.2437,.1187-2.1665,.5532-2.7686,1.3032-.6025,.75-.9033,1.6582-.9033,2.7241v6.7808c0,.4741-.1382,.8291-.4146,1.0659-.2769,.2373-.6318,.3555-1.0659,.3555-.4346,0-.7949-.1182-1.0811-.3555-.2861-.2368-.4292-.5918-.4292-1.0659v-12.0518c0-.4536,.1431-.8042,.4292-1.0513,.2861-.2466,.6465-.3701,1.0811-.3701,.3945,0,.7256,.1235,.9922,.3701,.2661,.2471,.3994,.5879,.3994,1.0215v1.4214c.3945-.8682,.9673-1.5293,1.7178-1.9839,.75-.4536,1.5986-.7202,2.5464-.7993l.4146-.0298c.9478-.0591,1.4214,.3457,1.4214,1.2144Z" fill="#798d99"></path><path d="M310.7236,64.6421c.1777,.2173,.2666,.4937,.2666,.8291,0,.5728-.3555,1.0562-1.0659,1.4507-.6914,.3955-1.4468,.7012-2.2656,.918-.8193,.2173-1.604,.3262-2.354,.3262-2.29,0-4.0967-.6665-5.4189-1.999-1.3228-1.3325-1.9839-3.1538-1.9839-5.4634,0-1.4805,.291-2.793,.8735-3.938,.582-1.145,1.4014-2.0332,2.458-2.665,1.0557-.6318,2.2549-.9478,3.5977-.9478,1.9346,0,3.4644,.6216,4.5898,1.8652,1.125,1.2441,1.6875,2.9219,1.6875,5.0342,0,.79-.355,1.1846-1.0659,1.1846h-9.1499c.1973,3.0601,1.668,4.5898,4.4121,4.5898,.73,0,1.3623-.0986,1.895-.2964,.5332-.1968,1.0957-.4536,1.688-.77,.0591-.0391,.2222-.123,.4888-.2515,.2661-.1284,.4883-.1924,.666-.1924,.2764,0,.5034,.1084,.6812,.3257Zm-8.5874-8.2026c-.6909,.731-1.106,1.7573-1.2437,3.0796h7.6396c-.0591-1.3418-.3994-2.3735-1.0215-3.0942-.6216-.7202-1.4951-1.0806-2.6206-1.0806-1.145,0-2.063,.3652-2.7539,1.0952Z" fill="#798d99"></path><path d="M324.7446,54.6035c.9375,.9678,1.4067,2.4385,1.4067,4.4121v7.6694c0,.4546-.1289,.8047-.3853,1.0513s-.6118,.3701-1.0659,.3701c-.4346,0-.7798-.1284-1.0361-.3848-.2568-.2563-.3853-.6021-.3853-1.0366v-1.0957c-.375,.8296-.9326,1.4658-1.6729,1.9102s-1.604,.6665-2.5908,.6665c-.9478,0-1.8169-.1929-2.606-.5776-.79-.3848-1.4067-.9224-1.8506-1.6138-.4443-.6909-.6665-1.4609-.6665-2.3096,0-1.0464,.271-1.8701,.8145-2.4727,.5425-.6021,1.4409-1.0312,2.6943-1.2881,1.2534-.2563,2.9761-.3853,5.1675-.3853h.6812v-.8584c0-1.1055-.2275-1.9048-.6812-2.3984-.4546-.4937-1.1846-.7407-2.1914-.7407-.6909,0-1.3428,.0889-1.9541,.2666-.6123,.1777-1.2837,.4346-2.0137,.77-.5332,.2959-.9082,.4443-1.1255,.4443-.2959,0-.5381-.1084-.7251-.3257-.188-.2173-.2812-.4937-.2812-.8291,0-.2964,.0835-.5576,.2515-.7852,.1675-.2266,.439-.4487,.8145-.666,.6904-.375,1.5-.6758,2.4282-.9033,.9272-.2266,1.8257-.3403,2.6943-.3403,1.9146,0,3.3413,.4839,4.2788,1.4507Zm-2.5317,10.231c.6909-.7402,1.0366-1.6924,1.0366-2.8574v-.77h-.5332c-1.5396,0-2.7241,.0693-3.5532,.2075s-1.4214,.3701-1.7769,.6958-.5327,.7949-.5327,1.4062c0,.7109,.2563,1.2935,.7695,1.7471,.5132,.4546,1.1548,.6812,1.9248,.6812,1.0854,0,1.9736-.3701,2.665-1.1104Z" fill="#798d99"></path><path d="M330.6665,67.751c-.2861-.2368-.4292-.5918-.4292-1.0659v-18.2998c0-.4736,.1431-.8335,.4292-1.0806,.2861-.2466,.6465-.3701,1.0811-.3701,.4341,0,.7891,.1235,1.0659,.3701,.2764,.2471,.4146,.6069,.4146,1.0806v18.2998c0,.4741-.1382,.8291-.4146,1.0659-.2769,.2373-.6318,.3555-1.0659,.3555-.4346,0-.7949-.1182-1.0811-.3555Z" fill="#798d99"></path><path d="M337.4917,60.9556c-.2368-.2075-.3555-.4985-.3555-.8735s.1187-.6709,.3555-.8887c.2368-.2168,.582-.3257,1.0366-.3257h6.3071c.4536,0,.7993,.1089,1.0361,.3257,.2368,.2178,.3555,.5137,.3555,.8887s-.1187,.666-.3555,.8735c-.2368,.207-.5825,.3105-1.0361,.3105h-6.3071c-.4546,0-.7998-.1035-1.0366-.3105Z" fill="#798d99"></path><path d="M358.1152,66.167c.1875,.188,.2812,.4492,.2812,.7847,0,.395-.1528,.6958-.459,.9033-.3062,.207-.7549,.291-1.3472,.2515l-.7993-.0591c-1.5991-.1187-2.7939-.6069-3.583-1.4658-.79-.8589-1.1846-2.127-1.1846-3.8052v-6.9585h-1.7769c-.8687,0-1.3027-.3848-1.3027-1.1548,0-.3555,.1133-.6367,.3403-.8442,.2271-.207,.5479-.3105,.9624-.3105h1.7769v-3.0503c0-.4536,.1333-.8091,.3999-1.0659,.2666-.2563,.6265-.3848,1.0806-.3848s.8188,.1284,1.0957,.3848c.2764,.2568,.4146,.6123,.4146,1.0659v3.0503h2.9316c.4146,0,.7354,.1035,.9624,.3105,.2266,.2075,.3403,.4888,.3403,.8442,0,.375-.1138,.6616-.3403,.8584-.2271,.1978-.5479,.2964-.9624,.2964h-2.9316v7.166c0,.9282,.1924,1.6089,.5776,2.043,.3848,.4346,.9722,.6812,1.7617,.7402l.8291,.0596c.4341,.0396,.7451,.1528,.9326,.3403Z" fill="#798d99"></path><path d="M360.7061,49.8364c-.3359-.3154-.5034-.73-.5034-1.2437,0-.5132,.1675-.9229,.5034-1.229,.3354-.3057,.7896-.459,1.3623-.459,.5522,0,1.0015,.1533,1.3472,.459,.3452,.3062,.519,.7158,.519,1.229,0,.5137-.168,.9282-.5039,1.2437-.3359,.3159-.79,.4736-1.3623,.4736-.5728,0-1.0269-.1577-1.3623-.4736Zm.2812,17.9146c-.2861-.2368-.4292-.5918-.4292-1.0659v-12.022c0-.4741,.1431-.834,.4292-1.0811,.2861-.2466,.6465-.3701,1.0811-.3701,.4341,0,.7891,.1235,1.0659,.3701,.2764,.2471,.4146,.6069,.4146,1.0811v12.022c0,.4741-.1382,.8291-.4146,1.0659-.2769,.2373-.6318,.3555-1.0659,.3555-.4346,0-.7949-.1182-1.0811-.3555Z" fill="#798d99"></path><path d="M389.1631,58.9863v7.6987c0,.4546-.1387,.8047-.415,1.0513s-.6416,.3701-1.0947,.3701c-.4346,0-.79-.1235-1.0664-.3701s-.415-.5967-.415-1.0513v-7.6694c0-1.2036-.2168-2.0771-.6514-2.6206-.4346-.5425-1.1152-.814-2.043-.814-1.0859,0-1.9443,.3701-2.5762,1.1104s-.9473,1.752-.9473,3.0352v6.9585c0,.4546-.1387,.8047-.415,1.0513s-.6416,.3701-1.0957,.3701c-.4336,0-.7891-.1235-1.0654-.3701-.2773-.2466-.415-.5967-.415-1.0513v-7.6694c0-1.2036-.2168-2.0771-.6514-2.6206-.4346-.5425-1.1152-.814-2.043-.814-1.0859,0-1.9502,.3701-2.5908,1.1104-.6416,.7402-.9629,1.752-.9629,3.0352v6.9585c0,.4546-.1377,.8047-.4141,1.0513-.2773,.2466-.6318,.3701-1.0664,.3701s-.7949-.1235-1.0811-.3701-.4287-.5967-.4287-1.0513v-12.0518c0-.4341,.1475-.7798,.4443-1.0361,.2959-.2563,.6514-.3853,1.0654-.3853,.415,0,.7549,.1235,1.0215,.3701,.2666,.2471,.4004,.5879,.4004,1.0215v1.0957c.4336-.8291,1.0361-1.4604,1.8057-1.895,.7705-.4341,1.6582-.6514,2.665-.6514,1.1055,0,2.0186,.2271,2.7393,.6812s1.2588,1.1548,1.6143,2.1021c.4336-.8481,1.0752-1.5249,1.9248-2.0283,.8486-.5034,1.8154-.7549,2.9014-.7549,3.2373,0,4.8564,1.9448,4.8564,5.8335Z" fill="#798d99"></path><path d="M405.2422,64.6421c.1777,.2173,.2666,.4937,.2666,.8291,0,.5728-.3555,1.0562-1.0664,1.4507-.6914,.3955-1.4463,.7012-2.2656,.918-.8193,.2173-1.6035,.3262-2.3535,.3262-2.29,0-4.0967-.6665-5.4189-1.999-1.3232-1.3325-1.9844-3.1538-1.9844-5.4634,0-1.4805,.291-2.793,.874-3.938,.582-1.145,1.4014-2.0332,2.458-2.665,1.0557-.6318,2.2549-.9478,3.5977-.9478,1.9346,0,3.4639,.6216,4.5898,1.8652,1.125,1.2441,1.6875,2.9219,1.6875,5.0342,0,.79-.3555,1.1846-1.0664,1.1846h-9.1494c.1973,3.0601,1.668,4.5898,4.4121,4.5898,.7295,0,1.3623-.0986,1.8945-.2964,.5332-.1968,1.0957-.4536,1.6885-.77,.0586-.0391,.2217-.123,.4883-.2515s.4883-.1924,.666-.1924c.2764,0,.5039,.1084,.6816,.3257Zm-8.5879-8.2026c-.6904,.731-1.1055,1.7573-1.2432,3.0796h7.6396c-.0596-1.3418-.3994-2.3735-1.0215-3.0942-.6221-.7202-1.4951-1.0806-2.6211-1.0806-1.1445,0-2.0625,.3652-2.7539,1.0952Z" fill="#798d99"></path></g><g id="mm_reports_icon"><g id="reports"><path d="M83.435,8.5926c-1.1523,0-2.0864,.9341-2.0864,2.0864v8.496c0,.9506,.6426,1.7811,1.5627,2.0197,2.1895,.5677,3.8994,2.2775,4.4671,4.4671,.2386,.9202,1.0691,1.5628,2.0197,1.5627h8.496c1.1523-.0003,2.0862-.9347,2.0859-2.087,0-.0863-.0054-.1725-.0161-.2581-1.0575-8.5117-7.7626-15.2168-16.2742-16.2742-.0845-.0094-.1695-.0135-.2545-.0125h0Z" fill="#9e9e9e"></path><path id="Trazado_482" data-name="Trazado 482" d="M89.4001,29.313c-1.1434,4.4556-5.6824,7.1407-10.138,5.9973s-7.1407-5.6824-5.9973-10.138c.7554-2.9435,3.0538-5.2419,5.9973-5.9973V10.679c-9.1472,1.1441-15.635,9.4868-14.491,18.634,1.1441,9.1472,9.4868,15.635,18.634,14.491,7.5761-.9476,13.5434-6.9149,14.491-14.491h-8.496Z" fill="#75c6c4"></path><path d="M83.435,10.679c7.5569,.953,13.5081,6.9043,14.4611,14.4611h-8.496c-.7575-2.9241-3.041-5.2076-5.9651-5.9651V10.679" fill="#ff9c94"></path></g><g id="Safespace"><rect id="Rectángulo_537" data-name="Rectángulo 537" x="56.3113" y="2.1893" width="50.0746" height="50.0746" fill="none"></rect></g></g><line x1="48.9116" y1="50.6975" x2="70.6996" y2="34.0513" fill="none" stroke="#997f6d" stroke-linecap="round" stroke-miterlimit="10" stroke-width="2"></line></svg> 