<svg width="18" height="23" viewBox="0 0 18 23" fill="none" xmlns="http://www.w3.org/2000/svg">
<path d="M10.9507 15.5653C10.9507 17.4349 11.6934 19.2279 13.0154 20.5499C14.3374 21.8719 16.1304 22.6146 18 22.6146V8.56836L10.9507 13.3967V15.5653Z" fill="url(#paint0_linear_1051_2026)"/>
<path d="M18 7.56827V1.04634C17.9997 0.855938 17.9475 0.669222 17.849 0.506243C17.7506 0.343264 17.6096 0.210179 17.4412 0.121276C17.2728 0.0323736 17.0834 -0.00898818 16.8933 0.00163212C16.7032 0.0122524 16.5196 0.0744536 16.3621 0.181557L0 11.3517C1.0515 12.8969 2.67359 13.9613 4.50965 14.3108C6.3457 14.6603 8.2454 14.2664 9.79108 13.2156L18 7.56827Z" fill="#1868DB"/>
<defs>
<linearGradient id="paint0_linear_1051_2026" x1="12.1627" y1="11.3822" x2="17.1712" y2="16.1418" gradientUnits="userSpaceOnUse">
<stop offset="0.17" stop-color="#1868DB"/>
<stop offset="1" stop-color="#1868DB"/>
</linearGradient>
</defs>
</svg>
