<svg xmlns="http://www.w3.org/2000/svg" xmlns:xlink="http://www.w3.org/1999/xlink" viewBox="0 0 91.1 72.87"><defs><style>.b341f127-308a-4913-86c0-4a66103ed70b{stroke:#a0aab7;stroke-miterlimit:10;fill:url(#af76e0a5-fbf9-45d8-b8e2-02789241dd64);}.a556ef71-3fca-4fd1-8433-71216bfb4033{fill:#fff;}.fe259800-457d-498a-b6c4-c2f1e47752f0{fill:url(#a9a72ebb-9325-4a28-b3f0-26940a94cab6);}.a73177e2-96e3-49c0-a26c-1f8955eb200a{fill:url(#f1133926-4014-4650-91af-4b2554803a1c);}.f9282f05-0ae5-4bf4-8393-dfc15f4f5e88{fill:url(#eb932d50-0cb9-4243-aeb5-ec0c43fccba7);}.f7f852d3-7d07-4527-9800-6d526d925736{fill:url(#f66001e2-bbf6-4293-8d94-99891823ef1e);}.b3631189-81a1-46a3-b828-4d2967d12577{fill:url(#be9b8e3a-57c4-4327-a7d7-186a4cc3440d);}.a6b058c3-46f3-49c2-aa0c-e41cbd1088d4{fill:url(#bdc77600-1198-4249-9783-dbfe94d071ba);}.b4c7c6f6-caf9-4d7b-ab18-d94e33187a97{fill:url(#ed5d23f5-bb94-4797-b9a6-aeef086f9cba);}.b35bbb37-e673-4a0f-b25f-2b55cf17bb7c{fill:url(#e662a16c-201c-44ed-8059-ebf52a1b96df);}.f296f234-ee11-4878-b937-f40e41541214{fill:url(#ab1297a3-c7aa-4cf8-80a0-1b0ee0e9241f);}.b367a360-3499-4ff3-b5d5-43d3ed2e4052{fill:url(#b08bd078-2145-461a-b2c4-47ab764d697b);}.a8749fa0-ea10-4347-bf64-140fb599a0e5{fill:url(#b3cb0da4-39fa-49d0-85fb-9e88f8961e36);}.a6a808f3-722e-4c81-90ae-71339235be89{fill:url(#f2b98a42-5cc9-48f2-868b-33e099f0d462);}.a2fcb02e-b769-43be-adb0-eda9af1d0ba6{fill:url(#ac82e66f-ef5a-4dcc-ac3a-c91a9a2113e6);}.a6da3545-6675-49d5-a931-00c4964fb293{fill:url(#afe90668-a96b-4c61-a1ce-10d533816052);}.fd2cd655-ef38-4737-8b0a-cf7f4a9007b5{fill:url(#e587b68b-6099-40f6-b778-cf212fa3b237);}.b3200cb8-a71d-412b-a283-d4a194ed4ac7{fill:url(#fb86ddad-2b86-4abe-983c-4565e2ee30c5);}.f42a796e-47fc-4637-96b9-fc76ec092d3b{fill:url(#e4f724d7-8782-4285-af68-57859f730dd8);}</style><linearGradient id="af76e0a5-fbf9-45d8-b8e2-02789241dd64" x1="0.5" y1="42.61" x2="86.12" y2="42.61" gradientUnits="userSpaceOnUse"><stop offset="0" stop-color="#dee1e4"/><stop offset="1" stop-color="#f9fcff"/></linearGradient><linearGradient id="a9a72ebb-9325-4a28-b3f0-26940a94cab6" x1="6.23" y1="16.82" x2="19.71" y2="16.82" gradientUnits="userSpaceOnUse"><stop offset="0" stop-color="#4e5f7a"/><stop offset="1" stop-color="#8692a5"/></linearGradient><linearGradient id="f1133926-4014-4650-91af-4b2554803a1c" x1="6.23" y1="16.92" x2="19.71" y2="16.92" xlink:href="#a9a72ebb-9325-4a28-b3f0-26940a94cab6"/><linearGradient id="eb932d50-0cb9-4243-aeb5-ec0c43fccba7" x1="6.23" y1="17.02" x2="19.71" y2="17.02" xlink:href="#a9a72ebb-9325-4a28-b3f0-26940a94cab6"/><linearGradient id="f66001e2-bbf6-4293-8d94-99891823ef1e" x1="16.67" y1="44.6" x2="42.58" y2="43.98" xlink:href="#a9a72ebb-9325-4a28-b3f0-26940a94cab6"/><linearGradient id="be9b8e3a-57c4-4327-a7d7-186a4cc3440d" x1="9.9" y1="56.16" x2="43.62" y2="56.16" xlink:href="#a9a72ebb-9325-4a28-b3f0-26940a94cab6"/><linearGradient id="bdc77600-1198-4249-9783-dbfe94d071ba" x1="30.48" y1="56.16" x2="71.94" y2="56.16" gradientUnits="userSpaceOnUse"><stop offset="0" stop-color="#959faf"/><stop offset="1" stop-color="#b0b9c5"/></linearGradient><linearGradient id="ed5d23f5-bb94-4797-b9a6-aeef086f9cba" x1="29.45" y1="44.34" x2="64.89" y2="44.34" xlink:href="#a9a72ebb-9325-4a28-b3f0-26940a94cab6"/><linearGradient id="e662a16c-201c-44ed-8059-ebf52a1b96df" x1="-6.13" y1="32.51" x2="32.56" y2="32.51" xlink:href="#a9a72ebb-9325-4a28-b3f0-26940a94cab6"/><linearGradient id="ab1297a3-c7aa-4cf8-80a0-1b0ee0e9241f" x1="23.99" y1="32.21" x2="64.07" y2="32.76" xlink:href="#bdc77600-1198-4249-9783-dbfe94d071ba"/><linearGradient id="b08bd078-2145-461a-b2c4-47ab764d697b" x1="1.62" y1="32.15" x2="104.71" y2="32.7" xlink:href="#a9a72ebb-9325-4a28-b3f0-26940a94cab6"/><linearGradient id="b3cb0da4-39fa-49d0-85fb-9e88f8961e36" x1="31.18" y1="55.46" x2="72.22" y2="54.22" xlink:href="#a9a72ebb-9325-4a28-b3f0-26940a94cab6"/><linearGradient id="f2b98a42-5cc9-48f2-868b-33e099f0d462" x1="31.3" y1="59.33" x2="72.34" y2="58.09" xlink:href="#a9a72ebb-9325-4a28-b3f0-26940a94cab6"/><linearGradient id="ac82e66f-ef5a-4dcc-ac3a-c91a9a2113e6" x1="28.95" y1="7.45" x2="84.09" y2="7.87" gradientUnits="userSpaceOnUse"><stop offset="0" stop-color="#324564"/><stop offset="1" stop-color="#69788c"/></linearGradient><linearGradient id="afe90668-a96b-4c61-a1ce-10d533816052" x1="28.87" y1="17.64" x2="84.02" y2="18.06" xlink:href="#ac82e66f-ef5a-4dcc-ac3a-c91a9a2113e6"/><linearGradient id="e587b68b-6099-40f6-b778-cf212fa3b237" x1="28.95" y1="7.23" x2="84.09" y2="7.65" xlink:href="#ac82e66f-ef5a-4dcc-ac3a-c91a9a2113e6"/><linearGradient id="fb86ddad-2b86-4abe-983c-4565e2ee30c5" x1="28.88" y1="17.43" x2="84.02" y2="17.84" xlink:href="#ac82e66f-ef5a-4dcc-ac3a-c91a9a2113e6"/><linearGradient id="e4f724d7-8782-4285-af68-57859f730dd8" x1="28.91" y1="12.44" x2="84.06" y2="12.85" xlink:href="#ac82e66f-ef5a-4dcc-ac3a-c91a9a2113e6"/></defs><title>Engineering</title><g id="ecd13322-58c8-4556-aff7-e56db6cf90c7" data-name="Layer 2"><g id="e11a845a-59e4-4d99-b2b6-f0d18930da66" data-name="icons"><rect class="b341f127-308a-4913-86c0-4a66103ed70b" x="0.5" y="12.84" width="85.62" height="59.53" rx="1.49"/><path class="a556ef71-3fca-4fd1-8433-71216bfb4033" d="M85.56,14.64v6.15H1.08V14.64a1.43,1.43,0,0,1,1.46-1.41H84.09A1.44,1.44,0,0,1,85.56,14.64Z"/><circle class="fe259800-457d-498a-b6c4-c2f1e47752f0" cx="6.41" cy="16.82" r="2.04"/><circle class="a73177e2-96e3-49c0-a26c-1f8955eb200a" cx="12.32" cy="16.92" r="2.04"/><circle class="f9282f05-0ae5-4bf4-8393-dfc15f4f5e88" cx="18.24" cy="17.02" r="2.04"/><path class="f7f852d3-7d07-4527-9800-6d526d925736" d="M35.87,46.89H19.36a2.55,2.55,0,0,1,0-5.1H35.87a2.55,2.55,0,0,1,0,5.1Z"/><path class="b3631189-81a1-46a3-b828-4d2967d12577" d="M35.87,58.71H19.36a2.55,2.55,0,0,1,0-5.1H35.87a2.55,2.55,0,1,1,0,5.1Z"/><path class="a6b058c3-46f3-49c2-aa0c-e41cbd1088d4" d="M60.74,58.71H45.65a2.55,2.55,0,0,1,0-5.1H60.74a2.55,2.55,0,0,1,0,5.1Z"/><path class="b4c7c6f6-caf9-4d7b-ab18-d94e33187a97" d="M65.84,46.89H47.28a2.55,2.55,0,0,1,0-5.1H65.84a2.55,2.55,0,0,1,0,5.1Z"/><path class="b35bbb37-e673-4a0f-b25f-2b55cf17bb7c" d="M27.31,35.06H10.79a2.55,2.55,0,0,1,0-5.09H27.31a2.55,2.55,0,0,1,0,5.09Z"/><path class="f296f234-ee11-4878-b937-f40e41541214" d="M56.87,35.06H35.66a2.55,2.55,0,0,1,0-5.09H56.87a2.55,2.55,0,0,1,0,5.09Z"/><path class="b367a360-3499-4ff3-b5d5-43d3ed2e4052" d="M75.82,35.06H65.22a2.55,2.55,0,0,1,0-5.09h10.6a2.55,2.55,0,1,1,0,5.09Z"/><path class="a8749fa0-ea10-4347-bf64-140fb599a0e5" d="M73.89,58.66a2.52,2.52,0,0,1-1.8-.75l-3.78-3.77a2.55,2.55,0,0,1,3.61-3.6l3.77,3.77a2.55,2.55,0,0,1-1.8,4.35Z"/><path class="a6a808f3-722e-4c81-90ae-71339235be89" d="M70.12,62.53a2.55,2.55,0,0,1-1.81-4.35l3.78-3.77a2.55,2.55,0,1,1,3.6,3.6l-3.77,3.78A2.57,2.57,0,0,1,70.12,62.53Z"/><path class="a2fcb02e-b769-43be-adb0-eda9af1d0ba6" d="M49.52,15.19A2.45,2.45,0,0,1,47.8,11L58.2.8a2.45,2.45,0,1,1,3.42,3.5L51.23,14.49A2.48,2.48,0,0,1,49.52,15.19Z"/><path class="a6da3545-6675-49d5-a931-00c4964fb293" d="M59.91,25.38a2.42,2.42,0,0,1-1.71-.7L47.8,14.49A2.45,2.45,0,0,1,51.23,11l10.39,10.2a2.44,2.44,0,0,1-1.71,4.19Z"/><path class="fd2cd655-ef38-4737-8b0a-cf7f4a9007b5" d="M88.65,15.19a2.48,2.48,0,0,1-1.71-.7L76.55,4.3A2.45,2.45,0,0,1,80,.8L90.37,11a2.45,2.45,0,0,1-1.72,4.2Z"/><path class="b3200cb8-a71d-412b-a283-d4a194ed4ac7" d="M78.26,25.38a2.44,2.44,0,0,1-1.71-4.19L86.94,11a2.45,2.45,0,0,1,3.43,3.5L80,24.68A2.42,2.42,0,0,1,78.26,25.38Z"/><path class="f42a796e-47fc-4637-96b9-fc76ec092d3b" d="M67.36,25.48a2.38,2.38,0,0,1-.46,0,2.45,2.45,0,0,1-2-2.86L68.82,2a2.45,2.45,0,1,1,4.81.91L69.76,23.49A2.45,2.45,0,0,1,67.36,25.48Z"/></g></g></svg>