<svg width="58" height="58" viewBox="0 0 58 58" fill="none" xmlns="http://www.w3.org/2000/svg">
<g clip-path="url(#clip0_912_66252)">
<path d="M24.166 26.583C32.1741 26.583 38.666 23.3371 38.666 19.333C38.666 15.3289 32.1741 12.083 24.166 12.083C16.1579 12.083 9.66602 15.3289 9.66602 19.333C9.66602 23.3371 16.1579 26.583 24.166 26.583Z" fill="white"/>
<path d="M24.166 30.208C24.9894 30.208 25.7968 30.1737 26.5827 30.1078V36.1494C25.7968 36.2154 24.9894 36.2497 24.166 36.2497C16.1579 36.2497 9.66602 33.0037 9.66602 28.9997V24.1663H9.8665C11.017 27.5952 16.9813 30.208 24.166 30.208Z" fill="white"/>
<path d="M26.5827 39.7744C25.7968 39.8404 24.9894 39.8747 24.166 39.8747C16.9813 39.8747 11.017 37.2619 9.8665 33.833H9.66602V38.6663C9.66602 42.6704 16.1579 45.9163 24.166 45.9163C24.9894 45.9163 25.7968 45.882 26.5827 45.8161V39.7744Z" fill="white"/>
<path d="M35.7137 30.7085L40.0463 35.0413H30.2077V39.8747H40.0463L35.7137 44.2075L39.1314 47.6251L49.298 37.458L39.1314 27.2909L35.7137 30.7085Z" fill="white"/>
</g>
<defs>
<clipPath id="clip0_912_66252">
<rect width="58" height="58" fill="white"/>
</clipPath>
</defs>
</svg>
