<?xml version="1.0" encoding="UTF-8"?>
<svg width="140px" height="18px" viewBox="0 0 140 18" version="1.1" xmlns="http://www.w3.org/2000/svg" xmlns:xlink="http://www.w3.org/1999/xlink">
    <!-- Generator: Sketch 52.6 (67491) - http://www.bohemiancoding.com/sketch -->
    <title>Logo / Atlassian / Horizontal / Gradient / Full color</title>
    <desc>Created with Sketch.</desc>
    <defs>
        <linearGradient x1="99.688196%" y1="15.8165294%" x2="39.8459817%" y2="97.439728%" id="linearGradient-1">
            <stop stop-color="#0052CC" offset="0%"></stop>
            <stop stop-color="#2684FF" offset="92%"></stop>
        </linearGradient>
    </defs>
    <g id="Jan-14:-Blog-Homepage" stroke="none" stroke-width="1" fill="none" fill-rule="evenodd">
        <g id="Blog-home" transform="translate(-42.000000, -22.000000)">
            <g id="Logo-/-Atlassian-/-Horizontal-/-Gradient-/-Full-color" transform="translate(42.000000, 22.000000)">
                <g id="Logo-/-Atlassian-/-Horizontal-/-Full-color">
                    <path d="M5.08087465,8.35411765 C4.97749133,8.21553885 4.81077351,8.14242119 4.64139964,8.16137651 C4.47202578,8.18033183 4.32469648,8.28859577 4.25303357,8.44676471 L0.0543270711,17.0364706 C-0.0238578102,17.195915 -0.0155730702,17.3854531 0.076210503,17.5371192 C0.167994076,17.6887854 0.330125074,17.7808478 0.504465661,17.7802941 L6.35109332,17.7802941 C6.542732,17.7854817 6.71928581,17.6743908 6.80123191,17.4970588 C8.05851555,14.8235294 7.29534955,10.7735294 5.08087465,8.35411765 Z" id="Shape" fill="url(#linearGradient-1)" fill-rule="nonzero"></path>
                    <path d="M8.16199569,0.529411765 C6.02552446,3.88083275 5.77478543,8.13670626 7.50230982,11.7264706 L10.3350785,17.4970588 C10.4204668,17.671198 10.5948099,17.7808978 10.7852171,17.7802941 L16.6318448,17.7802941 C16.8048027,17.7781128 16.9644737,17.6849542 17.0543928,17.5337622 C17.1443119,17.3825702 17.151805,17.1946554 17.0742224,17.0364706 L9.01570681,0.529411765 C8.93694263,0.361394704 8.77096969,0.254502624 8.58885125,0.254502624 C8.4067328,0.254502624 8.24075986,0.361394704 8.16199569,0.529411765 Z" id="Shape" fill="#2684FF" fill-rule="nonzero"></path>
                    <path d="M76.7408685,7.42764706 C76.7408685,9.54529412 77.7058208,11.2447059 81.4776717,11.9885294 C83.7283646,12.4702941 84.1991993,12.8435294 84.1991993,13.6111765 C84.1991993,14.3788235 83.7283646,14.8394118 82.1295966,14.8394118 C80.2132911,14.8039923 78.3353434,14.2838207 76.6632584,13.3252941 L76.6632584,16.7929412 C77.7989529,17.3620588 79.2994148,18 82.0959655,18 C86.0411457,18 87.6062827,16.2026471 87.6062827,13.5264706 M87.6062827,13.5264706 C87.6062827,11.0038235 86.299846,9.82058824 82.6107792,9.00794118 C80.5748075,8.54735294 80.0806899,8.08676471 80.0806899,7.41970588 C80.0806899,6.58588235 80.8102248,6.23647059 82.1502926,6.23647059 C83.7801047,6.23647059 85.3866338,6.74205882 86.9103788,7.44352941 L86.9103788,4.13735294 C85.4496067,3.45688298 83.8585266,3.11952192 82.2537727,3.15 C78.6086849,3.15 76.7227595,4.77264706 76.7227595,7.42764706" id="Shape" fill="#0052CC" fill-rule="nonzero"></path>
                    <polygon id="Shape" fill="#0052CC" fill-rule="nonzero" points="127.415091 3.36970588 127.415091 17.7802941 130.416015 17.7802941 130.416015 6.79235294 131.681059 9.70941176 135.926332 17.7802941 139.698183 17.7802941 139.698183 3.36970588 136.697259 3.36970588 136.697259 12.6714706 135.561565 9.97147059 132.151894 3.36970588"></polygon>
                    <polygon id="Rectangle-path" fill="#0052CC" fill-rule="nonzero" points="105.04786 3.36970588 108.32818 3.36970588 108.32818 17.7802941 105.04786 17.7802941"></polygon>
                    <path d="M101.263074,13.5264706 C101.263074,11.0038235 99.9566369,9.82058824 96.2675701,9.00794118 C94.2315984,8.54735294 93.7374808,8.08676471 93.7374808,7.41970588 C93.7374808,6.58588235 94.4670157,6.23647059 95.8070835,6.23647059 C97.4368956,6.23647059 99.0434247,6.74205882 100.56717,7.44352941 L100.56717,4.13735294 C99.1063976,3.45688298 97.5153175,3.11952192 95.9105636,3.15 C92.2654758,3.15 90.3795504,4.77264706 90.3795504,7.42764706 C90.3795504,9.54529412 91.3445026,11.2447059 95.1163536,11.9885294 C97.3670465,12.4702941 97.8378811,12.8435294 97.8378811,13.6111765 C97.8378811,14.3788235 97.3670465,14.8394118 95.7682784,14.8394118 C93.8519729,14.8039923 91.9740253,14.2838207 90.3019403,13.3252941 L90.3019403,16.7929412 C91.4376347,17.3620588 92.9380967,18 95.7346474,18 C99.6798275,18 101.244965,16.2026471 101.244965,13.5264706" id="Shape" fill="#0052CC" fill-rule="nonzero"></path>
                    <polygon id="Shape" fill="#0052CC" fill-rule="nonzero" points="51.2640591 3.36970588 51.2640591 17.7802941 58.00579 17.7802941 59.0664613 14.6673529 54.5650755 14.6673529 54.5650755 3.36970588"></polygon>
                    <polygon id="Shape" fill="#0052CC" fill-rule="nonzero" points="37.9435787 3.36970588 37.9435787 6.48529412 41.5886665 6.48529412 41.5886665 17.7802941 44.8896828 17.7802941 44.8896828 6.48529412 48.7908839 6.48529412 48.7908839 3.36970588"></polygon>
                    <path d="M33.1576224,3.36970588 L28.8321528,3.36970588 L23.9168463,17.7802941 L27.6809362,17.7802941 L28.3690791,15.3529412 C30.0866024,15.8704861 31.9135207,15.8704861 33.631044,15.3529412 L34.326948,17.7802941 L38.0781029,17.7802941 L33.1576224,3.36970588 Z M30.9948876,12.7561765 C30.3819853,12.757045 29.7721337,12.6679008 29.1839852,12.4914706 L30.9948876,6.19941176 L32.80579,12.4914706 C32.2176415,12.6679008 31.6077898,12.757045 30.9948876,12.7561765 Z" id="Shape" fill="#0052CC" fill-rule="nonzero"></path>
                    <path d="M69.6266092,3.36970588 L65.3011395,3.36970588 L60.3858331,17.7802941 L64.136988,17.7802941 L64.8380659,15.3529412 C66.5523606,15.8684095 68.3753881,15.8684095 70.0896828,15.3529412 L70.7855867,17.7802941 L74.5367416,17.7802941 L69.6266092,3.36970588 Z M67.4638743,12.7561765 C66.8509721,12.757045 66.2411205,12.6679008 65.652972,12.4914706 L67.4638743,6.19941176 L69.2747767,12.4914706 C68.6866282,12.6679008 68.0767766,12.757045 67.4638743,12.7561765 Z" id="Shape" fill="#0052CC" fill-rule="nonzero"></path>
                    <path d="M120.145611,3.36970588 L115.820142,3.36970588 L110.904835,17.7802941 L114.65599,17.7802941 L115.357068,15.3529412 C117.071363,15.8684095 118.89439,15.8684095 120.608685,15.3529412 L121.304589,17.7802941 L125.055744,17.7802941 L120.145611,3.36970588 Z M117.982877,12.7561765 C117.369974,12.757045 116.760123,12.6679008 116.171974,12.4914706 L117.982877,6.19941176 L119.793779,12.4914706 C119.20563,12.6679008 118.595779,12.757045 117.982877,12.7561765 Z" id="Shape" fill="#0052CC" fill-rule="nonzero"></path>
                </g>
            </g>
        </g>
    </g>
</svg>