<svg width="95" height="289" viewBox="0 0 95 289" fill="none" xmlns="http://www.w3.org/2000/svg">
<g clip-path="url(#clip0_1346_16571)">
<path d="M68.4624 252.245L68.4942 250.872C68.4942 250.872 69.4191 248.666 69.0933 247.649L70.2336 244.279C70.2336 244.279 70.459 242.822 70.2178 242.327C70.0671 242.017 69.8529 241.793 69.6194 241.711C69.146 241.54 68.6082 241.942 68.4147 243.35C68.3849 243.36 68.3393 243.412 68.2944 243.41C68.2631 244.93 67.2635 246.208 66.9437 247.703C67.0938 247.711 67.1909 247.782 67.1059 247.814L66.9311 247.765C67.0256 248.819 66.275 249.324 66.65 250.345C66.65 250.345 66.4408 250.192 66.4383 250.196C65.72 253.304 64.3512 257.442 63.7442 260.841L63.774 260.831L63.8003 260.844C64.0633 260.569 64.7255 259.14 64.7255 259.14C65.2969 260.42 64.0541 261.51 63.7742 262.702L63.5459 262.647C63.6899 262.136 63.706 261.661 63.6571 261.457C62.8445 263.234 61.8014 266.908 61.6892 268.741C61.8809 268.73 61.638 268.107 62.2486 268.081C62.1327 268.533 62.0991 268.999 61.9736 269.422C61.6001 269.351 61.7926 269.131 61.7379 269.066C61.1292 269.722 56.6879 284.598 59.2381 281.334L59.406 281.462C59.7368 280.557 60.0116 279.806 60.6426 278.918C60.6508 278.775 60.6894 278.769 60.496 278.731C60.4782 278.688 60.4372 278.62 60.3519 278.619C59.8843 278.542 60.1468 278.277 60.1681 278.141C61.5857 278.582 61.1137 275.186 61.281 274.778C61.9994 274.832 61.5303 273.961 61.8899 273.767C61.9087 273.79 62.0332 273.932 62.0613 273.951C62.5639 273.81 62.3284 269.858 62.9049 271.088C65.5486 266.981 65.918 258.689 68.4694 254.193L68.3762 254.212C68.4095 254.179 68.4054 254.055 68.5093 254.046C68.3551 253.524 68.4755 252.251 68.4755 252.251L68.4624 252.245ZM64.7147 262.959C64.7147 262.959 64.7453 262.974 64.759 262.971C64.6854 262.96 64.569 263.577 64.5455 263.595L64.3147 263.544C64.0313 262.844 65.9949 261.727 64.9449 262.942C64.9889 262.997 64.7975 262.965 64.7171 262.956L64.7147 262.959ZM63.2391 268.367C63.1882 268.47 63.1393 268.578 63.0849 268.703C62.7287 267.16 64.1426 265.44 64.2192 263.835C65.1081 264.56 64.2238 265.708 63.9887 266.356C64.0443 267.069 63.5502 267.804 63.2347 268.365L63.2391 268.367ZM60.6414 277.378L60.7611 277.405L60.7472 277.452C60.716 277.447 60.6786 277.434 60.666 277.418C60.6441 277.408 60.6296 277.387 60.637 277.375L60.6414 277.378ZM67.7222 252.882C67.8827 253.022 67.6703 253.393 67.3725 253.062C67.4542 253.008 67.3303 252.779 67.7222 252.882ZM62.5398 269.896C62.9221 269.97 62.8603 270.496 62.3333 270.397C62.3705 270.219 62.4564 270.056 62.5398 269.896ZM68.3587 248.971C67.989 248.756 68.4333 248.884 68.6961 248.887C68.6297 248.909 68.5734 249.029 68.3948 248.968L68.3587 248.971ZM68.7629 246.517C68.5761 246.443 68.4864 246.283 68.4946 246.219C68.689 246.083 68.9606 246.48 68.7629 246.517ZM69.7961 242.546C69.5741 242.499 69.5221 242.386 69.7526 242.403C69.9143 242.446 70.0163 242.587 69.7507 242.553C69.7595 242.558 69.7844 242.555 69.7961 242.546ZM61.0721 272.121C60.4379 271.853 61.113 271.487 60.9992 271.199C61.6471 271.386 61.0354 271.743 61.0994 271.958C61.0775 272.026 61.0699 272.081 61.0721 272.121ZM65.4324 256.543C64.8362 256.435 65.4547 255.998 65.3697 255.797L65.6029 255.845C65.5939 256.118 65.7025 256.301 65.4398 256.532L65.4324 256.543ZM62.1687 267.283C61.9589 267.139 62.2269 267.013 62.2529 266.914C62.584 266.979 62.5247 267.423 62.1687 267.283ZM63.4404 262.918C63.8106 262.968 63.5711 263.146 63.5941 263.216C63.5301 263.156 63.328 263.035 63.3444 262.985C63.3621 262.949 63.4026 262.949 63.4404 262.918ZM65.6074 256.782C65.5642 256.986 65.4932 257.205 65.4251 257.412L65.1943 257.36C65.2536 257.15 65.3129 256.939 65.3742 256.735L65.605 256.786L65.6074 256.782ZM64.6907 258.768L64.4618 258.722C64.3196 258.382 64.9218 258.463 64.6956 258.76L64.6907 258.768ZM66.0507 254.08C66.031 254.109 66.0015 254.154 65.993 254.184C65.9031 254.614 65.2163 253.853 66.0507 254.08ZM66.4215 251.815C66.3975 251.765 66.3452 251.696 66.3679 251.653C66.477 251.359 66.9507 251.799 66.4215 251.815Z" fill="white"/>
<path d="M75.4414 262.654L77.0605 262.679C77.0605 262.679 79.6677 263.461 80.8704 263.185L84.8539 264.15C84.8539 264.15 86.5759 264.341 87.1608 264.137C87.5278 264.009 87.7922 263.828 87.889 263.63C88.0918 263.23 87.6168 262.775 85.9517 262.611C85.9397 262.586 85.8789 262.547 85.8811 262.51C84.0845 262.483 82.5733 261.637 80.8065 261.367C80.7969 261.494 80.7135 261.576 80.675 261.504L80.7329 261.356C79.4876 261.436 78.8878 260.805 77.6806 261.122C77.6806 261.122 77.8616 260.945 77.8572 260.943C74.1835 260.335 69.2918 259.177 65.2733 258.664L65.2854 258.689L65.2706 258.711C65.5949 258.934 67.2844 259.494 67.2844 259.494C65.7709 259.977 64.4828 258.926 63.0736 258.689L63.1387 258.496C63.7431 258.618 64.3042 258.632 64.5448 258.59C62.4446 257.903 58.1012 257.02 55.9354 256.926C55.951 257.084 56.6841 256.882 56.7151 257.399C56.1813 257.301 55.63 257.272 55.1304 257.166C55.2138 256.85 55.4741 257.013 55.5509 256.967C54.7759 256.452 37.1906 252.695 41.0493 254.852L40.8973 254.994C41.9668 255.274 42.8547 255.506 43.9051 256.04C44.0733 256.047 44.0804 256.08 44.1258 255.916C44.1761 255.901 44.2568 255.866 44.2587 255.794C44.3489 255.399 44.662 255.621 44.8228 255.639C44.302 256.838 48.3169 256.439 48.7987 256.58C48.7345 257.188 49.7643 256.791 49.994 257.095C49.9662 257.111 49.7983 257.217 49.7767 257.24C49.9432 257.666 54.6141 257.466 53.161 257.954C58.0154 260.19 67.8175 260.503 73.1326 262.661L73.1102 262.582C73.149 262.611 73.2953 262.607 73.306 262.695C73.9226 262.565 75.4272 262.666 75.4272 262.666L75.4414 262.654ZM62.7762 259.483C62.7762 259.483 62.759 259.509 62.7628 259.521C62.7754 259.459 62.0461 259.36 62.0247 259.34L62.0854 259.145C62.9129 258.905 64.2333 260.566 62.7965 259.678C62.7314 259.715 62.7699 259.553 62.7806 259.485L62.7762 259.483ZM56.3837 258.235C56.2626 258.192 56.1346 258.151 55.9867 258.105C57.8111 257.803 59.8439 258.999 61.7417 259.064C60.8847 259.816 59.5275 259.068 58.7612 258.869C57.9179 258.916 57.0496 258.498 56.3862 258.231L56.3837 258.235ZM45.7327 256.037L45.6999 256.139L45.6443 256.127C45.6504 256.101 45.6657 256.069 45.6843 256.058C45.6966 256.04 45.722 256.028 45.7351 256.034L45.7327 256.037ZM74.6885 262.028C74.5233 262.163 74.0842 261.984 74.4763 261.732C74.5397 261.801 74.811 261.696 74.6885 262.028ZM54.577 257.643C54.4887 257.967 53.8668 257.915 53.9846 257.469C54.1941 257.5 54.3877 257.573 54.577 257.643ZM79.3124 262.566C79.5664 262.253 79.4144 262.629 79.4106 262.851C79.3846 262.795 79.2435 262.748 79.3152 262.597L79.3124 262.566ZM82.2125 262.908C82.3002 262.75 82.4889 262.674 82.5649 262.681C82.7263 262.845 82.2568 263.075 82.2125 262.908ZM86.907 263.782C86.9628 263.594 87.0957 263.55 87.0754 263.745C87.0249 263.882 86.8581 263.968 86.898 263.744C86.893 263.751 86.8963 263.772 86.907 263.782ZM51.9486 256.408C52.265 255.871 52.6974 256.442 53.0378 256.346C52.8175 256.894 52.3955 256.377 52.1406 256.431C52.0608 256.412 51.9959 256.406 51.9486 256.408ZM70.3628 260.096C70.4907 259.592 71.0068 260.115 71.2447 260.043L71.1883 260.241C70.8651 260.233 70.6486 260.325 70.3759 260.103L70.3671 260.098L70.3628 260.096ZM57.6673 257.335C57.8371 257.158 57.9858 257.385 58.1037 257.407C58.0269 257.687 57.5016 257.637 57.6673 257.335ZM62.8267 258.411C62.7682 258.724 62.5573 258.522 62.4753 258.541C62.5458 258.487 62.6883 258.316 62.7482 258.33C62.79 258.345 62.7903 258.379 62.8267 258.411ZM70.08 260.244C69.8394 260.208 69.5799 260.148 69.3359 260.09L69.3966 259.895C69.6455 259.945 69.8943 259.995 70.1363 260.047L70.0757 260.242L70.08 260.244ZM67.7331 259.469L67.787 259.275C68.1895 259.155 68.0928 259.664 67.7419 259.473L67.7331 259.469ZM73.2749 260.619C73.2399 260.603 73.1873 260.578 73.1518 260.571C72.6437 260.494 73.5425 259.914 73.2749 260.619ZM75.9518 260.933C76.0114 260.913 76.0926 260.868 76.1432 260.888C76.4907 260.98 75.9709 261.381 75.9518 260.933Z" fill="white"/>
<path d="M73.7026 256.473L74.8699 255.523C74.8699 255.523 77.3667 254.514 77.9838 253.594L81.602 251.886C81.602 251.886 82.9753 250.989 83.2197 250.492C83.3722 250.184 83.4047 249.893 83.3104 249.697C83.1178 249.294 82.4027 249.26 81.0891 250.136C81.0585 250.121 80.9814 250.133 80.9538 250.106C79.6634 251.163 77.8901 251.474 76.4152 252.341C76.5131 252.436 76.527 252.545 76.4365 252.517L76.3569 252.377C75.5421 253.178 74.5962 253.093 74.0092 254.037C74.0092 254.037 73.9867 253.802 73.9843 253.806C70.8859 255.582 66.4622 257.696 63.1978 259.739L63.2285 259.754L63.2386 259.773C63.6567 259.733 65.3174 259.115 65.3174 259.115C64.6543 260.364 62.8613 260.392 61.6694 261.068L61.549 260.894C62.0773 260.619 62.485 260.291 62.6162 260.12C60.5602 260.891 56.7531 262.875 55.1472 264.104C55.2919 264.207 55.6377 263.626 56.0901 263.968C55.6307 264.217 55.2172 264.527 54.777 264.756C54.5724 264.483 54.894 264.441 54.9052 264.364C53.9284 264.464 38.372 272.357 42.9017 271.565L42.9132 271.755C43.9053 271.311 44.7267 270.942 45.9146 270.688C46.0371 270.591 46.074 270.613 45.9676 270.47C45.9903 270.427 46.0215 270.354 45.9569 270.304C45.6884 269.972 46.0947 269.941 46.2254 269.857C46.86 271.016 49.3613 268.328 49.8218 268.138C50.2894 268.604 50.6782 267.707 51.0941 267.783C51.0925 267.812 51.0621 267.988 51.0605 268.016C51.5366 268.218 54.6616 265.276 54.0457 266.488C59.3438 265.155 66.5222 259.503 72.0823 257.837L71.9991 257.797C72.0533 257.793 72.1509 257.699 72.2329 257.757C72.5586 257.293 73.7051 256.47 73.7051 256.47L73.7026 256.473ZM62.1089 261.827C62.1089 261.827 62.1228 261.858 62.1316 261.863C62.0919 261.81 61.4909 262.177 61.4573 262.175L61.3345 262.005C61.7189 261.34 64.0414 261.719 62.2836 261.954C62.2686 262.02 62.1598 261.881 62.1089 261.827ZM56.5493 264.776C56.43 264.816 56.2991 264.866 56.1632 264.923C57.1981 263.618 59.6359 263.243 61.0293 262.152C61.0546 263.197 59.4716 263.481 58.7631 263.802C58.2083 264.342 57.2425 264.565 56.5536 264.778L56.5493 264.776ZM47.1904 269.61L47.2503 269.702L47.1995 269.726C47.1806 269.702 47.1667 269.671 47.1677 269.652C47.1601 269.629 47.1705 269.605 47.1861 269.608L47.1904 269.61ZM72.6392 256.479C72.6345 256.677 72.1773 256.81 72.2394 256.396C72.3422 256.406 72.4411 256.17 72.6392 256.479ZM54.7757 265.442C54.9822 265.721 54.5018 266.062 54.2116 265.676C54.3882 265.575 54.5832 265.507 54.7757 265.442ZM76.3483 254.088C76.2619 253.715 76.4752 254.07 76.6571 254.23C76.5909 254.208 76.4487 254.257 76.3765 254.106L76.3415 254.089L76.3483 254.088ZM78.6843 252.592C78.6108 252.426 78.681 252.26 78.7417 252.22C78.9947 252.238 78.8544 252.683 78.6843 252.592ZM82.7307 250.396C82.6123 250.227 82.6681 250.117 82.8144 250.27C82.897 250.397 82.8472 250.558 82.687 250.375C82.6957 250.379 82.7083 250.395 82.7263 250.394L82.7307 250.396ZM51.8853 266.143C51.664 265.575 52.4423 265.721 52.602 265.446C52.9069 265.966 52.1763 265.852 52.0439 266.043C51.9745 266.078 51.9231 266.112 51.8853 266.143ZM67.9697 257.707C67.6394 257.277 68.4387 257.331 68.5486 257.14L68.6714 257.31C68.4381 257.496 68.3594 257.693 67.9815 257.698L67.9766 257.705L67.9697 257.707ZM56.6998 263.371C56.6724 263.144 56.965 263.215 57.0673 263.156C57.2486 263.403 56.8349 263.679 56.6954 263.369L56.6998 263.371ZM61.2419 261.035C61.4632 261.291 61.1449 261.276 61.1031 261.339C61.1099 261.26 61.0634 261.052 61.1211 261.026C61.1602 261.011 61.1946 261.037 61.2463 261.037L61.2419 261.035ZM67.8978 257.98C67.6933 258.097 67.4664 258.213 67.2468 258.318L67.1264 258.144C67.3466 258.029 67.5642 257.919 67.7775 257.806L67.8978 257.98ZM65.5941 258.838L65.4669 258.665C65.6542 258.34 66.01 258.758 65.599 258.83L65.5941 258.838ZM70.4698 256.329C70.4356 256.337 70.3697 256.349 70.3418 256.365C69.9205 256.618 70.0672 255.67 70.4698 256.329ZM72.6218 254.946C72.6469 254.899 72.6674 254.816 72.7202 254.798C73.0409 254.653 73.009 255.247 72.6218 254.946Z" fill="white"/>
<path d="M66.4647 270.759L67.3656 271.899C67.3656 271.899 68.0987 274.158 69.0531 274.836L70.395 278.154C70.395 278.154 71.192 279.459 71.7305 279.749C72.0639 279.932 72.392 280.01 72.6395 279.967C73.1413 279.88 73.3146 279.29 72.5212 278.04C72.5384 278.014 72.5441 277.954 72.5813 277.932C71.5773 276.67 71.5375 275.136 70.7922 273.753C70.6626 273.818 70.533 273.806 70.586 273.743L70.7637 273.701C69.9726 272.881 70.2465 272.105 69.248 271.45C69.248 271.45 69.5253 271.475 69.5209 271.473C68.0087 268.575 66.3383 264.521 64.5425 261.435L64.5252 261.461L64.496 261.462C64.4689 261.814 64.8864 263.309 64.8908 263.311C63.5551 262.539 63.8437 261.039 63.2694 259.928L63.4936 259.859C63.7217 260.348 64.0269 260.747 64.203 260.889C63.6713 259.038 62.0444 255.516 60.9023 253.959C60.7549 254.059 61.3707 254.45 60.8895 254.767C60.6781 254.34 60.3909 253.94 60.2076 253.531C60.5653 253.409 60.5538 253.686 60.6424 253.709C60.6992 252.878 54.2973 238.519 54.4092 242.431L54.1836 242.407C54.5228 243.309 54.8054 244.062 54.8853 245.094C54.9728 245.214 54.9488 245.241 55.1301 245.176C55.1782 245.199 55.2569 245.237 55.3264 245.201C55.7628 245.039 55.7251 245.381 55.799 245.504C54.3352 245.826 57.0153 248.388 57.1532 248.804C56.5267 249.105 57.5033 249.594 57.3403 249.926C57.3048 249.919 57.1082 249.859 57.077 249.854C56.7574 250.214 59.6208 253.34 58.3185 252.613C58.9209 257.26 64.2165 264.247 65.1629 269.165L65.2272 269.103C65.22 269.149 65.3111 269.246 65.2269 269.303C65.7055 269.657 66.4647 270.759 66.4647 270.759ZM62.3054 260.157C62.3054 260.157 62.2713 260.165 62.262 260.17C62.3309 260.144 62.0081 259.582 62.0166 259.551L62.2365 259.481C62.9418 259.919 62.0882 261.783 62.1253 260.28C62.0503 260.254 62.236 260.192 62.3054 260.157ZM59.8665 255.006C59.8389 254.9 59.8074 254.783 59.7653 254.656C61.098 255.753 61.0987 257.848 62.1221 259.202C60.8998 259.04 60.8551 257.669 60.607 257.02C60.0794 256.462 59.9885 255.619 59.8665 255.006ZM55.9142 246.353L55.7974 246.39L55.7753 246.346C55.8075 246.332 55.8436 246.329 55.8636 246.334C55.8929 246.333 55.9147 246.344 55.9117 246.357L55.9142 246.353ZM66.6462 269.871C66.4168 269.835 66.3437 269.425 66.8105 269.555C66.7832 269.639 67.0389 269.766 66.6462 269.871ZM59.4127 253.401C59.0482 253.525 58.7399 253.062 59.2466 252.889C59.3339 253.052 59.3777 253.229 59.4127 253.401ZM68.7656 273.389C69.2151 273.388 68.7639 273.495 68.5433 273.619C68.5777 273.567 68.5468 273.44 68.7352 273.408L68.7656 273.389ZM70.0904 275.597C70.2944 275.568 70.4782 275.655 70.5154 275.712C70.4473 275.918 69.9551 275.723 70.0904 275.597ZM71.926 279.36C72.1434 279.293 72.2566 279.356 72.0575 279.457C71.8954 279.501 71.7149 279.435 71.9588 279.337C71.9495 279.342 71.9309 279.353 71.9279 279.366L71.926 279.36ZM59.1064 250.873C59.8081 250.788 59.5024 251.412 59.791 251.594C59.1366 251.755 59.3952 251.167 59.1991 251.02C59.1669 250.956 59.1428 250.905 59.1133 250.872L59.1064 250.873ZM66.0507 265.768C66.6127 265.572 66.4019 266.227 66.6084 266.35L66.3861 266.424C66.208 266.198 65.9936 266.096 66.0589 265.782L66.0551 265.77L66.0507 265.768ZM61.4747 255.376C61.7433 255.397 61.6088 255.625 61.655 255.72C61.3364 255.827 61.0892 255.437 61.4747 255.376ZM63.3817 259.577C63.0478 259.716 63.1192 259.452 63.0566 259.408C63.1476 259.427 63.3992 259.43 63.4189 259.478C63.4304 259.513 63.3932 259.534 63.3861 259.579L63.3817 259.577ZM65.7466 265.662C65.6474 265.474 65.5516 265.263 65.469 265.058L65.6932 264.989C65.7895 265.191 65.879 265.394 65.9709 265.594L65.7466 265.662ZM65.1601 263.59L65.3825 263.516C65.7254 263.728 65.1774 263.954 65.1664 263.598L65.1621 263.596L65.1601 263.59ZM67.2091 268.097C67.2063 268.067 67.2028 268.012 67.1864 267.984C66.9708 267.589 68.0442 267.881 67.2091 268.097ZM68.436 270.133C68.4885 270.158 68.5809 270.192 68.5894 270.24C68.6983 270.536 68.016 270.401 68.436 270.133Z" fill="white"/>
</g>
<g clip-path="url(#clip1_1346_16571)">
<path d="M62.82 39.6046L64.5155 37.7791C64.5155 37.7791 68.2382 35.7405 69.0943 34.0312L74.4699 30.6376C74.4699 30.6376 76.4876 28.8973 76.8092 27.9814C77.0117 27.4074 77.0368 26.886 76.8685 26.5366C76.534 25.8207 75.4331 25.8147 73.5101 27.5226C73.4637 27.5059 73.3494 27.5287 73.3004 27.4804C71.4286 29.5045 68.7404 30.2125 66.5689 31.9077C66.7309 32.0721 66.7568 32.2667 66.6201 32.2239L66.4793 31.979C65.3149 33.5007 63.8455 33.4173 63.041 35.1821C63.041 35.1821 62.9866 34.7612 62.9793 34.7637C58.4032 38.2339 51.838 42.4334 47.0369 46.412L47.0833 46.4287L47.0983 46.4724C47.7307 46.37 50.215 45.1132 50.215 45.1132C49.3222 47.4292 46.5837 47.6334 44.8234 48.96L44.6286 48.6522C45.411 48.1078 46.0029 47.4821 46.1927 47.1566C43.1167 48.7299 37.4845 52.6346 35.1429 54.9985C35.3757 55.1794 35.8494 54.0894 36.5799 54.6779C35.9017 55.1704 35.3 55.767 34.6458 56.2105C34.3035 55.7334 34.7898 55.6322 34.8058 55.4883C33.3172 55.7533 10.2645 71.3399 17.1261 69.5299L17.1629 69.8755C18.6344 68.9895 19.8562 68.2541 21.6517 67.6968C21.833 67.5127 21.8844 67.544 21.7095 67.2945C21.7405 67.2188 21.776 67.0845 21.6803 66.9952C21.2374 66.4141 21.8577 66.324 22.0464 66.1617C23.1366 68.2064 26.6991 63.1293 27.3829 62.7489C28.1395 63.5564 28.655 61.8986 29.3012 62.0031C29.2943 62.0543 29.2652 62.3736 29.2753 62.4271C30.0207 62.7501 34.5242 57.1638 33.6992 59.416C41.6852 56.562 52.1244 45.7217 60.4758 42.2462L60.3461 42.1766C60.424 42.1662 60.5688 41.9946 60.6986 42.0886C61.1522 41.2252 62.8275 39.6264 62.8275 39.6264L62.82 39.6046ZM45.5888 50.2693C45.5888 50.2693 45.6062 50.3203 45.6258 50.3299C45.5545 50.2403 44.6759 50.956 44.6272 50.9564L44.4251 50.6511C44.9464 49.4145 48.5428 49.9099 45.873 50.4814C45.8569 50.6008 45.6772 50.3611 45.5961 50.2668L45.5888 50.2693ZM37.3678 56.0771C37.1858 56.1638 36.999 56.2602 36.7856 56.374C38.2423 53.922 41.9376 53.0405 43.9647 50.947C44.1061 52.8359 41.7073 53.4856 40.6552 54.1223C39.857 55.1442 38.4044 55.633 37.3653 56.0698L37.3678 56.0771ZM23.5108 65.6119L23.6144 65.7719L23.5417 65.8212C23.5122 65.7824 23.4849 65.7266 23.4895 65.6925C23.4771 65.656 23.4865 65.6121 23.5083 65.6046L23.5108 65.6119ZM61.2036 39.7098C61.2185 40.0629 60.5266 40.3484 60.5865 39.5953C60.7449 39.6063 60.8803 39.1692 61.2036 39.7098ZM34.7212 57.4302C35.0684 57.9219 34.3623 58.5705 33.8797 57.8972C34.1362 57.6954 34.4323 57.5616 34.7212 57.4302ZM66.6571 35.0685C66.4935 34.4 66.8467 35.028 67.1436 35.3009C67.041 35.2628 66.8323 35.3667 66.7012 35.1022L66.6571 35.0685ZM70.0831 32.1626C69.959 31.8713 70.0492 31.5637 70.1362 31.4851C70.5236 31.4991 70.3547 32.3139 70.0831 32.1626ZM76.0628 27.846C75.8657 27.5552 75.942 27.35 76.1852 27.6087C76.3184 27.8318 76.2647 28.1269 76.0016 27.8099C76.0066 27.8245 76.0385 27.8462 76.0628 27.846ZM30.3537 58.9405C29.9512 57.9305 31.1657 58.1255 31.3834 57.6196C31.8996 58.5338 30.7683 58.3917 30.5812 58.7488C30.4745 58.8178 30.3996 58.8841 30.3537 58.9405ZM54.1607 42.3226C53.6092 41.567 54.8444 41.6085 54.9902 41.2493L55.1996 41.5521C54.859 41.9128 54.7619 42.2716 54.1826 42.3151L54.1607 42.3226ZM37.4524 53.5166C37.3859 53.1079 37.8446 53.2115 37.9948 53.1031C38.2953 53.5294 37.6906 54.07 37.4524 53.5166ZM44.1801 48.9115C44.544 49.3568 44.0544 49.3533 43.9969 49.4707C43.9958 49.3246 43.91 48.955 43.99 48.9032C44.0531 48.8735 44.0997 48.9146 44.1801 48.9115ZM54.0721 42.825C53.7768 43.0563 53.4302 43.2807 53.1031 43.4903L52.901 43.185C53.2231 42.9608 53.5453 42.7366 53.8627 42.5222L54.0648 42.8275L54.0721 42.825ZM50.6248 44.5741L50.4179 44.2786C50.6664 43.6726 51.2567 44.3987 50.6394 44.5691L50.6248 44.5741ZM57.8441 39.6218C57.7858 39.6417 57.6984 39.6716 57.6524 39.7036C57.0302 40.1932 57.1628 38.4629 57.8441 39.6218ZM61.004 36.9372C61.0374 36.8444 61.0606 36.6981 61.1382 36.6634C61.6182 36.377 61.6292 37.456 61.004 36.9372Z" fill="white"/>
<path d="M58.2299 60.8167L60.0528 62.5049C60.0528 62.5049 62.0915 66.2276 63.8007 67.0837L67.1944 72.4593C67.1944 72.4593 68.9347 74.477 69.8506 74.7986C70.4245 75.0011 70.946 75.0262 71.2954 74.8579C72.0113 74.5234 72.0172 73.4225 70.3094 71.4996C70.326 71.4531 70.3032 71.3389 70.3516 71.2898C68.3274 69.418 67.6195 66.7298 65.9242 64.5583C65.7599 64.7204 65.5652 64.7462 65.608 64.6095L65.8529 64.4688C64.3312 63.3043 64.4074 61.8374 62.6425 61.0329C62.6425 61.0329 63.0635 60.9785 63.061 60.9712C59.5908 56.3951 55.3913 49.8299 51.4127 45.0288L51.396 45.0752L51.3523 45.0902C51.4547 45.7226 52.7115 48.2069 52.7115 48.2069C50.3955 47.3141 50.1913 44.5756 48.8646 42.8153L49.1724 42.6205C49.7169 43.4029 50.3426 43.9948 50.668 44.1846C49.0948 41.1086 45.19 35.4764 42.8261 33.1348C42.6526 33.3651 43.7353 33.8413 43.1467 34.5718C42.6543 33.8936 42.0577 33.2918 41.6141 32.6377C42.0913 32.2954 42.1925 32.7817 42.3363 32.7977C42.0713 31.3091 26.4848 8.25638 28.2948 15.118L27.9492 15.1548C28.8351 16.6263 29.5706 17.8481 30.1278 19.6436C30.3119 19.8249 30.2807 19.8763 30.5302 19.7014C30.6059 19.7324 30.7401 19.7679 30.8295 19.6722C31.4106 19.2293 31.5007 19.8496 31.6629 20.0383C29.6183 21.1285 34.6953 24.691 35.0758 25.3748C34.2682 26.1313 35.9261 26.6469 35.8216 27.2931C35.7704 27.2862 35.4511 27.2571 35.3976 27.2672C35.0746 28.0126 40.6608 32.5161 38.4087 31.6911C41.2627 39.6771 52.103 50.1163 55.5785 58.4677L55.6481 58.338C55.6584 58.4159 55.8301 58.5607 55.7361 58.6905C56.5994 59.1441 58.1982 60.8194 58.1982 60.8194L58.2299 60.8167ZM47.5652 43.5855C47.5652 43.5855 47.5142 43.6029 47.5046 43.6225C47.5941 43.5511 46.8785 42.6726 46.8781 42.6239L47.1834 42.4218C48.4199 42.9431 47.9245 46.5395 47.3531 43.8697C47.2336 43.8536 47.4733 43.6739 47.5677 43.5928L47.5652 43.5855ZM41.7573 35.3645C41.6707 35.1825 41.5742 34.9957 41.4605 34.7823C43.9124 36.239 44.794 39.9343 46.8875 41.9614C44.9985 42.1028 44.3489 39.704 43.7122 38.6519C42.6903 37.8537 42.2015 36.401 41.7646 35.362L41.7573 35.3645ZM32.2225 21.5075L32.0626 21.6111L32.0133 21.5384C32.052 21.5089 32.1078 21.4816 32.142 21.4862C32.1784 21.4738 32.2223 21.4832 32.2298 21.505L32.2225 21.5075ZM58.1246 59.2003C57.7716 59.2152 57.486 58.5233 58.2391 58.5832C58.2282 58.7416 58.6652 58.877 58.1246 59.2003ZM40.4042 32.7179C39.9125 33.0651 39.264 32.359 39.9373 31.8763C40.139 32.1329 40.2729 32.429 40.4042 32.7179ZM62.766 64.6538C63.4345 64.4902 62.8064 64.8434 62.5335 65.1403C62.5717 65.0377 62.4677 64.829 62.7322 64.6979L62.766 64.6538ZM65.6718 68.0798C65.9631 67.9557 66.2707 68.0459 66.3493 68.1329C66.3353 68.5203 65.5205 68.3514 65.6718 68.0798ZM69.9885 74.0595C70.2792 73.8624 70.4844 73.9387 70.2257 74.1819C70.0027 74.3151 69.7075 74.2614 70.0245 73.9983C70.01 74.0033 69.9883 74.0352 69.9885 74.0595ZM38.8891 28.3602C39.8992 27.9577 39.7041 29.1722 40.21 29.3898C39.2959 29.9061 39.438 28.7748 39.0809 28.5876C39.0119 28.481 38.9455 28.406 38.8891 28.3602ZM55.5071 52.1672C56.2626 51.6157 56.2212 52.8509 56.5804 52.9966L56.2776 53.206C55.9169 52.8654 55.5581 52.7684 55.5145 52.1891L55.5095 52.1745L55.5071 52.1672ZM44.3131 35.4589C44.7217 35.3924 44.6182 35.8511 44.7265 36.0012C44.3002 36.3017 43.7596 35.6971 44.3131 35.4589ZM48.9182 42.1865C48.4729 42.5505 48.4763 42.0609 48.3589 42.0034C48.5051 42.0022 48.8746 41.9165 48.9264 41.9965C48.9561 42.0596 48.9151 42.1062 48.9182 42.1865ZM55.0046 52.0786C54.7733 51.7833 54.549 51.4367 54.3394 51.1096L54.6447 50.9074C54.8689 51.2296 55.093 51.5518 55.3074 51.8692L55.0021 52.0713L55.0046 52.0786ZM53.2555 48.6313L53.551 48.4244C54.157 48.6729 53.431 49.2632 53.2605 48.6459L53.2555 48.6313ZM58.2079 55.8506C58.188 55.7923 58.158 55.7049 58.126 55.6588C57.6364 55.0367 59.3668 55.1693 58.2079 55.8506ZM60.8924 59.0105C60.9853 59.0438 61.1316 59.067 61.1663 59.1447C61.4526 59.6247 60.3737 59.6356 60.8924 59.0105Z" fill="white"/>
<path d="M63.7098 50.679L66.1934 50.5864C66.1934 50.5864 70.2703 51.7722 72.0873 51.1587L78.2921 52.5446C78.2921 52.5446 80.946 52.7356 81.8268 52.3122C82.3728 52.0522 82.7621 51.6911 82.8908 51.3296C83.1577 50.5871 82.3795 49.8113 79.8184 49.6537C79.801 49.6026 79.6982 49.5401 79.7001 49.4743C76.9463 49.5861 74.5411 48.1948 71.8057 47.8606C71.8026 48.0896 71.687 48.2513 71.6177 48.1203L71.696 47.8493C69.7957 48.1005 68.8154 47.0195 67.0037 47.6962C67.0037 47.6962 67.2617 47.3556 67.2544 47.3581C61.5636 46.5942 53.9464 44.9345 47.7432 44.3621L47.7607 44.4131L47.7488 44.4497C48.2754 44.8231 50.9224 45.684 50.9224 45.684C48.6554 46.6956 46.5686 44.9023 44.3887 44.5979L44.4614 44.2393C45.398 44.4073 46.2601 44.3811 46.6173 44.2833C43.3331 43.2252 36.5793 42.019 33.2572 42.0403C33.2985 42.3274 34.396 41.8949 34.5007 42.8196C33.6739 42.6873 32.8263 42.6842 32.0458 42.5442C32.1411 41.9662 32.5598 42.2382 32.6662 42.1448C31.427 41.2825 4.08966 36.0634 10.2311 39.6199L10.014 39.8895C11.6857 40.3026 13.0718 40.6425 14.7373 41.5135C14.9954 41.5066 15.0106 41.5747 15.0618 41.2723C15.1394 41.2376 15.2631 41.1708 15.2499 41.037C15.3441 40.3129 15.8463 40.6864 16.0974 40.7064C15.423 42.9233 21.5329 41.8425 22.2896 42.0558C22.2618 43.1642 23.7898 42.3485 24.174 42.8764C24.1377 42.9132 23.8909 43.1198 23.8547 43.1566C24.1553 43.9166 31.2856 43.1299 29.1161 44.1407C36.7899 47.7509 51.8325 47.4403 60.2088 50.8672L60.1615 50.7288C60.2276 50.7794 60.4539 50.7508 60.4771 50.9138C61.4101 50.6191 63.7171 50.6765 63.7171 50.6765L63.7098 50.679ZM43.9741 46.0748C43.9741 46.0748 43.9526 46.1309 43.9576 46.1455C43.9762 46.0333 42.8452 45.9156 42.8083 45.8793L42.8737 45.5232C44.1168 45.0166 46.317 47.9026 44.0207 46.4251C43.9239 46.499 43.9678 46.199 43.9741 46.0748ZM34.0502 44.382C33.8645 44.3153 33.6545 44.2487 33.43 44.1872C36.1913 43.4786 39.4341 45.4625 42.3468 45.4104C41.1134 46.8498 38.958 45.6173 37.7598 45.3271C36.4726 45.4907 35.0984 44.8049 34.0527 44.3893L34.0502 44.382ZM17.5005 41.3579L17.4581 41.5433L17.3703 41.5245C17.3772 41.4733 17.3987 41.4171 17.4229 41.3926C17.442 41.3535 17.4833 41.3312 17.498 41.3506L17.5005 41.3579ZM62.4859 49.5998C62.242 49.8624 61.5578 49.5755 62.1287 49.079C62.2343 49.1975 62.6321 48.98 62.4859 49.5998ZM31.2152 43.4714C31.1151 44.0592 30.1528 44.0302 30.2876 43.2108C30.6119 43.2545 30.9172 43.3617 31.2152 43.4714ZM69.6194 50.1551C69.9704 49.563 69.7859 50.261 69.8012 50.6628C69.7518 50.5657 69.5295 50.4871 69.6296 50.2086L69.6097 50.1504L69.6194 50.1551ZM74.099 50.5194C74.216 50.2189 74.4973 50.0657 74.6143 50.0745C74.882 50.3574 74.1842 50.8159 74.099 50.5194ZM81.3835 51.6824C81.4513 51.3336 81.6479 51.2419 81.6312 51.5977C81.5723 51.8539 81.3204 52.0215 81.3585 51.6096C81.3635 51.6241 81.3589 51.6583 81.381 51.6751L81.3835 51.6824ZM27.0613 41.4654C27.4943 40.4707 28.2085 41.4637 28.7232 41.2551C28.4438 42.2705 27.745 41.3699 27.3635 41.4923C27.2416 41.4689 27.1416 41.4624 27.0613 41.4654ZM55.6587 46.4896C55.8001 45.5702 56.6498 46.4599 57.0067 46.3134L56.9413 46.6695C56.4494 46.6831 56.1221 46.8683 55.6831 46.4894L55.6685 46.4944L55.6587 46.4896ZM35.9192 42.6356C36.1626 42.3 36.4117 42.695 36.5994 42.7204C36.5085 43.2399 35.7019 43.1902 35.9167 42.6283L35.9192 42.6356ZM43.9392 44.1168C43.8829 44.6896 43.5367 44.344 43.4128 44.3864C43.5168 44.2857 43.7139 43.9578 43.8115 43.9814C43.875 44.0004 43.8829 44.0709 43.9417 44.1241L43.9392 44.1168ZM55.247 46.7851C54.8715 46.7344 54.4715 46.6597 54.0933 46.5774L54.166 46.2188C54.5563 46.2888 54.9392 46.3613 55.3197 46.4265L55.247 46.7851ZM51.5744 45.5912L51.6373 45.2278C52.2443 44.9795 52.1468 45.9083 51.589 45.5863L51.5744 45.5912ZM60.1847 47.1798C60.1358 47.1559 60.0453 47.1054 59.9941 47.0985C59.2067 47.0097 60.5204 45.8766 60.1847 47.1798ZM64.3182 47.5078C64.4031 47.4706 64.5266 47.3795 64.6097 47.4081C65.1514 47.5403 64.3975 48.311 64.3182 47.5078Z" fill="white"/>
<path d="M38.1719 62.6076L37.8259 65.0703C37.8259 65.0703 35.9365 68.875 36.2095 70.7678L33.7371 76.6279C33.7371 76.6279 33.0729 79.2076 33.3385 80.1506C33.499 80.7387 33.7802 81.1798 34.1154 81.3745C34.7956 81.7686 35.7065 81.1476 36.3079 78.6464C36.359 78.6289 36.4387 78.5528 36.507 78.562C36.8825 75.8287 38.6902 73.7125 39.5074 71.0805C39.2805 71.036 39.1478 70.886 39.284 70.8557L39.5383 70.9804C39.6231 69.0628 40.8738 68.2931 40.5227 66.3863C40.5227 66.3863 40.8102 66.7031 40.8077 66.6958C42.5769 61.231 45.5625 54.0394 47.2349 48.0297L47.1838 48.0471L47.1495 48.0182C46.6927 48.4675 45.365 50.916 45.3675 50.9233C44.7713 48.5142 46.9133 46.7803 47.5983 44.69L47.9379 44.8262C47.6088 45.7202 47.4767 46.5713 47.5064 46.9437C49.1338 43.8961 51.5263 37.4691 52.0998 34.196C51.8098 34.1812 52.043 35.3387 51.1096 35.2754C51.3835 34.4817 51.5377 33.6475 51.8217 32.9072C52.3786 33.1075 52.0307 33.4707 52.1048 33.5919C53.1729 32.5264 63.1914 6.5592 58.5939 11.9659L58.3653 11.7022C57.664 13.269 57.0775 14.5767 55.9225 16.0544C55.8782 16.3057 55.8174 16.3183 56.1031 16.4159C56.1305 16.4961 56.1754 16.6273 56.2974 16.6507C56.9933 16.8766 56.5363 17.3015 56.4725 17.5432C54.4084 16.4828 54.3817 22.6866 54.0365 23.3908C52.9556 23.1582 53.4826 24.8176 52.8954 25.0999C52.8634 25.0538 52.7101 24.7725 52.6806 24.7338C51.8805 24.8935 51.3814 32.0485 50.7689 29.7346C45.8447 36.6369 43.4649 51.5009 38.6072 59.1212L38.7557 59.103C38.6928 59.1571 38.6799 59.3812 38.5142 59.3728C38.6339 60.3413 38.1719 62.6076 38.1719 62.6076ZM46.2193 44.014C46.2193 44.014 46.1704 43.99 46.1533 43.9877C46.2632 44.0234 46.5737 42.9322 46.6197 42.9002L46.9569 43.029C47.2351 44.3421 44.0062 45.9921 45.8636 43.9973C45.8091 43.8857 46.0973 43.9906 46.2193 44.014ZM49.6499 34.5538C49.746 34.3825 49.8516 34.1917 49.9571 33.9765C50.1573 36.8222 47.627 39.6577 47.1625 42.5354C45.9599 41.0664 47.5647 39.1662 48.0648 38.0346C48.135 36.7407 49.0485 35.5084 49.6499 34.5538ZM55.5788 18.8094L55.4004 18.7402L55.429 18.6572C55.4827 18.6713 55.5268 18.7051 55.5441 18.7318C55.5784 18.7607 55.5909 18.7972 55.5715 18.8119L55.5788 18.8094ZM39.4523 61.5916C39.2333 61.3084 39.6449 60.6792 40.0227 61.3314C39.8894 61.4177 40.0292 61.8501 39.4523 61.5916ZM51.0687 31.9194C50.502 31.7144 50.7089 30.7726 51.4979 31.0563C51.4004 31.3664 51.237 31.6502 51.0687 31.9194ZM37.6289 68.5159C38.1439 68.9746 37.4984 68.6582 37.0961 68.6004C37.1981 68.5655 37.3159 68.3625 37.5704 68.5115L37.6289 68.5159ZM36.4768 72.858C36.746 73.0263 36.8507 73.3324 36.8249 73.4471C36.4977 73.6567 36.1702 72.8896 36.4768 72.858ZM34.0326 79.8236C34.3624 79.955 34.4151 80.1567 34.0663 80.0888C33.8268 79.9836 33.7004 79.7093 34.0983 79.8255C34.0813 79.8232 34.0471 79.8186 34.0278 79.8334L34.0326 79.8236ZM53.7721 28.1862C54.678 28.788 53.574 29.3204 53.6854 29.8602C52.7417 29.4097 53.7483 28.8782 53.7013 28.4791C53.7418 28.3594 53.7752 28.2666 53.7819 28.191L53.7721 28.1862ZM43.7272 55.4324C44.6065 55.7421 43.5742 56.4127 43.6624 56.7895L43.318 56.6632C43.3872 56.1755 43.265 55.8184 43.7201 55.4592L43.7297 55.4397L43.7272 55.4324ZM51.0429 36.6984C51.3253 37.0006 50.8956 37.172 50.8336 37.3479C50.3402 37.1666 50.5289 36.3858 51.0429 36.6984ZM48.1508 44.33C47.6016 44.176 48.0012 43.8928 47.9832 43.7687C48.0645 43.8874 48.3491 44.1482 48.3133 44.2338C48.2845 44.2925 48.2162 44.2833 48.1533 44.3373L48.1508 44.33ZM43.5069 54.9786C43.621 54.6221 43.7666 54.2386 43.9196 53.8769L44.2592 54.0131C44.1257 54.3844 43.9825 54.7508 43.8465 55.1148L43.5069 54.9786ZM45.3386 51.5763L45.683 51.7027C45.8195 52.3397 44.9188 52.0862 45.3363 51.5933L45.3338 51.586L45.3386 51.5763ZM42.239 59.7673C42.2728 59.7232 42.3355 59.6448 42.3497 59.5911C42.58 58.8367 43.4564 60.3277 42.239 59.7673ZM41.1842 63.775C41.2141 63.8624 41.2785 64.0032 41.2304 64.0766C40.9982 64.5875 40.3799 63.7082 41.1842 63.775Z" fill="white"/>
</g>
<defs>
<clipPath id="clip0_1346_16571">
<rect width="45.3584" height="41.6078" fill="white" transform="matrix(-0.903014 -0.429612 0.55362 -0.832769 71.9592 288.136)"/>
</clipPath>
<clipPath id="clip1_1346_16571">
<rect width="72.098" height="72.098" fill="white" transform="translate(23.4678 91.7324) rotate(-108.885)"/>
</clipPath>
</defs>
</svg>
