<svg fill="none" height="40" viewBox="0 0 40 40" width="40" xmlns="http://www.w3.org/2000/svg"><g clip-rule="evenodd" fill="#091e42" fill-rule="evenodd"><path d="m19.9331 6.50604c5.2099 0 9.4334 4.22346 9.4334 9.43336s-4.2235 9.4334-9.4334 9.4334-9.4334-4.2235-9.4334-9.4334 4.2235-9.43336 9.4334-9.43336zm.0002 16.69816c4.0121 0 7.2647-3.2525 7.2647-7.2647s-3.2526-7.26473-7.2647-7.26473c-4.0122 0-7.2647 3.25253-7.2647 7.26473s3.2525 7.2647 7.2647 7.2647z"/><path d="m15.4572 14.4399c5.21 0 9.4334 4.2235 9.4334 9.4334s-4.2234 9.4334-9.4334 9.4334c-5.2099 0-9.43334-4.2235-9.43334-9.4334s4.22344-9.4334 9.43334-9.4334zm.0002 16.698c4.0122 0 7.2647-3.2525 7.2647-7.2647s-3.2525-7.2647-7.2647-7.2647-7.26472 3.2525-7.26472 7.2647 3.25252 7.2647 7.26472 7.2647z"/><path d="m24.6123 14.4399c5.2099 0 9.4334 4.2235 9.4334 9.4334s-4.2235 9.4334-9.4334 9.4334-9.4334-4.2235-9.4334-9.4334 4.2235-9.4334 9.4334-9.4334zm.0001 16.698c4.0122 0 7.2647-3.2525 7.2647-7.2647s-3.2525-7.2647-7.2647-7.2647-7.2647 3.2525-7.2647 7.2647 3.2525 7.2647 7.2647 7.2647z"/></g></svg>