<svg width="26" height="26" viewBox="0 0 26 26" fill="none" xmlns="http://www.w3.org/2000/svg">
<path d="M0 8.25826L5.77778 12.2435V22.75H1.95C0.873047 22.75 0 21.877 0 20.8V8.25826Z" fill="#4285F4"/>
<path d="M26 8.25826L20.2222 12.2435V22.75H24.05C25.127 22.75 26 21.877 26 20.8V8.25826Z" fill="#34A853"/>
<path d="M5.77763 4.99751L12.9999 10.4319L20.2221 4.99751V12.2434L12.9999 17.6779L5.77763 12.2434V4.99751Z" fill="#EA4335"/>
<path d="M0 5.86024C0 3.71583 2.44977 2.49336 4.16327 3.78269L5.77778 4.99755V12.2435L0 8.25819V5.86024Z" fill="#BB001B"/>
<path d="M26 5.86024C26 3.71583 23.5502 2.49336 21.8368 3.78269L20.2222 4.99755V12.2435L26 8.25819V5.86024Z" fill="#FBBC05"/>
</svg>
