<?xml version="1.0" encoding="UTF-8"?>
<svg xmlns="http://www.w3.org/2000/svg" xmlns:xlink="http://www.w3.org/1999/xlink" width="64px" height="64px" viewBox="0 0 64 64" version="1.1">
<g id="surface1">
<path style=" stroke:none;fill-rule:nonzero;fill:rgb(0%,40%,85.490196%);fill-opacity:1;" d="M 4.664062 55.25 L 7.503906 60.804688 C 8.09375 61.972656 8.941406 62.890625 9.9375 63.558594 L 20.085938 43.6875 L -0.207031 43.6875 C -0.207031 44.980469 0.0898438 46.277344 0.679688 47.445312 Z M 4.664062 55.25 "/>
<path style=" stroke:none;fill-rule:nonzero;fill:rgb(0%,67.45098%,27.843137%);fill-opacity:1;" d="M 32 20.3125 L 21.855469 0.441406 C 20.859375 1.109375 20.011719 2.027344 19.421875 3.195312 L 0.679688 39.933594 C 0.101562 41.074219 -0.207031 42.371094 -0.207031 43.6875 L 20.085938 43.6875 Z M 32 20.3125 "/>
<path style=" stroke:none;fill-rule:nonzero;fill:rgb(91.764706%,26.27451%,20.784314%);fill-opacity:1;" d="M 54.0625 63.558594 C 55.058594 62.890625 55.90625 61.972656 56.496094 60.804688 L 57.675781 58.507812 L 63.320312 47.445312 C 63.910156 46.277344 64.207031 44.980469 64.207031 43.6875 L 43.914062 43.6875 L 48.230469 53.289062 Z M 54.0625 63.558594 "/>
<path style=" stroke:none;fill-rule:nonzero;fill:rgb(0%,51.372549%,17.647059%);fill-opacity:1;" d="M 32 20.308594 L 42.144531 0.4375 C 41.148438 -0.230469 40.003906 -0.5625 38.824219 -0.5625 L 25.175781 -0.5625 C 23.996094 -0.5625 22.851562 -0.1875 21.855469 0.4375 Z M 32 20.308594 "/>
<path style=" stroke:none;fill-rule:nonzero;fill:rgb(14.901961%,51.764706%,98.823529%);fill-opacity:1;" d="M 43.914062 43.6875 L 20.085938 43.6875 L 9.9375 63.558594 C 10.933594 64.226562 12.078125 64.558594 13.257812 64.558594 L 50.742188 64.558594 C 51.921875 64.558594 53.066406 64.183594 54.0625 63.558594 Z M 43.914062 43.6875 "/>
<path style=" stroke:none;fill-rule:nonzero;fill:rgb(100%,72.941176%,0%);fill-opacity:1;" d="M 53.949219 21.5625 L 44.578125 3.195312 C 43.988281 2.027344 43.140625 1.109375 42.144531 0.441406 L 32 20.3125 L 43.914062 43.6875 L 64.167969 43.6875 C 64.167969 42.394531 63.875 41.101562 63.285156 39.933594 Z M 53.949219 21.5625 "/>
</g>
</svg>
