<svg width="219" height="30" viewBox="0 0 219 30" fill="none" xmlns="http://www.w3.org/2000/svg">
<g clip-path="url(#clip0_274_1185)">
<path d="M109.4 0H108.363V30H109.4V0Z" fill="white"/>
<path d="M89.8748 7.69882H85.312V22.6367H89.8748C94.7363 22.6367 97.8515 19.6425 97.8515 15.1823C97.8515 10.722 94.7363 7.72781 89.8748 7.72781V7.69882ZM89.7255 20.8269H87.4233V9.56243H89.7255C93.8154 9.56243 95.7152 11.8775 95.7152 15.1947C95.7152 18.5119 93.8154 20.8269 89.7255 20.8269ZM74.2823 18.1061L64.352 7.30125V22.5912H66.3098V12.2792L76.2361 23.0798V7.75681H74.2823V18.1061ZM0.111328 15.2071C0.111328 19.6839 3.22235 22.6616 8.08799 22.6616H13.5053V14.9131H11.4106V20.7979H8.23732C4.14735 20.7979 2.24755 18.5161 2.24755 15.1657C2.24755 11.8153 4.14735 9.53345 8.23732 9.53345H13.5053V7.69882H8.08799C3.22235 7.69882 0.111328 10.6889 0.111328 15.1533V15.2071ZM34.1667 12.2419C34.1667 8.9288 31.8853 7.71126 27.9156 7.71126H23.3818V22.6491H25.4558V9.53345H27.8326C30.8856 9.53345 32.0388 10.0842 32.047 12.2295C32.047 14.3747 30.8856 14.9255 27.8326 14.9255H26.4182L32.6734 22.6243H35.3116C35.3116 22.6243 30.1514 16.5945 30.1929 16.5903C32.7439 16.1513 34.1625 14.8385 34.1708 12.2295L34.1667 12.2419ZM42.6287 22.6284H44.6695L46.2665 19.1H52.949L54.5169 22.6284H56.7071L49.6555 7.23914L42.6287 22.6284ZM47.2413 16.9465L49.643 11.6704L52.0032 16.9589L47.2413 16.9465Z" fill="white"/>
<path d="M179.879 9.2808H185.35V22.4752H187.474V9.2808H192.796V7.43376H179.879V9.2808ZM199.877 7.43376V9.2808H205.389V22.4752H207.513V9.2808H213.08V7.43376H199.877ZM147.645 15.0953L142.7 7.42961H140.356L146.537 17.2612V22.4793H148.653V17.2032L154.709 7.42961H152.44L147.645 15.0953ZM159.375 22.4752H161.449L163.137 19.1124H170.766L172.425 22.4752H174.636L167.003 6.89539L159.375 22.4752ZM164.199 16.9589L166.979 11.4095L169.704 16.9589H164.199Z" fill="white"/>
<path d="M130.542 14.3746H122.565V7.43372H120.446V22.4834H122.565V16.2258H130.542V22.4834H132.666V7.43372H130.542V14.3746Z" fill="white"/>
<path d="M216.647 7.44201C216.453 7.43157 216.259 7.46072 216.076 7.5277C215.894 7.59468 215.727 7.69808 215.586 7.83159C215.445 7.9651 215.332 8.12592 215.255 8.30423C215.179 8.48254 215.139 8.67461 215.139 8.86871C215.139 9.06282 215.179 9.25488 215.255 9.43319C215.332 9.61151 215.445 9.77233 215.586 9.90583C215.727 10.0393 215.894 10.1427 216.076 10.2097C216.259 10.2767 216.453 10.3059 216.647 10.2954C216.841 10.3059 217.035 10.2767 217.218 10.2097C217.4 10.1427 217.567 10.0393 217.708 9.90583C217.849 9.77233 217.962 9.61151 218.039 9.43319C218.115 9.25488 218.155 9.06282 218.155 8.86871C218.155 8.67461 218.115 8.48254 218.039 8.30423C217.962 8.12592 217.849 7.9651 217.708 7.83159C217.567 7.69808 217.4 7.59468 217.218 7.5277C217.035 7.46072 216.841 7.43157 216.647 7.44201ZM216.647 10.0469C216.414 10.0445 216.187 9.97307 215.995 9.84179C215.802 9.71052 215.653 9.52525 215.566 9.30941C215.48 9.09358 215.459 8.85685 215.507 8.6292C215.554 8.40155 215.669 8.19319 215.835 8.03046C216.002 7.86772 216.213 7.75792 216.442 7.71495C216.671 7.67198 216.907 7.69776 217.122 7.78904C217.336 7.88031 217.518 8.03298 217.646 8.22774C217.773 8.4225 217.84 8.65061 217.837 8.88321C217.843 9.03962 217.816 9.19544 217.757 9.34074C217.699 9.48604 217.611 9.61764 217.499 9.72713C217.387 9.83661 217.254 9.9216 217.107 9.97666C216.96 10.0317 216.804 10.0557 216.647 10.0469Z" fill="white"/>
<path d="M217.356 9.63689C217.224 9.47952 216.9 9.10265 216.838 9.02396C216.896 9.02432 216.954 9.0123 217.008 8.9887C217.061 8.9651 217.109 8.93045 217.149 8.88703C217.188 8.84361 217.217 8.79241 217.235 8.73678C217.253 8.68115 217.259 8.62237 217.253 8.56428C217.253 8.23711 217.045 8.08801 216.593 8.08801H216.112V9.65345H216.353V8.29508H216.589C216.913 8.29508 217.004 8.36135 217.004 8.56428C217.004 8.76721 216.904 8.83347 216.589 8.83347H216.415L217.078 9.66174H217.381L217.356 9.63689Z" fill="white"/>
</g>
<defs>
<clipPath id="clip0_274_1185">
<rect width="218" height="30" fill="white" transform="translate(0.111328)"/>
</clipPath>
</defs>
</svg>
