<svg width="38" height="38" viewBox="0 0 38 38" fill="none" xmlns="http://www.w3.org/2000/svg">
<path d="M19 38C29.4934 38 38 29.4934 38 19C38 8.50659 29.4934 0 19 0C8.50659 0 0 8.50659 0 19C0 29.4934 8.50659 38 19 38Z" fill="#253858"/>
<path d="M26.9008 28.9001C26.8533 28.7112 25.6679 24.2778 19 24.2778C12.331 24.2778 11.1467 28.7112 11.0992 28.9001C11.0411 29.1292 11.1445 29.3667 11.3493 29.4849C11.5551 29.6021 11.8127 29.5672 11.9827 29.4036C12.0027 29.3836 14.0452 27.4445 19 27.4445C23.9548 27.4445 25.9983 29.3836 26.0173 29.4026C26.1186 29.5028 26.2538 29.5556 26.3889 29.5556C26.4775 29.5556 26.5673 29.5334 26.6485 29.4881C26.8554 29.3698 26.9589 29.1302 26.9008 28.9001Z" fill="white"/>
<path d="M12.6667 17.9446C14.1241 17.9446 15.3055 16.2905 15.3055 14.2501C15.3055 12.2097 14.1241 10.5557 12.6667 10.5557C11.2092 10.5557 10.0278 12.2097 10.0278 14.2501C10.0278 16.2905 11.2092 17.9446 12.6667 17.9446Z" fill="white"/>
<path d="M25.3333 17.9446C26.7908 17.9446 27.9722 16.2905 27.9722 14.2501C27.9722 12.2097 26.7908 10.5557 25.3333 10.5557C23.8759 10.5557 22.6945 12.2097 22.6945 14.2501C22.6945 16.2905 23.8759 17.9446 25.3333 17.9446Z" fill="white"/>
</svg>
