<svg width="32" height="37" viewBox="0 0 32 37" fill="none" xmlns="http://www.w3.org/2000/svg">
<path opacity="0.5" d="M26.7184 9.32935C27.4905 9.32935 28.1165 8.60632 28.1165 7.71443C28.1165 6.84802 27.5258 6.14097 26.7842 6.10128L26.7184 6.09952H15.2233C14.4511 6.09952 13.8252 6.82254 13.8252 7.71443C13.8252 8.58084 14.4159 9.28789 15.1574 9.32759L15.2233 9.32935H26.7184Z" fill="#091E42"/>
<path opacity="0.5" d="M26.7184 17.2256C27.4905 17.2256 28.1165 17.9486 28.1165 18.8405C28.1165 19.7069 27.5258 20.414 26.7842 20.4537L26.7184 20.4554H15.2233C14.4511 20.4554 13.8252 19.7324 13.8252 18.8405C13.8252 17.9741 14.4159 17.267 15.1574 17.2273L15.2233 17.2256H26.7184Z" fill="#091E42"/>
<path opacity="0.5" d="M26.7184 27.9888C27.4905 27.9888 28.1165 28.7118 28.1165 29.6037C28.1165 30.4701 27.5258 31.1771 26.7842 31.2168L26.7184 31.2186H15.2233C14.4511 31.2186 13.8252 30.4956 13.8252 29.6037C13.8252 28.7373 14.4159 28.0302 15.1574 27.9905L15.2233 27.9888H26.7184Z" fill="#091E42"/>
<path fill-rule="evenodd" clip-rule="evenodd" d="M28.2718 36.9636C30.3308 36.9636 32 35.0355 32 32.6571V4.30643C32 1.92805 30.3308 0 28.2718 0H3.72815C1.66915 0 0 1.92806 0 4.30643V32.6571C0 35.0355 1.66915 36.9636 3.72815 36.9636H28.2718ZM9.26599 4.59587C9.8133 3.96675 10.6985 3.96925 11.2431 4.60145C11.7708 5.2139 11.7852 6.19263 11.288 6.82517L11.2383 6.88528L8.11628 10.474C7.5879 11.0813 6.74415 11.1003 6.19606 10.5309L6.14396 10.474L4.29512 8.34877C3.74781 7.71965 3.74564 6.69714 4.29028 6.06494C4.8179 5.45249 5.66513 5.43101 6.21515 6.00223L6.26743 6.05936L7.13013 7.05081L9.26599 4.59587ZM11.2431 15.3683C10.6985 14.7361 9.8133 14.7336 9.26599 15.3627L7.13013 17.8176L6.26743 16.8262L6.21515 16.7691C5.66513 16.1978 4.8179 16.2193 4.29028 16.8318C3.74564 17.464 3.74781 18.4865 4.29512 19.1156L6.14396 21.2408L6.19606 21.2977C6.74415 21.8671 7.5879 21.8482 8.11628 21.2408L11.2383 17.6521L11.288 17.592C11.7852 16.9595 11.7708 15.9807 11.2431 15.3683ZM9.26599 26.1283C9.8133 25.4992 10.6985 25.5017 11.2431 26.1339C11.7708 26.7463 11.7852 27.7251 11.288 28.3576L11.2383 28.4177L8.11628 32.0064C7.5879 32.6138 6.74415 32.6328 6.19606 32.0634L6.14396 32.0064L4.29512 29.8812C3.74781 29.2521 3.74564 28.2296 4.29028 27.5974C4.8179 26.9849 5.66513 26.9635 6.21515 27.5347L6.26743 27.5918L7.13013 28.5833L9.26599 26.1283ZM28.1165 7.71448C28.1165 8.60637 27.4905 9.32939 26.7184 9.32939H15.2233L15.1574 9.32764C14.4159 9.28794 13.8252 8.58089 13.8252 7.71448C13.8252 6.82259 14.4511 6.09957 15.2233 6.09957H26.7184L26.7842 6.10132C27.5258 6.14102 28.1165 6.84807 28.1165 7.71448ZM26.7184 17.2256C27.4905 17.2256 28.1165 17.9486 28.1165 18.8405C28.1165 19.7069 27.5258 20.414 26.7842 20.4537L26.7184 20.4554H15.2233C14.4511 20.4554 13.8252 19.7324 13.8252 18.8405C13.8252 17.9741 14.4159 17.267 15.1574 17.2274L15.2233 17.2256H26.7184ZM28.1165 29.6037C28.1165 28.7118 27.4905 27.9888 26.7184 27.9888H15.2233L15.1574 27.9905C14.4159 28.0302 13.8252 28.7373 13.8252 29.6037C13.8252 30.4956 14.4511 31.2186 15.2233 31.2186H26.7184L26.7842 31.2169C27.5258 31.1772 28.1165 30.4701 28.1165 29.6037Z" fill="#091E42"/>
</svg>
