<svg width="40" height="40" viewBox="0 0 40 40" fill="none" xmlns="http://www.w3.org/2000/svg">
<path d="M37.2222 19.9999C38.7563 19.9999 40 18.2588 40 16.1111C40 13.9633 38.7563 12.2222 37.2222 12.2222C35.6881 12.2222 34.4444 13.9633 34.4444 16.1111C34.4444 18.2588 35.6881 19.9999 37.2222 19.9999Z" fill="#091E42"/>
<path d="M2.77778 19.9999C4.3119 19.9999 5.55556 18.2588 5.55556 16.1111C5.55556 13.9633 4.3119 12.2222 2.77778 12.2222C1.24365 12.2222 0 13.9633 0 16.1111C0 18.2588 1.24365 19.9999 2.77778 19.9999Z" fill="#091E42"/>
<path d="M37.7778 21.1111C37.7778 21.7256 37.2811 22.2222 36.6667 22.2222H33.3333C32.7189 22.2222 32.2222 21.7256 32.2222 21.1111V11.1111C32.2222 10.4978 32.7189 10 33.3333 10H36.6667C37.2811 10 37.7778 10.4978 37.7778 11.1111V21.1111ZM7.77778 21.1111C7.77778 21.7256 7.28 22.2222 6.66667 22.2222H3.33333C2.72 22.2222 2.22222 21.7256 2.22222 21.1111V11.1111C2.22222 10.4978 2.72 10 3.33333 10H6.66667C7.28 10 7.77778 10.4978 7.77778 11.1111V21.1111Z" fill="#838B9F"/>
<path d="M31.1111 5.55556C31.1111 8.62333 26.1356 10 20 10C13.8633 10 8.88889 8.62333 8.88889 5.55556C8.88889 2.48778 13.8633 0 20 0C26.1356 0 31.1111 2.48778 31.1111 5.55556Z" fill="#838B9F"/>
<path d="M27.7778 4.53677C27.7778 6.32677 24.2944 7.77788 20 7.77788C15.7044 7.77788 12.2222 6.32677 12.2222 4.53677C12.2222 2.74677 15.7044 1.29565 20 1.29565C24.2944 1.29565 27.7778 2.74677 27.7778 4.53677Z" fill="#091E42"/>
<path d="M33.3333 6.11103C33.3333 7.64547 32.09 7.7777 30.5556 7.7777H9.44444C7.91 7.7777 6.66667 7.64547 6.66667 6.11103C6.66667 4.57659 7.91 3.33325 9.44444 3.33325H30.5556C32.09 3.33325 33.3333 4.57659 33.3333 6.11103Z" fill="#838B9F"/>
<path d="M33.3333 6.66675H6.66667C5.44 6.66675 4.44444 7.6623 4.44444 8.88897V37.7779H35.5556V8.88897C35.5556 7.6623 34.56 6.66675 33.3333 6.66675Z" fill="#091E42"/>
<path d="M38.8889 36.6666V35.5555C38.8889 34.3288 37.8933 33.3333 36.6667 33.3333H24.5233L20.7856 37.071C20.3511 37.5055 19.6489 37.5055 19.2144 37.071L15.4767 33.3333H3.33333C2.10666 33.3333 1.11111 34.3288 1.11111 35.5555V36.6666C1.11111 37.8932 0.995553 38.8888 2.22222 38.8888H37.7778C39.0044 38.8888 38.8889 37.8932 38.8889 36.6666Z" fill="#838B9F"/>
<path d="M27.2222 21.1111C29.9836 21.1111 32.2222 18.8725 32.2222 16.1111C32.2222 13.3497 29.9836 11.1111 27.2222 11.1111C24.4608 11.1111 22.2222 13.3497 22.2222 16.1111C22.2222 18.8725 24.4608 21.1111 27.2222 21.1111Z" fill="white"/>
<path d="M27.2222 19.1346C28.892 19.1346 30.2456 17.781 30.2456 16.1112C30.2456 14.4415 28.892 13.0879 27.2222 13.0879C25.5525 13.0879 24.1989 14.4415 24.1989 16.1112C24.1989 17.781 25.5525 19.1346 27.2222 19.1346Z" fill="#838B9F"/>
<path d="M12.7778 21.1111C15.5392 21.1111 17.7778 18.8725 17.7778 16.1111C17.7778 13.3497 15.5392 11.1111 12.7778 11.1111C10.0164 11.1111 7.77778 13.3497 7.77778 16.1111C7.77778 18.8725 10.0164 21.1111 12.7778 21.1111Z" fill="white"/>
<path d="M32.2222 28.3334C32.2222 29.8679 30.9789 31.1112 29.4444 31.1112H10.5556C9.02111 31.1112 7.77778 29.8679 7.77778 28.3334C7.77778 26.799 9.02111 25.5557 10.5556 25.5557H29.4444C30.9789 25.5557 32.2222 26.799 32.2222 28.3334Z" fill="#F5F8FA"/>
<path d="M18.8889 25.5557H21.1111V31.1112H18.8889V25.5557ZM13.3333 25.5557H15.5556V31.1112H13.3333V25.5557ZM24.4444 25.5557H26.6667V31.1112H24.4444V25.5557ZM7.77778 28.3334C7.77778 29.6779 8.73222 30.7979 10 31.0557V25.6112C8.73222 25.869 7.77778 26.989 7.77778 28.3334ZM30 25.6112V31.0546C31.2678 30.7968 32.2222 29.6768 32.2222 28.3323C32.2222 26.9879 31.2678 25.869 30 25.6112Z" fill="#838B9F"/>
<path d="M12.7778 19.1346C14.4475 19.1346 15.8011 17.781 15.8011 16.1112C15.8011 14.4415 14.4475 13.0879 12.7778 13.0879C11.108 13.0879 9.75444 14.4415 9.75444 16.1112C9.75444 17.781 11.108 19.1346 12.7778 19.1346Z" fill="#838B9F"/>
</svg>
