<svg width="32" height="32" viewBox="0 0 32 32" fill="none" xmlns="http://www.w3.org/2000/svg">
<path d="M16 0C7.15636 0 0 7.15636 0 16C0 24.8436 7.15636 32 16 32C24.8436 32 32 24.8436 32 16C32 7.15636 24.8436 0 16 0Z" fill="#3AAFA9"/>
<path d="M26.0653 17.8049V19.114C26.0653 19.4631 25.9198 19.7831 25.658 19.9867C25.4253 20.1903 25.1344 20.2776 24.8435 20.2194C24.378 20.1322 23.9416 19.5794 23.9416 19.0849V16.4667C23.9416 16.0303 23.9416 15.6231 23.9416 15.1867C23.9416 14.4594 23.6798 13.7612 23.1562 13.1212C22.6616 12.5103 22.0216 12.1322 21.2944 11.9576C20.3635 11.754 19.4907 11.9285 18.7344 12.4812C17.8907 13.0922 17.3962 13.8776 17.2507 14.8667C17.1635 15.3612 17.1635 15.8558 17.1635 16.3794C17.1344 17.6012 16.9307 18.5322 16.4653 19.3176C15.7671 20.5685 14.7489 21.4703 13.4398 21.9649C12.7998 22.1976 12.1598 22.314 11.5198 22.314C11.3453 22.314 11.1707 22.314 10.9671 22.2849C9.74527 22.1685 8.66891 21.674 7.76709 20.8594C6.92346 20.074 6.39982 19.2012 6.138 18.1831C5.99255 17.6885 5.96346 17.1649 5.93436 16.7576C5.90527 16.1176 5.90527 15.4776 5.90527 14.8667C5.90527 14.4012 5.90527 13.9358 5.90527 13.4703V13.2085C5.90527 12.8885 6.02164 12.4522 6.60346 12.1322C6.95255 11.9576 7.33073 11.9867 7.65073 12.2485C8.02891 12.5394 8.20345 12.9758 8.11618 13.4703C8.11618 13.5285 8.08709 13.6158 8.08709 13.674C8.08709 13.994 8.08709 14.314 8.08709 14.634C8.08709 15.3903 8.058 16.1467 8.11618 16.9031C8.14527 17.8922 8.58164 18.7358 9.39618 19.3758C9.86164 19.754 10.3853 19.9867 10.938 20.074C11.9271 20.2194 12.7998 20.0158 13.5853 19.434C14.2544 18.9394 14.6907 18.2412 14.8944 17.3394C14.9525 17.1358 14.9525 16.9031 14.9525 16.6703C14.9525 16.4958 14.9525 16.3212 14.9816 16.1758C15.0107 15.9722 15.0107 15.7976 15.0107 15.594C15.0398 15.1285 15.0398 14.6631 15.1562 14.1976C15.418 13.1503 15.8544 12.3067 16.4653 11.6376C17.1635 10.8522 17.9198 10.3285 18.8507 10.0085C20.2471 9.54306 21.6435 9.63033 22.9816 10.3285C24.6398 11.1722 25.6289 12.5394 25.978 14.4012C26.0653 14.8376 26.0944 15.3031 26.0944 15.8267C26.0653 16.4376 26.0653 17.1358 26.0653 17.8049Z" fill="white"/>
</svg>
