<svg width="65" height="65" viewBox="0 0 65 65" fill="none" xmlns="http://www.w3.org/2000/svg">
<path opacity="0.5" fill-rule="evenodd" clip-rule="evenodd" d="M62.5497 56.2115C64.5318 58.1936 64.5318 61.4073 62.5497 63.3895C60.5675 65.3717 57.3538 65.3717 55.3716 63.3895L39.7383 47.7562L46.9163 40.5781L62.5497 56.2115Z" fill="#091E42"/>
<path fill-rule="evenodd" clip-rule="evenodd" d="M55.1145 27.9694C55.1145 13.0061 42.9844 0.875977 28.0211 0.875977C13.0579 0.875977 0.927734 13.0061 0.927734 27.9694C0.927734 42.9326 13.0579 55.0628 28.0211 55.0628C42.9844 55.0628 55.1145 42.9326 55.1145 27.9694ZM28.0211 49.5738C39.8525 49.5738 49.4438 39.9825 49.4438 28.1511C49.4438 16.3196 39.8525 6.72838 28.0211 6.72838C16.1897 6.72838 6.5984 16.3196 6.5984 28.1511C6.5984 39.9825 16.1897 49.5738 28.0211 49.5738Z" fill="#091E42"/>
<path opacity="0.5" fill-rule="evenodd" clip-rule="evenodd" d="M28.0213 49.5729C39.8527 49.5729 49.444 39.9817 49.444 28.1502C49.444 16.3188 39.8527 6.72754 28.0213 6.72754C16.1899 6.72754 6.59863 16.3188 6.59863 28.1502C6.59863 39.9817 16.1899 49.5729 28.0213 49.5729ZM14.1887 27.6826C14.1887 29.2486 15.4582 30.518 17.0241 30.518C18.59 30.518 19.8594 29.2486 19.8594 27.6826V27.3676C19.8594 23.9333 22.7187 21.0668 26.4753 21.0668C28.0412 21.0668 29.3106 19.7974 29.3106 18.2315C29.3106 16.6655 28.0412 15.3961 26.4753 15.3961C19.7924 15.3961 14.1887 20.5997 14.1887 27.3676V27.6826Z" fill="#091E42"/>
</svg>
