<svg xmlns="http://www.w3.org/2000/svg" xmlns:xlink="http://www.w3.org/1999/xlink" viewBox="0 0 104 103.92"><defs><style>.a2b0d176-60af-4830-8f7d-f477f3ba438c,.f6110d95-af6b-4d18-9238-ae2e6560854e{fill:none;}.b51aab8d-0c62-4bf0-ba35-55b620320203{fill:#04cfe7;}.a9d7eedc-6d25-42f6-88eb-e77d35f6f92a{fill:url(#a1173393-005a-4e57-bd93-86750faaf662);}.a3ac59fd-4937-48dd-849c-3193812ab042{fill:url(#a8076042-71a6-4d71-b96f-e61f944d1c4e);}.f7c1df0c-f857-4f80-9866-3b25628376f3{fill:url(#b4893945-34e1-4e1f-b06a-6acf1ad31510);}.be5707fd-0879-4118-befa-21416176ed07{fill:url(#ee288ff7-d6b1-4445-85a6-f5747c0509b8);}.b07ed873-7c23-4ffe-9cbb-234f70c14034{fill:url(#aa4bdc5c-fc15-46f6-b3fe-d6df3efc2eba);}.e78fd784-6eed-4b59-815e-2f3ebfc2b666{fill:url(#a4d55301-eaf3-4d63-bd39-b8e97b5893c1);}.ea0a5291-a14c-463e-8c66-7652ef28887f{fill:url(#a53c91a2-332c-465e-8cf4-2e28d2b39479);}.a1f2dfd9-cc3c-41bd-b7f8-6aadf5a45b3d{clip-path:url(#b72ca40b-c51a-4516-b7ba-c3d112d3fb03);}.a08e05af-a6a8-4e78-99d0-530e870de638{fill:#fff;}.b5071173-5423-4eaa-99da-ac8a0ec178d4{fill:#bbfcfa;}.a0e7f52c-a2a9-413e-a682-640829be1996{fill:url(#f81014bd-0efc-4100-ac02-67b2fe340a45);}.be6d1dc8-b316-4937-be05-d0ba404a740b{fill:url(#a3ca5bee-e360-49e2-b528-174e3407f1d5);}.ae55c096-6310-47be-9b73-c17bc77f8ec8{fill:url(#f0d5b046-c25c-4d04-89c7-0a787171b4a0);}.a3d99bd7-f129-4fdd-b14f-7482ba0e1206{fill:url(#ba88ba36-5a42-4562-83c2-9889ded6bb5c);}.afa53e6a-0181-4c49-b15c-0eff643d4604{fill:url(#ba351f73-ae3b-4e38-98d5-59e92a2b7b4d);}.addc682a-1c1a-445e-838f-2671e8d8a29c{fill:url(#f33d2a32-6b2c-44d8-bafd-6a750f32ea8a);}.b4185529-efd8-40b7-bb77-928a6d1bf690{fill:#233188;}.aa546520-c832-4e68-9e07-d6781c83f9a8{fill:#06b5cc;}.f422dc9f-c4b8-4ac4-9c4c-2e57b803a959{fill:url(#a679d46a-044f-48a7-acc2-45addd6b119b);}.b1df4101-3555-4ed6-b272-b31651839cf6{fill:url(#e2d80486-5e07-4a27-b9c4-4840ef5e4601);}.abc02d02-75d8-4f0f-97a3-75ee55b07c56{fill:url(#e199f062-3d45-4dd2-a0d5-d09fc07447e9);}.ba3fdf47-1358-4657-afae-00560e08ba9b{fill:url(#be12f67c-2899-4d19-bda6-a23cf270ad30);}.ffa63184-f5a2-4c55-bcc3-c4514f56f69e{fill:url(#ad742293-0e8e-4474-bcf3-a23abe9b90a8);}.eb9daba1-e3db-4721-a1ca-b985540db014{fill:url(#f5b7b3fd-0f45-456b-9725-e2f1837dd82c);}.f5d59c43-cda9-49f2-a8e0-cd3126fa6bb1{fill:url(#b7cf9c7c-2f50-4b0f-93ca-90b63ab7bb52);}.e1aa6c64-89e8-49b5-9b56-a00f0680583d{fill:url(#ba2aecee-2d4e-4c7a-8c74-54708994c6d0);}.bdf1a7c4-39a1-466a-b65f-66cc3c9fc617{fill:url(#aa942953-4fcb-48a8-948b-41ada7e68986);}.bf7ced57-1030-490f-b46c-83fa82ee6c61{fill:url(#bb2ef55b-8a54-414b-ad13-6c527980943f);}.e51ed7ae-31f6-442c-8cdf-47718bbc3b0e{fill:url(#fadb5261-6cd9-48cd-b216-63cf2638ec50);}.b0a7b5ed-6425-4bec-8f5c-44f7e1357f3d{fill:url(#f0b066f1-da68-41bd-8002-ebe3e54f7ee6);}.b6659c18-59f3-4edc-8da1-6c83deeba1ee{fill:url(#b7f6176f-cc48-42b6-9040-0f5b1fa51e59);}.b823f993-b3cd-4cb9-962a-ad6111ac87b7{fill:url(#ac7d24a3-7bd8-4281-a0bc-ee15c11c9631);}.ab2e4dc0-d72f-45fa-9718-ffc727a66d3c{fill:url(#ba0a796a-46b0-4afa-9d6f-c31f47ac88a5);}.a2c77f26-4901-421b-8c12-25585c98adc3{fill:url(#be2f5199-d80d-4b4e-9af2-456c750c4380);}.ea3fcd83-8029-44cc-9a20-70465cd3279d{fill:url(#a4924ee0-109d-4227-b744-5cdc389d4ef9);}.f6110d95-af6b-4d18-9238-ae2e6560854e{stroke:#fff;stroke-linecap:round;stroke-linejoin:round;stroke-width:2.6px;opacity:0.8;}</style><linearGradient id="a1173393-005a-4e57-bd93-86750faaf662" x1="96.59" y1="20.99" x2="8.33" y2="76.61" gradientUnits="userSpaceOnUse"><stop offset="0" stop-color="#dff8fa"/><stop offset="1" stop-color="#b3ecf4"/></linearGradient><linearGradient id="a8076042-71a6-4d71-b96f-e61f944d1c4e" x1="-0.15" y1="24.2" x2="61.41" y2="22.54" gradientUnits="userSpaceOnUse"><stop offset="0" stop-color="#dff8fa"/><stop offset="1" stop-color="#faffff"/></linearGradient><linearGradient id="b4893945-34e1-4e1f-b06a-6acf1ad31510" x1="10.26" y1="22.71" x2="27.04" y2="22.99" gradientUnits="userSpaceOnUse"><stop offset="0" stop-color="#00b1cd"/><stop offset="1" stop-color="#78e1ec"/></linearGradient><linearGradient id="ee288ff7-d6b1-4445-85a6-f5747c0509b8" x1="10.26" y1="22.71" x2="27.04" y2="22.99" xlink:href="#b4893945-34e1-4e1f-b06a-6acf1ad31510"/><linearGradient id="aa4bdc5c-fc15-46f6-b3fe-d6df3efc2eba" x1="10.26" y1="22.72" x2="27.04" y2="22.99" xlink:href="#b4893945-34e1-4e1f-b06a-6acf1ad31510"/><linearGradient id="a4d55301-eaf3-4d63-bd39-b8e97b5893c1" x1="32.52" y1="35.36" x2="86.07" y2="32.87" gradientUnits="userSpaceOnUse"><stop offset="0" stop-color="#00b1cd"/><stop offset="1" stop-color="#04cfe7"/></linearGradient><linearGradient id="a53c91a2-332c-465e-8cf4-2e28d2b39479" x1="10.99" y1="58.98" x2="39.76" y2="46.25" gradientUnits="userSpaceOnUse"><stop offset="0" stop-color="#0085a2"/><stop offset="1" stop-color="#00b1cd"/></linearGradient><clipPath id="b72ca40b-c51a-4516-b7ba-c3d112d3fb03"><circle class="a2b0d176-60af-4830-8f7d-f477f3ba438c" cx="30.99" cy="50.13" r="18.1"/></clipPath><linearGradient id="f81014bd-0efc-4100-ac02-67b2fe340a45" x1="32.59" y1="63.99" x2="32.73" y2="56.17" gradientUnits="userSpaceOnUse"><stop offset="0" stop-color="#78e1ec"/><stop offset="1" stop-color="#78e1ec"/></linearGradient><linearGradient id="a3ca5bee-e360-49e2-b528-174e3407f1d5" x1="37.93" y1="71.58" x2="44.16" y2="59.48" xlink:href="#a53c91a2-332c-465e-8cf4-2e28d2b39479"/><linearGradient id="f0d5b046-c25c-4d04-89c7-0a787171b4a0" x1="25.45" y1="68.63" x2="25.35" y2="61.48" xlink:href="#a4d55301-eaf3-4d63-bd39-b8e97b5893c1"/><linearGradient id="ba88ba36-5a42-4562-83c2-9889ded6bb5c" x1="4.18" y1="99.39" x2="-1.17" y2="99.04" gradientTransform="translate(37.51 -3.99)" gradientUnits="userSpaceOnUse"><stop offset="0" stop-color="#29ffef" stop-opacity="0.2"/><stop offset="1" stop-color="#f9f3ff"/></linearGradient><linearGradient id="ba351f73-ae3b-4e38-98d5-59e92a2b7b4d" x1="-6.01" y1="80.09" x2="4.68" y2="80.09" gradientTransform="translate(43.69 -3.83) rotate(3.57)" gradientUnits="userSpaceOnUse"><stop offset="0" stop-color="#6a71e7"/><stop offset="1" stop-color="#908df9"/></linearGradient><linearGradient id="f33d2a32-6b2c-44d8-bafd-6a750f32ea8a" x1="38.15" y1="68.46" x2="38.05" y2="61.31" xlink:href="#a4d55301-eaf3-4d63-bd39-b8e97b5893c1"/><linearGradient id="a679d46a-044f-48a7-acc2-45addd6b119b" x1="-25.79" y1="76.53" x2="-19.67" y2="76.53" gradientTransform="translate(-1.11 -6.79) rotate(-29.09)" xlink:href="#ba351f73-ae3b-4e38-98d5-59e92a2b7b4d"/><linearGradient id="e2d80486-5e07-4a27-b9c4-4840ef5e4601" x1="38.81" y1="63.09" x2="38.01" y2="57.72" xlink:href="#a1173393-005a-4e57-bd93-86750faaf662"/><linearGradient id="e199f062-3d45-4dd2-a0d5-d09fc07447e9" x1="29.79" y1="68.57" x2="29.7" y2="61.42" xlink:href="#a4d55301-eaf3-4d63-bd39-b8e97b5893c1"/><linearGradient id="be12f67c-2899-4d19-bda6-a23cf270ad30" x1="-6.01" y1="63.63" x2="-2.36" y2="63.63" xlink:href="#ba351f73-ae3b-4e38-98d5-59e92a2b7b4d"/><linearGradient id="ad742293-0e8e-4474-bcf3-a23abe9b90a8" x1="35.71" y1="68.49" x2="35.62" y2="61.35" xlink:href="#a4d55301-eaf3-4d63-bd39-b8e97b5893c1"/><linearGradient id="f5b7b3fd-0f45-456b-9725-e2f1837dd82c" x1="40.84" y1="47.73" x2="25.13" y2="56.86" gradientTransform="translate(3.49 -2.1) rotate(3.75)" xlink:href="#a1173393-005a-4e57-bd93-86750faaf662"/><linearGradient id="b7cf9c7c-2f50-4b0f-93ca-90b63ab7bb52" x1="31.15" y1="46.91" x2="32.05" y2="54.74" gradientTransform="translate(6.27 -3.42) rotate(6.89)" xlink:href="#a53c91a2-332c-465e-8cf4-2e28d2b39479"/><linearGradient id="ba2aecee-2d4e-4c7a-8c74-54708994c6d0" x1="37.05" y1="46.23" x2="37.95" y2="54.06" gradientTransform="translate(6.22 -4.13) rotate(6.89)" xlink:href="#a53c91a2-332c-465e-8cf4-2e28d2b39479"/><linearGradient id="aa942953-4fcb-48a8-948b-41ada7e68986" x1="20.73" y1="56.77" x2="35.12" y2="42.8" xlink:href="#a8076042-71a6-4d71-b96f-e61f944d1c4e"/><linearGradient id="bb2ef55b-8a54-414b-ad13-6c527980943f" x1="32.85" y1="54.57" x2="36.91" y2="54.57" xlink:href="#a53c91a2-332c-465e-8cf4-2e28d2b39479"/><linearGradient id="fadb5261-6cd9-48cd-b216-63cf2638ec50" x1="26.8" y1="55.83" x2="35.17" y2="54.59" xlink:href="#a4d55301-eaf3-4d63-bd39-b8e97b5893c1"/><linearGradient id="f0b066f1-da68-41bd-8002-ebe3e54f7ee6" x1="65.54" y1="66.03" x2="85.67" y2="65.41" xlink:href="#b4893945-34e1-4e1f-b06a-6acf1ad31510"/><linearGradient id="b7f6176f-cc48-42b6-9040-0f5b1fa51e59" x1="65.55" y1="66.35" x2="85.68" y2="65.72" xlink:href="#b4893945-34e1-4e1f-b06a-6acf1ad31510"/><linearGradient id="ac7d24a3-7bd8-4281-a0bc-ee15c11c9631" x1="65.56" y1="66.66" x2="85.69" y2="66.04" xlink:href="#b4893945-34e1-4e1f-b06a-6acf1ad31510"/><linearGradient id="ba0a796a-46b0-4afa-9d6f-c31f47ac88a5" x1="116.12" y1="51.99" x2="27.86" y2="107.6" xlink:href="#a1173393-005a-4e57-bd93-86750faaf662"/><linearGradient id="be2f5199-d80d-4b4e-9af2-456c750c4380" x1="46.86" y1="91.71" x2="81.93" y2="54.15" xlink:href="#a53c91a2-332c-465e-8cf4-2e28d2b39479"/><linearGradient id="a4924ee0-109d-4227-b744-5cdc389d4ef9" x1="46.96" y1="91.81" x2="82.03" y2="54.25" xlink:href="#a53c91a2-332c-465e-8cf4-2e28d2b39479"/></defs><title>hr final</title><g id="e7c3b959-877c-4f9a-a0e4-d57eb30c942e" data-name="Layer 2"><g id="a5859571-1ad3-4976-8bb5-be899f1d1e98" data-name="icons"><g id="a8993492-b331-4546-ad4a-fd3056fd9595" data-name="hr"><rect class="b51aab8d-0c62-4bf0-ba35-55b620320203" width="104" height="103.92"/><rect class="a9d7eedc-6d25-42f6-88eb-e77d35f6f92a" x="8.32" y="18.72" width="87.36" height="60.74" rx="1.52"/><path class="a3ac59fd-4937-48dd-849c-3193812ab042" d="M95.68,20.24v6.59H8.32V20.24a1.52,1.52,0,0,1,1.52-1.52H94.16A1.52,1.52,0,0,1,95.68,20.24Z"/><circle class="f7c1df0c-f857-4f80-9866-3b25628376f3" cx="14.35" cy="22.78" r="2.08"/><circle class="be5707fd-0879-4118-befa-21416176ed07" cx="20.38" cy="22.88" r="2.08"/><circle class="b07ed873-7c23-4ffe-9cbb-234f70c14034" cx="26.42" cy="22.98" r="2.08"/><rect class="e78fd784-6eed-4b59-815e-2f3ebfc2b666" x="57.41" y="31.41" width="35.15" height="3.95" rx="0.91"/><circle class="ea0a5291-a14c-463e-8c66-7652ef28887f" cx="30.99" cy="50.13" r="18.1"/><g class="a1f2dfd9-cc3c-41bd-b7f8-6aadf5a45b3d"><g id="b76a9ce6-434e-4866-b946-c9ec730d68f1" data-name="arm"><path class="a08e05af-a6a8-4e78-99d0-530e870de638" d="M42.68,68.35c2.31,4.58,3,10-.21,14.39a.91.91,0,0,1-.52.41,1,1,0,0,1-.51-.13,7.15,7.15,0,0,1-1.95-1.18c-1-1-1.22-2.94-1.37-4.26-.21-1.85-.07-3.71-.12-5.56,0-1.54-.22-3.07-.36-4.6-.1-1.17-.25-2.34-.31-3.51-.08-1.39.09-2.37,1.4-1a21.84,21.84,0,0,1,4,5.49Z"/><path class="b5071173-5423-4eaa-99da-ac8a0ec178d4" d="M42.68,68.35c2.31,4.58,3,10-.21,14.39a.91.91,0,0,1-.52.41,1,1,0,0,1-.51-.13,7.15,7.15,0,0,1-1.95-1.18c-1-1-1.22-2.94-1.37-4.26-.21-1.85-.07-3.71-.12-5.56,0-1.54-.22-3.07-.36-4.6-.1-1.17-.25-2.34-.31-3.51-.08-1.39.09-2.37,1.4-1a21.84,21.84,0,0,1,4,5.49Z"/></g><path id="b397b7f4-93fc-460c-b679-934c892e0afd" data-name="neck" class="a0e7f52c-a2a9-413e-a682-640829be1996" d="M30,55.92c.27.17,5.53.35,5.53.35l-.12,5.64-4.47-.27Z"/><path id="ac0c5f38-b0fe-42e9-b44c-838eb8accfff" data-name="leg" class="be6d1dc8-b316-4937-be05-d0ba404a740b" d="M36.22,60.83l-.91-.47a.67.67,0,0,0-.73.08c-.86.69-2.08.26-2.84-.13a.68.68,0,0,0-.95.39l-1.63,5-9.4,29.54a.76.76,0,0,0,0,.21c0,1.46,0,9.73,0,7.35,0-13.94,5.86-6.43,5.51-4.11a.68.68,0,0,0,.51.76L31,100.73a.68.68,0,0,0,.8-.43c.81-2.34-4.41-11.73-5-2.58-.52,7.92,5,3.86,7.16,2.46s4.39-3.85,4.75-5.56a1.09,1.09,0,0,0,0-.18l-2.1-33.06A.68.68,0,0,0,36.22,60.83Z"/><g id="f357221c-c225-4d2e-a3a6-ac988dd4578a" data-name="jacket"><path class="a08e05af-a6a8-4e78-99d0-530e870de638" d="M18.75,93h14a0,0,0,0,1,0,0v2.58a.3.3,0,0,1-.3.3H19a.3.3,0,0,1-.3-.3V93a0,0,0,0,1,0,0Z" transform="translate(5.93 -1.42) rotate(3.57)"/><path class="ae55c096-6310-47be-9b73-c17bc77f8ec8" d="M25,58.36a29,29,0,0,0-4.17,2.24c-1.8,1.23-3.29,28.2-3.19,29.55a3,3,0,0,0,1.2,2.38l13.95.87s1.56-15.64.39-24.55-2.13-9-2.13-9Z"/></g><g id="eb7f70db-9c01-42be-9dd6-ea1594af8138" data-name="jacket"><path class="a08e05af-a6a8-4e78-99d0-530e870de638" d="M35.58,93.72h4.79a0,0,0,0,1,0,0V96.3a.3.3,0,0,1-.3.3h-4.2a.3.3,0,0,1-.3-.3V93.72A0,0,0,0,1,35.58,93.72Z" transform="translate(6 -2.18) rotate(3.57)"/><path class="a3d99bd7-f129-4fdd-b14f-7482ba0e1206" d="M35.58,93.72h4.79a0,0,0,0,1,0,0V96.3a.3.3,0,0,1-.3.3h-4.2a.3.3,0,0,1-.3-.3V93.72A0,0,0,0,1,35.58,93.72Z" transform="translate(6 -2.18) rotate(3.57)"/><path class="afa53e6a-0181-4c49-b15c-0eff643d4604" d="M36,60.2a10.45,10.45,0,0,1,3.8,5.15c1,3.25,2.56,9.54,2.78,22.44,0,0,.2,5.24-2.16,6.08l-4.78-.29s1.82-22.9.33-28.8-2.2-6.64-2.2-6.64Z"/><path class="addc682a-1c1a-445e-838f-2671e8d8a29c" d="M36,60.2a10.45,10.45,0,0,1,3.8,5.15c1,3.25,2.56,9.54,2.78,22.44,0,0,.2,5.24-2.16,6.08l-4.78-.29s1.82-22.9.33-28.8-2.2-6.64-2.2-6.64Z"/></g><g id="f2ce6177-9263-4551-9a8e-53a8838707f9" data-name="arm"><polygon class="b4185529-efd8-40b7-bb77-928a6d1bf690" points="25.26 83.14 26.76 83.66 25.01 87.12 23.67 86.87 25.26 83.14"/><path id="b00f0c05-6154-442e-978b-e5287cc3765e" data-name="arm" class="a08e05af-a6a8-4e78-99d0-530e870de638" d="M20.84,60.6a3.67,3.67,0,0,1,4,3.7c.2,2.49-1.24,5-2.45,7.08-.89,1.55-2.3,2.94-2.72,4.72-.76,3.19,3.06,5,5.28,6.29a.89.89,0,0,1,.38,1.09L24,86.8a.89.89,0,0,1-1,.55C17.1,86.33,8,81.71,10.59,74.16,11.76,70.78,16.46,63.2,20.84,60.6Z"/><g id="aa7099d2-f46d-4c2b-b01c-116c93c63189" data-name="badges"><circle class="aa546520-c832-4e68-9e07-d6781c83f9a8" cx="19.14" cy="66.61" r="2.87"/><rect class="f422dc9f-c4b8-4ac4-9c4c-2e57b803a959" x="13.36" y="69.78" width="5.75" height="2.7" rx="0.3" transform="translate(40.96 2.49) rotate(32.67)"/></g></g><g id="a790b354-5f9a-41cc-ab28-1ddbf9fe1376" data-name="hair back"><path class="a08e05af-a6a8-4e78-99d0-530e870de638" d="M39.42,47.25c0,.13,0,5,.71,7s.63,5.47-.18,6.22a3.11,3.11,0,0,0-2.78-.85L34.8,56.2l1.78-5.48.48-3.61Z"/><path class="b1df4101-3555-4ed6-b272-b31651839cf6" d="M39.42,47.25c0,.13,0,5,.71,7s.63,5.47-.18,6.22a3.11,3.11,0,0,0-2.78-.85L34.8,56.2l1.78-5.48.48-3.61Z"/></g><path id="acbbd01c-3287-424c-81ec-032014e40c1a" data-name="collar" class="abc02d02-75d8-4f0f-97a3-75ee55b07c56" d="M29.43,56.51a2.54,2.54,0,0,1,2.06,1.87c.36,1.64.79,3.71.05,4S28,60.69,27.49,59.67,29.43,56.51,29.43,56.51Z"/><g id="ad521e98-761a-407c-994b-eb372ca8fd7b" data-name="collar"><path class="ba3fdf47-1358-4657-afae-00560e08ba9b" d="M33.74,59.16s.88.53,1.49,2.75,2.1-1.68,2.19-3.2-.29-2.15-1.29-2.38a3.31,3.31,0,0,0-2.26.75Z"/><path id="b2483733-239d-4714-a63b-dcf97b9c7464" data-name="collar" class="ffa63184-f5a2-4c55-bcc3-c4514f56f69e" d="M33.74,59.16s.88.53,1.49,2.75,2.1-1.68,2.19-3.2-.29-2.15-1.29-2.38a3.31,3.31,0,0,0-2.26.75Z"/></g><path id="f3188330-618c-44ed-9132-e9dca0407eef" data-name="face" class="eb9daba1-e3db-4721-a1ca-b985540db014" d="M28.59,47H39.07a0,0,0,0,1,0,0v8.34a2.13,2.13,0,0,1-2.13,2.13H28.59a0,0,0,0,1,0,0V47A0,0,0,0,1,28.59,47Z" transform="matrix(1, -0.07, 0.07, 1, -3.34, 2.32)"/><g id="eaa7cfc3-c898-4342-9e25-133762be6c88" data-name="eyes"><rect class="f5d59c43-cda9-49f2-a8e0-cd3126fa6bb1" x="31.05" y="49.61" width="0.99" height="1.47" rx="0.23" transform="translate(-5.81 4.15) rotate(-6.89)"/><rect class="e1aa6c64-89e8-49b5-9b56-a00f0680583d" x="36.95" y="48.89" width="0.99" height="1.47" rx="0.23" transform="translate(-5.68 4.85) rotate(-6.89)"/></g><g id="e11725a3-568b-4b8e-b384-acd434c08f76" data-name="hair"><path class="a08e05af-a6a8-4e78-99d0-530e870de638" d="M28.87,48.74S32,58.86,31.09,61.21a11.65,11.65,0,0,0-2.41-.77c-1.14-.2-1.59-1.55-1.59-1.55l.1,1.2S23.79,59.51,24,55l-2.33-.54a2.63,2.63,0,0,1-2-2.65c.07-2.51.29-6.52,1-8.11,1-2.4,3.29-7,12.84-5.77s7.2,9.7,6.79,9.67S28.87,48.74,28.87,48.74Z"/><path class="bdf1a7c4-39a1-466a-b65f-66cc3c9fc617" d="M28.87,48.74S32,58.86,31.09,61.21a11.65,11.65,0,0,0-2.41-.77c-1.14-.2-1.59-1.55-1.59-1.55l.1,1.2S23.79,59.51,24,55l-2.33-.54a2.63,2.63,0,0,1-2-2.65c.07-2.51.29-6.52,1-8.11,1-2.4,3.29-7,12.84-5.77s7.2,9.7,6.79,9.67S28.87,48.74,28.87,48.74Z"/></g><g id="ba2960f7-04a9-4f57-b1f0-663868f9267f" data-name="mouth"><path class="bf7ced57-1030-490f-b46c-83fa82ee6c61" d="M36.51,55.12a1.66,1.66,0,0,1-1,.55l-.8.09a1.62,1.62,0,0,1-1.81-1.42v-.09a.45.45,0,0,1,.4-.5l1.6-.2,1.53-.18a.45.45,0,0,1,.5.4v.09A1.62,1.62,0,0,1,36.51,55.12Z"/><path class="e51ed7ae-31f6-442c-8cdf-47718bbc3b0e" d="M36.51,55.12a1.66,1.66,0,0,1-1,.55l-.8.09a1.62,1.62,0,0,1-1.81-1.42v-.09a.45.45,0,0,1,.4-.5l1.6-.2A1.94,1.94,0,0,1,36.51,55.12Z"/></g></g><circle class="b0a7b5ed-6425-4bec-8f5c-44f7e1357f3d" cx="68.64" cy="65.94" r="3.54"/><circle class="b6659c18-59f3-4edc-8da1-6c83deeba1ee" cx="78.83" cy="65.94" r="3.54"/><circle class="b823f993-b3cd-4cb9-962a-ad6111ac87b7" cx="89.02" cy="65.94" r="3.54"/><rect class="ab2e4dc0-d72f-45fa-9718-ffc727a66d3c" x="65.31" y="76.34" width="14.77" height="6.03"/><path class="a2c77f26-4901-421b-8c12-25585c98adc3" d="M93,49A23,23,0,1,0,55.8,76a23.44,23.44,0,0,0,2.84,3.16A22.24,22.24,0,0,0,62,81.79,22.68,22.68,0,0,0,67,84.15,23,23,0,0,0,93,49ZM63.34,76.38c-.4-.31-.78-.64-1.16-1A17.78,17.78,0,0,1,86,49l.37.32a17.79,17.79,0,0,1-23,27.07Z"/><path class="ea3fcd83-8029-44cc-9a20-70465cd3279d" d="M41.38,97.81h0c-2.76-2.56-3.06-6.57-.65-8.66L57.88,74.24l5.77,5.35L50.07,97.81C48.16,100.37,44.14,100.37,41.38,97.81Z"/><path class="f6110d95-af6b-4d18-9238-ae2e6560854e" d="M74.27,51.23A11.12,11.12,0,0,1,85.4,62.35a11.38,11.38,0,0,1-.52,3.38"/></g></g></g></svg>