<svg width="443" height="443" viewBox="0 0 443 443" fill="none" xmlns="http://www.w3.org/2000/svg">
<g clip-path="url(#clip0_1214_123208)">
<g clip-path="url(#clip1_1214_123208)">
<g filter="url(#filter0_dd_1214_123208)">
<rect x="184" y="88" width="72" height="72" rx="14" fill="white"/>
<g clip-path="url(#clip2_1214_123208)">
<path d="M199.273 142.001H206.909V123.455L196 115.273V138.728C196 140.539 197.467 142.001 199.273 142.001Z" fill="#4285F4"/>
<path d="M233.09 142.001H240.726C242.537 142.001 243.999 140.534 243.999 138.728V115.274L233.09 123.456" fill="#34A853"/>
<path d="M233.09 109.274V123.456L243.999 115.274V110.91C243.999 106.863 239.379 104.556 236.144 106.983" fill="#FBBC04"/>
<path d="M206.91 123.456V109.274L220.001 119.092L233.092 109.274V123.456L220.001 133.274" fill="#EA4335"/>
<path d="M196 110.91V115.273L206.909 123.455V109.273L203.855 106.982C200.615 104.555 196 106.862 196 110.91Z" fill="#C5221F"/>
</g>
</g>
<g filter="url(#filter1_dd_1214_123208)">
<rect x="96" y="236" width="72" height="72" rx="14" fill="white"/>
<g clip-path="url(#clip3_1214_123208)">
<path d="M155.5 273.075C155.502 272.713 155.312 272.377 154.999 272.188H154.994L154.974 272.177L138.688 262.696C138.618 262.649 138.545 262.606 138.469 262.568C137.841 262.249 137.094 262.249 136.465 262.568C136.389 262.606 136.316 262.649 136.246 262.696L119.96 272.177L119.94 272.188C119.443 272.492 119.29 273.136 119.6 273.626C119.691 273.77 119.816 273.89 119.966 273.976L136.252 283.457C136.322 283.504 136.395 283.546 136.47 283.585C137.099 283.904 137.846 283.904 138.475 283.585C138.55 283.546 138.623 283.504 138.693 283.457L154.979 273.976C155.305 273.789 155.503 273.445 155.5 273.075Z" fill="#0A2767"/>
<path d="M121.858 266.744H132.546V276.38H121.858V266.744ZM153.313 256.95V252.542C153.339 251.441 152.452 250.526 151.332 250.5H123.597C122.477 250.526 121.59 251.441 121.616 252.542V256.95L138.011 261.25L153.313 256.95Z" fill="#0364B8"/>
<path d="M121.617 256.95H132.547V266.625H121.617V256.95Z" fill="#0078D4"/>
<path d="M143.477 256.95H132.547V266.625L143.477 276.3H153.314V266.625L143.477 256.95Z" fill="#28A8EA"/>
<path d="M132.547 266.625H143.477V276.3H132.547V266.625Z" fill="#0078D4"/>
<path d="M132.547 276.3H143.477V285.975H132.547V276.3Z" fill="#0364B8"/>
<path d="M121.859 276.379H132.547V285.138H121.859V276.379Z" fill="#14447D"/>
<path d="M143.477 276.3H153.314V285.975H143.477V276.3Z" fill="#0078D4"/>
<path d="M154.999 273.917L154.978 273.928L138.692 282.936C138.621 282.979 138.549 283.02 138.473 283.057C138.197 283.186 137.896 283.259 137.59 283.272L136.701 282.76C136.625 282.723 136.552 282.681 136.482 282.636L119.977 273.372H119.97L119.43 273.075V291.311C119.438 292.528 120.447 293.508 121.685 293.5H153.279C153.298 293.5 153.314 293.492 153.334 293.492C153.595 293.475 153.853 293.422 154.099 293.335C154.206 293.29 154.308 293.238 154.406 293.178C154.48 293.137 154.605 293.048 154.605 293.048C155.165 292.64 155.497 291.997 155.499 291.312V273.075C155.499 273.424 155.308 273.746 154.999 273.917Z" fill="url(#paint0_linear_1214_123208)"/>
<path opacity="0.5" d="M154.626 273.003V274.121L137.597 285.653L119.966 273.379C119.966 273.373 119.962 273.368 119.956 273.368L118.338 272.412V271.605L119.005 271.595L120.415 272.39L120.447 272.401L120.568 272.476C120.568 272.476 137.138 281.775 137.182 281.796L137.816 282.162C137.87 282.14 137.925 282.119 137.99 282.097C138.023 282.076 154.44 272.992 154.44 272.992L154.626 273.003Z" fill="#0A2767"/>
<path d="M154.999 273.917L154.978 273.929L138.692 282.937C138.621 282.98 138.549 283.021 138.473 283.058C137.841 283.362 137.101 283.362 136.469 283.058C136.394 283.021 136.321 282.981 136.25 282.937L119.964 273.929L119.945 273.917C119.63 273.749 119.433 273.427 119.43 273.075V291.311C119.438 292.528 120.447 293.508 121.683 293.5C121.683 293.5 121.683 293.5 121.684 293.5H153.246C154.482 293.508 155.492 292.528 155.499 291.312C155.499 291.312 155.499 291.312 155.499 291.311V273.075C155.499 273.424 155.308 273.746 154.999 273.917Z" fill="#1490DF"/>
<path opacity="0.1" d="M138.929 282.804L138.685 282.938C138.615 282.982 138.542 283.023 138.467 283.06C138.198 283.189 137.906 283.265 137.607 283.283L143.804 290.49L154.613 293.052C154.909 292.832 155.144 292.542 155.298 292.21L138.929 282.804Z" fill="black"/>
<path opacity="0.05" d="M140.033 282.193L138.685 282.938C138.615 282.983 138.542 283.023 138.467 283.06C138.198 283.189 137.906 283.265 137.607 283.283L140.51 291.156L154.616 293.049C155.172 292.638 155.499 291.995 155.499 291.311V291.076L140.033 282.193Z" fill="black"/>
<path d="M121.714 293.5H153.242C153.727 293.503 154.201 293.352 154.592 293.07L136.699 282.762C136.624 282.725 136.551 282.684 136.481 282.638L119.976 273.374H119.969L119.43 273.075V291.249C119.428 292.491 120.451 293.499 121.714 293.5Z" fill="#28A8EA"/>
<path opacity="0.1" d="M134.732 261.071V284C134.73 284.804 134.233 285.527 133.475 285.828C133.24 285.927 132.987 285.978 132.732 285.978H119.43V260.175H121.616V259.1H132.732C133.836 259.104 134.73 259.985 134.732 261.071Z" fill="black"/>
<path opacity="0.2" d="M133.639 262.145V285.075C133.642 285.335 133.586 285.592 133.475 285.828C133.171 286.563 132.446 287.046 131.639 287.05H119.43V260.175H131.639C131.956 260.172 132.268 260.25 132.546 260.401C133.216 260.733 133.639 261.407 133.639 262.145Z" fill="black"/>
<path opacity="0.2" d="M133.639 262.145V282.925C133.634 284.011 132.742 284.89 131.639 284.9H119.43V260.175H131.639C131.956 260.172 132.268 260.25 132.546 260.401C133.216 260.733 133.639 261.407 133.639 262.145Z" fill="black"/>
<path opacity="0.2" d="M132.546 262.145V282.925C132.545 284.012 131.651 284.894 130.546 284.9H119.43V260.175H130.546C131.651 260.175 132.547 261.057 132.546 262.144C132.546 262.145 132.546 262.145 132.546 262.145Z" fill="black"/>
<path d="M110.504 260.175H130.543C131.649 260.175 132.546 261.057 132.546 262.145V281.854C132.546 282.943 131.649 283.825 130.543 283.825H110.504C109.397 283.825 108.5 282.943 108.5 281.854V262.145C108.5 261.057 109.397 260.175 110.504 260.175Z" fill="url(#paint1_linear_1214_123208)"/>
<path d="M114.763 268.44C115.257 267.405 116.054 266.539 117.052 265.953C118.157 265.331 119.415 265.021 120.688 265.057C121.868 265.031 123.032 265.326 124.054 265.907C125.014 266.47 125.787 267.295 126.28 268.283C126.817 269.37 127.084 270.568 127.06 271.776C127.086 273.04 126.811 274.291 126.257 275.431C125.753 276.454 124.955 277.309 123.962 277.89C122.901 278.489 121.694 278.791 120.471 278.763C119.266 278.791 118.076 278.494 117.031 277.903C116.062 277.339 115.279 276.513 114.775 275.523C114.235 274.451 113.965 273.267 113.986 272.071C113.963 270.818 114.229 269.577 114.763 268.44ZM117.202 274.277C117.466 274.931 117.912 275.498 118.49 275.913C119.079 276.318 119.783 276.526 120.501 276.508C121.266 276.538 122.019 276.322 122.648 275.894C123.218 275.48 123.653 274.911 123.898 274.257C124.172 273.527 124.308 272.754 124.297 271.975C124.306 271.189 124.179 270.408 123.921 269.664C123.694 268.992 123.273 268.4 122.71 267.959C122.097 267.51 121.346 267.282 120.582 267.314C119.849 267.295 119.128 267.506 118.524 267.915C117.936 268.331 117.481 268.904 117.212 269.565C116.615 271.081 116.612 272.761 117.204 274.279L117.202 274.277Z" fill="white"/>
<path d="M143.477 256.95H153.314V266.625H143.477V256.95Z" fill="#50D9FF"/>
</g>
</g>
<g filter="url(#filter2_dd_1214_123208)">
<rect x="273" y="146" width="73" height="72" rx="14" fill="white"/>
<g clip-path="url(#clip4_1214_123208)">
<path d="M295.585 188.332C295.585 191.107 293.318 193.375 290.542 193.375C287.767 193.375 285.5 191.107 285.5 188.332C285.5 185.557 287.767 183.29 290.542 183.29H295.585V188.332Z" fill="#E01E5A"/>
<path d="M298.127 188.332C298.127 185.557 300.394 183.29 303.169 183.29C305.944 183.29 308.212 185.557 308.212 188.332V200.958C308.212 203.733 305.944 206 303.169 206C300.394 206 298.127 203.733 298.127 200.958V188.332Z" fill="#E01E5A"/>
<path d="M303.169 168.085C300.394 168.085 298.127 165.818 298.127 163.042C298.127 160.267 300.394 158 303.169 158C305.944 158 308.212 160.267 308.212 163.042V168.085H303.169Z" fill="#36C5F0"/>
<path d="M303.168 170.625C305.943 170.625 308.21 172.893 308.21 175.668C308.21 178.443 305.943 180.71 303.168 180.71H290.542C287.767 180.71 285.5 178.443 285.5 175.668C285.5 172.893 287.767 170.625 290.542 170.625H303.168Z" fill="#36C5F0"/>
<path d="M323.416 175.668C323.416 172.893 325.683 170.625 328.458 170.625C331.233 170.625 333.5 172.893 333.5 175.668C333.5 178.443 331.233 180.71 328.458 180.71H323.416V175.668Z" fill="#2EB67D"/>
<path d="M320.874 175.668C320.874 178.443 318.607 180.71 315.831 180.71C313.056 180.71 310.789 178.443 310.789 175.668V163.042C310.789 160.267 313.056 158 315.831 158C318.607 158 320.874 160.267 320.874 163.042V175.668Z" fill="#2EB67D"/>
<path d="M315.831 195.916C318.607 195.916 320.874 198.182 320.874 200.958C320.874 203.733 318.607 206 315.831 206C313.056 206 310.789 203.733 310.789 200.958V195.916H315.831Z" fill="#ECB22E"/>
<path d="M315.831 193.375C313.056 193.375 310.789 191.107 310.789 188.332C310.789 185.557 313.056 183.29 315.831 183.29H328.457C331.232 183.29 333.499 185.557 333.499 188.332C333.499 191.107 331.232 193.375 328.457 193.375H315.831Z" fill="#ECB22E"/>
</g>
</g>
<g filter="url(#filter3_dd_1214_123208)">
<rect x="184" y="294" width="72" height="72" rx="14" fill="white"/>
<g clip-path="url(#clip5_1214_123208)">
<g clip-path="url(#clip6_1214_123208)">
<path d="M210.378 341.204H206.078C199.593 341.204 194.941 337.232 194.941 331.416H218.061C219.259 331.416 220.034 332.267 220.034 333.473V356.738C214.255 356.738 210.378 352.056 210.378 345.531V341.204ZM221.796 329.643H217.497C211.012 329.643 206.36 325.742 206.36 319.926H229.479C230.678 319.926 231.524 320.706 231.524 321.912V345.176C225.744 345.176 221.796 340.495 221.796 333.97V329.643ZM233.286 318.153H228.986C222.501 318.153 217.849 314.181 217.849 308.365H240.969C242.167 308.365 242.942 309.216 242.942 310.351V333.615C237.162 333.615 233.286 328.934 233.286 322.408V318.153Z" fill="#1868DB"/>
</g>
</g>
</g>
<g filter="url(#filter4_dd_1214_123208)">
<rect x="273" y="236" width="72" height="72" rx="14" fill="white"/>
<g clip-path="url(#clip7_1214_123208)">
<g clip-path="url(#clip8_1214_123208)">
<path d="M327.926 279.802C315.17 273.634 311.443 272.712 306.069 272.712C299.762 272.712 294.388 275.335 289.586 282.709L288.798 283.914C288.153 284.906 288.01 285.261 288.01 285.686C288.01 286.112 288.225 286.466 289.013 286.962L297.111 291.996C297.541 292.279 297.899 292.421 298.258 292.421C298.687 292.421 298.974 292.209 299.404 291.57L300.694 289.585C302.701 286.537 304.492 285.544 306.785 285.544C308.792 285.544 311.157 286.112 314.095 287.529L322.551 291.5C323.411 291.925 324.343 291.712 324.773 290.72L328.786 281.929C329.216 280.936 328.929 280.298 327.926 279.802ZM290.733 264.276C303.489 270.444 307.215 271.365 312.59 271.365C318.896 271.365 324.271 268.742 329.072 261.369L329.861 260.164C330.506 259.171 330.649 258.817 330.649 258.391C330.649 257.966 330.434 257.611 329.646 257.115L321.548 252.082C321.118 251.798 320.76 251.656 320.401 251.656C319.971 251.656 319.685 251.869 319.255 252.507L317.965 254.492C315.958 257.541 314.167 258.533 311.873 258.533C309.867 258.533 307.502 257.966 304.564 256.548L296.108 252.578C295.248 252.153 294.316 252.365 293.886 253.358L289.873 262.149C289.443 263.141 289.73 263.779 290.733 264.276Z" fill="#1868DB"/>
</g>
</g>
</g>
<g filter="url(#filter5_dd_1214_123208)">
<rect x="96" y="146" width="72" height="72" rx="14" fill="white"/>
<g clip-path="url(#clip9_1214_123208)">
<path d="M141.482 176.375H153.88C155.051 176.375 156.001 177.332 156.001 178.512V189.894C156.001 194.233 152.511 197.75 148.206 197.75H148.169C143.864 197.751 140.374 194.234 140.373 189.895C140.373 189.895 140.373 189.894 140.373 189.894V177.492C140.373 176.875 140.869 176.375 141.482 176.375Z" fill="#5059C9"/>
<path d="M149.861 174.125C152.635 174.125 154.884 171.858 154.884 169.063C154.884 166.267 152.635 164 149.861 164C147.087 164 144.838 166.267 144.838 169.063C144.838 171.858 147.087 174.125 149.861 174.125Z" fill="#5059C9"/>
<path d="M134.232 174.125C138.24 174.125 141.488 170.851 141.488 166.813C141.488 162.774 138.24 159.5 134.232 159.5C130.225 159.5 126.977 162.774 126.977 166.813C126.977 170.851 130.225 174.125 134.232 174.125Z" fill="#7B83EB"/>
<path d="M143.908 176.375H123.442C122.285 176.404 121.369 177.372 121.396 178.538V191.52C121.234 198.52 126.73 204.329 133.675 204.5C140.621 204.329 146.116 198.52 145.954 191.52V178.538C145.981 177.372 145.065 176.404 143.908 176.375Z" fill="#7B83EB"/>
<path opacity="0.1" d="M134.79 176.375V194.566C134.785 195.4 134.283 196.15 133.518 196.467C133.274 196.571 133.012 196.625 132.748 196.625H122.377C122.232 196.254 122.098 195.883 121.987 195.5C121.596 194.209 121.397 192.867 121.395 191.518V178.535C121.368 177.37 122.282 176.404 123.438 176.375H134.79Z" fill="black"/>
<path opacity="0.2" d="M133.674 176.375V195.691C133.674 195.958 133.621 196.222 133.518 196.467C133.203 197.239 132.459 197.744 131.631 197.75H122.902C122.712 197.379 122.534 197.007 122.377 196.625C122.221 196.243 122.098 195.883 121.987 195.5C121.596 194.209 121.397 192.867 121.395 191.518V178.535C121.368 177.37 122.282 176.404 123.438 176.375H133.674Z" fill="black"/>
<path opacity="0.2" d="M133.674 176.375V193.441C133.666 194.575 132.756 195.491 131.631 195.5H121.987C121.596 194.209 121.397 192.867 121.395 191.518V178.535C121.368 177.37 122.282 176.404 123.438 176.375H133.674Z" fill="black"/>
<path opacity="0.2" d="M132.558 176.375V193.441C132.549 194.575 131.64 195.491 130.515 195.5H121.987C121.596 194.209 121.397 192.867 121.395 191.518V178.535C121.368 177.37 122.282 176.404 123.438 176.375H132.558Z" fill="black"/>
<path opacity="0.1" d="M134.791 170.559V174.102C134.601 174.114 134.422 174.125 134.233 174.125C134.043 174.125 133.864 174.114 133.674 174.102C133.298 174.077 132.924 174.017 132.558 173.922C130.298 173.383 128.43 171.785 127.535 169.625C127.381 169.262 127.261 168.886 127.178 168.5H132.748C133.874 168.504 134.786 169.423 134.791 170.559Z" fill="black"/>
<path opacity="0.2" d="M133.675 171.684V174.102C133.298 174.077 132.924 174.017 132.558 173.922C130.298 173.383 128.43 171.785 127.535 169.625H131.632C132.758 169.629 133.67 170.549 133.675 171.684Z" fill="black"/>
<path opacity="0.2" d="M133.675 171.684V174.102C133.298 174.077 132.924 174.017 132.558 173.922C130.298 173.383 128.43 171.785 127.535 169.625H131.632C132.758 169.629 133.67 170.549 133.675 171.684Z" fill="black"/>
<path opacity="0.2" d="M132.558 171.684V173.922C130.298 173.383 128.43 171.785 127.535 169.625H130.516C131.642 169.629 132.554 170.549 132.558 171.684Z" fill="black"/>
<path d="M110.046 169.625H130.512C131.642 169.625 132.558 170.548 132.558 171.687V192.313C132.558 193.452 131.642 194.375 130.512 194.375H110.046C108.916 194.375 108 193.452 108 192.313V171.687C108 170.548 108.916 169.625 110.046 169.625Z" fill="url(#paint2_linear_1214_123208)"/>
<path d="M125.664 177.475H121.573V188.703H118.967V177.475H114.895V175.297H125.664V177.475Z" fill="white"/>
</g>
</g>
</g>
</g>
<defs>
<filter id="filter0_dd_1214_123208" x="183" y="87" width="74" height="75" filterUnits="userSpaceOnUse" color-interpolation-filters="sRGB">
<feFlood flood-opacity="0" result="BackgroundImageFix"/>
<feColorMatrix in="SourceAlpha" type="matrix" values="0 0 0 0 0 0 0 0 0 0 0 0 0 0 0 0 0 0 127 0" result="hardAlpha"/>
<feOffset dy="1"/>
<feGaussianBlur stdDeviation="0.5"/>
<feColorMatrix type="matrix" values="0 0 0 0 0.0352941 0 0 0 0 0.117647 0 0 0 0 0.258824 0 0 0 0.25 0"/>
<feBlend mode="normal" in2="BackgroundImageFix" result="effect1_dropShadow_1214_123208"/>
<feColorMatrix in="SourceAlpha" type="matrix" values="0 0 0 0 0 0 0 0 0 0 0 0 0 0 0 0 0 0 127 0" result="hardAlpha"/>
<feOffset/>
<feGaussianBlur stdDeviation="0.5"/>
<feColorMatrix type="matrix" values="0 0 0 0 0.0352941 0 0 0 0 0.117647 0 0 0 0 0.258824 0 0 0 0.31 0"/>
<feBlend mode="normal" in2="effect1_dropShadow_1214_123208" result="effect2_dropShadow_1214_123208"/>
<feBlend mode="normal" in="SourceGraphic" in2="effect2_dropShadow_1214_123208" result="shape"/>
</filter>
<filter id="filter1_dd_1214_123208" x="95" y="235" width="74" height="75" filterUnits="userSpaceOnUse" color-interpolation-filters="sRGB">
<feFlood flood-opacity="0" result="BackgroundImageFix"/>
<feColorMatrix in="SourceAlpha" type="matrix" values="0 0 0 0 0 0 0 0 0 0 0 0 0 0 0 0 0 0 127 0" result="hardAlpha"/>
<feOffset dy="1"/>
<feGaussianBlur stdDeviation="0.5"/>
<feColorMatrix type="matrix" values="0 0 0 0 0.0352941 0 0 0 0 0.117647 0 0 0 0 0.258824 0 0 0 0.25 0"/>
<feBlend mode="normal" in2="BackgroundImageFix" result="effect1_dropShadow_1214_123208"/>
<feColorMatrix in="SourceAlpha" type="matrix" values="0 0 0 0 0 0 0 0 0 0 0 0 0 0 0 0 0 0 127 0" result="hardAlpha"/>
<feOffset/>
<feGaussianBlur stdDeviation="0.5"/>
<feColorMatrix type="matrix" values="0 0 0 0 0.0352941 0 0 0 0 0.117647 0 0 0 0 0.258824 0 0 0 0.31 0"/>
<feBlend mode="normal" in2="effect1_dropShadow_1214_123208" result="effect2_dropShadow_1214_123208"/>
<feBlend mode="normal" in="SourceGraphic" in2="effect2_dropShadow_1214_123208" result="shape"/>
</filter>
<filter id="filter2_dd_1214_123208" x="272" y="145" width="75" height="75" filterUnits="userSpaceOnUse" color-interpolation-filters="sRGB">
<feFlood flood-opacity="0" result="BackgroundImageFix"/>
<feColorMatrix in="SourceAlpha" type="matrix" values="0 0 0 0 0 0 0 0 0 0 0 0 0 0 0 0 0 0 127 0" result="hardAlpha"/>
<feOffset dy="1"/>
<feGaussianBlur stdDeviation="0.5"/>
<feColorMatrix type="matrix" values="0 0 0 0 0.0352941 0 0 0 0 0.117647 0 0 0 0 0.258824 0 0 0 0.25 0"/>
<feBlend mode="normal" in2="BackgroundImageFix" result="effect1_dropShadow_1214_123208"/>
<feColorMatrix in="SourceAlpha" type="matrix" values="0 0 0 0 0 0 0 0 0 0 0 0 0 0 0 0 0 0 127 0" result="hardAlpha"/>
<feOffset/>
<feGaussianBlur stdDeviation="0.5"/>
<feColorMatrix type="matrix" values="0 0 0 0 0.0352941 0 0 0 0 0.117647 0 0 0 0 0.258824 0 0 0 0.31 0"/>
<feBlend mode="normal" in2="effect1_dropShadow_1214_123208" result="effect2_dropShadow_1214_123208"/>
<feBlend mode="normal" in="SourceGraphic" in2="effect2_dropShadow_1214_123208" result="shape"/>
</filter>
<filter id="filter3_dd_1214_123208" x="183" y="293" width="74" height="75" filterUnits="userSpaceOnUse" color-interpolation-filters="sRGB">
<feFlood flood-opacity="0" result="BackgroundImageFix"/>
<feColorMatrix in="SourceAlpha" type="matrix" values="0 0 0 0 0 0 0 0 0 0 0 0 0 0 0 0 0 0 127 0" result="hardAlpha"/>
<feOffset dy="1"/>
<feGaussianBlur stdDeviation="0.5"/>
<feColorMatrix type="matrix" values="0 0 0 0 0.0352941 0 0 0 0 0.117647 0 0 0 0 0.258824 0 0 0 0.25 0"/>
<feBlend mode="normal" in2="BackgroundImageFix" result="effect1_dropShadow_1214_123208"/>
<feColorMatrix in="SourceAlpha" type="matrix" values="0 0 0 0 0 0 0 0 0 0 0 0 0 0 0 0 0 0 127 0" result="hardAlpha"/>
<feOffset/>
<feGaussianBlur stdDeviation="0.5"/>
<feColorMatrix type="matrix" values="0 0 0 0 0.0352941 0 0 0 0 0.117647 0 0 0 0 0.258824 0 0 0 0.31 0"/>
<feBlend mode="normal" in2="effect1_dropShadow_1214_123208" result="effect2_dropShadow_1214_123208"/>
<feBlend mode="normal" in="SourceGraphic" in2="effect2_dropShadow_1214_123208" result="shape"/>
</filter>
<filter id="filter4_dd_1214_123208" x="272" y="235" width="74" height="75" filterUnits="userSpaceOnUse" color-interpolation-filters="sRGB">
<feFlood flood-opacity="0" result="BackgroundImageFix"/>
<feColorMatrix in="SourceAlpha" type="matrix" values="0 0 0 0 0 0 0 0 0 0 0 0 0 0 0 0 0 0 127 0" result="hardAlpha"/>
<feOffset dy="1"/>
<feGaussianBlur stdDeviation="0.5"/>
<feColorMatrix type="matrix" values="0 0 0 0 0.0352941 0 0 0 0 0.117647 0 0 0 0 0.258824 0 0 0 0.25 0"/>
<feBlend mode="normal" in2="BackgroundImageFix" result="effect1_dropShadow_1214_123208"/>
<feColorMatrix in="SourceAlpha" type="matrix" values="0 0 0 0 0 0 0 0 0 0 0 0 0 0 0 0 0 0 127 0" result="hardAlpha"/>
<feOffset/>
<feGaussianBlur stdDeviation="0.5"/>
<feColorMatrix type="matrix" values="0 0 0 0 0.0352941 0 0 0 0 0.117647 0 0 0 0 0.258824 0 0 0 0.31 0"/>
<feBlend mode="normal" in2="effect1_dropShadow_1214_123208" result="effect2_dropShadow_1214_123208"/>
<feBlend mode="normal" in="SourceGraphic" in2="effect2_dropShadow_1214_123208" result="shape"/>
</filter>
<filter id="filter5_dd_1214_123208" x="95" y="145" width="74" height="75" filterUnits="userSpaceOnUse" color-interpolation-filters="sRGB">
<feFlood flood-opacity="0" result="BackgroundImageFix"/>
<feColorMatrix in="SourceAlpha" type="matrix" values="0 0 0 0 0 0 0 0 0 0 0 0 0 0 0 0 0 0 127 0" result="hardAlpha"/>
<feOffset dy="1"/>
<feGaussianBlur stdDeviation="0.5"/>
<feColorMatrix type="matrix" values="0 0 0 0 0.0352941 0 0 0 0 0.117647 0 0 0 0 0.258824 0 0 0 0.25 0"/>
<feBlend mode="normal" in2="BackgroundImageFix" result="effect1_dropShadow_1214_123208"/>
<feColorMatrix in="SourceAlpha" type="matrix" values="0 0 0 0 0 0 0 0 0 0 0 0 0 0 0 0 0 0 127 0" result="hardAlpha"/>
<feOffset/>
<feGaussianBlur stdDeviation="0.5"/>
<feColorMatrix type="matrix" values="0 0 0 0 0.0352941 0 0 0 0 0.117647 0 0 0 0 0.258824 0 0 0 0.31 0"/>
<feBlend mode="normal" in2="effect1_dropShadow_1214_123208" result="effect2_dropShadow_1214_123208"/>
<feBlend mode="normal" in="SourceGraphic" in2="effect2_dropShadow_1214_123208" result="shape"/>
</filter>
<linearGradient id="paint0_linear_1214_123208" x1="137.465" y1="273.075" x2="137.465" y2="293.5" gradientUnits="userSpaceOnUse">
<stop stop-color="#35B8F1"/>
<stop offset="1" stop-color="#28A8EA"/>
</linearGradient>
<linearGradient id="paint1_linear_1214_123208" x1="112.677" y1="258.635" x2="127.981" y2="285.585" gradientUnits="userSpaceOnUse">
<stop stop-color="#1784D9"/>
<stop offset="0.5" stop-color="#107AD5"/>
<stop offset="1" stop-color="#0A63C9"/>
</linearGradient>
<linearGradient id="paint2_linear_1214_123208" x1="112.266" y1="168.014" x2="128.48" y2="195.877" gradientUnits="userSpaceOnUse">
<stop stop-color="#5A62C3"/>
<stop offset="0.5" stop-color="#4D55BD"/>
<stop offset="1" stop-color="#3940AB"/>
</linearGradient>
<clipPath id="clip0_1214_123208">
<rect width="442.98" height="442.98" fill="white"/>
</clipPath>
<clipPath id="clip1_1214_123208">
<rect width="442.98" height="442.98" fill="white"/>
</clipPath>
<clipPath id="clip2_1214_123208">
<rect width="48" height="36" fill="white" transform="translate(196 106)"/>
</clipPath>
<clipPath id="clip3_1214_123208">
<rect width="47" height="43" fill="white" transform="translate(108.5 250.5)"/>
</clipPath>
<clipPath id="clip4_1214_123208">
<rect width="48" height="48.0002" fill="white" transform="translate(285.5 158)"/>
</clipPath>
<clipPath id="clip5_1214_123208">
<rect width="62" height="62" fill="white" transform="translate(189 299)"/>
</clipPath>
<clipPath id="clip6_1214_123208">
<rect width="48.0008" height="48.3729" fill="white" transform="translate(194.941 308.365)"/>
</clipPath>
<clipPath id="clip7_1214_123208">
<rect width="62" height="62" fill="white" transform="translate(278 241)"/>
</clipPath>
<clipPath id="clip8_1214_123208">
<rect width="42.6393" height="40.765" fill="white" transform="translate(288.01 251.656)"/>
</clipPath>
<clipPath id="clip9_1214_123208">
<rect width="48" height="45" fill="white" transform="translate(108 159.5)"/>
</clipPath>
</defs>
</svg>
