<svg width="32" height="32" viewBox="0 0 32 32" fill="none" xmlns="http://www.w3.org/2000/svg">
<path d="M28 0H4C1.79086 0 0 1.79086 0 4V28C0 30.2091 1.79086 32 4 32H28C30.2091 32 32 30.2091 32 28V4C32 1.79086 30.2091 0 28 0Z" fill="#FF0066"/>
<path d="M10.8889 10.2977C11.2515 10.2924 11.6045 10.18 11.9034 9.97469C12.2023 9.76939 12.4339 9.4803 12.569 9.14377C12.7041 8.80724 12.7367 8.43828 12.6627 8.08327C12.5888 7.72826 12.4115 7.40304 12.1532 7.14848C11.8949 6.89392 11.5672 6.72139 11.2111 6.65257C10.8551 6.58375 10.4866 6.62171 10.1521 6.76168C9.81757 6.90165 9.53187 7.13739 9.33092 7.43926C9.12998 7.74113 9.02274 8.09566 9.02271 8.4583C9.02353 8.70188 9.07257 8.9429 9.16699 9.16744C9.2614 9.39198 9.39932 9.59561 9.57281 9.7666C9.74629 9.93759 9.95191 10.0725 10.1778 10.1637C10.4037 10.2548 10.6454 10.3004 10.8889 10.2977Z" fill="white"/>
<path d="M7.01947 20.1451C6.91351 20.598 6.85813 21.0612 6.85435 21.5262C6.85435 23.1454 7.73243 24.2206 9.59867 24.2206C11.1462 24.2206 12.4019 23.3016 13.3043 21.8168L12.7526 24.0312H15.8246L17.582 16.9912C18.0211 15.2069 18.871 14.2814 20.1612 14.2814C21.1763 14.2814 21.8073 14.9125 21.8073 15.9557C21.8123 16.2901 21.7661 16.6234 21.6703 16.9438L20.7654 20.181C20.6359 20.6268 20.5712 21.0889 20.5734 21.5531C20.5734 23.0891 21.4783 24.2155 23.3715 24.2155C24.9907 24.2155 26.2809 23.1736 26.9939 20.6763L25.7868 20.2091C25.1827 21.8834 24.6617 22.1854 24.2508 22.1854C23.8399 22.1854 23.6185 21.9115 23.6185 21.3624C23.6304 21.0742 23.6763 20.7885 23.7555 20.5112L24.6348 17.356C24.8322 16.7073 24.934 16.0334 24.9369 15.3554C24.9369 12.995 23.5097 11.7637 21.7804 11.7637C20.1612 11.7637 18.5151 13.2242 17.6921 14.7614L18.295 12.0018H13.6038L12.9446 14.4338H15.1411L13.7894 19.8405C12.727 22.2008 10.7763 22.2392 10.5318 22.1842C10.1299 22.0933 9.87387 21.941 9.87387 21.4162C9.88559 20.9913 9.95009 20.5695 10.0659 20.1605L12.1241 11.9954H6.91195L6.25403 14.4274H8.42107L7.01947 20.1451Z" fill="white"/>
</svg>
