<svg fill="none" height="40" viewBox="0 0 40 40" width="40" xmlns="http://www.w3.org/2000/svg"><g clip-rule="evenodd" fill="#091e42" fill-rule="evenodd"><path d="m17.5903 16.3855h2.1687c.3992 0 .7229.3236.7229.7229v.4819h13.4918c.1917 0 .3756.0761.5111.2117l1.6868 1.6868c.2823.2823.2823.74 0 1.0223l-1.6868 1.6867c-.1355.1356-.3194.2118-.5111.2118h-1.8693l-1.8984 1.8984c-.2823.2823-.7401.2823-1.0224 0l-1.8984-1.8984-1.8985 1.8984c-.2823.2823-.74.2823-1.0223 0l-1.8985-1.8984h-1.984v.4819c0 .3992-.3237.7229-.7229.7229h-2.1687z" opacity=".5"/><path d="m3.13257 19.9999c0 4.2586 3.45226 7.7109 7.71083 7.7109 4.2586 0 7.7109-3.4523 7.7109-7.7109s-3.4523-7.7108-7.7109-7.7108c-4.25857 0-7.71083 3.4522-7.71083 7.7108zm5.30119 2.6506c1.46389 0 2.65064-1.1867 2.65064-2.6506s-1.18675-2.6506-2.65064-2.6506-2.6506 1.1867-2.6506 2.6506 1.18671 2.6506 2.6506 2.6506z"/></g></svg>