<svg width="122" height="137" viewBox="0 0 122 137" fill="none" xmlns="http://www.w3.org/2000/svg">
<g clip-path="url(#clip0_2870_15864)">
<path d="M31.5527 30.4004L16.0127 136.079H117.114L98.8411 30.4004H31.5527Z" fill="#CC56F9"/>
<path d="M121.523 0V47.3647H11.6094V0H37.8785V23.6791H53.3927V0H79.733V23.6791H95.2472V0H121.523Z" fill="#CC56F9"/>
<path d="M79.0857 75.8482C79.2411 74.9741 79.3253 74.0481 79.3253 73.0639C79.3253 72.0797 79.2411 71.1279 79.0857 70.2473C78.1404 64.9896 74.4885 61.7521 69.3667 60.9168C68.4926 60.7744 67.5796 60.7031 66.6213 60.7031C65.663 60.7031 64.6723 60.7808 63.7658 60.9362C58.6376 61.7909 54.9922 65.022 54.0468 70.2538C53.885 71.1344 53.8008 72.0797 53.8008 73.0704C53.8008 74.0611 53.885 74.9805 54.0404 75.8547C54.9792 81.0735 58.6311 84.3175 63.7594 85.1722C64.6659 85.3211 65.6242 85.4053 66.6148 85.4053C67.6055 85.4053 68.4861 85.3341 69.3602 85.1916C74.4885 84.3564 78.1468 81.1124 79.0857 75.8611V75.8482Z" fill="#F0F1F2"/>
<path d="M74.6831 79.041H58.4502V100.551H74.6831V79.041Z" fill="#F0F1F2"/>
<path d="M79.0857 70.2479C79.0274 69.9371 78.9627 69.6328 78.8915 69.3349C77.7065 64.6147 74.1841 61.6944 69.3667 60.9174C68.4926 60.775 67.5731 60.6973 66.6213 60.6973C65.6695 60.6973 64.6723 60.7814 63.7658 60.9304C58.9419 61.7333 55.4325 64.6406 54.2411 69.3349C54.1699 69.6328 54.1051 69.9371 54.0468 70.2479C53.885 71.1285 53.8008 72.0674 53.8008 73.0645C53.8008 74.0617 53.885 74.9488 54.0339 75.81C54.0339 75.8229 54.0404 75.8359 54.0404 75.8488C54.9792 81.0677 58.6311 84.3052 63.7658 85.1664C64.6723 85.3153 65.6242 85.393 66.6213 85.393C67.6185 85.393 68.4926 85.3218 69.3667 85.1793C74.4949 84.344 78.1533 81.1 79.0857 75.8488C79.0857 75.8359 79.0922 75.8229 79.0922 75.81C79.2411 74.9488 79.3253 74.0358 79.3253 73.0645C79.3253 72.0933 79.2411 71.1285 79.0857 70.2479Z" fill="#F0F1F2"/>
<path d="M79.0859 70.2475C79.0276 69.9367 78.9628 69.6324 78.8916 69.3346H36.4349V69.6C36.4155 69.4317 36.3896 69.2698 36.3572 69.1079C34.9975 61.707 29.8175 56.7407 22.1446 55.4845C20.8884 55.2773 19.5675 55.1867 18.2336 55.1802C16.9451 55.1802 15.6825 55.2838 14.4717 55.4845C6.90884 56.7342 1.61875 61.8689 0.323751 69.2115C0.1036 70.4547 0 71.7692 0 73.116C0 74.4498 0.11655 75.7513 0.336701 76.9751C1.67055 84.3113 6.98654 89.4201 14.5688 90.6309C15.7602 90.8187 17.0034 90.9158 18.266 90.9158H18.3308C19.6711 90.9093 20.9855 90.7992 22.2417 90.5856C29.9146 89.2841 35.0687 84.2918 36.3831 76.878C36.4414 76.5283 36.4997 76.1722 36.5385 75.8096H79.0923C79.2412 74.9484 79.3254 74.0354 79.3254 73.0642C79.3254 72.0929 79.2412 71.1281 79.0859 70.2475ZM29.7139 75.6995C28.6908 81.4493 24.4691 83.34 21.1086 83.9098C20.215 84.0587 19.2761 84.1364 18.3113 84.1429C17.3789 84.1364 16.4919 84.0782 15.6372 83.9422C13.9601 83.6702 12.063 83.0745 10.4572 81.8184C8.84487 80.5622 7.53044 78.6586 7.00597 75.7643C6.85057 74.929 6.77287 74.0354 6.77287 73.0965C6.76639 72.1512 6.84409 71.2382 6.99302 70.39C8.01607 64.6013 12.2313 62.7236 15.5789 62.1667C16.4336 62.0243 17.3271 61.953 18.2531 61.953H18.3049C19.2502 61.953 20.1697 62.0243 21.0503 62.1667C24.4108 62.7171 28.6325 64.5819 29.6944 70.3317C29.8498 71.1799 29.9275 72.0864 29.934 73.0383C29.934 73.9707 29.8628 74.8642 29.7139 75.6995Z" fill="#FFA400"/>
<path d="M79.0863 70.2478C79.0281 69.937 78.9633 69.6327 78.8921 69.3349H36.4354V69.6003C36.416 69.432 36.3901 69.2701 36.3577 69.1082C35.3541 63.6369 32.259 59.4928 27.61 57.2007L26.5351 64.5434C28.0049 65.793 29.1963 67.6384 29.6949 70.332C29.8503 71.1802 29.928 72.0868 29.9345 73.0386C29.9345 73.971 29.8633 74.8645 29.7143 75.6998C28.9568 79.9733 26.425 82.1166 23.7962 83.172L22.7148 90.5017C30.1287 89.0772 35.0951 84.1368 36.3836 76.8783C36.4419 76.5286 36.5002 76.1725 36.539 75.8099H79.0928C79.2417 74.9487 79.3259 74.0357 79.3259 73.0645C79.3259 72.0932 79.2417 71.1284 79.0863 70.2478Z" fill="#BB1402"/>
</g>
<defs>
<clipPath id="clip0_2870_15864">
<rect width="121.523" height="136.079" fill="white"/>
</clipPath>
</defs>
</svg>
