<svg xmlns="http://www.w3.org/2000/svg" xmlns:xlink="http://www.w3.org/1999/xlink" viewBox="0 0 94.99 86.2"><defs><style>.ae414370-6f9b-4097-a3cc-92656cd5cb3f{fill:url(#adf79ae7-1ec4-4a57-80f5-6684f026ede3);}.f3eda12b-af91-4b7f-b3c6-8c4e77120f1b{fill:url(#f4aeb843-8e76-4772-9ffe-fb5af72480db);}.e0c2a9d6-a75c-4255-8a42-83dd2c54d7b3{fill:url(#bdf0fa29-b4ea-4340-af2a-1b69fb2f5797);}.a0f0b4f9-b048-4ef1-bc29-c9c98f0b81f8{fill:url(#b51d3ebf-c651-4b9a-96e9-b16e49d7049b);}.bcb5427f-ecb1-411d-8790-3f57849f7eb8{opacity:0.63;fill:url(#bbcaf627-8cdc-45ed-95e6-5e23c7e7b9d3);}.b56e9941-15b5-494a-a46c-98d83cdb0423{opacity:0.6;fill:url(#bd27a9a5-1838-4502-8cce-c17df852f39a);}.a0c87d1e-4fa8-41ba-b71d-4e8291365213{fill:url(#b2d133d3-66c7-4862-b244-057df0b6f6f6);}.fe26e7b0-8260-4b00-9c8c-f335420df4be{fill:#fff;}.bf86b16c-7522-48bf-8a35-d00feaf1e17b{fill:url(#fa9a2849-3be0-4106-8d70-1cd054c5435c);}.a1689088-169a-4f64-be15-95c539c407e1{fill:url(#a5a0520f-5a56-4239-9001-6958c5b332e4);}.b8b5bfee-bbcc-4c84-9cb9-925218c73ef3{fill:url(#b0a7e4eb-0096-4aa1-914a-135a1c82c525);}.bddfac34-3449-4974-bc77-21fd1dd1ca9c{fill:url(#b4107a06-555f-450c-a8ad-16fae6c4b681);}.e624caee-3f4b-4de9-ac01-8ca6745e25ff{fill:url(#e6ceb7f0-ede0-40ae-9c29-08bab3c75e76);}</style><linearGradient id="adf79ae7-1ec4-4a57-80f5-6684f026ede3" x1="49.22" y1="27.89" x2="47.16" y2="74.78" gradientUnits="userSpaceOnUse"><stop offset="0" stop-color="#3ac2db"/><stop offset="1" stop-color="#00b0cc"/></linearGradient><linearGradient id="f4aeb843-8e76-4772-9ffe-fb5af72480db" x1="25.62" y1="72.42" x2="90.98" y2="37.49" gradientUnits="userSpaceOnUse"><stop offset="0" stop-color="#dff2f6"/><stop offset="1" stop-color="#b7e2ec"/></linearGradient><linearGradient id="bdf0fa29-b4ea-4340-af2a-1b69fb2f5797" x1="12.87" y1="82.69" x2="138.63" y2="81.31" gradientUnits="userSpaceOnUse"><stop offset="0" stop-color="#0484a1"/><stop offset="1" stop-color="#00b0cc"/></linearGradient><linearGradient id="b51d3ebf-c651-4b9a-96e9-b16e49d7049b" x1="21.89" y1="89.99" x2="20.24" y2="51.16" gradientUnits="userSpaceOnUse"><stop offset="0" stop-color="#3ac2db"/><stop offset="1" stop-color="#85d2e0"/></linearGradient><linearGradient id="bbcaf627-8cdc-45ed-95e6-5e23c7e7b9d3" x1="35.56" y1="82.59" x2="34.74" y2="58.42" xlink:href="#b51d3ebf-c651-4b9a-96e9-b16e49d7049b"/><linearGradient id="bd27a9a5-1838-4502-8cce-c17df852f39a" x1="49.78" y1="82.07" x2="48.96" y2="58.04" xlink:href="#b51d3ebf-c651-4b9a-96e9-b16e49d7049b"/><linearGradient id="b2d133d3-66c7-4862-b244-057df0b6f6f6" x1="15.91" y1="74.43" x2="54.35" y2="74.43" xlink:href="#b51d3ebf-c651-4b9a-96e9-b16e49d7049b"/><linearGradient id="fa9a2849-3be0-4106-8d70-1cd054c5435c" x1="67.57" y1="42.34" x2="67.29" y2="70.31" xlink:href="#bdf0fa29-b4ea-4340-af2a-1b69fb2f5797"/><linearGradient id="a5a0520f-5a56-4239-9001-6958c5b332e4" x1="30.97" y1="24.69" x2="27.65" y2="56.26" xlink:href="#bdf0fa29-b4ea-4340-af2a-1b69fb2f5797"/><linearGradient id="b0a7e4eb-0096-4aa1-914a-135a1c82c525" x1="26.09" y1="25.09" x2="68.06" y2="25.09" xlink:href="#adf79ae7-1ec4-4a57-80f5-6684f026ede3"/><linearGradient id="b4107a06-555f-450c-a8ad-16fae6c4b681" x1="69.51" y1="0.74" x2="74.08" y2="63.47" xlink:href="#bdf0fa29-b4ea-4340-af2a-1b69fb2f5797"/><linearGradient id="e6ceb7f0-ede0-40ae-9c29-08bab3c75e76" x1="25.08" y1="7.91" x2="23.42" y2="37.4" xlink:href="#bdf0fa29-b4ea-4340-af2a-1b69fb2f5797"/></defs><title>Marketing</title><g id="b3d334f1-edcd-4397-ac40-811ebaa4a5a8" data-name="Layer 2"><g id="bf361dbf-a09a-42f0-ab00-0d93c81bb048" data-name="icons"><path class="ae414370-6f9b-4097-a3cc-92656cd5cb3f" d="M20.63,32.69H74.77A14.07,14.07,0,0,1,88.84,46.76V78.49a0,0,0,0,1,0,0H6.56a0,0,0,0,1,0,0V46.76A14.07,14.07,0,0,1,20.63,32.69Z"/><path class="f3eda12b-af91-4b7f-b3c6-8c4e77120f1b" d="M20.46,37.06H74.52A10.58,10.58,0,0,1,85.1,47.64V80.16a0,0,0,0,1,0,0H9.88a0,0,0,0,1,0,0V47.64A10.58,10.58,0,0,1,20.46,37.06Z"/><path class="e0c2a9d6-a75c-4255-8a42-83dd2c54d7b3" d="M1.09,78.49A1.1,1.1,0,0,0,0,79.79,7.69,7.69,0,0,0,7.6,86.2H87.39A7.71,7.71,0,0,0,95,79.74a1.1,1.1,0,0,0-1.09-1.25Z"/><path class="a0f0b4f9-b048-4ef1-bc29-c9c98f0b81f8" d="M20.79,49.35h0a4.88,4.88,0,0,1,4.88,4.88v20.1a0,0,0,0,1,0,0H15.91a0,0,0,0,1,0,0V54.23A4.88,4.88,0,0,1,20.79,49.35Z"/><path class="bcb5427f-ecb1-411d-8790-3f57849f7eb8" d="M35.13,60.59h0A4.88,4.88,0,0,1,40,65.47v8.86a0,0,0,0,1,0,0H30.25a0,0,0,0,1,0,0V65.47a4.88,4.88,0,0,1,4.88-4.88Z"/><path class="b56e9941-15b5-494a-a46c-98d83cdb0423" d="M49.47,66.42h0a4.88,4.88,0,0,1,4.88,4.88v3a0,0,0,0,1,0,0H44.58a0,0,0,0,1,0,0v-3A4.88,4.88,0,0,1,49.47,66.42Z"/><rect class="a0c87d1e-4fa8-41ba-b71d-4e8291365213" x="15.91" y="73.08" width="38.44" height="2.71"/><path class="fe26e7b0-8260-4b00-9c8c-f335420df4be" d="M81.78,54.1l-12.86,0,0-5.9,0-7h0a12.59,12.59,0,0,1,3.7.54A12.91,12.91,0,0,1,81.78,54.1Z"/><path class="bf86b16c-7522-48bf-8a35-d00feaf1e17b" d="M80.32,55.56l-12.86,0v-5.9l0-7A12.87,12.87,0,0,0,54.56,55.59v0A12.9,12.9,0,0,0,67.44,68.5h.06A12.89,12.89,0,0,0,80.32,55.59Z"/><path class="a1689088-169a-4f64-be15-95c539c407e1" d="M24,35.19V46.26a2,2,0,0,0,3.57,1.18l8.36-11.32L24.22,30.19Z"/><polygon class="b8b5bfee-bbcc-4c84-9cb9-925218c73ef3" points="68.06 46.65 26.09 32.9 26.09 17.28 68.06 3.52 68.06 46.65"/><rect class="bddfac34-3449-4974-bc77-21fd1dd1ca9c" x="68.06" width="6.44" height="50.18" rx="3.22"/><rect class="e624caee-3f4b-4de9-ac01-8ca6745e25ff" x="20.9" y="14.89" width="6.44" height="20.4" rx="3.22"/></g></g></svg>