<?xml version="1.0" encoding="UTF-8"?>
<svg xmlns="http://www.w3.org/2000/svg" xmlns:xlink="http://www.w3.org/1999/xlink" width="64px" height="64px" viewBox="0 0 64 64" version="1.1">
<defs>
<filter id="alpha" filterUnits="objectBoundingBox" x="0%" y="0%" width="100%" height="100%">
  <feColorMatrix type="matrix" in="SourceGraphic" values="0 0 0 0 1 0 0 0 0 1 0 0 0 0 1 0 0 0 1 0"/>
</filter>
<mask id="mask0">
  <g filter="url(#alpha)">
<rect x="0" y="0" width="64" height="64" style="fill:rgb(0%,0%,0%);fill-opacity:0.101961;stroke:none;"/>
  </g>
</mask>
<clipPath id="clip1">
  <rect x="0" y="0" width="64" height="64"/>
</clipPath>
<g id="surface5" clip-path="url(#clip1)">
<path style=" stroke:none;fill-rule:nonzero;fill:rgb(0%,0%,0%);fill-opacity:1;" d="M 33.332031 14 L 24.882812 14 C 24.894531 14.0625 24.910156 14.125 24.925781 14.1875 L 24.929688 14.203125 C 24.941406 14.257812 24.957031 14.316406 24.972656 14.375 C 26.246094 19.210938 31.109375 22.1875 36 21.117188 L 36 16.667969 C 35.996094 15.195312 34.804688 14.003906 33.332031 14 Z M 33.332031 14 "/>
</g>
<mask id="mask1">
  <g filter="url(#alpha)">
<rect x="0" y="0" width="64" height="64" style="fill:rgb(0%,0%,0%);fill-opacity:0.2;stroke:none;"/>
  </g>
</mask>
<clipPath id="clip2">
  <rect x="0" y="0" width="64" height="64"/>
</clipPath>
<g id="surface8" clip-path="url(#clip2)">
<path style=" stroke:none;fill-rule:nonzero;fill:rgb(0%,0%,0%);fill-opacity:1;" d="M 31.332031 16 L 25.566406 16 C 27.109375 19.257812 30.394531 21.332031 34 21.332031 L 34 18.667969 C 33.996094 17.195312 32.804688 16.003906 31.332031 16 Z M 31.332031 16 "/>
</g>
<mask id="mask2">
  <g filter="url(#alpha)">
<rect x="0" y="0" width="64" height="64" style="fill:rgb(0%,0%,0%);fill-opacity:0.2;stroke:none;"/>
  </g>
</mask>
<clipPath id="clip3">
  <rect x="0" y="0" width="64" height="64"/>
</clipPath>
<g id="surface11" clip-path="url(#clip3)">
<path style=" stroke:none;fill-rule:nonzero;fill:rgb(0%,0%,0%);fill-opacity:1;" d="M 31.332031 16 L 25.566406 16 C 27.109375 19.257812 30.394531 21.332031 34 21.332031 L 34 18.667969 C 33.996094 17.195312 32.804688 16.003906 31.332031 16 Z M 31.332031 16 "/>
</g>
<mask id="mask3">
  <g filter="url(#alpha)">
<rect x="0" y="0" width="64" height="64" style="fill:rgb(0%,0%,0%);fill-opacity:0.101961;stroke:none;"/>
  </g>
</mask>
<clipPath id="clip4">
  <rect x="0" y="0" width="64" height="64"/>
</clipPath>
<g id="surface14" clip-path="url(#clip4)">
<path style=" stroke:none;fill-rule:nonzero;fill:rgb(0%,0%,0%);fill-opacity:1;" d="M 36 24 L 36 49.339844 C 36 50.582031 35.132812 51.65625 33.921875 51.921875 C 33.730469 51.976562 33.535156 52.003906 33.339844 52 L 19.160156 52 C 18.898438 51.347656 18.679688 50.679688 18.5 50 C 18.171875 48.691406 18.003906 47.347656 18 46 L 18 27 C 18 26.203125 18.316406 25.441406 18.878906 24.878906 C 19.441406 24.316406 20.203125 24 21 24 Z M 36 24 "/>
</g>
<mask id="mask4">
  <g filter="url(#alpha)">
<rect x="0" y="0" width="64" height="64" style="fill:rgb(0%,0%,0%);fill-opacity:0.2;stroke:none;"/>
  </g>
</mask>
<clipPath id="clip5">
  <rect x="0" y="0" width="64" height="64"/>
</clipPath>
<g id="surface17" clip-path="url(#clip5)">
<path style=" stroke:none;fill-rule:nonzero;fill:rgb(0%,0%,0%);fill-opacity:1;" d="M 34 24 L 34 51.339844 C 34.003906 51.535156 33.976562 51.730469 33.921875 51.921875 C 33.65625 53.132812 32.582031 54 31.339844 54 L 20.160156 54 C 19.773438 53.359375 19.441406 52.691406 19.160156 52 C 18.898438 51.347656 18.679688 50.679688 18.5 50 C 18.171875 48.691406 18.003906 47.347656 18 46 L 18 27 C 18 26.203125 18.316406 25.441406 18.878906 24.878906 C 19.441406 24.316406 20.203125 24 21 24 Z M 34 24 "/>
</g>
<mask id="mask5">
  <g filter="url(#alpha)">
<rect x="0" y="0" width="64" height="64" style="fill:rgb(0%,0%,0%);fill-opacity:0.2;stroke:none;"/>
  </g>
</mask>
<clipPath id="clip6">
  <rect x="0" y="0" width="64" height="64"/>
</clipPath>
<g id="surface20" clip-path="url(#clip6)">
<path style=" stroke:none;fill-rule:nonzero;fill:rgb(0%,0%,0%);fill-opacity:1;" d="M 34 24 L 34 47.339844 C 33.992188 48.804688 32.804688 49.992188 31.339844 50 L 18.5 50 C 18.171875 48.691406 18.003906 47.347656 18 46 L 18 27 C 18 26.203125 18.316406 25.441406 18.878906 24.878906 C 19.441406 24.316406 20.203125 24 21 24 Z M 34 24 "/>
</g>
<mask id="mask6">
  <g filter="url(#alpha)">
<rect x="0" y="0" width="64" height="64" style="fill:rgb(0%,0%,0%);fill-opacity:0.2;stroke:none;"/>
  </g>
</mask>
<clipPath id="clip7">
  <rect x="0" y="0" width="64" height="64"/>
</clipPath>
<g id="surface23" clip-path="url(#clip7)">
<path style=" stroke:none;fill-rule:nonzero;fill:rgb(0%,0%,0%);fill-opacity:1;" d="M 21 24 C 20.203125 24 19.441406 24.316406 18.878906 24.878906 C 18.316406 25.441406 18 26.203125 18 27 L 18 46 C 18.003906 47.347656 18.171875 48.691406 18.5 50 L 29.339844 50 C 30.804688 49.992188 31.992188 48.804688 32 47.339844 L 32 24 Z M 21 24 "/>
</g>
</defs>
<g id="surface1">
<path style=" stroke:none;fill-rule:nonzero;fill:rgb(48.235294%,51.372549%,92.156863%);fill-opacity:1;" d="M 43.332031 12 C 43.332031 17.15625 39.15625 21.332031 34 21.332031 C 28.84375 21.332031 24.667969 17.15625 24.667969 12 C 24.667969 6.84375 28.84375 2.667969 34 2.667969 C 39.15625 2.667969 43.332031 6.84375 43.332031 12 Z M 43.332031 12 "/>
<use xlink:href="#surface5" mask="url(#mask0)"/>
<use xlink:href="#surface8" mask="url(#mask1)"/>
<path style=" stroke:none;fill-rule:nonzero;fill:rgb(31.372549%,34.901961%,78.823529%);fill-opacity:1;" d="M 62 15 C 62 18.867188 58.867188 22 55 22 C 51.132812 22 48 18.867188 48 15 C 48 11.132812 51.132812 8 55 8 C 58.867188 8 62 11.132812 62 15 Z M 62 15 "/>
<path style=" stroke:none;fill-rule:nonzero;fill:rgb(31.372549%,34.901961%,78.823529%);fill-opacity:1;" d="M 61 24 L 45.277344 24 C 44.570312 24 44 24.570312 44 25.277344 L 44 41.5 C 43.910156 46.335938 47.21875 50.578125 51.933594 51.667969 C 54.882812 52.289062 57.957031 51.542969 60.296875 49.644531 C 62.636719 47.742188 63.996094 44.890625 64 41.875 L 64 27 C 64 25.34375 62.65625 24 61 24 Z M 61 24 "/>
<path style=" stroke:none;fill-rule:nonzero;fill:rgb(48.235294%,51.372549%,92.156863%);fill-opacity:1;" d="M 50 27 L 50 46 C 50.003906 53.238281 45.144531 59.578125 38.152344 61.453125 C 31.15625 63.328125 23.777344 60.269531 20.160156 54 C 19.773438 53.359375 19.441406 52.691406 19.160156 52 C 18.898438 51.347656 18.679688 50.679688 18.5 50 C 18.171875 48.691406 18.003906 47.347656 18 46 L 18 27 C 18 26.203125 18.316406 25.441406 18.878906 24.878906 C 19.441406 24.316406 20.203125 24 21 24 L 47 24 C 47.796875 24 48.558594 24.316406 49.121094 24.878906 C 49.683594 25.441406 50 26.203125 50 27 Z M 50 27 "/>
<use xlink:href="#surface11" mask="url(#mask2)"/>
<use xlink:href="#surface14" mask="url(#mask3)"/>
<use xlink:href="#surface17" mask="url(#mask4)"/>
<use xlink:href="#surface20" mask="url(#mask5)"/>
<use xlink:href="#surface23" mask="url(#mask6)"/>
<path style=" stroke:none;fill-rule:nonzero;fill:rgb(29.411765%,32.54902%,73.72549%);fill-opacity:1;" d="M 2.667969 16 L 29.332031 16 C 30.804688 16 32 17.195312 32 18.667969 L 32 45.332031 C 32 46.804688 30.804688 48 29.332031 48 L 2.667969 48 C 1.195312 48 0 46.804688 0 45.332031 L 0 18.667969 C 0 17.195312 1.195312 16 2.667969 16 Z M 2.667969 16 "/>
<path style=" stroke:none;fill-rule:nonzero;fill:rgb(100%,100%,100%);fill-opacity:1;" d="M 23.960938 25.949219 L 17.980469 25.949219 L 17.980469 41.992188 L 14.054688 41.992188 L 14.054688 25.949219 L 8.039062 25.949219 L 8.039062 22.007812 L 23.960938 22.007812 Z M 23.960938 25.949219 "/>
</g>
</svg>
