<?xml version="1.0" encoding="UTF-8"?>
<svg xmlns="http://www.w3.org/2000/svg" xmlns:xlink="http://www.w3.org/1999/xlink" width="64px" height="64px" viewBox="0 0 64 64" version="1.1">
<g id="surface1">
<path style=" stroke:none;fill-rule:nonzero;fill:rgb(100%,81.568627%,18.431373%);fill-opacity:1;" d="M 3.65625 0 L 60.34375 0 C 62.363281 0 64 1.738281 64 3.878906 L 64 60.121094 C 64 62.261719 62.363281 64 60.34375 64 L 3.65625 64 C 1.636719 64 0 62.261719 0 60.121094 L 0 3.878906 C 0 1.738281 1.636719 0 3.65625 0 Z M 3.65625 0 "/>
<path style=" stroke:none;fill-rule:evenodd;fill:rgb(1.960784%,0%,21.960784%);fill-opacity:1;" d="M 42.300781 8.730469 L 35.824219 8.730469 L 41.578125 18.179688 L 29.421875 8.730469 L 22.941406 8.730469 L 28.691406 21.113281 L 16.535156 8.726562 L 10.058594 8.726562 L 15.714844 24.71875 L 10.058594 55.917969 L 16.535156 55.917969 L 28.691406 22.464844 L 22.941406 55.917969 L 29.417969 55.917969 L 41.574219 19.53125 L 35.824219 55.917969 L 42.300781 55.917969 L 54.550781 15.949219 Z M 42.300781 8.730469 "/>
</g>
</svg>
