<svg width="48" height="39" viewBox="0 0 48 39" fill="none" xmlns="http://www.w3.org/2000/svg">
<path d="M18.8109 15.7576L17.39 14.8841C17.39 14.8841 16.9636 14.2615 17.0412 13.7456C17.0879 13.4278 17.2024 13.0993 17.35 12.83C17.6506 12.29 18.1045 12.0226 18.4962 12.6474C18.5188 12.6212 18.5629 12.6097 18.5931 12.5679C18.8952 13.413 19.8322 13.217 20.3352 13.7721C20.2311 13.9147 20.3528 13.7947 20.3528 13.7947C20.4802 14.4882 21.1429 14.7303 21.1445 14.7366C22.2161 15.8502 23.9389 16.9576 24.9962 18.333L24.9719 18.3528L24.9565 18.384C24.7207 18.4725 25.1725 18.7625 25.1714 18.5998C26.0687 18.8623 27.4808 19.9961 27.893 20.9484C27.7608 21.1185 27.8936 21.2674 27.9178 21.1796C28.4626 20.9904 34.3222 25.3891 31.9294 25.8889L31.8358 26.117C31.4348 25.9088 28.6037 24.2475 28.5938 24.2773C28.2132 24.6682 27.6542 22.1785 27.4771 23.4198C24.865 23.5284 20.1002 17.7993 20.1002 17.7993L19.8268 17.0419C19.8268 17.0419 18.7692 16.6377 18.8147 15.7498L18.8109 15.7576Z" fill="#101214"/>
<path d="M36.4834 6.76243L36.5373 5.97421C36.5373 5.97421 35.7279 5.0776 36.1304 4.34137L35.1782 2.85038C35.1782 2.85038 35.0398 2.09177 35.3185 1.69335C35.4947 1.4438 35.7304 1.21951 35.975 1.07444C36.4662 0.770141 36.9967 0.774911 37.1081 1.52015C37.1412 1.51156 37.1847 1.52054 37.2326 1.50129C37.1673 2.38078 38.1087 2.69974 38.3424 3.44035C38.1893 3.50733 38.083 3.59608 38.1711 3.57317L38.3562 3.47076C38.1927 4.13126 38.9265 4.10348 38.4777 4.86532L38.7012 4.68492C39.237 6.20272 40.3732 8.03982 40.7828 9.77377L40.7497 9.78237C40.7497 9.78237 40.774 10.2379 40.8324 10.1004C41.5541 10.7957 42.3857 12.5014 42.3876 13.5264C42.1959 13.6034 46.5015 20.6879 44.1003 19.8657L43.9213 20.0141C43.6381 19.6259 43.4061 19.2991 42.8183 19.0512C42.8205 18.9692 42.7781 18.987 42.9797 18.8802C43.0006 18.8476 43.0496 18.7873 43.1344 18.7517C43.6224 18.5026 41.0004 15.4287 41.0004 15.4287C38.5528 14.1567 36.4906 6.76736 36.4906 6.76736L36.4834 6.76243Z" fill="#101214"/>
<path d="M5.38656 30.5075C5.41673 29.8544 5.68325 29.3641 6.28263 29.7245C6.29089 29.6884 6.32283 29.6529 6.33163 29.5962C6.94263 30.2048 7.652 29.5178 8.3092 29.7612C8.28059 29.9453 8.33622 29.7746 8.33622 29.7746C8.73514 30.3365 9.395 30.2056 9.39665 30.212C10.776 30.6547 12.6957 30.733 14.1633 31.4245L14.1534 31.4542L14.1507 31.4889C13.9866 31.6945 14.4927 31.7191 14.4239 31.5672C15.2947 31.3205 16.9666 31.5989 17.7098 32.241C17.6691 32.4689 17.4706 31.9093 17.3325 32.6447C17.5335 32.6943 17.7264 32.8479 17.9225 32.8785C17.972 32.3902 17.8442 32.532 17.8321 32.4401C18.2165 31.9735 25.0217 32.8394 23.2048 34.5817L23.2198 34.8426C22.7907 34.8659 21.8818 34.8984 21.8955 34.793C21.961 34.1851 19.6927 34.8699 19.6972 34.9095L18.3911 34.7261C16.2233 36.2269 9.78674 33.5674 9.78674 33.5674L9.23416 33.0251C9.23416 33.0251 8.16945 33.2272 7.83437 32.3907L6.26721 32.3567C6.26721 32.3567 5.64355 32.0162 5.49858 31.5038C5.40488 31.1886 5.36355 30.8258 5.37395 30.5039L5.38656 30.5075Z" fill="#101214"/>
</svg>
