<svg xmlns="http://www.w3.org/2000/svg" xmlns:xlink="http://www.w3.org/1999/xlink" viewBox="0 0 90.47 84.9"><defs><style>.a27021c4-deff-478b-916a-f4f63b8609e5{fill:#8f5e9f;}.b35876a4-2d09-4ae1-9727-ef3c147c0a29{fill:url(#e756cd17-bc17-48dd-89ce-68debda097fd);}.f3bdb575-174d-4a73-bbd4-0e8d24c30dcf{fill:url(#bb56e7c3-e010-48f9-b6e1-6c6281a81404);}.ad13dede-de47-4e05-aa33-02006d4bca6a{fill:url(#bbbb53e6-a231-4147-ba0f-0e2cadff6145);}.ec209bc9-d9e4-4aee-a66e-4508c55617ad{fill:url(#a6a1439f-ae89-41b8-9b45-f3f66710251b);}.ad369982-1685-46ec-b397-433f04ba6eef{fill:url(#baadae6a-0c08-4d24-aeba-07b0a75bfed2);}.ab0400ad-1f67-4f2a-8ec0-18841dc5c958{fill:url(#e724ac86-8387-48fc-9d7c-4d3fa4dae6fb);}.bdbb47f8-1d6a-4eaf-8936-ce285ed0f1ea{fill:url(#ba26be73-2858-46ea-afe9-278303125cc9);}.f5c3efdb-2e3b-4ed1-af99-3d66d4886fdc{fill:url(#b93ef218-9898-487a-b46f-5f1ee36a75aa);}.e5118912-1b11-43d3-a3e5-431a27db499c{fill:url(#eca1ec3b-aa45-4c8e-bd53-58c2847da216);}.b35fa849-f050-4c3a-9fa3-ef7f00f639b4{fill:url(#bbeb106f-3c24-4075-b0d2-44ac17bfca87);}.b570a43c-d322-4209-a7c9-5c630b6fef62{fill:url(#b59885d4-2f43-445d-8259-db1369de7ed9);}.f01cdd90-56db-4241-bd04-59f709fdb3bd{fill:url(#aba65aa5-4439-44bc-af4c-ad2dac9fd7d1);}.fa3a9baa-40c1-46e3-9eaa-983316d12479{fill:url(#f5c4bae5-141b-4b91-8d82-42e4857579cb);}.aaa0becd-8f04-4c13-a94b-0035f5890f50{fill:url(#fa924458-2627-48df-8baa-f1fca4a26ade);}.eef62884-84ef-4d4e-ae21-fef030f2d331{fill:#ddbdda;}.bb356b30-cc3f-4a8a-8a0e-74b06c0cd985{fill:#cfa4cb;}</style><linearGradient id="e756cd17-bc17-48dd-89ce-68debda097fd" x1="15.29" y1="32.28" x2="44.6" y2="28.39" gradientUnits="userSpaceOnUse"><stop offset="0" stop-color="#a66bac"/><stop offset="1" stop-color="#8f5e9f"/></linearGradient><linearGradient id="bb56e7c3-e010-48f9-b6e1-6c6281a81404" x1="51.53" y1="-1.22" x2="54.85" y2="27.39" xlink:href="#e756cd17-bc17-48dd-89ce-68debda097fd"/><linearGradient id="bbbb53e6-a231-4147-ba0f-0e2cadff6145" x1="85.74" y1="14.41" x2="64.18" y2="44.47" xlink:href="#e756cd17-bc17-48dd-89ce-68debda097fd"/><linearGradient id="a6a1439f-ae89-41b8-9b45-f3f66710251b" x1="18.29" y1="7.97" x2="47.72" y2="21.86" xlink:href="#e756cd17-bc17-48dd-89ce-68debda097fd"/><linearGradient id="baadae6a-0c08-4d24-aeba-07b0a75bfed2" x1="70.31" y1="95.51" x2="69.07" y2="47.42" gradientUnits="userSpaceOnUse"><stop offset="0" stop-color="#b178b2"/><stop offset="1" stop-color="#8f5e9f"/></linearGradient><linearGradient id="e724ac86-8387-48fc-9d7c-4d3fa4dae6fb" x1="9.82" y1="48.13" x2="39.78" y2="46.9" gradientUnits="userSpaceOnUse"><stop offset="0" stop-color="#8f5e9f"/><stop offset="1" stop-color="#6f547d"/></linearGradient><linearGradient id="ba26be73-2858-46ea-afe9-278303125cc9" x1="64.7" y1="60.18" x2="96.3" y2="60.18" gradientUnits="userSpaceOnUse"><stop offset="0" stop-color="#b178b2"/><stop offset="1" stop-color="#a66bac"/></linearGradient><linearGradient id="b93ef218-9898-487a-b46f-5f1ee36a75aa" x1="-0.14" y1="49.45" x2="46.03" y2="49.66" xlink:href="#ba26be73-2858-46ea-afe9-278303125cc9"/><linearGradient id="eca1ec3b-aa45-4c8e-bd53-58c2847da216" x1="0" y1="67.32" x2="56.75" y2="67.32" xlink:href="#e724ac86-8387-48fc-9d7c-4d3fa4dae6fb"/><linearGradient id="bbeb106f-3c24-4075-b0d2-44ac17bfca87" x1="-0.36" y1="81.32" x2="45.87" y2="81.52" xlink:href="#ba26be73-2858-46ea-afe9-278303125cc9"/><linearGradient id="b59885d4-2f43-445d-8259-db1369de7ed9" x1="-0.23" y1="53.43" x2="45.99" y2="53.64" xlink:href="#ba26be73-2858-46ea-afe9-278303125cc9"/><linearGradient id="aba65aa5-4439-44bc-af4c-ad2dac9fd7d1" x1="20.67" y1="72.22" x2="49.69" y2="64.75" gradientUnits="userSpaceOnUse"><stop offset="0" stop-color="#cfa4cb"/><stop offset="1" stop-color="#c18cbe"/></linearGradient><linearGradient id="f5c4bae5-141b-4b91-8d82-42e4857579cb" x1="24.26" y1="68.18" x2="48.46" y2="68.18" xlink:href="#e756cd17-bc17-48dd-89ce-68debda097fd"/><linearGradient id="fa924458-2627-48df-8baa-f1fca4a26ade" x1="10.44" y1="67.56" x2="45.27" y2="68.39" xlink:href="#e724ac86-8387-48fc-9d7c-4d3fa4dae6fb"/></defs><title>Personal</title><g id="a29dad9a-0447-40c3-8dbd-ac154b010092" data-name="Layer 2"><g id="f6c6d357-df06-4333-aac0-35f0f0587e39" data-name="icons"><path class="a27021c4-deff-478b-916a-f4f63b8609e5" d="M66.08,66l-.15,0a.68.68,0,0,1-.52-.81A33.21,33.21,0,0,0,63.46,45,30.74,30.74,0,0,0,50,30C43.84,26.66,35,26.27,26.29,29a.69.69,0,0,1-.41-1.31,40.2,40.2,0,0,1,12.49-1.84,26.3,26.3,0,0,1,12.26,3A32.17,32.17,0,0,1,64.72,44.41a34.66,34.66,0,0,1,2,21.07A.69.69,0,0,1,66.08,66Z"/><path class="a27021c4-deff-478b-916a-f4f63b8609e5" d="M48.17,29.75a.69.69,0,0,1-.55-.27,25.83,25.83,0,0,0-9.14-8,.68.68,0,0,1-.3-.92.69.69,0,0,1,.92-.3,27.24,27.24,0,0,1,9.62,8.45.7.7,0,0,1-.14,1A.69.69,0,0,1,48.17,29.75Z"/><path class="b35876a4-2d09-4ae1-9727-ef3c147c0a29" d="M52.18,30.94C45,25.86,36.06,22.32,27.22,22c-7.59-.27-23.11,1.89-21.79,12.76a7.34,7.34,0,0,0,4.12,5.76c6.73,3,15-1.46,20.9-4.54a59.93,59.93,0,0,1,11.38-4.9,25.07,25.07,0,0,1,6.26-1A17.5,17.5,0,0,1,52.18,30.94Z"/><path class="f3bdb575-174d-4a73-bbd4-0e8d24c30dcf" d="M62,35.36l.29-12c.17-6.75.57-13.5-3.73-19.11C55.15-.24,49.39-2,45.62,3c-2.47,3.28-1.87,8.82-.41,12.31,3.16,7.56,8.72,14.38,13.55,20.93l3.7,5C61.63,39.39,62,37.43,62,35.36Z"/><path class="ad13dede-de47-4e05-aa33-02006d4bca6a" d="M70.11,17.69c4-5.58,11.07-8.73,17.06-3.5A9.33,9.33,0,0,1,90,18.48c2.37,7.72-4.07,15.26-9.88,19.44A84.25,84.25,0,0,1,65,46.54a.51.51,0,0,1-.38.05c-.15-.07-.18-.26-.2-.42a54.6,54.6,0,0,1,.82-14.36,37.23,37.23,0,0,1,3.63-12.18A20.4,20.4,0,0,1,70.11,17.69Z"/><path class="ec209bc9-d9e4-4aee-a66e-4508c55617ad" d="M19.68,15a10,10,0,0,1-1.78-2.4,6.69,6.69,0,0,1-.73-4.44c.9-4.21,5.88-5,9.32-3.47C36.3,9.1,41.15,18.72,46.91,27.16a40.54,40.54,0,0,0-7.15-3.59c-2.81-1-5.67-1.87-8.45-3C27.37,19,22.79,18.08,19.68,15Z"/><path class="ad369982-1685-46ec-b397-433f04ba6eef" d="M82.73,60.06l-.25,1.6-1,6.61-2.38,15a2,2,0,0,1-2,1.66H61.69a2,2,0,0,1-1.95-1.66l-2.37-15-1-6.61-.25-1.6Z"/><path class="ab0400ad-1f67-4f2a-8ec0-18841dc5c958" d="M9.71,46.06h2.37A3.88,3.88,0,0,1,16,49.95v0a0,0,0,0,1,0,0H5.83a0,0,0,0,1,0,0v0A3.88,3.88,0,0,1,9.71,46.06Z"/><path class="bdbb47f8-1d6a-4eaf-8936-ce285ed0f1ea" d="M83.56,62.57H55.23a1.63,1.63,0,0,1-1.47-2.33l.41-.88a2.78,2.78,0,0,1,2.5-1.58H82.12a2.78,2.78,0,0,1,2.5,1.58l.42.88A1.63,1.63,0,0,1,83.56,62.57Z"/><path class="f5c3efdb-2e3b-4ed1-af99-3d66d4886fdc" d="M39.89,44.34H46.2A10.55,10.55,0,0,1,56.75,54.88v0a0,0,0,0,1,0,0H29.35a0,0,0,0,1,0,0v0A10.55,10.55,0,0,1,39.89,44.34Z"/><rect class="e5118912-1b11-43d3-a3e5-431a27db499c" y="49.73" width="56.75" height="35.17" rx="3.49"/><path class="b35fa849-f050-4c3a-9fa3-ef7f00f639b4" d="M56.75,78v3.41a3.49,3.49,0,0,1-3.49,3.49H3.49A3.49,3.49,0,0,1,0,81.41V78Z"/><path class="b570a43c-d322-4209-a7c9-5c630b6fef62" d="M56.75,53.6V58H0V53.6c0-2.49,1.56-4.51,3.49-4.51H53.26C55.19,49.09,56.75,51.11,56.75,53.6Z"/><circle class="f01cdd90-56db-4241-bd04-59f709fdb3bd" cx="36.36" cy="68.18" r="15"/><path class="fa3a9baa-40c1-46e3-9eaa-983316d12479" d="M48.46,68.18a12.1,12.1,0,1,1-24.2,0,11.93,11.93,0,0,1,.8-4.32,12.1,12.1,0,0,1,23.4,4.32Z"/><path class="aaa0becd-8f04-4c13-a94b-0035f5890f50" d="M36.36,78.35A10.18,10.18,0,0,1,26.19,68.18a10,10,0,0,1,.68-3.63,10.16,10.16,0,1,1,9.49,13.8Z"/><rect class="eef62884-84ef-4d4e-ae21-fef030f2d331" x="45.56" y="46.51" width="9.07" height="5.04" rx="2.52"/><circle class="bb356b30-cc3f-4a8a-8a0e-74b06c0cd985" cx="33.94" cy="68.72" r="4.1"/><path class="a27021c4-deff-478b-916a-f4f63b8609e5" d="M56.31,22.16a.58.58,0,0,1-.56-.44A95.41,95.41,0,0,0,52.19,9.54a.57.57,0,1,1,1.07-.39,97.17,97.17,0,0,1,3.61,12.32.58.58,0,0,1-.44.68Z"/><path class="a27021c4-deff-478b-916a-f4f63b8609e5" d="M13.61,33.75a.57.57,0,0,1-.29-1.06,37.76,37.76,0,0,1,9.67-4,.56.56,0,0,1,.69.41.57.57,0,0,1-.41.69,36.51,36.51,0,0,0-9.37,3.85A.51.51,0,0,1,13.61,33.75Z"/><path class="a27021c4-deff-478b-916a-f4f63b8609e5" d="M73.46,32a.66.66,0,0,1-.27-.06.57.57,0,0,1-.23-.77A59.79,59.79,0,0,1,79,22a.57.57,0,0,1,.8-.09.56.56,0,0,1,.09.8,59.48,59.48,0,0,0-5.91,9A.54.54,0,0,1,73.46,32Z"/></g></g></svg>