<svg xmlns="http://www.w3.org/2000/svg" xmlns:xlink="http://www.w3.org/1999/xlink" viewBox="0 0 48 48"><defs><style>.aae8ed8e-5537-482b-b620-5c5f82c55520{fill:#e5bfed;}.a0b7e55c-6e31-4216-bc06-f4710c288ee8{fill:#905da0;}.bc0d23ca-de1f-410e-8560-43b493d6ccdf{fill:url(#acd4dcb4-c821-498c-ba41-6820f352cfd3);}.edcd54ef-5a0e-4fda-9416-601f12cc4bfe{fill:url(#e05a26b8-1065-42e1-957f-4177c2f6d343);}.abdc89db-31fa-43ce-b832-2ff17b163b5b{fill:url(#fb7d958b-ef0a-4795-8e09-69a0b0a93cd6);}.b8647b21-1c94-4759-95a2-c0080997208d{fill:url(#afd26986-bac1-4ec1-acd8-da03f58ec576);}.be2731d8-e74f-46e0-a0cb-af5e2b8aba54{fill:url(#f19baaf0-237c-44f9-9dff-85e15a0f3ea8);}.afbedeee-ea5d-41b4-92af-e83f0609a96d{fill:url(#f40a4ba2-74f5-460d-9819-5b832f0e9166);}.f2b4b512-9b5f-4084-bda5-2d507d29477a{fill:url(#e056ae8b-0f42-43ed-a21f-7267d8413c67);}.a658cb82-4479-4bc6-afe0-4aab6ef0bf00{fill:url(#a8969c94-1771-4c6d-a6db-b22f4e7b3dc3);}.be04ed48-90a6-4e15-b907-3cc8ecb0e36b{fill:url(#a8130fe8-9cf7-4bb0-bf98-f64f99615b65);}.f899cc68-f496-4047-bb30-6997f75e5b4b{fill:url(#fe4089e3-98bc-4d6d-b4bb-522ff12d5b2f);}.bdc1b2b6-239e-4d61-815c-cb67c9aa3607{fill:url(#b783bb7c-76f8-4d3e-9764-853369c72fb1);}.a433a483-6b47-47ca-8540-45937b45559d{fill:url(#ab1e480c-d1c3-4cdf-a297-1bd5d2c40c4c);}.baeade02-f226-46b7-9b80-9ea55f3b1d9a{fill:url(#a9319855-a4e6-46a4-b564-a31cbb7c7be0);}.ab8b0415-1d05-4994-b2ec-5abb45697eaf{fill:url(#b6a9dfc5-5e43-4a37-b876-b47ca8558682);}.b3d7e2c1-c41b-4ed0-99eb-b7c630025dfa{fill:#dda3e9;}</style><linearGradient id="acd4dcb4-c821-498c-ba41-6820f352cfd3" x1="11.38" y1="18.5" x2="24.92" y2="16.71" gradientUnits="userSpaceOnUse"><stop offset="0" stop-color="#b169c4"/><stop offset="1" stop-color="#905da0"/></linearGradient><linearGradient id="e05a26b8-1065-42e1-957f-4177c2f6d343" x1="28.13" y1="3.03" x2="29.66" y2="16.24" xlink:href="#acd4dcb4-c821-498c-ba41-6820f352cfd3"/><linearGradient id="fb7d958b-ef0a-4795-8e09-69a0b0a93cd6" x1="43.93" y1="10.25" x2="33.97" y2="24.14" xlink:href="#acd4dcb4-c821-498c-ba41-6820f352cfd3"/><linearGradient id="afd26986-bac1-4ec1-acd8-da03f58ec576" x1="12.77" y1="7.27" x2="26.37" y2="13.69" xlink:href="#acd4dcb4-c821-498c-ba41-6820f352cfd3"/><linearGradient id="f19baaf0-237c-44f9-9dff-85e15a0f3ea8" x1="36.8" y1="47.72" x2="36.23" y2="25.5" gradientUnits="userSpaceOnUse"><stop offset="0" stop-color="#ce72e4"/><stop offset="1" stop-color="#905da0"/></linearGradient><linearGradient id="f40a4ba2-74f5-460d-9819-5b832f0e9166" x1="8.87" y1="25.8" x2="22.86" y2="25.23" gradientUnits="userSpaceOnUse"><stop offset="0" stop-color="#905da0"/><stop offset="1" stop-color="#6f537d"/></linearGradient><linearGradient id="e056ae8b-0f42-43ed-a21f-7267d8413c67" x1="34.21" y1="31.39" x2="48.81" y2="31.39" gradientUnits="userSpaceOnUse"><stop offset="0" stop-color="#ce72e4"/><stop offset="1" stop-color="#b169c4"/></linearGradient><linearGradient id="a8969c94-1771-4c6d-a6db-b22f4e7b3dc3" x1="4.22" y1="26.43" x2="25.58" y2="26.52" xlink:href="#e056ae8b-0f42-43ed-a21f-7267d8413c67"/><linearGradient id="a8130fe8-9cf7-4bb0-bf98-f64f99615b65" x1="4.32" y1="34.69" x2="30.54" y2="34.69" xlink:href="#f40a4ba2-74f5-460d-9819-5b832f0e9166"/><linearGradient id="fe4089e3-98bc-4d6d-b4bb-522ff12d5b2f" x1="4.15" y1="41.16" x2="25.51" y2="41.25" xlink:href="#e056ae8b-0f42-43ed-a21f-7267d8413c67"/><linearGradient id="b783bb7c-76f8-4d3e-9764-853369c72fb1" x1="4.21" y1="28.27" x2="25.57" y2="28.37" xlink:href="#e056ae8b-0f42-43ed-a21f-7267d8413c67"/><linearGradient id="ab1e480c-d1c3-4cdf-a297-1bd5d2c40c4c" x1="13.87" y1="36.95" x2="27.27" y2="33.51" gradientUnits="userSpaceOnUse"><stop offset="0" stop-color="#dda3e9"/><stop offset="1" stop-color="#d78ae8"/></linearGradient><linearGradient id="a9319855-a4e6-46a4-b564-a31cbb7c7be0" x1="15.53" y1="35.09" x2="26.71" y2="35.09" xlink:href="#acd4dcb4-c821-498c-ba41-6820f352cfd3"/><linearGradient id="b6a9dfc5-5e43-4a37-b876-b47ca8558682" x1="9.14" y1="34.8" x2="25.23" y2="35.19" xlink:href="#f40a4ba2-74f5-460d-9819-5b832f0e9166"/></defs><title>personal</title><g id="e120c890-3985-4adb-8abe-056db913fc0a" data-name="Layer 2"><g id="a70ac008-c040-4c63-9036-580a9fe73ba5" data-name="icons"><g id="f132e27d-19f7-47ae-a664-92b7af53e82f" data-name="personal"><rect class="aae8ed8e-5537-482b-b620-5c5f82c55520" width="48" height="48"/><path class="a0b7e55c-6e31-4216-bc06-f4710c288ee8" d="M34.85,34.09h-.07a.3.3,0,0,1-.24-.37,15.33,15.33,0,0,0-.9-9.35,14.22,14.22,0,0,0-6.24-6.9c-2.83-1.55-6.92-1.73-10.94-.49a.31.31,0,0,1-.39-.2.32.32,0,0,1,.21-.4,18.47,18.47,0,0,1,5.77-.85,12.14,12.14,0,0,1,5.66,1.39,14.79,14.79,0,0,1,6.51,7.2,16,16,0,0,1,.94,9.73A.33.33,0,0,1,34.85,34.09Z"/><path class="a0b7e55c-6e31-4216-bc06-f4710c288ee8" d="M26.57,17.34a.33.33,0,0,1-.25-.13,12,12,0,0,0-4.22-3.72.31.31,0,0,1,.28-.56,12.49,12.49,0,0,1,4.45,3.9.33.33,0,0,1-.26.51Z"/><path class="bc0d23ca-de1f-410e-8560-43b493d6ccdf" d="M28.43,17.88A22,22,0,0,0,16.9,13.75c-3.51-.12-10.68.88-10.07,5.9a3.39,3.39,0,0,0,1.9,2.66c3.11,1.38,6.93-.67,9.66-2.1A27.81,27.81,0,0,1,23.65,18a11.3,11.3,0,0,1,2.88-.45A8.32,8.32,0,0,1,28.43,17.88Z"/><path class="edcd54ef-5a0e-4fda-9416-601f12cc4bfe" d="M33,19.93l.14-5.57c.07-3.12.26-6.23-1.73-8.83-1.57-2.05-4.23-2.85-6-.54-1.15,1.52-.87,4.08-.19,5.69,1.46,3.5,4,6.64,6.25,9.67l1.71,2.32A6.3,6.3,0,0,1,33,19.93Z"/><path class="abdc89db-31fa-43ce-b832-2ff17b163b5b" d="M36.71,11.76c1.86-2.58,5.11-4,7.88-1.61a4.18,4.18,0,0,1,1.29,2c1.1,3.56-1.88,7-4.56,9a39.36,39.36,0,0,1-7,4c-.06,0-.12.05-.18,0s-.08-.11-.09-.19a25,25,0,0,1,.38-6.63,17.14,17.14,0,0,1,1.68-5.63A8.42,8.42,0,0,1,36.71,11.76Z"/><path class="b8647b21-1c94-4759-95a2-c0080997208d" d="M13.41,10.51a5,5,0,0,1-.82-1.11,3.07,3.07,0,0,1-.34-2.05C12.67,5.4,15,5,16.56,5.74c4.53,2.05,6.77,6.5,9.43,10.4a18.21,18.21,0,0,0-3.3-1.66c-1.3-.47-2.62-.87-3.91-1.38C17,12.38,14.85,11.94,13.41,10.51Z"/><path class="be2731d8-e74f-46e0-a0cb-af5e2b8aba54" d="M42.54,31.34l-.12.74-.48,3.05-1.1,6.92a.91.91,0,0,1-.9.77H32.82a.91.91,0,0,1-.9-.77l-1.1-6.92-.48-3.05-.12-.74Z"/><path class="afbedeee-ea5d-41b4-92af-e83f0609a96d" d="M7.61,24.87H11.1a.6.6,0,0,1,.6.6v1.19a0,0,0,0,1,0,0H7a0,0,0,0,1,0,0V25.47A.6.6,0,0,1,7.61,24.87Z"/><path class="f2b4b512-9b5f-4084-bda5-2d507d29477a" d="M42.93,32.5H29.84a.75.75,0,0,1-.68-1.08l.19-.41a1.27,1.27,0,0,1,1.15-.72H42.26a1.27,1.27,0,0,1,1.15.72l.2.41A.76.76,0,0,1,42.93,32.5Z"/><path class="a658cb82-4479-4bc6-afe0-4aab6ef0bf00" d="M18.89,24.07H29.53a1,1,0,0,1,1,1V29a0,0,0,0,1,0,0H17.88a0,0,0,0,1,0,0V25.09A1,1,0,0,1,18.89,24.07Z"/><rect class="be04ed48-90a6-4e15-b907-3cc8ecb0e36b" x="4.32" y="26.57" width="26.22" height="16.25" rx="1.61"/><path class="f899cc68-f496-4047-bb30-6997f75e5b4b" d="M30.54,39.63V41.2a1.62,1.62,0,0,1-1.62,1.62h-23A1.62,1.62,0,0,1,4.32,41.2V39.63Z"/><path class="bdc1b2b6-239e-4d61-815c-cb67c9aa3607" d="M30.54,28.35v2H4.32v-2a1.89,1.89,0,0,1,1.61-2.08h23A1.89,1.89,0,0,1,30.54,28.35Z"/><circle class="a433a483-6b47-47ca-8540-45937b45559d" cx="21.12" cy="35.09" r="6.93"/><path class="baeade02-f226-46b7-9b80-9ea55f3b1d9a" d="M26.71,35.09a5.59,5.59,0,0,1-11.18,0,5.77,5.77,0,0,1,.36-2,5.6,5.6,0,0,1,10.82,2Z"/><path class="ab8b0415-1d05-4994-b2ec-5abb45697eaf" d="M21.12,39.79a4.71,4.71,0,0,1-4.7-4.7,4.81,4.81,0,0,1,.31-1.68,4.69,4.69,0,0,1,9.08,1.68,4.64,4.64,0,0,1-.3,1.65A4.72,4.72,0,0,1,21.12,39.79Z"/><rect class="aae8ed8e-5537-482b-b620-5c5f82c55520" x="25.37" y="25.08" width="4.19" height="2.33" rx="0.55"/><circle class="b3d7e2c1-c41b-4ed0-99eb-b7c630025dfa" cx="20" cy="35.34" r="1.9"/><path class="a0b7e55c-6e31-4216-bc06-f4710c288ee8" d="M30.33,13.83a.25.25,0,0,1-.25-.21A44.1,44.1,0,0,0,28.43,8a.26.26,0,0,1,.16-.34.27.27,0,0,1,.34.16,43.1,43.1,0,0,1,1.66,5.69.26.26,0,0,1-.2.31Z"/><path class="a0b7e55c-6e31-4216-bc06-f4710c288ee8" d="M10.61,19.18a.26.26,0,0,1-.23-.13.27.27,0,0,1,.09-.36,17.6,17.6,0,0,1,4.47-1.83.26.26,0,0,1,.32.19.26.26,0,0,1-.19.32,16.89,16.89,0,0,0-4.33,1.78A.31.31,0,0,1,10.61,19.18Z"/><path class="a0b7e55c-6e31-4216-bc06-f4710c288ee8" d="M38.26,18.37a.24.24,0,0,1-.12,0A.27.27,0,0,1,38,18a28,28,0,0,1,2.78-4.23.26.26,0,1,1,.41.33,27.77,27.77,0,0,0-2.73,4.15A.27.27,0,0,1,38.26,18.37Z"/></g></g></g></svg>