<svg width="110" height="116" viewBox="0 0 110 116" fill="none" xmlns="http://www.w3.org/2000/svg" data-testid="launch-banner-graphic-light"><path d="M90.5287 13.0253L91.8805 12.2518C91.8805 12.2518 92.252 11.7123 92.1247 11.2736C92.0473 11.0035 91.9004 10.7254 91.7258 10.4986C91.371 10.044 90.8873 9.8248 90.551 10.3656C90.5257 10.3437 90.4801 10.3348 90.4456 10.2997C90.2209 11.0267 89.2561 10.8781 88.8009 11.3617C88.9195 11.4813 88.7852 11.3813 88.7852 11.3813C88.7225 11.9755 88.0763 12.1952 88.0752 12.2007C87.0989 13.172 85.4644 14.151 84.5274 15.3454L84.5538 15.3618L84.5723 15.3881C84.8188 15.4589 84.3902 15.7153 84.3759 15.5765C83.4946 15.8183 82.1765 16.8136 81.8507 17.6342C82.0003 17.7768 81.8803 17.9064 81.8475 17.832C81.2795 17.6814 75.7803 21.5505 78.244 21.9294L78.3602 22.1221C78.7454 21.9366 81.4464 20.463 81.4592 20.4882C81.8806 20.8142 82.2087 18.679 82.5054 19.7345C85.1534 19.7752 89.4207 14.7928 89.4207 14.7928L89.6248 14.1412C89.6248 14.1412 90.6544 13.7753 90.5241 13.0187L90.5287 13.0253Z" fill="#5E4DB2"></path><path d="M71.8284 5.70242L71.6992 5.03103C71.6992 5.03103 72.4313 4.25002 71.9549 3.62991L72.7748 2.33898C72.7748 2.33898 72.8425 1.68903 72.5232 1.35466C72.3216 1.14526 72.0623 0.958589 71.8015 0.839685C71.2765 0.589843 70.7413 0.604454 70.6996 1.24246C70.6654 1.23579 70.6223 1.24432 70.5721 1.22885C70.7216 1.97787 69.8013 2.26869 69.6357 2.90518C69.7966 2.95927 69.9124 3.03288 69.8212 3.01509L69.6246 2.93139C69.8524 3.49165 69.1088 3.48252 69.6344 4.12356L69.3915 3.9741C68.9947 5.27963 68.0219 6.86951 67.7729 8.35694L67.8072 8.36362C67.8072 8.36362 67.8259 8.75269 67.7539 8.63662C67.0911 9.24409 66.4134 10.7159 66.5089 11.5904C66.7098 11.6522 63.0349 17.7819 65.3816 17.0326L65.5765 17.1557C65.8256 16.8189 66.0287 16.5355 66.5987 16.3123C66.5887 16.2424 66.6333 16.2567 66.4196 16.1696C66.3953 16.1422 66.3402 16.0918 66.2511 16.0631C65.7347 15.8602 68.0904 13.1857 68.0904 13.1857C70.4412 12.0518 71.8217 5.70677 71.8217 5.70677L71.8284 5.70242Z" fill="#5E4DB2"></path><path d="M105.486 25.3421C105.393 24.7856 105.078 24.3726 104.507 24.6919C104.495 24.6613 104.459 24.6316 104.445 24.5835C103.886 25.1149 103.104 24.5429 102.464 24.7636C102.51 24.92 102.438 24.7755 102.438 24.7755C102.088 25.2628 101.409 25.1643 101.408 25.1697C100.057 25.5749 98.1264 25.6798 96.7101 26.2989L96.723 26.324L96.729 26.3536C96.9142 26.5258 96.4054 26.5568 96.4606 26.4259C95.5577 26.2326 93.8959 26.5034 93.2064 27.066C93.2692 27.2596 93.4164 26.7782 93.6258 27.4029C93.4274 27.4492 93.2473 27.5841 93.0522 27.614C92.9558 27.1985 93.0983 27.3169 93.1018 27.2383C92.6693 26.8478 85.8797 27.7218 87.8799 29.1721L87.8896 29.395C88.3251 29.4064 89.2459 29.416 89.222 29.3263C89.0982 28.809 91.4537 29.3482 91.4531 29.3821L92.7545 29.1997C95.0861 30.4369 101.333 28.0401 101.333 28.0401L101.84 27.5665C101.84 27.5665 102.934 27.7178 103.193 26.9975L104.772 26.9373C104.772 26.9373 105.37 26.6344 105.467 26.1944C105.532 25.9236 105.539 25.6133 105.498 25.3389L105.486 25.3421Z" fill="#5E4DB2"></path><g filter="url(#filter0_dd_386_92905)"><rect x="19" y="37.3994" width="60.0882" height="60.0882" rx="10.0147" transform="rotate(-9 19 37.3994)" fill="white"></rect><rect x="33.7139" y="50.2783" width="35.0515" height="27.5404" transform="rotate(-9 33.7139 50.2783)" fill="url(#pattern0_386_92905)"></rect></g><path fill-rule="evenodd" clip-rule="evenodd" d="M7.5237 6.67259L7.993 9.63565L10.2153 9.28368L9.746 6.32061L15.6721 5.382L16.1414 8.34507L18.3637 7.99309L17.8944 5.03003L20.1167 4.67805C20.5258 4.61325 20.91 4.89238 20.9748 5.30149L21.6788 9.74609L5.38192 12.3273L4.67796 7.88266C4.61316 7.47354 4.89229 7.08936 5.3014 7.02457L7.5237 6.67259ZM5.73389 14.5496L7.02448 22.698C7.08928 23.1071 7.47346 23.3862 7.88257 23.3214L22.6979 20.9749C23.107 20.9101 23.3861 20.5259 23.3213 20.1168L22.0307 11.9684L5.73389 14.5496ZM17.5424 2.80773L19.7647 2.45575C21.4012 2.19656 22.9379 3.31306 23.1971 4.94951L25.5436 19.7648C25.8028 21.4013 24.6863 22.938 23.0499 23.1972L8.23455 25.5437C6.59809 25.8029 5.06137 24.6864 4.80218 23.05L2.45566 8.23464C2.19647 6.59818 3.31297 5.06146 4.94942 4.80227L7.17172 4.45029L6.93707 2.96876L9.15937 2.61678L9.39402 4.09831L15.3201 3.15971L15.0855 1.67817L17.3078 1.3262L17.5424 2.80773Z" fill="#44546F" transform="translate(40, 48)"></path><defs><filter id="filter0_dd_386_92905" x="-1.0294" y="7.97011" width="108.807" height="108.807" filterUnits="userSpaceOnUse" color-interpolation-filters="sRGB"><feFlood flood-opacity="0" result="BackgroundImageFix"></feFlood><feColorMatrix in="SourceAlpha" type="matrix" values="0 0 0 0 0 0 0 0 0 0 0 0 0 0 0 0 0 0 127 0" result="hardAlpha"></feColorMatrix><feOffset></feOffset><feGaussianBlur stdDeviation="10.0147"></feGaussianBlur><feColorMatrix type="matrix" values="0 0 0 0 0.0352941 0 0 0 0 0.117647 0 0 0 0 0.258824 0 0 0 0.16 0"></feColorMatrix><feBlend mode="normal" in2="BackgroundImageFix" result="effect1_dropShadow_386_92905"></feBlend><feColorMatrix in="SourceAlpha" type="matrix" values="0 0 0 0 0 0 0 0 0 0 0 0 0 0 0 0 0 0 127 0" result="hardAlpha"></feColorMatrix><feOffset></feOffset><feGaussianBlur stdDeviation="1.25184"></feGaussianBlur><feColorMatrix type="matrix" values="0 0 0 0 0.0352941 0 0 0 0 0.117647 0 0 0 0 0.258824 0 0 0 0.12 0"></feColorMatrix><feBlend mode="normal" in2="effect1_dropShadow_386_92905" result="effect2_dropShadow_386_92905"></feBlend><feBlend mode="normal" in="SourceGraphic" in2="effect2_dropShadow_386_92905" result="shape"></feBlend></filter><pattern id="pattern0_386_92905" patternContentUnits="objectBoundingBox" width="1" height="1"><use transform="matrix(0.00422427 0 0 0.00537634 0.107143 0)"></use></pattern><image id="image0_386_92905" width="186" height="186"></image></defs></svg>