<svg height="24" viewBox="0 0 24 24" width="24" xmlns="http://www.w3.org/2000/svg"><path d="m1.6428 2h20.7144c.9072 0 1.6428.71516667 1.6428 1.59716667v7.73616663c0 6.4435-5.3724 11.6666667-12 11.6666667s-12-5.2231667-12-11.6666667v-7.73616663c0-.882.7356-1.59716667 1.6428-1.59716667zm14.3066012 6.42937298-3.9494012 3.87551962-3.94940123-3.87551962c-.59129098-.58022968-1.54099611-.57126273-2.12122579.02002825s-.57126273 1.54099611.02002825 2.12122577l4.99999997 4.9064649c.5834112.5724973 1.5177864.5724973 2.1011976 0l5-4.9064649c.5912909-.58022966.6002579-1.52993479.0200282-2.12122577s-1.5299348-.60025793-2.1212258-.02002825z" fill="#ef4056" fill-rule="evenodd"/></svg>