<svg xmlns="http://www.w3.org/2000/svg" fill="currentColor" aria-hidden="true" viewBox="0 0 65 58"><path d="M12.22.991a.013.013 0 0 0-.012.013v13.077c0 11.218 9.094 20.312 20.312 20.312 11.218 0 20.312-9.094 20.312-20.312V1.004a.013.013 0 0 0-.013-.013z"></path><path d="M25.298 33.942a7.222 7.222 0 1 0 14.444 0V26.72H25.298z"></path><g opacity=".5"><path d="M26.355 27.974a2.638 2.638 0 0 0-2.523-2.636l-.114-.002h-3.25a14.42 14.42 0 0 1-9.992-4.003l-.284-.28A14.438 14.438 0 0 1 6.27 13.67l-.031-.165h8.451a2.638 2.638 0 0 0 2.635-2.524l.003-.114a2.638 2.638 0 0 0-2.523-2.636l-.115-.002H3.36a2.638 2.638 0 0 0-2.637 2.638c0 10.796 8.664 19.568 19.418 19.742l.327.003h3.25a2.638 2.638 0 0 0 2.638-2.638zM39.09 27.974a2.638 2.638 0 0 1 2.523-2.636l.115-.002h3.25c7.032 0 12.892-5.017 14.198-11.666l.03-.165h-8.45a2.638 2.638 0 0 1-2.636-2.524l-.003-.114a2.638 2.638 0 0 1 2.524-2.636l.114-.002h11.33a2.638 2.638 0 0 1 2.638 2.638c0 10.796-8.665 19.568-19.419 19.742l-.326.003h-3.25a2.638 2.638 0 0 1-2.638-2.638zM46.216 54.705a2.638 2.638 0 0 1-2.638 2.638H20.783l-.114-.002a2.638 2.638 0 0 1 .114-5.274h8.872V27.623h5.276v24.444h8.647l.114.003a2.638 2.638 0 0 1 2.524 2.635z"></path></g></svg>