<svg width="156" height="134" viewBox="0 0 156 134" fill="none" xmlns="http://www.w3.org/2000/svg">
<g clip-path="url(#clip0_2870_16034)">
<path d="M0 128.614C0 128.614 102.462 140.797 155.194 128.062V1.25049C155.194 1.25049 71.5718 21.7384 0 0.139648C0 0.139648 1.13291 129.446 0 128.614Z" fill="#1868DB"/>
<path d="M101.24 69.4894C101.527 67.7533 101.66 65.9141 101.63 63.972C101.601 62.0004 101.417 60.1392 101.079 58.3958C99.0628 48.0083 91.7431 41.689 81.569 40.1736C79.8328 39.9161 78.0158 39.7984 76.1251 39.8205C74.1536 39.8499 72.2703 40.0265 70.4753 40.3575C60.3454 42.1893 53.2095 48.6925 51.4807 59.0799C51.1865 60.8308 51.0467 62.6993 51.0761 64.6709C51.1055 66.613 51.2895 68.4521 51.6279 70.1736C53.6288 80.4948 60.9486 86.8067 71.1374 88.3663C72.9397 88.6385 74.8304 88.7709 76.8019 88.7415C78.6926 88.712 80.5023 88.5428 82.2311 88.2412C92.3684 86.4462 99.5263 79.921 101.24 69.4894Z" fill="#FFA900"/>
<path d="M118.566 133.021C117.492 103.594 101.182 92.5008 76.8909 92.9201C54.7403 93.3026 39.4902 104.308 37.71 131.969C60.9198 133.55 91.3391 134.742 118.566 133.021Z" fill="#FFA900"/>
<path d="M138.767 18.252H115.741V37.5629H138.767V18.252Z" fill="#BF63F3"/>
<path d="M145.542 34.9361L145.556 34.9288V20.8116L145.542 20.8042L132.477 27.8738L145.542 34.9361Z" fill="#BF63F3"/>
<path d="M138.759 24.4673L132.477 27.8734L138.759 31.2721V24.4673Z" fill="#09326C"/>
</g>
<defs>
<clipPath id="clip0_2870_16034">
<rect width="155.194" height="133.727" fill="white" transform="translate(0 0.139648)"/>
</clipPath>
</defs>
</svg>
