<svg fill="none" height="40" viewBox="0 0 40 40" width="40" xmlns="http://www.w3.org/2000/svg"><path clip-rule="evenodd" d="m21.6587 9.87961c.0186-.15806.0281-.31888.0281-.48192 0-2.26238-1.834-4.09639-4.0964-4.09639s-4.0964 1.83401-4.0964 4.09639c0 .16304.0095.32386.0281.48192h-5.32926c-1.59697 0-2.89157 1.29459-2.89157 2.89159v5.5702c.1581-.0186.31895-.0281.48203-.0281 2.26237 0 4.09638 1.834 4.09638 4.0964s-1.83401 4.0964-4.09638 4.0964c-.16308 0-.32393-.0095-.48203-.0281v5.3293c0 1.597 1.2946 2.8916 2.89157 2.8916h5.32936c-.0185-.1581-.028-.3189-.028-.482 0-2.2623 1.834-4.0964 4.0963-4.0964 2.2624 0 4.0964 1.8341 4.0964 4.0964 0 .1631-.0095.3239-.028.482h5.5701c1.5969 0 2.8915-1.2946 2.8915-2.8916v-5.3292c.1581.0185.3189.028.482.028 2.2624 0 4.0964-1.834 4.0964-4.0964 0-2.2623-1.834-4.0964-4.0964-4.0964-.1631 0-.3239.0096-.482.0281v-5.5702c0-1.597-1.2946-2.89159-2.8915-2.89159z" fill="#091e42" fill-rule="evenodd"/></svg>