<svg fill="none" height="40" viewBox="0 0 40 40" width="40" xmlns="http://www.w3.org/2000/svg"><g fill="#091e42"><path clip-rule="evenodd" d="m26.7856 28.6628h-13.8382v.563c0 3.8213 3.0978 6.9191 6.9191 6.9191s6.9191-3.0978 6.9191-6.9191zm-15.5324-1.9783c-1.32156-.1422-2.35061-1.2612-2.35061-2.6206v-9.8615c0-1.4557 1.18011-2.6358 2.63581-2.6358h16.6561c1.4557 0 2.6358 1.1801 2.6358 2.6358v9.8615c0 1.3594-1.0291 2.4785-2.3507 2.6206-.4443-.1241-.9126-.1904-1.3965-.1904h-14.4334l-.0856.0007c-.4535.0073-.8929.073-1.3109.1897zm6.9396-7.5276c0 1.1312-.917 2.0482-2.0482 2.0482s-2.0482-.917-2.0482-2.0482c0-1.1311.917-2.0481 2.0482-2.0481s2.0482.917 2.0482 2.0481zm5.4217 2.0482c1.1311 0 2.0481-.917 2.0481-2.0482 0-1.1311-.917-2.0481-2.0481-2.0481-1.1312 0-2.0482.917-2.0482 2.0481 0 1.1312.917 2.0482 2.0482 2.0482z" fill-rule="evenodd"/><path d="m27.0832 26.4938c2.8321 0 5.1334 2.2729 5.1791 5.0942l.0007.0856v.078c0 .5988-.4855 1.0843-1.0843 1.0843-.5818 0-1.0565-.4581-1.0832-1.0333l-.0012-.051v-.078c0-1.6382-1.3081-2.9708-2.9369-3.0102l-.0742-.0009h-14.4334c-1.6382 0-2.97084 1.3082-3.01026 2.9369l-.00089.0742v.078c0 .5988-.48548 1.0843-1.08434 1.0843-.58175 0-1.05651-.4581-1.08316-1.0333l-.00118-.051v-.078c0-2.8321 2.27294-5.1334 5.09413-5.1791l.0857-.0007z" opacity=".5"/><path clip-rule="evenodd" d="m19.8664 3.85669c-1.63 0-2.9514 1.32139-2.9514 2.9514 0 1.24714.7736 2.31362 1.867 2.74581v2.0124l.0012.0511c.0267.5751.5014 1.0333 1.0832 1.0333.5988 0 1.0843-.4855 1.0843-1.0844v-2.01235c1.0935-.43217 1.8671-1.49868 1.8671-2.74586 0-1.63001-1.3214-2.9514-2.9514-2.9514zm.0106 3.73379c.4273-.00573.772-.35394.772-.78265 0-.43228-.3504-.78272-.7827-.78272s-.7827.35044-.7827.78272c0 .42874.3447.77697.7721.78266.0035-.00004.0071-.00006.0107-.00006.0035 0 .0071.00002.0106.00005z" fill-rule="evenodd" opacity=".5"/></g></svg>