<svg xmlns="http://www.w3.org/2000/svg" fill="currentColor" aria-hidden="true" viewBox="0 0 51 65"><path fill-rule="evenodd" d="M8.428 45.45a10.27 10.27 0 0 1 2.597-.375l.17-.002h28.61c.958 0 1.886.132 2.766.378a5.225 5.225 0 0 0 4.66-5.195V20.709a5.225 5.225 0 0 0-5.224-5.225H8.992a5.225 5.225 0 0 0-5.224 5.225v19.547a5.225 5.225 0 0 0 4.66 5.195zm3.357 3.922v1.116c0 7.575 6.14 13.715 13.715 13.715 7.574 0 13.714-6.14 13.714-13.715v-1.116zM22.182 30.53a4.06 4.06 0 1 1-8.12 0 4.06 4.06 0 0 1 8.12 0zm10.747 4.06a4.06 4.06 0 1 0 0-8.12 4.06 4.06 0 0 0 0 8.12z"></path><path d="M39.804 45.072c5.614 0 10.175 4.506 10.266 10.098l.001.17v.154a2.15 2.15 0 0 1-4.296.101l-.002-.101v-.155a5.969 5.969 0 0 0-5.822-5.966l-.147-.002h-28.61a5.969 5.969 0 0 0-5.966 5.821l-.002.147v.155a2.15 2.15 0 0 1-4.296.101l-.002-.101v-.155c0-5.613 4.505-10.175 10.097-10.265l.17-.002z" opacity=".5"></path><path fill-rule="evenodd" d="M25.5.203a5.85 5.85 0 0 0-2.149 11.293v3.989l.003.101a2.15 2.15 0 0 0 4.296-.101v-3.99A5.852 5.852 0 0 0 25.5.204zm.013 7.401a1.551 1.551 0 1 0-.025 0h.025z" opacity=".5"></path></svg>