<svg width="183" height="42" viewBox="0 0 183 42" fill="none" xmlns="http://www.w3.org/2000/svg">
<g clip-path="url(#clip0_3358_7098)">
<path d="M97.9638 26.3924C93.8917 26.3924 91.4605 28.5299 91.4605 32.1105C91.4605 35.6789 93.8917 37.8094 97.9639 37.8094C102.049 37.8094 104.488 35.6789 104.488 32.1105C104.488 28.5299 102.049 26.3924 97.9639 26.3924H97.9638ZM97.9638 34.6453C96.7657 34.6453 95.9603 33.6188 95.9603 32.0908C95.9603 30.5513 96.7657 29.5166 97.9639 29.5166C99.1808 29.5166 99.9674 30.5272 99.9674 32.0908C99.9674 33.6665 99.1996 34.6454 97.9639 34.6454L97.9638 34.6453ZM149.345 35.9623C149.345 36.84 150.046 37.5515 150.911 37.5515H153.96V26.6699H149.345V35.9623ZM149.345 23.099H153.96V25.3506H149.345V23.099ZM162.305 26.3924C158.233 26.3924 155.802 28.5299 155.802 32.1105C155.802 35.6789 158.233 37.8094 162.305 37.8094C166.39 37.8094 168.829 35.6789 168.829 32.1105C168.829 28.5299 166.39 26.3924 162.305 26.3924ZM162.305 34.6453C161.106 34.6453 160.301 33.6188 160.301 32.0908C160.301 30.5513 161.106 29.5166 162.305 29.5166C163.522 29.5166 164.309 30.5272 164.309 32.0908C164.309 33.6665 163.541 34.6454 162.305 34.6454V34.6453ZM76.057 9.12822C71.9849 9.12822 69.5536 11.2657 69.5536 14.8463C69.5536 18.4146 71.9848 20.5451 76.057 20.5451C80.142 20.5451 82.581 18.4146 82.581 14.8463C82.581 11.2657 80.142 9.12822 76.057 9.12822ZM76.057 17.3811C74.8586 17.3811 74.0532 16.3545 74.0532 14.8266C74.0532 13.287 74.8586 12.2524 76.057 12.2524C77.2739 12.2524 78.0606 13.263 78.0606 14.8266C78.0606 16.4023 77.2928 17.3811 76.057 17.3811ZM140.503 17.4994C140.008 17.5132 137.944 17.6193 136.121 17.6193C134.253 17.6193 133.594 17.4272 133.22 16.2202H140.605C140.697 16.2202 140.785 16.1837 140.85 16.1186C140.915 16.0536 140.952 15.9654 140.952 15.8734V15.025C140.952 11.2774 138.964 9.17592 135.16 9.12812C130.909 9.07471 128.917 11.3028 128.917 14.668C128.917 18.3604 130.866 20.5648 135.504 20.5648C138.823 20.5648 140.325 19.2159 140.618 17.6566C140.628 17.6005 140.56 17.4978 140.503 17.4994ZM135.181 11.6509C136.406 11.6509 136.957 12.6593 136.957 13.9034H133.167C133.167 12.6439 133.594 11.6509 135.181 11.6509ZM147.148 5.83502H144.146C143.281 5.83502 142.579 6.54652 142.579 7.42415V20.2871H147.148V5.83502ZM89.1272 20.4663C90.9288 20.6338 92.947 20.2636 93.712 20.1016C93.897 20.0625 94.0285 19.8965 94.0285 19.7045V17.0458C94.0285 17.0458 93.1872 17.1404 91.1785 17.1404C89.4399 17.1404 88.36 16.2425 88.36 14.7969C88.36 13.3403 89.3759 12.4352 91.0116 12.4352C92.9088 12.4352 94.0285 12.6695 94.0285 12.6695V9.98121C94.0285 9.78959 93.8978 9.6243 93.713 9.58444C92.9506 9.41989 90.954 9.034 89.3744 9.12791C85.9921 9.32883 83.8813 11.3077 83.8813 14.8168C83.8813 18.1432 85.8663 20.1634 89.1272 20.4663ZM134.584 26.6322V28.0415C133.927 27.0393 132.928 26.3722 131.421 26.3722C127.977 26.3722 126.032 28.5033 126.032 32.0711V32.1121C126.032 35.6797 127.977 37.8108 131.421 37.8108C132.928 37.8108 133.927 37.1437 134.584 36.1415V36.381C134.584 37.0275 135.1 37.5509 135.741 37.5509H138.938V26.6322H134.584ZM132.581 34.6467C131.384 34.6467 130.578 33.6171 130.578 32.0916C130.578 30.5659 131.384 29.5363 132.581 29.5363C133.815 29.5363 134.584 30.518 134.584 32.0916C134.584 33.6651 133.815 34.6467 132.581 34.6467ZM123.985 9.40572L122.696 16.5276L121.257 9.40572H116.06L114.621 16.5276L113.332 9.40572H109.004L109.004 9.40688L104.5 9.37071C103.825 9.37071 103.169 9.78483 102.808 10.436L100.247 14.1603V5.80002H97.4599C96.5946 5.80002 95.8929 6.51151 95.8929 7.38914V20.2522H100.247V14.8372L103.234 19.187C103.595 19.8382 104.252 20.2523 104.926 20.2523L109.439 20.2886L105.026 14.4726L109.006 9.4146L111.604 20.2873H116.464C117 20.2873 117.458 19.8914 117.55 19.3491L118.479 12.8985H118.838L119.767 19.3491C119.859 19.8914 120.317 20.2873 120.853 20.2873H125.713L128.313 9.40572H123.985ZM77.1435 31.3777C77.1435 33.242 76.5464 34.1896 75.3695 34.1896C74.6375 34.1896 73.8886 33.9466 73.8886 32.1507V26.6709H69.5348V32.8827C69.5348 36.0091 71.0961 37.7298 73.9291 37.7298C75.3558 37.7298 76.5835 37.227 77.4772 36.2932V36.3786C77.4772 37.0251 77.9965 37.5519 78.6342 37.5519H81.4975V26.6709H77.1434L77.1435 31.3777ZM120.555 26.4115C119.041 26.4115 117.736 27.0585 116.827 28.2471C116.081 27.0581 114.834 26.4115 113.26 26.4115C111.939 26.4115 110.75 26.9226 109.877 27.8412V26.6694H105.9V37.5509H110.211V32.3084C110.211 30.9014 110.85 29.9921 111.839 29.9921C112.543 29.9921 113.195 30.2319 113.195 31.9713V37.5508H117.527V32.3084C117.527 30.8797 118.143 29.9921 119.134 29.9921C119.838 29.9921 120.49 30.2319 120.49 31.9713V37.5508H124.801V31.2371C124.801 28.1252 123.293 26.4115 120.555 26.4115ZM177.811 26.3917C176.388 26.3917 175.159 26.9012 174.26 27.8448V26.6694H170.241V37.5509H174.595V32.3084C174.595 30.8653 175.291 29.9327 176.369 29.9327C177.101 29.9327 177.85 30.1748 177.85 31.9713V37.5508H182.182V31.2371C182.182 28.1124 180.63 26.3917 177.811 26.3917ZM145.134 23.0988H140.78V35.9618C140.78 36.8395 141.482 37.551 142.347 37.551H145.134V29.8751H147.765V26.6699H145.134V23.0988ZM153.903 5.83502H150.901C150.035 5.83502 149.334 6.54652 149.334 7.42415V20.2871H153.903V5.83502ZM59.0771 23.0988C58.609 23.0988 58.1879 23.3839 58.0146 23.8187L52.5312 37.551H57.0912L58.1087 34.8214H63.3515L63.9072 36.4016V36.4051C64.2139 37.0926 64.892 37.551 65.617 37.551H69.1886L63.4181 23.0989H59.0771V23.0988ZM59.2838 31.6002L60.7807 27.5182L62.2189 31.6002H59.2838ZM88.078 23.1062H83.4616V35.9692C83.4616 36.8468 84.1633 37.5583 85.0286 37.5583H88.078V29.8824H90.7087V26.6773H88.078V23.1061V23.1062ZM67.4464 14.7231C66.9841 14.1361 66.3577 13.7 65.4176 13.5262V13.4883C67.442 13.2484 68.6403 11.8667 68.6403 9.64714C68.6403 6.86758 66.6549 5.78955 63.4314 5.78955H55.6291V20.2616H60.2392V14.9923H61.5077C62.1406 14.9923 62.7852 15.0952 62.966 15.7432L64.2689 19.5307C64.3412 19.9533 64.6986 20.2616 65.1167 20.2616H69.379L67.7828 15.4242C67.7198 15.1693 67.6083 14.9279 67.4464 14.7231ZM62.1231 11.9743H60.3029V8.89874H62.1927C63.1373 8.89874 64.0278 9.0874 64.0278 10.392C64.0278 11.8485 63.0869 11.9743 62.1231 11.9743Z" fill="#C1C7D0"/>
<path d="M12.7531 12.9705L29.5083 0.559001C29.7484 0.381128 29.6225 0 29.3238 0H15.5886C13.9956 -3.67628e-07 12.4678 0.632744 11.3413 1.75907L2.5925 10.5064C2.03468 11.0641 1.59219 11.7262 1.29029 12.455C0.988393 13.1837 0.833008 13.9648 0.833008 14.7536V27.1241C0.83301 27.9129 0.988387 28.6939 1.29026 29.4226C1.59214 30.1513 2.03461 30.8134 2.59239 31.3711L11.3409 40.1183C12.4675 41.2448 13.9954 41.8776 15.5886 41.8776H27.4875C27.8185 41.8776 27.9191 41.4285 27.6197 41.2873L3.9735 30.1402C3.48993 29.9122 3.08114 29.5514 2.79483 29.1C2.50852 28.6485 2.35648 28.1249 2.35646 27.5903V21.6568C2.35645 21.3512 2.42805 21.0499 2.56551 20.7771C2.70297 20.5042 2.90247 20.2673 3.14801 20.0854L6.555 17.5618V12.9705H12.7531Z" fill="#C1C7D0"/>
<path d="M29.0495 17.7582L27.4351 22.161H30.6008L29.0495 17.7582ZM15.4491 17.9341C15.4491 16.5273 14.4885 16.3237 13.4699 16.3237H11.4316V19.6406H13.3947C14.4342 19.6406 15.4491 19.5053 15.4491 17.9341Z" fill="#C1C7D0"/>
<path d="M41.1908 10.7401L33.0454 2.59408C32.8235 2.37206 32.5305 2.23518 32.2178 2.2074C31.905 2.17962 31.5925 2.2627 31.3349 2.44211L15.6583 12.9993C18.627 13.1846 20.4239 14.3879 20.4239 17.1314C20.4239 19.5251 19.1314 21.0154 16.9479 21.2742V21.315C17.9619 21.5024 18.6374 21.9727 19.1361 22.606C19.3109 22.8267 19.4311 23.0872 19.4989 23.3621L20.7369 27.1142L26.0658 13.7687C26.1574 13.5395 26.3155 13.343 26.5199 13.2046C26.7242 13.0661 26.9654 12.9922 27.2122 12.9922H31.894L38.1178 28.5797H34.2655C33.4837 28.5797 32.7524 28.0852 32.4216 27.3437V27.3401L31.8222 25.6358H26.1675L25.07 28.5797H16.6234C16.1724 28.5797 15.787 28.2471 15.7091 27.7912L14.3039 23.7062C14.1089 23.0072 13.4134 22.8963 12.7309 22.8963H11.3628V28.5797H6.55452V19.1304L3.6783 21.0672C3.55001 21.1566 3.44522 21.2757 3.37286 21.4143C3.3005 21.5529 3.2627 21.707 3.2627 21.8633V27.8795C3.26273 28.0686 3.31798 28.2535 3.42167 28.4115C3.52535 28.5696 3.67296 28.6939 3.84634 28.7692L30.9673 40.1199C31.2131 40.2267 31.4853 40.2572 31.7486 40.2075C32.012 40.1577 32.2543 40.03 32.4442 39.8409L41.1829 31.1391C41.6689 30.6552 42.0545 30.08 42.3176 29.4467C42.5808 28.8133 42.7163 28.1342 42.7163 27.4484V14.423C42.7163 13.0417 42.1676 11.717 41.1909 10.7402L41.1908 10.7401Z" fill="#C1C7D0"/>
</g>
<defs>
<clipPath id="clip0_3358_7098">
<rect width="181.35" height="41.8776" fill="white" transform="translate(0.833008)"/>
</clipPath>
</defs>
</svg>
