<svg width="1520" height="855" viewBox="0 0 1520 855" fill="none" xmlns="http://www.w3.org/2000/svg">
<path d="M1519.47 0H0V854.924H1519.47V0Z" fill="#1868DB"/>
<mask id="mask0_3358_6937" style="mask-type:luminance" maskUnits="userSpaceOnUse" x="0" y="0" width="1520" height="855">
<path d="M1519.47 0H0V854.924H1519.47V0Z" fill="white"/>
</mask>
<g mask="url(#mask0_3358_6937)">
<path opacity="0.5" d="M500.549 685.204C495.118 654.97 481.967 630.467 462.864 612.271V537.402H449.081C449.081 530.592 448.505 523.932 447.37 517.643C440.488 479.334 413.926 453.696 374.511 447.277C361.974 445.249 348.154 445.286 335.58 447.388C296.221 453.956 269.715 479.557 262.814 517.624C261.68 523.913 261.103 530.574 261.084 537.421H247.301V612.606C228.217 630.783 215.085 655.156 209.635 685.223C207.775 695.493 206.808 706.415 206.808 717.987C206.808 729.56 207.756 740.165 209.579 750.305C220.498 810.996 262.889 848.617 322.522 858.571C333.069 860.338 344.155 861.25 355.706 861.25C367.257 861.25 377.431 860.394 387.587 858.757C447.184 849.063 489.668 811.331 500.568 750.305C502.372 740.165 503.321 729.392 503.321 717.987C503.321 706.582 502.353 695.493 500.512 685.223L500.549 685.204ZM281.694 521.011C287.125 490.944 307.4 471.501 338.742 466.273C344.043 465.38 349.735 464.952 355.408 464.952C361.081 464.952 366.345 465.361 371.423 466.199C402.784 471.297 423.059 490.777 428.49 521.029C429.42 526.22 429.885 531.727 429.904 537.402H280.28C280.28 531.709 280.764 526.201 281.694 521.029V521.011Z" fill="#357DE8"/>
<path d="M395.158 702.917C395.66 700.126 395.92 697.167 395.92 694.023C395.92 690.879 395.66 687.827 395.158 684.999C392.145 668.18 380.463 657.817 364.076 655.156C361.286 654.71 358.347 654.468 355.297 654.468C352.246 654.468 349.065 654.728 346.164 655.212C329.777 657.947 318.114 668.292 315.082 685.018C314.58 687.846 314.301 690.86 314.301 694.042C314.301 697.223 314.561 700.144 315.063 702.935C318.058 719.643 329.739 729.988 346.145 732.741C349.047 733.225 352.097 733.485 355.278 733.485C358.459 733.485 361.249 733.244 364.058 732.797C380.463 730.136 392.163 719.736 395.158 702.954V702.917Z" fill="#1868DB"/>
<path d="M381.059 713.112H329.145V781.916H381.059V713.112Z" fill="#1868DB"/>
<path opacity="0.5" d="M1044.84 554.556C1039.27 566.464 1031.13 576.381 1020.9 583.823C1021.4 587.246 1021.66 590.856 1021.64 594.595C1021.64 598.968 1021.27 603.173 1020.54 607.08C1015.63 634.169 995.842 642.84 980.106 645.37C976.125 646.003 971.977 646.282 967.588 646.319C963.086 646.319 958.678 645.947 954.511 645.24C938.775 642.561 919.003 633.723 914.222 606.801C913.534 602.875 913.181 598.689 913.199 594.335C913.199 589.888 913.59 585.628 914.315 581.683C914.371 581.386 914.446 581.088 914.501 580.79C904.829 572.715 897.314 562.222 892.441 549.812C888.051 557.552 884.889 566.296 883.122 575.934C882.973 576.734 882.862 577.571 882.731 578.39V576.995H589.938V607.34H618.583C621.522 639.937 611.627 675.157 611.627 675.157H637.705C637.705 674.823 637.668 674.525 637.668 674.19C637.668 672.18 637.854 670.264 638.17 668.478C640.123 657.892 647.526 651.361 657.924 649.649C659.765 649.352 661.7 649.184 663.709 649.203C665.643 649.203 667.503 649.37 669.27 649.649C679.649 651.361 687.034 657.966 688.913 668.627C689.229 670.413 689.396 672.329 689.378 674.339C689.378 674.618 689.34 674.897 689.34 675.176H708.034C714.563 650.673 714.358 625.723 712.61 607.359H882.229C882.434 609.052 882.676 610.726 882.973 612.364C889.111 647.063 913.255 670.469 949.173 676.553C955.069 677.558 961.208 678.06 967.476 678.078H967.792C973.707 678.078 979.529 677.632 985.091 676.739C1020.58 671.064 1045.51 647.156 1051.74 612.792C1052.78 607.043 1053.32 600.959 1053.34 594.726C1053.34 588.4 1052.83 582.26 1051.81 576.437C1050.42 568.585 1048.05 561.292 1044.82 554.612L1044.84 554.556Z" fill="#357DE8"/>
<path opacity="0.5" d="M967.662 542.388H967.885C972.219 542.388 976.423 542.742 980.403 543.393C988.885 544.788 998.539 548.025 1006.39 554.965C1015.22 546.704 1019.07 535.727 1020.66 526.201C1020.66 526.145 1020.66 526.108 1020.67 526.052C1010.78 519.094 998.948 514.294 985.593 512.08C979.938 511.149 974.005 510.666 967.978 510.647C961.728 510.684 955.571 511.112 949.675 512.08C937.901 514.015 927.392 517.829 918.333 523.28C918.445 524.173 918.556 525.048 918.686 525.922C920.1 534.797 923.485 544.956 931.019 553.012C938.44 547.393 947.108 544.658 954.809 543.393C958.92 542.723 963.235 542.369 967.662 542.369V542.388Z" fill="#357DE8"/>
<path opacity="0.5" d="M1006.39 554.965C1000.66 560.324 992.828 564.547 982.133 566.426C978.171 567.133 973.893 567.487 969.466 567.468C965.095 567.468 960.891 567.096 956.985 566.371C945.173 564.231 936.859 559.245 931.037 553.012C923.448 558.742 917.161 567.487 914.52 580.753C924.62 589.199 937.064 595.004 951.312 597.591C957.059 598.633 963.142 599.172 969.373 599.191C975.697 599.191 981.835 598.688 987.657 597.665C1000.27 595.432 1011.47 590.688 1020.9 583.823C1020.8 583.19 1020.71 582.539 1020.6 581.906C1018.39 569.44 1013.03 560.845 1006.37 554.947L1006.39 554.965Z" fill="#1558BC"/>
<path opacity="0.5" d="M918.333 523.299C917.961 520.117 917.775 516.843 917.756 513.401C917.756 508.898 918.128 504.489 918.835 500.321C921.513 484.581 930.349 464.803 957.264 460.022C961.189 459.333 965.374 458.98 969.726 458.998C974.172 458.998 978.432 459.389 982.375 460.115C1009.29 465.064 1018.03 484.86 1020.62 500.6C1021.29 504.712 1021.64 509.029 1021.64 513.457V513.68C1021.64 517.959 1021.29 522.127 1020.65 526.053C1031.02 533.346 1039.24 543.002 1044.84 554.556C1048.15 547.486 1050.55 539.746 1051.92 531.374C1052.85 525.718 1053.34 519.783 1053.35 513.754C1053.32 507.503 1052.89 501.344 1051.92 495.447C1046.03 459.519 1022.78 435.258 988.122 428.895C987.323 428.746 986.486 428.634 985.667 428.504H987.062V135.634H956.725V164.287C924.136 167.226 888.925 157.328 888.925 157.328V183.413C889.26 183.413 889.558 183.376 889.892 183.376C891.901 183.376 893.817 183.562 895.603 183.878C906.187 185.832 912.715 193.237 914.427 203.637C914.724 205.479 914.892 207.414 914.873 209.424C914.873 211.359 914.706 213.219 914.427 214.987C912.715 225.369 906.131 232.755 895.454 234.634C893.668 234.951 891.753 235.118 889.744 235.099C889.465 235.099 889.186 235.062 888.907 235.062V253.761C913.404 260.291 938.329 260.087 956.706 258.338V428.002C955.013 428.206 953.339 428.448 951.702 428.746C917.012 434.886 893.613 459.036 887.53 494.963C886.526 500.861 886.023 507.001 886.005 513.271V513.587C886.005 519.503 886.451 525.327 887.344 530.89C888.404 537.569 890.116 543.877 892.422 549.737C898.653 538.76 907.414 529.811 918.296 523.243L918.333 523.299Z" fill="#1558BC"/>
<path opacity="0.5" d="M1467.03 454.57C1473.06 454.57 1478.77 455.054 1484.18 456.096C1469.71 375.608 1420.61 343.011 1342.11 343.011C1276.1 343.011 1231.81 365.636 1210.72 419.722C1209.34 419.685 1207.96 419.647 1206.57 419.647C1155.49 419.647 1119.3 451.481 1108.58 511.931H1392.71C1404.42 474.292 1431.12 454.57 1467.02 454.57H1467.03Z" fill="#357DE8"/>
<path opacity="0.5" d="M1484.18 456.096C1487.16 472.636 1488.67 491.204 1488.67 511.931H1392.72C1391.12 517.047 1389.8 522.499 1388.78 528.285H1546.05C1533.22 482.516 1512.92 461.584 1484.18 456.096Z" fill="#1558BC"/>
<path opacity="0.5" d="M63.3761 764.575C63.7853 809.563 56.531 863.947 36.7771 908.359L142.261 907.391C162.759 858.328 168.433 800.856 168.005 754.305C166.517 591.358 90.1238 487.334 -40.1924 464.915L-39.0577 589.646C23.6451 608.382 62.446 663.529 63.3761 764.556V764.575Z" fill="#1558BC"/>
<path opacity="0.5" d="M1643.44 185.794L1643.01 25.1357C1541.79 46.5507 1469.56 110.014 1445.03 207.47L1608.51 207.042C1618.31 198.223 1630.14 191.227 1643.44 185.813V185.794Z" fill="#357DE8"/>
<path opacity="0.5" d="M685.807 482.199C686.346 479.167 686.625 475.948 686.625 472.543C686.625 469.138 686.346 465.827 685.788 462.757C682.515 444.486 669.81 433.23 652.028 430.327C648.996 429.825 645.816 429.583 642.505 429.583C639.194 429.583 635.734 429.862 632.572 430.383C614.771 433.36 602.104 444.579 598.812 462.757C598.254 465.827 597.975 469.101 597.975 472.543C597.975 475.985 598.254 479.185 598.812 482.199C602.067 500.34 614.752 511.596 632.59 514.573C635.753 515.094 639.063 515.373 642.523 515.373C645.983 515.373 649.015 515.113 652.047 514.629C669.866 511.726 682.57 500.451 685.825 482.199H685.807Z" fill="#1558BC"/>
<path opacity="0.5" d="M685.807 378.027C686.346 374.994 686.625 371.776 686.625 368.371C686.625 364.966 686.346 361.654 685.788 358.584C682.515 340.314 669.81 329.057 652.028 326.155C648.996 325.653 645.816 325.411 642.505 325.411C639.194 325.411 635.734 325.69 632.572 326.211C614.771 329.188 602.104 340.407 598.812 358.584C598.254 361.654 597.975 364.929 597.975 368.371C597.975 371.813 598.254 375.013 598.812 378.027C602.067 396.167 614.752 407.424 632.59 410.401C635.753 410.922 639.063 411.201 642.523 411.201C645.983 411.201 649.015 410.94 652.047 410.456C669.866 407.554 682.57 396.279 685.825 378.027H685.807Z" fill="#357DE8"/>
<path opacity="0.5" d="M685.807 273.855C686.346 270.822 686.625 267.603 686.625 264.198C686.625 260.794 686.346 257.482 685.788 254.412C682.515 236.141 669.81 224.885 652.028 221.983C648.996 221.48 645.816 221.238 642.505 221.238C639.194 221.238 635.734 221.517 632.572 222.038C614.771 225.015 602.104 236.234 598.812 254.412C598.254 257.482 597.975 260.756 597.975 264.198C597.975 267.64 598.254 270.841 598.812 273.855C602.067 291.995 614.752 303.251 632.59 306.228C635.753 306.749 639.063 307.028 642.523 307.028C645.983 307.028 649.015 306.768 652.047 306.284C669.866 303.382 682.57 292.107 685.825 273.855H685.807Z" fill="#357DE8"/>
<path opacity="0.5" d="M685.807 169.682C686.346 166.65 686.625 163.431 686.625 160.026C686.625 156.621 686.346 153.309 685.788 150.24C682.515 131.969 669.81 120.713 652.028 117.81C648.996 117.308 645.816 117.066 642.505 117.066C639.194 117.066 635.734 117.345 632.572 117.866C614.771 120.843 602.104 132.062 598.812 150.24C598.254 153.309 597.975 156.584 597.975 160.026C597.975 163.468 598.254 166.668 598.812 169.682C602.067 187.823 614.752 199.079 632.59 202.056C635.753 202.577 639.063 202.856 642.523 202.856C645.983 202.856 649.015 202.596 652.047 202.112C669.866 199.209 682.57 187.934 685.825 169.682H685.807Z" fill="#1558BC"/>
<path opacity="0.5" d="M577.327 378.027C577.867 374.994 578.146 371.776 578.146 368.371C578.146 364.966 577.867 361.654 577.309 358.584C574.035 340.314 561.331 329.057 543.549 326.155C540.517 325.653 537.336 325.411 534.025 325.411C530.714 325.411 527.254 325.69 524.092 326.211C506.292 329.188 493.624 340.407 490.332 358.584C489.774 361.654 489.495 364.929 489.495 368.371C489.495 371.813 489.774 375.013 490.332 378.027C493.587 396.167 506.273 407.424 524.111 410.401C527.273 410.922 530.584 411.201 534.044 411.201C537.503 411.201 540.535 410.94 543.567 410.456C561.387 407.554 574.091 396.279 577.346 378.027H577.327Z" fill="#1558BC"/>
<path opacity="0.5" d="M577.327 273.855C577.867 270.822 578.146 267.603 578.146 264.198C578.146 260.794 577.867 257.482 577.309 254.412C574.035 236.141 561.331 224.885 543.549 221.983C540.517 221.48 537.336 221.238 534.025 221.238C530.714 221.238 527.254 221.517 524.092 222.038C506.292 225.015 493.624 236.234 490.332 254.412C489.774 257.482 489.495 260.756 489.495 264.198C489.495 267.64 489.774 270.841 490.332 273.855C493.587 291.995 506.273 303.251 524.111 306.228C527.273 306.749 530.584 307.028 534.044 307.028C537.503 307.028 540.535 306.768 543.567 306.284C561.387 303.382 574.091 292.107 577.346 273.855H577.327Z" fill="#1558BC"/>
<path opacity="0.5" d="M577.327 169.682C577.867 166.65 578.146 163.431 578.146 160.026C578.146 156.621 577.867 153.309 577.309 150.24C574.035 131.969 561.331 120.713 543.549 117.81C540.517 117.308 537.336 117.066 534.025 117.066C530.714 117.066 527.254 117.345 524.092 117.866C506.292 120.843 493.624 132.062 490.332 150.24C489.774 153.309 489.495 156.584 489.495 160.026C489.495 163.468 489.774 166.668 490.332 169.682C493.587 187.823 506.273 199.079 524.111 202.056C527.273 202.577 530.584 202.856 534.044 202.856C537.503 202.856 540.535 202.596 543.567 202.112C561.387 199.209 574.091 187.934 577.346 169.682H577.327Z" fill="#357DE8"/>
<path opacity="0.5" d="M797.764 378.027C798.303 374.994 798.582 371.776 798.582 368.371C798.582 364.966 798.303 361.654 797.745 358.584C794.472 340.314 781.767 329.057 763.985 326.155C760.953 325.653 757.772 325.411 754.462 325.411C751.151 325.411 747.691 325.69 744.529 326.211C726.728 329.188 714.061 340.407 710.769 358.584C710.211 361.654 709.932 364.929 709.932 368.371C709.932 371.813 710.211 375.013 710.769 378.027C714.024 396.167 726.709 407.424 744.547 410.401C747.71 410.922 751.02 411.201 754.48 411.201C757.94 411.201 760.972 410.94 764.004 410.456C781.823 407.554 794.527 396.279 797.783 378.027H797.764Z" fill="#357DE8"/>
<path opacity="0.5" d="M797.764 273.855C798.303 270.822 798.582 267.603 798.582 264.198C798.582 260.794 798.303 257.482 797.745 254.412C794.472 236.141 781.767 224.885 763.985 221.983C760.953 221.48 757.772 221.238 754.462 221.238C751.151 221.238 747.691 221.517 744.529 222.038C726.728 225.015 714.061 236.234 710.769 254.412C710.211 257.482 709.932 260.756 709.932 264.198C709.932 267.64 710.211 270.841 710.769 273.855C714.024 291.995 726.709 303.251 744.547 306.228C747.71 306.749 751.02 307.028 754.48 307.028C757.94 307.028 760.972 306.768 764.004 306.284C781.823 303.382 794.527 292.107 797.783 273.855H797.764Z" fill="#1558BC"/>
<path opacity="0.5" d="M797.764 169.682C798.303 166.65 798.582 163.431 798.582 160.026C798.582 156.621 798.303 153.309 797.745 150.24C794.472 131.969 781.767 120.713 763.985 117.81C760.953 117.308 757.772 117.066 754.462 117.066C751.151 117.066 747.691 117.345 744.529 117.866C726.728 120.843 714.061 132.062 710.769 150.24C710.211 153.309 709.932 156.584 709.932 160.026C709.932 163.468 710.211 166.668 710.769 169.682C714.024 187.823 726.709 199.079 744.547 202.056C747.71 202.577 751.02 202.856 754.48 202.856C757.94 202.856 760.972 202.596 764.004 202.112C781.823 199.209 794.527 187.934 797.783 169.682H797.764Z" fill="#357DE8"/>
<path opacity="0.5" d="M597.453 834.979V924.192H704.016V834.979C704.016 784.26 720.106 753.952 746.909 738.937C731.88 730.843 713.354 727.197 692.205 727.197C635.529 727.197 597.453 756.928 597.453 834.979Z" fill="#1558BC"/>
<path opacity="0.5" d="M798.768 727.178C778.921 727.178 761.362 730.825 746.909 738.918C774.792 753.933 790.639 784.241 788.835 834.96V924.173H895.398V834.96C898.188 756.91 859.164 727.178 798.768 727.178Z" fill="#357DE8"/>
<path opacity="0.5" d="M927.857 973.05L994.169 1039.38L1192.45 976.79L1158.41 808.726L990.411 774.678L927.857 973.05Z" fill="#1558BC"/>
<path opacity="0.5" d="M1241.48 655.789H1376.1V706.359H1492.14L1306.4 566.65L1125.43 706.359H1241.48V655.789Z" fill="#1558BC"/>
<path opacity="0.5" d="M1241.48 706.359V870.813H1376.1V706.359H1241.48Z" fill="#357DE8"/>
<path opacity="0.5" d="M201.724 222.168C255.313 222.168 295.063 237.536 319.262 273.203H385.294C372.106 198.762 327.521 159.561 264.632 159.561C262.921 159.561 261.228 159.598 259.535 159.635C233.569 93.0459 179.032 65.1748 97.7468 65.1748C1.07918 65.1748 -59.3916 105.307 -77.1924 204.437C-70.5333 203.172 -63.4837 202.558 -56.0806 202.558C-11.8669 202.558 21.0005 226.82 35.4346 273.185H84.5217C108.293 237.518 147.634 222.15 201.724 222.15V222.168Z" fill="#357DE8"/>
<path opacity="0.5" d="M84.5216 273.222C79.5924 280.627 75.3143 288.888 71.7244 298.079C70.3665 298.041 69.0087 298.004 67.6322 298.004C17.0942 298.004 -18.7306 329.503 -29.333 389.32H346.735C346.735 337.876 337.323 299.883 319.243 273.222H84.503H84.5216Z" fill="#1558BC"/>
<path opacity="0.5" d="M1410.34 290.73H1091.08C1091.08 290.73 1075.49 211.172 1075.49 126.517C1075.49 41.8622 1091.08 -25.4526 1091.08 -25.4526H1410.34C1410.34 -25.4526 1385.56 15.3493 1385.56 137.736C1385.56 260.124 1410.34 290.73 1410.34 290.73Z" fill="#1558BC"/>
<path opacity="0.5" d="M950.68 -148.621H841.345L765.733 -59.2588L790.863 40.1319L886.452 94.4043L993.201 43.7228L1017.16 -62.8682L950.68 -148.621Z" fill="#357DE8"/>
<path opacity="0.5" d="M404.825 124.508L405.83 93.3996C407.001 57.6212 425.304 44.2066 457.186 45.2299L572.25 48.951C652.325 51.5372 696.39 12.4842 698.827 -62.9426C699.683 -89.3811 697.841 -105.01 696.669 -116.731L604.931 -119.689C605.433 -111.112 606.624 -100.172 606.4 -93.1766C605.619 -69.0638 589.771 -60.2448 567.227 -60.9704L466.765 -64.2264C430.568 -65.3985 391.507 -62.4589 361.3 -45.9744C331.836 -29.8806 310.817 -0.893183 309.162 49.8813C308.604 66.9053 308.195 80.0408 307.86 90.1995L306.855 121.326L404.825 124.489V124.508Z" fill="#1558BC"/>
<path d="M1267.06 110.87C1267.49 108.433 1267.73 105.828 1267.73 103.093C1267.73 100.358 1267.5 97.6788 1267.06 95.2043C1264.42 80.5059 1254.21 71.445 1239.88 69.1193C1237.45 68.7286 1234.88 68.5239 1232.22 68.5239C1229.56 68.5239 1226.77 68.7472 1224.24 69.1751C1209.92 71.5752 1199.72 80.5989 1197.08 95.2229C1196.64 97.6974 1196.39 100.321 1196.39 103.112C1196.39 105.902 1196.62 108.451 1197.06 110.889C1199.69 125.494 1209.9 134.536 1224.24 136.936C1226.79 137.364 1229.45 137.588 1232.22 137.588C1234.99 137.588 1237.45 137.383 1239.88 136.992C1254.22 134.667 1264.44 125.587 1267.06 110.907V110.87Z" fill="#1868DB"/>
<path d="M1254.75 119.801H1209.36V179.952H1254.75V119.801Z" fill="#1868DB"/>
</g>
</svg>
