<svg xmlns="http://www.w3.org/2000/svg" xmlns:xlink="http://www.w3.org/1999/xlink" viewBox="0 0 47.95 47.95"><defs><style>.a6ea49bf-46f2-4075-88ce-c584db5bfee6{fill:#fface3;}.ba86c25f-4f7c-45de-bce6-4709875c6ba9{fill:url(#b5841d38-4046-4a44-9149-3b785b8119d8);}.ef6329b4-e2d2-43ab-ab85-b0d4a81507fb{fill:url(#a5005b4d-c926-45a1-88e7-ed666edec4d5);}.f687d8a4-1d31-4339-b623-bed3460d5212{fill:#fdf8e1;}.f5e8ee5b-8475-4bb3-9cb2-429adda68a0c{fill:url(#f5be2282-57f7-48b1-8c7b-58d74a660bc9);}.ecfbfdc6-b9ef-4f25-957d-c928cdb02c65{fill:url(#f195dbfe-2f2d-4987-a341-66ea60f8e059);}.fd518ae2-4215-43ab-83ee-80cbf33ba471{fill:url(#b027e6b9-b533-4114-b40d-0c78f46bdfa8);}.e9b02423-ad4e-4259-9f77-0b5d889d6325{fill:url(#b91194f0-54f7-4bd7-b19d-7dc156a7e8e1);}.e6519da7-e148-4646-b7bf-5a385dfe957b{fill:url(#e5f1302b-31d6-47b4-ad8e-9de784d1ee48);}.b5039ff3-32a7-440a-8055-71a85869d263{fill:url(#f2661fda-7a23-48aa-b2e7-3b9d80e006c9);}.aad3b86e-f067-4cca-84c1-5e4e24b50526{fill:url(#ae82d1ac-e014-4e0d-9f9a-e486316ce8c7);}.b92c665a-ac95-47b3-b77f-d3788781f702{fill:url(#ae6dc994-9e6f-4741-9ed9-f22d1fc3036f);}.edb85976-9b57-4fcc-b890-7a7ae30f5860{fill:#c03d73;}.ae3ec5a6-a7e9-4867-a641-7ca41196addf{fill:url(#bd7dfb75-6d3d-4ea0-9f7c-9dab121bd1a7);}.b5cf8fec-321d-4796-9ac9-683571d56f0e{fill:url(#e129257f-5fa6-44a9-966a-dfcf801c6c0a);}.a0271e78-5c24-437b-8c8e-8780b245ffba{fill:url(#a5e5e86e-45bc-468e-9ed2-1a1fef4ae13a);}.f5937491-767d-49cf-8d8d-c1c969f417a0{fill:url(#b0977dc0-3aa2-4ce0-9fbc-db53f8b2f4d6);}.f067af73-4d60-4f04-b6b2-c0db81543f17{fill:url(#f7458d29-3d91-44e4-ad2a-4ad6ab2e06eb);}</style><linearGradient id="b5841d38-4046-4a44-9149-3b785b8119d8" x1="17.37" y1="34.06" x2="27.61" y2="34.06" gradientUnits="userSpaceOnUse"><stop offset="0" stop-color="#ff8fd7"/><stop offset="1" stop-color="#ff78d1"/></linearGradient><linearGradient id="a5005b4d-c926-45a1-88e7-ed666edec4d5" x1="4.27" y1="-2.96" x2="11.67" y2="30.46" gradientUnits="userSpaceOnUse"><stop offset="0" stop-color="#f666b3"/><stop offset="1" stop-color="#a1264d"/></linearGradient><linearGradient id="f5be2282-57f7-48b1-8c7b-58d74a660bc9" x1="22.32" y1="-3.71" x2="27.17" y2="20.28" xlink:href="#a5005b4d-c926-45a1-88e7-ed666edec4d5"/><linearGradient id="f195dbfe-2f2d-4987-a341-66ea60f8e059" x1="23.64" y1="9.59" x2="14.2" y2="27.58" xlink:href="#b5841d38-4046-4a44-9149-3b785b8119d8"/><linearGradient id="b027e6b9-b533-4114-b40d-0c78f46bdfa8" x1="0.86" y1="-2.2" x2="8.26" y2="31.22" xlink:href="#a5005b4d-c926-45a1-88e7-ed666edec4d5"/><linearGradient id="b91194f0-54f7-4bd7-b19d-7dc156a7e8e1" x1="9.82" y1="4.16" x2="6.37" y2="28.78" gradientUnits="userSpaceOnUse"><stop offset="0" stop-color="#f666b3"/><stop offset="1" stop-color="#c03d73"/></linearGradient><linearGradient id="e5f1302b-31d6-47b4-ad8e-9de784d1ee48" x1="6.45" y1="20.63" x2="15" y2="12.72" gradientUnits="userSpaceOnUse"><stop offset="0" stop-color="#f666b3"/><stop offset="0.23" stop-color="#f86aba"/><stop offset="1" stop-color="#ff78d1"/></linearGradient><linearGradient id="f2661fda-7a23-48aa-b2e7-3b9d80e006c9" x1="30.64" y1="27.74" x2="42.12" y2="19.96" gradientTransform="translate(-7.36 29.67) rotate(-41.6)" gradientUnits="userSpaceOnUse"><stop offset="0" stop-color="#db5293"/><stop offset="1" stop-color="#ff78d1"/></linearGradient><linearGradient id="ae82d1ac-e014-4e0d-9f9a-e486316ce8c7" x1="26.07" y1="22.51" x2="40.15" y2="22.51" gradientTransform="translate(-6.59 27.66) rotate(-41.6)" xlink:href="#a5005b4d-c926-45a1-88e7-ed666edec4d5"/><linearGradient id="ae6dc994-9e6f-4741-9ed9-f22d1fc3036f" x1="42.58" y1="19.09" x2="41.82" y2="23.3" gradientUnits="userSpaceOnUse"><stop offset="0" stop-color="#ffddf1"/><stop offset="1" stop-color="#ffc4e6"/></linearGradient><linearGradient id="bd7dfb75-6d3d-4ea0-9f7c-9dab121bd1a7" x1="37.25" y1="12.08" x2="32.41" y2="23.56" gradientTransform="translate(-5.65 14.79) rotate(-23.08)" xlink:href="#ae6dc994-9e6f-4741-9ed9-f22d1fc3036f"/><linearGradient id="e129257f-5fa6-44a9-966a-dfcf801c6c0a" x1="36.04" y1="7.09" x2="30.68" y2="19.84" gradientTransform="translate(-5.41 13.6) rotate(-23.08)" xlink:href="#a5005b4d-c926-45a1-88e7-ed666edec4d5"/><linearGradient id="a5e5e86e-45bc-468e-9ed2-1a1fef4ae13a" x1="36.76" y1="24.63" x2="38.68" y2="18.51" gradientTransform="matrix(1, 0, 0, 1, 0, 0)" xlink:href="#f2661fda-7a23-48aa-b2e7-3b9d80e006c9"/><linearGradient id="b0977dc0-3aa2-4ce0-9fbc-db53f8b2f4d6" x1="12.39" y1="30.67" x2="35.1" y2="30.8" xlink:href="#b91194f0-54f7-4bd7-b19d-7dc156a7e8e1"/><linearGradient id="f7458d29-3d91-44e4-ad2a-4ad6ab2e06eb" x1="28.18" y1="30.86" x2="44" y2="30.35" xlink:href="#b91194f0-54f7-4bd7-b19d-7dc156a7e8e1"/></defs><title>sales</title><g id="ecdd2e89-de49-4f46-aab8-974f2070a1d5" data-name="Layer 2"><g id="b768104d-1696-43ea-a188-015f3ce81542" data-name="icons"><g id="ba07b2e5-c5e5-44d1-b753-3568cad09953" data-name="sales"><rect class="a6ea49bf-46f2-4075-88ce-c584db5bfee6" width="47.95" height="47.95"/><path class="ba86c25f-4f7c-45de-bce6-4709875c6ba9" d="M22.68,29.47a7.5,7.5,0,0,1-5.31,2.21v7A14.4,14.4,0,0,0,27.61,34.4Z"/><path class="ef6329b4-e2d2-43ab-ab85-b0d4a81507fb" d="M17.37,31.68v7A14.43,14.43,0,0,1,7.12,34.4l4.93-4.93A7.5,7.5,0,0,0,17.37,31.68Z"/><path class="f687d8a4-1d31-4339-b623-bed3460d5212" d="M31.86,24.16A14.44,14.44,0,0,1,27.61,34.4l-4.93-4.93a7.49,7.49,0,0,0,2.2-5.31Z"/><path class="f5e8ee5b-8475-4bb3-9cb2-429adda68a0c" d="M31.86,24.16h-7a7.53,7.53,0,0,0-2.2-5.32l4.93-4.93A14.47,14.47,0,0,1,31.86,24.16Z"/><path class="ecfbfdc6-b9ef-4f25-957d-c928cdb02c65" d="M27.61,13.91l-4.93,4.93a7.49,7.49,0,0,0-5.31-2.2v-7A14.43,14.43,0,0,1,27.61,13.91Z"/><path class="fd518ae2-4215-43ab-83ee-80cbf33ba471" d="M12.05,29.47,7.12,34.4A14.43,14.43,0,0,1,2.88,24.16h7A7.49,7.49,0,0,0,12.05,29.47Z"/><path class="e9b02423-ad4e-4259-9f77-0b5d889d6325" d="M12.05,18.84a7.53,7.53,0,0,0-2.2,5.32h-7A14.46,14.46,0,0,1,7.12,13.91Z"/><path class="e6519da7-e148-4646-b7bf-5a385dfe957b" d="M17.37,9.67v7a7.5,7.5,0,0,0-5.32,2.2L7.12,13.91A14.46,14.46,0,0,1,17.37,9.67Z"/><rect class="b5039ff3-32a7-440a-8055-71a85869d263" x="28.61" y="15.66" width="13.54" height="17.73" rx="1.04" transform="translate(25.2 -17.31) rotate(41.6)"/><rect class="aad3b86e-f067-4cca-84c1-5e4e24b50526" x="31.57" y="13.65" width="3.09" height="17.73" transform="translate(23.29 -16.31) rotate(41.6)"/><circle class="b92c665a-ac95-47b3-b77f-d3788781f702" cx="41.86" cy="23.08" r="1.69"/><circle class="edb85976-9b57-4fcc-b890-7a7ae30f5860" cx="40.73" cy="24.35" r="1.69"/><rect class="ae3ec5a6-a7e9-4867-a641-7ca41196addf" x="26.62" y="12.37" width="13.54" height="17.73" rx="1.04" transform="translate(10.99 -11.39) rotate(23.08)"/><rect class="b5cf8fec-321d-4796-9ac9-683571d56f0e" x="29.05" y="11.18" width="3.09" height="17.73" transform="translate(10.3 -10.39) rotate(23.08)"/><circle class="edb85976-9b57-4fcc-b890-7a7ae30f5860" cx="39.07" cy="17.81" r="1.69"/><circle class="a0271e78-5c24-437b-8c8e-8780b245ffba" cx="38.41" cy="19.36" r="1.69"/><rect class="f5937491-767d-49cf-8d8d-c1c969f417a0" x="9" y="20.23" width="28.53" height="21.01" rx="2.24"/><rect class="f067af73-4d60-4f04-b6b2-c0db81543f17" x="24.15" y="27.28" width="16.27" height="6.9" rx="3.45"/><circle class="edb85976-9b57-4fcc-b890-7a7ae30f5860" cx="29.6" cy="30.73" r="1.96"/></g></g></g></svg>