<svg xmlns="http://www.w3.org/2000/svg" xmlns:xlink="http://www.w3.org/1999/xlink" viewBox="0 0 89.69 68.4"><defs><style>.bac0b37a-5838-4be8-bddb-233a39b01477{fill:#fff;}.a9b8a864-4d6f-4f6c-9cc8-8c1f968acae0{fill:#fce978;}.a6c52e79-b9f5-4ba1-8525-cef27dac0b33{fill:url(#ba0eda5e-0272-4e9e-9f6d-38018007908c);}.a5bbb239-0d8e-44c3-91ba-73eda407deda{fill:#faf6e0;}.e0b37938-b457-40a5-9044-d0c105a50d95{fill:url(#abb2323f-2fc3-4966-a998-c056d6fe25f5);}.b9d01b16-5947-4051-b3bb-9fa0f04910c1{fill:url(#f8a395df-00e9-4f64-8ec2-7ef1e750fd66);}.aad44be6-011b-4e11-a47b-7eda230d6dba{fill:url(#b208d6cd-f993-42bd-850a-416753d7b6d8);}.b722eee9-37b8-4198-a84f-3db6789edc14{fill:url(#b3bfc7dd-f571-4db0-b9c4-3e398af8dfed);}.aa0d8e56-53d7-4646-86aa-76330d7dd0b0{fill:url(#b57ad515-8292-4b21-ae95-b4c1fbb21056);}.a53bdad2-0056-45b8-8fdb-91aa206ece39{fill:url(#b43c3898-5dd9-482a-815d-20dcc1deadfe);}.ffadafa6-a209-465a-b08a-7816a1cfc099{fill:#f6dc6a;}.a14d1dd7-7173-488f-b049-278b92f5c852{fill:url(#fd60523d-08b8-4634-b531-36b7f1a7d447);}.a09f95e7-0e72-4a79-bb69-b0f1df7a382b{fill:#bf3d73;}.e9286973-c799-4b0d-8f45-a5cd0ee1b686{fill:url(#a41a177c-7bc4-4d92-87a9-7514633c3443);}.b2cff19c-0392-49c8-98b4-ff0b306d80cb{fill:url(#aef89dfd-2aec-4030-b790-08591bf4945e);}.fba34ebe-11da-44d5-b75f-dc250686e9f2{fill:url(#f7fb7c3d-65bc-49ac-93ee-0665e77b45bb);}.bfa40c2f-ae01-4d9a-a80d-663b4b4cf1fa{fill:url(#bc2d1203-1123-4750-b085-9990743297fe);}.fd117e15-57d5-436d-a2cb-047f0cdac26f{fill:url(#b64390f3-e377-4702-9950-576d28c06dab);}</style><linearGradient id="ba0eda5e-0272-4e9e-9f6d-38018007908c" x1="3.03" y1="-27.36" x2="19.06" y2="45.06" gradientUnits="userSpaceOnUse"><stop offset="0" stop-color="#ea69a6"/><stop offset="1" stop-color="#a1254d"/></linearGradient><linearGradient id="abb2323f-2fc3-4966-a998-c056d6fe25f5" x1="42.13" y1="-28.98" x2="52.63" y2="22.98" xlink:href="#ba0eda5e-0272-4e9e-9f6d-38018007908c"/><linearGradient id="f8a395df-00e9-4f64-8ec2-7ef1e750fd66" x1="44.99" y1="-0.16" x2="24.54" y2="38.81" gradientUnits="userSpaceOnUse"><stop offset="0" stop-color="#e992bd"/><stop offset="1" stop-color="#e47fb2"/></linearGradient><linearGradient id="b208d6cd-f993-42bd-850a-416753d7b6d8" x1="-4.36" y1="-25.72" x2="11.67" y2="46.69" xlink:href="#ba0eda5e-0272-4e9e-9f6d-38018007908c"/><linearGradient id="b3bfc7dd-f571-4db0-b9c4-3e398af8dfed" x1="15.04" y1="-11.93" x2="7.58" y2="41.41" gradientUnits="userSpaceOnUse"><stop offset="0" stop-color="#ea69a6"/><stop offset="1" stop-color="#bf3d73"/></linearGradient><linearGradient id="b57ad515-8292-4b21-ae95-b4c1fbb21056" x1="7.74" y1="23.75" x2="26.26" y2="6.61" gradientUnits="userSpaceOnUse"><stop offset="0" stop-color="#ea69a6"/><stop offset="0.23" stop-color="#e96ea9"/><stop offset="1" stop-color="#e47fb2"/></linearGradient><linearGradient id="b43c3898-5dd9-482a-815d-20dcc1deadfe" x1="61.02" y1="38.57" x2="83.78" y2="23.14" gradientTransform="translate(-3.61 54.88) rotate(-41.6)" gradientUnits="userSpaceOnUse"><stop offset="0" stop-color="#da5393"/><stop offset="1" stop-color="#e47fb2"/></linearGradient><linearGradient id="fd60523d-08b8-4634-b531-36b7f1a7d447" x1="86.03" y1="20.42" x2="84.37" y2="29.54" gradientUnits="userSpaceOnUse"><stop offset="0" stop-color="#fadce9"/><stop offset="1" stop-color="#f8c4da"/></linearGradient><linearGradient id="a41a177c-7bc4-4d92-87a9-7514633c3443" x1="74.47" y1="5.25" x2="63.99" y2="30.09" gradientTransform="translate(-4.53 27.92) rotate(-23.08)" xlink:href="#fd60523d-08b8-4634-b531-36b7f1a7d447"/><linearGradient id="aef89dfd-2aec-4030-b790-08591bf4945e" x1="71.85" y1="-5.59" x2="60.24" y2="22.05" gradientTransform="translate(-4 25.34) rotate(-23.08)" xlink:href="#ba0eda5e-0272-4e9e-9f6d-38018007908c"/><linearGradient id="f7fb7c3d-65bc-49ac-93ee-0665e77b45bb" x1="73.42" y1="32.42" x2="77.57" y2="19.15" gradientTransform="matrix(1, 0, 0, 1, 0, 0)" xlink:href="#b43c3898-5dd9-482a-815d-20dcc1deadfe"/><linearGradient id="bc2d1203-1123-4750-b085-9990743297fe" x1="20.69" y1="45.5" x2="69.73" y2="45.78" xlink:href="#b3bfc7dd-f571-4db0-b9c4-3e398af8dfed"/><linearGradient id="b64390f3-e377-4702-9950-576d28c06dab" x1="54.83" y1="45.92" x2="89.1" y2="44.82" xlink:href="#b3bfc7dd-f571-4db0-b9c4-3e398af8dfed"/></defs><title>Sales</title><g id="b4e13e15-0ca9-4445-9761-11a14652e72b" data-name="Layer 2"><g id="bb733ca9-d605-45d6-aa72-4c06114f2253" data-name="icons"><path class="bac0b37a-5838-4be8-bddb-233a39b01477" d="M79.57,48.35A5.67,5.67,0,0,1,75,50.89a5.51,5.51,0,0,1-4.12-2A16.94,16.94,0,0,0,69.93,44a4.36,4.36,0,0,1,8.29-2.73A26.65,26.65,0,0,1,79.57,48.35Z"/><path class="a9b8a864-4d6f-4f6c-9cc8-8c1f968acae0" d="M42.91,42.91a16.24,16.24,0,0,1-11.52,4.78v15.1a31.26,31.26,0,0,0,22.2-9.2Z"/><path class="a6c52e79-b9f5-4ba1-8525-cef27dac0b33" d="M31.39,47.69v15.1A31.26,31.26,0,0,1,9.2,53.59L19.88,42.91A16.24,16.24,0,0,0,31.39,47.69Z"/><path class="a5bbb239-0d8e-44c3-91ba-73eda407deda" d="M62.79,31.39a31.26,31.26,0,0,1-9.2,22.2L42.91,42.91a16.24,16.24,0,0,0,4.78-11.52Z"/><path class="e0b37938-b457-40a5-9044-d0c105a50d95" d="M62.79,31.39H47.69a16.24,16.24,0,0,0-4.78-11.51L53.59,9.2A31.26,31.26,0,0,1,62.79,31.39Z"/><path class="b9d01b16-5947-4051-b3bb-9fa0f04910c1" d="M53.59,9.2,42.91,19.88A16.24,16.24,0,0,0,31.39,15.1V0A31.26,31.26,0,0,1,53.59,9.2Z"/><path class="aad44be6-011b-4e11-a47b-7eda230d6dba" d="M19.88,42.91,9.2,53.59A31.26,31.26,0,0,1,0,31.39H15.1A16.24,16.24,0,0,0,19.88,42.91Z"/><path class="b722eee9-37b8-4198-a84f-3db6789edc14" d="M19.88,19.88A16.24,16.24,0,0,0,15.1,31.39H0A31.26,31.26,0,0,1,9.2,9.2Z"/><path class="aa0d8e56-53d7-4646-86aa-76330d7dd0b0" d="M31.39,0V15.1a16.24,16.24,0,0,0-11.51,4.78L9.2,9.2A31.26,31.26,0,0,1,31.39,0Z"/><rect class="a53bdad2-0056-45b8-8fdb-91aa206ece39" x="55.76" y="12.99" width="29.34" height="38.41" rx="10.84" transform="translate(39.13 -38.64) rotate(41.6)"/><rect class="ffadafa6-a209-465a-b08a-7816a1cfc099" x="62.16" y="8.62" width="6.69" height="38.41" transform="translate(34.99 -36.47) rotate(41.6)"/><circle class="a14d1dd7-7173-488f-b049-278b92f5c852" cx="84.46" cy="29.06" r="3.67"/><circle class="a09f95e7-0e72-4a79-bb69-b0f1df7a382b" cx="82.02" cy="31.81" r="3.67"/><rect class="e9286973-c799-4b0d-8f45-a5cd0ee1b686" x="51.44" y="5.85" width="29.34" height="38.41" rx="10.84" transform="translate(15.11 -23.91) rotate(23.08)"/><rect class="b2cff19c-0392-49c8-98b4-ff0b306d80cb" x="56.72" y="3.27" width="6.69" height="38.41" transform="translate(13.62 -21.74) rotate(23.08)"/><circle class="a09f95e7-0e72-4a79-bb69-b0f1df7a382b" cx="78.42" cy="17.63" r="3.67"/><circle class="fba34ebe-11da-44d5-b75f-dc250686e9f2" cx="76.99" cy="21.01" r="3.67"/><rect class="bfa40c2f-ae01-4d9a-a80d-663b4b4cf1fa" x="13.28" y="22.87" width="61.82" height="45.53" rx="22.76"/><rect class="fd117e15-57d5-436d-a2cb-047f0cdac26f" x="46.08" y="38.16" width="35.26" height="14.95" rx="7.48"/><circle class="a09f95e7-0e72-4a79-bb69-b0f1df7a382b" cx="57.91" cy="45.64" r="4.24"/></g></g></svg>