<svg width="183" height="263" viewBox="0 0 183 263" fill="none" xmlns="http://www.w3.org/2000/svg">
<g clip-path="url(#clip0_1346_16572)">
<path d="M119.865 39.4254L118.169 37.5999C118.169 37.5999 114.446 35.5613 113.59 33.852L108.215 30.4584C108.215 30.4584 106.197 28.7181 105.876 27.8022C105.673 27.2282 105.648 26.7068 105.816 26.3574C106.151 25.6415 107.252 25.6355 109.175 27.3434C109.221 27.3267 109.335 27.3495 109.384 27.3012C111.256 29.3253 113.944 30.0333 116.116 31.7285C115.954 31.8929 115.928 32.0875 116.065 32.0447L116.205 31.7998C117.37 33.3215 118.839 33.2381 119.644 35.0029C119.644 35.0029 119.698 34.582 119.705 34.5845C124.282 38.0547 130.847 42.2542 135.648 46.2328L135.601 46.2495L135.586 46.2932C134.954 46.1908 132.47 44.934 132.47 44.934C133.362 47.25 136.101 47.4542 137.861 48.7808L138.056 48.473C137.274 47.9286 136.682 47.3029 136.492 46.9774C139.568 48.5507 145.2 52.4554 147.542 54.8193C147.309 55.0002 146.835 53.9102 146.105 54.4987C146.783 54.9912 147.385 55.5878 148.039 56.0313C148.381 55.5542 147.895 55.453 147.879 55.3091C149.367 55.5741 172.42 71.1607 165.559 69.3507L165.522 69.6963C164.05 68.8103 162.829 68.0749 161.033 67.5176C160.852 67.3335 160.8 67.3648 160.975 67.1153C160.944 67.0396 160.909 66.9053 161.004 66.816C161.447 66.2349 160.827 66.1448 160.638 65.9825C159.548 68.0272 155.986 62.9501 155.302 62.5697C154.545 63.3772 154.03 61.7194 153.383 61.8239C153.39 61.8751 153.42 62.1944 153.409 62.2479C152.664 62.5709 148.16 56.9846 148.986 59.2368C141 56.3828 130.56 45.5425 122.209 42.067L122.339 41.9974C122.261 41.987 122.116 41.8154 121.986 41.9094C121.533 41.046 119.857 39.4472 119.857 39.4472L119.865 39.4254ZM137.096 50.0901C137.096 50.0901 137.078 50.1411 137.059 50.1507C137.13 50.0611 138.009 50.7768 138.057 50.7772L138.26 50.4719C137.738 49.2353 134.142 49.7307 136.812 50.3022C136.828 50.4216 137.008 50.1819 137.089 50.0876L137.096 50.0901ZM145.317 55.8979C145.499 55.9846 145.686 56.081 145.899 56.1948C144.442 53.7428 140.747 52.8613 138.72 50.7678C138.579 52.6567 140.977 53.3064 142.029 53.9431C142.828 54.965 144.28 55.4538 145.319 55.8906L145.317 55.8979ZM159.174 65.4327L159.07 65.5927L159.143 65.642C159.173 65.6032 159.2 65.5474 159.195 65.5133C159.208 65.4768 159.198 65.4329 159.176 65.4254L159.174 65.4327ZM121.481 39.5306C121.466 39.8837 122.158 40.1692 122.098 39.4161C121.94 39.4271 121.804 38.99 121.481 39.5306ZM147.964 57.251C147.616 57.7427 148.322 58.3913 148.805 57.718C148.548 57.5162 148.252 57.3824 147.964 57.251ZM116.028 34.8893C116.191 34.2208 115.838 34.8488 115.541 35.1217C115.644 35.0836 115.852 35.1875 115.984 34.923L116.028 34.8893ZM112.602 31.9834C112.726 31.6921 112.636 31.3845 112.548 31.3059C112.161 31.3199 112.33 32.1347 112.602 31.9834ZM106.622 27.6668C106.819 27.376 106.743 27.1708 106.5 27.4295C106.366 27.6526 106.42 27.9477 106.683 27.6307C106.678 27.6453 106.646 27.667 106.622 27.6668ZM152.331 58.7613C152.733 57.7513 151.519 57.9463 151.301 57.4404C150.785 58.3546 151.916 58.2125 152.104 58.5696C152.21 58.6386 152.285 58.7049 152.331 58.7613ZM128.524 42.1434C129.075 41.3878 127.84 41.4293 127.695 41.0701L127.485 41.3729C127.826 41.7336 127.923 42.0924 128.502 42.1359L128.524 42.1434ZM145.232 53.3374C145.299 52.9287 144.84 53.0323 144.69 52.9239C144.389 53.3502 144.994 53.8908 145.232 53.3374ZM138.505 48.7323C138.141 49.1776 138.63 49.1741 138.688 49.2915C138.689 49.1454 138.775 48.7758 138.695 48.724C138.632 48.6943 138.585 48.7354 138.505 48.7323ZM128.613 42.6458C128.908 42.8771 129.254 43.1015 129.582 43.3111L129.784 43.0058C129.462 42.7816 129.139 42.5574 128.822 42.343L128.62 42.6483L128.613 42.6458ZM132.06 44.3949L132.267 44.0994C132.018 43.4934 131.428 44.2195 132.045 44.3899L132.06 44.3949ZM124.841 39.4426C124.899 39.4625 124.986 39.4924 125.032 39.5244C125.654 40.014 125.522 38.2837 124.841 39.4426ZM121.681 36.758C121.647 36.6652 121.624 36.5189 121.546 36.4842C121.066 36.1978 121.056 37.2768 121.681 36.758Z" fill="white"/>
<path d="M124.455 60.6375L122.632 62.3257C122.632 62.3257 120.593 66.0484 118.884 66.9045L115.49 72.2801C115.49 72.2801 113.75 74.2978 112.834 74.6194C112.26 74.8219 111.739 74.847 111.389 74.6787C110.673 74.3442 110.667 73.2433 112.375 71.3204C112.359 71.2739 112.381 71.1597 112.333 71.1106C114.357 69.2388 115.065 66.5506 116.76 64.3791C116.925 64.5412 117.119 64.567 117.077 64.4303L116.832 64.2896C118.353 63.1251 118.277 61.6582 120.042 60.8537C120.042 60.8537 119.621 60.7993 119.624 60.792C123.094 56.2159 127.293 49.6507 131.272 44.8496L131.289 44.896L131.332 44.911C131.23 45.5434 129.973 48.0277 129.973 48.0277C132.289 47.1349 132.493 44.3964 133.82 42.6361L133.512 42.4413C132.968 43.2237 132.342 43.8156 132.017 44.0054C133.59 40.9294 137.495 35.2972 139.858 32.9556C140.032 33.1859 138.949 33.6621 139.538 34.3926C140.03 33.7144 140.627 33.1126 141.07 32.4585C140.593 32.1162 140.492 32.6025 140.348 32.6185C140.613 31.1299 156.2 8.07718 154.39 14.9388L154.735 14.9756C153.849 16.4471 153.114 17.6689 152.557 19.4644C152.373 19.6457 152.404 19.6971 152.154 19.5222C152.079 19.5533 151.944 19.5887 151.855 19.493C151.274 19.0501 151.184 19.6704 151.022 19.8591C153.066 20.9493 147.989 24.5118 147.609 25.1956C148.416 25.9522 146.758 26.4677 146.863 27.1139C146.914 27.107 147.233 27.0779 147.287 27.088C147.61 27.8334 142.024 32.3369 144.276 31.5119C141.422 39.4979 130.582 49.9371 127.106 58.2885L127.036 58.1588C127.026 58.2367 126.854 58.3815 126.948 58.5113C126.085 58.9649 124.486 60.6402 124.486 60.6402L124.455 60.6375ZM135.119 43.4063C135.119 43.4063 135.17 43.4237 135.18 43.4433C135.09 43.372 135.806 42.4934 135.806 42.4447L135.501 42.2426C134.265 42.7639 134.76 46.3603 135.331 43.6905C135.451 43.6744 135.211 43.4947 135.117 43.4136L135.119 43.4063ZM140.927 35.1853C141.014 35.0033 141.11 34.8165 141.224 34.6031C138.772 36.0598 137.891 39.7551 135.797 41.7822C137.686 41.9236 138.336 39.5248 138.972 38.4727C139.994 37.6745 140.483 36.2218 140.92 35.1828L140.927 35.1853ZM150.462 21.3283L150.622 21.4319L150.671 21.3592C150.633 21.3297 150.577 21.3024 150.543 21.307C150.506 21.2946 150.462 21.304 150.455 21.3258L150.462 21.3283ZM124.56 59.0211C124.913 59.036 125.199 58.3441 124.445 58.404C124.456 58.5624 124.019 58.6978 124.56 59.0211ZM142.28 32.5387C142.772 32.8859 143.421 32.1798 142.747 31.6971C142.546 31.9537 142.412 32.2498 142.28 32.5387ZM119.919 64.4746C119.25 64.311 119.878 64.6642 120.151 64.9611C120.113 64.8585 120.217 64.6498 119.952 64.5187L119.919 64.4746ZM117.013 67.9006C116.721 67.7765 116.414 67.8667 116.335 67.9537C116.349 68.3411 117.164 68.1722 117.013 67.9006ZM112.696 73.8803C112.405 73.6832 112.2 73.7595 112.459 74.0027C112.682 74.1359 112.977 74.0822 112.66 73.8191C112.675 73.8241 112.696 73.856 112.696 73.8803ZM143.795 28.181C142.785 27.7785 142.98 28.993 142.475 29.2106C143.389 29.7269 143.247 28.5956 143.604 28.4084C143.673 28.3018 143.739 28.2268 143.795 28.181ZM127.178 51.988C126.422 51.4365 126.463 52.6717 126.104 52.8174L126.407 53.0268C126.768 52.6862 127.127 52.5892 127.17 52.0099L127.175 51.9953L127.178 51.988ZM138.372 35.2797C137.963 35.2132 138.066 35.6719 137.958 35.822C138.384 36.1225 138.925 35.5179 138.372 35.2797ZM133.766 42.0073C134.212 42.3713 134.208 41.8817 134.326 41.8242C134.179 41.823 133.81 41.7373 133.758 41.8173C133.728 41.8804 133.769 41.927 133.766 42.0073ZM127.68 51.8994C127.911 51.6041 128.136 51.2575 128.345 50.9304L128.04 50.7282C127.816 51.0504 127.592 51.3726 127.377 51.69L127.682 51.8921L127.68 51.8994ZM129.429 48.4521L129.134 48.2452C128.528 48.4937 129.254 49.084 129.424 48.4667L129.429 48.4521ZM124.477 55.6714C124.497 55.6131 124.527 55.5257 124.559 55.4796C125.048 54.8575 123.318 54.9901 124.477 55.6714ZM121.792 58.8313C121.699 58.8646 121.553 58.8878 121.518 58.9655C121.232 59.4455 122.311 59.4564 121.792 58.8313Z" fill="white"/>
<path d="M118.975 50.4998L116.491 50.4072C116.491 50.4072 112.414 51.593 110.597 50.9795L104.393 52.3654C104.393 52.3654 101.739 52.5564 100.858 52.133C100.312 51.873 99.9226 51.5119 99.7939 51.1504C99.527 50.4079 100.305 49.6321 102.866 49.4745C102.884 49.4234 102.986 49.3609 102.985 49.2951C105.738 49.4069 108.144 48.0156 110.879 47.6814C110.882 47.9104 110.998 48.0721 111.067 47.9411L110.989 47.6701C112.889 47.9213 113.869 46.8403 115.681 47.517C115.681 47.517 115.423 47.1764 115.43 47.1789C121.121 46.415 128.738 44.7553 134.941 44.1829L134.924 44.2339L134.936 44.2705C134.409 44.6439 131.762 45.5048 131.762 45.5048C134.029 46.5164 136.116 44.7231 138.296 44.4187L138.223 44.0601C137.287 44.2281 136.425 44.2019 136.067 44.1041C139.352 43.046 146.105 41.8398 149.427 41.8611C149.386 42.1482 148.289 41.7157 148.184 42.6404C149.011 42.5081 149.858 42.505 150.639 42.365C150.544 41.787 150.125 42.059 150.019 41.9656C151.258 41.1034 178.595 35.8842 172.454 39.4407L172.671 39.7103C170.999 40.1234 169.613 40.4633 167.947 41.3343C167.689 41.3274 167.674 41.3955 167.623 41.0931C167.545 41.0584 167.422 40.9916 167.435 40.8578C167.341 40.1337 166.838 40.5072 166.587 40.5272C167.262 42.7441 161.152 41.6633 160.395 41.8766C160.423 42.985 158.895 42.1693 158.511 42.6972C158.547 42.734 158.794 42.9406 158.83 42.9774C158.529 43.7374 151.399 42.9507 153.569 43.9615C145.895 47.5717 130.852 47.2611 122.476 50.688L122.523 50.5496C122.457 50.6002 122.231 50.5716 122.208 50.7346C121.275 50.4399 118.968 50.4973 118.968 50.4973L118.975 50.4998ZM138.711 45.8956C138.711 45.8956 138.732 45.9517 138.727 45.9663C138.708 45.8541 139.84 45.7364 139.876 45.7001L139.811 45.344C138.568 44.8374 136.368 47.7234 138.664 46.2459C138.761 46.3198 138.717 46.0198 138.711 45.8956ZM148.635 44.2028C148.82 44.1361 149.03 44.0695 149.255 44.008C146.493 43.2994 143.251 45.2833 140.338 45.2312C141.571 46.6706 143.727 45.4381 144.925 45.1479C146.212 45.3115 147.586 44.6257 148.632 44.2101L148.635 44.2028ZM165.184 41.1787L165.227 41.3641L165.314 41.3453C165.307 41.2941 165.286 41.2379 165.262 41.2134C165.243 41.1743 165.201 41.152 165.187 41.1714L165.184 41.1787ZM120.199 49.4206C120.443 49.6832 121.127 49.3963 120.556 48.8998C120.45 49.0183 120.053 48.8008 120.199 49.4206ZM151.469 43.2922C151.57 43.88 152.532 43.851 152.397 43.0316C152.073 43.0753 151.767 43.1825 151.469 43.2922ZM113.065 49.9759C112.714 49.3838 112.899 50.0818 112.883 50.4836C112.933 50.3865 113.155 50.3079 113.055 50.0294L113.075 49.9712L113.065 49.9759ZM108.586 50.3402C108.469 50.0397 108.187 49.8865 108.07 49.8953C107.803 50.1782 108.501 50.6367 108.586 50.3402ZM101.301 51.5032C101.233 51.1544 101.037 51.0627 101.053 51.4185C101.112 51.6747 101.364 51.8423 101.326 51.4304C101.321 51.4449 101.326 51.4791 101.304 51.4959L101.301 51.5032ZM155.623 41.2862C155.19 40.2915 154.476 41.2845 153.962 41.0759C154.241 42.0913 154.94 41.1907 155.321 41.3131C155.443 41.2897 155.543 41.2832 155.623 41.2862ZM127.026 46.3104C126.885 45.391 126.035 46.2807 125.678 46.1342L125.743 46.4903C126.235 46.5039 126.563 46.6891 127.002 46.3102L127.016 46.3152L127.026 46.3104ZM146.765 42.4564C146.522 42.1208 146.273 42.5158 146.085 42.5412C146.176 43.0607 146.983 43.011 146.768 42.4491L146.765 42.4564ZM138.745 43.9376C138.802 44.5104 139.148 44.1648 139.272 44.2072C139.168 44.1065 138.971 43.7786 138.873 43.8022C138.81 43.8212 138.802 43.8917 138.743 43.9449L138.745 43.9376ZM127.438 46.6059C127.813 46.5552 128.213 46.4805 128.591 46.3982L128.519 46.0396C128.128 46.1096 127.745 46.1821 127.365 46.2473L127.438 46.6059ZM131.11 45.412L131.047 45.0486C130.44 44.8003 130.538 45.7291 131.096 45.4071L131.11 45.412ZM122.5 47.0006C122.549 46.9767 122.639 46.9262 122.691 46.9193C123.478 46.8305 122.164 45.6974 122.5 47.0006ZM118.367 47.3286C118.282 47.2914 118.158 47.2003 118.075 47.2289C117.533 47.3611 118.287 48.1318 118.367 47.3286Z" fill="white"/>
<path d="M144.513 62.4284L144.859 64.8911C144.859 64.8911 146.748 68.6958 146.475 70.5886L148.948 76.4487C148.948 76.4487 149.612 79.0284 149.346 79.9714C149.186 80.5595 148.905 81.0006 148.569 81.1953C147.889 81.5894 146.978 80.9684 146.377 78.4672C146.326 78.4497 146.246 78.3736 146.178 78.3828C145.802 75.6495 143.995 73.5333 143.177 70.9013C143.404 70.8568 143.537 70.7068 143.401 70.6765L143.147 70.8012C143.062 68.8837 141.811 68.1139 142.162 66.2071C142.162 66.2071 141.875 66.5239 141.877 66.5166C140.108 61.0518 137.122 53.8602 135.45 47.8505L135.501 47.8679L135.535 47.839C135.992 48.2883 137.32 50.7368 137.317 50.7441C137.913 48.335 135.772 46.6011 135.086 44.5108L134.747 44.647C135.076 45.541 135.208 46.3921 135.178 46.7645C133.551 43.7169 131.159 37.2899 130.585 34.0168C130.875 34.002 130.642 35.1595 131.575 35.0962C131.301 34.3025 131.147 33.4683 130.863 32.728C130.306 32.9283 130.654 33.2915 130.58 33.4127C129.512 32.3472 119.493 6.38 124.091 11.7867L124.319 11.523C125.021 13.0898 125.607 14.3975 126.762 15.8752C126.807 16.1265 126.867 16.1391 126.582 16.2367C126.554 16.3169 126.509 16.4481 126.387 16.4715C125.692 16.6974 126.148 17.1223 126.212 17.364C128.276 16.3036 128.303 22.5074 128.648 23.2116C129.729 22.979 129.202 24.6384 129.789 24.9207C129.821 24.8746 129.975 24.5933 130.004 24.5546C130.804 24.7143 131.303 31.8693 131.916 29.5554C136.84 36.4577 139.22 51.3217 144.078 58.942L143.929 58.9238C143.992 58.9779 144.005 59.2021 144.171 59.1936C144.051 60.1621 144.513 62.4284 144.513 62.4284ZM136.466 43.8348C136.466 43.8348 136.514 43.8108 136.531 43.8085C136.422 43.8442 136.111 42.753 136.065 42.721L135.728 42.8498C135.45 44.1629 138.679 45.8129 136.821 43.8181C136.876 43.7065 136.587 43.8114 136.466 43.8348ZM133.035 34.3746C132.939 34.2033 132.833 34.0125 132.728 33.7973C132.528 36.643 135.058 39.4785 135.522 42.3562C136.725 40.8872 135.12 38.987 134.62 37.8554C134.55 36.5615 133.636 35.3292 133.035 34.3746ZM127.106 18.6302L127.284 18.561L127.256 18.478C127.202 18.4921 127.158 18.5259 127.141 18.5526C127.106 18.5815 127.094 18.618 127.113 18.6327L127.106 18.6302ZM143.232 61.4124C143.451 61.1292 143.04 60.5 142.662 61.1522C142.795 61.2385 142.656 61.6709 143.232 61.4124ZM131.616 31.7402C132.183 31.5352 131.976 30.5934 131.187 30.8771C131.284 31.1872 131.448 31.471 131.616 31.7402ZM145.056 68.3367C144.541 68.7954 145.186 68.479 145.589 68.4212C145.487 68.3863 145.369 68.1833 145.114 68.3323L145.056 68.3367ZM146.208 72.6788C145.939 72.8471 145.834 73.1532 145.86 73.2679C146.187 73.4775 146.515 72.7104 146.208 72.6788ZM148.652 79.6444C148.322 79.7758 148.27 79.9775 148.619 79.9096C148.858 79.8044 148.984 79.5301 148.586 79.6463C148.604 79.644 148.638 79.6394 148.657 79.6542L148.652 79.6444ZM128.913 28.007C128.007 28.6088 129.111 29.1412 128.999 29.681C129.943 29.2305 128.936 28.699 128.983 28.2999C128.943 28.1802 128.91 28.0874 128.903 28.0118L128.913 28.007ZM138.958 55.2532C138.078 55.5629 139.111 56.2335 139.022 56.6103L139.367 56.484C139.298 55.9963 139.42 55.6392 138.965 55.28L138.955 55.2605L138.958 55.2532ZM131.642 36.5192C131.359 36.8214 131.789 36.9928 131.851 37.1687C132.345 36.9875 132.156 36.2066 131.642 36.5192ZM134.534 44.1508C135.083 43.9968 134.684 43.7136 134.702 43.5895C134.62 43.7082 134.336 43.969 134.372 44.0546C134.4 44.1133 134.469 44.1041 134.532 44.1581L134.534 44.1508ZM139.178 54.7994C139.064 54.4429 138.918 54.0594 138.765 53.6977L138.426 53.8339C138.559 54.2052 138.702 54.5716 138.838 54.9356L139.178 54.7994ZM137.346 51.3971L137.002 51.5235C136.865 52.1605 137.766 51.907 137.349 51.4141L137.351 51.4069L137.346 51.3971ZM140.446 59.5881C140.412 59.544 140.349 59.4656 140.335 59.4119C140.105 58.6575 139.228 60.1485 140.446 59.5881ZM141.501 63.5958C141.471 63.6832 141.406 63.824 141.454 63.8974C141.687 64.4083 142.305 63.529 141.501 63.5958Z" fill="white"/>
</g>
<g clip-path="url(#clip1_1346_16572)">
<path d="M37.4625 226.245L37.4944 224.872C37.4944 224.872 38.4192 222.666 38.0935 221.649L39.2337 218.279C39.2337 218.279 39.4591 216.822 39.2179 216.327C39.0672 216.017 38.8531 215.793 38.6195 215.711C38.1462 215.54 37.6083 215.942 37.4148 217.35C37.385 217.36 37.3394 217.412 37.2945 217.41C37.2632 218.93 36.2636 220.208 35.9438 221.703C36.0939 221.711 36.191 221.782 36.106 221.814L35.9312 221.765C36.0257 222.819 35.2751 223.324 35.6501 224.345C35.6501 224.345 35.4409 224.192 35.4384 224.196C34.7201 227.304 33.3513 231.442 32.7443 234.841L32.7742 234.831L32.8004 234.844C33.0634 234.569 33.7256 233.14 33.7256 233.14C34.297 234.42 33.0542 235.51 32.7743 236.702L32.546 236.647C32.6901 236.136 32.7061 235.661 32.6572 235.457C31.8446 237.234 30.8015 240.908 30.6893 242.741C30.881 242.73 30.6381 242.107 31.2487 242.081C31.1328 242.533 31.0992 242.999 30.9738 243.422C30.6002 243.351 30.7927 243.131 30.738 243.066C30.1294 243.722 25.688 258.598 28.2382 255.334L28.4061 255.462C28.7369 254.557 29.0117 253.806 29.6427 252.918C29.6509 252.775 29.6895 252.769 29.4961 252.731C29.4784 252.688 29.4373 252.62 29.352 252.619C28.8844 252.542 29.1469 252.277 29.1682 252.141C30.5858 252.582 30.1138 249.186 30.2811 248.778C30.9995 248.832 30.5304 247.961 30.89 247.767C30.9089 247.79 31.0333 247.932 31.0615 247.951C31.5641 247.81 31.3285 243.858 31.9051 245.088C34.5487 240.981 34.9181 232.689 37.4695 228.193L37.3763 228.212C37.4097 228.179 37.4055 228.055 37.5095 228.046C37.3552 227.524 37.4756 226.251 37.4756 226.251L37.4625 226.245ZM33.7148 236.959C33.7148 236.959 33.7454 236.974 33.7591 236.971C33.6855 236.96 33.5691 237.577 33.5456 237.595L33.3148 237.544C33.0314 236.844 34.995 235.727 33.945 236.942C33.9891 236.997 33.7976 236.965 33.7172 236.956L33.7148 236.959ZM32.2392 242.367C32.1884 242.47 32.1394 242.578 32.085 242.703C31.7288 241.16 33.1427 239.44 33.2194 237.835C34.1082 238.56 33.2239 239.708 32.9888 240.356C33.0444 241.069 32.5504 241.804 32.2348 242.365L32.2392 242.367ZM29.6415 251.378L29.7613 251.405L29.7473 251.452C29.7161 251.447 29.6787 251.434 29.6661 251.418C29.6442 251.408 29.6297 251.387 29.6371 251.375L29.6415 251.378ZM36.7223 226.882C36.8829 227.022 36.6704 227.393 36.3726 227.062C36.4544 227.008 36.3305 226.779 36.7223 226.882ZM31.5399 243.896C31.9222 243.97 31.8604 244.496 31.3335 244.397C31.3706 244.219 31.4565 244.056 31.5399 243.896ZM37.3588 222.971C36.9891 222.756 37.4335 222.884 37.6962 222.887C37.6298 222.909 37.5735 223.029 37.3949 222.968L37.3588 222.971ZM37.763 220.517C37.5762 220.443 37.4865 220.283 37.4947 220.219C37.6891 220.083 37.9607 220.48 37.763 220.517ZM38.7963 216.546C38.5742 216.499 38.5222 216.386 38.7528 216.403C38.9144 216.446 39.0164 216.587 38.7509 216.553C38.7596 216.558 38.7845 216.555 38.7963 216.546ZM30.0722 246.121C29.438 245.853 30.1131 245.487 29.9994 245.199C30.6472 245.386 30.0355 245.743 30.0995 245.958C30.0776 246.026 30.07 246.081 30.0722 246.121ZM34.4325 230.543C33.8364 230.435 34.4549 229.998 34.3698 229.797L34.6031 229.845C34.5941 230.118 34.7027 230.301 34.4399 230.532L34.4325 230.543ZM31.1688 241.283C30.959 241.139 31.227 241.013 31.253 240.914C31.5842 240.979 31.5249 241.423 31.1688 241.283ZM32.4405 236.918C32.8107 236.968 32.5712 237.146 32.5942 237.216C32.5302 237.156 32.3281 237.035 32.3445 236.985C32.3623 236.949 32.4027 236.949 32.4405 236.918ZM34.6075 230.782C34.5644 230.986 34.4933 231.205 34.4252 231.412L34.1944 231.36C34.2537 231.15 34.313 230.939 34.3743 230.735L34.6051 230.786L34.6075 230.782ZM33.6908 232.768L33.462 232.722C33.3197 232.382 33.9219 232.463 33.6958 232.76L33.6908 232.768ZM35.0508 228.08C35.0311 228.109 35.0016 228.154 34.9931 228.184C34.9032 228.614 34.2165 227.853 35.0508 228.08ZM35.4217 225.815C35.3976 225.765 35.3454 225.696 35.368 225.653C35.4771 225.359 35.9508 225.799 35.4217 225.815Z" fill="white"/>
<path d="M44.4415 236.654L46.0606 236.679C46.0606 236.679 48.6679 237.461 49.8705 237.185L53.854 238.15C53.854 238.15 55.576 238.341 56.1609 238.137C56.5279 238.009 56.7923 237.828 56.8891 237.63C57.0919 237.23 56.6169 236.775 54.9518 236.611C54.9398 236.586 54.8791 236.547 54.8813 236.51C53.0846 236.483 51.5734 235.637 49.8066 235.367C49.797 235.494 49.7136 235.576 49.6751 235.504L49.733 235.356C48.4877 235.436 47.888 234.805 46.6807 235.122C46.6807 235.122 46.8617 234.945 46.8573 234.943C43.1836 234.335 38.2919 233.177 34.2734 232.664L34.2855 232.689L34.2707 232.711C34.5951 232.934 36.2845 233.494 36.2845 233.494C34.771 233.977 33.4829 232.926 32.0738 232.689L32.1388 232.496C32.7432 232.618 33.3043 232.632 33.5449 232.59C31.4447 231.903 27.1013 231.02 24.9355 230.926C24.9511 231.084 25.6843 230.882 25.7152 231.399C25.1814 231.301 24.6301 231.272 24.1305 231.166C24.2139 230.85 24.4742 231.013 24.5511 230.967C23.776 230.452 6.19075 226.695 10.0494 228.852L9.89741 228.994C10.9669 229.274 11.8549 229.506 12.9053 230.04C13.0734 230.047 13.0806 230.08 13.1259 229.916C13.1763 229.901 13.2569 229.866 13.2588 229.794C13.349 229.399 13.6622 229.621 13.823 229.639C13.3021 230.838 17.317 230.439 17.7988 230.58C17.7346 231.188 18.7644 230.791 18.9942 231.095C18.9663 231.111 18.7984 231.217 18.7768 231.24C18.9434 231.666 23.6142 231.466 22.1612 231.954C27.0155 234.19 36.8176 234.503 42.1327 236.661L42.1103 236.582C42.1491 236.611 42.2954 236.607 42.3061 236.695C42.9227 236.565 44.4273 236.666 44.4273 236.666L44.4415 236.654ZM31.7763 233.483C31.7763 233.483 31.7591 233.509 31.7629 233.521C31.7755 233.459 31.0462 233.36 31.0248 233.34L31.0855 233.145C31.913 232.905 33.2334 234.566 31.7966 233.678C31.7315 233.715 31.77 233.553 31.7807 233.485L31.7763 233.483ZM25.3839 232.235C25.2627 232.192 25.1347 232.151 24.9868 232.105C26.8113 231.803 28.844 232.999 30.7418 233.064C29.8849 233.816 28.5276 233.068 27.7614 232.869C26.918 232.916 26.0498 232.498 25.3863 232.231L25.3839 232.235ZM14.7328 230.037L14.7 230.139L14.6445 230.127C14.6505 230.101 14.6658 230.069 14.6844 230.058C14.6967 230.04 14.7221 230.028 14.7352 230.034L14.7328 230.037ZM43.6886 236.028C43.5235 236.163 43.0843 235.984 43.4764 235.732C43.5398 235.801 43.8111 235.696 43.6886 236.028ZM23.5771 231.643C23.4888 231.967 22.8669 231.915 22.9848 231.469C23.1942 231.5 23.3878 231.573 23.5771 231.643ZM48.3126 236.566C48.5666 236.253 48.4146 236.629 48.4108 236.851C48.3848 236.795 48.2437 236.748 48.3153 236.597L48.3126 236.566ZM51.2126 236.908C51.3004 236.75 51.489 236.674 51.5651 236.681C51.7264 236.845 51.2569 237.075 51.2126 236.908ZM55.9071 237.782C55.9629 237.594 56.0958 237.55 56.0756 237.745C56.025 237.882 55.8582 237.968 55.8981 237.744C55.8932 237.751 55.8965 237.772 55.9071 237.782ZM20.9488 230.408C21.2651 229.871 21.6975 230.442 22.0379 230.346C21.8176 230.894 21.3956 230.377 21.1407 230.431C21.0609 230.412 20.9961 230.406 20.9488 230.408ZM39.3629 234.096C39.4908 233.592 40.0069 234.115 40.2448 234.043L40.1885 234.241C39.8652 234.233 39.6487 234.325 39.376 234.103L39.3673 234.098L39.3629 234.096ZM26.6674 231.335C26.8372 231.158 26.986 231.385 27.1038 231.407C27.027 231.687 26.5017 231.637 26.6674 231.335ZM31.8268 232.411C31.7683 232.724 31.5575 232.522 31.4754 232.541C31.546 232.487 31.6884 232.316 31.7483 232.33C31.7901 232.345 31.7904 232.379 31.8268 232.411ZM39.0801 234.244C38.8395 234.208 38.58 234.148 38.3361 234.09L38.3967 233.895C38.6456 233.945 38.8944 233.995 39.1365 234.047L39.0758 234.242L39.0801 234.244ZM36.7333 233.469L36.7871 233.275C37.1896 233.155 37.0929 233.664 36.742 233.473L36.7333 233.469ZM42.275 234.619C42.24 234.603 42.1875 234.578 42.1519 234.571C41.6438 234.494 42.5426 233.914 42.275 234.619ZM44.9519 234.933C45.0115 234.913 45.0927 234.868 45.1433 234.888C45.4909 234.98 44.9711 235.381 44.9519 234.933Z" fill="white"/>
<path d="M42.7025 230.473L43.8698 229.523C43.8698 229.523 46.3666 228.514 46.9837 227.594L50.6019 225.886C50.6019 225.886 51.9751 224.989 52.2196 224.492C52.3721 224.184 52.4046 223.893 52.3103 223.697C52.1177 223.294 51.4026 223.26 50.089 224.136C50.0584 224.121 49.9813 224.133 49.9537 224.106C48.6633 225.163 46.89 225.474 45.415 226.341C45.513 226.436 45.5269 226.545 45.4364 226.517L45.3568 226.377C44.542 227.178 43.5961 227.093 43.0091 228.037C43.0091 228.037 42.9866 227.802 42.9842 227.806C39.8858 229.582 35.462 231.696 32.1977 233.739L32.2284 233.754L32.2385 233.773C32.6566 233.733 34.3172 233.115 34.3172 233.115C33.6542 234.364 31.8612 234.392 30.6692 235.068L30.5489 234.894C31.0772 234.619 31.4849 234.291 31.6161 234.12C29.5601 234.891 25.753 236.875 24.1471 238.104C24.2917 238.207 24.6376 237.626 25.0899 237.968C24.6305 238.217 24.2171 238.527 23.7769 238.756C23.5723 238.483 23.8939 238.441 23.9051 238.364C22.9283 238.464 7.37189 246.357 11.9016 245.565L11.9131 245.755C12.9052 245.311 13.7266 244.942 14.9145 244.688C15.037 244.591 15.0739 244.613 14.9675 244.47C14.9902 244.427 15.0214 244.354 14.9568 244.304C14.6883 243.972 15.0946 243.941 15.2253 243.857C15.8598 245.016 18.3612 242.328 18.8216 242.138C19.2893 242.604 19.6781 241.707 20.094 241.783C20.0924 241.812 20.062 241.988 20.0604 242.016C20.5365 242.218 23.6615 239.276 23.0456 240.488C28.3436 239.155 35.5221 233.503 41.0821 231.837L40.999 231.797C41.0531 231.793 41.1508 231.699 41.2328 231.757C41.5584 231.293 42.705 230.47 42.705 230.47L42.7025 230.473ZM31.1088 235.827C31.1088 235.827 31.1227 235.858 31.1315 235.863C31.0918 235.81 30.4908 236.177 30.4572 236.175L30.3344 236.005C30.7188 235.34 33.0413 235.719 31.2835 235.954C31.2685 236.02 31.1596 235.881 31.1088 235.827ZM25.5491 238.776C25.4299 238.816 25.2989 238.866 25.163 238.923C26.1979 237.618 28.6358 237.243 30.0292 236.152C30.0545 237.197 28.4714 237.481 27.763 237.802C27.2082 238.342 26.2423 238.565 25.5535 238.778L25.5491 238.776ZM16.1903 243.61L16.2502 243.702L16.1993 243.726C16.1805 243.702 16.1665 243.671 16.1676 243.652C16.16 243.629 16.1703 243.605 16.1859 243.608L16.1903 243.61ZM41.639 230.479C41.6344 230.677 41.1772 230.81 41.2392 230.396C41.3421 230.406 41.441 230.17 41.639 230.479ZM23.7756 239.442C23.9821 239.721 23.5016 240.062 23.2115 239.676C23.3881 239.575 23.5831 239.507 23.7756 239.442ZM45.3482 228.088C45.2618 227.715 45.4751 228.07 45.657 228.23C45.5908 228.208 45.4486 228.257 45.3764 228.106L45.3414 228.089L45.3482 228.088ZM47.6842 226.592C47.6106 226.426 47.6809 226.26 47.7416 226.22C47.9946 226.238 47.8543 226.683 47.6842 226.592ZM51.7306 224.396C51.6122 224.227 51.668 224.117 51.8143 224.27C51.8969 224.397 51.8471 224.558 51.6868 224.375C51.6956 224.379 51.7082 224.395 51.7262 224.394L51.7306 224.396ZM20.8852 240.143C20.6639 239.575 21.4422 239.721 21.6019 239.446C21.9068 239.966 21.1761 239.852 21.0438 240.043C20.9743 240.078 20.9229 240.112 20.8852 240.143ZM36.9696 231.707C36.6392 231.277 37.4386 231.331 37.5485 231.14L37.6713 231.31C37.438 231.496 37.3593 231.693 36.9814 231.698L36.9764 231.705L36.9696 231.707ZM25.6997 237.371C25.6723 237.144 25.9649 237.215 26.0672 237.156C26.2485 237.403 25.8348 237.679 25.6953 237.369L25.6997 237.371ZM30.2418 235.035C30.4631 235.291 30.1448 235.276 30.1029 235.339C30.1098 235.26 30.0633 235.052 30.121 235.026C30.1601 235.011 30.1945 235.037 30.2462 235.037L30.2418 235.035ZM36.8977 231.98C36.6932 232.097 36.4662 232.213 36.2467 232.318L36.1263 232.144C36.3464 232.029 36.5641 231.919 36.7774 231.806L36.8977 231.98ZM34.5939 232.838L34.4668 232.665C34.654 232.34 35.0099 232.758 34.5989 232.83L34.5939 232.838ZM39.4697 230.329C39.4355 230.337 39.3696 230.349 39.3417 230.365C38.9203 230.618 39.0671 229.67 39.4697 230.329ZM41.6216 228.946C41.6468 228.899 41.6673 228.816 41.7201 228.798C42.0408 228.653 42.0089 229.247 41.6216 228.946Z" fill="white"/>
<path d="M35.4647 244.759L36.3656 245.899C36.3656 245.899 37.0987 248.158 38.0531 248.836L39.395 252.154C39.395 252.154 40.192 253.459 40.7305 253.749C41.0639 253.932 41.392 254.01 41.6395 253.967C42.1413 253.88 42.3146 253.29 41.5212 252.04C41.5384 252.014 41.5441 251.954 41.5813 251.932C40.5773 250.67 40.5375 249.136 39.7922 247.753C39.6626 247.818 39.533 247.806 39.586 247.743L39.7637 247.701C38.9726 246.881 39.2465 246.105 38.248 245.45C38.248 245.45 38.5253 245.475 38.5209 245.473C37.0087 242.575 35.3383 238.521 33.5425 235.435L33.5252 235.461L33.496 235.462C33.4689 235.814 33.8864 237.309 33.8908 237.311C32.5551 236.539 32.8437 235.039 32.2694 233.928L32.4936 233.859C32.7217 234.348 33.0269 234.747 33.203 234.889C32.6713 233.038 31.0444 229.516 29.9023 227.959C29.7549 228.059 30.3707 228.45 29.8895 228.767C29.6781 228.34 29.3909 227.94 29.2076 227.531C29.5653 227.409 29.5538 227.686 29.6424 227.709C29.6992 226.878 23.2973 212.519 23.4092 216.431L23.1836 216.407C23.5228 217.309 23.8054 218.062 23.8853 219.094C23.9728 219.214 23.9488 219.241 24.1301 219.176C24.1782 219.199 24.2569 219.237 24.3264 219.201C24.7628 219.039 24.7251 219.381 24.799 219.504C23.3352 219.826 26.0153 222.388 26.1532 222.804C25.5267 223.105 26.5033 223.594 26.3403 223.926C26.3048 223.919 26.1082 223.859 26.077 223.854C25.7574 224.214 28.6208 227.34 27.3185 226.613C27.9209 231.26 33.2165 238.247 34.1629 243.165L34.2272 243.103C34.22 243.149 34.3111 243.246 34.2269 243.303C34.7055 243.657 35.4647 244.759 35.4647 244.759ZM31.3054 234.157C31.3054 234.157 31.2713 234.165 31.262 234.17C31.3309 234.144 31.0081 233.582 31.0166 233.551L31.2365 233.481C31.9418 233.919 31.0882 235.783 31.1253 234.28C31.0503 234.254 31.236 234.192 31.3054 234.157ZM28.8665 229.006C28.8389 228.9 28.8074 228.783 28.7653 228.656C30.098 229.753 30.0987 231.848 31.1221 233.202C29.8998 233.04 29.8551 231.669 29.607 231.02C29.0794 230.462 28.9885 229.619 28.8665 229.006ZM24.9142 220.353L24.7974 220.39L24.7753 220.346C24.8075 220.332 24.8436 220.329 24.8636 220.334C24.8929 220.333 24.9147 220.344 24.9117 220.357L24.9142 220.353ZM35.6462 243.871C35.4168 243.835 35.3437 243.425 35.8105 243.555C35.7832 243.639 36.0389 243.766 35.6462 243.871ZM28.4127 227.401C28.0482 227.525 27.7399 227.062 28.2466 226.889C28.3339 227.052 28.3777 227.229 28.4127 227.401ZM37.7656 247.389C38.2151 247.388 37.7639 247.495 37.5433 247.619C37.5777 247.567 37.5468 247.44 37.7352 247.408L37.7656 247.389ZM39.0904 249.597C39.2944 249.568 39.4782 249.655 39.5154 249.712C39.4473 249.918 38.9551 249.723 39.0904 249.597ZM40.926 253.36C41.1434 253.293 41.2566 253.356 41.0575 253.457C40.8954 253.501 40.7149 253.435 40.9588 253.337C40.9495 253.342 40.9309 253.353 40.9279 253.366L40.926 253.36ZM28.1064 224.873C28.8081 224.788 28.5024 225.412 28.791 225.594C28.1366 225.755 28.3952 225.167 28.1991 225.02C28.1669 224.956 28.1428 224.905 28.1133 224.872L28.1064 224.873ZM35.0507 239.768C35.6127 239.572 35.4019 240.227 35.6084 240.35L35.3861 240.424C35.208 240.198 34.9936 240.096 35.0589 239.782L35.0551 239.77L35.0507 239.768ZM30.4747 229.376C30.7433 229.397 30.6088 229.625 30.655 229.72C30.3364 229.827 30.0892 229.437 30.4747 229.376ZM32.3817 233.577C32.0478 233.716 32.1192 233.452 32.0566 233.408C32.1476 233.427 32.3992 233.43 32.4189 233.478C32.4304 233.513 32.3932 233.534 32.3861 233.579L32.3817 233.577ZM34.7466 239.662C34.6474 239.474 34.5516 239.263 34.469 239.058L34.6932 238.989C34.7895 239.191 34.879 239.394 34.9709 239.594L34.7466 239.662ZM34.1601 237.59L34.3825 237.516C34.7254 237.728 34.1774 237.954 34.1664 237.598L34.1621 237.596L34.1601 237.59ZM36.2091 242.097C36.2063 242.067 36.2028 242.012 36.1864 241.984C35.9708 241.589 37.0442 241.881 36.2091 242.097ZM37.436 244.133C37.4885 244.158 37.5809 244.192 37.5894 244.24C37.6983 244.536 37.016 244.401 37.436 244.133Z" fill="white"/>
</g>
<defs>
<clipPath id="clip0_1346_16572">
<rect width="72.098" height="72.098" fill="white" transform="matrix(0.323671 -0.94617 -0.94617 -0.323671 159.217 91.5532)"/>
</clipPath>
<clipPath id="clip1_1346_16572">
<rect width="45.3584" height="41.6078" fill="white" transform="matrix(-0.903014 -0.429612 0.55362 -0.832769 40.9592 262.136)"/>
</clipPath>
</defs>
</svg>
