<?xml version="1.0" encoding="UTF-8"?>
<svg xmlns="http://www.w3.org/2000/svg" xmlns:xlink="http://www.w3.org/1999/xlink" width="64px" height="64px" viewBox="0 0 64 64" version="1.1">
<g id="surface1">
<path style=" stroke:none;fill-rule:nonzero;fill:rgb(87.843137%,11.764706%,35.294118%);fill-opacity:1;" d="M 14.410156 40.011719 C 14.410156 43.519531 11.542969 46.386719 8.035156 46.386719 C 4.527344 46.386719 1.660156 43.519531 1.660156 40.011719 C 1.660156 36.503906 4.527344 33.636719 8.035156 33.636719 L 14.410156 33.636719 Z M 14.410156 40.011719 "/>
<path style=" stroke:none;fill-rule:nonzero;fill:rgb(87.843137%,11.764706%,35.294118%);fill-opacity:1;" d="M 17.613281 40.011719 C 17.613281 36.503906 20.480469 33.636719 23.988281 33.636719 C 27.496094 33.636719 30.363281 36.503906 30.363281 40.011719 L 30.363281 55.964844 C 30.363281 59.472656 27.496094 62.339844 23.988281 62.339844 C 20.480469 62.339844 17.613281 59.472656 17.613281 55.964844 C 17.613281 55.964844 17.613281 40.011719 17.613281 40.011719 Z M 17.613281 40.011719 "/>
<path style=" stroke:none;fill-rule:nonzero;fill:rgb(21.176471%,77.254902%,94.117647%);fill-opacity:1;" d="M 23.988281 14.410156 C 20.480469 14.410156 17.613281 11.542969 17.613281 8.035156 C 17.613281 4.527344 20.480469 1.660156 23.988281 1.660156 C 27.496094 1.660156 30.363281 4.527344 30.363281 8.035156 L 30.363281 14.410156 Z M 23.988281 14.410156 "/>
<path style=" stroke:none;fill-rule:nonzero;fill:rgb(21.176471%,77.254902%,94.117647%);fill-opacity:1;" d="M 23.988281 17.613281 C 27.496094 17.613281 30.363281 20.480469 30.363281 23.988281 C 30.363281 27.496094 27.496094 30.363281 23.988281 30.363281 L 8.035156 30.363281 C 4.527344 30.363281 1.660156 27.496094 1.660156 23.988281 C 1.660156 20.480469 4.527344 17.613281 8.035156 17.613281 C 8.035156 17.613281 23.988281 17.613281 23.988281 17.613281 Z M 23.988281 17.613281 "/>
<path style=" stroke:none;fill-rule:nonzero;fill:rgb(18.039216%,71.372549%,49.019608%);fill-opacity:1;" d="M 49.589844 23.988281 C 49.589844 20.480469 52.457031 17.613281 55.964844 17.613281 C 59.472656 17.613281 62.339844 20.480469 62.339844 23.988281 C 62.339844 27.496094 59.472656 30.363281 55.964844 30.363281 L 49.589844 30.363281 Z M 49.589844 23.988281 "/>
<path style=" stroke:none;fill-rule:nonzero;fill:rgb(18.039216%,71.372549%,49.019608%);fill-opacity:1;" d="M 46.386719 23.988281 C 46.386719 27.496094 43.519531 30.363281 40.011719 30.363281 C 36.503906 30.363281 33.636719 27.496094 33.636719 23.988281 L 33.636719 8.035156 C 33.636719 4.527344 36.503906 1.660156 40.011719 1.660156 C 43.519531 1.660156 46.386719 4.527344 46.386719 8.035156 Z M 46.386719 23.988281 "/>
<path style=" stroke:none;fill-rule:nonzero;fill:rgb(92.54902%,69.803922%,18.039216%);fill-opacity:1;" d="M 40.011719 49.589844 C 43.519531 49.589844 46.386719 52.457031 46.386719 55.964844 C 46.386719 59.472656 43.519531 62.339844 40.011719 62.339844 C 36.503906 62.339844 33.636719 59.472656 33.636719 55.964844 L 33.636719 49.589844 Z M 40.011719 49.589844 "/>
<path style=" stroke:none;fill-rule:nonzero;fill:rgb(92.54902%,69.803922%,18.039216%);fill-opacity:1;" d="M 40.011719 46.386719 C 36.503906 46.386719 33.636719 43.519531 33.636719 40.011719 C 33.636719 36.503906 36.503906 33.636719 40.011719 33.636719 L 55.964844 33.636719 C 59.472656 33.636719 62.339844 36.503906 62.339844 40.011719 C 62.339844 43.519531 59.472656 46.386719 55.964844 46.386719 Z M 40.011719 46.386719 "/>
</g>
</svg>
