<svg fill="none" height="384" viewBox="0 0 560 384" width="560" xmlns="http://www.w3.org/2000/svg" xmlns:xlink="http://www.w3.org/1999/xlink"><filter id="a" color-interpolation-filters="sRGB" filterUnits="userSpaceOnUse" height="295.802" width="365.155" x="18.2379" y="46"><feFlood flood-opacity="0" result="BackgroundImageFix"/><feColorMatrix in="SourceAlpha" type="matrix" values="0 0 0 0 0 0 0 0 0 0 0 0 0 0 0 0 0 0 127 0"/><feOffset dx="-3" dy="2"/><feGaussianBlur stdDeviation="3.5"/><feColorMatrix type="matrix" values="0 0 0 0 0.25098 0 0 0 0 0.196078 0 0 0 0 0.580392 0 0 0 0.3 0"/><feBlend in2="BackgroundImageFix" mode="normal" result="effect1_dropShadow"/><feBlend in="SourceGraphic" in2="effect1_dropShadow" mode="normal" result="shape"/></filter><filter id="b" color-interpolation-filters="sRGB" filterUnits="userSpaceOnUse" height="35.5578" width="104.033" x="268.32" y="261.472"><feFlood flood-opacity="0" result="BackgroundImageFix"/><feColorMatrix in="SourceAlpha" type="matrix" values="0 0 0 0 0 0 0 0 0 0 0 0 0 0 0 0 0 0 127 0"/><feOffset/><feGaussianBlur stdDeviation="4.5"/><feColorMatrix type="matrix" values="0 0 0 0 0.384314 0 0 0 0 0.839216 0 0 0 0 0.690196 0 0 0 1 0"/><feBlend in2="BackgroundImageFix" mode="normal" result="effect1_dropShadow"/><feBlend in="SourceGraphic" in2="effect1_dropShadow" mode="normal" result="shape"/></filter><linearGradient id="c" gradientUnits="userSpaceOnUse" x1="836.874" x2="480.64" y1="191.036" y2="-329.151"><stop offset="0" stop-color="#403294"/><stop offset="1" stop-color="#209df1"/></linearGradient><linearGradient id="d" gradientUnits="userSpaceOnUse" x1="28.2379" x2="28.2379" y1="51" y2="332.802"><stop offset="0" stop-color="#fff"/><stop offset=".716612" stop-color="#fbffff"/><stop offset="1" stop-color="#e6fcff"/></linearGradient><linearGradient id="e" gradientUnits="userSpaceOnUse" x1="24.4884" x2="382.667" y1="130.01" y2="130.01"><stop offset="0" stop-color="#b2d4ff"/><stop offset="1" stop-color="#c0b6f2"/></linearGradient><linearGradient id="f"><stop offset="0" stop-color="#bcd6ff"/><stop offset="1" stop-color="#deebff" stop-opacity=".2"/></linearGradient><linearGradient id="g" gradientUnits="userSpaceOnUse" x1="43.802" x2="263.274" xlink:href="#f" y1="150.201" y2="150.201"/><linearGradient id="h" gradientUnits="userSpaceOnUse" x1="43.802" x2="263.274" xlink:href="#f" y1="189.706" y2="189.706"/><linearGradient id="i" gradientUnits="userSpaceOnUse" x1="43.802" x2="226.695" xlink:href="#f" y1="214.287" y2="214.287"/><linearGradient id="j" gradientUnits="userSpaceOnUse" x1="43.802" x2="263.274" xlink:href="#f" y1="312.611" y2="312.611"/><linearGradient id="k" gradientUnits="userSpaceOnUse" x1="277.32" x2="363.353" xlink:href="#f" y1="222.188" y2="222.188"/><linearGradient id="l" gradientUnits="userSpaceOnUse" x1="277.32" x2="363.353" xlink:href="#f" y1="263.449" y2="263.449"/><linearGradient id="m" gradientUnits="userSpaceOnUse" x1="277.32" x2="363.353" xlink:href="#f" y1="312.611" y2="312.611"/><linearGradient id="n" gradientUnits="userSpaceOnUse" x1="44.3658" x2="57.896" y1="151.816" y2="325.915"><stop offset="0" stop-color="#66dab5"/><stop offset="1" stop-color="#36b37e"/></linearGradient><clipPath id="o"><path d="m289.611 171.271h242.297v67.5974h-242.297z"/></clipPath><mask id="p" height="384" maskUnits="userSpaceOnUse" width="560" x="0" y="0"><path clip-rule="evenodd" d="m553.376 129.091c24.372 96.738-14.145 254.407-188.966 254.407-174.82 0-357.71127-126.536-364.210476-203.533-6.499204-76.996 146.864476-140.9825 304.590476-171.48023 157.727-30.49767 224.213 23.86953 248.586 120.60623z" fill="#fff" fill-rule="evenodd"/></mask><mask id="q" height="282" maskUnits="userSpaceOnUse" width="352" x="28" y="51"><rect fill="#fff" height="281.802" rx="7.0231" width="351.155" x="28.2379" y="51"/></mask><path clip-rule="evenodd" d="m553.376 129.091c24.372 96.738-14.145 254.407-188.966 254.407-174.82 0-357.71127-126.536-364.210476-203.533-6.499204-76.996 146.864476-140.9825 304.590476-171.48023 157.727-30.49767 224.213 23.86953 248.586 120.60623z" fill="url(#c)" fill-opacity=".7" fill-rule="evenodd"/><g clip-rule="evenodd" fill="#5243aa" fill-opacity=".3" fill-rule="evenodd" mask="url(#p)"><path d="m358.853 51.9253c-7.675-12.7979-3.525-29.3886 9.262-37.0694 12.786-7.68092 29.363-3.528 37.037 9.27 7.664 12.7979 3.525 29.3886-9.262 37.0588l-.095.0636c-12.755 7.5325-29.194 3.369-36.837-9.323zm54.751 40.3961c4.257-2.5647 8.183-5.6402 11.706-9.1521l16.174 9.035 18.516-33.0857-17.239-9.5884c1.309-7.9176 1.064-16.0055-.745-23.8379l14.792-8.8328-19.367-32.6601-14.792 8.51354c-6.033-5.28904-13.046-9.33294-20.644-11.92964v-19.7833l-37.989.5215v18.6233c-9.577 2.8414-18.281 8.0453-25.326 15.1222l-16.174-9.0563-18.516 33.1071 17.239 9.5777c-1.309 7.9176-1.054 16.0161.745 23.8273l-14.792 8.8328 19.474 32.5749 14.791-8.8328c6.002 5.2678 12.982 9.3117 20.538 11.919v19.7833l37.989-.532v-18.6235c4.746-1.2876 9.311-3.1393 13.62-5.5231z"/><path d="m454.282 346.862c-6.538-10.902-3.003-25.034 7.89-31.577 10.892-6.543 25.013-3.006 31.55 7.896 6.529 10.902 3.003 25.035-7.89 31.569l-.081.054c-10.865 6.417-24.869 2.87-31.379-7.942zm46.568 31.098c3.683-2.187 7.081-4.809 10.13-7.803l13.997 7.703 16.023-28.208-14.918-8.174c1.133-6.751.921-13.646-.645-20.324l12.8-7.53-16.76-27.845-12.8 7.258c-5.221-4.509-11.29-7.957-17.865-10.17v-16.867l-32.875.445v15.877c-8.288 2.423-15.82 6.859-21.917 12.893l-13.997-7.721-16.023 28.226 14.918 8.165c-1.133 6.751-.912 13.655.645 20.315l-12.8 7.53 16.852 27.772 12.8-7.53c5.193 4.491 11.234 7.939 17.773 10.161v16.867l32.875-.454v-15.877c4.107-1.098 8.057-2.677 11.787-4.709z"/></g><g filter="url(#a)"><rect fill="url(#d)" height="281.802" rx="7.0231" width="351.155" x="28.2379" y="51"/></g><g mask="url(#q)"><path d="m24.4884 51h358.178v79.0099h-358.178z" fill="url(#e)"/><rect fill="url(#g)" height="10.5347" rx="3.51155" width="219.472" x="43.802" y="139.667"/><rect fill="url(#h)" height="32.4818" rx="3.51155" width="219.472" x="43.802" y="157.224"/><rect fill="url(#i)" height="10.5347" rx="3.51155" width="182.893" x="43.802" y="203.753"/><rect fill="url(#j)" height="91.3003" rx="3.51155" width="219.472" x="43.802" y="221.31"/><rect fill="url(#k)" height="82.5215" rx="3.51155" width="86.033" x="277.32" y="139.667"/><rect fill="url(#l)" height="17.5578" rx="3.51155" width="86.033" x="277.32" y="245.891"/><g filter="url(#b)"><rect fill="#63d7b1" height="17.5578" rx="3.51155" width="86.033" x="277.32" y="270.472"/></g><rect fill="url(#m)" height="17.5578" rx="3.51155" width="86.033" x="277.32" y="295.053"/></g><path clip-rule="evenodd" d="m277.32 288.03v-17.558l14.046-84.418h239.315v39.332c0 9.658-12.347 13.482-12.347 13.482l-154.981 49.162z" fill="#abf5d1" fill-opacity=".6" fill-rule="evenodd"/><g clip-path="url(#o)"><rect fill="url(#n)" height="67.5974" rx="5" width="239.605" x="291.151" y="171.271"/><path d="m357.928 195.247v13.632l-2.496-5.184-5.024-8.448h-6.432v21.024h4.864v-15.232l2.688 5.44 5.76 9.792h5.504v-21.024zm15.421 7.872c1.952 0 2.912 1.248 3.104 3.776h-6.4c.224-2.4 1.248-3.776 3.296-3.776zm6.784 12.512v-3.904c-1.6.512-3.488.832-5.408.832-2.848 0-4.224-.96-4.608-3.072h10.72v-1.248c0-5.088-2.112-8.672-7.36-8.672-5.28 0-8.064 3.616-8.064 8.672 0 5.248 2.816 8.352 9.184 8.352 1.952 0 4.064-.352 5.536-.96zm18.662.64-5.088-8.288 5.088-8.064h-5.152l-3.36 6.176-3.392-6.176h-5.152l5.088 8.064-5.088 8.288h5.184l3.36-6.304 3.328 6.304zm7.141-5.984v-6.368h3.36v-4h-3.36v-3.392h-4.736v3.392h-1.952v4h1.952v6.912c0 3.36 1.536 5.632 5.408 5.632 1.216 0 1.984-.128 2.688-.32v-4.192c-.416.096-.896.192-1.44.192-1.28 0-1.92-.672-1.92-1.856zm26.891-.288c0-3.392-1.888-5.408-7.36-6.432-2.784-.608-3.744-1.216-3.744-2.368 0-1.216 1.056-1.856 2.944-1.856 1.984 0 4.768.544 7.264 1.664v-4.544c-1.664-.864-4.128-1.568-7.104-1.568-5.312 0-8.128 2.464-8.128 6.24 0 3.328 1.92 5.44 7.552 6.528 2.592.576 3.424 1.216 3.424 2.432 0 1.184-.8 1.984-2.912 1.984-2.56 0-5.984-.896-7.968-1.824v4.64c1.728.896 4.096 1.728 7.936 1.728 5.76 0 8.096-2.56 8.096-6.624zm8.015.288v-6.368h3.36v-4h-3.36v-3.392h-4.736v3.392h-1.952v4h1.952v6.912c0 3.36 1.536 5.632 5.408 5.632 1.216 0 1.984-.128 2.688-.32v-4.192c-.416.096-.896.192-1.44.192-1.28 0-1.92-.672-1.92-1.856zm12.882-7.168c1.952 0 2.912 1.248 3.104 3.776h-6.4c.224-2.4 1.248-3.776 3.296-3.776zm6.784 12.512v-3.904c-1.6.512-3.488.832-5.408.832-2.848 0-4.224-.96-4.608-3.072h10.72v-1.248c0-5.088-2.112-8.672-7.36-8.672-5.28 0-8.064 3.616-8.064 8.672 0 5.248 2.816 8.352 9.184 8.352 1.952 0 4.064-.352 5.536-.96zm14.086-7.552c0 2.88-1.088 4.384-3.2 4.384-1.6 0-3.008-1.12-3.008-3.712v-1.312c0-2.624 1.44-3.744 3.168-3.744 1.984 0 3.04 1.472 3.04 4.384zm-1.344 8.512c4.096 0 6.08-3.712 6.08-8.512 0-4.704-1.888-8.48-6.016-8.48-2.336 0-4.032 1.248-4.928 3.264v-2.944h-4.768v22.592h4.768v-9.152c.96 2.176 2.688 3.232 4.864 3.232z" fill="#fff"/></g></svg>