<svg height="389" viewBox="0 0 598 389" width="598" xmlns="http://www.w3.org/2000/svg" xmlns:xlink="http://www.w3.org/1999/xlink"><linearGradient id="a"><stop offset="0" stop-color="#0d0e0f"/><stop offset="1" stop-color="#151f44"/></linearGradient><linearGradient id="b" x1="114.723695%" x2="19.252306%" xlink:href="#a" y1="59.190693%" y2="50.162984%"/><linearGradient id="c" x1="100%" x2=".007063%" xlink:href="#a" y1="50.054609%" y2="50.054609%"/><linearGradient id="d" x1="49.996151%" x2="49.996151%" y1="99.815942%" y2="-.074619%"><stop offset="0" stop-color="#213067"/><stop offset="1" stop-color="#151f44"/></linearGradient><filter id="e" height="149%" width="139.3%" x="-19.7%" y="-24.5%"><feGaussianBlur in="SourceGraphic" stdDeviation="1.74400005"/></filter><linearGradient id="f" x1="99.966614%" x2="-.016664%" xlink:href="#a" y1="49.89802%" y2="49.89802%"/><linearGradient id="g" x1="-.262033%" x2="84.909752%" y1="7.96663%" y2="84.653465%"><stop offset="0" stop-color="#b3ffff"/><stop offset="1" stop-color="#55fffa"/></linearGradient><linearGradient id="h" x1="100%" x2="0%" y1="50%" y2="50%"><stop offset="0" stop-color="#fff"/><stop offset=".768633868" stop-color="#fafeff"/><stop offset="1" stop-color="#e6fcff"/></linearGradient><linearGradient id="i" x1="50%" x2="50%" y1="0%" y2="100%"><stop offset="0" stop-color="#e6fcff"/><stop offset="1" stop-color="#fff"/></linearGradient><linearGradient id="j"><stop offset="0" stop-color="#79e2f2"/><stop offset=".17" stop-color="#b3f5ff"/><stop offset=".99" stop-color="#f9fdff"/></linearGradient><linearGradient id="k" x1="50.796821%" x2="47.624938%" xlink:href="#j" y1="13.139026%" y2="330.337614%"/><linearGradient id="l" x1="50.738699%" x2="48.703925%" xlink:href="#j" y1="20.538941%" y2="224.158612%"/><linearGradient id="m" x1="49.22252%" x2="52.439678%" xlink:href="#j" y1="-71.052632%" y2="146.616541%"/><linearGradient id="n" x1="106.607647%" x2="1.378759%" xlink:href="#a" y1="31.02222%" y2="61.121177%"/><filter id="o" height="149%" width="139.3%" x="-19.7%" y="-24.5%"><feGaussianBlur in="SourceGraphic" stdDeviation="1.74400005"/></filter><filter id="p" height="149%" width="139.3%" x="-19.7%" y="-24.5%"><feGaussianBlur in="SourceGraphic" stdDeviation="1.74400005"/></filter><linearGradient id="q" x1="-.016541%" x2="99.985591%" y1="49.999341%" y2="49.999341%"><stop offset="0" stop-color="#998dd9"/><stop offset="1" stop-color="#8777d9"/></linearGradient><linearGradient id="r" x1="41.602725%" x2="48.348423%" y1="33.955439%" y2="47.711201%"><stop offset="0" stop-color="#42526e"/><stop offset="1" stop-color="#111219"/></linearGradient><linearGradient id="s" x1="70.914674%" x2="25.804572%" y1="91.621942%" y2="5.000656%"><stop offset="0" stop-color="#6554c0"/><stop offset="1" stop-color="#f99cdb"/></linearGradient><linearGradient id="t" x1="21.346211%" x2="70.690476%" y1="3.182735%" y2="110.969353%"><stop offset="0" stop-color="#fff"/><stop offset="1" stop-color="#c0b6f2"/></linearGradient><linearGradient id="u"><stop offset="0" stop-color="#c1c7d0"/><stop offset="1" stop-color="#fff"/></linearGradient><linearGradient id="v" x1="51.920296%" x2="48.656335%" xlink:href="#u" y1="99.624549%" y2="-1.357401%"/><linearGradient id="w"><stop offset="0" stop-color="#ffbdad"/><stop offset="1" stop-color="#ff7452"/></linearGradient><linearGradient id="x" x1="59.42875%" x2="41.606875%" xlink:href="#w" y1="-47.834518%" y2="124.434389%"/><linearGradient id="y" x1="151.112366%" x2="6.936918%" xlink:href="#w" y1="95.603361%" y2="8.826435%"/><linearGradient id="z"><stop offset="0" stop-color="#deebff"/><stop offset="1" stop-color="#dfe1e5"/></linearGradient><linearGradient id="A" x1="57.628437%" x2="74.410928%" xlink:href="#z" y1="32.239405%" y2="3.974965%"/><linearGradient id="B" x1="25.98847%" x2="145.095667%" xlink:href="#w" y1="38.683788%" y2="100.481541%"/><linearGradient id="C" x1="45.607204%" x2="46.611607%" xlink:href="#u" y1="139.34418%" y2="119.730506%"/><linearGradient id="D" x1="-.825004%" x2="98.957568%" xlink:href="#z" y1="45.986649%" y2="53.913719%"/><linearGradient id="E" x1="50.215549%" x2="50.215549%" y1="-.624765%" y2="99.480737%"><stop offset="0" stop-color="#344563"/><stop offset="1" stop-color="#111219"/></linearGradient><linearGradient id="F" x1="0%" x2="100%" xlink:href="#w" y1="50.230062%" y2="50.230062%"/><linearGradient id="G" x1="-3.749762%" x2="95.165351%" xlink:href="#w" y1="32.126098%" y2="70.942284%"/><linearGradient id="H"><stop offset="0" stop-color="#344563"/><stop offset="1" stop-color="#505f79"/></linearGradient><linearGradient id="I" x1="50%" x2="50%" xlink:href="#H" y1="0%" y2="100%"/><linearGradient id="J" x1="50.019433%" x2="50.019433%" xlink:href="#H" y1="45.694319%" y2="91.388638%"/><linearGradient id="K"><stop offset="0" stop-color="#ffbdad"/><stop offset="1" stop-color="#505f79"/></linearGradient><linearGradient id="L" x1="18.558144%" x2="80.846491%" xlink:href="#K" y1="39.502338%" y2="60.321669%"/><linearGradient id="M" x1="78.015267%" x2="-27.78626%" y1="49.892009%" y2="49.892009%"><stop offset=".45" stop-color="#fff"/><stop offset="1" stop-color="#fff0b2"/></linearGradient><linearGradient id="N"><stop offset="0" stop-color="#f99cdb"/><stop offset="1" stop-color="#fff0b2"/></linearGradient><linearGradient id="O" x1="50.050844%" x2="50.050844%" xlink:href="#N" y1="99.608129%" y2="-.093722%"/><linearGradient id="P" x1="99.880268%" x2=".095785%" y1="50%" y2="50%"><stop offset="0" stop-color="#f99cdb"/><stop offset="1" stop-color="#5243aa"/></linearGradient><linearGradient id="Q" x1="18.618042%" x2="81.018864%" xlink:href="#K" y1="39.49175%" y2="60.364238%"/><linearGradient id="R" x1="50.244984%" x2="50.244984%" xlink:href="#N" y1="99.21833%" y2="-.093355%"/><linearGradient id="S" x1="50%" x2="50%" xlink:href="#N" y1="80.591716%" y2="-.710059%"/><g fill="none" fill-rule="evenodd"><g stroke="#a9fffb" stroke-linecap="round" stroke-linejoin="round" stroke-width="3.2" transform="translate(63.8 2)"><path d="m178.837824 190.8h132.724352c5.543601 0 10.037824-4.492914 10.037824-10.0349v-170.3302c0-5.54224183-4.494223-10.0349-10.037824-10.0349h-132.724352c-5.543857 0-10.037824 4.49265817-10.037824 10.0349v170.3302c0 5.541986 4.493967 10.0349 10.037824 10.0349z"/><path d="m183.977598 176.8h122.444548c3.964008 0 7.177854-3.216915 7.177854-7.185024v-24.429696c0-3.968365-3.213846-7.18528-7.177854-7.18528h-122.444548c-3.964008 0-7.177598 3.216915-7.177598 7.18528v24.429696c0 3.968109 3.21359 7.185024 7.177598 7.185024z"/><path d="m182.711386 128.8h124.577228c3.48556 0 6.311386-2.829373 6.311386-6.31931v-78.5613801c0-3.4899365-2.825826-6.3193099-6.311386-6.3193099h-124.577228c-3.48556 0-6.311386 2.8293734-6.311386 6.3193099v78.5613801c0 3.489937 2.825826 6.31931 6.311386 6.31931z"/><path d="m181.563943 18.8h83.672114c2.520592 0 4.563943-2.059494 4.563943-4.6 0-2.540506-2.043351-4.6-4.563943-4.6h-83.672114c-2.520592 0-4.563943 2.059494-4.563943 4.6 0 2.540506 2.043351 4.6 4.563943 4.6z"/><path d="m10.0374285 242.8h133.1251425c5.543639 0 10.037429-4.495846 10.037429-10.041448v-222.7171042c0-5.54585815-4.49379-10.0414478-10.037429-10.0414478h-133.1251425c-5.54363829 0-10.0374285 4.49558965-10.0374285 10.0414478v222.7171042c0 5.545602 4.49379021 10.041448 10.0374285 10.041448z"/><path d="m12.7639428 18.8h83.6721144c2.5205922 0 4.5639428-2.059494 4.5639428-4.6s-2.0433506-4.6-4.5639428-4.6h-83.6721144c-2.5205922 0-4.5639428 2.059494-4.5639428 4.6s2.0433506 4.6 4.5639428 4.6z"/><path d="m14.3113859 229.2h124.5772281c3.48556 0 6.311386-2.829125 6.311386-6.319071v-78.561601c0-3.490203-2.825826-6.319328-6.311386-6.319328h-124.5772281c-3.4858164 0-6.3113859 2.829125-6.3113859 6.319328v78.561601c0 3.489946 2.8255695 6.319071 6.3113859 6.319071z"/><path d="m14.3113859 128.8h124.5772281c3.48556 0 6.311386-2.829373 6.311386-6.31931v-78.5613801c0-3.4899365-2.825826-6.3193099-6.311386-6.3193099h-124.5772281c-3.4858164 0-6.3113859 2.8293734-6.3113859 6.3193099v78.5613801c0 3.489937 2.8255695 6.31931 6.3113859 6.31931z"/><path d="m347.237412 242.8h133.12492c5.543885 0 10.037668-4.492054 10.037668-10.03298v-222.3337846c0-5.54118112-4.493783-10.0332354-10.037668-10.0332354h-133.12492c-5.543373 0-10.037412 4.49205428-10.037412 10.0332354v222.3337846c0 5.540926 4.494039 10.03298 10.037412 10.03298z"/><path d="m349.9637 18.8h83.6726c2.520344 0 4.5637-2.059494 4.5637-4.6s-2.043356-4.6-4.5637-4.6h-83.6726c-2.520344 0-4.5637 2.059494-4.5637 4.6s2.043356 4.6 4.5637 4.6z"/><path d="m351.511386 229.2h124.577228c3.485816 0 6.311386-2.829125 6.311386-6.319071v-78.561601c0-3.490203-2.82557-6.319328-6.311386-6.319328h-124.577228c-3.48556 0-6.311386 2.829125-6.311386 6.319328v78.561601c0 3.489946 2.825826 6.319071 6.311386 6.319071z"/><path d="m351.511386 128.8h124.577228c3.485816 0 6.311386-2.829373 6.311386-6.31931v-78.5613801c0-3.4899365-2.82557-6.3193099-6.311386-6.3193099h-124.577228c-3.48556 0-6.311386 2.8293734-6.311386 6.3193099v78.5613801c0 3.489937 2.825826 6.31931 6.311386 6.31931z"/></g><g transform="translate(229 97)"><g transform="matrix(-1 0 0 1 100 0)"><path d="m12.3019386 11.6457898c1.7528717.4777546 3.5485972.7720723 5.3595499.8784253 5.4570555.3127727 10.9856149-1.1446148 16.4264195-4.32557906 1.5607749-.91882747 2.098455-2.95899025 1.2009421-4.55683115s-2.890349-2.1482901-4.4511241-1.22946271c-8.700737 5.10085594-17.0602049 4.6084054-25.56268075-1.5006432-.95216609-.68412811-2.18851527-.7962504-3.24332676-.2941315-1.05481149.50211891-1.76783433 1.54219521-1.87047971 2.72844221-.10264538 1.18624701.42068097 2.33844558 1.37284709 3.02257366 3.25605156 2.39738923 6.90186879 4.18416425 10.76785273 5.27720645z" fill="url(#b)" fill-rule="nonzero" transform="translate(3.180062 65.836002)"/><path d="m45.472063 70.2218865c-.3162494.6334389-.7402701 1.2098818-1.2540074 1.7047838-1.7640706 1.7178324-4.4135322 2.2298956-6.7146528 1.2977454-2.3011206-.9321503-3.801511-3.1252577-3.8025087-5.5580935-.0275206-1.5974823.6292061-3.1336379 1.8117106-4.2377896.2406032-.2271586.4928275-.4422774.7557044-.6445307.734663.9542688 1.5386408 1.8557137 2.4057141 2.6973611 1.9639082 1.9571433 4.264967 3.5617563 6.7980398 4.7405235z" fill="url(#c)" fill-rule="nonzero"/><path d="m64.8652858 59.2960018h11.5627781c-1.1738117 2.2937353-2.7195242 4.381862-4.5757679 6.1814749-.184215.2017113-.3782986.3936623-.5789613.5758532-.2821774-1.0052641-.828043-1.9188864-1.5822749-2.648274-2.342517-2.3379383-6.1425623-2.4024422-8.5648198-.1453835-2.4222575 2.2570586-2.5833254 6.0125262-.3630265 8.4643473-1.8701574.4370359-3.7857254.6554244-5.7073741.6506816-3.4509795.036121-6.8676058-.6803517-10.0068196-2.0984481-2.5260431-1.1939307-4.8198689-2.8183079-6.7764788-4.7987765-.8643232-.8496794-1.6657511-1.7597268-2.398084-2.7231024-.8237142-1.0890016-1.5511935-2.2460567-2.1743944-3.4583725z" fill="url(#d)" fill-rule="nonzero"/><path d="m1.3613005 64.1859679c2.18745488-.3791609 3.9563753.389139 5.30676128 2.3048997m-6.5400002 1.3969089c2.18745487-.379161 3.96170017.3902476 5.32273587 2.3082256" stroke="#577288" stroke-linecap="round" stroke-linejoin="round" stroke-width="2.79476"/><g fill-rule="nonzero"><path d="m67.8748653 17.1855611h-1.0817437c.5518658-.0088894.9950642-.4573869.9967729-1.0086908v-.3819315c-.0474172-5.7201342-4.6251266-10.37346251-10.3500969-10.52106949 1.2312913-.46716321 1.9528036-1.74613627 1.7150491-3.04014459s-1.3669175-2.23372472-2.6840431-2.23372472c-1.3171255 0-2.4462885.9397164-2.684043 2.23372472s.4837577 2.57298138 1.7150491 3.04014459c-5.6744223.08770978-10.2133406 4.73518349-10.1605466 10.40355219v.685518c.0053908.5558109.4599201 1.0025214 1.0163814.9988977h-1.0784755c-.5316001.003445-1.0399563.2181415-1.4127838.5966677-.3728274.3785263-.5794487.8897359-.5743223 1.4207139.0090875 1.1038863.9113566 1.9919778 2.0165191 1.9847819l22.5924281-.1828488c1.1056744-.010769 1.9942655-.9129426 1.9870536-2.0173816-.0126075-1.1000476-.9118337-1.9836647-2.0131984-1.9782092z" fill="#7dffff" fill-opacity=".6" filter="url(#e)"/><path d="m59.0292873 67.7715631c-.0305771-1.6762529.6392068-3.2895599 1.8486256-4.4527811 1.5949325-1.5808915 3.9075867-2.2034441 6.0824627-1.6373624s3.8886192 2.2366343 4.5072794 4.3936847c.1370117.5539125.2053627 1.122526.2035184 1.6930726.0276108 1.6849272-.6352459 3.3080316-1.8350578 4.4934149-1.1859494 1.1896121-2.797873 1.8584105-4.4791013 1.8584105-1.6812284 0-3.293152-.6687984-4.4791014-1.8584105l-.247614-.2708916c-1.0594764-1.1471864-1.6332027-2.6591243-1.6010116-4.2191371z" fill="url(#f)"/><path d="m94.5819941 23.5472783c3.3027137 0 4.9540705 1.6387973 4.9540705 4.9163918v25.9159399c0 3.2775946-1.6513568 4.9163918-4.9540705 4.9163918h-29.4899305c.4131928-.0233659.8245822-.0715253 1.2319122-.1442141 2.3383213-.4370126 3.5074819-2.0310161 3.5074819-4.7820105v-25.9093847c0-3.1989322-1.579798-4.8377295-4.7393941-4.9163918z" fill="url(#g)"/><path d="m11.4640619 54.3706635v-25.9111749c0-3.2769919 1.641677-4.9154879 4.9250311-4.9154879h48.7873577c3.1388864.0786478 4.7094241 1.7171438 4.711613 4.9154879v25.9111749c0 2.7504885-1.1623073 4.3441989-3.486922 4.7811311-.4049423.0726755-.8139202.120826-1.224691.1442072h-48.7939244c-3.2789763.0065345-4.9184644-1.6352385-4.9184644-4.9253383z" fill="url(#h)"/><g transform="translate(21.056062 35.752001)"><path d="m23.5290947 15.8388281c.5246907 0 .7411255.2650579.6558633.7660821-.0852622.5010241-.6558633.9309352-1.6396582 1.2929655-1.0767822.3936739-2.2161147.5950763-3.3645785.5947642-1.1487647.0036796-2.2887014-.1978296-3.3645786-.5947642-1.0067501-.3652627-1.5511166-.7951738-1.6396582-1.2929655-.0885415-.4977918.0885416-.7563849.6066736-.7660821z" fill="#933"/><path d="m1.05593986 1.0473021c-.47825898.45889488-.74491411 1.09088217-.73784617 1.74873592v4.84862083c-.01558106.66417866.25206233 1.30437076.73784617 1.76489799.47504951.47293467 1.12523982.73442756 1.80034467.72406076 1.38665649-.0123896 2.50514145-1.12208322 2.508677-2.48895875v-4.84862083c.00644217-.65967129-.26417052-1.29259917-.74768412-1.74873592-.45764843-.47498724-1.09652888-.73884598-1.76099288-.72729313-.67580432-.01065201-1.32649973.25221227-1.80034467.72729313m32.20944514 1.74873592v4.84862083c-.0158146.66166439.2464565 1.30036083.7247289 1.76489799.4710152.47094543 1.1163649.73239636 1.7872274.72406076.671448.011377 1.3179656-.25054719 1.7872274-.72406076.4849189-.46085933.7514068-1.10113302.7345668-1.76489799v-4.84862083c-.0052039-1.00397855-.6218541-1.90657146-1.5637087-2.28880555-.9418546-.38223409-2.0244717-.16925705-2.7453129.54006963-.4708787.46276443-.7322138 1.09335357-.7247289 1.74873592z" fill="#19232b"/></g><path d="m66.9657765 18.1079154.1275114.005236c.5864386.0484589 1.0445677.4275288 1.0507163.8963572.0064667.5023162-.5157126.914473-1.1684368.914473l-21.1939545.132019-.1275529-.0051949c-.5868177-.0480849-1.0477898-.4243498-1.053938-.8931782-.0064671-.5023162.5189759-.9176931 1.1717001-.9176931zm-10.046937-10.90915327c4.4592788-.0233095 8.2484289 3.25264247 8.8666245 7.66573887.0214887.1948795-.0411076.38968-.1721162.5356273-.1310087.1459474-.3180258.2292235-.5142262.2289776l-17.4606823.1411073c-.1950542-.0016112-.3803022-.0856906-.5098547-.2314102-.1295525-.1457197-.1912903-.3394479-.1699199-.5331947.5479337-4.4271061 4.291111-7.76491391 8.7549707-7.80684617zm-.7429754-5.45476208c.8668618 0 1.5695921.69774995 1.5695921 1.55846814 0 .86071818-.7027303 1.55846813-1.5695921 1.55846813s-1.5695921-.69774995-1.5695921-1.55846813c0-.86071819.7027303-1.55846814 1.5695921-1.55846814z" fill="url(#i)"/><path d="m48.5240631 64.3969129-4.7661105 1.3808199c-.4170854.1253139-.8688626.0460099-1.2183373-.2138644-.3494747-.2598742-.5554816-.6697076-.5555524-1.1052247v-5.1626419h6.5367513z" fill="url(#k)"/><path d="m54.1920632 64.387309 4.7628616 1.3882428c.4143281.1271535.8643178.0512852 1.2141383-.2047039s.5584824-.662104.5630003-1.0957577v-5.1790884h-6.5335024z" fill="url(#l)"/><path d="m48.088063 59.2960018h6.1040002v4.7533836c0 .3582058-.1420678.7017404-.3949501.9550302-.2528823.2532897-.5958643.3955864-.9534939.3955864h-3.4071121c-.7447251 0-1.3484441-.6046916-1.3484441-1.3506166z" fill="url(#m)"/><path d="m15.4985869 20.2493355c1.6132222-.6344751 3.1600832-1.4264196 4.618184-2.3643658 4.5793486-2.9441212 8.1975195-7.3262951 10.7574239-13.02020612.734602-1.63493712.0057873-3.55630078-1.6278533-4.29148585s-3.5534805-.00579192-4.2880826 1.62914519c-4.0874327 9.10118888-11.106943 13.60320038-21.46306704 13.76838218-1.78735293.0286203-3.21310579 1.5019075-3.18450814 3.2906789.02859765 1.7887715 1.50071645 3.2156559 3.28806938 3.1870355 4.06679366-.0075463 8.0985553-.7526479 11.8998338-2.199184z" fill="url(#n)" transform="translate(38.060063 66.272002)"/><path d="m1.24571432 6.20054305c-.52877736-.10577355-.87836698-.61187178-.79012325-1.14385541.08824373-.53198364.58251434-.89810505 1.11712326-.82748751 1.1702354.21923435 2.38027623.02782789 3.42571439-.54188573.48331229-.26487578 1.08983856-.08779799 1.35471433.3955143.26487578.48331229.08779799 1.08983855-.3955143 1.35471432-.26231766.14523922-.533838.27319708-.81282859.38305716-1.24072648.47985391-2.58906177.61124122-3.89908584.37994287zm-.25848572-3.44128582c-.36970444-.03590902-.68901822-.27383909-.82916045-.61783181-.14014223-.34399272-.07800431-.73732577.16135322-1.02136592.23935754-.28404014.61646607-.4119509.97923581-.33214519 1.18058275.22705388 2.4033973.03426781 3.45685725-.54500002.4824523-.26573573 1.08897855-.09005226 1.3547143.39240003s.0900523 1.08897854-.39239998 1.35471431c-.26747225.1483525-.54417202.27942081-.82840003.39240001-1.23794487.47802379-2.58306057.60833524-3.88974297.37682859z" fill="#577288" transform="translate(34.572063 83.712003)"/></g></g><path d="m72 266.977671c-.0032913 1.08867-2.3326859 2.059007-6.9881875 2.91101-5.6404068.798884-11.3115601 1.167417-16.98469 1.103732-5.6616875.066323-11.3214707-.30222-16.9501683-1.103732-4.7179695-.826184-7.0769542-1.796521-7.0769542-2.91101s2.3589847-2.054705 7.0769542-2.820647c5.6268516-.83527 11.2874932-1.218959 16.9501683-1.148913 5.674112-.067287 11.3461113.31639 16.98469 1.148913 4.6620771.791761 6.9914718 1.731976 6.9881875 2.820647z" fill="#000" fill-opacity=".3" opacity=".8"/></g><g transform="translate(110 201)"><g transform="matrix(-1 0 0 1 100 0)"><path d="m12.3019386 11.6457898c1.7528717.4777546 3.5485972.7720723 5.3595499.8784253 5.4570555.3127727 10.9856149-1.1446148 16.4264195-4.32557906 1.5607749-.91882747 2.098455-2.95899025 1.2009421-4.55683115s-2.890349-2.1482901-4.4511241-1.22946271c-8.700737 5.10085594-17.0602049 4.6084054-25.56268075-1.5006432-.95216609-.68412811-2.18851527-.7962504-3.24332676-.2941315-1.05481149.50211891-1.76783433 1.54219521-1.87047971 2.72844221-.10264538 1.18624701.42068097 2.33844558 1.37284709 3.02257366 3.25605156 2.39738923 6.90186879 4.18416425 10.76785273 5.27720645z" fill="url(#b)" fill-rule="nonzero" transform="translate(3.180062 65.836002)"/><path d="m45.472063 70.2218865c-.3162494.6334389-.7402701 1.2098818-1.2540074 1.7047838-1.7640706 1.7178324-4.4135322 2.2298956-6.7146528 1.2977454-2.3011206-.9321503-3.801511-3.1252577-3.8025087-5.5580935-.0275206-1.5974823.6292061-3.1336379 1.8117106-4.2377896.2406032-.2271586.4928275-.4422774.7557044-.6445307.734663.9542688 1.5386408 1.8557137 2.4057141 2.6973611 1.9639082 1.9571433 4.264967 3.5617563 6.7980398 4.7405235z" fill="url(#c)" fill-rule="nonzero"/><path d="m64.8652858 59.2960018h11.5627781c-1.1738117 2.2937353-2.7195242 4.381862-4.5757679 6.1814749-.184215.2017113-.3782986.3936623-.5789613.5758532-.2821774-1.0052641-.828043-1.9188864-1.5822749-2.648274-2.342517-2.3379383-6.1425623-2.4024422-8.5648198-.1453835-2.4222575 2.2570586-2.5833254 6.0125262-.3630265 8.4643473-1.8701574.4370359-3.7857254.6554244-5.7073741.6506816-3.4509795.036121-6.8676058-.6803517-10.0068196-2.0984481-2.5260431-1.1939307-4.8198689-2.8183079-6.7764788-4.7987765-.8643232-.8496794-1.6657511-1.7597268-2.398084-2.7231024-.8237142-1.0890016-1.5511935-2.2460567-2.1743944-3.4583725z" fill="url(#d)" fill-rule="nonzero"/><path d="m1.3613005 64.1859679c2.18745488-.3791609 3.9563753.389139 5.30676128 2.3048997m-6.5400002 1.3969089c2.18745487-.379161 3.96170017.3902476 5.32273587 2.3082256" stroke="#577288" stroke-linecap="round" stroke-linejoin="round" stroke-width="2.79476"/><g fill-rule="nonzero"><path d="m67.8748653 17.1855611h-1.0817437c.5518658-.0088894.9950642-.4573869.9967729-1.0086908v-.3819315c-.0474172-5.7201342-4.6251266-10.37346251-10.3500969-10.52106949 1.2312913-.46716321 1.9528036-1.74613627 1.7150491-3.04014459s-1.3669175-2.23372472-2.6840431-2.23372472c-1.3171255 0-2.4462885.9397164-2.684043 2.23372472s.4837577 2.57298138 1.7150491 3.04014459c-5.6744223.08770978-10.2133406 4.73518349-10.1605466 10.40355219v.685518c.0053908.5558109.4599201 1.0025214 1.0163814.9988977h-1.0784755c-.5316001.003445-1.0399563.2181415-1.4127838.5966677-.3728274.3785263-.5794487.8897359-.5743223 1.4207139.0090875 1.1038863.9113566 1.9919778 2.0165191 1.9847819l22.5924281-.1828488c1.1056744-.010769 1.9942655-.9129426 1.9870536-2.0173816-.0126075-1.1000476-.9118337-1.9836647-2.0131984-1.9782092z" fill="#7dffff" fill-opacity=".6" filter="url(#o)"/><path d="m59.0292873 67.7715631c-.0305771-1.6762529.6392068-3.2895599 1.8486256-4.4527811 1.5949325-1.5808915 3.9075867-2.2034441 6.0824627-1.6373624s3.8886192 2.2366343 4.5072794 4.3936847c.1370117.5539125.2053627 1.122526.2035184 1.6930726.0276108 1.6849272-.6352459 3.3080316-1.8350578 4.4934149-1.1859494 1.1896121-2.797873 1.8584105-4.4791013 1.8584105-1.6812284 0-3.293152-.6687984-4.4791014-1.8584105l-.247614-.2708916c-1.0594764-1.1471864-1.6332027-2.6591243-1.6010116-4.2191371z" fill="url(#f)"/><path d="m94.5819941 23.5472783c3.3027137 0 4.9540705 1.6387973 4.9540705 4.9163918v25.9159399c0 3.2775946-1.6513568 4.9163918-4.9540705 4.9163918h-29.4899305c.4131928-.0233659.8245822-.0715253 1.2319122-.1442141 2.3383213-.4370126 3.5074819-2.0310161 3.5074819-4.7820105v-25.9093847c0-3.1989322-1.579798-4.8377295-4.7393941-4.9163918z" fill="url(#g)"/><path d="m11.4640619 54.3706635v-25.9111749c0-3.2769919 1.641677-4.9154879 4.9250311-4.9154879h48.7873577c3.1388864.0786478 4.7094241 1.7171438 4.711613 4.9154879v25.9111749c0 2.7504885-1.1623073 4.3441989-3.486922 4.7811311-.4049423.0726755-.8139202.120826-1.224691.1442072h-48.7939244c-3.2789763.0065345-4.9184644-1.6352385-4.9184644-4.9253383z" fill="url(#h)"/><g transform="translate(21.056062 35.752001)"><path d="m23.5290947 15.8388281c.5246907 0 .7411255.2650579.6558633.7660821-.0852622.5010241-.6558633.9309352-1.6396582 1.2929655-1.0767822.3936739-2.2161147.5950763-3.3645785.5947642-1.1487647.0036796-2.2887014-.1978296-3.3645786-.5947642-1.0067501-.3652627-1.5511166-.7951738-1.6396582-1.2929655-.0885415-.4977918.0885416-.7563849.6066736-.7660821z" fill="#933"/><path d="m1.05593986 1.0473021c-.47825898.45889488-.74491411 1.09088217-.73784617 1.74873592v4.84862083c-.01558106.66417866.25206233 1.30437076.73784617 1.76489799.47504951.47293467 1.12523982.73442756 1.80034467.72406076 1.38665649-.0123896 2.50514145-1.12208322 2.508677-2.48895875v-4.84862083c.00644217-.65967129-.26417052-1.29259917-.74768412-1.74873592-.45764843-.47498724-1.09652888-.73884598-1.76099288-.72729313-.67580432-.01065201-1.32649973.25221227-1.80034467.72729313m32.20944514 1.74873592v4.84862083c-.0158146.66166439.2464565 1.30036083.7247289 1.76489799.4710152.47094543 1.1163649.73239636 1.7872274.72406076.671448.011377 1.3179656-.25054719 1.7872274-.72406076.4849189-.46085933.7514068-1.10113302.7345668-1.76489799v-4.84862083c-.0052039-1.00397855-.6218541-1.90657146-1.5637087-2.28880555-.9418546-.38223409-2.0244717-.16925705-2.7453129.54006963-.4708787.46276443-.7322138 1.09335357-.7247289 1.74873592z" fill="#19232b"/></g><path d="m66.9657765 18.1079154.1275114.005236c.5864386.0484589 1.0445677.4275288 1.0507163.8963572.0064667.5023162-.5157126.914473-1.1684368.914473l-21.1939545.132019-.1275529-.0051949c-.5868177-.0480849-1.0477898-.4243498-1.053938-.8931782-.0064671-.5023162.5189759-.9176931 1.1717001-.9176931zm-10.046937-10.90915327c4.4592788-.0233095 8.2484289 3.25264247 8.8666245 7.66573887.0214887.1948795-.0411076.38968-.1721162.5356273-.1310087.1459474-.3180258.2292235-.5142262.2289776l-17.4606823.1411073c-.1950542-.0016112-.3803022-.0856906-.5098547-.2314102-.1295525-.1457197-.1912903-.3394479-.1699199-.5331947.5479337-4.4271061 4.291111-7.76491391 8.7549707-7.80684617zm-.7429754-5.45476208c.8668618 0 1.5695921.69774995 1.5695921 1.55846814 0 .86071818-.7027303 1.55846813-1.5695921 1.55846813s-1.5695921-.69774995-1.5695921-1.55846813c0-.86071819.7027303-1.55846814 1.5695921-1.55846814z" fill="url(#i)"/><path d="m48.5240631 64.3969129-4.7661105 1.3808199c-.4170854.1253139-.8688626.0460099-1.2183373-.2138644-.3494747-.2598742-.5554816-.6697076-.5555524-1.1052247v-5.1626419h6.5367513z" fill="url(#k)"/><path d="m54.1920632 64.387309 4.7628616 1.3882428c.4143281.1271535.8643178.0512852 1.2141383-.2047039s.5584824-.662104.5630003-1.0957577v-5.1790884h-6.5335024z" fill="url(#l)"/><path d="m48.088063 59.2960018h6.1040002v4.7533836c0 .3582058-.1420678.7017404-.3949501.9550302-.2528823.2532897-.5958643.3955864-.9534939.3955864h-3.4071121c-.7447251 0-1.3484441-.6046916-1.3484441-1.3506166z" fill="url(#m)"/><path d="m15.4985869 20.2493355c1.6132222-.6344751 3.1600832-1.4264196 4.618184-2.3643658 4.5793486-2.9441212 8.1975195-7.3262951 10.7574239-13.02020612.734602-1.63493712.0057873-3.55630078-1.6278533-4.29148585s-3.5534805-.00579192-4.2880826 1.62914519c-4.0874327 9.10118888-11.106943 13.60320038-21.46306704 13.76838218-1.78735293.0286203-3.21310579 1.5019075-3.18450814 3.2906789.02859765 1.7887715 1.50071645 3.2156559 3.28806938 3.1870355 4.06679366-.0075463 8.0985553-.7526479 11.8998338-2.199184z" fill="url(#n)" transform="translate(38.060063 66.272002)"/><path d="m1.24571432 6.20054305c-.52877736-.10577355-.87836698-.61187178-.79012325-1.14385541.08824373-.53198364.58251434-.89810505 1.11712326-.82748751 1.1702354.21923435 2.38027623.02782789 3.42571439-.54188573.48331229-.26487578 1.08983856-.08779799 1.35471433.3955143.26487578.48331229.08779799 1.08983855-.3955143 1.35471432-.26231766.14523922-.533838.27319708-.81282859.38305716-1.24072648.47985391-2.58906177.61124122-3.89908584.37994287zm-.25848572-3.44128582c-.36970444-.03590902-.68901822-.27383909-.82916045-.61783181-.14014223-.34399272-.07800431-.73732577.16135322-1.02136592.23935754-.28404014.61646607-.4119509.97923581-.33214519 1.18058275.22705388 2.4033973.03426781 3.45685725-.54500002.4824523-.26573573 1.08897855-.09005226 1.3547143.39240003s.0900523 1.08897854-.39239998 1.35471431c-.26747225.1483525-.54417202.27942081-.82840003.39240001-1.23794487.47802379-2.58306057.60833524-3.88974297.37682859z" fill="#577288" transform="translate(34.572063 83.712003)"/></g></g><path d="m79.6 182.172089c-.0041141 1.360838-2.9158574 2.573759-8.7352344 3.638763-7.0505085.998604-14.1394501 1.459271-21.2308625 1.379664-7.0771093.082904-14.1518384-.377775-21.1877104-1.379664-5.8974618-1.032731-8.8461927-2.245652-8.8461927-3.638763 0-1.393112 2.9487309-2.568381 8.8461927-3.525809 7.0335645-1.044087 14.1093665-1.523698 21.1877104-1.436141 7.09264-.084109 14.1826391.395487 21.2308625 1.436141 5.8275964.989701 8.7393398 2.16497 8.7352344 3.525809z" fill="#000" fill-opacity=".3" opacity=".8"/></g><g transform="translate(0 64)"><g transform="matrix(-1 0 0 1 100 0)"><path d="m12.3019386 11.6457898c1.7528717.4777546 3.5485972.7720723 5.3595499.8784253 5.4570555.3127727 10.9856149-1.1446148 16.4264195-4.32557906 1.5607749-.91882747 2.098455-2.95899025 1.2009421-4.55683115s-2.890349-2.1482901-4.4511241-1.22946271c-8.700737 5.10085594-17.0602049 4.6084054-25.56268075-1.5006432-.95216609-.68412811-2.18851527-.7962504-3.24332676-.2941315-1.05481149.50211891-1.76783433 1.54219521-1.87047971 2.72844221-.10264538 1.18624701.42068097 2.33844558 1.37284709 3.02257366 3.25605156 2.39738923 6.90186879 4.18416425 10.76785273 5.27720645z" fill="url(#b)" fill-rule="nonzero" transform="translate(3.180062 65.836002)"/><path d="m45.472063 70.2218865c-.3162494.6334389-.7402701 1.2098818-1.2540074 1.7047838-1.7640706 1.7178324-4.4135322 2.2298956-6.7146528 1.2977454-2.3011206-.9321503-3.801511-3.1252577-3.8025087-5.5580935-.0275206-1.5974823.6292061-3.1336379 1.8117106-4.2377896.2406032-.2271586.4928275-.4422774.7557044-.6445307.734663.9542688 1.5386408 1.8557137 2.4057141 2.6973611 1.9639082 1.9571433 4.264967 3.5617563 6.7980398 4.7405235z" fill="url(#c)" fill-rule="nonzero"/><path d="m64.8652858 59.2960018h11.5627781c-1.1738117 2.2937353-2.7195242 4.381862-4.5757679 6.1814749-.184215.2017113-.3782986.3936623-.5789613.5758532-.2821774-1.0052641-.828043-1.9188864-1.5822749-2.648274-2.342517-2.3379383-6.1425623-2.4024422-8.5648198-.1453835-2.4222575 2.2570586-2.5833254 6.0125262-.3630265 8.4643473-1.8701574.4370359-3.7857254.6554244-5.7073741.6506816-3.4509795.036121-6.8676058-.6803517-10.0068196-2.0984481-2.5260431-1.1939307-4.8198689-2.8183079-6.7764788-4.7987765-.8643232-.8496794-1.6657511-1.7597268-2.398084-2.7231024-.8237142-1.0890016-1.5511935-2.2460567-2.1743944-3.4583725z" fill="url(#d)" fill-rule="nonzero"/><path d="m1.3613005 64.1859679c2.18745488-.3791609 3.9563753.389139 5.30676128 2.3048997m-6.5400002 1.3969089c2.18745487-.379161 3.96170017.3902476 5.32273587 2.3082256" stroke="#577288" stroke-linecap="round" stroke-linejoin="round" stroke-width="2.79476"/><g fill-rule="nonzero"><path d="m67.8748653 17.1855611h-1.0817437c.5518658-.0088894.9950642-.4573869.9967729-1.0086908v-.3819315c-.0474172-5.7201342-4.6251266-10.37346251-10.3500969-10.52106949 1.2312913-.46716321 1.9528036-1.74613627 1.7150491-3.04014459s-1.3669175-2.23372472-2.6840431-2.23372472c-1.3171255 0-2.4462885.9397164-2.684043 2.23372472s.4837577 2.57298138 1.7150491 3.04014459c-5.6744223.08770978-10.2133406 4.73518349-10.1605466 10.40355219v.685518c.0053908.5558109.4599201 1.0025214 1.0163814.9988977h-1.0784755c-.5316001.003445-1.0399563.2181415-1.4127838.5966677-.3728274.3785263-.5794487.8897359-.5743223 1.4207139.0090875 1.1038863.9113566 1.9919778 2.0165191 1.9847819l22.5924281-.1828488c1.1056744-.010769 1.9942655-.9129426 1.9870536-2.0173816-.0126075-1.1000476-.9118337-1.9836647-2.0131984-1.9782092z" fill="#7dffff" fill-opacity=".6" filter="url(#p)"/><path d="m59.0292873 67.7715631c-.0305771-1.6762529.6392068-3.2895599 1.8486256-4.4527811 1.5949325-1.5808915 3.9075867-2.2034441 6.0824627-1.6373624s3.8886192 2.2366343 4.5072794 4.3936847c.1370117.5539125.2053627 1.122526.2035184 1.6930726.0276108 1.6849272-.6352459 3.3080316-1.8350578 4.4934149-1.1859494 1.1896121-2.797873 1.8584105-4.4791013 1.8584105-1.6812284 0-3.293152-.6687984-4.4791014-1.8584105l-.247614-.2708916c-1.0594764-1.1471864-1.6332027-2.6591243-1.6010116-4.2191371z" fill="url(#f)"/><path d="m94.5819941 23.5472783c3.3027137 0 4.9540705 1.6387973 4.9540705 4.9163918v25.9159399c0 3.2775946-1.6513568 4.9163918-4.9540705 4.9163918h-29.4899305c.4131928-.0233659.8245822-.0715253 1.2319122-.1442141 2.3383213-.4370126 3.5074819-2.0310161 3.5074819-4.7820105v-25.9093847c0-3.1989322-1.579798-4.8377295-4.7393941-4.9163918z" fill="url(#g)"/><path d="m11.4640619 54.3706635v-25.9111749c0-3.2769919 1.641677-4.9154879 4.9250311-4.9154879h48.7873577c3.1388864.0786478 4.7094241 1.7171438 4.711613 4.9154879v25.9111749c0 2.7504885-1.1623073 4.3441989-3.486922 4.7811311-.4049423.0726755-.8139202.120826-1.224691.1442072h-48.7939244c-3.2789763.0065345-4.9184644-1.6352385-4.9184644-4.9253383z" fill="url(#h)"/><g transform="translate(21.056062 35.752001)"><path d="m23.5290947 15.8388281c.5246907 0 .7411255.2650579.6558633.7660821-.0852622.5010241-.6558633.9309352-1.6396582 1.2929655-1.0767822.3936739-2.2161147.5950763-3.3645785.5947642-1.1487647.0036796-2.2887014-.1978296-3.3645786-.5947642-1.0067501-.3652627-1.5511166-.7951738-1.6396582-1.2929655-.0885415-.4977918.0885416-.7563849.6066736-.7660821z" fill="#933"/><path d="m1.05593986 1.0473021c-.47825898.45889488-.74491411 1.09088217-.73784617 1.74873592v4.84862083c-.01558106.66417866.25206233 1.30437076.73784617 1.76489799.47504951.47293467 1.12523982.73442756 1.80034467.72406076 1.38665649-.0123896 2.50514145-1.12208322 2.508677-2.48895875v-4.84862083c.00644217-.65967129-.26417052-1.29259917-.74768412-1.74873592-.45764843-.47498724-1.09652888-.73884598-1.76099288-.72729313-.67580432-.01065201-1.32649973.25221227-1.80034467.72729313m32.20944514 1.74873592v4.84862083c-.0158146.66166439.2464565 1.30036083.7247289 1.76489799.4710152.47094543 1.1163649.73239636 1.7872274.72406076.671448.011377 1.3179656-.25054719 1.7872274-.72406076.4849189-.46085933.7514068-1.10113302.7345668-1.76489799v-4.84862083c-.0052039-1.00397855-.6218541-1.90657146-1.5637087-2.28880555-.9418546-.38223409-2.0244717-.16925705-2.7453129.54006963-.4708787.46276443-.7322138 1.09335357-.7247289 1.74873592z" fill="#19232b"/></g><path d="m66.9657765 18.1079154.1275114.005236c.5864386.0484589 1.0445677.4275288 1.0507163.8963572.0064667.5023162-.5157126.914473-1.1684368.914473l-21.1939545.132019-.1275529-.0051949c-.5868177-.0480849-1.0477898-.4243498-1.053938-.8931782-.0064671-.5023162.5189759-.9176931 1.1717001-.9176931zm-10.046937-10.90915327c4.4592788-.0233095 8.2484289 3.25264247 8.8666245 7.66573887.0214887.1948795-.0411076.38968-.1721162.5356273-.1310087.1459474-.3180258.2292235-.5142262.2289776l-17.4606823.1411073c-.1950542-.0016112-.3803022-.0856906-.5098547-.2314102-.1295525-.1457197-.1912903-.3394479-.1699199-.5331947.5479337-4.4271061 4.291111-7.76491391 8.7549707-7.80684617zm-.7429754-5.45476208c.8668618 0 1.5695921.69774995 1.5695921 1.55846814 0 .86071818-.7027303 1.55846813-1.5695921 1.55846813s-1.5695921-.69774995-1.5695921-1.55846813c0-.86071819.7027303-1.55846814 1.5695921-1.55846814z" fill="url(#i)"/><path d="m48.5240631 64.3969129-4.7661105 1.3808199c-.4170854.1253139-.8688626.0460099-1.2183373-.2138644-.3494747-.2598742-.5554816-.6697076-.5555524-1.1052247v-5.1626419h6.5367513z" fill="url(#k)"/><path d="m54.1920632 64.387309 4.7628616 1.3882428c.4143281.1271535.8643178.0512852 1.2141383-.2047039s.5584824-.662104.5630003-1.0957577v-5.1790884h-6.5335024z" fill="url(#l)"/><path d="m48.088063 59.2960018h6.1040002v4.7533836c0 .3582058-.1420678.7017404-.3949501.9550302-.2528823.2532897-.5958643.3955864-.9534939.3955864h-3.4071121c-.7447251 0-1.3484441-.6046916-1.3484441-1.3506166z" fill="url(#m)"/><path d="m15.4985869 20.2493355c1.6132222-.6344751 3.1600832-1.4264196 4.618184-2.3643658 4.5793486-2.9441212 8.1975195-7.3262951 10.7574239-13.02020612.734602-1.63493712.0057873-3.55630078-1.6278533-4.29148585s-3.5534805-.00579192-4.2880826 1.62914519c-4.0874327 9.10118888-11.106943 13.60320038-21.46306704 13.76838218-1.78735293.0286203-3.21310579 1.5019075-3.18450814 3.2906789.02859765 1.7887715 1.50071645 3.2156559 3.28806938 3.1870355 4.06679366-.0075463 8.0985553-.7526479 11.8998338-2.199184z" fill="url(#n)" transform="translate(38.060063 66.272002)"/><path d="m1.24571432 6.20054305c-.52877736-.10577355-.87836698-.61187178-.79012325-1.14385541.08824373-.53198364.58251434-.89810505 1.11712326-.82748751 1.1702354.21923435 2.38027623.02782789 3.42571439-.54188573.48331229-.26487578 1.08983856-.08779799 1.35471433.3955143.26487578.48331229.08779799 1.08983855-.3955143 1.35471432-.26231766.14523922-.533838.27319708-.81282859.38305716-1.24072648.47985391-2.58906177.61124122-3.89908584.37994287zm-.25848572-3.44128582c-.36970444-.03590902-.68901822-.27383909-.82916045-.61783181-.14014223-.34399272-.07800431-.73732577.16135322-1.02136592.23935754-.28404014.61646607-.4119509.97923581-.33214519 1.18058275.22705388 2.4033973.03426781 3.45685725-.54500002.4824523-.26573573 1.08897855-.09005226 1.3547143.39240003s.0900523 1.08897854-.39239998 1.35471431c-.26747225.1483525-.54417202.27942081-.82840003.39240001-1.23794487.47802379-2.58306057.60833524-3.88974297.37682859z" fill="#577288" transform="translate(34.572063 83.712003)"/></g></g><path d="m72 305.977671c-.0032913 1.08867-2.3326859 2.059007-6.9881875 2.91101-5.6404068.798884-11.3115601 1.167417-16.98469 1.103732-5.6616875.066323-11.3214707-.30222-16.9501683-1.103732-4.7179695-.826184-7.0769542-1.796521-7.0769542-2.91101s2.3589847-2.054705 7.0769542-2.820647c5.6268516-.83527 11.2874932-1.218959 16.9501683-1.148913 5.674112-.067287 11.3461113.31639 16.98469 1.148913 4.6620771.791761 6.9914718 1.731976 6.9881875 2.820647z" fill="#000" fill-opacity=".3" opacity=".8"/></g><g transform="translate(464.675303 64.394824)"><path d="m118.524697 312.415176c9.453333 1.226667 14.176666 2.683333 14.170007 4.37-.006674 1.686667-4.730007 3.19-14.170007 4.51-11.437101 1.237702-22.9365468 1.808667-34.4400004 1.71-11.4802517.102754-22.9566422-.468227-34.37-1.71-9.5666667-1.28-14.35-2.783333-14.35-4.51s4.7833333-3.183333 14.35-4.37c11.4096147-1.294076 22.8877457-1.888521 34.37-1.78 11.505445-.104248 23.0066064.490179 34.4400004 1.78z" fill="#000" fill-opacity=".3"/><path d="m71.3546966 112.295176-.14.07c-.3312792.208732-.7189572.310018-1.11.29h-56.65c-1.1001096.119156-2.1082426-.623907-2.32-1.71l-8.83000003-34.5500001c-.00809121-.0731102-.00809121-.1468899 0-.22-.13187403-.3376931-.07065506-.7203116.16-1 .00383397-.0611372.02460927-.1200005.06-.17.3703475-.2118999.79391457-.3125839 1.22-.29h56.61000003c1.0924832-.1156727 2.0950948.614678 2.32 1.69l8.85 34.5400001c.1466666.352.1466666.748 0 1.1l-.15.23z" fill="url(#q)"/><path d="m2.43469657 75.1551759c-.23065506.2796884-.29187403.6623069-.16 1-.00809121.0731101-.00809121.1468898 0 .22l8.83000003 34.5500001c.2117574 1.086093 1.2198904 1.829156 2.32 1.71h56.63c.3910428.020018.7787208-.081268 1.11-.29l.14-.07-1.78 1.8h-60.22000003c-.18224174-.266077-.31127981-.564902-.38-.88l-8.83-34.6100001c-.17389617-.424758-.10508007-.9102938.18-1.27z" fill="url(#r)"/><path d="m21.4146966 83.9051759-.14-.43v-.23l-.54-2.07c-.11-.33 0-.5.34-.5h10.82c.3176743-.0268661.6053481.1878159.67.5l.16.61.38 1.46v.23l.18.65c.09.32 0 .47-.38.47h-10.84c-.298978.0263831-.5701165-.1758949-.63-.47zm-3.27-2.73.76 3c.06.28-.06.42-.38.42h-10.84000003c-.26844593.0304243-.51404248-.1537731-.56-.42h-.05l-.79-3c-.07-.33.06-.5.41-.5h10.83000003c.3081468-.0293265.5833788.1926348.62.5zm-10.00000003 7-.16-.52-.23-.93-.07-.32-.18-.7v-.06c-.09-.35 0-.52.39-.52h10.72000003c.326293-.026067.6196647.1982761.68.52l.18.76.09.32.22.93.14.52.47 1.94.34 1.46.2.66.18.67c.09.36 0 .54-.4.54h-10.82000003c-.31893603.0125451-.59361911-.2228975-.63-.54l-.18-.67-.16-.66-.4-1.43-.34-1.42zm30.00000003-4.73h-1.97c-.2980758.0444832-.5805549-.1467335-.65-.44l-.47-1.78c-.08-.33.05-.5.38-.5h10.92c.2969465-.0126452.5537689.2050009.59.5l.45 1.78c.1.34 0 .52-.36.52h-9zm-15.89 1.64h10.78c.3044362-.0236277.5734161.1968477.61.5l3.2 12.64c.08.36-.06.54-.43.54h-10.77c-.3215951.0089587-.5998561-.222212-.65-.54l-3.18-12.64c-.07-.3.05-.47.38-.47zm15.94 6.1299248h10.78c.3091493-.0046678.5760515.2156325.63.5200752l1.85 7.27 1.46 5.8800001c.08.33 0 .5-.38.5h-10.84c-.3102242.02965-.5884292-.191147-.63-.5l-1.47-5.8800001-1.85-7.26c-.07-.33.06-.5.39-.5zm11.78-10.5699248h10.78c.3176743-.0268661.6053481.1878159.67.5l.39 1.55 1.3 5.14.09.41v.2l.29 1.17.22.77.32 1.37.09.3.22.83.48 1.87.16.63c.1.35 0 .52-.39.52h-10.87c-.309665.0176554-.5784166-.2114443-.61-.52l-.15-.63-.44-1.82-.18-.83-.13-.3-.34-1.37-.47-1.94-.16-.61-1.29-5.14-.4-1.55c-.1-.35.03-.52.36-.52z" fill="#fff" fill-opacity=".4"/><path d="m37.3846966 90.2751759-1.46-5.86c-.09-.34 0-.51.38-.51h10.86c.3029574-.0084624.5646568.2103355.61.51l1.45 5.86c.07.32 0 .48-.34.5h-10.84c-.3167496.0310306-.6041242-.1866774-.66-.5z" fill="#fff" fill-opacity=".4"/><g fill="#79e2f2"><path d="m47.8646966 57.8251759c-2.2024655-2.655105-5.3076752-4.4035659-8.72-4.91-3.4107981-.5902693-6.9103471.3210716-9.6 2.5-4.1851443 3.2180951-6.0337472 8.6311949-4.6912617 13.7370055 1.3424854 5.1058106 5.6145105 8.9095961 10.8412617 9.6529945 3.4531413.4997713 6.9622356-.4095297 9.7381101-2.523407 2.7758744-2.1138773 4.5854951-5.2548715 5.0218899-8.716593.5468424-3.4665339-.3935388-7.0029483-2.59-9.74zm3.72-2.73c2.96487 3.6384165 4.2574906 8.35866 3.56 13-.4726799 4.765597-2.9164296 9.1164866-6.74 12h-.2c-3.7469604 2.9190488-8.5442565 4.1374097-13.23 3.36-4.7078987-.5695899-8.9860031-3.0170194-11.8631752-6.7867174-2.8771722-3.7696981-4.1093493-8.5418913-3.4168248-13.2332826.4657595-4.7134401 2.9586844-8.9911971 6.83-11.72 3.6986169-3.0820629 8.5400883-4.4325786 13.3-3.71 4.7330942.6316697 8.9918023 3.1992071 11.76 7.09z" fill-opacity=".2"/><path d="m47.8646966 57.8251759c2.1964612 2.7370517 3.1368424 6.2734661 2.59 9.74-.4363948 3.4617215-2.2460155 6.6027157-5.0218899 8.716593-2.7758745 2.1138773-6.2849688 3.0231783-9.7381101 2.523407-5.2360142-.7280618-9.5224578-4.5296549-10.8708203-9.6411945s.5052051-10.5327937 4.7008203-13.7488055c2.6896529-2.1789284 6.1892019-3.0902693 9.6-2.5 3.4195207.5017525 6.5325956 2.250631 8.74 4.91zm-3.42 8.84c.1885033-1.894366-.3514106-3.7894284-1.51-5.3-1.0790551-1.5836881-2.7880044-2.6258193-4.69-2.86-1.9223063-.2989974-3.8823362.2154652-5.41 1.42-1.5436978 1.1763701-2.5578374 2.9169503-2.82 4.84-.2788796 1.880768.2192999 3.794066 1.38 5.3 1.1938012 1.63347 2.9969141 2.7153378 5 3 1.890919.2192041 3.7904483-.3322722 5.27-1.53 1.5502502-1.1778478 2.5539998-2.9362149 2.78-4.87z" fill-opacity=".5"/><path d="m44.4446966 66.6651759c-.238755 1.9261534-1.2492439 3.6728555-2.8 4.84-1.4841489 1.1870405-3.3832105 1.7275703-5.27 1.5-2.0030859-.2846622-3.8061988-1.36653-5-3-1.1607001-1.505934-1.6588796-3.419232-1.38-5.3.2621626-1.9230497 1.2763022-3.6636299 2.82-4.84 1.5276638-1.2045348 3.4876937-1.7189974 5.41-1.42 1.9019956.2341807 3.6109449 1.2763119 4.69 2.86 1.1805885 1.5232895 1.7285745 3.4430315 1.53 5.36z"/></g><path d="m66.7346966 26.9351759c-.0906782-.1721208-.0906782-.3778792 0-.55l.72-1.8c.0954004-.1564176.2344322-.2815462.4-.36.1749681-.0601911.3650319-.0601911.54 0 .1650929.0752964.3017577.2014486.39.36v.07c.0800354.1535287.0800354.3364713 0 .49l-.72 1.79c-.0857855.1724031-.2315875.3075366-.41.38-.1770964.0845328-.3829036.0845328-.56 0-.1832718-.0465895-.3233779-.1944793-.36-.38zm-10.89 54.71c.4719701-1.9884596 1.1908875-3.9100518 2.14-5.72 2.4856998-5.1512081 7.0453383-9.0018119 12.54-10.59 6.1133333.4866666 9.0433333 4.7366666 8.79 12.75 0 1.59-.07 3.32-.16 5.18-.56 10.52-1.2733334 18.5200001-2.14 24.0000001-.2 1.2-.4 2.32-.61 3.38-2.62 14-7.87 21.593333-15.75 22.78-3.0779078.492872-6.2317533.147434-9.13-1-2.736454-1.076468-5.4076727-2.311907-8-3.7.33-.56.69-2.58 1.08-6.09.2204842-3.134802 1.2245112-6.164076 2.92-8.81 1.7733333.393333 2.8466666-.663333 3.22-3.17 1.3333333-7.1 2.3933333-13.1000001 3.18-18.0000001.21-1.29.39-2.5.54-3.62-.0046836-.0298172-.0046836-.0601828 0-.09-.0013937-.1823495.0221579-.364033.07-.54.0419483.2526916.1089452.5005803.2.74.4114584 1.528685 1.2387795 2.9133228 2.39 4 .39.39.78.74 1.17 1.06 4.029351 2.9217375 9.6405855 2.1791183 12.7711735-1.6902019s2.6855349-9.5119582-1.0129413-12.8426479c-3.6984761-3.3306898-9.3567486-3.1844465-12.8782322.3328498-.5111045.4880372-.9580274 1.0391302-1.33 1.64zm9 20.4400001c.8880394.028395 1.6942256-.515781 2-1.35v-.18c.1329589-.478312.0680981-.9899914-.18-1.4200001-.2007227-.3540178-.5191849-.6264799-.9-.77l-9.67-2.61c-.4545899-.1412609-.9483026-.0754326-1.35.18-.4389497.22675-.7646608.6248414-.9 1.1l-.07.2c-.1195368.4573273-.0624104.9429017.16 1.36.2575936.4372713.6668489.7646755 1.15.92zm10.82 190.36h15c-.0356412 3.353235.25236 6.702087.86 10 .15.78.28 1.54.38 2.28.3302995 2.221109.4874395 4.464534.47 6.71-.0215846 1.388228-.1250979 2.773971-.31 4.15h-26c-1.2133334-.153333-2.3566667-1.153333-3.43-3-1.1185963-1.874731-2.9046925-3.25717-5-3.87.43-.2.89-.39 1.35-.57 4.6435668-1.744925 8.9808314-4.215647 12.85-7.32 3.1266666-2.746667 4.3933333-5.54 3.8-8.38zm-.09 10.5c-.9987746.903451-1.5599317 2.193383-1.54 3.54.0537556 2.558006 1.9403645 4.706293 4.47 5.09.221847.032697.4457572.049406.67.05 1.3638269.014645 2.6720456-.539808 3.61-1.53.3950869-.378367.7320634-.813067 1-1.29.0453881-.123376.0988366-.243635.16-.36.2359178-.639937.3511976-1.318054.34-2 .0250701-1.337379-.5160927-2.623095-1.49-3.54-.93303-.999618-2.2426526-1.561921-3.61-1.55-1.3926707-.024937-2.7277662.555063-3.66 1.59z" fill="#fff"/><path d="m59.6546966 37.8551759.11-1.12c1.1154097.0786998 2.234024-.0991838 3.27-.52.1051963-.0607352.2348036-.0607352.34 0 .1441027.0683488.2630511.1803002.34.32.0735821.1231814.0735821.2768185 0 .4-.0524637.1463104-.1654284.2629191-.31.32-1.1909136.4724395-2.4711322.6772745-3.75.6z" fill="#403294"/><path d="m119.644697 131.605176 5.14 98.12c.21 3.6-.51 6.06-2.17 7.4l-2.09 1.64c-1.007591.803867-2.077646 1.526154-3.2 2.16-6.58 3.72-15.156667 4.69-25.7300004 2.91-3.9546766-.705236-7.8620939-1.653703-11.7-2.84-7.2628071-2.25759-14.712228-3.863935-22.26-4.8-3.28-.37-6.5-.61-9.67-.7h-2.1-1.58c-3.68-.153333-5.2733334-2.153333-4.78-6l12-97c2.8982467 1.147434 6.0520922 1.492872 9.13 1 7.88-1.22 13.13-8.813333 15.75-22.78.21-1.06.41-2.18.61-3.38.8733333-5.493333 1.5866666-13.4933335 2.14-24.0000001.09-1.86.14-3.59.16-5.18.2533333-8-2.6766667-12.25-8.79-12.75.678886-.2201892 1.3700654-.4004969 2.07-.54l1.33-.32c6.1269914-1.0275211 12.3125275-1.6687862 18.52-1.92 4.2933333-.22 8.7500004-.2866667 13.3700004-.2.749785.4649233 1.424218 1.0415631 2 1.71 6.806666 7.2066666 10.756666 29.6966666 11.85 67.4700001z" fill="url(#s)"/><path d="m108.824697 63.4651759c-.971024-.493157-1.998627-.8659148-3.06-1.11-2.72-7.8-7.6400004-10.9933334-14.7600004-9.58-3.3121164.6507642-6.4816993 1.8867661-9.36 3.65-2.4430284 1.5206997-4.6697706 3.3639848-6.62 5.48l-.14.14c-11.3733334.52-17.6233334-.4133334-18.75-2.8-1.1266667-2.3866667-.26-4.4233334 2.6-6.11 2.17-1.24 3.28-2.77 3.31-4.57-.0067649-.6153093-.1218566-1.2246178-.34-1.8-.86-2.56.14-5.0566667 3-7.49 2.86-2.4333334 4-4.46 3.42-6.08-.6666667-1.7-.2233334-3.5633334 1.33-5.59 1.4444996-1.7024953 1.6947387-4.1175014.63-6.08-.66-1.13-1.33-2.41-2-3.86-.56-1.09-1.12-2.27-1.69-3.54-1.3374281-2.8158437-1.1683038-6.11564605.45-8.78000002 1.4892883-2.84284961 4.3069124-4.74756351 7.5-5.07 3.44-.49333333 8.9833333-.32333333 16.63.51 7.6466666.83333333 13.6466664 3.13333333 18.0000004 6.9 4.386666 3.71333332 6.346666 7.71333332 5.88 12.00000002-.566327 3.8517344.275128 7.7785224 2.37 11.06 2.066666 3.04 2.486666 5.73 1.26 8.07-1.226667 2.34-1.753334 3.9033333-1.58 4.69.15.81.39 2.55.7 5.23.233438 2.5984745.135992 5.2160742-.29 7.79-.42 2.48-1.42 3.96-3 4.44-1.411319.4934278-2.787773 1.0814273-4.12 1.76-.4.1866666-.856667.4333333-1.37.74z" fill="url(#t)"/><path d="m108.824697 63.4651759c5.413333 2.9 9.44 10.3366666 12.08 22.31 3.08 14.1533333 4.92 24.5633331 5.52 31.2300001s-1.66 11.546667-6.78 14.64c-1.1-37.7800001-5.043334-60.2933335-11.83-67.5400001-.575782-.6684369-1.250215-1.2450767-2-1.71 1.042463.2351822 2.052997.5944085 3.01 1.07z" fill="url(#v)"/><path d="m62.0446966 48.5651759c-.1213392-.0343314-.2362056-.0883862-.34-.16-2.25-1.11-3.15-3.18-2.68-6.2.2533333-1.4466667.4633333-2.8966667.63-4.35 1.2988345.0862168 2.6005265-.1187741 3.81-.6.1445716-.0570809.2575363-.1736896.31-.32.0735821-.1231815.0735821-.2768186 0-.4-.0769489-.1396998-.1958973-.2516512-.34-.32-.1051964-.0607352-.2348037-.0607352-.34 0-1.035976.4208162-2.1545903.5986998-3.27.52 0-.4666667.03-.9266667.09-1.38.06-.67.13-1.33.19-2 .19-2.9 1-4.65 2.38-5.27s2.9-3.1 4.4-7.41c.36-1 .76-2 1.22-3.05.69 1.45 1.36 2.73 2 3.86 1.0647387 1.9624986.8144996 4.3775047-.63 6.08-1.5333334 2-1.9766667 3.8633333-1.33 5.59.6466666 1.7266666-.4933334 3.7533333-3.42 6.08-2.86 2.44-3.86 4.9366666-3 7.49.2159887.5892226.3243766 1.2124529.32 1.84zm4.69-21.63c.0324356.198752.1831714.3574212.38.4.1770964.0845328.3829036.0845328.56 0 .1784125-.0724634.3242145-.2075969.41-.38l.72-1.79c.0800354-.1535287.0800354-.3364713 0-.49v-.07c-.0882423-.1585514-.2249071-.2847036-.39-.36-.1749681-.0601911-.3650319-.0601911-.54 0-.1655678.0784538-.3045996.2035824-.4.36l-.72 1.8c-.0901731.1635444-.0975912.3601248-.02.53z" fill="url(#x)"/><path d="m55.7346966 82.2551759c-.4066667 1.7733333-.79 3.8333333-1.15 6.18-.0478421.175967-.0713937.3576505-.07.54l-3.15-2.53-5.3-3.87c-.3566585-.2639841-.5997195-.6535966-.68-1.09-.0687135-.4241915.0478017-.8574823.32-1.19.214953-.3847348.6193173-.6250645 1.06-.63.4324979-.0663634.8742484.0298243 1.24.27l4.93 3.4c.8774484-.4908463 1.8202103-.854483 2.8-1.08z" fill="url(#y)"/><path d="m54.5846966 88.4351759c.36-2.3533334.7433333-4.4133334 1.15-6.18 0-.21.08-.41.11-.61.3719726-.6008698.8188955-1.1519628 1.33-1.64 3.5105677-3.4684685 9.1163459-3.5991338 12.7847065-.2979993 3.6683607 3.3011346 4.1275257 8.8896041 1.0471855 12.7452316-3.0803402 3.8556276-8.6322672 4.641712-12.661892 1.7927677-.39-.32-.78-.67-1.17-1.06-1.1512205-1.0866772-1.9785416-2.471315-2.39-4-.0916975-.2426449-.1587029-.493915-.2-.75zm-21.23 33.1900001c.5133333-5.18 1.5133333-8.936667 3-11.27l.52-.74c.8133333-1.073333 2.03-1.276667 3.65-.61l6.08 2.68c.63.26.94 1 .93 2.14-1.6919611 2.646879-2.6925283 5.676088-2.91 8.81-.39 3.51-.75 5.53-1.08 6.09-.2131626.477464-.726062.746323-1.24.65l-6.87-2.66c-1.5985572-.461928-2.5650159-2.084354-2.21-3.71.03-.46.07-.91.13-1.38z" fill="url(#A)"/><path d="m53.9546966 92.6851759c-.3624806-.3854168-.6966815-.7964839-1-1.23-1.2406155-1.3497312-1.8096105-3.1851988-1.55-5l3.12 2.55c-.0046836.0298172-.0046836.0601828 0 .09-.18 1.09-.36 2.3-.57 3.59z" fill="url(#B)"/><path d="m105.764697 62.3551759c-4.626667-.0866667-9.0833338-.02-13.3700004.2-6.2074725.2512138-12.3930086.8924789-18.52 1.92l-1.33.32c.77-1 1.55-1.88 2.34-2.75l.14-.14c1.9502294-2.1160152 4.1769716-3.9593003 6.62-5.48 2.8783007-1.7632339 6.0478836-2.9992358 9.36-3.65 7.12-1.4066667 12.0400004 1.7866666 14.7600004 9.58z" fill="url(#C)"/><path d="m64.8146966 102.085176-9.69-2.5900001c-.4831511-.1553245-.8924064-.4827287-1.15-.92-.2224104-.4170983-.2795368-.9026727-.16-1.36l.07-.2c.1353392-.4751586.4610503-.87325.9-1.1.4016974-.2554326.8954101-.3212609 1.35-.18l9.67 2.61c.3808151.1435201.6992773.4159822.9.77.2480981.4300087.3129589.9416881.18 1.4200001v.18c-.3057744.834219-1.1119606 1.378395-2 1.35z" fill="url(#D)"/><path d="m25.2146966 106.255176c-.1030275.245679-.2563105.467087-.45.65-1.56 1.72-2.39 4.65-2.5 8.82-.0262274.258291-.0798626.513058-.16.76-.0991682.197859-.2272385.379854-.38.54-.3743135.289548-.8369051.441391-1.31.43-.4693663.009163-.919075-.18827-1.23-.54-.325949-.321543-.5065421-.76219-.5-1.22 0-.21 0-.42 0-.65.18-4.666667 1.18-8.033333 3-10.1.17-.19.33-.37.5-.54.5063296-.520588 1.2758945-.685922 1.9513634-.419232s1.1245163.913159 1.1386366 1.639232c.0081335.211734-.0120448.423607-.06.63z" fill="url(#E)"/><path d="m8.09469657 97.8451759c.35594087-.2678899.75041811-.4803007 1.17-.63 1.08752353-.1854232 2.20579383-.0281664 3.20000003.45.29276.0607285.5803078.144318.86.25 1.5013892.686167 2.9287918 1.5238445 4.26 2.5000001.2574777.142682.5047388.303067.74.48 1.3612903 1.121444 2.5125126 2.475823 3.4 4-.5774756-.268412-1.1212398-.604069-1.62-1-.9780217-.733763-2.0036029-1.401894-3.07-2-2.22-1.006667-4.4566667-2.0066668-6.71-3.0000001z" fill="url(#F)"/><path d="m18.7046966 115.005176c-1.2004418-.294994-2.4464525-.356106-3.67-.18-2.3777212.163392-4.7631375-.177382-7.00000003-1l-.11-.11c-1.66293228-.907342-2.71234532-2.636011-2.75-4.53-.14666666-2.246667-.26-4.596667-.34-7.05-1.7-.74-2.20333333-1.926667-1.51-3.5600001.13964206-.3146787.32869443-.6050092.56-.86.76649649-.6961209 1.86916681-.8798993 2.82-.47l1.4.6 2.23000003 1c2.2533333.9933333 4.49 1.9933331 6.71 3.0000001 1.0663971.598106 2.0919783 1.266237 3.07 2 .4987602.395931 1.0425244.731588 1.62 1-1.8333334 2.146667-2.8433334 5.533333-3.03 10.16zm17.62-4.69c-1.4666667 2.333333-2.4666667 6.09-3 11.27l-11.25-5.14c.0801374-.246942.1337726-.501709.16-.76.11-4.17.94-7.1 2.5-8.82.1936895-.182913.3469725-.404321.45-.65z" fill="url(#G)"/><path d="m91.6346966 261.165176v24.12h-17.76l-16.2-49.09c7.547772.936065 14.9971929 2.54241 22.26 4.8 3.8379061 1.186297 7.7453234 2.134764 11.7 2.84z" fill="url(#I)"/><path d="m91.6346966 261.165176v-17.33c10.5666664 1.773333 19.1433334.803333 25.7300004-2.91v44.36h-17.7800004z" fill="url(#J)"/><path d="m116.394697 292.445176h-16.4900004c-.4905446.071489-.9860374-.0929-1.3365689-.443431-.3505316-.350532-.5149203-.846025-.4434311-1.336569v-3.58c-.0607139-.473914.0935429-.950163.4205785-1.298485s.7926249-.532264 1.2694215-.501515h18.0900004c.474455-.02819.936642.157351 1.259907.50578.323264.348429.473704.823204.410093 1.29422v3.58c0 1.14-.52 1.74-1.58 1.78z" fill="url(#L)"/><path d="m101.364697 292.445176h15c-.005516 3.352035.282248 6.698126.86 10 .578543 2.965585.879842 5.978576.9 9-.035067 1.389391-.155292 2.775325-.36 4.15h-25.6800004c.1849021-1.376029.2884154-2.761772.31-4.15.0174395-2.245466-.1397005-4.488891-.47-6.71 1.981183-1.122347 3.8527147-2.428067 5.59-3.9 3.1400004-2.753333 4.4233334-5.55 3.8500004-8.39zm8.61 14c.028864-1.338105-.512921-2.625301-1.49-3.54-.925527-1.004328-2.234367-1.567856-3.6-1.55-1.372811-.010175-2.687942.551382-3.63 1.55-.973908.916905-1.5150706 2.202621-1.4900004 3.54-.0336606 1.359429.5072954 2.670068 1.4900004 3.61.949652.985246 2.261613 1.538221 3.63 1.53009 2.814644-.038257 5.079348-2.325207 5.09-5.14009z" fill="url(#M)"/><path d="m109.974697 306.485176c-.010652 2.814883-2.275356 5.101833-5.09 5.14009-1.368387.008131-2.680348-.544844-3.63-1.53009-.982705-.939932-1.523661-2.250571-1.4900004-3.61-.0250702-1.337379.5160924-2.623095 1.4900004-3.54.942058-.998618 2.257189-1.560175 3.63-1.55 1.365633-.017856 2.674473.545672 3.6 1.55.977079.914699 1.518864 2.201895 1.49 3.54z" fill="url(#O)"/><path d="m91.6546966 317.075176c.1990445-.492675.3432464-1.005766.43-1.53h25.7100004c-.08167.520133-.208825 1.032097-.38 1.53-.087419-.030484-.182582-.030484-.27 0zm-15.59 0h3.46c-1.35 0-2.52.05-3.49.05z" fill="url(#P)"/><path d="m90.6846966 292.445176h-16.52c-.4927935.074137-.9916813-.088561-1.3460232-.438965-.354342-.350405-.5226032-.847444-.4539768-1.341035v-3.58c-.0554406-.481578.1076915-.962676.4446092-1.311211.3369177-.348536.812211-.527878 1.2953908-.488789h18c.4767965-.030749.9423859.153193 1.2694214.501515.3270356.348322.4812924.824571.4205786 1.298485v3.58c0 1.14-.52 1.74-1.57 1.78h-1.56z" fill="url(#Q)"/><path d="m75.5246966 302.945176c.9255269-1.004328 2.2343664-1.567856 3.6-1.55 1.3673474-.011921 2.67697.550382 3.61 1.55.9739073.916905 1.5150701 2.202621 1.49 3.54.0111976.681946-.1040822 1.360063-.34 2-.0611634.116365-.1146119.236624-.16.36-.2679366.476933-.6049131.911633-1 1.29-.9379544.990192-2.2461731 1.544645-3.61 1.53-.2242428-.000594-.448153-.017303-.67-.05-2.5296355-.383707-4.4162444-2.531994-4.47-5.09-.029037-1.362056.5368856-2.669155 1.55-3.58z" fill="url(#R)"/><path d="m79.5246966 317.075176h-25.75c-1.34 0-2.48.05-3.43.05v-1.58c.2933333-2.546667 2.7133333-4.836667 7.26-6.87 2.0953075.61283 3.8814037 1.995269 5 3.87 1.08 1.846667 2.2233333 2.846667 3.43 3h26.05c-.0867536.524234-.2309555 1.037325-.43 1.53-.0806577-.029864-.1693423-.029864-.25 0z" fill="url(#S)"/></g></g></svg>