<svg height="379" viewBox="0 0 557 379" width="557" xmlns="http://www.w3.org/2000/svg" xmlns:xlink="http://www.w3.org/1999/xlink"><defs><linearGradient id="a" x1="100%" x2=".372149%" y1="29.077715%" y2="71.079177%"><stop offset="0" stop-color="#33e4f2"/><stop offset="1" stop-color="#8c6fff"/></linearGradient><linearGradient id="b"><stop offset="0" stop-color="#0d0e0f"/><stop offset="1" stop-color="#151f44"/></linearGradient><linearGradient id="c" x1="114.723695%" x2="19.252306%" xlink:href="#b" y1="59.190693%" y2="50.162984%"/><linearGradient id="d" x1="100%" x2=".007063%" xlink:href="#b" y1="50.054609%" y2="50.054609%"/><linearGradient id="e" x1="49.996151%" x2="49.996151%" y1="99.815942%" y2="-.074619%"><stop offset="0" stop-color="#213067"/><stop offset="1" stop-color="#151f44"/></linearGradient><filter id="f" height="149%" width="139.3%" x="-19.7%" y="-24.5%"><feGaussianBlur in="SourceGraphic" stdDeviation="3.83680012"/></filter><linearGradient id="g" x1="99.966614%" x2="-.016664%" xlink:href="#b" y1="49.89802%" y2="49.89802%"/><linearGradient id="h" x1="-.262033%" x2="84.909752%" y1="7.96663%" y2="84.653465%"><stop offset="0" stop-color="#b3ffff"/><stop offset="1" stop-color="#55fffa"/></linearGradient><linearGradient id="i" x1="100%" x2="0%" y1="50%" y2="50%"><stop offset="0" stop-color="#fff"/><stop offset=".768633868" stop-color="#fafeff"/><stop offset="1" stop-color="#e6fcff"/></linearGradient><linearGradient id="j" x1="50%" x2="50%" y1="0%" y2="100%"><stop offset="0" stop-color="#e6fcff"/><stop offset="1" stop-color="#fff"/></linearGradient><linearGradient id="k"><stop offset="0" stop-color="#79e2f2"/><stop offset=".17" stop-color="#b3f5ff"/><stop offset=".99" stop-color="#f9fdff"/></linearGradient><linearGradient id="l" x1="50.796821%" x2="47.624938%" xlink:href="#k" y1="13.139026%" y2="330.337614%"/><linearGradient id="m" x1="50.738699%" x2="48.703925%" xlink:href="#k" y1="20.538941%" y2="224.158612%"/><linearGradient id="n" x1="49.22252%" x2="52.439678%" xlink:href="#k" y1="-71.052632%" y2="146.616541%"/><linearGradient id="o" x1=".945388%" x2="100%" y1="28.379164%" y2="72.037517%"><stop offset="0" stop-color="#ff8f73"/><stop offset="1" stop-color="#f56dc8"/></linearGradient><rect id="p" height="172.5504" rx="11.9548" width="259.908" x=".8096"/><filter id="q" height="113.3%" width="108.8%" x="-5.2%" y="-5.5%"><feOffset dx="-2" dy="2" in="SourceAlpha" result="shadowOffsetOuter1"/><feGaussianBlur in="shadowOffsetOuter1" result="shadowBlurOuter1" stdDeviation="3.5"/><feColorMatrix in="shadowBlurOuter1" type="matrix" values="0 0 0 0 0.250980392   0 0 0 0 0.196078431   0 0 0 0 0.580392157  0 0 0 0.3 0"/></filter><linearGradient id="r" x1="49.729086%" x2="49.729086%" y1="71.738375%" y2="-.41912%"><stop offset="0" stop-color="#3d4f7b"/><stop offset="1" stop-color="#202c4b"/></linearGradient><linearGradient id="s" x1=".737128%" x2="100.087771%" y1="51.115522%" y2="48.804389%"><stop offset="0" stop-color="#8f7ef0"/><stop offset="1" stop-color="#ff71c2"/></linearGradient><linearGradient id="t" x1="106.607647%" x2="1.378759%" xlink:href="#b" y1="31.02222%" y2="61.121177%"/><linearGradient id="u"><stop offset="0" stop-color="#fff" stop-opacity=".5"/><stop offset="1" stop-color="#fff" stop-opacity="0"/></linearGradient><linearGradient id="v" x1="49.99995%" x2="49.99995%" xlink:href="#u" y1="0%" y2="100%"/><linearGradient id="w" x1="54.017162%" x2="54.017162%" xlink:href="#u" y1="161.719167%" y2="-3.396382%"/><linearGradient id="x"><stop offset=".41" stop-color="#fff"/><stop offset="1" stop-color="#e1ecf2"/></linearGradient><linearGradient id="y" x1="71.551957%" x2="22.321188%" xlink:href="#x" y1="48.782252%" y2="50.31899%"/><linearGradient id="z" x1="49.798387%" x2="49.798387%" y1="99.553831%" y2="-404.112512%"><stop offset="0" stop-color="#ffaf73"/><stop offset=".74" stop-color="#ffc7c7"/><stop offset="1" stop-color="#fffbfb"/></linearGradient><linearGradient id="A" x1="100.20202%" x2=".30303%" xlink:href="#x" y1="542.416571%" y2="542.416571%"/><linearGradient id="B"><stop offset="0" stop-color="#ffdec7"/><stop offset="1" stop-color="#fff"/></linearGradient><linearGradient id="C" x1="49.994342%" x2="49.994342%" xlink:href="#B" y1="99.632706%" y2="-114.975159%"/><linearGradient id="D" x1="49.981105%" x2="49.981105%" y1="99.791457%" y2="-.026846%"><stop offset="0" stop-color="#ff7e66"/><stop offset="1" stop-color="#ffc7c7"/></linearGradient><linearGradient id="E"><stop offset="0" stop-color="#ffdec7" stop-opacity=".7"/><stop offset="1" stop-color="#fff" stop-opacity=".8"/></linearGradient><linearGradient id="F" x1="49.997373%" x2="49.997373%" xlink:href="#E" y1="101.490718%" y2="-.022167%"/><linearGradient id="G" x1="50.021274%" x2="50.021274%" y1="100%" y2="-.011454%"><stop offset="0" stop-color="#ffaf73" stop-opacity=".6"/><stop offset=".74" stop-color="#ffc7c7" stop-opacity=".6"/><stop offset="1" stop-color="#fffbfb" stop-opacity=".6"/></linearGradient><linearGradient id="H" x1="49.997499%" x2="49.997499%" xlink:href="#E" y1="295.578978%" y2="395.577067%"/><linearGradient id="I" x1="50.017775%" x2="50.017775%" xlink:href="#B" y1="1806.34606%" y2="2550.81093%"/><mask id="J" fill="#fff"><use fill="#fff" fill-rule="evenodd" xlink:href="#p"/></mask></defs><g fill="none" fill-rule="evenodd"><g transform="translate(.275)"><path d="m6.00289328 217.878932c-23.91794428-93.049398 20.38155252-217.878932 191.93941672-217.878932 171.557865 0 351.035417 121.712982 357.41335 195.774108 6.377934 74.061125-142.828054 164.943518-298.906103 164.943518s-226.5287194-49.789295-250.44666372-142.838694z" fill="url(#a)" fill-opacity=".7" transform="matrix(-1 0 0 1 555.55305 0)"/><path d="m357.61074 0c97.209635 0 153.560648 40.0787995 179.794151 91.744945-1.981773 2.4360192-3.717364 5.3415716-5.069012 8.709979-5.360094 13.348521-1.877566 30.322355-6.545925 44.090362-6.406215 18.900742-20.803161 21.789398-32.934078 21.468815-2.185932-.057296-4.454619-.406061-6.755414-.800769l-.6582-.113812c-.109831-.019106-.219724-.038264-.329673-.057446l-.660329-.115176-.992457-.171089c-7.284854-1.238537-14.69628-2.006986-20.662023 5.316733-4.763771 5.84211-6.416438 13.740724-7.09795 22.089518-.783739 9.576557-.337348 19.78746-2.62723 28.845628-5.032967 19.917057-20.895164 26.23322-34.297102 24.896322-3.520692-.261412-7.125838-.875513-10.742287-1.536728l-1.033516-.189937c-.516848-.095345-1.033785-.191058-1.550597-.286248l-1.033395-.189417c-12.397225-2.2583-24.640695-3.873055-33.782228 7.471483-9.084558 11.274964-2.760124 3.042126-1.809415 16.711229.402093 5.753438.569063 12.199198-3.428006 16.48614-4.218561 4.522263-11.360809 4.808742-17.661389 4.57001-9.5991-.362645-19.19252-1.178502-28.781271-2.020505l-3.384072-.297568-3.383695-.295567c-16.917546-1.465878-33.821289-2.70025-50.716778-1.35613-1.518069.121071-3.03822.262795-4.559412.408734l-2.739045.263693c-6.697093.638355-13.40225 1.1674-20.026776.187008-9.033444-1.336899-18.179338-6.172924-21.518748-14.385299-1.681247-4.134572-1.734339-8.622085-1.694308-13.107357l.011545-1.169787c.01164-1.169269.020533-2.336283-.000572-3.494738-.204454-11.298837-3.690389-3.928844-15.698634-9.385572-12.918064-5.886445-26.606237.276247-40.01499 1.616556s-29.264134-4.975854-34.303917-24.896322c-1.870751-7.400687-2.538633-15.596011-2.954355-23.590117-.538395-10.323448-1.001823-20.275155-6.764009-27.345029-5.972845-7.321349-13.3880838-6.553823-20.6723186-5.316071l-.992345.170984c-2.8635748.498238-5.6957206 1.015708-8.400248 1.086646-12.1309175.320583-26.527863-2.568073-32.9340778-21.468815-2.2438701-6.617661-2.6030725-13.975963-2.9665496-21.316338 65.065606-62.0193936 190.709537-123.228948 312.370651-123.228948z" fill="#fff" fill-opacity=".3"/></g><g transform="matrix(.98162718 .190809 -.190809 .98162718 316.133368 14.587482)"><path d="m27.0642648 25.6207376c3.8563179 1.0510601 7.806914 1.6985591 11.79101 1.9325357 12.005522.6880998 24.1683527-2.5181525 36.1381227-9.516274 3.4337049-2.0214204 4.6166012-6.5097786 2.6420727-10.02502854-1.9745284-3.51524998-6.3587679-4.72623822-9.7924729-2.70481797-19.1416214 11.22188311-37.5324508 10.13849191-56.2378977-3.30141504-2.09476544-1.50508184-4.81473364-1.75175089-7.13531892-.64708929-2.32058527 1.1046616-3.88923552 3.39282945-4.11505536 6.00257287-.22581984 2.60974341.92549814 5.14458027 3.02026358 6.64966207 7.1633135 5.2742563 15.1841113 9.2051613 23.6892759 11.6098542z" fill="url(#c)" fill-rule="nonzero" transform="matrix(.9998477 -.01745241 .01745241 .9998477 6.794296 145.497617)"/><path d="m100.038539 154.48815c-.6957491 1.393566-1.6285946 2.66174-2.7588166 3.750525-3.8809555 3.779231-9.7097708 4.90577-14.7722362 2.85504-5.0624654-2.050731-8.3633243-6.875567-8.3655193-12.227806-.0605452-3.514461 1.3842536-6.894004 3.9857634-9.323137.5293272-.499749 1.0842205-.973011 1.6625497-1.417968 1.6162585 2.099392 3.3850098 4.08257 5.292571 5.934195 4.3205981 4.305715 9.3829274 7.835864 14.955688 10.429151z" fill="url(#d)" fill-rule="nonzero"/><path d="m142.703629 130.451204h25.438112c-2.582386 5.046218-5.982954 9.640096-10.06669 13.599245-.405273.443765-.832257.866057-1.273715 1.266877-.62079-2.211581-1.821694-4.22155-3.481004-5.826203-5.153538-5.143464-13.513637-5.285373-18.842604-.319844s-5.683316 13.227558-.798658 18.621564c-4.114347.961479-8.328596 1.441934-12.556223 1.4315-7.592155.079466-15.108733-1.496774-22.0150035-4.616586-5.5572947-2.626648-10.6037116-6.200277-14.9082533-10.557308-1.901511-1.869295-3.6646525-3.871399-5.2757848-5.990825-1.8121713-2.395804-3.4126256-4.941325-4.7836677-7.60842z" fill="url(#e)" fill-rule="nonzero"/><path d="m2.84317015 141.858734c4.81240074-.834154 8.70402565.856105 11.67487485 5.070779m-14.38800048 3.0732c4.81240073-.834154 8.71574037.858544 11.71001888 5.078096" stroke="#577288" stroke-linecap="round" stroke-linejoin="round" stroke-width="6.148472" transform="matrix(.9998477 -.01745241 .01745241 .9998477 -2.588235 .150419)"/><g fill-rule="nonzero"><path d="m149.324704 37.8082344h-2.379836c1.214104-.0195566 2.189141-1.0062512 2.1929-2.2191197v-.8402493c-.104318-12.5842952-10.175279-22.8216176-22.770213-23.1463529 2.708841-1.0277591 4.296168-3.84149981 3.773108-6.68831811s-3.007219-4.91419439-5.904895-4.91419439-5.381835 2.06737609-5.904895 4.91419439 1.064267 5.66055901 3.773108 6.68831811c-12.483729.1929615-22.4693491 10.4174038-22.3532023 22.8878147v1.5081397c.0118598 1.2227839 1.0118243 2.2055471 2.2360393 2.1975749h-2.3726462c-1.1695203.0075789-2.2879039.4799113-3.1081243 1.312669-.8202204.8327578-1.2747872 1.9574191-1.2635091 3.1255706.0199924 2.4285498 2.0049845 4.3823512 4.436342 4.36652l49.7033416-.4022672c2.432484-.0236919 4.387384-2.0084737 4.371518-4.4382396-.027736-2.4201047-2.006034-4.3640623-4.429036-4.3520602z" fill="#7dffff" fill-opacity=".6" filter="url(#f)"/><path d="m129.864432 149.097439c-.067269-3.687756 1.406255-7.237032 4.066976-9.796119 3.508852-3.477961 8.596691-4.847577 13.381418-3.602197 4.784728 1.24538 8.554962 4.920595 9.916015 9.666106.301426 1.218608.451798 2.469558.44774 3.72476.060744 3.70684-1.397541 7.27767-4.037127 9.885513-2.609088 2.617147-6.15532 4.088503-9.854023 4.088503-3.698702 0-7.244934-1.471356-9.854023-4.088503l-.544751-.595962c-2.330848-2.52381-3.593045-5.850073-3.522225-9.282101z" fill="url(#g)"/><path d="m208.080387 51.8040123c7.26597 0 10.898955 3.605354 10.898955 10.8160619v57.0150678c0 7.210708-3.632985 10.816062-10.898955 10.816062h-64.877847c.909024-.051405 1.814081-.157356 2.710207-.317271 5.144307-.961428 7.71646-4.468236 7.71646-10.520423v-57.0006465c0-7.0376509-3.475556-10.6430049-10.426667-10.8160619z" fill="url(#h)"/><path d="m25.2209362 119.61546v-57.0045852c0-7.2093821 3.6116895-10.8140732 10.8350684-10.8140732h107.3321864c6.905551.1730252 10.360734 3.7777162 10.365549 10.8140732v57.0045852c0 6.051074-2.557076 9.557237-7.671228 10.518488-.890873.159886-1.790625.265817-2.694321.317256h-107.3466332c-7.2137477.014376-10.8206216-3.597525-10.8206216-10.835744z" fill="url(#i)"/><g transform="translate(46.323337 78.654402)"><path d="m51.7640084 34.8454218c1.1543194 0 1.6304761.5831274 1.4428992 1.6853806-.1875769 1.1022531-1.4428992 2.0480574-3.607248 2.8445242-2.3689208.8660826-4.8754524 1.3091679-7.4020728 1.3084811-2.5272823.0080952-5.0351431-.435225-7.4020728-1.3084811-2.2148503-.8035781-3.4124566-1.7493824-3.607248-2.8445242-.1947914-1.0951419.1947914-1.6640467 1.3346817-1.6853806z" fill="#933"/><path d="m2.3230677 2.30406462c-1.05216977 1.00956875-1.63881105 2.39994078-1.62326159 3.84721902v10.66696586c-.03427833 1.461193.55453714 2.8696156 1.62326159 3.8827755 1.04510892 1.0404563 2.4755276 1.6157406 3.96075827 1.5929336 3.05064427-.027257 5.51131113-2.468583 5.51908943-5.4757091v-10.66696586c.0141727-1.45127684-.5811752-2.84371816-1.6449051-3.84721902-1.00682654-1.04497194-2.41236354-1.62546116-3.87418433-1.60004487-1.4867695-.02343443-2.91829941.55486697-3.96075827 1.60004487m70.8607792 3.84721902v10.66696586c-.034792 1.4556616.5422044 2.8607938 1.5944036 3.8827755 1.0362335 1.03608 2.4560028 1.6112721 3.9319003 1.5929336 1.4771856.0250295 2.8995244-.5512037 3.9319003-1.5929336 1.0668217-1.0138905 1.6530949-2.4224926 1.6160471-3.8827755v-10.66696586c-.0114486-2.2087528-1.3680791-4.19445721-3.4401592-5.03537221-2.0720802-.84091499-4.4538378-.37236551-6.0396885 1.18815319-1.035933 1.01808175-1.6108703 2.40537784-1.5944036 3.84721902z" fill="#19232b"/></g><path d="m147.324708 39.837414.176258.0045279c1.339725.0690664 2.401954.919927 2.415843 1.978977.014227 1.1050956-1.134567 2.0118407-2.570561 2.0118407l-46.6267.2904418-.176293-.0044921c-1.3402751-.0685242-2.4090982-.912879-2.4229866-1.9719289-.0142276-1.1050956 1.141747-2.0189246 2.5777406-2.0189246zm-22.103261-24.0001373c9.810413-.0512809 18.146544 7.1558134 19.506574 16.8646254.047275.4287351-.090437.8572961-.378656 1.1783803s-.699657.5042915-1.131298.5037506l-38.413501.3104361c-.429119-.0035447-.836664-.1885194-1.12168-.5091026-.285015-.3205832-.420839-.7467853-.373824-1.1730282 1.205454-9.7396335 9.440444-17.0828106 19.260936-17.1750616zm-1.634546-12.00047658c1.907096 0 3.453103 1.53504989 3.453103 3.42862989s-1.546007 3.42862989-3.453103 3.42862989-3.453103-1.53504989-3.453103-3.42862989 1.546007-3.42862989 3.453103-3.42862989z" fill="url(#j)"/><path d="m106.752939 141.673208-10.4854432 3.037804c-.9175879.275691-1.9114978.101222-2.6803421-.470501-.7688443-.571724-1.2220596-1.473357-1.2222154-2.431495v-11.357812h14.3808527z" fill="url(#l)"/><path d="m119.222539 141.65208 10.478296 3.054134c.911521.279738 1.901499.112827 2.671104-.450349s1.228661-1.456628 1.238601-2.410667v-11.393994h-14.373706z" fill="url(#m)"/><path d="m105.793739 130.451204h13.4288v10.457444c0 .788053-.312549 1.543829-.86889 2.101066-.556341.557238-1.310902.87029-2.097687.87029h-7.495646c-1.638396 0-2.966577-1.330321-2.966577-2.971356z" fill="url(#n)"/></g></g><g transform="matrix(.9781476 -.20791169 .20791169 .9781476 90.948886 198.597712)"><use fill="#000" filter="url(#q)" xlink:href="#p"/><use fill="url(#o)" fill-rule="evenodd" xlink:href="#p"/><path d="m-3.52 142.4984h271.458v30.0476h-271.458z" fill="#fff" fill-rule="nonzero" mask="url(#J)"/><path d="m21.128011 156.669074h121.2288" mask="url(#J)" stroke="#deebff" stroke-linecap="round" stroke-linejoin="round" stroke-width="9.7592"/><g fill-rule="nonzero"><path d="m167.7368 86.7812v.0352c-.041481 3.2065051-1.122264 6.3129837-3.08 8.8528-5.6892 7.7924-18.6912 13.2484-33.8272 13.279331-15.136.030669-28.16-5.385731-33.88-13.160531-1.969472-2.5304693-3.0614473-5.6334093-3.1108-8.8396v-.0352c.0552368-2.256285 1.9144025-4.0487718 4.1712-4.0216l65.56-.1144c2.24936-.0273002 4.104479 1.7553378 4.1668 4.004z" fill="url(#r)"/><rect fill="#fff" height="21.3972" rx="4.818" transform="matrix(.99999848 -.00174533 .00174533 .99999848 -.102499 .142787)" width="9.6404" x="76.939693" y="48.100228"/><rect fill="#fff" height="21.3972" rx="4.818" transform="matrix(.99999848 -.00174533 .00174533 .99999848 -.10235 .313839)" width="9.6404" x="174.945144" y="48.100776"/><path d="m164.648 95.6692c-5.6892 7.7924-18.6912 13.2484-33.8272 13.279331-15.136.030669-28.16-5.385731-33.88-13.160531 9.3192-3.8148 21.076-6.0984 33.8492-6.1205603 12.7732-.0218397 24.5212 2.2221603 33.858 6.0017603z" fill="url(#s)"/></g></g><g fill-rule="nonzero"><g transform="matrix(.99756405 -.06975647 .06975647 .99756405 356.906621 192.173705)"><path d="m34.0968911 44.548538c3.5490889-1.3958452 6.9521831-3.138123 10.1600049-5.2016047 10.0745669-6.4770667 18.0345428-16.1178492 23.6663325-28.6444534 1.6161245-3.59686168.0127321-7.82386173-3.5812772-9.44126889-3.5940092-1.61740716-7.8176572-.01274223-9.4337817 3.58411942-8.9923519 20.02261547-24.4352746 29.92704097-47.21874751 30.29044067-3.93217644.0629648-7.06883273 3.3041965-7.0059179 7.2394937.06291482 3.9352973 3.30157619 7.074443 7.23375263 7.0114782 8.94694608-.0166019 17.81682158-1.6558255 26.17963428-4.838205z" fill="url(#t)" transform="translate(7.813574)"/><path d="m2.74057151 13.6411947c-1.16331019-.2327018-1.93240736-1.3461179-1.73827116-2.5164819.19413621-1.17036399 1.28153155-1.97583111 2.45767118-1.82047252 2.57451787.48231557 5.23660769.06122136 7.53657167-1.1921486 1.063287-.58272671 2.3976448-.19315558 2.9803715.87013145.5827267 1.06328707.1931556 2.39764477-.8701314 2.98037157-.5770989.3195262-1.1744436.6010335-1.788223.8427257-2.72959821 1.0556786-5.69593585 1.3447307-8.57798879.8358743zm-.56866859-7.5708288c-.81334978-.07899983-1.51584009-.602446-1.82415299-1.35922998-.30831291-.75678397-.17160948-1.62211668.35497709-2.24700501s1.35622536-.90629198 2.15431878-.73071943c2.59728204.49951855 5.28747406.07538917 7.6050859-1.19900003 1.0613951-.58461863 2.3957528-.19811498 2.9803715.86328006s.1981151 2.39575279-.86328 2.98037148c-.5884389.32637549-1.1971784.61472577-1.82248.86328003-2.72347873 1.05165233-5.68273327 1.33833752-8.55743456.82902288z" fill="#577288" transform="translate(0 36.08)"/></g><g transform="matrix(.96592583 -.25881905 .25881905 .96592583 133.614252 57.832069)"><path d="m40.8469155.08492082c-11.2661624 0-20.871651 3.97712518-28.8164657 11.93137558-7.94481468 7.9542503-11.92665768 17.5597389-11.94552898 28.8164657 0 11.2586139 3.981843 20.8641024 11.94552898 28.8164657 7.963686 7.9523632 17.5691746 11.9342062 28.8164657 11.945529 11.245404 0 20.8508926-3.981843 28.8164657-11.945529 7.9655732-7.963686 11.9379805-17.5691746 11.917303-28.8164657 0-11.2586139-3.9724883-20.8641025-11.917303-28.8164657-7.9448147-7.95236327-17.5503032-11.92948845-28.8164657-11.93137558z" fill="url(#v)" transform="translate(7.946571 9.538327)"/><path d="m83.9009004 83.9150824c9.6078538-9.6154176 14.4108353-21.2021376 14.4089449-34.76016-.0018915-13.5580225-4.804873-25.1447425-14.4089449-34.7601601-9.5946173-9.59650819-21.17661-14.3947623-34.745978-14.3947623-13.5693681 0-25.1655428 4.79825411-34.7885241 14.3947623-9.57759888 9.5965082-14.3663983 21.1832282-14.3663983 34.7601601 0 13.5769318 4.78879942 25.1636518 14.3663983 34.76016 9.6059629 9.5965082 21.2021376 14.3947623 34.7885241 14.3947623s25.1683791-4.7982541 34.745978-14.3947623z" fill="url(#w)" transform="translate(.148407 .952152)"/><g transform="translate(15.988047 16.651557)"><path d="m40.096774 91.4824153 3.6400506-4.9611782-20.8283978.0285125 3.6259963 4.9326657c.5078275.6704041 1.1621207 1.2120985 1.911378 1.5824448.7143693.3639381 1.5056798.5450315 2.3048969.5274816l5.1860181.0142562c.789577-.0033831 1.5680853-.188621 2.2767884-.5417378.7408707-.3712141 1.3858223-.9131442 1.8832695-1.5824448z" fill="url(#y)"/><path d="m38.522698 79.5071576c-.0200763.4605278.1476693.9091227.4637902 1.2402945.3389376.3520752.8081212.5434808 1.292991.5274816l6.9568535-.0142562-.0281085-3.5070398-6.9427992-.0142563c-.4512779-.0296967-.8928094.1421634-1.2086655.4704566-.3597196.330098-.5555313.8057556-.5340615 1.2973196m-5.6779168-1.2830633c-.3498613-.3318072-.8141794-.510989-1.292991-.4989691h-12.1428716v3.5498085h12.1428716c.4770572.0269635.9426447-.1546825 1.2789367-.498969.3035805-.3514584.4730892-.80155.4778445-1.2688071.0141952-.4723358-.1519564-.9319898-.4637902-1.2830633z" fill="#e4eef2"/><path d="m33.2242459 59.7337261c-1.1274763.0101175-2.2543503-.0565617-3.3730199-.1995877v14.6696908l6.0995443-.0142563.8713635-.0142563v-14.6696907c-1.1934235.1521706-2.3950729.2283532-3.5978879.2281002z" fill="url(#z)"/><path d="m19.4510814 74.2038292-.0421628 3.521296h12.1428716c.4788116-.0120199.9431297.1671619 1.292991.4989691.3169362.3488655.4882163.8087708.4778445 1.2830633-.0047554.4672571-.1742641.9173487-.4778445 1.2688071-.336292.3442865-.8018795.5259325-1.2789367.498969h-12.1428716v5.2748159h3.4854539l20.8283978-.0285125 3.4854539.0570251.0140542-5.3175847-6.9568535.0142562c-.4848698.0159992-.9540534-.1754064-1.292991-.5274816-.3161209-.3311718-.4838665-.7797667-.4637902-1.2402945-.0214698-.491564.1743419-.9672216.5340615-1.2973196.3158561-.3282932.7573876-.5001533 1.2086655-.4704566l6.9427992.0142563.0281085-3.5498085h-6.6617143l-4.6379023-.0142563-6.0995443.0142563-2.6281447-.0142563h-.224868z" fill="url(#A)"/><path d="m36.7940253 45.9479234h-6.9709078l.0140543 13.586215c1.1186695.143026 2.2455435.2097052 3.3730199.1995877 1.1981257-.0003412 2.3950628-.0765226 3.5838336-.2281002zm-11.4542134-9.4804124c-.6395691-.6934369-1.5374793-1.0815689-2.4735479-1.0692194-.9171737-.0007573-1.7969968.3684901-2.4455368 1.0263519-.6485399.6578618-1.0125552 1.5503311-1.0118097 2.4806879.0303091 1.9374187 1.5753825 3.4983806 3.485455 3.521296h3.4854539l-.0421627-3.5070398c.0273719-.924312-.3356916-1.8164882-.9978518-2.4520766m18.3970127-1.0692194c-.9286726-.0179142-1.8235275.3534247-2.4735479 1.0264507-.647783.6502707-1.0035217 1.5420904-.9837975 2.4663328l-.0140542 3.521296h3.4713996c.9143683.0224858 1.7962053-.3446261 2.4313852-1.0121944.6835953-.6308671 1.0674307-1.5289736 1.0540687-2.4663328.009528-.9362734-.3555859-1.8364585-1.011906-2.4948454-.6476234-.6782646-1.5427857-1.0548902-2.4735479-1.0407069z" fill="url(#C)"/><path d="m43.7508788 31.8199441c-1.8568724.0032209-3.6345143.7635415-4.9330415 2.1099528-1.3178209 1.3191026-2.0486462 3.1260941-2.023812 5.003947l.0421628 3.5070398h-6.9709078l-.0421628-3.5070398c.0273693-1.8825264-.7035519-3.6949039-2.0238119-5.0182033-1.2965094-1.329552-3.0642625-2.0765248-4.9078722-2.0738455-1.8436096.0026792-3.6092455.7547869-4.901994 2.0881018-1.324644 1.3155656-2.0609751 3.1236147-2.0378662 5.003947-.0360474 1.8688192.6913421 3.6695729 2.0097577 4.9754345 1.2999112 1.320055 3.0655734 2.0590519 4.9049331 2.0529013l3.4713997-.0285125.0421627 12.9446833-.0421627 15.2969661.6464954.0142563h.224868l2.6281447.0142563v-14.6696908l-.0140543-13.586215h6.9709078v13.5577025 14.6696907l3.4432912.0142563.0140542-15.3539912.0140543-12.9019145 3.4713996.0142562c3.8418896-.00625 6.9569928-3.1597576 6.9709078-7.0568483.0191666-1.8727446-.7290522-3.6694979-2.0659747-4.9611782-1.2769778-1.3525605-3.0446427-2.1151316-4.8908789-2.1099528m-2.4876021 4.6047982c.9991417-1.0129823 2.5016297-1.3153427 3.8063293-.7659849 1.3046997.5493578 2.1544329 1.8421461 2.1526725 3.2750865.013362.9373592-.3704734 1.8354657-1.0540687 2.4663328-.6351799.6675683-1.5170169 1.0346802-2.4313852 1.0121944h-3.4713996l.0140542-3.521296c-.0197242-.9242424.3360145-1.8160621.9837975-2.4663328m-18.3970127-1.0264507c.9360686-.0123495 1.8339788.3757825 2.4735479 1.0692194.6621602.6355884 1.0252237 1.5277646.9978518 2.4520766l.0421627 3.5070398h-3.4854539c-1.9100725-.0229154-3.4551459-1.5838773-3.485455-3.521296-.0007455-.9303568.3632698-1.8228261 1.0118097-2.4806879.64854-.6578618 1.5283631-1.0271092 2.4455368-1.0263519z" fill="url(#D)"/><path d="m33.2242459 7.42751105c-7.1208197.02090918-13.201625 2.58703585-18.2424159 7.69837995-5.04079082 5.1113441-7.55181674 11.265296-7.53318185 18.4618557 0 7.2231713 2.51113003 13.3866274 7.53318185 18.4903682 3.3374158 3.3720805 7.1367479 5.6388257 11.3979964 6.8002356l-.0421627-12.9446833-3.4713997.0285125c-1.8393597.0061506-3.6050219-.7328463-4.9049331-2.0529013-1.32358-1.3034253-2.0561833-3.1044919-2.0238119-4.9754345-.0194231-1.882438.7221123-3.6907945 2.0519204-5.003947 1.2937842-1.3421605 3.0654753-2.0999161 4.9160363-2.1025977 1.8505609-.0026817 3.6243791.749936 4.9219384 2.0883414 1.32026 1.3232994 2.0511812 3.1356769 2.0238119 5.0182033l.0421628 3.5070398h6.9709078l-.0421628-3.5070398c-.0322426-1.8736774.6881929-3.6800686 1.9957035-5.003947 1.3008662-1.3411735 3.0782143-2.0962321 4.9330415-2.0956701 1.8462362-.0052052 3.6139011.7573659 4.8908789 2.1099264 1.3369225 1.2916802 2.0851413 3.0884335 2.0659747 4.9611782-.013875 3.8915449-3.1204514 7.0427738-6.9568536 7.0568483l-3.4713996-.0142563-.0140542 12.9019146c4.1600578-1.1766166 7.884434-3.4291056 11.1731283-6.7574669 5.0126824-5.0961374 7.5190236-11.2595935 7.5190236-18.4903682 0-7.2307746-2.5016565-13.3942307-7.5049693-18.4903681-5.0595298-5.1037408-11.1356504-7.66511541-18.2283617-7.68412375z" fill="url(#F)"/><path d="m62.9911465 19.5168189c-1.662507-3.443715-3.8755121-6.5845276-6.5492803-9.2950811-5.4053165-5.54513424-12.5158413-9.05090249-20.1537939-9.93661262-.4581685-.06557879-.9697432-.11975257-1.5319132-.15688825-.3007609 0-.7870379 0-1.4616419 0-.4880934-.00146136-.9759445.02233014-1.461642.0713507-.654928.05702504-1.1440159.08553755-1.4616419.08553755-3.8408076.42222603-7.5792879 1.52225805-11.0466402 3.2504271-3.3870048 1.68669446-6.477915 3.9262213-9.1493164 6.62916052-2.66464354 2.7012002-4.86836869 5.832688-6.52117182 9.2665685-6.45915768 13.3991677-3.60321102 29.5000065 7.05523332 39.7749632 2.1257493 2.0444074 3.9822203 4.3588194 5.52332 6.8857732 1.5451811 2.4690683 2.6179588 5.2113256 3.1622062 8.0832989h6.9427993l.0421627-15.2969661c-4.2631224-1.1614099-8.0624545-3.4281551-11.3979964-6.8002356-5.03142132-5.1037408-7.54244724-11.2671969-7.53307774-18.4903682s2.52039542-13.3818753 7.53307774-18.4761119c5.038917-5.1037408 11.1197223-7.66511541 18.2424159-7.68412375 7.0927113.02090918 13.1688319 2.58703585 18.2283617 7.69837995 5.0033128 5.113245 7.5049693 11.271949 7.5049693 18.4761119 0 7.204163-2.5063412 13.362867-7.5190236 18.476112-3.2886943 3.3264605-7.0130705 5.5789494-11.1731283 6.7574668l-.0140543 15.3539912.3232477.0142563h6.6617143c.5483685-2.8774027 1.6156326-5.6274114 3.1481519-8.1118115 1.5565455-2.5200826 3.4114563-4.8373373 5.5233201-6.9000295 6.1364892-5.8551542 9.8535011-13.8545983 10.4001447-22.3823269.1203674-2.063141.0686512-4.1329099-.1545968-6.1872165-.4151629-3.8590857-1.4849891-7.6163011-3.1622061-11.1056259z" fill="url(#G)"/></g><path d="m86.4571454 36.6368752c-3.4077377 1.1147679-6.4415709.2914674-9.1014995-2.4699017 1.1643104 3.8988487.2177166 7.0548342-2.8397814 9.4679566 3.6065224-1.4194838 6.8249413-.6529625 9.6552568 2.2995636-1.0791169-3.7001209-.2839781-6.7378161 2.3854164-9.1130856l-.0851934-.1845329m-75.964153 42.5277328c.5152768.0897105 1.0231208.2178213 1.519283.3832606-2.95337266-2.8389675-3.71064771-6.0517323-2.27182512-9.6382946-2.43274608 3.028232-5.5943694 3.9698229-9.48486994 2.8247727.24378331.2149883.4715692.4474531.68154754.695547 2.20745675 2.4604385 2.8274757 5.1858473 1.86005683 8.1762263-.06185762.2554084-.15235699.5030199-.26977924.7381316.1987847-.2356343.36917159-.4315231.51116066-.5819884 1.97838105-2.2143946 4.4631898-3.0802797 7.45442627-2.5976552m11.9554797-76.77987532c-3.3698739 1.31538826-6.3705763.59618317-9.0021071-2.15761528 1.079117 3.66983862.1987847 6.62236479-2.6409967 8.85757852 3.360408-1.33431472 6.3611104-.61984124 9.0021071 2.14342048-1.0866897-3.66226808-.2063574-6.61006264 2.6409967-8.84338372z" fill="#fff" transform="translate(10.975085 7.647093)"/><g transform="translate(15.988047 16.651557)"><path d="m40.096774 91.4824153 3.6400506-4.9611782-20.8283978.0285125 3.6259963 4.9326657c.5078275.6704041 1.1621207 1.2120985 1.911378 1.5824448.7143693.3639381 1.5056798.5450315 2.3048969.5274816l5.1860181.0142562c.789577-.0033831 1.5680853-.188621 2.2767884-.5417378.7408707-.3712141 1.3858223-.9131442 1.8832695-1.5824448z" fill="url(#y)"/><path d="m38.522698 79.5071576c-.0200763.4605278.1476693.9091227.4637902 1.2402945.3389376.3520752.8081212.5434808 1.292991.5274816l6.9568535-.0142562-.0281085-3.5070398-6.9427992-.0142563c-.4512779-.0296967-.8928094.1421634-1.2086655.4704566-.3597196.330098-.5555313.8057556-.5340615 1.2973196m-5.6779168-1.2830633c-.3498613-.3318072-.8141794-.510989-1.292991-.4989691h-12.1428716v3.5498085h12.1428716c.4770572.0269635.9426447-.1546825 1.2789367-.498969.3035805-.3514584.4730892-.80155.4778445-1.2688071.0141952-.4723358-.1519564-.9319898-.4637902-1.2830633z" fill="#e4eef2"/><path d="m33.2242459 59.7337261c-1.1274763.0101175-2.2543503-.0565617-3.3730199-.1995877v14.6696908l6.0995443-.0142563.8713635-.0142563v-14.6696907c-1.1934235.1521706-2.3950729.2283532-3.5978879.2281002z" fill="url(#z)"/><path d="m19.4510814 74.2038292-.0421628 3.521296h12.1428716c.4788116-.0120199.9431297.1671619 1.292991.4989691.3169362.3488655.4882163.8087708.4778445 1.2830633-.0047554.4672571-.1742641.9173487-.4778445 1.2688071-.336292.3442865-.8018795.5259325-1.2789367.498969h-12.1428716v5.2748159h3.4854539l20.8283978-.0285125 3.4854539.0570251.0140542-5.3175847-6.9568535.0142562c-.4848698.0159992-.9540534-.1754064-1.292991-.5274816-.3161209-.3311718-.4838665-.7797667-.4637902-1.2402945-.0214698-.491564.1743419-.9672216.5340615-1.2973196.3158561-.3282932.7573876-.5001533 1.2086655-.4704566l6.9427992.0142563.0281085-3.5498085h-6.6617143l-4.6379023-.0142563-6.0995443.0142563-2.6281447-.0142563h-.224868z" fill="url(#A)"/><path d="m36.7940253 45.9479234h-6.9709078l.0140543 13.586215c1.1186695.143026 2.2455435.2097052 3.3730199.1995877 1.1981257-.0003412 2.3950628-.0765226 3.5838336-.2281002zm-11.4542134-9.4804124c-.6395691-.6934369-1.5374793-1.0815689-2.4735479-1.0692194-.9171737-.0007573-1.7969968.3684901-2.4455368 1.0263519-.6485399.6578618-1.0125552 1.5503311-1.0118097 2.4806879.0303091 1.9374187 1.5753825 3.4983806 3.485455 3.521296h3.4854539l-.0421627-3.5070398c.0273719-.924312-.3356916-1.8164882-.9978518-2.4520766m7.8703798-29.03999995c-7.1208198.02090918-13.2016251 2.58703585-18.2424159 7.69837995-5.04079087 5.1113441-7.54713204 11.265296-7.51925734 18.4618557 0 7.2231713 2.51125972 13.3866274 7.53331154 18.4903682 3.3374158 3.3720805 7.1367479 5.6388257 11.3979964 6.8002356l-.0421627-12.9446833-3.4713997.0285125c-1.8393597.0061506-3.6050219-.7328463-4.9049331-2.0529013-1.32358-1.3034253-2.0561833-3.1044919-2.0238119-4.9754345-.0194231-1.882438.7221123-3.6907945 2.0519204-5.003947 1.2937842-1.3421605 3.0654753-2.0999161 4.9160363-2.1025977 1.8505609-.0026817 3.6243791.749936 4.9219384 2.0883414 1.32026 1.3232994 2.0511812 3.1356769 2.0238119 5.0182033l.0421628 3.5070398h6.9709078l-.0421628-3.5070398c-.0322426-1.8736774.6881929-3.6800686 1.9957035-5.003947 1.3008662-1.3411735 3.0782143-2.0962321 4.9330415-2.0956701 1.8462362-.0052052 3.6139011.7573659 4.8908789 2.1099264 1.3369225 1.2916802 2.0851413 3.0884335 2.0659747 4.9611782-.013875 3.8915449-3.1204514 7.0427738-6.9568536 7.0568483l-3.4713996-.0142563-.0140542 12.9019146c4.1600578-1.1766166 7.884434-3.4291056 11.1731283-6.7574669 5.0126824-5.0961374 7.5190236-11.2595935 7.5190236-18.4903682 0-7.2307746-2.5016565-13.3942307-7.5049693-18.4903681-5.0595298-5.1037408-11.1356504-7.66511541-18.2283617-7.68412375z" fill="url(#H)"/><path d="m43.7508788 31.8199441c-1.8568724.0032209-3.6345143.7635415-4.9330415 2.1099528-1.3178209 1.3191026-2.0486462 3.1260941-2.023812 5.003947l.0421628 3.5070398h-6.9709078l-.0421628-3.5070398c.0273693-1.8825264-.7035519-3.6949039-2.0238119-5.0182033-1.2965094-1.329552-3.0642625-2.0765248-4.9078722-2.0738455-1.8436096.0026792-3.6092455.7547869-4.901994 2.0881018-1.324644 1.3155656-2.0609751 3.1236147-2.0378662 5.003947-.0360474 1.8688192.6913421 3.6695729 2.0097577 4.9754345 1.2999112 1.320055 3.0655734 2.0590519 4.9049331 2.0529013l3.4713997-.0285125.0421627 12.9446833-.0421627 15.2969661.6464954.0142563h.224868l2.6281447.0142563v-14.6696908l-.0140543-13.586215h6.9709078v13.5577025 14.6696907l3.4432912.0142563.0140542-15.3539912.0140543-12.9019145 3.4713996.0142562c3.8418896-.00625 6.9569928-3.1597576 6.9709078-7.0568483.0191666-1.8727446-.7290522-3.6694979-2.0659747-4.9611782-1.2769778-1.3525605-3.0446427-2.1151316-4.8908789-2.1099528m-2.4876021 4.6047982c.9991417-1.0129823 2.5016297-1.3153427 3.8063293-.7659849 1.3046997.5493578 2.1544329 1.8421461 2.1526725 3.2750865.013362.9373592-.3704734 1.8354657-1.0540687 2.4663328-.6351799.6675683-1.5170169 1.0346802-2.4313852 1.0121944h-3.4713996l.0140542-3.521296c-.0197242-.9242424.3360145-1.8160621.9837975-2.4663328m-18.3970127-1.0264507c.9360686-.0123495 1.8339788.3757825 2.4735479 1.0692194.6621602.6355884 1.0252237 1.5277646.9978518 2.4520766l.0421627 3.5070398h-3.4854539c-1.9100725-.0229154-3.4551459-1.5838773-3.485455-3.521296-.0007455-.9303568.3632698-1.8228261 1.0118097-2.4806879.64854-.6578618 1.5283631-1.0271092 2.4455368-1.0263519z" fill="url(#D)"/><path d="m43.7368246 35.3982916c-.9286726-.0179142-1.8235275.3534247-2.4735479 1.0264507-.647783.6502707-1.0035217 1.5420904-.9837975 2.4663328l-.0140542 3.521296h3.4713996c.9143683.0224858 1.7962053-.3446261 2.4313852-1.0121944.6835953-.6308671 1.0674307-1.5289736 1.0540687-2.4663328.009528-.9362734-.3555859-1.8364585-1.011906-2.4948454-.6476234-.6782646-1.5427857-1.0548902-2.4735479-1.0407069z" fill="url(#I)"/><path d="m62.9911465 19.5168189c-1.662507-3.443715-3.8755121-6.5845276-6.5492803-9.2950811-5.4053165-5.54513424-12.5158413-9.05090249-20.1537939-9.93661262-.4581685-.06557879-.9697432-.11975257-1.5319132-.15688825-.3007609 0-.7870379 0-1.4616419 0-.4880934-.00146136-.9759445.02233014-1.461642.0713507-.654928.05702504-1.1440159.08553755-1.4616419.08553755-3.8408076.42222603-7.5792879 1.52225805-11.0466402 3.2504271-3.3870048 1.68669446-6.477915 3.9262213-9.1493164 6.62916052-2.66464354 2.7012002-4.86836869 5.832688-6.52117182 9.2665685-6.45915768 13.3991677-3.60321102 29.5000065 7.05523332 39.7749632 2.1257493 2.0444074 3.9822203 4.3588194 5.52332 6.8857732 1.5451811 2.4690683 2.6179588 5.2113256 3.1622062 8.0832989h6.9427993l.0421627-15.2969661c-4.2631224-1.1614099-8.0624545-3.4281551-11.3979964-6.8002356-5.03142132-5.1037408-7.54244724-11.2671969-7.53307774-18.4903682s2.52039542-13.3818753 7.53307774-18.4761119c5.038917-5.1037408 11.1197223-7.66511541 18.2424159-7.68412375 7.0927113.02090918 13.1688319 2.58703585 18.2283617 7.69837995 5.0033128 5.113245 7.5049693 11.271949 7.5049693 18.4761119 0 7.204163-2.5063412 13.362867-7.5190236 18.476112-3.2886943 3.3264605-7.0130705 5.5789494-11.1731283 6.7574668l-.0140543 15.3539912.3232477.0142563h6.6617143c.5483685-2.8774027 1.6156326-5.6274114 3.1481519-8.1118115 1.5565455-2.5200826 3.4114563-4.8373373 5.5233201-6.9000295 6.1364892-5.8551542 9.8535011-13.8545983 10.4001447-22.3823269.1203674-2.063141.0686512-4.1329099-.1545968-6.1872165-.4151629-3.8590857-1.4849891-7.6163011-3.1622061-11.1056259z" fill="url(#G)"/></g></g></g></g></svg>