<svg width="68" height="96" viewBox="0 0 68 96" fill="none" xmlns="http://www.w3.org/2000/svg">
<path d="M11.0348 32L56.9652 32C56.9652 32 58.8951 5 34 5C9.10492 5 11.0348 32 11.0348 32Z" stroke="#798D99" stroke-width="10" stroke-linejoin="round"/>
<path fill-rule="evenodd" clip-rule="evenodd" d="M8.50047 28H59.4995C64.1922 28 68 31.8058 68 36.5005V87.4995C68 92.1922 64.1942 96 59.4995 96H8.50047C3.80781 96 0 92.1942 0 87.4995V36.5005C0 31.8078 3.80579 28 8.50047 28ZM12.919 36.84C10.6662 36.84 8.83999 38.6655 8.83999 40.9172V79.5128C8.83999 81.7646 10.6669 83.59 12.919 83.59H25.501C27.7538 83.59 29.58 81.7645 29.58 79.5128V40.9172C29.58 38.6654 27.7531 36.84 25.501 36.84H12.919ZM38.42 40.922C38.42 38.6674 40.2462 36.84 42.499 36.84H55.081C57.3331 36.84 59.16 38.6676 59.16 40.922V62.508C59.16 64.7626 57.3338 66.59 55.081 66.59H42.499C40.2469 66.59 38.42 64.7624 38.42 62.508V40.922Z" fill="#798D99"/>
</svg>
