<svg width="224" height="35" viewBox="0 0 224 35" fill="none" xmlns="http://www.w3.org/2000/svg">
<g clip-path="url(#clip0_3358_7086)">
<path d="M14.7291 13.8786V19.7645C14.7291 23.8636 13.0467 26.281 9.0511 26.281H6.10698L5.26579 34.1639H9.47169C16.832 34.1639 22.7203 28.8035 22.7203 20.29V13.7735L14.7291 13.8786ZM211.355 13.8786H208.095C207.99 13.8786 207.99 13.9837 207.99 13.9837L205.256 22.287V22.3921C205.256 22.3921 205.256 22.4972 205.361 22.4972H207.359C207.464 22.4972 207.464 22.3921 207.464 22.3921L208.095 19.9747H211.46L212.091 22.3921C212.091 22.4972 212.196 22.4972 212.196 22.4972H214.089C214.194 22.4972 214.194 22.4972 214.194 22.3921V22.287L211.565 13.9837C211.46 13.9837 211.46 13.8786 211.355 13.8786ZM221.449 19.1339V21.236C221.449 21.236 220.818 21.236 220.292 21.236C218.61 21.236 217.769 20.8156 217.769 18.1879C217.769 15.5603 218.715 15.1399 220.503 15.1399C221.239 15.1399 222.08 15.245 222.606 15.3501C222.606 15.3501 222.711 15.3501 222.816 15.3501C222.816 15.3501 223.026 15.3501 223.131 15.3501C223.237 15.3501 223.237 15.245 223.342 15.1399L223.447 14.6144C223.447 14.5093 223.447 14.4042 223.447 14.299C223.447 14.1939 223.342 14.1939 223.237 14.0888C222.921 13.9837 221.765 13.5633 219.977 13.5633C216.928 13.5633 215.561 14.7195 215.561 17.9777C215.561 21.236 216.612 22.3921 220.082 22.3921C220.923 22.3921 221.975 22.287 222.501 22.1819C223.131 21.9717 223.237 21.7615 223.237 21.1309V17.5573C223.237 17.4522 223.237 17.4522 223.131 17.4522H219.872C219.767 17.4522 219.767 17.4522 219.767 17.5573V18.6083C219.767 18.7135 219.872 18.8186 219.872 18.8186L221.449 19.1339ZM209.357 15.245H209.988L210.934 18.6083H208.306L209.357 15.245ZM58.7859 23.9687C58.7859 19.5543 58.9962 17.6624 62.0454 17.6624C65.0947 17.6624 65.305 19.4492 65.305 23.9687C65.305 28.3831 65.0947 30.1699 62.0454 30.1699C58.9962 30.1699 58.7859 28.3831 58.7859 23.9687ZM52.0564 23.9687C52.0564 29.8546 53.2131 34.4792 62.0454 34.4792C70.8778 34.4792 72.0345 29.8546 72.0345 23.9687C72.0345 17.9777 70.8778 13.3531 62.0454 13.3531C53.2131 13.3531 52.0564 17.9777 52.0564 23.9687ZM178.864 17.3471V14.1939C178.864 13.5633 178.549 13.3531 178.023 13.3531H177.392C174.974 13.3531 172.45 13.6684 170.558 14.0888C168.35 14.6144 167.088 15.0348 167.088 16.296V33.4282C167.088 33.7435 167.298 33.9537 167.614 33.9537H173.186C173.502 33.9537 173.712 33.7435 173.712 33.4282V18.3981C174.028 18.293 175.92 18.0828 178.128 18.0828C178.864 18.1879 178.864 17.7675 178.864 17.3471ZM133.861 27.7525C133.861 29.8546 132.599 30.4852 131.022 30.4852C129.76 30.4852 128.288 30.0648 128.288 30.0648V14.4041C128.288 14.0888 128.078 13.8786 127.763 13.8786H122.19C121.874 13.8786 121.664 14.0888 121.664 14.4041V27.7525C121.664 29.8546 120.823 30.4852 119.246 30.4852C117.879 30.4852 115.986 30.1699 115.986 30.1699V14.4041C115.986 14.0888 115.776 13.8786 115.46 13.8786H99.3728V7.67742C99.3728 7.257 99.1625 7.04679 98.7419 7.04679C98.6368 7.04679 98.5316 7.04679 98.3213 7.1519L93.4845 7.99274C93.064 8.09785 92.7485 8.41316 92.7485 8.93868V13.8786H83.7058V11.6714C83.7058 10.9357 83.811 10.4102 84.2316 10.0948C84.6522 9.77953 85.1779 9.67441 86.1242 9.67441C86.7551 9.67441 87.5963 9.77953 88.0169 9.88464C88.122 9.88464 88.122 9.88464 88.2272 9.88464C88.4375 9.88464 88.6478 9.98973 88.7529 9.98973C88.9632 9.98973 89.0684 9.77952 89.0684 9.46421L89.489 6.62637C89.489 6.62637 89.489 6.41616 89.489 6.31105C89.489 5.99574 89.3838 5.89063 89.0684 5.78553C88.5426 5.68042 86.7551 5.15491 83.811 5.15491C79.1845 5.15491 77.0815 7.257 77.0815 11.3561V13.8786H74.1374C73.822 13.8786 73.6117 14.0888 73.6117 14.4041V17.9777C73.6117 18.293 73.822 18.5033 74.1374 18.5033H77.0815V33.5333C77.0815 33.8486 77.2918 34.0588 77.6073 34.0588H83.2852C83.6007 34.0588 83.811 33.8486 83.811 33.5333V18.5033H92.8537V27.8576C92.8537 32.5873 95.2721 34.3741 100.004 34.3741C102.738 34.3741 104.42 33.8486 104.84 33.6384C105.261 33.5333 105.366 33.3231 105.366 33.0078C105.366 32.9027 105.366 32.6924 105.366 32.6924L104.84 29.9597C104.735 29.6444 104.63 29.5393 104.42 29.5393C104.42 29.5393 104.315 29.5393 104.104 29.5393C104.104 29.5393 103.999 29.5393 103.894 29.5393C103.474 29.6444 102.632 29.7495 101.686 29.7495C99.6882 29.7495 99.2677 28.8036 99.2677 27.4372V18.5033H109.257V31.5363C109.257 32.7976 110.413 33.218 112.621 33.7435C114.304 34.0588 116.722 34.4792 118.615 34.4792C120.928 34.4792 123.241 34.0588 125.029 32.6924C127.342 34.0588 129.971 34.4792 132.494 34.4792C137.226 34.4792 140.38 33.3231 140.38 28.6984V14.4041C140.38 14.0888 140.17 13.8786 139.855 13.8786H134.282C133.966 13.8786 133.756 14.0888 133.756 14.4041L133.861 27.7525ZM186.856 22.8126V22.3921C186.856 21.8666 186.856 20.5002 187.066 19.7645C187.381 18.3981 188.117 17.5573 190.115 17.5573C192.008 17.5573 192.849 18.293 193.27 19.5543C193.48 20.29 193.48 21.4462 193.48 22.287V22.8126H186.856ZM155.837 30.1699C155.627 30.275 154.47 30.4852 153.103 30.4852C151.736 30.4852 149.844 30.1699 149.844 27.7525C149.844 25.5453 151 25.23 152.472 25.0198L155.942 24.4942V30.1699H155.837ZM9.0511 21.3411V14.6144C9.0511 10.4102 10.8386 8.41316 14.7291 8.41316H17.568L18.4092 0.530273H13.993C6.21212 0.530273 1.16504 6.20595 1.16504 13.9837V21.236L9.0511 21.3411ZM39.7542 26.1759C41.5417 26.4912 42.3829 26.7014 42.3829 28.3831C42.3829 29.9597 41.0159 30.3801 39.649 30.3801C37.6512 30.3801 35.338 29.8546 34.3916 29.5393H34.2865C34.1814 29.5393 33.9711 29.4342 33.8659 29.4342C33.6556 29.4342 33.5505 29.5393 33.4453 29.9597L33.0247 32.4822C33.0247 32.6924 32.9196 32.9027 32.9196 33.0078C32.9196 33.218 33.0247 33.3231 33.3402 33.5333C34.0762 33.8486 37.2306 34.5843 40.4902 34.5843C45.2218 34.5843 48.902 32.9027 48.902 27.9627C48.902 23.233 46.063 22.287 43.3292 21.7615L42.8034 21.6564C41.2262 21.3411 39.8593 21.1309 39.8593 19.4492C39.8593 17.8726 41.5417 17.6624 42.6983 17.6624C44.1704 17.6624 45.8527 17.9777 46.5888 18.0828C47.0094 18.1879 47.1145 18.1879 47.3248 18.1879C47.5351 18.1879 47.7454 17.9777 47.8505 17.8726C47.9557 17.0318 48.166 16.1909 48.3763 15.3501C48.3763 15.3501 48.3763 15.1399 48.3763 15.0348C48.3763 14.6144 48.166 14.4042 47.6402 14.299C46.5888 13.9837 44.3807 13.5633 41.752 13.5633C38.3873 13.5633 33.3402 14.0888 33.3402 19.9747C33.3402 25.0198 36.7049 25.7555 39.3336 26.281L39.7542 26.1759ZM162.356 19.4492C162.356 17.242 161.725 15.5603 159.833 14.6144C158.466 13.8786 156.573 13.4582 153.839 13.4582C149.633 13.4582 145.953 14.6144 145.217 14.9297C145.007 15.0348 144.691 15.1399 144.691 15.4552V15.5603V15.6654L145.322 18.6083C145.322 18.8186 145.533 18.9237 145.638 18.9237C145.743 18.9237 145.848 18.9237 145.953 18.9237C146.794 18.7135 149.844 17.8726 152.262 17.8726C153.419 17.8726 154.365 17.9777 154.891 18.1879C155.627 18.5032 155.732 19.1339 155.732 20.1849V21.0258L149.108 22.0768C146.584 22.4972 143.324 23.233 143.324 27.9627C143.324 33.8486 148.056 34.5843 152.788 34.5843C155.101 34.5843 156.888 34.4792 158.361 34.0588C160.884 33.4282 162.146 33.0078 162.146 30.0648L162.356 19.4492ZM180.126 24.0738C180.126 31.8516 183.701 34.4792 191.167 34.4792C194.531 34.4792 197.055 33.6384 198.317 33.218C198.737 33.1128 198.842 32.7976 198.842 32.5873C198.842 32.4822 198.842 32.4822 198.842 32.272L198.317 29.9597C198.211 29.4342 198.001 29.3291 197.686 29.3291C197.581 29.3291 197.37 29.3291 197.265 29.4342C196.319 29.7495 194.426 30.275 192.428 30.275C190.746 30.275 189.484 30.1699 188.643 29.6444C187.592 29.1189 186.961 28.0678 186.961 26.4912H198.842C199.684 26.4912 199.789 25.9657 199.789 25.4402V23.5483C199.789 20.0798 199.158 17.3471 197.791 15.6654C196.319 14.1939 193.795 13.248 190.115 13.248C182.65 13.3531 180.126 16.296 180.126 24.0738Z" fill="#C1C7D0"/>
</g>
<defs>
<clipPath id="clip0_3358_7086">
<rect width="223.333" height="35" fill="white" transform="translate(0.571289)"/>
</clipPath>
</defs>
</svg>
