<svg xmlns="http://www.w3.org/2000/svg" preserveAspectRatio="xMinYMin meet" viewBox="0 0 36 36"><path style="opacity:0.5; fill:#091e42; fill-rule:evenodd;" d="M10.84,28.07V24.36a5.57,5.57,0,0,1,1.74-4.05A5.57,5.57,0,0,0,8.7,18.75H5.61A5.61,5.61,0,0,0,0,24.36v3.71a1,1,0,0,0,1,1H11.82A1,1,0,0,1,10.84,28.07Z"></path><path style="opacity:0.5; fill:#091e42; fill-rule:evenodd;" d="M7.16,17.47A4.12,4.12,0,1,0,3,13.35,4.12,4.12,0,0,0,7.16,17.47Z"></path><path style="opacity:0.5; fill:#091e42; fill-rule:evenodd;" d="M30.39,18.75H27.3a5.57,5.57,0,0,0-3.88,1.56,5.57,5.57,0,0,1,1.74,4.05v3.71a1,1,0,0,1-1,1H35a1,1,0,0,0,1-1V24.36A5.61,5.61,0,0,0,30.39,18.75Z"></path><path style="opacity:0.5; fill:#091e42; fill-rule:evenodd;" d="M28.84,17.47a4.12,4.12,0,1,0-4.12-4.12A4.11,4.11,0,0,0,28.84,17.47Z"></path><path style="opacity:0.5; fill:#091e42; fill-rule:evenodd;" d="M14.85,10.72a4.08,4.08,0,0,0-.92,2.58.43.43,0,0,1,0,0h4a.65.65,0,0,0,.52-.26l.93-1.24a.22.22,0,0,1,.35,0l.93,1.24a.68.68,0,0,0,.53.26h.91a.43.43,0,0,1,0,0A4.07,4.07,0,0,0,18,9.23a4.41,4.41,0,0,0-.52,0,2,2,0,0,0,0-.36,2,2,0,1,0-2.66,1.82Z"></path><path style="fill: #091e42; fill-rule:evenodd;" d="M23.42,20.31a5.55,5.55,0,0,0-3.87-1.57H16.46a5.65,5.65,0,0,0-5.62,5.62v4.69H24.18a1,1,0,0,0,1-1V24.36A5.57,5.57,0,0,0,23.42,20.31Z"></path><path style="fill: #091e42; fill-rule:evenodd;" d="M20.62,13.09l-.93-1.24a.22.22,0,0,0-.35,0l-.93,1.24a.65.65,0,0,1-.52.26h-4a1,1,0,0,0,0,.17,1.62,1.62,0,0,0,0,.22l0,.19,0,.21c0,.06,0,.12.05.19s0,.13,0,.2l.07.18.07.19.09.17.08.18.11.17a1.4,1.4,0,0,0,.1.16l.12.17a1.71,1.71,0,0,0,.11.14l.14.16.12.13.16.15a.69.69,0,0,1,.13.11l.19.14.12.09.21.13.13.07a1.67,1.67,0,0,0,.23.12l.12.05.28.11.09,0,.35.09h0a4.47,4.47,0,0,0,.82.08,4,4,0,0,0,1.21-.18h0l.34-.13.06,0,.3-.15.06,0,.27-.16.07-.05.24-.18.08-.07.21-.19.07-.08.19-.21.07-.09.17-.22.06-.11.14-.22.06-.13a1.63,1.63,0,0,0,.11-.23s0-.09.05-.13l.09-.24a.83.83,0,0,1,0-.15l.06-.24L22,14l0-.24a.91.91,0,0,0,0-.17,1.48,1.48,0,0,0,0-.21h-.91A.68.68,0,0,1,20.62,13.09Z"></path></svg>