<svg xmlns="http://www.w3.org/2000/svg" xmlns:xlink="http://www.w3.org/1999/xlink" viewBox="0 0 90.3 77.45"><defs><style>.b980e261-7277-4d60-95cd-9705dd8fc7c6{fill:#fff3e2;}.b2f3587a-aa6f-4e75-afcc-7ed0ec11d091{fill:#fcc382;}.ad4ccd91-b393-41a5-b967-55931c3fd1f4{fill:#c17f2a;}.e0df7b63-52d0-4f6e-a017-4793ff829612{fill:url(#ae201cc4-1283-409f-91df-96c3aa581d58);}.fe7555ae-4727-43fd-b980-01be2d01968e{fill:url(#b9cf9930-5063-4e72-8bb3-0bed38f88783);}.a550e57e-94fe-4267-9d1e-411e4e8f893f{fill:url(#ab727383-d740-4ce7-94e2-18083bffdec9);}.ae978347-5b0f-4f5d-9556-5f255ec9f952{fill:url(#b14e40b2-323c-4396-adde-ff899b7b3547);}.ae1b37e6-7b1a-4b2d-9e99-a0cfe9c3d06b{fill:#a4712a;}.e54c1507-103c-4a87-9be8-3b143a5bba8b{fill:url(#a6dcaaf9-1660-45c1-a9c3-992ec376866a);}.b2b8beb5-91f2-451f-b505-3045ab0ab30e{fill:url(#b9a34c9a-bc40-4b5d-a75e-3c8e052b174c);}.b246e320-9d63-47b3-9bf3-7bc649302693{fill:url(#e826d868-a18c-481b-8b30-e5a0ed189897);}.aba75e0c-d91a-46c2-9ed7-fbd49e5cd82c{fill:url(#b1bf4571-6ed6-4a36-95a4-85d986f30f8e);}.a4d4bb7c-45c3-4260-9c00-6a7a20c60c94{fill:url(#b1b1ab9b-5b57-4dc2-bc36-b1f8f4b74ec3);}</style><linearGradient id="ae201cc4-1283-409f-91df-96c3aa581d58" x1="47.5" y1="14.96" x2="48.05" y2="75.25" gradientUnits="userSpaceOnUse"><stop offset="0" stop-color="#c17f2a"/><stop offset="1" stop-color="#f9a540"/></linearGradient><linearGradient id="b9cf9930-5063-4e72-8bb3-0bed38f88783" x1="47.64" y1="63.6" x2="47.22" y2="92.88" xlink:href="#ae201cc4-1283-409f-91df-96c3aa581d58"/><linearGradient id="ab727383-d740-4ce7-94e2-18083bffdec9" x1="48.35" y1="15.72" x2="47.05" y2="0.84" gradientUnits="userSpaceOnUse"><stop offset="0" stop-color="#a4712a"/><stop offset="1" stop-color="#d98c27"/></linearGradient><linearGradient id="b14e40b2-323c-4396-adde-ff899b7b3547" x1="47.7" y1="66.27" x2="47.7" y2="44.11" gradientUnits="userSpaceOnUse"><stop offset="0" stop-color="#fcc382"/><stop offset="1" stop-color="#f29a32"/></linearGradient><linearGradient id="a6dcaaf9-1660-45c1-a9c3-992ec376866a" x1="47.03" y1="-18.18" x2="47.86" y2="34.58" gradientUnits="userSpaceOnUse"><stop offset="0" stop-color="#d98c27"/><stop offset="1" stop-color="#f29a32"/></linearGradient><linearGradient id="b9a34c9a-bc40-4b5d-a75e-3c8e052b174c" x1="41.08" y1="20.8" x2="73.42" y2="20.39" xlink:href="#ab727383-d740-4ce7-94e2-18083bffdec9"/><linearGradient id="e826d868-a18c-481b-8b30-e5a0ed189897" x1="34.46" y1="48.04" x2="34.32" y2="30.74" xlink:href="#ab727383-d740-4ce7-94e2-18083bffdec9"/><linearGradient id="b1bf4571-6ed6-4a36-95a4-85d986f30f8e" x1="61.04" y1="48.3" x2="60.91" y2="24.48" gradientUnits="userSpaceOnUse"><stop offset="0" stop-color="#a4712a"/><stop offset="0.63" stop-color="#d98c27"/></linearGradient><linearGradient id="b1b1ab9b-5b57-4dc2-bc36-b1f8f4b74ec3" x1="98.28" y1="67.64" x2="75.06" y2="68.19" gradientUnits="userSpaceOnUse"><stop offset="0" stop-color="#fbb461"/><stop offset="0.26" stop-color="#eda74d"/><stop offset="1" stop-color="#c17f2a"/></linearGradient></defs><title>Education</title><g id="f96f7dd9-c205-4a07-ba06-6b3eeea9af68" data-name="Layer 2"><g id="aa173d2d-000c-4165-9bce-d8ad22dc869b" data-name="icons"><path class="b980e261-7277-4d60-95cd-9705dd8fc7c6" d="M41.53,64.1,25,71.6A7.16,7.16,0,0,1,15.55,68L3.85,42.21A7.19,7.19,0,0,1,7.41,32.7L23.9,25.2a7.17,7.17,0,0,1,9.49,3.57L45.09,54.6A7.18,7.18,0,0,1,41.53,64.1Z"/><polygon class="b2f3587a-aa6f-4e75-afcc-7ed0ec11d091" points="32.77 27.41 3.23 40.85 2.95 40.22 32.48 26.78 32.77 27.41"/><polygon class="b2f3587a-aa6f-4e75-afcc-7ed0ec11d091" points="34.74 31.75 5.2 45.19 4.91 44.55 34.45 31.11 34.74 31.75"/><polygon class="b2f3587a-aa6f-4e75-afcc-7ed0ec11d091" points="36.7 36.08 7.16 49.52 6.87 48.88 36.41 35.45 36.7 36.08"/><polygon class="b2f3587a-aa6f-4e75-afcc-7ed0ec11d091" points="38.66 40.41 9.13 53.85 8.84 53.22 38.38 39.78 38.66 40.41"/><polygon class="b2f3587a-aa6f-4e75-afcc-7ed0ec11d091" points="40.63 44.75 11.09 58.19 10.8 57.55 40.34 44.11 40.63 44.75"/><polygon class="b2f3587a-aa6f-4e75-afcc-7ed0ec11d091" points="42.59 49.08 13.05 62.52 12.77 61.89 42.3 48.45 42.59 49.08"/><polygon class="b2f3587a-aa6f-4e75-afcc-7ed0ec11d091" points="44.55 53.42 15.02 66.85 14.73 66.22 44.27 52.78 44.55 53.42"/><polygon class="b2f3587a-aa6f-4e75-afcc-7ed0ec11d091" points="46.52 57.75 16.98 71.19 16.69 70.55 46.23 57.12 46.52 57.75"/><path class="ad4ccd91-b393-41a5-b967-55931c3fd1f4" d="M3.44,39.43,2,40.1a1.4,1.4,0,0,1-1.85-.69h0a1.4,1.4,0,0,1,.7-1.84l1.47-.67a1.38,1.38,0,0,1,1.84.69h0A1.39,1.39,0,0,1,3.44,39.43Z"/><path class="ad4ccd91-b393-41a5-b967-55931c3fd1f4" d="M6,45.07l-1.48.67a1.39,1.39,0,0,1-1.84-.69h0a1.38,1.38,0,0,1,.69-1.84l1.48-.68a1.4,1.4,0,0,1,1.84.7h0A1.4,1.4,0,0,1,6,45.07Z"/><path class="ad4ccd91-b393-41a5-b967-55931c3fd1f4" d="M8.55,50.71l-1.48.67a1.39,1.39,0,0,1-1.84-.69h0a1.38,1.38,0,0,1,.69-1.84l1.48-.68a1.4,1.4,0,0,1,1.84.7h0A1.39,1.39,0,0,1,8.55,50.71Z"/><path class="ad4ccd91-b393-41a5-b967-55931c3fd1f4" d="M11,56.21l-1.48.67a1.39,1.39,0,0,1-1.84-.69h0a1.4,1.4,0,0,1,.69-1.85l1.48-.67a1.39,1.39,0,0,1,1.84.69h0A1.4,1.4,0,0,1,11,56.21Z"/><path class="ad4ccd91-b393-41a5-b967-55931c3fd1f4" d="M13.53,61.71l-1.48.67a1.38,1.38,0,0,1-1.84-.7h0a1.39,1.39,0,0,1,.69-1.84l1.48-.67a1.39,1.39,0,0,1,1.84.69h0A1.4,1.4,0,0,1,13.53,61.71Z"/><path class="ad4ccd91-b393-41a5-b967-55931c3fd1f4" d="M16,67.2l-1.48.67a1.39,1.39,0,0,1-1.84-.69h0a1.39,1.39,0,0,1,.69-1.84l1.48-.67a1.39,1.39,0,0,1,1.84.69h0A1.4,1.4,0,0,1,16,67.2Z"/><path class="ad4ccd91-b393-41a5-b967-55931c3fd1f4" d="M18.5,72.7,17,73.37a1.38,1.38,0,0,1-1.84-.69h0a1.38,1.38,0,0,1,.69-1.84l1.47-.68a1.41,1.41,0,0,1,1.85.7h0A1.4,1.4,0,0,1,18.5,72.7Z"/><path class="e0df7b63-52d0-4f6e-a017-4793ff829612" d="M22.46,9.79H73a0,0,0,0,1,0,0V64.72A12.74,12.74,0,0,1,60.21,77.45h-25A12.74,12.74,0,0,1,22.46,64.72V9.79A0,0,0,0,1,22.46,9.79Z"/><path class="fe7555ae-4727-43fd-b980-01be2d01968e" d="M27.76,55.59h39.9a0,0,0,0,1,0,0v6.13A11.78,11.78,0,0,1,55.88,73.5H39.53A11.78,11.78,0,0,1,27.76,61.72V55.59A0,0,0,0,1,27.76,55.59Z"/><path class="a550e57e-94fe-4267-9d1e-411e4e8f893f" d="M54.35,10.41a1.88,1.88,0,0,1-1.87-1.88A4.6,4.6,0,0,0,51,4.94,5,5,0,0,0,47.7,3.75a4.53,4.53,0,0,0-4.77,4.78,1.87,1.87,0,1,1-3.74,0A8.25,8.25,0,0,1,47.7,0a8.25,8.25,0,0,1,8.52,8.53A1.88,1.88,0,0,1,54.35,10.41Z"/><path class="ae978347-5b0f-4f5d-9556-5f255ec9f952" d="M28.2,56.06l18.35,8.62a2.74,2.74,0,0,0,2.31,0l18.35-8.62a1.25,1.25,0,0,0-.53-2.39H28.73A1.25,1.25,0,0,0,28.2,56.06Z"/><circle class="ae1b37e6-7b1a-4b2d-9e99-a0cfe9c3d06b" cx="47.6" cy="60.59" r="1.66"/><rect class="e54c1507-103c-4a87-9be8-3b143a5bba8b" x="20.17" y="8.54" width="55.06" height="32.27" rx="10.37"/><rect class="b2b8beb5-91f2-451f-b505-3045ab0ab30e" x="38.25" y="18.74" width="18.91" height="3.96" rx="1.98"/><path class="ae1b37e6-7b1a-4b2d-9e99-a0cfe9c3d06b" d="M41.05,27.28h0a2,2,0,0,1-2-2.36l.46-3a1.58,1.58,0,0,1,1.55-1.34h0A1.58,1.58,0,0,1,42.61,22l.46,3A2,2,0,0,1,41.05,27.28Z"/><path class="b246e320-9d63-47b3-9bf3-7bc649302693" d="M32.29,35.6h4.22a.69.69,0,0,1,.69.69v9.83a2.81,2.81,0,0,1-2.81,2.81h0a2.81,2.81,0,0,1-2.81-2.81V36.3A.69.69,0,0,1,32.29,35.6Z"/><path class="aba75e0c-d91a-46c2-9ed7-fbd49e5cd82c" d="M58.89,35.6h4.22a.69.69,0,0,1,.69.69v9.83A2.81,2.81,0,0,1,61,48.93h0a2.81,2.81,0,0,1-2.81-2.81V36.3A.69.69,0,0,1,58.89,35.6Z"/><path class="ae1b37e6-7b1a-4b2d-9e99-a0cfe9c3d06b" d="M79,60.8a.7.7,0,0,1-.7-.68v0A3.24,3.24,0,0,1,79.85,57a.71.71,0,0,1,1,.22.7.7,0,0,1-.22,1,1.8,1.8,0,0,0-1,1.82.78.78,0,0,1,0,.13A.71.71,0,0,1,79,60.8Zm-.7-.71v0Z"/><path class="a4d4bb7c-45c3-4260-9c00-6a7a20c60c94" d="M81.11,77.45H78a7.22,7.22,0,0,1-6.71-4.58l-2.07-5.3a6.46,6.46,0,0,1,6-8.79h8.57a6.46,6.46,0,0,1,6,8.79l-2,5.26A7.19,7.19,0,0,1,81.11,77.45Z"/></g></g></svg>