<?xml version="1.0" encoding="utf-8"?>
<svg version="1.1" x="0px" y="0px" viewBox="0 0 480 480" style="enable-background:new 0 0 192.5 188;" width="480px" height="480px" xmlns="http://www.w3.org/2000/svg">
  <style type="text/css">
	.st0{fill-rule:evenodd;clip-rule:evenodd;fill:#006D7A;}
	.st1{filter:url(#Adobe_OpacityMaskFilter);}
	.st2{fill-rule:evenodd;clip-rule:evenodd;fill:#FFFFFF;}
	.st3{mask:url(#mask-2_00000011729762765053058870000001640586169430223261_);fill-rule:evenodd;clip-rule:evenodd;fill:#FFFFFF;}
	.st4{filter:url(#Adobe_OpacityMaskFilter_00000111894577901873550880000001608050645499076491_);}
	.st5{mask:url(#mask-2_00000060732854404619941620000002409553601149909921_);fill:#FFFFFF;}
	.st6{filter:url(#Adobe_OpacityMaskFilter_00000122693478275607808790000000789775389450840965_);}
	.st7{mask:url(#mask-2_00000065036122458216260490000010659629677412576948_);fill:#FFFFFF;}
	.st8{filter:url(#Adobe_OpacityMaskFilter_00000148655340743484295680000000235447682164638644_);}
	.st9{mask:url(#mask-2_00000151503321321807907340000012373832190881353911_);fill:#FFFFFF;}
	.st10{filter:url(#Adobe_OpacityMaskFilter_00000126291258635334367800000009036648022725956757_);}
	.st11{mask:url(#mask-2_00000084521120017162910530000004045453224842687622_);fill:#FFFFFF;}
</style>
  <g id="Layer_1" style="" transform="matrix(4.057481, 0, 0, 4.057481, -128.338074, -139.983093)">
    <g id="Time-Tracking">
      <g id="Group_00000060734525980672918040000001854980018588643517_">
        <g id="Rectangle_00000053518486714283296860000003472940709178005386_">
          <path id="path-1_00000115474071112722333800000001498560418561467580_" class="st0" d="M90.78,34.5L90.78,34.5 c32.67,0,59.15,26.48,59.15,59.15l0,0c0,32.67-26.48,59.15-59.15,59.15l0,0c-32.67,0-59.15-26.48-59.15-59.15l0,0 C31.63,60.98,58.11,34.5,90.78,34.5z"/>
        </g>
        <defs>
          <filter id="Adobe_OpacityMaskFilter" filterUnits="userSpaceOnUse" x="86.83" y="54.22" width="7.89" height="9.86">
            <feColorMatrix type="matrix" values="1 0 0 0 0  0 1 0 0 0  0 0 1 0 0  0 0 0 1 0"/>
          </filter>
        </defs>
        <mask maskUnits="userSpaceOnUse" x="86.83" y="54.22" width="7.89" height="9.86" id="mask-2_00000011729762765053058870000001640586169430223261_">
          <g class="st1">
            <path id="path-1_00000073722561231221399650000002571251689725696415_" class="st2" d="M90.78,34.5L90.78,34.5 c32.67,0,59.15,26.48,59.15,59.15l0,0c0,32.67-26.48,59.15-59.15,59.15l0,0c-32.67,0-59.15-26.48-59.15-59.15l0,0 C31.63,60.98,58.11,34.5,90.78,34.5z"/>
          </g>
        </mask>
        <rect id="Rectangle_00000041266593876904001390000004809678459670148758_" x="86.83" y="54.22" class="st3" width="7.89" height="9.86"/>
        <defs>
          <filter id="Adobe_OpacityMaskFilter_00000054950549928106294940000012716942655023618701_" filterUnits="userSpaceOnUse" x="108.38" y="63.26" width="12.79" height="12.79">
            <feColorMatrix type="matrix" values="1 0 0 0 0  0 1 0 0 0  0 0 1 0 0  0 0 0 1 0"/>
          </filter>
        </defs>
        <mask maskUnits="userSpaceOnUse" x="108.38" y="63.26" width="12.79" height="12.79" id="mask-2_00000060732854404619941620000002409553601149909921_">
          <g style="filter:url(#Adobe_OpacityMaskFilter_00000054950549928106294940000012716942655023618701_);">
            <path id="path-1_00000129168250174071633440000014190628123614405012_" class="st2" d="M90.78,34.5L90.78,34.5 c32.67,0,59.15,26.48,59.15,59.15l0,0c0,32.67-26.48,59.15-59.15,59.15l0,0c-32.67,0-59.15-26.48-59.15-59.15l0,0 C31.63,60.98,58.11,34.5,90.78,34.5z"/>
          </g>
        </mask>
        <polygon id="Path-60" class="st5" points="115.59,63.26 121.17,68.83 113.96,76.04 108.38,70.47 &#9;&#9;&#9;"/>
        <defs>
          <filter id="Adobe_OpacityMaskFilter_00000055677817788190305820000001909666134560382384_" filterUnits="userSpaceOnUse" x="57.26" y="53.97" width="67.03" height="76.89">
            <feColorMatrix type="matrix" values="1 0 0 0 0  0 1 0 0 0  0 0 1 0 0  0 0 0 1 0"/>
          </filter>
        </defs>
        <mask maskUnits="userSpaceOnUse" x="57.26" y="53.97" width="67.03" height="76.89" id="mask-2_00000065036122458216260490000010659629677412576948_">
          <g style="filter:url(#Adobe_OpacityMaskFilter_00000055677817788190305820000001909666134560382384_);">
            <path id="path-1_00000128477207529144773390000004457838098670824632_" class="st2" d="M90.78,34.5L90.78,34.5 c32.67,0,59.15,26.48,59.15,59.15l0,0c0,32.67-26.48,59.15-59.15,59.15l0,0c-32.67,0-59.15-26.48-59.15-59.15l0,0 C31.63,60.98,58.11,34.5,90.78,34.5z"/>
          </g>
        </mask>
        <path id="Combined-Shape_00000124860896352879598770000000333116115133889938_" class="st7" d="M90.78,63.83 c-18.51,0-33.52,15.01-33.52,33.52s15.01,33.52,33.52,33.52s33.52-15.01,33.52-33.52S109.29,63.83,90.78,63.83z M90.78,71.71 c14.16,0,25.63,11.48,25.63,25.63c0,14.16-11.48,25.63-25.63,25.63S65.14,111.5,65.14,97.34C65.14,83.19,76.62,71.71,90.78,71.71 z M100.63,53.97c2.18,0,3.94,1.77,3.94,3.94c0,2.15-1.72,3.9-3.87,3.94l-0.08,0H80.92c-2.18,0-3.94-1.77-3.94-3.94 c0-2.15,1.72-3.9,3.87-3.94l0.08,0H100.63z"/>
        <defs>
          <filter id="Adobe_OpacityMaskFilter_00000108999147223982438520000000171061436629040036_" filterUnits="userSpaceOnUse" x="108.38" y="63.26" width="12.79" height="12.79">
            <feColorMatrix type="matrix" values="1 0 0 0 0  0 1 0 0 0  0 0 1 0 0  0 0 0 1 0"/>
          </filter>
        </defs>
        <mask maskUnits="userSpaceOnUse" x="108.38" y="63.26" width="12.79" height="12.79" id="mask-2_00000151503321321807907340000012373832190881353911_">
          <g style="filter:url(#Adobe_OpacityMaskFilter_00000108999147223982438520000000171061436629040036_);">
            <path id="path-1_00000171716451065586275120000002056107117326814109_" class="st2" d="M90.78,34.5L90.78,34.5 c32.67,0,59.15,26.48,59.15,59.15l0,0c0,32.67-26.48,59.15-59.15,59.15l0,0c-32.67,0-59.15-26.48-59.15-59.15l0,0 C31.63,60.98,58.11,34.5,90.78,34.5z"/>
          </g>
        </mask>
        <polygon id="Path-60_00000121963405559761826540000012455159295612593814_" class="st9" points="115.59,63.26 121.17,68.83 &#10;&#9;&#9;&#9;&#9;113.96,76.04 108.38,70.47 &#9;&#9;&#9;"/>
        <defs>
          <filter id="Adobe_OpacityMaskFilter_00000058557151829799742960000003962177261980323749_" filterUnits="userSpaceOnUse" x="112.46" y="60.13" width="11.83" height="11.83">
            <feColorMatrix type="matrix" values="1 0 0 0 0  0 1 0 0 0  0 0 1 0 0  0 0 0 1 0"/>
          </filter>
        </defs>
        <mask maskUnits="userSpaceOnUse" x="112.46" y="60.13" width="11.83" height="11.83" id="mask-2_00000084521120017162910530000004045453224842687622_">
          <g style="filter:url(#Adobe_OpacityMaskFilter_00000058557151829799742960000003962177261980323749_);">
            <path id="path-1_00000168097355101727277640000006732759269821275008_" class="st2" d="M90.78,34.5L90.78,34.5 c32.67,0,59.15,26.48,59.15,59.15l0,0c0,32.67-26.48,59.15-59.15,59.15l0,0c-32.67,0-59.15-26.48-59.15-59.15l0,0 C31.63,60.98,58.11,34.5,90.78,34.5z"/>
          </g>
        </mask>
        <path id="Path-61" class="st11" d="M113.04,60.71c0.75-0.75,1.97-0.77,2.74-0.05l0.05,0.05l7.89,7.89c0.77,0.77,0.77,2.02,0,2.79 c-0.75,0.75-1.97,0.77-2.74,0.05l-0.05-0.05l-7.89-7.89C112.27,62.73,112.27,61.48,113.04,60.71z"/>
      </g>
    </g>
  </g>
  <g id="Layer_2"/>
</svg>