<svg xmlns="http://www.w3.org/2000/svg" fill="currentColor" aria-hidden="true" viewBox="0 0 65 65"><g fill-rule="evenodd"><path d="M32.036 6.035C17.154 6.035 5.09 18.1 5.09 32.983S17.154 59.93 32.036 59.93c14.883 0 26.948-12.065 26.948-26.947S46.919 6.035 32.036 6.035zM29.51 11.65v15.087a6.739 6.739 0 1 0 5.227 12.42l10.096 10.196.094.09a2.526 2.526 0 0 0 3.496-3.645L38.27 35.545a6.74 6.74 0 0 0-3.707-8.808V11.65l-.003-.13a2.526 2.526 0 0 0-5.05.13z" opacity=".5"></path><path d="M32.036.984c-17.673 0-32 14.327-32 32s14.327 32 32 32 32-14.327 32-32-14.327-32-32-32zm0 5.052C17.153 6.036 5.09 18.1 5.09 32.983s12.064 26.948 26.947 26.948 26.947-12.065 26.947-26.948S46.92 6.036 32.036 6.036z"></path></g></svg>