<svg width="48" height="48" viewBox="0 0 48 48" fill="none" xmlns="http://www.w3.org/2000/svg">
<g clip-path="url(#clip0_459_65790)">
<path fill-rule="evenodd" clip-rule="evenodd" d="M36.4293 7.69531H11.5713C9.43034 7.69531 7.69434 9.43131 7.69434 11.5723V36.4303C7.69434 38.5713 9.43034 40.3073 11.5713 40.3073H36.4293C38.5703 40.3073 40.3063 38.5713 40.3063 36.4303V11.5723C40.3063 9.43131 38.5703 7.69531 36.4293 7.69531ZM21.7423 31.1843C21.7423 31.8963 21.1653 32.4723 20.4543 32.4723H15.0033C14.2913 32.4723 13.7153 31.8953 13.7153 31.1843V15.0043C13.7153 14.2923 14.2923 13.7163 15.0033 13.7163H20.4543C21.1663 13.7163 21.7423 14.2933 21.7423 15.0043V31.1843ZM34.2853 23.7563C34.2853 24.4683 33.7083 25.0443 32.9973 25.0443H27.5463C26.8343 25.0443 26.2583 24.4673 26.2583 23.7563V15.0043C26.2583 14.2923 26.8353 13.7163 27.5463 13.7163H32.9973C33.7093 13.7163 34.2853 14.2933 34.2853 15.0043V23.7563V23.7563Z" fill="#1868DB"/>
</g>
<defs>
<clipPath id="clip0_459_65790">
<rect width="48" height="48" fill="white"/>
</clipPath>
</defs>
</svg>
