<svg width="32" height="32" viewBox="0 0 32 32" fill="none" xmlns="http://www.w3.org/2000/svg">
<path fill-rule="evenodd" clip-rule="evenodd" d="M28.2012 0H3.80393C2.79596 -9.15985e-07 1.8292 0.40032 1.11598 1.11304C0.402756 1.82576 0.00138954 2.7926 3.10938e-05 3.80122V28.1783C-0.00199383 28.6794 0.0949025 29.176 0.28516 29.6396C0.475417 30.1032 0.755289 30.5246 1.10872 30.8797C1.46214 31.2348 1.88217 31.5165 2.34468 31.7088C2.8072 31.901 3.3031 32 3.80393 32H28.2012C28.7016 31.9993 29.1969 31.8999 29.6589 31.7073C30.1208 31.5148 30.5402 31.2329 30.8931 30.8779C31.246 30.5229 31.5254 30.1017 31.7153 29.6384C31.9053 29.1752 32.002 28.679 32 28.1783V3.80122C31.9986 2.79349 31.5979 1.82742 30.8858 1.11485C30.1737 0.402277 29.2083 0.00135721 28.2012 0ZM13.8007 23.0484C13.8 23.2159 13.7663 23.3816 13.7015 23.5361C13.6367 23.6905 13.542 23.8306 13.4229 23.9483C13.3038 24.066 13.1627 24.1591 13.0076 24.2221C12.8525 24.2851 12.6865 24.3168 12.5191 24.3155H7.18746C6.85251 24.3141 6.53175 24.18 6.29539 23.9426C6.05903 23.7051 5.92632 23.3836 5.92633 23.0484V7.17153C5.92632 6.83637 6.05903 6.51486 6.29539 6.27738C6.53175 6.03991 6.85251 5.90582 7.18746 5.90446H12.5191C12.8545 5.90581 13.1758 6.03974 13.413 6.27707C13.6501 6.5144 13.784 6.8359 13.7853 7.17153L13.8007 23.0484ZM26.1044 15.7589C26.1044 15.9266 26.0712 16.0926 26.0066 16.2474C25.942 16.4021 25.8474 16.5425 25.7281 16.6603C25.6089 16.7782 25.4675 16.8712 25.3121 16.934C25.1567 16.9967 24.9904 17.028 24.8228 17.026H19.4912C19.1558 17.0246 18.8345 16.8907 18.5973 16.6534C18.3601 16.416 18.2263 16.0945 18.2249 15.7589V7.17153C18.2263 6.8359 18.3601 6.5144 18.5973 6.27707C18.8345 6.03974 19.1558 5.90581 19.4912 5.90446H24.8228C25.1577 5.90582 25.4785 6.03991 25.7149 6.27738C25.9512 6.51486 26.0839 6.83637 26.0839 7.17153L26.1044 15.7589Z" fill="url(#paint0_linear_2765_14044)"/>
<defs>
<linearGradient id="paint0_linear_2765_14044" x1="16.0154" y1="32" x2="16.0154" y2="0" gradientUnits="userSpaceOnUse">
<stop stop-color="#0052CC"/>
<stop offset="1" stop-color="#2684FF"/>
</linearGradient>
</defs>
</svg>
