<?xml version="1.0" encoding="utf-8"?>
<!-- Generator: Adobe Illustrator 24.0.2, SVG Export Plug-In . SVG Version: 6.00 Build 0)  -->
<svg version="1.1" id="Layer_1" xmlns="http://www.w3.org/2000/svg" xmlns:xlink="http://www.w3.org/1999/xlink" x="0px" y="0px"
	 viewBox="0 0 110 110" style="enable-background:new 0 0 110 110;" xml:space="preserve">
<style type="text/css">
	.st0{fill:#3AAFA9;}
	.st1{fill:#FFFFFF;}
</style>
<title>unito_vert_green_1</title>
<path class="st0" d="M55,0C24.6,0,0,24.6,0,55s24.6,55,55,55c30.4,0,55-24.6,55-55S85.4,0,55,0z"/>
<path class="st1" d="M89.6,61.2v4.5c0,1.2-0.5,2.3-1.4,3c-0.8,0.7-1.8,1-2.8,0.8c-1.6-0.3-3.1-2.2-3.1-3.9l0-9c0-1.5,0-2.9,0-4.4
	c0-2.5-0.9-4.9-2.7-7.1c-1.7-2.1-3.9-3.4-6.4-4c-3.2-0.7-6.2-0.1-8.8,1.8c-2.9,2.1-4.6,4.8-5.1,8.2c-0.3,1.7-0.3,3.4-0.3,5.2
	c-0.1,4.2-0.8,7.4-2.4,10.1c-2.4,4.3-5.9,7.4-10.4,9.1c-2.2,0.8-4.4,1.2-6.6,1.2c-0.6,0-1.2,0-1.9-0.1c-4.2-0.4-7.9-2.1-11-4.9
	c-2.9-2.7-4.7-5.7-5.6-9.2c-0.5-1.7-0.6-3.5-0.7-4.9c-0.1-2.2-0.1-4.4-0.1-6.5c0-1.6,0-3.2,0-4.8l0-0.9c0-1.1,0.4-2.6,2.4-3.7
	c1.2-0.6,2.5-0.5,3.6,0.4c1.3,1,1.9,2.5,1.6,4.2c0,0.2-0.1,0.5-0.1,0.7c0,1.1,0,2.2,0,3.3c0,2.6-0.1,5.2,0.1,7.8
	c0.1,3.4,1.6,6.3,4.4,8.5c1.6,1.3,3.4,2.1,5.3,2.4c3.4,0.5,6.4-0.2,9.1-2.2c2.3-1.7,3.8-4.1,4.5-7.2c0.2-0.7,0.2-1.5,0.2-2.3
	c0-0.6,0-1.2,0.1-1.7c0.1-0.7,0.1-1.3,0.1-2c0.1-1.6,0.1-3.2,0.5-4.8c0.9-3.6,2.4-6.5,4.5-8.8c2.4-2.7,5-4.5,8.2-5.6
	c4.8-1.6,9.6-1.3,14.2,1.1c5.7,2.9,9.1,7.6,10.3,14c0.3,1.5,0.4,3.1,0.4,4.9C89.6,56.5,89.6,58.9,89.6,61.2z"/>
</svg>
