<svg width="58" height="58" viewBox="0 0 58 58" fill="none" xmlns="http://www.w3.org/2000/svg">
<path d="M45.9173 22.7921V29C45.9173 32.3367 38.3435 35.0417 29.0007 35.0417C19.6578 35.0417 12.084 32.3367 12.084 29V22.7921C13.1992 23.5332 14.4868 24.1266 15.8195 24.6026C19.3657 25.8691 24.0262 26.5833 29.0007 26.5833C33.9751 26.5833 38.6357 25.8691 42.1818 24.6026C43.5145 24.1266 44.8021 23.5332 45.9173 22.7921Z" fill="white"/>
<path d="M45.9173 16.9167C45.9173 13.5799 38.3435 10.875 29.0007 10.875C19.6578 10.875 12.084 13.5799 12.084 16.9167C12.084 20.2534 19.6578 22.9583 29.0007 22.9583C38.3435 22.9583 45.9173 20.2534 45.9173 16.9167Z" fill="white"/>
<path d="M12.084 34.8755V39.875C12.084 43.2117 19.6578 45.9167 29.0007 45.9167C38.3435 45.9167 45.9173 43.2117 45.9173 39.875V34.8755C44.8021 35.6165 43.5145 36.21 42.1818 36.6859C38.6357 37.9524 33.9751 38.6667 29.0007 38.6667C24.0262 38.6667 19.3657 37.9524 15.8195 36.6859C14.4868 36.21 13.1992 35.6165 12.084 34.8755Z" fill="white"/>
</svg>
