<svg fill="none" height="40" viewBox="0 0 40 40" width="40" xmlns="http://www.w3.org/2000/svg"><g clip-rule="evenodd" fill="#091e42" fill-rule="evenodd"><path d="m32.2892 10.3614c0-1.59692-1.2946-2.89152-2.8915-2.89152h-19.0362c-1.59693 0-2.89153 1.2946-2.89153 2.89152v19.0362c0 1.597 1.2946 2.8916 2.89153 2.8916h19.0362c1.5969 0 2.8915-1.2946 2.8915-2.8916zm-21.3265 3.5634c-.0267-.5751-.5014-1.0332-1.0832-1.0332-.59886 0-1.08433.4854-1.08433 1.0843v3.1325l.00118.0511c.02665.5751.5014 1.0333 1.08315 1.0333.5989 0 1.0843-.4855 1.0843-1.0844v-3.1325zm-1.0832 7.6415c.5818 0 1.0565.4581 1.0832 1.0332l.0011.0511v3.1325c0 .5989-.4854 1.0844-1.0843 1.0844-.58175 0-1.0565-.4582-1.08315-1.0333l-.00118-.0511v-3.1325c0-.5989.48547-1.0843 1.08433-1.0843zm10-3.735c-1.1312 0-2.0482.917-2.0482 2.0482s.917 2.0482 2.0482 2.0482 2.0482-.917 2.0482-2.0482-.917-2.0482-2.0482-2.0482z" opacity=".5"/><path d="m11.3254 9.87952c-.7985 0-1.44576.64728-1.44576 1.44578v1.5663c.58166 0 1.05636.4581 1.08306 1.0333l.0011.051v3.1325c0 .5989-.4854 1.0843-1.08416 1.0844v3.3735c.58166 0 1.05636.4581 1.08306 1.0333l.0011.051v3.1325c0 .5988-.4854 1.0843-1.08416 1.0844v1.5662c0 .7985.64726 1.4458 1.44576 1.4458h17.1085c.7984 0 1.4457-.6473 1.4457-1.4458v-17.1084c0-.7985-.6473-1.44578-1.4457-1.44578zm3.8554 9.99998c0 2.5951 2.1037 4.6988 4.6988 4.6988 2.595 0 4.6987-2.1037 4.6987-4.6988s-2.1037-4.6988-4.6987-4.6988c-2.5951 0-4.6988 2.1037-4.6988 4.6988z"/></g></svg>