<svg width="105" height="34" viewBox="0 0 105 34" fill="none" xmlns="http://www.w3.org/2000/svg">
<g clip-path="url(#clip0_274_1176)">
<path d="M104.382 33.3111C103.784 30.4163 103.187 27.5213 102.59 24.626C101.893 21.2501 101.195 17.874 100.497 14.4978C99.8261 11.2481 99.1555 7.99873 98.4855 4.7498C98.2125 3.42587 97.9395 2.10194 97.6665 0.77801C97.6458 0.678243 97.6348 0.594073 97.4841 0.594484C95.2363 0.603516 92.9881 0.59818 90.7403 0.610907C89.9969 0.615013 89.2741 0.754193 88.6022 1.09701C87.6629 1.57655 87.0991 2.37962 86.7034 3.33377C82.5642 13.3184 78.4243 23.3028 74.2835 33.2869C74.2563 33.3526 74.2067 33.4154 74.2221 33.5C74.2571 33.5 74.2908 33.5049 74.3241 33.5049C77.1749 33.5049 80.0254 33.5061 82.8757 33.5086C83.013 33.5086 83.0548 33.4519 83.0963 33.3353C83.6394 31.8064 84.1903 30.2803 84.7318 28.751C84.7814 28.6105 84.8464 28.5703 84.9902 28.5703C88.4702 28.5747 91.9504 28.5747 95.4309 28.5703C95.5662 28.5703 95.6259 28.5929 95.6567 28.7473C95.959 30.2741 96.273 31.7986 96.5838 33.3238C96.6041 33.4232 96.611 33.5086 96.7617 33.5082C99.3141 33.5016 101.867 33.4993 104.419 33.5012V33.378C104.404 33.3575 104.391 33.335 104.382 33.3111ZM94.0854 21.8477C91.8318 21.8445 89.5783 21.8435 87.3249 21.8449C87.2952 21.8426 87.2656 21.8383 87.2364 21.8321C88.7147 17.7302 90.2504 13.6599 91.6978 9.49715C91.7831 9.90074 91.8603 10.2526 91.9322 10.6057C92.6879 14.3024 93.4439 17.9991 94.2003 21.6958C94.2247 21.8169 94.2109 21.8477 94.0854 21.8477Z" fill="white"/>
<path d="M74.7015 21.2943C74.4171 19.535 73.5539 18.0865 72.3071 16.8548C71.0692 15.6318 69.6116 14.7359 68.0744 13.9579C66.9141 13.3712 65.7474 12.7956 64.6651 12.066C64.2475 11.7844 63.8526 11.4732 63.5276 11.0835C62.8203 10.2415 62.8203 9.22205 63.5276 8.37835C63.8212 8.03537 64.1805 7.75605 64.5839 7.55722C65.4593 7.10971 66.4026 6.9541 67.3687 6.90606C69.8468 6.78289 72.2136 7.23985 74.461 8.3106C74.5967 8.37506 74.7356 8.43377 74.8811 8.49782C74.8985 8.41324 74.9136 8.35371 74.9217 8.29254C75.2792 6.06687 75.6326 3.84039 75.9991 1.61636C76.0295 1.42997 75.9792 1.37002 75.8215 1.31213C74.0185 0.638133 72.1319 0.219497 70.2153 0.0681296C70.0256 0.0525281 69.8277 0.0808586 69.6465 -0.0020752H67.209C67.1944 0.0566354 67.1457 0.0361072 67.1103 0.0389812C66.3064 0.086415 65.506 0.182384 64.7134 0.326376C62.5904 0.718874 60.5872 1.42792 58.7891 2.66043C56.8679 3.97711 55.4424 5.69244 54.7201 7.94972C54.2809 9.32223 54.1314 10.7292 54.3545 12.1605C54.6072 13.7842 55.3949 15.1329 56.5076 16.3026C57.6609 17.5134 59.0341 18.4187 60.4856 19.2135C61.3883 19.7062 62.3284 20.1299 63.2193 20.6476C63.9911 21.0956 64.7464 21.5624 65.3464 22.2398C66.1906 23.1927 66.2328 24.4724 65.4565 25.4639C65.1907 25.7952 64.8655 26.0727 64.4977 26.2818C63.682 26.7634 62.789 27.0142 61.8571 27.0844C59.955 27.2277 58.0713 27.0844 56.2236 26.5803C54.816 26.1952 53.4871 25.606 52.1745 24.975C52.0998 24.9388 52.0295 24.8822 51.9308 24.885C51.8987 25.0903 51.869 25.2862 51.8378 25.4812C51.4843 27.6939 51.1298 29.9062 50.7742 32.1184C50.7575 32.2226 50.7799 32.2662 50.8717 32.3011C51.124 32.3975 51.371 32.51 51.6261 32.5995C54.205 33.5052 56.8744 33.892 59.5886 33.9877C61.1121 34.0397 62.6368 33.9328 64.1386 33.6686C66.0382 33.3373 67.855 32.7605 69.5267 31.7739C71.9309 30.3546 73.6449 28.3633 74.4163 25.6204C74.8173 24.2019 74.9371 22.7555 74.7015 21.2943Z" fill="white"/>
<path d="M38.6765 0.599048C35.8736 0.599048 33.0705 0.597543 30.2671 0.594533C30.0831 0.594533 30.0038 0.643389 29.9372 0.824858C27.2519 8.14549 24.5618 15.4643 21.8671 22.7814C21.8431 22.8459 21.8484 22.9337 21.7598 22.9678C21.6465 22.3951 21.5352 21.826 21.421 21.2574C21.229 20.2994 21.036 19.3425 20.8421 18.3867C20.8457 18.3457 20.8502 18.3013 20.8116 18.2705C20.8047 18.2036 20.8023 18.1363 20.7897 18.0706C20.4292 16.2094 20.0679 14.3482 19.7058 12.4869C19.1135 9.44876 18.5317 6.40525 17.9207 3.36913C17.6567 2.05532 16.8929 1.16522 15.5807 0.807207C15.0449 0.664742 14.4927 0.59488 13.9387 0.599459C9.55931 0.599459 5.18007 0.599459 0.800966 0.599459C0.78084 0.601514 0.76056 0.601514 0.740434 0.599459C0.577934 0.564972 0.529591 0.661043 0.507653 0.798993C0.489372 0.917646 0.486528 1.04205 0.418278 1.14838V1.27155C1.59884 1.55895 2.75137 1.93954 3.89537 2.34847C4.80984 2.67692 5.70684 3.04929 6.58475 3.46355C7.50757 3.89161 8.40757 4.36824 9.28103 4.8915C9.2859 4.90956 9.28103 4.93912 9.3119 4.93255C9.29118 5.00112 9.32206 5.0627 9.33871 5.12634L12.8926 18.6667C14.1696 23.5297 15.4448 28.3933 16.7182 33.2574C16.7633 33.4306 16.8324 33.4774 17.0026 33.477C19.8261 33.4713 22.6494 33.4713 25.4725 33.477C25.6265 33.477 25.7082 33.4438 25.7715 33.2861C30.1252 22.4664 34.4814 11.6487 38.8402 0.833073C38.934 0.599462 38.934 0.599048 38.6765 0.599048Z" fill="white"/>
<path d="M50.541 0.596108C49.4783 0.601445 48.4151 0.598979 47.3524 0.598979C45.7412 0.598979 44.1297 0.598979 42.518 0.598979C42.4128 0.598979 42.3226 0.58913 42.3031 0.741449C42.2588 1.08673 42.197 1.42996 42.1406 1.77401C41.7021 4.51904 41.2636 7.26421 40.8251 10.0095C40.4533 12.3297 40.0803 14.6496 39.7063 16.969C39.3071 19.4644 38.9091 21.9602 38.5124 24.4564C38.0411 27.4037 37.5671 30.3506 37.0905 33.2971C37.0555 33.5106 37.1262 33.5089 37.2851 33.5085C38.6123 33.504 39.9391 33.506 41.2663 33.506C42.6139 33.506 43.961 33.506 45.3081 33.506C45.4349 33.506 45.4954 33.4855 45.5173 33.3373C45.6453 32.4727 45.7871 31.6097 45.9236 30.7467C46.4514 27.4482 46.9796 24.15 47.5079 20.8521C48.0363 17.5542 48.5645 14.256 49.0923 10.9575C49.634 7.57199 50.178 4.18662 50.7242 0.801389C50.7584 0.605961 50.7003 0.595286 50.541 0.596108Z" fill="white"/>
</g>
<defs>
<clipPath id="clip0_274_1176">
<rect width="104" height="34" fill="white" transform="translate(0.418701)"/>
</clipPath>
</defs>
</svg>
