<svg width="771" height="529" viewBox="0 0 771 529" fill="none" xmlns="http://www.w3.org/2000/svg">
<path d="M604.069 115.9L269.938 79.1879V70.4759L0 62.3047V482L576.565 475.753L604.069 115.9Z" fill="#1868DB"/>
<path d="M763 0H291.357L211.088 208.177L383.019 453.3L551.099 458.053L757.888 464.3L763 0Z" fill="#1868DB"/>
<path d="M672.359 459.899C664.33 462.294 663.544 462.198 661.305 471.776C658.918 474.586 657.568 478.56 656.241 483.468C655.366 485.411 661.223 484.684 657.917 485.329C660.059 486.063 666.265 485.655 666.94 486.575C663.826 493.514 661.55 501.187 659.496 508.557C659.54 521.242 678.298 493.099 680.455 491.349C681.537 488.25 693.696 475.216 688.195 474.942C680.173 473.622 674.998 477.871 681.018 467.513C681.144 467.113 683.858 460.804 683.243 458.921C679.113 460.7 678.275 467.825 675.762 471.71C671.551 477.352 679.662 478.301 683.235 477.774C683.191 478.605 686.394 477.24 685.637 478.975C681.048 485.707 665.642 505.717 665.679 505.754C664.515 508.29 662.795 509.306 662.365 508.512C662.106 508.038 670.365 487.805 671.492 485.203C672.404 482.022 666.769 482.756 666.769 482.756C666.769 482.756 667.355 483.045 669.023 483.09C667.281 483.602 662.854 482.927 659.837 482.69C660.349 478.115 666.287 463.532 666.287 463.532C666.287 463.532 678.905 462.509 682.093 458.721C679.751 458.52 675.784 459.699 672.352 459.907L672.359 459.899Z" fill="#101214"/>
<path d="M769.385 453.019L770.215 451.499C770.482 450.995 770.823 450.469 770.912 450.017C771.023 449.564 771.008 449.186 770.979 448.875C770.971 448.786 770.979 448.734 770.934 448.63C770.897 448.526 770.816 448.408 770.764 448.363C770.645 448.267 770.526 448.163 770.378 448.059C770.082 447.859 769.704 447.644 769.17 447.548C768.621 447.474 768.035 447.429 767.472 447.362C764.618 447.073 761.771 446.784 758.961 446.502C756.321 446.228 753.712 445.954 751.124 445.687C748.811 445.435 746.52 445.19 744.267 444.945C744.089 444.901 743.807 444.96 743.77 444.723C743.785 444.523 743.925 444.352 744 444.182C744.519 443.07 745.03 441.965 745.542 440.875C746.691 438.436 747.81 436.056 748.9 433.736C751.102 429.109 753.23 424.743 755.276 420.702L755.031 420.939C755.202 420.65 755.573 419.679 755.817 419.508C756.129 418.582 756.588 417.314 757.13 415.913C757.404 415.216 757.686 414.482 757.975 413.74L758.412 412.628C758.672 412.013 758.924 411.405 759.176 410.805C759.472 410.078 759.517 409.463 759.472 408.921C759.413 408.358 759.198 407.78 758.85 407.327C758.16 406.386 757.048 406.015 756.277 406.074C755.358 406.319 754.601 406.512 754.075 406.653C753.801 406.757 753.586 406.838 753.43 406.89C753.319 406.927 753.267 406.949 753.267 406.949C749.738 408.276 746.001 409.307 742.265 410.3C742.265 410.3 741.027 410.538 739.055 410.923C738.061 411.116 736.89 411.346 735.585 411.605C734.932 411.739 734.243 411.887 733.531 412.035C733.175 412.109 732.805 412.198 732.426 412.295C732.071 412.384 731.715 412.48 731.352 412.576C728.468 413.31 725.198 414.015 722.27 415.201C720.809 415.787 719.445 416.506 718.303 417.314C717.154 418.122 716.235 419.034 715.582 419.864C713.721 421.755 712.342 424.016 711.215 426.337C710.081 428.665 709.199 431.067 708.324 433.447C707.471 435.841 706.559 438.14 705.588 440.49L702.727 447.518C702.727 447.518 698.3 459.395 697.403 463.147C697.114 464.348 696.929 465.349 696.84 466.097C697.196 466.068 697.692 466.045 698.315 466.038C699.442 464.014 701.207 459.936 703.705 453.175C703.801 453.049 704.024 452.611 704.105 452.574C705.166 449.52 706.293 446.532 707.471 443.567C708.072 442.091 708.672 440.616 709.273 439.14C709.896 437.635 710.474 436.108 711.037 434.625C712.172 431.66 713.299 428.746 714.767 426.159C715.501 424.869 716.316 423.66 717.25 422.607C718.184 421.547 719.2 420.687 720.416 419.946C720.179 419.842 720.416 419.479 720.787 419.419L720.809 419.716C722.418 418.663 724.175 418.011 725.88 417.499C727.593 416.988 729.29 416.624 730.996 416.224L732.278 415.913L733.531 415.587C734.347 415.386 735.162 415.186 736 414.986C737.713 414.563 739.507 414.074 741.427 413.422C741.412 413.429 740.604 413.955 740.589 413.97C743.681 413.296 746.898 412.569 750.279 411.672C751.124 411.435 751.977 411.205 752.844 410.938C753.274 410.812 753.712 410.678 754.149 410.53L754.535 410.404L754.616 410.375C754.72 410.33 754.861 410.271 754.957 410.375C755.061 410.471 754.994 410.612 754.942 410.723C752.444 416.261 749.812 422.111 747.128 428.064C745.727 431.178 744.311 434.314 742.902 437.457C742.198 439.029 741.494 440.601 740.789 442.165L739.929 444.071C739.759 444.434 739.611 444.805 739.551 445.146C739.492 445.487 739.492 445.791 739.514 446.065C739.536 446.599 739.907 447.348 740.367 447.733C740.582 447.926 740.812 448.059 741.101 448.208C741.397 448.341 741.746 448.452 742.139 448.497C748.344 449.112 754.394 449.713 760.251 450.298C761.637 450.432 763.009 450.565 764.373 450.691L765.389 450.788L765.826 450.825H765.915L766.301 450.847C766.352 450.862 766.464 450.817 766.471 450.899L766.397 451.062L766.234 451.41C765.974 451.907 765.707 452.396 765.448 452.893C765.144 453.464 764.847 454.035 764.529 454.591L764.64 454.48V454.554C764.847 454.272 765.129 453.857 765.455 453.323C765.767 452.826 766.137 452.233 766.538 451.581C766.708 451.344 766.916 451.055 767.146 450.714C767.19 450.625 767.294 450.55 767.294 450.447C767.25 450.365 767.138 450.395 767.064 450.358C766.879 450.321 766.701 450.284 766.523 450.254C766.323 450.217 766.123 450.18 765.937 450.143C765.515 450.083 765.107 450.024 764.714 449.972C763.898 449.861 763.157 449.757 762.52 449.676C761.252 449.505 760.429 449.394 760.429 449.394C761.674 449.357 762.942 449.364 764.217 449.401C764.84 449.431 765.47 449.453 766.1 449.483C766.59 449.505 767.101 449.535 767.62 449.572L768.406 449.638C768.473 449.646 768.54 449.638 768.599 449.661C768.658 449.683 768.703 449.75 768.688 449.816C768.636 449.935 768.569 450.046 768.51 450.157C768.258 450.61 768.006 451.069 767.746 451.529C767.45 452.048 767.146 452.574 766.842 453.093C766.508 453.672 766.175 454.25 765.819 454.821C764.388 457.089 762.979 459.388 761.474 461.612C760.74 462.739 760.006 463.858 759.28 464.97C758.538 466.075 757.812 467.18 757.115 468.292L756.863 468.04C759.346 464.251 761.244 460.685 761.971 459.247C757.626 466.112 750.88 476.291 743.488 485.885C739.833 490.711 735.985 495.367 732.441 499.564C730.655 501.647 728.964 503.641 727.348 505.428C726.547 506.332 725.784 507.2 725.057 508.023C724.323 508.838 723.626 509.609 722.974 510.329C723.211 510.277 724.064 509.276 725.035 508.26C725.999 507.237 727.059 506.162 727.8 506.014C727.133 506.755 726.458 507.496 725.791 508.23C725.116 508.957 724.434 509.683 723.767 510.403C723.092 511.122 722.425 511.834 721.765 512.538C721.098 513.235 720.416 513.909 719.749 514.569C719.348 514.169 721.024 512.775 721.254 512.397C720.616 512.901 718.644 514.829 715.604 517.646C714.077 519.047 712.32 520.708 710.289 522.48C710.044 522.695 709.799 522.91 709.555 523.132L709.377 523.281C709.251 523.362 709.162 523.496 709.013 523.525C708.865 523.548 708.71 523.451 708.65 523.303C708.583 523.147 708.68 522.991 708.717 522.843C709.258 521.019 709.822 519.107 710.4 517.134C711.089 514.836 711.816 512.471 712.58 510.062C714.107 505.243 715.768 500.238 717.525 495.241C719.274 490.244 721.12 485.247 722.981 480.428C723.908 478.019 724.842 475.654 725.769 473.355L726.11 472.496L726.28 472.065C726.31 471.991 726.34 471.939 726.362 471.836L726.436 471.509C726.636 470.635 726.836 469.767 727.037 468.907C727.133 468.477 727.237 468.047 727.333 467.625L727.481 466.987L727.556 466.668C727.563 466.616 727.593 466.557 727.585 466.52C727.563 466.468 727.519 466.468 727.474 466.446C726.822 466.186 726.169 465.927 725.524 465.667C723.656 465.741 721.832 465.808 720.053 465.875C718.763 465.912 717.502 465.942 716.287 465.971C713.855 466.023 711.571 466.045 709.488 466.045C705.314 466.031 701.918 466.023 699.605 466.016C699.131 466.016 698.716 466.016 698.33 466.016C698.174 466.298 698.034 466.535 697.9 466.735C698.664 466.868 699.679 467.017 700.999 467.195L700.176 467.447C704.276 467.721 708.02 467.884 711.823 468.032C713.721 468.099 715.634 468.166 717.606 468.24C718.592 468.27 719.593 468.307 720.616 468.344C721.128 468.359 721.647 468.381 722.166 468.396C722.536 468.418 722.907 468.44 723.285 468.462C723.382 468.455 723.471 468.448 723.545 468.44C724.167 468.388 724.234 468.403 724.531 468.129C724.827 468.069 725.406 467.966 725.472 467.84C725.583 467.751 725.717 467.669 725.865 467.602C725.91 467.588 726.014 467.55 726.014 467.602C726.014 467.632 726.014 467.676 726.006 467.728C725.969 467.929 725.865 468.27 725.724 468.662C725.443 469.456 725.02 470.397 724.805 470.976C724.064 469.923 721.439 476.017 719.067 482.927C716.657 489.814 714.552 497.473 713.914 499.223C712.676 499.578 711.571 506.154 710.504 508.156C710.511 507.993 710.578 506.97 710.593 506.837C710.289 507.267 709.54 509.55 708.68 512.627C708.25 514.161 707.783 515.896 707.316 517.683C706.834 519.588 706.337 521.553 705.863 523.429C705.729 524.007 705.67 524.511 705.655 524.978C705.648 525.453 705.826 525.942 706.152 526.313C706.782 527.084 707.916 527.277 708.665 526.898C709.362 526.506 709.992 525.913 710.556 525.379C711.06 524.912 711.505 524.504 711.875 524.17C713.254 522.932 713.588 522.806 712.038 524.659C718.021 519.796 724.59 513.694 731.225 506.592C737.883 499.512 744.519 491.356 750.85 482.615C757.167 473.86 763.09 464.451 768.399 454.88L769.414 453.019H769.385Z" fill="#101214"/>
</svg>
