<?xml version="1.0" encoding="UTF-8" standalone="no"?>
<svg width="125px" height="125px" viewBox="0 0 125 125" version="1.1" xmlns="http://www.w3.org/2000/svg" xmlns:xlink="http://www.w3.org/1999/xlink" xmlns:sketch="http://www.bohemiancoding.com/sketch/ns">
    <!-- Generator: Sketch 3.2.2 (9983) - http://www.bohemiancoding.com/sketch -->
    <title>voting-icon</title>
    <desc>Created with Sketch.</desc>
    <defs>
        <path id="path-1" d="M0,0 L0,125 L125,125 L125,0 L0,0 L0,0 Z"></path>
    </defs>
    <g id="Page-1" stroke="none" stroke-width="1" fill="none" fill-rule="evenodd" sketch:type="MSPage">
        <g id="Voting" sketch:type="MSLayerGroup" transform="translate(-23.000000, -55.000000)">
            <g id="voting-icon" transform="translate(23.000000, 55.000000)">
                <mask id="mask-2" sketch:name="Background" fill="white">
                    <use xlink:href="#path-1"></use>
                </mask>
                <use id="Background" fill="#70B500" sketch:type="MSShapeGroup" xlink:href="#path-1"></use>
                <path d="M10,48 L10,125 L27,125 L27,48 L10,48 L10,48 Z" id="Rectangle-135" fill="#0082A0" sketch:type="MSShapeGroup" mask="url(#mask-2)"></path>
                <path d="M26,125 L115,125 L115,63 L26,63 L26,125 Z" id="Rectangle-134" fill="#00C2E0" sketch:type="MSShapeGroup" mask="url(#mask-2)"></path>
                <path d="M10,48 L26.1279758,63 L115,63 L95.7075362,48 L10,48 L10,48 Z" id="Rectangle-134-copy" fill="#5DD3E5" sketch:type="MSShapeGroup" mask="url(#mask-2)"></path>
                <path d="M32.9932301,53 C31.8923995,53 31,53.8877296 31,55 L31,55 C31,56.1045695 31.8954434,57 32.9932301,57 L95.0067699,57 C96.1076005,57 97,56.1122704 97,55 L97,55 C97,53.8954305 96.1045566,53 95.0067699,53 L32.9932301,53 L32.9932301,53 Z" id="Rectangle-137" fill="#006988" sketch:type="MSShapeGroup" mask="url(#mask-2)"></path>
                <path d="M40,20 L40,57 L89,57 L89,20 L40,20 L40,20 Z" id="Rectangle-138" fill="#FFFFFF" sketch:type="MSShapeGroup" mask="url(#mask-2)"></path>
                <path d="M34,57 L34,63 L102,63 L102,57 L34,57 L34,57 Z" id="Rectangle-261" fill="#5DD3E5" sketch:type="MSShapeGroup" mask="url(#mask-2)"></path>
                <path d="M72.5589264,30.3938232 C73.1155528,29.8687256 74.0180112,29.8687256 74.5746376,30.3938232 L75.5824991,31.3445969 C76.1391254,31.8696945 76.1392085,32.7209794 75.5824991,33.2461442 L62.4803232,45.6061796 C62.2020279,45.8687116 61.8372388,46 61.4724736,46 C61.1076608,45.9999552 60.7428599,45.868678 60.4645527,45.6061236 L54.4175024,39.9015936 C53.8608523,39.3764736 53.8608286,38.525099 54.4174549,38.0000014 L55.4253283,37.0492277 C55.9819427,36.5241301 56.8844844,36.5242086 57.4410988,37.0492837 L61.4724736,40.8523112 L72.5589145,30.3938344 L72.5589264,30.3938232 Z" id="Shape" fill="#70B500" sketch:type="MSShapeGroup" mask="url(#mask-2)"></path>
                <path d="M60.610984,92.2455547 L60.610984,107.683788 C61.4118993,107.683788 62.6132723,107.968177 64.2351259,108.557267 C67.4588101,109.715135 68.6201373,109.97921 72.5846682,109.999523 C76.5491991,110.019837 80.5537757,109.390119 81.374714,108.232252 C81.8552632,107.521281 81.5949657,106.424354 81.3346682,105.855577 C81.194508,105.591501 81.2145309,105.307113 81.374714,105.022724 C81.6149886,104.697709 82.4159039,104.474261 83.0966819,104.311753 C83.77746,104.169559 84.5183066,103.661722 84.8186499,102.788243 C85.0589245,101.894451 84.8586957,101.325674 84.4782609,100.756897 C84.278032,100.492822 84.0778032,100.24906 83.8775744,100.045925 C83.4771167,99.6396561 83.1967963,99.1521329 83.3569794,98.7458636 C83.5171625,98.3192809 84.2179634,97.8926981 84.8186499,97.5676826 C85.4193364,97.2629807 86,96.5316959 86,95.5566496 C86,94.8253648 85.659611,94.1956474 85.2391304,93.8503185 C85.0188787,93.6674973 84.8186499,93.5049896 84.6184211,93.3424818 C84.1979405,93.0377799 83.8575515,92.7127644 83.8575515,92.3268086 C83.8575515,91.9814797 84.3981693,91.5345834 84.9387872,91.1486276 C85.479405,90.7626717 86,90.0923274 86,89.421983 C85.9399314,87.8984731 85.1790618,87.370323 83.3569794,86.6999787 C81.9353547,86.1515151 77.2099542,86.1515151 74.0062929,86.3749632 L71.6035469,86.5171575 C73.5457666,83.7342127 74.6470252,81.8044335 74.9273455,80.7075064 C75.2477117,79.4886985 75.528032,78.026129 75.4479405,76.3197979 C75.367849,74.6337802 74.6670481,74.0446897 74.0463387,73.5571666 C73.4056064,73.0696434 72.5646453,72.7649414 71.8438215,73.2321511 C71.0228833,73.7196743 70.7826087,75.6900804 70.562357,77.721427 C70.3421053,79.773087 70.0217391,80.3012371 68.3197941,82.2107028 C67.4588101,83.1654357 66.5577803,84.140482 65.5966819,85.1358418 C63.6544622,87.106248 63.2339817,87.5531442 62.4330664,89.2391618 C62.0326087,90.0720139 61.6922197,90.7829852 61.3918764,91.3314488 C61.0915332,91.9002258 60.8312357,92.2049278 60.610984,92.2455547 L60.610984,92.2455547 Z M55.805492,90.8845525 L51,90.8845525 L51,109.044791 L55.805492,109.044791 L55.805492,90.8845525 L55.805492,90.8845525 Z" id="Shape" fill="#006988" sketch:type="MSShapeGroup" mask="url(#mask-2)"></path>
            </g>
        </g>
    </g>
</svg>