<svg xmlns="http://www.w3.org/2000/svg" width="754.26" height="98.53" viewBox="0 0 754.26 98.53"><defs><style>.cls-1{fill:#fff;}</style></defs><title>worklife-white</title><g id="Layer_2" data-name="Layer 2"><g id="Layer_1-2" data-name="Layer 1"><path class="cls-1" d="M0,1.74H37L34,61.35,57.73,1.74H94.48l2.75,59.32L115.17,1.74h37L113.87,96.79H66.55l-1.3-47.16L47.31,96.79H4.77Z"/><path class="cls-1" d="M140.93,56.57C140.93,24.16,162.2,0,198.51,0c28.94,0,44.28,16.49,44.28,42,0,32.41-21.27,56.57-57.59,56.57C156.26,98.53,140.93,82,140.93,56.57Zm35.59-4.19c0,9,3.62,15.33,13,15.33,11.87,0,17.65-11.28,17.65-21.56,0-9-3.61-15.33-13.16-15.33C182.31,30.82,176.52,42.1,176.52,52.38Z"/><path class="cls-1" d="M321.64,66.84l12.88,30H293.86l-5.93-24.45h-8.1l-4.34,24.45h-36L256.25,1.74h46.87C328.3,1.74,341,12.88,341,33.86A37.2,37.2,0,0,1,321.64,66.84ZM287.21,30.09l-2.9,16.79H293c7.95,0,11-4.05,11-9.41,0-4.19-2.17-7.38-8.1-7.38Z"/><path class="cls-1" d="M381,55l-7.38,41.81H337.42L354.2,1.74h36.17l-7.23,41.09L408,1.74h40.66l-33.86,49,17.37,46H393.7Z"/><path class="cls-1" d="M511.91,1.74,500.48,66.41h29.37L524.5,96.79H459L475.74,1.74Z"/><path class="cls-1" d="M586.13,1.74,569.35,96.79H533.18L550,1.74Z"/><path class="cls-1" d="M618.54,72.05l-4.33,24.74H578L594.82,1.74h75.23L665,30.67H625.92l-2.17,12.45H660.5l-5.06,28.93Z"/><path class="cls-1" d="M678.59,1.74h75.67L749.2,30.67H709.7l-1.45,7.67h37.48l-4.06,23.44H704.2l-1.3,7.52h40.37l-4.92,27.49H661.81Z"/></g></g></svg>