<svg width="147" height="34" viewBox="0 0 147 34" fill="none" xmlns="http://www.w3.org/2000/svg">
<path fill-rule="evenodd" clip-rule="evenodd" d="M59.5569 5.40934C56.3337 2.20448 52.1146 0.602051 47.8954 0.602051H47.8773C43.6582 0.602051 39.439 2.20448 36.1977 5.40934C29.7513 11.8371 29.7513 22.2259 36.1977 28.6356C42.6622 35.0453 53.1105 35.0453 59.5569 28.6356C66.0033 22.2079 66.0033 11.8191 59.5569 5.40934ZM94.2336 28.6356C100.68 22.2079 100.68 11.8191 94.2336 5.40934C91.0103 2.20448 86.7912 0.602051 82.5359 0.602051C78.3167 0.602051 74.0976 2.20448 70.8744 5.40934C64.4279 11.8371 64.4279 22.2259 70.8744 28.6356C77.3389 35.0453 87.7871 35.0453 94.2336 28.6356ZM8.25721 33.4429L6.60939 33.3528C3.87509 33.1728 1.90133 31.2103 1.73836 28.5095L1.64782 26.8711L21.476 7.19182H6.60939L4.96157 7.1018C2.26349 6.93975 0.307834 4.92321 0.0905395 2.2585L0 0.620056H24.7716L26.4194 0.692075C29.1537 0.836114 31.1637 2.81665 31.2905 5.53538L31.381 7.17382L11.571 26.8711H26.4194L28.0673 26.9611C30.7834 27.1232 32.721 29.1037 32.9383 31.8044L33.0288 33.4429H8.25721ZM120.472 13.7456C120.399 12.5032 120.218 11.423 119.657 10.4507C118.498 8.48817 116.38 7.17382 113.989 7.20983C111.563 7.20983 109.426 8.50617 108.285 10.4687C107.706 11.441 107.543 12.5213 107.47 13.7636L107.38 15.402V26.8891L107.289 28.5275C107.181 31.2463 105.171 33.1908 102.418 33.3709L100.771 33.4609V0.620056C102.418 0.620056 105.297 1.44828 106.583 2.87066C108.702 1.44828 111.255 0.620056 113.989 0.620056C117.937 0.620056 121.468 2.34852 123.894 5.06725C126.321 2.34852 129.852 0.620056 133.799 0.620056C141.079 0.620056 147 6.48963 147 13.7456V15.402V33.4429L145.352 33.3528C142.618 33.1908 140.644 31.2103 140.481 28.5095L140.391 26.8711V15.366L140.3 13.7276C140.246 12.5393 140.065 11.423 139.503 10.4507C138.363 8.48817 136.226 7.17382 133.781 7.17382C131.355 7.17382 129.218 8.48817 128.077 10.4327C127.498 11.405 127.335 12.5213 127.262 13.7456L127.172 15.384V33.4429L125.524 33.3528C122.808 33.1908 120.816 31.1923 120.653 28.5095L120.562 26.8711V15.384L120.472 13.7456ZM54.7671 9.97341C58.6422 13.8264 58.6422 20.0561 54.7671 23.9091C50.892 27.7622 44.6267 27.7622 40.7516 23.9091C36.8765 20.0561 36.8765 13.8264 40.7516 9.97341C44.6086 6.12037 50.892 6.12037 54.7671 9.97341ZM89.4257 9.97341C93.3007 13.8264 93.3007 20.0561 89.4257 23.9091C85.5506 27.7622 79.2852 27.7622 75.4101 23.9091C71.535 20.0561 71.535 13.8264 75.4101 9.97341C79.2671 6.12037 85.5506 6.12037 89.4257 9.97341Z" fill="#C1C7D0"/>
</svg>
